<?xml version="1.0" encoding="utf-8" standalone="no"?>
<!DOCTYPE svg PUBLIC "-//W3C//DTD SVG 1.1//EN"
  "http://www.w3.org/Graphics/SVG/1.1/DTD/svg11.dtd">
<!-- Created with matplotlib (http://matplotlib.org/) -->
<svg height="432pt" version="1.1" viewBox="0 0 576 432" width="576pt" xmlns="http://www.w3.org/2000/svg" xmlns:xlink="http://www.w3.org/1999/xlink">
 <defs>
  <style type="text/css">
*{stroke-linecap:square;stroke-linejoin:round;}
  </style>
 </defs>
 <g id="figure_1">
  <g id="patch_1">
   <path d="
M0 432
L576 432
L576 0
L0 0
z
" style="fill:#ffffff;"/>
  </g>
  <g id="axes_1">
   <g id="patch_2">
    <path d="
M65.61 388.44
L556.599 388.44
L556.599 17.01
L65.61 17.01
z
" style="fill:#ffffff;"/>
   </g>
   <g id="line2d_1">
    <path clip-path="url(#pbd071c6c22)" d="
M65.7204 30.4207
L65.9612 92.1259
L66.202 141.743
L66.4428 144.159
L66.9244 179.166
L67.1653 182.346
L67.4061 222.973
L67.8877 261.812
L68.1285 262.637
L68.3693 278.642
L68.6101 283.886
L68.8509 284.251
L69.3326 287.416
L69.5734 287.576
L69.8142 288.799
L70.2958 289.6
L70.5366 289.645
L70.7775 291.781
L71.0182 292.192
L71.2591 292.257
L71.4999 293.159
L71.7407 293.45
L71.9815 293.497
L72.704 294.154
L72.9448 299.187
L73.4264 302.405
L73.908 302.675
L74.1488 302.907
L74.3897 302.919
L74.6305 303.679
L74.8713 305.547
L75.1121 305.927
L75.5937 306.136
L76.0754 306.16
L76.3161 306.132
L76.557 307.263
L76.7978 307.684
L77.0386 307.823
L77.2794 306.802
L77.761 307.083
L78.7243 307.297
L78.9651 307.838
L79.2059 308.028
L79.6876 308.124
L80.1692 308.198
L80.41 308.577
L81.1324 308.925
L81.614 309.001
L82.3365 309.051
L82.5773 309.387
L83.2997 309.558
L83.5406 309.715
L84.5038 309.763
L84.7446 310.654
L85.4671 310.953
L85.9487 310.938
L86.1895 311.727
L86.4303 312.079
L86.9119 312.182
L87.6344 312.259
L89.8017 312.645
L90.2833 312.601
L90.765 312.618
L91.0058 312.762
L91.969 312.737
L92.2098 312.894
L94.618 312.983
L94.8588 313.132
L95.822 313.202
L96.0628 313.368
L98.471 313.465
L98.7118 313.563
L99.675 313.528
L100.157 313.638
L100.638 313.576
L101.361 313.603
L103.046 313.77
L103.528 313.908
L104.25 313.854
L104.491 315.401
L104.732 315.641
L106.177 315.729
L107.381 315.848
L108.103 315.962
L108.344 317.099
L108.585 317.316
L108.826 317.326
L109.067 317.466
L110.752 317.495
L111.234 317.675
L112.198 317.74
L112.438 318.255
L112.679 318.259
L112.92 318.455
L113.642 318.48
L113.883 319.993
L115.087 320.259
L116.291 320.274
L116.532 320.534
L118.218 320.705
L119.663 320.892
L122.071 321.06
L122.793 322.327
L123.275 322.47
L142.781 323.009
L144.948 323.195
L145.43 323.234
L145.911 323.375
L146.874 323.447
L153.376 323.492
L153.858 324.294
L155.062 324.376
L155.303 325.107
L157.229 325.048
L158.915 324.977
L164.213 325.077
L165.899 325.183
L169.993 325.362
L170.474 325.876
L170.715 326.203
L171.678 326.349
L174.685 326.437
L177.932 326.507
L178.173 326.708
L178.654 327.383
L179.618 327.537
L184.488 327.622
L190.082 327.75
L192.909 327.791
L200.849 327.934
L204.578 327.996
L209.208 328.088
L209.93 328.213
L212.276 328.262
L215.282 328.374
L216.906 328.433
L219.011 328.503
L219.734 329.245
L220.456 329.386
L226.469 329.448
L226.951 329.87
L227.191 330.273
L227.914 330.415
L228.815 330.492
L229.296 330.9
L230.501 331.024
L236.962 331.133
L237.127 331.417
L237.293 332.854
L237.624 333.496
L238.121 333.814
L238.752 333.818
L238.993 334.225
L246.699 334.363
L246.896 334.381
L247.393 336.993
L247.724 337.533
L248.477 337.545
L248.959 338.101
L256.64 338.197
L256.805 338.375
L256.971 339.722
L257.136 340.108
L257.302 340.178
L257.633 340.483
L258.44 340.497
L258.68 340.856
L266.59 341.001
L266.755 341.073
L267.086 342.412
L267.583 342.598
L268.167 342.599
L268.89 343.093
L276.514 343.318
L277.011 344.101
L277.508 344.19
L277.904 344.19
L278.145 344.317
L278.627 344.902
L279.109 345.054
L286.07 345.088
L286.401 345.516
L286.567 346.003
L287.229 346.246
L288.111 346.252
L288.592 347.143
L289.074 347.073
L291.241 347.18
L291.723 347.256
L293.409 347.301
L293.89 347.691
L294.613 347.747
L296.78 347.726
L297.021 347.632
L297.984 347.662
L298.466 347.663
L298.707 347.789
L298.947 348.147
L299.67 348.423
L302.8 348.453
L310.747 348.511
L331.457 348.631
L347.11 348.827
L348.073 348.903
L349.2 349.021
L349.351 350.318
L349.577 350.415
L350.028 350.923
L350.178 352.134
L350.254 352.124
L350.63 352.132
L350.856 352.339
L351.082 353.897
L351.533 354.076
L351.684 354.138
L351.834 354.359
L352.06 354.099
L352.135 354.171
L352.436 354.255
L352.587 356.068
L352.737 358.169
L353.189 358.513
L360.498 358.545
L360.995 358.917
L362.345 358.983
L401.973 359.108
L403.3 359.442
L445.869 359.528
L446.321 360.015
L448.193 360.034
L448.418 360.524
L448.822 360.593
L492.979 360.701
L493.082 361.116
L493.237 361.484
L493.434 361.545
L533.171 361.566
L533.482 362.094
L533.584 362.094
L533.584 362.094" style="fill:none;stroke:#0000ff;"/>
   </g>
   <g id="line2d_2">
    <path clip-path="url(#pbd071c6c22)" d="
M65.6602 26.7181
L65.901 26.7181
L66.1418 26.7181
L66.3094 26.4125
L67.235 26.3085
L67.3171 26.1907
L67.608 26.2416
L67.9607 46.2999
L68.4423 46.3848
L69.6464 46.2893
L70.0936 46.5557
L70.895 46.4686
L71.0273 46.7584
L71.4943 46.8719
L71.674 66.7795
L71.9148 64.951
L72.1557 65.3415
L72.3965 65.3426
L72.6373 66.8506
L73.1189 66.9206
L74.0822 67.0225
L74.323 67.3865
L74.5356 67.9935
L74.7074 69.2097
L74.9043 69.4007
L75.6268 69.4994
L75.8676 69.4994
L76.0256 69.631
L76.1008 69.9918
L76.7629 70.1776
L76.9119 153.502
L77.1527 159.311
L77.3935 161.047
L77.6343 161.577
L78.1159 161.602
L78.8384 163.119
L79.0792 163.121
L79.32 163.396
L80.0425 163.456
L80.2833 164.03
L80.7649 164.08
L81.4717 164.601
L81.878 165.991
L82.3032 166.684
L82.7848 166.958
L83.7481 166.963
L83.8986 167.176
L84.9096 167.302
L85.1346 237.423
L85.3755 238.723
L85.6163 238.808
L86.0979 239.337
L86.8203 239.435
L87.5428 241.257
L89.7101 241.472
L90.4325 241.62
L91.155 241.709
L91.3958 241.833
L92.0242 242.519
L92.8934 242.886
L93.8566 242.846
L95.5216 242.848
L95.7474 243.745
L98.25 243.825
L98.4436 308.396
L98.6844 313.89
L98.9252 315.143
L99.166 317.469
L99.6476 318.902
L99.8884 319.197
L100.37 318.903
L100.852 318.679
L101.574 319.522
L102.056 319.73
L102.297 320.019
L103.982 320.442
L104.464 320.641
L105.175 320.901
L107.907 321.69
L108.351 321.787
L109.489 321.936
L110.421 322.044
L111.322 322.383
L112.526 322.587
L115.016 322.565
L115.091 322.324
L115.262 321.651
L120.97 321.747
L121.302 340.118
L121.783 341.677
L122.024 341.673
L122.506 342.098
L123.951 342.764
L124.673 343.282
L125.155 343.5
L125.877 343.639
L128.045 343.826
L131.538 344.139
L135.44 344.576
L137.476 344.717
L138.439 344.593
L141.81 344.721
L141.975 345.031
L142.125 345.533
L143.215 345.581
L152.156 345.668
L152.254 349.884
L152.495 353.58
L153.458 355.28
L153.94 355.503
L156.589 356.126
L156.83 356.294
L162.301 356.789
L170.336 357.287
L171.058 357.414
L175.371 357.386
L175.654 357.352
L188.854 357.587
L189.095 359.167
L189.336 359.417
L189.577 359.494
L189.817 359.382
L193.43 359.845
L196.801 359.895
L200.547 359.987
L209.334 360.183
L213.021 360.296
L213.199 360.397
L229.307 360.457
L229.476 360.771
L230.44 361.07
L236.942 361.264
L251.877 361.434
L262.774 361.419
L271.793 361.509
L272.275 361.595
L279.981 361.607
L368.778 361.816
L532.561 361.841
L532.561 361.841" style="fill:none;stroke:#008000;"/>
   </g>
   <g id="line2d_3">
    <path clip-path="url(#pbd071c6c22)" d="
M65.6301 33.1683
L65.8709 66.0653
L66.1117 65.9029
L66.3525 147.895
L66.5933 150.367
L66.8341 213.947
L67.3158 227.227
L67.5566 276.813
L68.5198 276.803
L68.7575 277.051
L68.9983 279.619
L69.2391 280.13
L69.4799 293.271
L70.2024 293.292
L70.4432 293.839
L70.684 293.873
L70.9248 295.797
L71.3437 296
L71.5576 297.144
L71.7984 299.258
L72.0392 300.187
L72.28 303.871
L72.5208 304.893
L72.7617 304.902
L73.0025 304.767
L73.2433 305.112
L73.7249 305.12
L74.2065 306.151
L74.6881 306.339
L74.929 305.166
L75.595 306.576
L75.9487 306.738
L76.1008 306.79
L76.1799 307.057
L76.3812 308.152
L76.6221 308.561
L76.8629 308.729
L77.1037 309.991
L77.3445 310.086
L77.5853 310.359
L77.8261 310.324
L78.5486 310.645
L78.7894 311.032
L79.0302 311.175
L79.5118 313.24
L79.9935 313.226
L80.7159 317.482
L80.9567 318.466
L81.1223 322.152
L81.5192 323.212
L81.7413 323.361
L82.2734 323.981
L82.7551 323.994
L82.851 323.835
L83.1317 324.903
L83.6134 325.41
L83.8541 325.574
L84.095 325.566
L84.3358 325.681
L84.5766 326.179
L84.8174 328.459
L85.0582 328.707
L85.299 330.505
L85.5399 330.939
L86.0215 330.74
L86.5031 330.693
L86.7439 330.88
L87.2256 331.463
L87.948 331.663
L88.1888 331.297
L88.4296 331.342
L88.9113 331.917
L89.152 332.493
L89.3646 333.47
L89.9805 337.649
L90.6496 337.772
L90.8045 337.995
L90.9347 338.411
L91.1755 338.411
L91.6572 338.534
L91.898 338.534
L92.0629 339.447
L92.1382 341.697
L92.4571 342.543
L93.902 342.946
L94.3836 342.916
L94.6244 343.131
L94.8653 342.884
L95.5877 343.382
L96.0693 343.55
L96.551 343.966
L97.2734 344.203
L97.755 344.241
L98.2367 345.276
L99.9223 346.006
L100.551 347.435
L101.185 348.178
L102.875 348.356
L102.986 348.628
L103.212 348.723
L103.452 349.191
L104.416 349.199
L104.587 349.423
L104.779 350.11
L105.15 350.232
L106.114 350.297
L106.354 350.537
L106.595 350.578
L107.558 351.321
L107.799 352.612
L109.485 352.909
L110.207 353.089
L110.93 353.156
L111.171 353.008
L111.882 353.186
L112.341 353.348
L117.112 354.863
L117.782 355.024
L119.291 355.057
L121.159 355.172
L121.34 355.285
L122.303 355.118
L124.202 355.127
L124.428 357.747
L125.986 357.844
L127.912 358.261
L128.153 358.196
L129.117 358.363
L131.284 358.555
L131.765 358.682
L133.159 358.852
L136.412 359.131
L137.088 359.244
L139.117 359.553
L147.278 360.181
L148.241 360.521
L151.048 360.546
L151.124 360.432
L151.447 359.473
L153.869 359.576
L154.832 359.786
L155.073 359.88
L155.314 360.373
L156.999 360.42
L167.951 360.981
L169.969 361.054
L179.439 361.13
L179.92 361.038
L183.491 361.21
L183.641 361.546
L183.812 362.107
L193.095 362.22
L207.288 362.51
L215.818 362.73
L217.745 362.797
L220.276 362.859
L220.427 362.681
L225.731 362.761
L226.213 362.854
L239.32 362.947
L253.945 363.005
L260.146 363.136
L260.303 363.245
L497.427 363.455
L535.659 363.456
L535.659 363.456" style="fill:none;stroke:#ff0000;"/>
   </g>
   <g id="matplotlib.axis_1">
    <g id="xtick_1">
     <g id="line2d_4">
      <defs>
       <path d="
M0 0
L0 -4" id="mcb557df647" style="stroke:#000000;stroke-linecap:butt;stroke-width:0.5;"/>
      </defs>
      <g>
       <use style="stroke:#000000;stroke-linecap:butt;stroke-width:0.5;" x="65.61" xlink:href="#mcb557df647" y="388.44"/>
      </g>
     </g>
     <g id="text_1">
      <!-- 0 -->
      <defs>
       <path d="
M31.7812 66.4062
Q24.1719 66.4062 20.3281 58.9062
Q16.5 51.4219 16.5 36.375
Q16.5 21.3906 20.3281 13.8906
Q24.1719 6.39062 31.7812 6.39062
Q39.4531 6.39062 43.2812 13.8906
Q47.125 21.3906 47.125 36.375
Q47.125 51.4219 43.2812 58.9062
Q39.4531 66.4062 31.7812 66.4062
M31.7812 74.2188
Q44.0469 74.2188 50.5156 64.5156
Q56.9844 54.8281 56.9844 36.375
Q56.9844 17.9688 50.5156 8.26562
Q44.0469 -1.42188 31.7812 -1.42188
Q19.5312 -1.42188 13.0625 8.26562
Q6.59375 17.9688 6.59375 36.375
Q6.59375 54.8281 13.0625 64.5156
Q19.5312 74.2188 31.7812 74.2188" id="DejaVuSans-30"/>
      </defs>
      <g transform="translate(62.5865625 401.34625)scale(0.12 -0.12)">
       <use xlink:href="#DejaVuSans-30"/>
      </g>
     </g>
    </g>
    <g id="xtick_2">
     <g id="line2d_5">
      <g>
       <use style="stroke:#000000;stroke-linecap:butt;stroke-width:0.5;" x="147.4415625" xlink:href="#mcb557df647" y="388.44"/>
      </g>
     </g>
     <g id="text_2">
      <!-- 2 -->
      <defs>
       <path d="
M19.1875 8.29688
L53.6094 8.29688
L53.6094 0
L7.32812 0
L7.32812 8.29688
Q12.9375 14.1094 22.625 23.8906
Q32.3281 33.6875 34.8125 36.5312
Q39.5469 41.8438 41.4219 45.5312
Q43.3125 49.2188 43.3125 52.7812
Q43.3125 58.5938 39.2344 62.25
Q35.1562 65.9219 28.6094 65.9219
Q23.9688 65.9219 18.8125 64.3125
Q13.6719 62.7031 7.8125 59.4219
L7.8125 69.3906
Q13.7656 71.7812 18.9375 73
Q24.125 74.2188 28.4219 74.2188
Q39.75 74.2188 46.4844 68.5469
Q53.2188 62.8906 53.2188 53.4219
Q53.2188 48.9219 51.5312 44.8906
Q49.8594 40.875 45.4062 35.4062
Q44.1875 33.9844 37.6406 27.2188
Q31.1094 20.4531 19.1875 8.29688" id="DejaVuSans-32"/>
      </defs>
      <g transform="translate(144.6646875 401.34625)scale(0.12 -0.12)">
       <use xlink:href="#DejaVuSans-32"/>
      </g>
     </g>
    </g>
    <g id="xtick_3">
     <g id="line2d_6">
      <g>
       <use style="stroke:#000000;stroke-linecap:butt;stroke-width:0.5;" x="229.273125" xlink:href="#mcb557df647" y="388.44"/>
      </g>
     </g>
     <g id="text_3">
      <!-- 4 -->
      <defs>
       <path d="
M37.7969 64.3125
L12.8906 25.3906
L37.7969 25.3906
z

M35.2031 72.9062
L47.6094 72.9062
L47.6094 25.3906
L58.0156 25.3906
L58.0156 17.1875
L47.6094 17.1875
L47.6094 0
L37.7969 0
L37.7969 17.1875
L4.89062 17.1875
L4.89062 26.7031
z
" id="DejaVuSans-34"/>
      </defs>
      <g transform="translate(226.085625 401.18875)scale(0.12 -0.12)">
       <use xlink:href="#DejaVuSans-34"/>
      </g>
     </g>
    </g>
    <g id="xtick_4">
     <g id="line2d_7">
      <g>
       <use style="stroke:#000000;stroke-linecap:butt;stroke-width:0.5;" x="311.1046875" xlink:href="#mcb557df647" y="388.44"/>
      </g>
     </g>
     <g id="text_4">
      <!-- 6 -->
      <defs>
       <path d="
M33.0156 40.375
Q26.375 40.375 22.4844 35.8281
Q18.6094 31.2969 18.6094 23.3906
Q18.6094 15.5312 22.4844 10.9531
Q26.375 6.39062 33.0156 6.39062
Q39.6562 6.39062 43.5312 10.9531
Q47.4062 15.5312 47.4062 23.3906
Q47.4062 31.2969 43.5312 35.8281
Q39.6562 40.375 33.0156 40.375
M52.5938 71.2969
L52.5938 62.3125
Q48.875 64.0625 45.0938 64.9844
Q41.3125 65.9219 37.5938 65.9219
Q27.8281 65.9219 22.6719 59.3281
Q17.5312 52.7344 16.7969 39.4062
Q19.6719 43.6562 24.0156 45.9219
Q28.375 48.1875 33.5938 48.1875
Q44.5781 48.1875 50.9531 41.5156
Q57.3281 34.8594 57.3281 23.3906
Q57.3281 12.1562 50.6875 5.35938
Q44.0469 -1.42188 33.0156 -1.42188
Q20.3594 -1.42188 13.6719 8.26562
Q6.98438 17.9688 6.98438 36.375
Q6.98438 53.6562 15.1875 63.9375
Q23.3906 74.2188 37.2031 74.2188
Q40.9219 74.2188 44.7031 73.4844
Q48.4844 72.75 52.5938 71.2969" id="DejaVuSans-36"/>
      </defs>
      <g transform="translate(308.0840625 401.34625)scale(0.12 -0.12)">
       <use xlink:href="#DejaVuSans-36"/>
      </g>
     </g>
    </g>
    <g id="xtick_5">
     <g id="line2d_8">
      <g>
       <use style="stroke:#000000;stroke-linecap:butt;stroke-width:0.5;" x="392.93625" xlink:href="#mcb557df647" y="388.44"/>
      </g>
     </g>
     <g id="text_5">
      <!-- 8 -->
      <defs>
       <path d="
M31.7812 34.625
Q24.75 34.625 20.7188 30.8594
Q16.7031 27.0938 16.7031 20.5156
Q16.7031 13.9219 20.7188 10.1562
Q24.75 6.39062 31.7812 6.39062
Q38.8125 6.39062 42.8594 10.1719
Q46.9219 13.9688 46.9219 20.5156
Q46.9219 27.0938 42.8906 30.8594
Q38.875 34.625 31.7812 34.625
M21.9219 38.8125
Q15.5781 40.375 12.0312 44.7188
Q8.5 49.0781 8.5 55.3281
Q8.5 64.0625 14.7188 69.1406
Q20.9531 74.2188 31.7812 74.2188
Q42.6719 74.2188 48.875 69.1406
Q55.0781 64.0625 55.0781 55.3281
Q55.0781 49.0781 51.5312 44.7188
Q48 40.375 41.7031 38.8125
Q48.8281 37.1562 52.7969 32.3125
Q56.7812 27.4844 56.7812 20.5156
Q56.7812 9.90625 50.3125 4.23438
Q43.8438 -1.42188 31.7812 -1.42188
Q19.7344 -1.42188 13.25 4.23438
Q6.78125 9.90625 6.78125 20.5156
Q6.78125 27.4844 10.7812 32.3125
Q14.7969 37.1562 21.9219 38.8125
M18.3125 54.3906
Q18.3125 48.7344 21.8438 45.5625
Q25.3906 42.3906 31.7812 42.3906
Q38.1406 42.3906 41.7188 45.5625
Q45.3125 48.7344 45.3125 54.3906
Q45.3125 60.0625 41.7188 63.2344
Q38.1406 66.4062 31.7812 66.4062
Q25.3906 66.4062 21.8438 63.2344
Q18.3125 60.0625 18.3125 54.3906" id="DejaVuSans-38"/>
      </defs>
      <g transform="translate(389.93625 401.34625)scale(0.12 -0.12)">
       <use xlink:href="#DejaVuSans-38"/>
      </g>
     </g>
    </g>
    <g id="xtick_6">
     <g id="line2d_9">
      <g>
       <use style="stroke:#000000;stroke-linecap:butt;stroke-width:0.5;" x="474.7678125" xlink:href="#mcb557df647" y="388.44"/>
      </g>
     </g>
     <g id="text_6">
      <!-- 10 -->
      <defs>
       <path d="
M12.4062 8.29688
L28.5156 8.29688
L28.5156 63.9219
L10.9844 60.4062
L10.9844 69.3906
L28.4219 72.9062
L38.2812 72.9062
L38.2812 8.29688
L54.3906 8.29688
L54.3906 0
L12.4062 0
z
" id="DejaVuSans-31"/>
      </defs>
      <g transform="translate(468.1903125 401.34625)scale(0.12 -0.12)">
       <use xlink:href="#DejaVuSans-31"/>
       <use x="63.623046875" xlink:href="#DejaVuSans-30"/>
      </g>
     </g>
    </g>
    <g id="xtick_7">
     <g id="line2d_10">
      <g>
       <use style="stroke:#000000;stroke-linecap:butt;stroke-width:0.5;" x="556.599375" xlink:href="#mcb557df647" y="388.44"/>
      </g>
     </g>
     <g id="text_7">
      <!-- 12 -->
      <g transform="translate(550.224375 401.34625)scale(0.12 -0.12)">
       <use xlink:href="#DejaVuSans-31"/>
       <use x="63.623046875" xlink:href="#DejaVuSans-32"/>
      </g>
     </g>
    </g>
    <g id="text_8">
     <!-- Bits per sample -->
     <defs>
      <path d="
M52 44.1875
Q55.375 50.25 60.0625 53.125
Q64.75 56 71.0938 56
Q79.6406 56 84.2812 50.0156
Q88.9219 44.0469 88.9219 33.0156
L88.9219 0
L79.8906 0
L79.8906 32.7188
Q79.8906 40.5781 77.0938 44.375
Q74.3125 48.1875 68.6094 48.1875
Q61.625 48.1875 57.5625 43.5469
Q53.5156 38.9219 53.5156 30.9062
L53.5156 0
L44.4844 0
L44.4844 32.7188
Q44.4844 40.625 41.7031 44.4062
Q38.9219 48.1875 33.1094 48.1875
Q26.2188 48.1875 22.1562 43.5312
Q18.1094 38.875 18.1094 30.9062
L18.1094 0
L9.07812 0
L9.07812 54.6875
L18.1094 54.6875
L18.1094 46.1875
Q21.1875 51.2188 25.4844 53.6094
Q29.7812 56 35.6875 56
Q41.6562 56 45.8281 52.9688
Q50 49.9531 52 44.1875" id="DejaVuSans-6d"/>
      <path d="
M34.2812 27.4844
Q23.3906 27.4844 19.1875 25
Q14.9844 22.5156 14.9844 16.5
Q14.9844 11.7188 18.1406 8.90625
Q21.2969 6.10938 26.7031 6.10938
Q34.1875 6.10938 38.7031 11.4062
Q43.2188 16.7031 43.2188 25.4844
L43.2188 27.4844
z

M52.2031 31.2031
L52.2031 0
L43.2188 0
L43.2188 8.29688
Q40.1406 3.32812 35.5469 0.953125
Q30.9531 -1.42188 24.3125 -1.42188
Q15.9219 -1.42188 10.9531 3.29688
Q6 8.01562 6 15.9219
Q6 25.1406 12.1719 29.8281
Q18.3594 34.5156 30.6094 34.5156
L43.2188 34.5156
L43.2188 35.4062
Q43.2188 41.6094 39.1406 45
Q35.0625 48.3906 27.6875 48.3906
Q23 48.3906 18.5469 47.2656
Q14.1094 46.1406 10.0156 43.8906
L10.0156 52.2031
Q14.9375 54.1094 19.5781 55.0469
Q24.2188 56 28.6094 56
Q40.4844 56 46.3438 49.8438
Q52.2031 43.7031 52.2031 31.2031" id="DejaVuSans-61"/>
      <path d="
M9.42188 75.9844
L18.4062 75.9844
L18.4062 0
L9.42188 0
z
" id="DejaVuSans-6c"/>
      <path id="DejaVuSans-20"/>
      <path d="
M19.6719 34.8125
L19.6719 8.10938
L35.5 8.10938
Q43.4531 8.10938 47.2812 11.4062
Q51.125 14.7031 51.125 21.4844
Q51.125 28.3281 47.2812 31.5625
Q43.4531 34.8125 35.5 34.8125
z

M19.6719 64.7969
L19.6719 42.8281
L34.2812 42.8281
Q41.5 42.8281 45.0312 45.5312
Q48.5781 48.25 48.5781 53.8125
Q48.5781 59.3281 45.0312 62.0625
Q41.5 64.7969 34.2812 64.7969
z

M9.8125 72.9062
L35.0156 72.9062
Q46.2969 72.9062 52.3906 68.2188
Q58.5 63.5312 58.5 54.8906
Q58.5 48.1875 55.375 44.2344
Q52.25 40.2812 46.1875 39.3125
Q53.4688 37.75 57.5 32.7812
Q61.5312 27.8281 61.5312 20.4062
Q61.5312 10.6406 54.8906 5.3125
Q48.25 0 35.9844 0
L9.8125 0
z
" id="DejaVuSans-42"/>
      <path d="
M9.42188 54.6875
L18.4062 54.6875
L18.4062 0
L9.42188 0
z

M9.42188 75.9844
L18.4062 75.9844
L18.4062 64.5938
L9.42188 64.5938
z
" id="DejaVuSans-69"/>
      <path d="
M18.3125 70.2188
L18.3125 54.6875
L36.8125 54.6875
L36.8125 47.7031
L18.3125 47.7031
L18.3125 18.0156
Q18.3125 11.3281 20.1406 9.42188
Q21.9688 7.51562 27.5938 7.51562
L36.8125 7.51562
L36.8125 0
L27.5938 0
Q17.1875 0 13.2344 3.875
Q9.28125 7.76562 9.28125 18.0156
L9.28125 47.7031
L2.6875 47.7031
L2.6875 54.6875
L9.28125 54.6875
L9.28125 70.2188
z
" id="DejaVuSans-74"/>
      <path d="
M56.2031 29.5938
L56.2031 25.2031
L14.8906 25.2031
Q15.4844 15.9219 20.4844 11.0625
Q25.4844 6.20312 34.4219 6.20312
Q39.5938 6.20312 44.4531 7.46875
Q49.3125 8.73438 54.1094 11.2812
L54.1094 2.78125
Q49.2656 0.734375 44.1875 -0.34375
Q39.1094 -1.42188 33.8906 -1.42188
Q20.7969 -1.42188 13.1562 6.1875
Q5.51562 13.8125 5.51562 26.8125
Q5.51562 40.2344 12.7656 48.1094
Q20.0156 56 32.3281 56
Q43.3594 56 49.7812 48.8906
Q56.2031 41.7969 56.2031 29.5938
M47.2188 32.2344
Q47.125 39.5938 43.0938 43.9844
Q39.0625 48.3906 32.4219 48.3906
Q24.9062 48.3906 20.3906 44.1406
Q15.875 39.8906 15.1875 32.1719
z
" id="DejaVuSans-65"/>
      <path d="
M18.1094 8.20312
L18.1094 -20.7969
L9.07812 -20.7969
L9.07812 54.6875
L18.1094 54.6875
L18.1094 46.3906
Q20.9531 51.2656 25.2656 53.625
Q29.5938 56 35.5938 56
Q45.5625 56 51.7812 48.0938
Q58.0156 40.1875 58.0156 27.2969
Q58.0156 14.4062 51.7812 6.48438
Q45.5625 -1.42188 35.5938 -1.42188
Q29.5938 -1.42188 25.2656 0.953125
Q20.9531 3.32812 18.1094 8.20312
M48.6875 27.2969
Q48.6875 37.2031 44.6094 42.8438
Q40.5312 48.4844 33.4062 48.4844
Q26.2656 48.4844 22.1875 42.8438
Q18.1094 37.2031 18.1094 27.2969
Q18.1094 17.3906 22.1875 11.75
Q26.2656 6.10938 33.4062 6.10938
Q40.5312 6.10938 44.6094 11.75
Q48.6875 17.3906 48.6875 27.2969" id="DejaVuSans-70"/>
      <path d="
M44.2812 53.0781
L44.2812 44.5781
Q40.4844 46.5312 36.375 47.5
Q32.2812 48.4844 27.875 48.4844
Q21.1875 48.4844 17.8438 46.4375
Q14.5 44.3906 14.5 40.2812
Q14.5 37.1562 16.8906 35.375
Q19.2812 33.5938 26.5156 31.9844
L29.5938 31.2969
Q39.1562 29.25 43.1875 25.5156
Q47.2188 21.7812 47.2188 15.0938
Q47.2188 7.46875 41.1875 3.01562
Q35.1562 -1.42188 24.6094 -1.42188
Q20.2188 -1.42188 15.4531 -0.5625
Q10.6875 0.296875 5.42188 2
L5.42188 11.2812
Q10.4062 8.6875 15.2344 7.39062
Q20.0625 6.10938 24.8125 6.10938
Q31.1562 6.10938 34.5625 8.28125
Q37.9844 10.4531 37.9844 14.4062
Q37.9844 18.0625 35.5156 20.0156
Q33.0625 21.9688 24.7031 23.7812
L21.5781 24.5156
Q13.2344 26.2656 9.51562 29.9062
Q5.8125 33.5469 5.8125 39.8906
Q5.8125 47.6094 11.2812 51.7969
Q16.75 56 26.8125 56
Q31.7812 56 36.1719 55.2656
Q40.5781 54.5469 44.2812 53.0781" id="DejaVuSans-73"/>
      <path d="
M41.1094 46.2969
Q39.5938 47.1719 37.8125 47.5781
Q36.0312 48 33.8906 48
Q26.2656 48 22.1875 43.0469
Q18.1094 38.0938 18.1094 28.8125
L18.1094 0
L9.07812 0
L9.07812 54.6875
L18.1094 54.6875
L18.1094 46.1875
Q20.9531 51.1719 25.4844 53.5781
Q30.0312 56 36.5312 56
Q37.4531 56 38.5781 55.875
Q39.7031 55.7656 41.0625 55.5156
z
" id="DejaVuSans-72"/>
     </defs>
     <g transform="translate(256.8109375 417.1546875)scale(0.14 -0.14)">
      <use xlink:href="#DejaVuSans-42"/>
      <use x="68.603515625" xlink:href="#DejaVuSans-69"/>
      <use x="96.38671875" xlink:href="#DejaVuSans-74"/>
      <use x="135.595703125" xlink:href="#DejaVuSans-73"/>
      <use x="187.6953125" xlink:href="#DejaVuSans-20"/>
      <use x="219.482421875" xlink:href="#DejaVuSans-70"/>
      <use x="282.958984375" xlink:href="#DejaVuSans-65"/>
      <use x="344.482421875" xlink:href="#DejaVuSans-72"/>
      <use x="385.595703125" xlink:href="#DejaVuSans-20"/>
      <use x="417.3828125" xlink:href="#DejaVuSans-73"/>
      <use x="469.482421875" xlink:href="#DejaVuSans-61"/>
      <use x="530.76171875" xlink:href="#DejaVuSans-6d"/>
      <use x="628.173828125" xlink:href="#DejaVuSans-70"/>
      <use x="691.650390625" xlink:href="#DejaVuSans-6c"/>
      <use x="719.43359375" xlink:href="#DejaVuSans-65"/>
     </g>
    </g>
   </g>
   <g id="matplotlib.axis_2">
    <g id="ytick_1">
     <g id="line2d_11">
      <defs>
       <path d="
M0 0
L4 0" id="mc8fcea1516" style="stroke:#000000;stroke-linecap:butt;stroke-width:0.5;"/>
      </defs>
      <g>
       <use style="stroke:#000000;stroke-linecap:butt;stroke-width:0.5;" x="65.61" xlink:href="#mc8fcea1516" y="388.44"/>
      </g>
     </g>
     <g id="text_9">
      <!-- 0.005 -->
      <defs>
       <path d="
M10.7969 72.9062
L49.5156 72.9062
L49.5156 64.5938
L19.8281 64.5938
L19.8281 46.7344
Q21.9688 47.4688 24.1094 47.8281
Q26.2656 48.1875 28.4219 48.1875
Q40.625 48.1875 47.75 41.5
Q54.8906 34.8125 54.8906 23.3906
Q54.8906 11.625 47.5625 5.09375
Q40.2344 -1.42188 26.9062 -1.42188
Q22.3125 -1.42188 17.5469 -0.640625
Q12.7969 0.140625 7.71875 1.70312
L7.71875 11.625
Q12.1094 9.23438 16.7969 8.0625
Q21.4844 6.89062 26.7031 6.89062
Q35.1562 6.89062 40.0781 11.3281
Q45.0156 15.7656 45.0156 23.3906
Q45.0156 31 40.0781 35.4375
Q35.1562 39.8906 26.7031 39.8906
Q22.75 39.8906 18.8125 39.0156
Q14.8906 38.1406 10.7969 36.2812
z
" id="DejaVuSans-35"/>
       <path d="
M10.6875 12.4062
L21 12.4062
L21 0
L10.6875 0
z
" id="DejaVuSans-2e"/>
      </defs>
      <g transform="translate(29.095625 392.8078125)scale(0.12 -0.12)">
       <use xlink:href="#DejaVuSans-30"/>
       <use x="63.623046875" xlink:href="#DejaVuSans-2e"/>
       <use x="95.41015625" xlink:href="#DejaVuSans-30"/>
       <use x="159.033203125" xlink:href="#DejaVuSans-30"/>
       <use x="222.65625" xlink:href="#DejaVuSans-35"/>
      </g>
     </g>
    </g>
    <g id="ytick_2">
     <g id="line2d_12">
      <g>
       <use style="stroke:#000000;stroke-linecap:butt;stroke-width:0.5;" x="65.61" xlink:href="#mc8fcea1516" y="335.378571429"/>
      </g>
     </g>
     <g id="text_10">
      <!-- 0.010 -->
      <g transform="translate(28.844375 339.746383929)scale(0.12 -0.12)">
       <use xlink:href="#DejaVuSans-30"/>
       <use x="63.623046875" xlink:href="#DejaVuSans-2e"/>
       <use x="95.41015625" xlink:href="#DejaVuSans-30"/>
       <use x="159.033203125" xlink:href="#DejaVuSans-31"/>
       <use x="222.65625" xlink:href="#DejaVuSans-30"/>
      </g>
     </g>
    </g>
    <g id="ytick_3">
     <g id="line2d_13">
      <g>
       <use style="stroke:#000000;stroke-linecap:butt;stroke-width:0.5;" x="65.61" xlink:href="#mc8fcea1516" y="282.317142857"/>
      </g>
     </g>
     <g id="text_11">
      <!-- 0.015 -->
      <g transform="translate(29.095625 286.684955357)scale(0.12 -0.12)">
       <use xlink:href="#DejaVuSans-30"/>
       <use x="63.623046875" xlink:href="#DejaVuSans-2e"/>
       <use x="95.41015625" xlink:href="#DejaVuSans-30"/>
       <use x="159.033203125" xlink:href="#DejaVuSans-31"/>
       <use x="222.65625" xlink:href="#DejaVuSans-35"/>
      </g>
     </g>
    </g>
    <g id="ytick_4">
     <g id="line2d_14">
      <g>
       <use style="stroke:#000000;stroke-linecap:butt;stroke-width:0.5;" x="65.61" xlink:href="#mc8fcea1516" y="229.255714286"/>
      </g>
     </g>
     <g id="text_12">
      <!-- 0.020 -->
      <g transform="translate(28.844375 233.623526786)scale(0.12 -0.12)">
       <use xlink:href="#DejaVuSans-30"/>
       <use x="63.623046875" xlink:href="#DejaVuSans-2e"/>
       <use x="95.41015625" xlink:href="#DejaVuSans-30"/>
       <use x="159.033203125" xlink:href="#DejaVuSans-32"/>
       <use x="222.65625" xlink:href="#DejaVuSans-30"/>
      </g>
     </g>
    </g>
    <g id="ytick_5">
     <g id="line2d_15">
      <g>
       <use style="stroke:#000000;stroke-linecap:butt;stroke-width:0.5;" x="65.61" xlink:href="#mc8fcea1516" y="176.194285714"/>
      </g>
     </g>
     <g id="text_13">
      <!-- 0.025 -->
      <g transform="translate(29.095625 180.562098214)scale(0.12 -0.12)">
       <use xlink:href="#DejaVuSans-30"/>
       <use x="63.623046875" xlink:href="#DejaVuSans-2e"/>
       <use x="95.41015625" xlink:href="#DejaVuSans-30"/>
       <use x="159.033203125" xlink:href="#DejaVuSans-32"/>
       <use x="222.65625" xlink:href="#DejaVuSans-35"/>
      </g>
     </g>
    </g>
    <g id="ytick_6">
     <g id="line2d_16">
      <g>
       <use style="stroke:#000000;stroke-linecap:butt;stroke-width:0.5;" x="65.61" xlink:href="#mc8fcea1516" y="123.132857143"/>
      </g>
     </g>
     <g id="text_14">
      <!-- 0.030 -->
      <defs>
       <path d="
M40.5781 39.3125
Q47.6562 37.7969 51.625 33
Q55.6094 28.2188 55.6094 21.1875
Q55.6094 10.4062 48.1875 4.48438
Q40.7656 -1.42188 27.0938 -1.42188
Q22.5156 -1.42188 17.6562 -0.515625
Q12.7969 0.390625 7.625 2.20312
L7.625 11.7188
Q11.7188 9.32812 16.5938 8.10938
Q21.4844 6.89062 26.8125 6.89062
Q36.0781 6.89062 40.9375 10.5469
Q45.7969 14.2031 45.7969 21.1875
Q45.7969 27.6406 41.2812 31.2656
Q36.7656 34.9062 28.7188 34.9062
L20.2188 34.9062
L20.2188 43.0156
L29.1094 43.0156
Q36.375 43.0156 40.2344 45.9219
Q44.0938 48.8281 44.0938 54.2969
Q44.0938 59.9062 40.1094 62.9062
Q36.1406 65.9219 28.7188 65.9219
Q24.6562 65.9219 20.0156 65.0312
Q15.375 64.1562 9.8125 62.3125
L9.8125 71.0938
Q15.4375 72.6562 20.3438 73.4375
Q25.25 74.2188 29.5938 74.2188
Q40.8281 74.2188 47.3594 69.1094
Q53.9062 64.0156 53.9062 55.3281
Q53.9062 49.2656 50.4375 45.0938
Q46.9688 40.9219 40.5781 39.3125" id="DejaVuSans-33"/>
      </defs>
      <g transform="translate(28.844375 127.500669643)scale(0.12 -0.12)">
       <use xlink:href="#DejaVuSans-30"/>
       <use x="63.623046875" xlink:href="#DejaVuSans-2e"/>
       <use x="95.41015625" xlink:href="#DejaVuSans-30"/>
       <use x="159.033203125" xlink:href="#DejaVuSans-33"/>
       <use x="222.65625" xlink:href="#DejaVuSans-30"/>
      </g>
     </g>
    </g>
    <g id="ytick_7">
     <g id="line2d_17">
      <g>
       <use style="stroke:#000000;stroke-linecap:butt;stroke-width:0.5;" x="65.61" xlink:href="#mc8fcea1516" y="70.0714285714"/>
      </g>
     </g>
     <g id="text_15">
      <!-- 0.035 -->
      <g transform="translate(29.095625 74.4392410714)scale(0.12 -0.12)">
       <use xlink:href="#DejaVuSans-30"/>
       <use x="63.623046875" xlink:href="#DejaVuSans-2e"/>
       <use x="95.41015625" xlink:href="#DejaVuSans-30"/>
       <use x="159.033203125" xlink:href="#DejaVuSans-33"/>
       <use x="222.65625" xlink:href="#DejaVuSans-35"/>
      </g>
     </g>
    </g>
    <g id="ytick_8">
     <g id="line2d_18">
      <g>
       <use style="stroke:#000000;stroke-linecap:butt;stroke-width:0.5;" x="65.61" xlink:href="#mc8fcea1516" y="17.01"/>
      </g>
     </g>
     <g id="text_16">
      <!-- 0.040 -->
      <g transform="translate(28.844375 21.3778125)scale(0.12 -0.12)">
       <use xlink:href="#DejaVuSans-30"/>
       <use x="63.623046875" xlink:href="#DejaVuSans-2e"/>
       <use x="95.41015625" xlink:href="#DejaVuSans-30"/>
       <use x="159.033203125" xlink:href="#DejaVuSans-34"/>
       <use x="222.65625" xlink:href="#DejaVuSans-30"/>
      </g>
     </g>
    </g>
    <g id="text_17">
     <!-- RMSE -->
     <defs>
      <path d="
M9.8125 72.9062
L24.5156 72.9062
L43.1094 23.2969
L61.8125 72.9062
L76.5156 72.9062
L76.5156 0
L66.8906 0
L66.8906 64.0156
L48.0938 14.0156
L38.1875 14.0156
L19.3906 64.0156
L19.3906 0
L9.8125 0
z
" id="DejaVuSans-4d"/>
      <path d="
M44.3906 34.1875
Q47.5625 33.1094 50.5625 29.5938
Q53.5625 26.0781 56.5938 19.9219
L66.6094 0
L56 0
L46.6875 18.7031
Q43.0625 26.0312 39.6719 28.4219
Q36.2812 30.8125 30.4219 30.8125
L19.6719 30.8125
L19.6719 0
L9.8125 0
L9.8125 72.9062
L32.0781 72.9062
Q44.5781 72.9062 50.7344 67.6719
Q56.8906 62.4531 56.8906 51.9062
Q56.8906 45.0156 53.6875 40.4688
Q50.4844 35.9375 44.3906 34.1875
M19.6719 64.7969
L19.6719 38.9219
L32.0781 38.9219
Q39.2031 38.9219 42.8438 42.2188
Q46.4844 45.5156 46.4844 51.9062
Q46.4844 58.2969 42.8438 61.5469
Q39.2031 64.7969 32.0781 64.7969
z
" id="DejaVuSans-52"/>
      <path d="
M53.5156 70.5156
L53.5156 60.8906
Q47.9062 63.5781 42.9219 64.8906
Q37.9375 66.2188 33.2969 66.2188
Q25.25 66.2188 20.875 63.0938
Q16.5 59.9688 16.5 54.2031
Q16.5 49.3594 19.4062 46.8906
Q22.3125 44.4375 30.4219 42.9219
L36.375 41.7031
Q47.4062 39.5938 52.6562 34.2969
Q57.9062 29 57.9062 20.125
Q57.9062 9.51562 50.7969 4.04688
Q43.7031 -1.42188 29.9844 -1.42188
Q24.8125 -1.42188 18.9688 -0.25
Q13.1406 0.921875 6.89062 3.21875
L6.89062 13.375
Q12.8906 10.0156 18.6562 8.29688
Q24.4219 6.59375 29.9844 6.59375
Q38.4219 6.59375 43.0156 9.90625
Q47.6094 13.2344 47.6094 19.3906
Q47.6094 24.75 44.3125 27.7812
Q41.0156 30.8125 33.5 32.3281
L27.4844 33.5
Q16.4531 35.6875 11.5156 40.375
Q6.59375 45.0625 6.59375 53.4219
Q6.59375 63.0938 13.4062 68.6562
Q20.2188 74.2188 32.1719 74.2188
Q37.3125 74.2188 42.625 73.2812
Q47.9531 72.3594 53.5156 70.5156" id="DejaVuSans-53"/>
      <path d="
M9.8125 72.9062
L55.9062 72.9062
L55.9062 64.5938
L19.6719 64.5938
L19.6719 43.0156
L54.3906 43.0156
L54.3906 34.7188
L19.6719 34.7188
L19.6719 8.29688
L56.7812 8.29688
L56.7812 0
L9.8125 0
z
" id="DejaVuSans-45"/>
     </defs>
     <g transform="translate(23.844375 221.16125)rotate(-90.0)scale(0.14 -0.14)">
      <use xlink:href="#DejaVuSans-52"/>
      <use x="69.482421875" xlink:href="#DejaVuSans-4d"/>
      <use x="155.76171875" xlink:href="#DejaVuSans-53"/>
      <use x="219.23828125" xlink:href="#DejaVuSans-45"/>
     </g>
    </g>
   </g>
   <g id="patch_3">
    <path d="
M65.61 388.44
L556.599 388.44" style="fill:none;stroke:#000000;"/>
   </g>
   <g id="patch_4">
    <path d="
M65.61 388.44
L65.61 17.01" style="fill:none;stroke:#000000;"/>
   </g>
   <g id="legend_1">
    <g id="patch_5">
     <path d="
M377.841 91.9395
L549.399 91.9395
L549.399 24.21
L377.841 24.21
L377.841 91.9395
z
" style="fill:#ffffff;stroke:#000000;"/>
    </g>
    <g id="line2d_19">
     <path d="
M387.921 35.8717
L408.081 35.8717" style="fill:none;stroke:#0000ff;"/>
    </g>
    <g id="line2d_20"/>
    <g id="text_18">
     <!-- by level -->
     <defs>
      <path d="
M32.1719 -5.07812
Q28.375 -14.8438 24.75 -17.8125
Q21.1406 -20.7969 15.0938 -20.7969
L7.90625 -20.7969
L7.90625 -13.2812
L13.1875 -13.2812
Q16.8906 -13.2812 18.9375 -11.5156
Q21 -9.76562 23.4844 -3.21875
L25.0938 0.875
L2.98438 54.6875
L12.5 54.6875
L29.5938 11.9219
L46.6875 54.6875
L56.2031 54.6875
z
" id="DejaVuSans-79"/>
      <path d="
M2.98438 54.6875
L12.5 54.6875
L29.5938 8.79688
L46.6875 54.6875
L56.2031 54.6875
L35.6875 0
L23.4844 0
z
" id="DejaVuSans-76"/>
      <path d="
M48.6875 27.2969
Q48.6875 37.2031 44.6094 42.8438
Q40.5312 48.4844 33.4062 48.4844
Q26.2656 48.4844 22.1875 42.8438
Q18.1094 37.2031 18.1094 27.2969
Q18.1094 17.3906 22.1875 11.75
Q26.2656 6.10938 33.4062 6.10938
Q40.5312 6.10938 44.6094 11.75
Q48.6875 17.3906 48.6875 27.2969
M18.1094 46.3906
Q20.9531 51.2656 25.2656 53.625
Q29.5938 56 35.5938 56
Q45.5625 56 51.7812 48.0938
Q58.0156 40.1875 58.0156 27.2969
Q58.0156 14.4062 51.7812 6.48438
Q45.5625 -1.42188 35.5938 -1.42188
Q29.5938 -1.42188 25.2656 0.953125
Q20.9531 3.32812 18.1094 8.20312
L18.1094 0
L9.07812 0
L9.07812 75.9844
L18.1094 75.9844
z
" id="DejaVuSans-62"/>
     </defs>
     <g transform="translate(423.921375 40.91175)scale(0.144 -0.144)">
      <use xlink:href="#DejaVuSans-62"/>
      <use x="63.4765625" xlink:href="#DejaVuSans-79"/>
      <use x="122.65625" xlink:href="#DejaVuSans-20"/>
      <use x="154.443359375" xlink:href="#DejaVuSans-6c"/>
      <use x="182.2265625" xlink:href="#DejaVuSans-65"/>
      <use x="243.75" xlink:href="#DejaVuSans-76"/>
      <use x="302.9296875" xlink:href="#DejaVuSans-65"/>
      <use x="364.453125" xlink:href="#DejaVuSans-6c"/>
     </g>
    </g>
    <g id="line2d_21">
     <path d="
M387.921 57.0082
L408.081 57.0082" style="fill:none;stroke:#008000;"/>
    </g>
    <g id="line2d_22"/>
    <g id="text_19">
     <!-- by bit plane -->
     <defs>
      <path d="
M54.8906 33.0156
L54.8906 0
L45.9062 0
L45.9062 32.7188
Q45.9062 40.4844 42.875 44.3281
Q39.8438 48.1875 33.7969 48.1875
Q26.5156 48.1875 22.3125 43.5469
Q18.1094 38.9219 18.1094 30.9062
L18.1094 0
L9.07812 0
L9.07812 54.6875
L18.1094 54.6875
L18.1094 46.1875
Q21.3438 51.125 25.7031 53.5625
Q30.0781 56 35.7969 56
Q45.2188 56 50.0469 50.1719
Q54.8906 44.3438 54.8906 33.0156" id="DejaVuSans-6e"/>
     </defs>
     <g transform="translate(423.921375 62.04825)scale(0.144 -0.144)">
      <use xlink:href="#DejaVuSans-62"/>
      <use x="63.4765625" xlink:href="#DejaVuSans-79"/>
      <use x="122.65625" xlink:href="#DejaVuSans-20"/>
      <use x="154.443359375" xlink:href="#DejaVuSans-62"/>
      <use x="217.919921875" xlink:href="#DejaVuSans-69"/>
      <use x="245.703125" xlink:href="#DejaVuSans-74"/>
      <use x="284.912109375" xlink:href="#DejaVuSans-20"/>
      <use x="316.69921875" xlink:href="#DejaVuSans-70"/>
      <use x="380.17578125" xlink:href="#DejaVuSans-6c"/>
      <use x="407.958984375" xlink:href="#DejaVuSans-61"/>
      <use x="469.23828125" xlink:href="#DejaVuSans-6e"/>
      <use x="532.6171875" xlink:href="#DejaVuSans-65"/>
     </g>
    </g>
    <g id="line2d_23">
     <path d="
M387.921 78.1447
L408.081 78.1447" style="fill:none;stroke:#ff0000;"/>
    </g>
    <g id="line2d_24"/>
    <g id="text_20">
     <!-- by wavelet norm -->
     <defs>
      <path d="
M30.6094 48.3906
Q23.3906 48.3906 19.1875 42.75
Q14.9844 37.1094 14.9844 27.2969
Q14.9844 17.4844 19.1562 11.8438
Q23.3438 6.20312 30.6094 6.20312
Q37.7969 6.20312 41.9844 11.8594
Q46.1875 17.5312 46.1875 27.2969
Q46.1875 37.0156 41.9844 42.7031
Q37.7969 48.3906 30.6094 48.3906
M30.6094 56
Q42.3281 56 49.0156 48.375
Q55.7188 40.7656 55.7188 27.2969
Q55.7188 13.875 49.0156 6.21875
Q42.3281 -1.42188 30.6094 -1.42188
Q18.8438 -1.42188 12.1719 6.21875
Q5.51562 13.875 5.51562 27.2969
Q5.51562 40.7656 12.1719 48.375
Q18.8438 56 30.6094 56" id="DejaVuSans-6f"/>
      <path d="
M4.20312 54.6875
L13.1875 54.6875
L24.4219 12.0156
L35.5938 54.6875
L46.1875 54.6875
L57.4219 12.0156
L68.6094 54.6875
L77.5938 54.6875
L63.2812 0
L52.6875 0
L40.9219 44.8281
L29.1094 0
L18.5 0
z
" id="DejaVuSans-77"/>
     </defs>
     <g transform="translate(423.921375 83.18475)scale(0.144 -0.144)">
      <use xlink:href="#DejaVuSans-62"/>
      <use x="63.4765625" xlink:href="#DejaVuSans-79"/>
      <use x="122.65625" xlink:href="#DejaVuSans-20"/>
      <use x="154.443359375" xlink:href="#DejaVuSans-77"/>
      <use x="236.23046875" xlink:href="#DejaVuSans-61"/>
      <use x="297.509765625" xlink:href="#DejaVuSans-76"/>
      <use x="356.689453125" xlink:href="#DejaVuSans-65"/>
      <use x="418.212890625" xlink:href="#DejaVuSans-6c"/>
      <use x="445.99609375" xlink:href="#DejaVuSans-65"/>
      <use x="507.51953125" xlink:href="#DejaVuSans-74"/>
      <use x="546.728515625" xlink:href="#DejaVuSans-20"/>
      <use x="578.515625" xlink:href="#DejaVuSans-6e"/>
      <use x="641.89453125" xlink:href="#DejaVuSans-6f"/>
      <use x="703.076171875" xlink:href="#DejaVuSans-72"/>
      <use x="742.439453125" xlink:href="#DejaVuSans-6d"/>
     </g>
    </g>
   </g>
  </g>
 </g>
 <defs>
  <clipPath id="pbd071c6c22">
   <rect height="371.43" width="490.989375" x="65.61" y="17.01"/>
  </clipPath>
 </defs>
</svg>
