<?xml version="1.0" encoding="utf-8" standalone="no"?>
<!DOCTYPE svg PUBLIC "-//W3C//DTD SVG 1.1//EN"
  "http://www.w3.org/Graphics/SVG/1.1/DTD/svg11.dtd">
<!-- Created with matplotlib (http://matplotlib.org/) -->
<svg height="432pt" version="1.1" viewBox="0 0 576 432" width="576pt" xmlns="http://www.w3.org/2000/svg" xmlns:xlink="http://www.w3.org/1999/xlink">
 <defs>
  <style type="text/css">
*{stroke-linecap:square;stroke-linejoin:round;}
  </style>
 </defs>
 <g id="figure_1">
  <g id="patch_1">
   <path d="
M0 432
L576 432
L576 0
L0 0
z
" style="fill:#ffffff;"/>
  </g>
  <g id="axes_1">
   <g id="patch_2">
    <path d="
M50.31 388.44
L556.599 388.44
L556.599 17.01
L50.31 17.01
z
" style="fill:#ffffff;"/>
   </g>
   <g id="line2d_1">
    <path clip-path="url(#p54d7579f98)" d="
M50.3512 60.6035
L50.9692 158.946
L51.5873 261.303
L51.7933 266.721
L51.9993 268.753
L52.2053 272.896
L52.6173 285.778
L52.8233 287.411
L53.2353 294.324
L53.4413 296.747
L53.8534 315.412
L54.0594 317.023
L54.2654 320.382
L54.4714 321.577
L54.8834 320.025
L55.0894 320.701
L55.2954 321.894
L55.5014 322.431
L55.7075 325.473
L55.9134 326.631
L56.1195 328.873
L56.3255 329.676
L56.7375 329.921
L56.9435 329.479
L57.3555 329.534
L57.5615 329.748
L57.7676 330.314
L57.9736 329.754
L58.3856 329.623
L58.7976 329.765
L59.2096 329.574
L60.0337 330.559
L60.6517 331.404
L60.8577 331.49
L61.0637 331.725
L61.2697 331.765
L61.4757 332.204
L61.6817 332.237
L62.0938 332.736
L62.5058 333.005
L63.1238 333.323
L63.3298 333.731
L63.5358 333.815
L63.7418 334.277
L63.9478 334.342
L65.1839 335.671
L65.3899 335.761
L65.5959 336.084
L65.8019 336.152
L66.2139 336.578
L66.42 336.618
L66.626 336.281
L67.45 336.429
L68.068 337.154
L68.6861 337.623
L68.8921 337.616
L69.0981 338.161
L69.9221 338.704
L70.1281 338.764
L71.1582 339.789
L71.5702 340.218
L72.1882 340.536
L72.3943 341.077
L72.6002 341.139
L73.0123 341.405
L73.6303 341.92
L74.8663 343.416
L75.4844 343.907
L75.6904 343.936
L76.1024 344.397
L76.3084 344.465
L76.5144 344.888
L76.7205 344.996
L77.3385 345.886
L77.5445 345.96
L78.7806 347.157
L78.9866 347.12
L79.8106 347.704
L80.0166 347.961
L80.2226 347.98
L80.4286 348.33
L80.6346 348.394
L80.8406 348.671
L81.0467 348.748
L81.4587 349.129
L81.6647 350.697
L82.2827 352.213
L83.9308 353.389
L84.1368 353.23
L84.3428 353.443
L84.5488 356.556
L84.7548 356.801
L84.9608 356.806
L85.3729 357.336
L85.5789 358.71
L85.7849 359.022
L92.7894 359.982
L92.9953 359.99
L93.2011 360.178
L94.8491 360.311
L95.6735 360.339
L99.7935 360.531
L100.617 360.575
L102.06 360.638
L102.678 360.703
L103.914 360.798
L104.326 360.939
L107.21 360.97
L111.948 361.083
L113.184 361.13
L114.42 361.291
L114.626 361.48
L119.159 361.67
L124.927 361.981
L125.339 362.086
L126.369 362.12
L126.575 362.345
L137.287 362.881
L144.498 363.124
L145.94 363.208
L152.12 363.376
L154.18 363.444
L157.682 363.542
L158.094 363.607
L160.566 363.712
L161.803 363.775
L162.214 363.782
L162.627 363.888
L164.893 363.992
L165.305 364.131
L167.365 364.238
L168.807 364.622
L169.219 364.73
L169.425 364.745
L169.631 365.137
L170.249 365.146
L170.455 365.379
L171.691 365.418
L172.103 365.426
L172.515 365.576
L173.751 365.684
L174.369 365.773
L203.417 366.682
L204.034 366.733
L218.455 367.264
L219.691 367.325
L219.897 367.327
L220.103 367.634
L220.721 367.688
L225.253 367.984
L225.665 368.253
L226.284 368.338
L226.902 368.397
L227.108 368.85
L227.313 369.013
L230.198 369.124
L232.67 369.287
L235.142 369.443
L238.232 369.745
L241.322 369.877
L244.206 369.992
L244.618 370.082
L251.622 370.405
L252.653 370.506
L254.095 370.561
L260.481 370.681
L264.189 370.753
L265.425 370.759
L270.782 370.997
L271.194 371.086
L284.584 371.362
L285.202 371.436
L287.468 371.63
L292.618 371.746
L293.031 372.079
L294.679 372.192
L296.945 372.285
L329.906 372.421
L361.014 372.576
L368.636 372.592
L436.413 372.802
L440.946 372.822
L487.917 372.865
L487.917 372.865" style="fill:none;stroke:#0000ff;"/>
   </g>
   <g id="line2d_2">
    <path clip-path="url(#p54d7579f98)" d="
M50.3409 38.9615
L50.5469 38.4291
L50.9589 38.4291
L51.1649 60.3249
L51.783 60.2816
L51.989 60.2816
L52.195 79.1595
L52.401 80.4688
L52.607 80.9733
L52.813 82.0629
L53.019 82.0629
L53.6371 82.425
L54.0491 82.425
L54.2551 115.182
L54.4611 121.911
L54.8731 121.518
L55.2851 121.852
L55.9031 121.899
L56.1092 122.115
L57.5512 122.069
L57.7573 122.016
L57.9632 194.362
L58.1693 199.518
L58.3753 197.587
L58.5813 197.872
L58.7873 198.367
L58.9933 197.965
L59.8174 199.438
L60.0234 200.797
L60.2293 201.242
L61.8774 201.66
L62.0835 201.995
L63.5255 202.428
L65.9976 202.545
L66.4097 202.747
L66.8217 202.775
L67.0277 248.055
L67.2337 255.573
L67.6457 256.836
L67.8517 256.997
L68.2637 257.771
L68.4698 258.009
L68.8818 258.811
L69.0878 258.786
L69.2938 259.13
L69.9118 259.315
L70.7359 259.26
L72.3839 259.569
L72.796 259.727
L73.826 259.863
L74.444 259.978
L76.5041 260.015
L77.5342 260.077
L79.8003 260.12
L80.0063 304.129
L80.2123 313.502
L81.2423 315.986
L81.8604 317.555
L82.4784 319.947
L83.7145 320.303
L84.7445 320.406
L87.8346 320.953
L88.4527 321.09
L91.3368 321.452
L91.9549 321.619
L93.3969 321.923
L94.6331 322.025
L98.753 322.449
L101.019 322.501
L101.225 340.655
L101.431 345.41
L101.637 346.809
L102.461 348.55
L103.697 350.669
L104.727 350.869
L107.406 351.184
L109.878 351.429
L110.496 351.542
L119.56 352.356
L127.801 352.435
L128.006 360.473
L128.213 362.62
L128.625 363.168
L129.655 364.106
L130.067 364.528
L130.479 364.95
L132.333 365.186
L136.453 365.468
L148.401 366.352
L160.968 366.421
L161.174 368.696
L161.38 369.717
L164.058 370.769
L168.178 370.946
L184.865 371.439
L197.844 371.473
L198.05 371.632
L198.256 372.305
L198.668 372.425
L201.758 372.717
L211.646 372.875
L237.604 373.081
L238.016 373.253
L241.518 373.368
L261.707 373.47
L454.944 373.649
L486.875 373.649
L486.875 373.649" style="fill:none;stroke:#008000;"/>
   </g>
   <g id="line2d_3">
    <path clip-path="url(#p54d7579f98)" d="
M50.4233 70.8333
L51.2473 226.404
L51.4534 240.843
L51.6594 273.095
L52.0714 273.182
L52.2774 281.078
L52.4834 296.047
L52.6894 299.137
L53.3074 299.073
L53.5134 298.97
L53.7195 296.769
L54.1315 313.268
L54.3375 313.72
L54.5435 314.91
L54.7495 315.187
L54.9555 315.853
L55.1615 315.674
L55.3675 315.949
L55.7796 317.128
L55.9855 317.386
L56.3976 317.555
L56.6036 319.878
L56.8096 320.289
L57.4276 327.239
L57.8397 327.764
L58.0457 326.673
L58.4577 327.789
L58.8697 328.909
L59.0757 329.386
L59.2817 330.232
L59.8998 330.46
L60.1058 331.18
L60.3118 331.275
L60.5178 331.72
L61.3418 331.72
L61.5478 332.103
L61.7538 333.922
L62.1659 334.675
L62.3719 335.154
L62.5779 336.198
L62.9899 338.772
L64.0199 342.107
L64.226 342.643
L64.844 342.933
L65.05 345.339
L65.462 345.944
L65.874 346.134
L66.08 346.642
L66.6981 346.84
L66.9041 347.136
L67.5221 347.202
L68.9642 347.148
L69.1702 347.769
L69.3762 347.879
L69.5822 348.136
L69.7882 348.211
L70.4062 349.002
L70.6122 349.717
L71.0243 350.418
L71.8483 352.12
L72.0543 352.394
L72.6723 352.489
L72.8784 353.077
L74.1144 353.346
L74.3204 353.439
L74.5265 353.696
L75.7625 353.921
L75.9685 354.076
L76.9985 354.163
L77.4106 354.252
L79.6767 354.371
L79.8827 354.445
L80.2947 354.847
L81.3247 355.412
L81.5308 355.483
L81.7368 356.002
L82.3548 358.778
L83.7969 359.944
L84.2089 360.007
L84.4149 360.41
L85.0329 360.574
L89.9772 361.535
L91.2132 361.721
L92.4493 361.994
L94.5095 362.113
L95.1276 362.164
L95.9516 362.227
L98.4235 362.341
L100.484 362.872
L101.102 363.995
L102.338 364.559
L102.956 364.657
L109.342 365.427
L111.402 365.611
L112.844 365.743
L117.376 365.875
L117.995 366
L119.437 366.285
L121.085 366.452
L121.909 366.576
L122.733 366.841
L123.763 366.991
L124.175 367.056
L124.793 367.775
L125.411 367.917
L137.771 368.814
L146.012 368.941
L149.102 369.261
L153.428 369.679
L153.84 369.788
L168.467 370.229
L178.973 370.35
L182.063 370.601
L190.304 370.923
L212.347 371.11
L217.085 371.226
L220.793 371.32
L247.162 371.431
L463.267 371.645
L489.225 371.645
L489.225 371.645" style="fill:none;stroke:#ff0000;"/>
   </g>
   <g id="matplotlib.axis_1">
    <g id="xtick_1">
     <g id="line2d_4">
      <defs>
       <path d="
M0 0
L0 -4" id="mcb557df647" style="stroke:#000000;stroke-linecap:butt;stroke-width:0.5;"/>
      </defs>
      <g>
       <use style="stroke:#000000;stroke-linecap:butt;stroke-width:0.5;" x="50.31" xlink:href="#mcb557df647" y="388.44"/>
      </g>
     </g>
     <g id="text_1">
      <!-- 0 -->
      <defs>
       <path d="
M31.7812 66.4062
Q24.1719 66.4062 20.3281 58.9062
Q16.5 51.4219 16.5 36.375
Q16.5 21.3906 20.3281 13.8906
Q24.1719 6.39062 31.7812 6.39062
Q39.4531 6.39062 43.2812 13.8906
Q47.125 21.3906 47.125 36.375
Q47.125 51.4219 43.2812 58.9062
Q39.4531 66.4062 31.7812 66.4062
M31.7812 74.2188
Q44.0469 74.2188 50.5156 64.5156
Q56.9844 54.8281 56.9844 36.375
Q56.9844 17.9688 50.5156 8.26562
Q44.0469 -1.42188 31.7812 -1.42188
Q19.5312 -1.42188 13.0625 8.26562
Q6.59375 17.9688 6.59375 36.375
Q6.59375 54.8281 13.0625 64.5156
Q19.5312 74.2188 31.7812 74.2188" id="DejaVuSans-30"/>
      </defs>
      <g transform="translate(47.2865625 401.34625)scale(0.12 -0.12)">
       <use xlink:href="#DejaVuSans-30"/>
      </g>
     </g>
    </g>
    <g id="xtick_2">
     <g id="line2d_5">
      <g>
       <use style="stroke:#000000;stroke-linecap:butt;stroke-width:0.5;" x="134.6915625" xlink:href="#mcb557df647" y="388.44"/>
      </g>
     </g>
     <g id="text_2">
      <!-- 2 -->
      <defs>
       <path d="
M19.1875 8.29688
L53.6094 8.29688
L53.6094 0
L7.32812 0
L7.32812 8.29688
Q12.9375 14.1094 22.625 23.8906
Q32.3281 33.6875 34.8125 36.5312
Q39.5469 41.8438 41.4219 45.5312
Q43.3125 49.2188 43.3125 52.7812
Q43.3125 58.5938 39.2344 62.25
Q35.1562 65.9219 28.6094 65.9219
Q23.9688 65.9219 18.8125 64.3125
Q13.6719 62.7031 7.8125 59.4219
L7.8125 69.3906
Q13.7656 71.7812 18.9375 73
Q24.125 74.2188 28.4219 74.2188
Q39.75 74.2188 46.4844 68.5469
Q53.2188 62.8906 53.2188 53.4219
Q53.2188 48.9219 51.5312 44.8906
Q49.8594 40.875 45.4062 35.4062
Q44.1875 33.9844 37.6406 27.2188
Q31.1094 20.4531 19.1875 8.29688" id="DejaVuSans-32"/>
      </defs>
      <g transform="translate(131.9146875 401.34625)scale(0.12 -0.12)">
       <use xlink:href="#DejaVuSans-32"/>
      </g>
     </g>
    </g>
    <g id="xtick_3">
     <g id="line2d_6">
      <g>
       <use style="stroke:#000000;stroke-linecap:butt;stroke-width:0.5;" x="219.073125" xlink:href="#mcb557df647" y="388.44"/>
      </g>
     </g>
     <g id="text_3">
      <!-- 4 -->
      <defs>
       <path d="
M37.7969 64.3125
L12.8906 25.3906
L37.7969 25.3906
z

M35.2031 72.9062
L47.6094 72.9062
L47.6094 25.3906
L58.0156 25.3906
L58.0156 17.1875
L47.6094 17.1875
L47.6094 0
L37.7969 0
L37.7969 17.1875
L4.89062 17.1875
L4.89062 26.7031
z
" id="DejaVuSans-34"/>
      </defs>
      <g transform="translate(215.885625 401.18875)scale(0.12 -0.12)">
       <use xlink:href="#DejaVuSans-34"/>
      </g>
     </g>
    </g>
    <g id="xtick_4">
     <g id="line2d_7">
      <g>
       <use style="stroke:#000000;stroke-linecap:butt;stroke-width:0.5;" x="303.4546875" xlink:href="#mcb557df647" y="388.44"/>
      </g>
     </g>
     <g id="text_4">
      <!-- 6 -->
      <defs>
       <path d="
M33.0156 40.375
Q26.375 40.375 22.4844 35.8281
Q18.6094 31.2969 18.6094 23.3906
Q18.6094 15.5312 22.4844 10.9531
Q26.375 6.39062 33.0156 6.39062
Q39.6562 6.39062 43.5312 10.9531
Q47.4062 15.5312 47.4062 23.3906
Q47.4062 31.2969 43.5312 35.8281
Q39.6562 40.375 33.0156 40.375
M52.5938 71.2969
L52.5938 62.3125
Q48.875 64.0625 45.0938 64.9844
Q41.3125 65.9219 37.5938 65.9219
Q27.8281 65.9219 22.6719 59.3281
Q17.5312 52.7344 16.7969 39.4062
Q19.6719 43.6562 24.0156 45.9219
Q28.375 48.1875 33.5938 48.1875
Q44.5781 48.1875 50.9531 41.5156
Q57.3281 34.8594 57.3281 23.3906
Q57.3281 12.1562 50.6875 5.35938
Q44.0469 -1.42188 33.0156 -1.42188
Q20.3594 -1.42188 13.6719 8.26562
Q6.98438 17.9688 6.98438 36.375
Q6.98438 53.6562 15.1875 63.9375
Q23.3906 74.2188 37.2031 74.2188
Q40.9219 74.2188 44.7031 73.4844
Q48.4844 72.75 52.5938 71.2969" id="DejaVuSans-36"/>
      </defs>
      <g transform="translate(300.4340625 401.34625)scale(0.12 -0.12)">
       <use xlink:href="#DejaVuSans-36"/>
      </g>
     </g>
    </g>
    <g id="xtick_5">
     <g id="line2d_8">
      <g>
       <use style="stroke:#000000;stroke-linecap:butt;stroke-width:0.5;" x="387.83625" xlink:href="#mcb557df647" y="388.44"/>
      </g>
     </g>
     <g id="text_5">
      <!-- 8 -->
      <defs>
       <path d="
M31.7812 34.625
Q24.75 34.625 20.7188 30.8594
Q16.7031 27.0938 16.7031 20.5156
Q16.7031 13.9219 20.7188 10.1562
Q24.75 6.39062 31.7812 6.39062
Q38.8125 6.39062 42.8594 10.1719
Q46.9219 13.9688 46.9219 20.5156
Q46.9219 27.0938 42.8906 30.8594
Q38.875 34.625 31.7812 34.625
M21.9219 38.8125
Q15.5781 40.375 12.0312 44.7188
Q8.5 49.0781 8.5 55.3281
Q8.5 64.0625 14.7188 69.1406
Q20.9531 74.2188 31.7812 74.2188
Q42.6719 74.2188 48.875 69.1406
Q55.0781 64.0625 55.0781 55.3281
Q55.0781 49.0781 51.5312 44.7188
Q48 40.375 41.7031 38.8125
Q48.8281 37.1562 52.7969 32.3125
Q56.7812 27.4844 56.7812 20.5156
Q56.7812 9.90625 50.3125 4.23438
Q43.8438 -1.42188 31.7812 -1.42188
Q19.7344 -1.42188 13.25 4.23438
Q6.78125 9.90625 6.78125 20.5156
Q6.78125 27.4844 10.7812 32.3125
Q14.7969 37.1562 21.9219 38.8125
M18.3125 54.3906
Q18.3125 48.7344 21.8438 45.5625
Q25.3906 42.3906 31.7812 42.3906
Q38.1406 42.3906 41.7188 45.5625
Q45.3125 48.7344 45.3125 54.3906
Q45.3125 60.0625 41.7188 63.2344
Q38.1406 66.4062 31.7812 66.4062
Q25.3906 66.4062 21.8438 63.2344
Q18.3125 60.0625 18.3125 54.3906" id="DejaVuSans-38"/>
      </defs>
      <g transform="translate(384.83625 401.34625)scale(0.12 -0.12)">
       <use xlink:href="#DejaVuSans-38"/>
      </g>
     </g>
    </g>
    <g id="xtick_6">
     <g id="line2d_9">
      <g>
       <use style="stroke:#000000;stroke-linecap:butt;stroke-width:0.5;" x="472.2178125" xlink:href="#mcb557df647" y="388.44"/>
      </g>
     </g>
     <g id="text_6">
      <!-- 10 -->
      <defs>
       <path d="
M12.4062 8.29688
L28.5156 8.29688
L28.5156 63.9219
L10.9844 60.4062
L10.9844 69.3906
L28.4219 72.9062
L38.2812 72.9062
L38.2812 8.29688
L54.3906 8.29688
L54.3906 0
L12.4062 0
z
" id="DejaVuSans-31"/>
      </defs>
      <g transform="translate(465.6403125 401.34625)scale(0.12 -0.12)">
       <use xlink:href="#DejaVuSans-31"/>
       <use x="63.623046875" xlink:href="#DejaVuSans-30"/>
      </g>
     </g>
    </g>
    <g id="xtick_7">
     <g id="line2d_10">
      <g>
       <use style="stroke:#000000;stroke-linecap:butt;stroke-width:0.5;" x="556.599375" xlink:href="#mcb557df647" y="388.44"/>
      </g>
     </g>
     <g id="text_7">
      <!-- 12 -->
      <g transform="translate(550.224375 401.34625)scale(0.12 -0.12)">
       <use xlink:href="#DejaVuSans-31"/>
       <use x="63.623046875" xlink:href="#DejaVuSans-32"/>
      </g>
     </g>
    </g>
    <g id="text_8">
     <!-- Bits per sample -->
     <defs>
      <path d="
M52 44.1875
Q55.375 50.25 60.0625 53.125
Q64.75 56 71.0938 56
Q79.6406 56 84.2812 50.0156
Q88.9219 44.0469 88.9219 33.0156
L88.9219 0
L79.8906 0
L79.8906 32.7188
Q79.8906 40.5781 77.0938 44.375
Q74.3125 48.1875 68.6094 48.1875
Q61.625 48.1875 57.5625 43.5469
Q53.5156 38.9219 53.5156 30.9062
L53.5156 0
L44.4844 0
L44.4844 32.7188
Q44.4844 40.625 41.7031 44.4062
Q38.9219 48.1875 33.1094 48.1875
Q26.2188 48.1875 22.1562 43.5312
Q18.1094 38.875 18.1094 30.9062
L18.1094 0
L9.07812 0
L9.07812 54.6875
L18.1094 54.6875
L18.1094 46.1875
Q21.1875 51.2188 25.4844 53.6094
Q29.7812 56 35.6875 56
Q41.6562 56 45.8281 52.9688
Q50 49.9531 52 44.1875" id="DejaVuSans-6d"/>
      <path d="
M34.2812 27.4844
Q23.3906 27.4844 19.1875 25
Q14.9844 22.5156 14.9844 16.5
Q14.9844 11.7188 18.1406 8.90625
Q21.2969 6.10938 26.7031 6.10938
Q34.1875 6.10938 38.7031 11.4062
Q43.2188 16.7031 43.2188 25.4844
L43.2188 27.4844
z

M52.2031 31.2031
L52.2031 0
L43.2188 0
L43.2188 8.29688
Q40.1406 3.32812 35.5469 0.953125
Q30.9531 -1.42188 24.3125 -1.42188
Q15.9219 -1.42188 10.9531 3.29688
Q6 8.01562 6 15.9219
Q6 25.1406 12.1719 29.8281
Q18.3594 34.5156 30.6094 34.5156
L43.2188 34.5156
L43.2188 35.4062
Q43.2188 41.6094 39.1406 45
Q35.0625 48.3906 27.6875 48.3906
Q23 48.3906 18.5469 47.2656
Q14.1094 46.1406 10.0156 43.8906
L10.0156 52.2031
Q14.9375 54.1094 19.5781 55.0469
Q24.2188 56 28.6094 56
Q40.4844 56 46.3438 49.8438
Q52.2031 43.7031 52.2031 31.2031" id="DejaVuSans-61"/>
      <path d="
M9.42188 75.9844
L18.4062 75.9844
L18.4062 0
L9.42188 0
z
" id="DejaVuSans-6c"/>
      <path id="DejaVuSans-20"/>
      <path d="
M19.6719 34.8125
L19.6719 8.10938
L35.5 8.10938
Q43.4531 8.10938 47.2812 11.4062
Q51.125 14.7031 51.125 21.4844
Q51.125 28.3281 47.2812 31.5625
Q43.4531 34.8125 35.5 34.8125
z

M19.6719 64.7969
L19.6719 42.8281
L34.2812 42.8281
Q41.5 42.8281 45.0312 45.5312
Q48.5781 48.25 48.5781 53.8125
Q48.5781 59.3281 45.0312 62.0625
Q41.5 64.7969 34.2812 64.7969
z

M9.8125 72.9062
L35.0156 72.9062
Q46.2969 72.9062 52.3906 68.2188
Q58.5 63.5312 58.5 54.8906
Q58.5 48.1875 55.375 44.2344
Q52.25 40.2812 46.1875 39.3125
Q53.4688 37.75 57.5 32.7812
Q61.5312 27.8281 61.5312 20.4062
Q61.5312 10.6406 54.8906 5.3125
Q48.25 0 35.9844 0
L9.8125 0
z
" id="DejaVuSans-42"/>
      <path d="
M9.42188 54.6875
L18.4062 54.6875
L18.4062 0
L9.42188 0
z

M9.42188 75.9844
L18.4062 75.9844
L18.4062 64.5938
L9.42188 64.5938
z
" id="DejaVuSans-69"/>
      <path d="
M18.3125 70.2188
L18.3125 54.6875
L36.8125 54.6875
L36.8125 47.7031
L18.3125 47.7031
L18.3125 18.0156
Q18.3125 11.3281 20.1406 9.42188
Q21.9688 7.51562 27.5938 7.51562
L36.8125 7.51562
L36.8125 0
L27.5938 0
Q17.1875 0 13.2344 3.875
Q9.28125 7.76562 9.28125 18.0156
L9.28125 47.7031
L2.6875 47.7031
L2.6875 54.6875
L9.28125 54.6875
L9.28125 70.2188
z
" id="DejaVuSans-74"/>
      <path d="
M56.2031 29.5938
L56.2031 25.2031
L14.8906 25.2031
Q15.4844 15.9219 20.4844 11.0625
Q25.4844 6.20312 34.4219 6.20312
Q39.5938 6.20312 44.4531 7.46875
Q49.3125 8.73438 54.1094 11.2812
L54.1094 2.78125
Q49.2656 0.734375 44.1875 -0.34375
Q39.1094 -1.42188 33.8906 -1.42188
Q20.7969 -1.42188 13.1562 6.1875
Q5.51562 13.8125 5.51562 26.8125
Q5.51562 40.2344 12.7656 48.1094
Q20.0156 56 32.3281 56
Q43.3594 56 49.7812 48.8906
Q56.2031 41.7969 56.2031 29.5938
M47.2188 32.2344
Q47.125 39.5938 43.0938 43.9844
Q39.0625 48.3906 32.4219 48.3906
Q24.9062 48.3906 20.3906 44.1406
Q15.875 39.8906 15.1875 32.1719
z
" id="DejaVuSans-65"/>
      <path d="
M18.1094 8.20312
L18.1094 -20.7969
L9.07812 -20.7969
L9.07812 54.6875
L18.1094 54.6875
L18.1094 46.3906
Q20.9531 51.2656 25.2656 53.625
Q29.5938 56 35.5938 56
Q45.5625 56 51.7812 48.0938
Q58.0156 40.1875 58.0156 27.2969
Q58.0156 14.4062 51.7812 6.48438
Q45.5625 -1.42188 35.5938 -1.42188
Q29.5938 -1.42188 25.2656 0.953125
Q20.9531 3.32812 18.1094 8.20312
M48.6875 27.2969
Q48.6875 37.2031 44.6094 42.8438
Q40.5312 48.4844 33.4062 48.4844
Q26.2656 48.4844 22.1875 42.8438
Q18.1094 37.2031 18.1094 27.2969
Q18.1094 17.3906 22.1875 11.75
Q26.2656 6.10938 33.4062 6.10938
Q40.5312 6.10938 44.6094 11.75
Q48.6875 17.3906 48.6875 27.2969" id="DejaVuSans-70"/>
      <path d="
M44.2812 53.0781
L44.2812 44.5781
Q40.4844 46.5312 36.375 47.5
Q32.2812 48.4844 27.875 48.4844
Q21.1875 48.4844 17.8438 46.4375
Q14.5 44.3906 14.5 40.2812
Q14.5 37.1562 16.8906 35.375
Q19.2812 33.5938 26.5156 31.9844
L29.5938 31.2969
Q39.1562 29.25 43.1875 25.5156
Q47.2188 21.7812 47.2188 15.0938
Q47.2188 7.46875 41.1875 3.01562
Q35.1562 -1.42188 24.6094 -1.42188
Q20.2188 -1.42188 15.4531 -0.5625
Q10.6875 0.296875 5.42188 2
L5.42188 11.2812
Q10.4062 8.6875 15.2344 7.39062
Q20.0625 6.10938 24.8125 6.10938
Q31.1562 6.10938 34.5625 8.28125
Q37.9844 10.4531 37.9844 14.4062
Q37.9844 18.0625 35.5156 20.0156
Q33.0625 21.9688 24.7031 23.7812
L21.5781 24.5156
Q13.2344 26.2656 9.51562 29.9062
Q5.8125 33.5469 5.8125 39.8906
Q5.8125 47.6094 11.2812 51.7969
Q16.75 56 26.8125 56
Q31.7812 56 36.1719 55.2656
Q40.5781 54.5469 44.2812 53.0781" id="DejaVuSans-73"/>
      <path d="
M41.1094 46.2969
Q39.5938 47.1719 37.8125 47.5781
Q36.0312 48 33.8906 48
Q26.2656 48 22.1875 43.0469
Q18.1094 38.0938 18.1094 28.8125
L18.1094 0
L9.07812 0
L9.07812 54.6875
L18.1094 54.6875
L18.1094 46.1875
Q20.9531 51.1719 25.4844 53.5781
Q30.0312 56 36.5312 56
Q37.4531 56 38.5781 55.875
Q39.7031 55.7656 41.0625 55.5156
z
" id="DejaVuSans-72"/>
     </defs>
     <g transform="translate(249.1609375 417.1546875)scale(0.14 -0.14)">
      <use xlink:href="#DejaVuSans-42"/>
      <use x="68.603515625" xlink:href="#DejaVuSans-69"/>
      <use x="96.38671875" xlink:href="#DejaVuSans-74"/>
      <use x="135.595703125" xlink:href="#DejaVuSans-73"/>
      <use x="187.6953125" xlink:href="#DejaVuSans-20"/>
      <use x="219.482421875" xlink:href="#DejaVuSans-70"/>
      <use x="282.958984375" xlink:href="#DejaVuSans-65"/>
      <use x="344.482421875" xlink:href="#DejaVuSans-72"/>
      <use x="385.595703125" xlink:href="#DejaVuSans-20"/>
      <use x="417.3828125" xlink:href="#DejaVuSans-73"/>
      <use x="469.482421875" xlink:href="#DejaVuSans-61"/>
      <use x="530.76171875" xlink:href="#DejaVuSans-6d"/>
      <use x="628.173828125" xlink:href="#DejaVuSans-70"/>
      <use x="691.650390625" xlink:href="#DejaVuSans-6c"/>
      <use x="719.43359375" xlink:href="#DejaVuSans-65"/>
     </g>
    </g>
   </g>
   <g id="matplotlib.axis_2">
    <g id="ytick_1">
     <g id="line2d_11">
      <defs>
       <path d="
M0 0
L4 0" id="mc8fcea1516" style="stroke:#000000;stroke-linecap:butt;stroke-width:0.5;"/>
      </defs>
      <g>
       <use style="stroke:#000000;stroke-linecap:butt;stroke-width:0.5;" x="50.31" xlink:href="#mc8fcea1516" y="388.44"/>
      </g>
     </g>
     <g id="text_9">
      <!-- 0.6 -->
      <defs>
       <path d="
M10.6875 12.4062
L21 12.4062
L21 0
L10.6875 0
z
" id="DejaVuSans-2e"/>
      </defs>
      <g transform="translate(28.773125 392.8078125)scale(0.12 -0.12)">
       <use xlink:href="#DejaVuSans-30"/>
       <use x="63.623046875" xlink:href="#DejaVuSans-2e"/>
       <use x="95.41015625" xlink:href="#DejaVuSans-36"/>
      </g>
     </g>
    </g>
    <g id="ytick_2">
     <g id="line2d_12">
      <g>
       <use style="stroke:#000000;stroke-linecap:butt;stroke-width:0.5;" x="50.31" xlink:href="#mc8fcea1516" y="326.535"/>
      </g>
     </g>
     <g id="text_10">
      <!-- 0.8 -->
      <g transform="translate(28.83875 330.9028125)scale(0.12 -0.12)">
       <use xlink:href="#DejaVuSans-30"/>
       <use x="63.623046875" xlink:href="#DejaVuSans-2e"/>
       <use x="95.41015625" xlink:href="#DejaVuSans-38"/>
      </g>
     </g>
    </g>
    <g id="ytick_3">
     <g id="line2d_13">
      <g>
       <use style="stroke:#000000;stroke-linecap:butt;stroke-width:0.5;" x="50.31" xlink:href="#mc8fcea1516" y="264.63"/>
      </g>
     </g>
     <g id="text_11">
      <!-- 1.0 -->
      <g transform="translate(29.34125 268.9978125)scale(0.12 -0.12)">
       <use xlink:href="#DejaVuSans-31"/>
       <use x="63.623046875" xlink:href="#DejaVuSans-2e"/>
       <use x="95.41015625" xlink:href="#DejaVuSans-30"/>
      </g>
     </g>
    </g>
    <g id="ytick_4">
     <g id="line2d_14">
      <g>
       <use style="stroke:#000000;stroke-linecap:butt;stroke-width:0.5;" x="50.31" xlink:href="#mc8fcea1516" y="202.725"/>
      </g>
     </g>
     <g id="text_12">
      <!-- 1.2 -->
      <g transform="translate(29.74625 207.178125)scale(0.12 -0.12)">
       <use xlink:href="#DejaVuSans-31"/>
       <use x="63.623046875" xlink:href="#DejaVuSans-2e"/>
       <use x="95.41015625" xlink:href="#DejaVuSans-32"/>
      </g>
     </g>
    </g>
    <g id="ytick_5">
     <g id="line2d_15">
      <g>
       <use style="stroke:#000000;stroke-linecap:butt;stroke-width:0.5;" x="50.31" xlink:href="#mc8fcea1516" y="140.82"/>
      </g>
     </g>
     <g id="text_13">
      <!-- 1.4 -->
      <g transform="translate(29.2175 145.194375)scale(0.12 -0.12)">
       <use xlink:href="#DejaVuSans-31"/>
       <use x="63.623046875" xlink:href="#DejaVuSans-2e"/>
       <use x="95.41015625" xlink:href="#DejaVuSans-34"/>
      </g>
     </g>
    </g>
    <g id="ytick_6">
     <g id="line2d_16">
      <g>
       <use style="stroke:#000000;stroke-linecap:butt;stroke-width:0.5;" x="50.31" xlink:href="#mc8fcea1516" y="78.915"/>
      </g>
     </g>
     <g id="text_14">
      <!-- 1.6 -->
      <g transform="translate(29.3 83.2828125)scale(0.12 -0.12)">
       <use xlink:href="#DejaVuSans-31"/>
       <use x="63.623046875" xlink:href="#DejaVuSans-2e"/>
       <use x="95.41015625" xlink:href="#DejaVuSans-36"/>
      </g>
     </g>
    </g>
    <g id="ytick_7">
     <g id="line2d_17">
      <g>
       <use style="stroke:#000000;stroke-linecap:butt;stroke-width:0.5;" x="50.31" xlink:href="#mc8fcea1516" y="17.01"/>
      </g>
     </g>
     <g id="text_15">
      <!-- 1.8 -->
      <g transform="translate(29.365625 21.3778125)scale(0.12 -0.12)">
       <use xlink:href="#DejaVuSans-31"/>
       <use x="63.623046875" xlink:href="#DejaVuSans-2e"/>
       <use x="95.41015625" xlink:href="#DejaVuSans-38"/>
      </g>
     </g>
    </g>
    <g id="text_16">
     <!-- RMSE -->
     <defs>
      <path d="
M9.8125 72.9062
L24.5156 72.9062
L43.1094 23.2969
L61.8125 72.9062
L76.5156 72.9062
L76.5156 0
L66.8906 0
L66.8906 64.0156
L48.0938 14.0156
L38.1875 14.0156
L19.3906 64.0156
L19.3906 0
L9.8125 0
z
" id="DejaVuSans-4d"/>
      <path d="
M44.3906 34.1875
Q47.5625 33.1094 50.5625 29.5938
Q53.5625 26.0781 56.5938 19.9219
L66.6094 0
L56 0
L46.6875 18.7031
Q43.0625 26.0312 39.6719 28.4219
Q36.2812 30.8125 30.4219 30.8125
L19.6719 30.8125
L19.6719 0
L9.8125 0
L9.8125 72.9062
L32.0781 72.9062
Q44.5781 72.9062 50.7344 67.6719
Q56.8906 62.4531 56.8906 51.9062
Q56.8906 45.0156 53.6875 40.4688
Q50.4844 35.9375 44.3906 34.1875
M19.6719 64.7969
L19.6719 38.9219
L32.0781 38.9219
Q39.2031 38.9219 42.8438 42.2188
Q46.4844 45.5156 46.4844 51.9062
Q46.4844 58.2969 42.8438 61.5469
Q39.2031 64.7969 32.0781 64.7969
z
" id="DejaVuSans-52"/>
      <path d="
M53.5156 70.5156
L53.5156 60.8906
Q47.9062 63.5781 42.9219 64.8906
Q37.9375 66.2188 33.2969 66.2188
Q25.25 66.2188 20.875 63.0938
Q16.5 59.9688 16.5 54.2031
Q16.5 49.3594 19.4062 46.8906
Q22.3125 44.4375 30.4219 42.9219
L36.375 41.7031
Q47.4062 39.5938 52.6562 34.2969
Q57.9062 29 57.9062 20.125
Q57.9062 9.51562 50.7969 4.04688
Q43.7031 -1.42188 29.9844 -1.42188
Q24.8125 -1.42188 18.9688 -0.25
Q13.1406 0.921875 6.89062 3.21875
L6.89062 13.375
Q12.8906 10.0156 18.6562 8.29688
Q24.4219 6.59375 29.9844 6.59375
Q38.4219 6.59375 43.0156 9.90625
Q47.6094 13.2344 47.6094 19.3906
Q47.6094 24.75 44.3125 27.7812
Q41.0156 30.8125 33.5 32.3281
L27.4844 33.5
Q16.4531 35.6875 11.5156 40.375
Q6.59375 45.0625 6.59375 53.4219
Q6.59375 63.0938 13.4062 68.6562
Q20.2188 74.2188 32.1719 74.2188
Q37.3125 74.2188 42.625 73.2812
Q47.9531 72.3594 53.5156 70.5156" id="DejaVuSans-53"/>
      <path d="
M9.8125 72.9062
L55.9062 72.9062
L55.9062 64.5938
L19.6719 64.5938
L19.6719 43.0156
L54.3906 43.0156
L54.3906 34.7188
L19.6719 34.7188
L19.6719 8.29688
L56.7812 8.29688
L56.7812 0
L9.8125 0
z
" id="DejaVuSans-45"/>
     </defs>
     <g transform="translate(23.773125 221.16125)rotate(-90.0)scale(0.14 -0.14)">
      <use xlink:href="#DejaVuSans-52"/>
      <use x="69.482421875" xlink:href="#DejaVuSans-4d"/>
      <use x="155.76171875" xlink:href="#DejaVuSans-53"/>
      <use x="219.23828125" xlink:href="#DejaVuSans-45"/>
     </g>
    </g>
   </g>
   <g id="patch_3">
    <path d="
M50.31 388.44
L556.599 388.44" style="fill:none;stroke:#000000;"/>
   </g>
   <g id="patch_4">
    <path d="
M50.31 388.44
L50.31 17.01" style="fill:none;stroke:#000000;"/>
   </g>
   <g id="legend_1">
    <g id="patch_5">
     <path d="
M377.841 91.9395
L549.399 91.9395
L549.399 24.21
L377.841 24.21
L377.841 91.9395
z
" style="fill:#ffffff;stroke:#000000;"/>
    </g>
    <g id="line2d_18">
     <path d="
M387.921 35.8718
L408.081 35.8718" style="fill:none;stroke:#0000ff;"/>
    </g>
    <g id="line2d_19"/>
    <g id="text_17">
     <!-- by level -->
     <defs>
      <path d="
M32.1719 -5.07812
Q28.375 -14.8438 24.75 -17.8125
Q21.1406 -20.7969 15.0938 -20.7969
L7.90625 -20.7969
L7.90625 -13.2812
L13.1875 -13.2812
Q16.8906 -13.2812 18.9375 -11.5156
Q21 -9.76562 23.4844 -3.21875
L25.0938 0.875
L2.98438 54.6875
L12.5 54.6875
L29.5938 11.9219
L46.6875 54.6875
L56.2031 54.6875
z
" id="DejaVuSans-79"/>
      <path d="
M2.98438 54.6875
L12.5 54.6875
L29.5938 8.79688
L46.6875 54.6875
L56.2031 54.6875
L35.6875 0
L23.4844 0
z
" id="DejaVuSans-76"/>
      <path d="
M48.6875 27.2969
Q48.6875 37.2031 44.6094 42.8438
Q40.5312 48.4844 33.4062 48.4844
Q26.2656 48.4844 22.1875 42.8438
Q18.1094 37.2031 18.1094 27.2969
Q18.1094 17.3906 22.1875 11.75
Q26.2656 6.10938 33.4062 6.10938
Q40.5312 6.10938 44.6094 11.75
Q48.6875 17.3906 48.6875 27.2969
M18.1094 46.3906
Q20.9531 51.2656 25.2656 53.625
Q29.5938 56 35.5938 56
Q45.5625 56 51.7812 48.0938
Q58.0156 40.1875 58.0156 27.2969
Q58.0156 14.4062 51.7812 6.48438
Q45.5625 -1.42188 35.5938 -1.42188
Q29.5938 -1.42188 25.2656 0.953125
Q20.9531 3.32812 18.1094 8.20312
L18.1094 0
L9.07812 0
L9.07812 75.9844
L18.1094 75.9844
z
" id="DejaVuSans-62"/>
     </defs>
     <g transform="translate(423.921375 40.91175)scale(0.144 -0.144)">
      <use xlink:href="#DejaVuSans-62"/>
      <use x="63.4765625" xlink:href="#DejaVuSans-79"/>
      <use x="122.65625" xlink:href="#DejaVuSans-20"/>
      <use x="154.443359375" xlink:href="#DejaVuSans-6c"/>
      <use x="182.2265625" xlink:href="#DejaVuSans-65"/>
      <use x="243.75" xlink:href="#DejaVuSans-76"/>
      <use x="302.9296875" xlink:href="#DejaVuSans-65"/>
      <use x="364.453125" xlink:href="#DejaVuSans-6c"/>
     </g>
    </g>
    <g id="line2d_20">
     <path d="
M387.921 57.0083
L408.081 57.0083" style="fill:none;stroke:#008000;"/>
    </g>
    <g id="line2d_21"/>
    <g id="text_18">
     <!-- by bit plane -->
     <defs>
      <path d="
M54.8906 33.0156
L54.8906 0
L45.9062 0
L45.9062 32.7188
Q45.9062 40.4844 42.875 44.3281
Q39.8438 48.1875 33.7969 48.1875
Q26.5156 48.1875 22.3125 43.5469
Q18.1094 38.9219 18.1094 30.9062
L18.1094 0
L9.07812 0
L9.07812 54.6875
L18.1094 54.6875
L18.1094 46.1875
Q21.3438 51.125 25.7031 53.5625
Q30.0781 56 35.7969 56
Q45.2188 56 50.0469 50.1719
Q54.8906 44.3438 54.8906 33.0156" id="DejaVuSans-6e"/>
     </defs>
     <g transform="translate(423.921375 62.04825)scale(0.144 -0.144)">
      <use xlink:href="#DejaVuSans-62"/>
      <use x="63.4765625" xlink:href="#DejaVuSans-79"/>
      <use x="122.65625" xlink:href="#DejaVuSans-20"/>
      <use x="154.443359375" xlink:href="#DejaVuSans-62"/>
      <use x="217.919921875" xlink:href="#DejaVuSans-69"/>
      <use x="245.703125" xlink:href="#DejaVuSans-74"/>
      <use x="284.912109375" xlink:href="#DejaVuSans-20"/>
      <use x="316.69921875" xlink:href="#DejaVuSans-70"/>
      <use x="380.17578125" xlink:href="#DejaVuSans-6c"/>
      <use x="407.958984375" xlink:href="#DejaVuSans-61"/>
      <use x="469.23828125" xlink:href="#DejaVuSans-6e"/>
      <use x="532.6171875" xlink:href="#DejaVuSans-65"/>
     </g>
    </g>
    <g id="line2d_22">
     <path d="
M387.921 78.1448
L408.081 78.1448" style="fill:none;stroke:#ff0000;"/>
    </g>
    <g id="line2d_23"/>
    <g id="text_19">
     <!-- by wavelet norm -->
     <defs>
      <path d="
M30.6094 48.3906
Q23.3906 48.3906 19.1875 42.75
Q14.9844 37.1094 14.9844 27.2969
Q14.9844 17.4844 19.1562 11.8438
Q23.3438 6.20312 30.6094 6.20312
Q37.7969 6.20312 41.9844 11.8594
Q46.1875 17.5312 46.1875 27.2969
Q46.1875 37.0156 41.9844 42.7031
Q37.7969 48.3906 30.6094 48.3906
M30.6094 56
Q42.3281 56 49.0156 48.375
Q55.7188 40.7656 55.7188 27.2969
Q55.7188 13.875 49.0156 6.21875
Q42.3281 -1.42188 30.6094 -1.42188
Q18.8438 -1.42188 12.1719 6.21875
Q5.51562 13.875 5.51562 27.2969
Q5.51562 40.7656 12.1719 48.375
Q18.8438 56 30.6094 56" id="DejaVuSans-6f"/>
      <path d="
M4.20312 54.6875
L13.1875 54.6875
L24.4219 12.0156
L35.5938 54.6875
L46.1875 54.6875
L57.4219 12.0156
L68.6094 54.6875
L77.5938 54.6875
L63.2812 0
L52.6875 0
L40.9219 44.8281
L29.1094 0
L18.5 0
z
" id="DejaVuSans-77"/>
     </defs>
     <g transform="translate(423.921375 83.18475)scale(0.144 -0.144)">
      <use xlink:href="#DejaVuSans-62"/>
      <use x="63.4765625" xlink:href="#DejaVuSans-79"/>
      <use x="122.65625" xlink:href="#DejaVuSans-20"/>
      <use x="154.443359375" xlink:href="#DejaVuSans-77"/>
      <use x="236.23046875" xlink:href="#DejaVuSans-61"/>
      <use x="297.509765625" xlink:href="#DejaVuSans-76"/>
      <use x="356.689453125" xlink:href="#DejaVuSans-65"/>
      <use x="418.212890625" xlink:href="#DejaVuSans-6c"/>
      <use x="445.99609375" xlink:href="#DejaVuSans-65"/>
      <use x="507.51953125" xlink:href="#DejaVuSans-74"/>
      <use x="546.728515625" xlink:href="#DejaVuSans-20"/>
      <use x="578.515625" xlink:href="#DejaVuSans-6e"/>
      <use x="641.89453125" xlink:href="#DejaVuSans-6f"/>
      <use x="703.076171875" xlink:href="#DejaVuSans-72"/>
      <use x="742.439453125" xlink:href="#DejaVuSans-6d"/>
     </g>
    </g>
   </g>
  </g>
 </g>
 <defs>
  <clipPath id="p54d7579f98">
   <rect height="371.43" width="506.289375" x="50.31" y="17.01"/>
  </clipPath>
 </defs>
</svg>
