<?xml version="1.0" encoding="utf-8" standalone="no"?>
<!DOCTYPE svg PUBLIC "-//W3C//DTD SVG 1.1//EN"
  "http://www.w3.org/Graphics/SVG/1.1/DTD/svg11.dtd">
<!-- Created with matplotlib (http://matplotlib.org/) -->
<svg height="432pt" version="1.1" viewBox="0 0 576 432" width="576pt" xmlns="http://www.w3.org/2000/svg" xmlns:xlink="http://www.w3.org/1999/xlink">
 <defs>
  <style type="text/css">
*{stroke-linecap:square;stroke-linejoin:round;}
  </style>
 </defs>
 <g id="figure_1">
  <g id="patch_1">
   <path d="
M0 432
L576 432
L576 0
L0 0
z
" style="fill:#ffffff;"/>
  </g>
  <g id="axes_1">
   <g id="patch_2">
    <path d="
M46.71 388.44
L556.431 388.44
L556.431 17.01
L46.71 17.01
z
" style="fill:#ffffff;"/>
   </g>
   <g id="line2d_1">
    <path clip-path="url(#p75f1045f34)" d="
M46.822 135.145
L47.0522 129.226
L47.2824 117.46
L47.7429 61.6717
L47.9731 61.2854
L48.2033 60.5017
L48.4335 59.288
L48.894 55.5654
L49.1242 55.5654
L49.3544 55.3202
L50.0451 53.9886
L50.2753 54.2403
L50.7357 55.154
L50.966 55.2701
L51.1962 55.2106
L51.6566 54.7454
L51.8868 54.4613
L52.3473 54.4854
L53.038 54.7027
L54.1891 54.9284
L56.0308 54.9181
L57.1819 54.9191
L58.1028 54.0369
L58.5632 53.2755
L58.7935 53.0879
L65.2396 53.0424
L66.3907 52.7555
L66.8512 52.6998
L72.6067 52.6905
L73.0671 52.5484
L74.2182 52.3766
L74.6787 52.2893
L75.3693 51.5985
L81.1249 51.5734
L82.5062 51.4378
L90.3337 51.3766
L91.0243 51.0785
L124.867 50.9689
L127.169 50.8371
L130.392 50.4721
L143.054 47.9
L144.896 47.6892
L146.047 47.5722
L164.465 47.5332
L185.184 47.4227
L189.328 47.1757
L190.94 47.0596
L200.149 46.6083
L211.199 46.5851
L239.977 46.4802
L246.883 46.0828
L252.87 46.0326
L253.56 45.8738
L258.165 45.6175
L259.776 45.5015
L263.69 45.3863
L309.043 45.2814
L317.792 45.105
L351.634 45.079
L359.922 44.9824
L367.289 44.5552
L374.656 44.2785
L377.419 44.0622
L381.332 43.9322
L397.908 43.908
L423.693 43.7994
L434.974 43.5468
L447.176 43.5097
L487.694 43.3992
L504.04 43.311
L516.702 43.31
L516.702 43.31" style="fill:none;stroke:#0000ff;"/>
   </g>
   <g id="line2d_2">
    <path clip-path="url(#p75f1045f34)" d="
M46.8484 383.581
L47.0787 383.848
L47.3089 384.033
L49.3809 384.034
L49.6111 384.511
L52.8342 384.5
L54.676 384.5
L54.9062 385.849
L64.3452 385.889
L64.5754 386.282
L65.2661 386.354
L76.5469 386.397
L76.7771 386.626
L82.3024 386.67
L99.569 386.781
L341.07 386.885
L516.728 386.885
L516.728 386.885" style="fill:none;stroke:#008000;"/>
   </g>
   <g id="line2d_3">
    <path clip-path="url(#p75f1045f34)" d="
M46.7271 383.713
L46.9573 385.766
L47.1876 386.247
L47.4178 386.464
L50.8711 386.561
L51.3315 386.642
L65.1448 386.746
L75.5047 386.791
L101.75 386.866
L516.838 386.889
L516.838 386.889" style="fill:none;stroke:#ff0000;"/>
   </g>
   <g id="matplotlib.axis_1">
    <g id="xtick_1">
     <g id="line2d_4">
      <defs>
       <path d="
M0 0
L0 -4" id="mcb557df647" style="stroke:#000000;stroke-linecap:butt;stroke-width:0.5;"/>
      </defs>
      <g>
       <use style="stroke:#000000;stroke-linecap:butt;stroke-width:0.5;" x="46.71" xlink:href="#mcb557df647" y="388.44"/>
      </g>
     </g>
     <g id="text_1">
      <!-- 0 -->
      <defs>
       <path d="
M31.7812 66.4062
Q24.1719 66.4062 20.3281 58.9062
Q16.5 51.4219 16.5 36.375
Q16.5 21.3906 20.3281 13.8906
Q24.1719 6.39062 31.7812 6.39062
Q39.4531 6.39062 43.2812 13.8906
Q47.125 21.3906 47.125 36.375
Q47.125 51.4219 43.2812 58.9062
Q39.4531 66.4062 31.7812 66.4062
M31.7812 74.2188
Q44.0469 74.2188 50.5156 64.5156
Q56.9844 54.8281 56.9844 36.375
Q56.9844 17.9688 50.5156 8.26562
Q44.0469 -1.42188 31.7812 -1.42188
Q19.5312 -1.42188 13.0625 8.26562
Q6.59375 17.9688 6.59375 36.375
Q6.59375 54.8281 13.0625 64.5156
Q19.5312 74.2188 31.7812 74.2188" id="DejaVuSans-30"/>
      </defs>
      <g transform="translate(43.6865625 401.34625)scale(0.12 -0.12)">
       <use xlink:href="#DejaVuSans-30"/>
      </g>
     </g>
    </g>
    <g id="xtick_2">
     <g id="line2d_5">
      <g>
       <use style="stroke:#000000;stroke-linecap:butt;stroke-width:0.5;" x="148.654125" xlink:href="#mcb557df647" y="388.44"/>
      </g>
     </g>
     <g id="text_2">
      <!-- 2 -->
      <defs>
       <path d="
M19.1875 8.29688
L53.6094 8.29688
L53.6094 0
L7.32812 0
L7.32812 8.29688
Q12.9375 14.1094 22.625 23.8906
Q32.3281 33.6875 34.8125 36.5312
Q39.5469 41.8438 41.4219 45.5312
Q43.3125 49.2188 43.3125 52.7812
Q43.3125 58.5938 39.2344 62.25
Q35.1562 65.9219 28.6094 65.9219
Q23.9688 65.9219 18.8125 64.3125
Q13.6719 62.7031 7.8125 59.4219
L7.8125 69.3906
Q13.7656 71.7812 18.9375 73
Q24.125 74.2188 28.4219 74.2188
Q39.75 74.2188 46.4844 68.5469
Q53.2188 62.8906 53.2188 53.4219
Q53.2188 48.9219 51.5312 44.8906
Q49.8594 40.875 45.4062 35.4062
Q44.1875 33.9844 37.6406 27.2188
Q31.1094 20.4531 19.1875 8.29688" id="DejaVuSans-32"/>
      </defs>
      <g transform="translate(145.87725 401.34625)scale(0.12 -0.12)">
       <use xlink:href="#DejaVuSans-32"/>
      </g>
     </g>
    </g>
    <g id="xtick_3">
     <g id="line2d_6">
      <g>
       <use style="stroke:#000000;stroke-linecap:butt;stroke-width:0.5;" x="250.59825" xlink:href="#mcb557df647" y="388.44"/>
      </g>
     </g>
     <g id="text_3">
      <!-- 4 -->
      <defs>
       <path d="
M37.7969 64.3125
L12.8906 25.3906
L37.7969 25.3906
z

M35.2031 72.9062
L47.6094 72.9062
L47.6094 25.3906
L58.0156 25.3906
L58.0156 17.1875
L47.6094 17.1875
L47.6094 0
L37.7969 0
L37.7969 17.1875
L4.89062 17.1875
L4.89062 26.7031
z
" id="DejaVuSans-34"/>
      </defs>
      <g transform="translate(247.41075 401.18875)scale(0.12 -0.12)">
       <use xlink:href="#DejaVuSans-34"/>
      </g>
     </g>
    </g>
    <g id="xtick_4">
     <g id="line2d_7">
      <g>
       <use style="stroke:#000000;stroke-linecap:butt;stroke-width:0.5;" x="352.542375" xlink:href="#mcb557df647" y="388.44"/>
      </g>
     </g>
     <g id="text_4">
      <!-- 6 -->
      <defs>
       <path d="
M33.0156 40.375
Q26.375 40.375 22.4844 35.8281
Q18.6094 31.2969 18.6094 23.3906
Q18.6094 15.5312 22.4844 10.9531
Q26.375 6.39062 33.0156 6.39062
Q39.6562 6.39062 43.5312 10.9531
Q47.4062 15.5312 47.4062 23.3906
Q47.4062 31.2969 43.5312 35.8281
Q39.6562 40.375 33.0156 40.375
M52.5938 71.2969
L52.5938 62.3125
Q48.875 64.0625 45.0938 64.9844
Q41.3125 65.9219 37.5938 65.9219
Q27.8281 65.9219 22.6719 59.3281
Q17.5312 52.7344 16.7969 39.4062
Q19.6719 43.6562 24.0156 45.9219
Q28.375 48.1875 33.5938 48.1875
Q44.5781 48.1875 50.9531 41.5156
Q57.3281 34.8594 57.3281 23.3906
Q57.3281 12.1562 50.6875 5.35938
Q44.0469 -1.42188 33.0156 -1.42188
Q20.3594 -1.42188 13.6719 8.26562
Q6.98438 17.9688 6.98438 36.375
Q6.98438 53.6562 15.1875 63.9375
Q23.3906 74.2188 37.2031 74.2188
Q40.9219 74.2188 44.7031 73.4844
Q48.4844 72.75 52.5938 71.2969" id="DejaVuSans-36"/>
      </defs>
      <g transform="translate(349.52175 401.34625)scale(0.12 -0.12)">
       <use xlink:href="#DejaVuSans-36"/>
      </g>
     </g>
    </g>
    <g id="xtick_5">
     <g id="line2d_8">
      <g>
       <use style="stroke:#000000;stroke-linecap:butt;stroke-width:0.5;" x="454.4865" xlink:href="#mcb557df647" y="388.44"/>
      </g>
     </g>
     <g id="text_5">
      <!-- 8 -->
      <defs>
       <path d="
M31.7812 34.625
Q24.75 34.625 20.7188 30.8594
Q16.7031 27.0938 16.7031 20.5156
Q16.7031 13.9219 20.7188 10.1562
Q24.75 6.39062 31.7812 6.39062
Q38.8125 6.39062 42.8594 10.1719
Q46.9219 13.9688 46.9219 20.5156
Q46.9219 27.0938 42.8906 30.8594
Q38.875 34.625 31.7812 34.625
M21.9219 38.8125
Q15.5781 40.375 12.0312 44.7188
Q8.5 49.0781 8.5 55.3281
Q8.5 64.0625 14.7188 69.1406
Q20.9531 74.2188 31.7812 74.2188
Q42.6719 74.2188 48.875 69.1406
Q55.0781 64.0625 55.0781 55.3281
Q55.0781 49.0781 51.5312 44.7188
Q48 40.375 41.7031 38.8125
Q48.8281 37.1562 52.7969 32.3125
Q56.7812 27.4844 56.7812 20.5156
Q56.7812 9.90625 50.3125 4.23438
Q43.8438 -1.42188 31.7812 -1.42188
Q19.7344 -1.42188 13.25 4.23438
Q6.78125 9.90625 6.78125 20.5156
Q6.78125 27.4844 10.7812 32.3125
Q14.7969 37.1562 21.9219 38.8125
M18.3125 54.3906
Q18.3125 48.7344 21.8438 45.5625
Q25.3906 42.3906 31.7812 42.3906
Q38.1406 42.3906 41.7188 45.5625
Q45.3125 48.7344 45.3125 54.3906
Q45.3125 60.0625 41.7188 63.2344
Q38.1406 66.4062 31.7812 66.4062
Q25.3906 66.4062 21.8438 63.2344
Q18.3125 60.0625 18.3125 54.3906" id="DejaVuSans-38"/>
      </defs>
      <g transform="translate(451.4865 401.34625)scale(0.12 -0.12)">
       <use xlink:href="#DejaVuSans-38"/>
      </g>
     </g>
    </g>
    <g id="xtick_6">
     <g id="line2d_9">
      <g>
       <use style="stroke:#000000;stroke-linecap:butt;stroke-width:0.5;" x="556.430625" xlink:href="#mcb557df647" y="388.44"/>
      </g>
     </g>
     <g id="text_6">
      <!-- 10 -->
      <defs>
       <path d="
M12.4062 8.29688
L28.5156 8.29688
L28.5156 63.9219
L10.9844 60.4062
L10.9844 69.3906
L28.4219 72.9062
L38.2812 72.9062
L38.2812 8.29688
L54.3906 8.29688
L54.3906 0
L12.4062 0
z
" id="DejaVuSans-31"/>
      </defs>
      <g transform="translate(549.853125 401.34625)scale(0.12 -0.12)">
       <use xlink:href="#DejaVuSans-31"/>
       <use x="63.623046875" xlink:href="#DejaVuSans-30"/>
      </g>
     </g>
    </g>
    <g id="text_7">
     <!-- Bits per sample -->
     <defs>
      <path d="
M52 44.1875
Q55.375 50.25 60.0625 53.125
Q64.75 56 71.0938 56
Q79.6406 56 84.2812 50.0156
Q88.9219 44.0469 88.9219 33.0156
L88.9219 0
L79.8906 0
L79.8906 32.7188
Q79.8906 40.5781 77.0938 44.375
Q74.3125 48.1875 68.6094 48.1875
Q61.625 48.1875 57.5625 43.5469
Q53.5156 38.9219 53.5156 30.9062
L53.5156 0
L44.4844 0
L44.4844 32.7188
Q44.4844 40.625 41.7031 44.4062
Q38.9219 48.1875 33.1094 48.1875
Q26.2188 48.1875 22.1562 43.5312
Q18.1094 38.875 18.1094 30.9062
L18.1094 0
L9.07812 0
L9.07812 54.6875
L18.1094 54.6875
L18.1094 46.1875
Q21.1875 51.2188 25.4844 53.6094
Q29.7812 56 35.6875 56
Q41.6562 56 45.8281 52.9688
Q50 49.9531 52 44.1875" id="DejaVuSans-6d"/>
      <path d="
M34.2812 27.4844
Q23.3906 27.4844 19.1875 25
Q14.9844 22.5156 14.9844 16.5
Q14.9844 11.7188 18.1406 8.90625
Q21.2969 6.10938 26.7031 6.10938
Q34.1875 6.10938 38.7031 11.4062
Q43.2188 16.7031 43.2188 25.4844
L43.2188 27.4844
z

M52.2031 31.2031
L52.2031 0
L43.2188 0
L43.2188 8.29688
Q40.1406 3.32812 35.5469 0.953125
Q30.9531 -1.42188 24.3125 -1.42188
Q15.9219 -1.42188 10.9531 3.29688
Q6 8.01562 6 15.9219
Q6 25.1406 12.1719 29.8281
Q18.3594 34.5156 30.6094 34.5156
L43.2188 34.5156
L43.2188 35.4062
Q43.2188 41.6094 39.1406 45
Q35.0625 48.3906 27.6875 48.3906
Q23 48.3906 18.5469 47.2656
Q14.1094 46.1406 10.0156 43.8906
L10.0156 52.2031
Q14.9375 54.1094 19.5781 55.0469
Q24.2188 56 28.6094 56
Q40.4844 56 46.3438 49.8438
Q52.2031 43.7031 52.2031 31.2031" id="DejaVuSans-61"/>
      <path d="
M9.42188 75.9844
L18.4062 75.9844
L18.4062 0
L9.42188 0
z
" id="DejaVuSans-6c"/>
      <path id="DejaVuSans-20"/>
      <path d="
M19.6719 34.8125
L19.6719 8.10938
L35.5 8.10938
Q43.4531 8.10938 47.2812 11.4062
Q51.125 14.7031 51.125 21.4844
Q51.125 28.3281 47.2812 31.5625
Q43.4531 34.8125 35.5 34.8125
z

M19.6719 64.7969
L19.6719 42.8281
L34.2812 42.8281
Q41.5 42.8281 45.0312 45.5312
Q48.5781 48.25 48.5781 53.8125
Q48.5781 59.3281 45.0312 62.0625
Q41.5 64.7969 34.2812 64.7969
z

M9.8125 72.9062
L35.0156 72.9062
Q46.2969 72.9062 52.3906 68.2188
Q58.5 63.5312 58.5 54.8906
Q58.5 48.1875 55.375 44.2344
Q52.25 40.2812 46.1875 39.3125
Q53.4688 37.75 57.5 32.7812
Q61.5312 27.8281 61.5312 20.4062
Q61.5312 10.6406 54.8906 5.3125
Q48.25 0 35.9844 0
L9.8125 0
z
" id="DejaVuSans-42"/>
      <path d="
M9.42188 54.6875
L18.4062 54.6875
L18.4062 0
L9.42188 0
z

M9.42188 75.9844
L18.4062 75.9844
L18.4062 64.5938
L9.42188 64.5938
z
" id="DejaVuSans-69"/>
      <path d="
M18.3125 70.2188
L18.3125 54.6875
L36.8125 54.6875
L36.8125 47.7031
L18.3125 47.7031
L18.3125 18.0156
Q18.3125 11.3281 20.1406 9.42188
Q21.9688 7.51562 27.5938 7.51562
L36.8125 7.51562
L36.8125 0
L27.5938 0
Q17.1875 0 13.2344 3.875
Q9.28125 7.76562 9.28125 18.0156
L9.28125 47.7031
L2.6875 47.7031
L2.6875 54.6875
L9.28125 54.6875
L9.28125 70.2188
z
" id="DejaVuSans-74"/>
      <path d="
M56.2031 29.5938
L56.2031 25.2031
L14.8906 25.2031
Q15.4844 15.9219 20.4844 11.0625
Q25.4844 6.20312 34.4219 6.20312
Q39.5938 6.20312 44.4531 7.46875
Q49.3125 8.73438 54.1094 11.2812
L54.1094 2.78125
Q49.2656 0.734375 44.1875 -0.34375
Q39.1094 -1.42188 33.8906 -1.42188
Q20.7969 -1.42188 13.1562 6.1875
Q5.51562 13.8125 5.51562 26.8125
Q5.51562 40.2344 12.7656 48.1094
Q20.0156 56 32.3281 56
Q43.3594 56 49.7812 48.8906
Q56.2031 41.7969 56.2031 29.5938
M47.2188 32.2344
Q47.125 39.5938 43.0938 43.9844
Q39.0625 48.3906 32.4219 48.3906
Q24.9062 48.3906 20.3906 44.1406
Q15.875 39.8906 15.1875 32.1719
z
" id="DejaVuSans-65"/>
      <path d="
M18.1094 8.20312
L18.1094 -20.7969
L9.07812 -20.7969
L9.07812 54.6875
L18.1094 54.6875
L18.1094 46.3906
Q20.9531 51.2656 25.2656 53.625
Q29.5938 56 35.5938 56
Q45.5625 56 51.7812 48.0938
Q58.0156 40.1875 58.0156 27.2969
Q58.0156 14.4062 51.7812 6.48438
Q45.5625 -1.42188 35.5938 -1.42188
Q29.5938 -1.42188 25.2656 0.953125
Q20.9531 3.32812 18.1094 8.20312
M48.6875 27.2969
Q48.6875 37.2031 44.6094 42.8438
Q40.5312 48.4844 33.4062 48.4844
Q26.2656 48.4844 22.1875 42.8438
Q18.1094 37.2031 18.1094 27.2969
Q18.1094 17.3906 22.1875 11.75
Q26.2656 6.10938 33.4062 6.10938
Q40.5312 6.10938 44.6094 11.75
Q48.6875 17.3906 48.6875 27.2969" id="DejaVuSans-70"/>
      <path d="
M44.2812 53.0781
L44.2812 44.5781
Q40.4844 46.5312 36.375 47.5
Q32.2812 48.4844 27.875 48.4844
Q21.1875 48.4844 17.8438 46.4375
Q14.5 44.3906 14.5 40.2812
Q14.5 37.1562 16.8906 35.375
Q19.2812 33.5938 26.5156 31.9844
L29.5938 31.2969
Q39.1562 29.25 43.1875 25.5156
Q47.2188 21.7812 47.2188 15.0938
Q47.2188 7.46875 41.1875 3.01562
Q35.1562 -1.42188 24.6094 -1.42188
Q20.2188 -1.42188 15.4531 -0.5625
Q10.6875 0.296875 5.42188 2
L5.42188 11.2812
Q10.4062 8.6875 15.2344 7.39062
Q20.0625 6.10938 24.8125 6.10938
Q31.1562 6.10938 34.5625 8.28125
Q37.9844 10.4531 37.9844 14.4062
Q37.9844 18.0625 35.5156 20.0156
Q33.0625 21.9688 24.7031 23.7812
L21.5781 24.5156
Q13.2344 26.2656 9.51562 29.9062
Q5.8125 33.5469 5.8125 39.8906
Q5.8125 47.6094 11.2812 51.7969
Q16.75 56 26.8125 56
Q31.7812 56 36.1719 55.2656
Q40.5781 54.5469 44.2812 53.0781" id="DejaVuSans-73"/>
      <path d="
M41.1094 46.2969
Q39.5938 47.1719 37.8125 47.5781
Q36.0312 48 33.8906 48
Q26.2656 48 22.1875 43.0469
Q18.1094 38.0938 18.1094 28.8125
L18.1094 0
L9.07812 0
L9.07812 54.6875
L18.1094 54.6875
L18.1094 46.1875
Q20.9531 51.1719 25.4844 53.5781
Q30.0312 56 36.5312 56
Q37.4531 56 38.5781 55.875
Q39.7031 55.7656 41.0625 55.5156
z
" id="DejaVuSans-72"/>
     </defs>
     <g transform="translate(247.2765625 417.1546875)scale(0.14 -0.14)">
      <use xlink:href="#DejaVuSans-42"/>
      <use x="68.603515625" xlink:href="#DejaVuSans-69"/>
      <use x="96.38671875" xlink:href="#DejaVuSans-74"/>
      <use x="135.595703125" xlink:href="#DejaVuSans-73"/>
      <use x="187.6953125" xlink:href="#DejaVuSans-20"/>
      <use x="219.482421875" xlink:href="#DejaVuSans-70"/>
      <use x="282.958984375" xlink:href="#DejaVuSans-65"/>
      <use x="344.482421875" xlink:href="#DejaVuSans-72"/>
      <use x="385.595703125" xlink:href="#DejaVuSans-20"/>
      <use x="417.3828125" xlink:href="#DejaVuSans-73"/>
      <use x="469.482421875" xlink:href="#DejaVuSans-61"/>
      <use x="530.76171875" xlink:href="#DejaVuSans-6d"/>
      <use x="628.173828125" xlink:href="#DejaVuSans-70"/>
      <use x="691.650390625" xlink:href="#DejaVuSans-6c"/>
      <use x="719.43359375" xlink:href="#DejaVuSans-65"/>
     </g>
    </g>
   </g>
   <g id="matplotlib.axis_2">
    <g id="ytick_1">
     <g id="line2d_10">
      <defs>
       <path d="
M0 0
L4 0" id="mc8fcea1516" style="stroke:#000000;stroke-linecap:butt;stroke-width:0.5;"/>
      </defs>
      <g>
       <use style="stroke:#000000;stroke-linecap:butt;stroke-width:0.5;" x="46.71" xlink:href="#mc8fcea1516" y="388.44"/>
      </g>
     </g>
     <g id="text_8">
      <!-- 0 -->
      <g transform="translate(36.663125 392.8078125)scale(0.12 -0.12)">
       <use xlink:href="#DejaVuSans-30"/>
      </g>
     </g>
    </g>
    <g id="ytick_2">
     <g id="line2d_11">
      <g>
       <use style="stroke:#000000;stroke-linecap:butt;stroke-width:0.5;" x="46.71" xlink:href="#mc8fcea1516" y="342.01125"/>
      </g>
     </g>
     <g id="text_9">
      <!-- 5 -->
      <defs>
       <path d="
M10.7969 72.9062
L49.5156 72.9062
L49.5156 64.5938
L19.8281 64.5938
L19.8281 46.7344
Q21.9688 47.4688 24.1094 47.8281
Q26.2656 48.1875 28.4219 48.1875
Q40.625 48.1875 47.75 41.5
Q54.8906 34.8125 54.8906 23.3906
Q54.8906 11.625 47.5625 5.09375
Q40.2344 -1.42188 26.9062 -1.42188
Q22.3125 -1.42188 17.5469 -0.640625
Q12.7969 0.140625 7.71875 1.70312
L7.71875 11.625
Q12.1094 9.23438 16.7969 8.0625
Q21.4844 6.89062 26.7031 6.89062
Q35.1562 6.89062 40.0781 11.3281
Q45.0156 15.7656 45.0156 23.3906
Q45.0156 31 40.0781 35.4375
Q35.1562 39.8906 26.7031 39.8906
Q22.75 39.8906 18.8125 39.0156
Q14.8906 38.1406 10.7969 36.2812
z
" id="DejaVuSans-35"/>
      </defs>
      <g transform="translate(37.049375 346.3003125)scale(0.12 -0.12)">
       <use xlink:href="#DejaVuSans-35"/>
      </g>
     </g>
    </g>
    <g id="ytick_3">
     <g id="line2d_12">
      <g>
       <use style="stroke:#000000;stroke-linecap:butt;stroke-width:0.5;" x="46.71" xlink:href="#mc8fcea1516" y="295.5825"/>
      </g>
     </g>
     <g id="text_10">
      <!-- 10 -->
      <g transform="translate(29.555 299.9503125)scale(0.12 -0.12)">
       <use xlink:href="#DejaVuSans-31"/>
       <use x="63.623046875" xlink:href="#DejaVuSans-30"/>
      </g>
     </g>
    </g>
    <g id="ytick_4">
     <g id="line2d_13">
      <g>
       <use style="stroke:#000000;stroke-linecap:butt;stroke-width:0.5;" x="46.71" xlink:href="#mc8fcea1516" y="249.15375"/>
      </g>
     </g>
     <g id="text_11">
      <!-- 15 -->
      <g transform="translate(29.80625 253.4428125)scale(0.12 -0.12)">
       <use xlink:href="#DejaVuSans-31"/>
       <use x="63.623046875" xlink:href="#DejaVuSans-35"/>
      </g>
     </g>
    </g>
    <g id="ytick_5">
     <g id="line2d_14">
      <g>
       <use style="stroke:#000000;stroke-linecap:butt;stroke-width:0.5;" x="46.71" xlink:href="#mc8fcea1516" y="202.725"/>
      </g>
     </g>
     <g id="text_12">
      <!-- 20 -->
      <g transform="translate(29.11625 207.0928125)scale(0.12 -0.12)">
       <use xlink:href="#DejaVuSans-32"/>
       <use x="63.623046875" xlink:href="#DejaVuSans-30"/>
      </g>
     </g>
    </g>
    <g id="ytick_6">
     <g id="line2d_15">
      <g>
       <use style="stroke:#000000;stroke-linecap:butt;stroke-width:0.5;" x="46.71" xlink:href="#mc8fcea1516" y="156.29625"/>
      </g>
     </g>
     <g id="text_13">
      <!-- 25 -->
      <g transform="translate(29.3675 160.6640625)scale(0.12 -0.12)">
       <use xlink:href="#DejaVuSans-32"/>
       <use x="63.623046875" xlink:href="#DejaVuSans-35"/>
      </g>
     </g>
    </g>
    <g id="ytick_7">
     <g id="line2d_16">
      <g>
       <use style="stroke:#000000;stroke-linecap:butt;stroke-width:0.5;" x="46.71" xlink:href="#mc8fcea1516" y="109.8675"/>
      </g>
     </g>
     <g id="text_14">
      <!-- 30 -->
      <defs>
       <path d="
M40.5781 39.3125
Q47.6562 37.7969 51.625 33
Q55.6094 28.2188 55.6094 21.1875
Q55.6094 10.4062 48.1875 4.48438
Q40.7656 -1.42188 27.0938 -1.42188
Q22.5156 -1.42188 17.6562 -0.515625
Q12.7969 0.390625 7.625 2.20312
L7.625 11.7188
Q11.7188 9.32812 16.5938 8.10938
Q21.4844 6.89062 26.8125 6.89062
Q36.0781 6.89062 40.9375 10.5469
Q45.7969 14.2031 45.7969 21.1875
Q45.7969 27.6406 41.2812 31.2656
Q36.7656 34.9062 28.7188 34.9062
L20.2188 34.9062
L20.2188 43.0156
L29.1094 43.0156
Q36.375 43.0156 40.2344 45.9219
Q44.0938 48.8281 44.0938 54.2969
Q44.0938 59.9062 40.1094 62.9062
Q36.1406 65.9219 28.7188 65.9219
Q24.6562 65.9219 20.0156 65.0312
Q15.375 64.1562 9.8125 62.3125
L9.8125 71.0938
Q15.4375 72.6562 20.3438 73.4375
Q25.25 74.2188 29.5938 74.2188
Q40.8281 74.2188 47.3594 69.1094
Q53.9062 64.0156 53.9062 55.3281
Q53.9062 49.2656 50.4375 45.0938
Q46.9688 40.9219 40.5781 39.3125" id="DejaVuSans-33"/>
      </defs>
      <g transform="translate(29.151875 114.2353125)scale(0.12 -0.12)">
       <use xlink:href="#DejaVuSans-33"/>
       <use x="63.623046875" xlink:href="#DejaVuSans-30"/>
      </g>
     </g>
    </g>
    <g id="ytick_8">
     <g id="line2d_17">
      <g>
       <use style="stroke:#000000;stroke-linecap:butt;stroke-width:0.5;" x="46.71" xlink:href="#mc8fcea1516" y="63.43875"/>
      </g>
     </g>
     <g id="text_15">
      <!-- 35 -->
      <g transform="translate(29.403125 67.8065625)scale(0.12 -0.12)">
       <use xlink:href="#DejaVuSans-33"/>
       <use x="63.623046875" xlink:href="#DejaVuSans-35"/>
      </g>
     </g>
    </g>
    <g id="ytick_9">
     <g id="line2d_18">
      <g>
       <use style="stroke:#000000;stroke-linecap:butt;stroke-width:0.5;" x="46.71" xlink:href="#mc8fcea1516" y="17.01"/>
      </g>
     </g>
     <g id="text_16">
      <!-- 40 -->
      <g transform="translate(28.82375 21.3778125)scale(0.12 -0.12)">
       <use xlink:href="#DejaVuSans-34"/>
       <use x="63.623046875" xlink:href="#DejaVuSans-30"/>
      </g>
     </g>
    </g>
    <g id="text_17">
     <!-- RMSE -->
     <defs>
      <path d="
M9.8125 72.9062
L24.5156 72.9062
L43.1094 23.2969
L61.8125 72.9062
L76.5156 72.9062
L76.5156 0
L66.8906 0
L66.8906 64.0156
L48.0938 14.0156
L38.1875 14.0156
L19.3906 64.0156
L19.3906 0
L9.8125 0
z
" id="DejaVuSans-4d"/>
      <path d="
M44.3906 34.1875
Q47.5625 33.1094 50.5625 29.5938
Q53.5625 26.0781 56.5938 19.9219
L66.6094 0
L56 0
L46.6875 18.7031
Q43.0625 26.0312 39.6719 28.4219
Q36.2812 30.8125 30.4219 30.8125
L19.6719 30.8125
L19.6719 0
L9.8125 0
L9.8125 72.9062
L32.0781 72.9062
Q44.5781 72.9062 50.7344 67.6719
Q56.8906 62.4531 56.8906 51.9062
Q56.8906 45.0156 53.6875 40.4688
Q50.4844 35.9375 44.3906 34.1875
M19.6719 64.7969
L19.6719 38.9219
L32.0781 38.9219
Q39.2031 38.9219 42.8438 42.2188
Q46.4844 45.5156 46.4844 51.9062
Q46.4844 58.2969 42.8438 61.5469
Q39.2031 64.7969 32.0781 64.7969
z
" id="DejaVuSans-52"/>
      <path d="
M53.5156 70.5156
L53.5156 60.8906
Q47.9062 63.5781 42.9219 64.8906
Q37.9375 66.2188 33.2969 66.2188
Q25.25 66.2188 20.875 63.0938
Q16.5 59.9688 16.5 54.2031
Q16.5 49.3594 19.4062 46.8906
Q22.3125 44.4375 30.4219 42.9219
L36.375 41.7031
Q47.4062 39.5938 52.6562 34.2969
Q57.9062 29 57.9062 20.125
Q57.9062 9.51562 50.7969 4.04688
Q43.7031 -1.42188 29.9844 -1.42188
Q24.8125 -1.42188 18.9688 -0.25
Q13.1406 0.921875 6.89062 3.21875
L6.89062 13.375
Q12.8906 10.0156 18.6562 8.29688
Q24.4219 6.59375 29.9844 6.59375
Q38.4219 6.59375 43.0156 9.90625
Q47.6094 13.2344 47.6094 19.3906
Q47.6094 24.75 44.3125 27.7812
Q41.0156 30.8125 33.5 32.3281
L27.4844 33.5
Q16.4531 35.6875 11.5156 40.375
Q6.59375 45.0625 6.59375 53.4219
Q6.59375 63.0938 13.4062 68.6562
Q20.2188 74.2188 32.1719 74.2188
Q37.3125 74.2188 42.625 73.2812
Q47.9531 72.3594 53.5156 70.5156" id="DejaVuSans-53"/>
      <path d="
M9.8125 72.9062
L55.9062 72.9062
L55.9062 64.5938
L19.6719 64.5938
L19.6719 43.0156
L54.3906 43.0156
L54.3906 34.7188
L19.6719 34.7188
L19.6719 8.29688
L56.7812 8.29688
L56.7812 0
L9.8125 0
z
" id="DejaVuSans-45"/>
     </defs>
     <g transform="translate(23.82375 221.16125)rotate(-90.0)scale(0.14 -0.14)">
      <use xlink:href="#DejaVuSans-52"/>
      <use x="69.482421875" xlink:href="#DejaVuSans-4d"/>
      <use x="155.76171875" xlink:href="#DejaVuSans-53"/>
      <use x="219.23828125" xlink:href="#DejaVuSans-45"/>
     </g>
    </g>
   </g>
   <g id="patch_3">
    <path d="
M46.71 388.44
L556.431 388.44" style="fill:none;stroke:#000000;"/>
   </g>
   <g id="patch_4">
    <path d="
M46.71 388.44
L46.71 17.01" style="fill:none;stroke:#000000;"/>
   </g>
   <g id="legend_1">
    <g id="patch_5">
     <path d="
M377.673 91.9395
L549.231 91.9395
L549.231 24.21
L377.673 24.21
L377.673 91.9395
z
" style="fill:#ffffff;stroke:#000000;"/>
    </g>
    <g id="line2d_19">
     <path d="
M387.753 35.8718
L407.913 35.8718" style="fill:none;stroke:#0000ff;"/>
    </g>
    <g id="line2d_20"/>
    <g id="text_18">
     <!-- by level -->
     <defs>
      <path d="
M32.1719 -5.07812
Q28.375 -14.8438 24.75 -17.8125
Q21.1406 -20.7969 15.0938 -20.7969
L7.90625 -20.7969
L7.90625 -13.2812
L13.1875 -13.2812
Q16.8906 -13.2812 18.9375 -11.5156
Q21 -9.76562 23.4844 -3.21875
L25.0938 0.875
L2.98438 54.6875
L12.5 54.6875
L29.5938 11.9219
L46.6875 54.6875
L56.2031 54.6875
z
" id="DejaVuSans-79"/>
      <path d="
M2.98438 54.6875
L12.5 54.6875
L29.5938 8.79688
L46.6875 54.6875
L56.2031 54.6875
L35.6875 0
L23.4844 0
z
" id="DejaVuSans-76"/>
      <path d="
M48.6875 27.2969
Q48.6875 37.2031 44.6094 42.8438
Q40.5312 48.4844 33.4062 48.4844
Q26.2656 48.4844 22.1875 42.8438
Q18.1094 37.2031 18.1094 27.2969
Q18.1094 17.3906 22.1875 11.75
Q26.2656 6.10938 33.4062 6.10938
Q40.5312 6.10938 44.6094 11.75
Q48.6875 17.3906 48.6875 27.2969
M18.1094 46.3906
Q20.9531 51.2656 25.2656 53.625
Q29.5938 56 35.5938 56
Q45.5625 56 51.7812 48.0938
Q58.0156 40.1875 58.0156 27.2969
Q58.0156 14.4062 51.7812 6.48438
Q45.5625 -1.42188 35.5938 -1.42188
Q29.5938 -1.42188 25.2656 0.953125
Q20.9531 3.32812 18.1094 8.20312
L18.1094 0
L9.07812 0
L9.07812 75.9844
L18.1094 75.9844
z
" id="DejaVuSans-62"/>
     </defs>
     <g transform="translate(423.752625 40.91175)scale(0.144 -0.144)">
      <use xlink:href="#DejaVuSans-62"/>
      <use x="63.4765625" xlink:href="#DejaVuSans-79"/>
      <use x="122.65625" xlink:href="#DejaVuSans-20"/>
      <use x="154.443359375" xlink:href="#DejaVuSans-6c"/>
      <use x="182.2265625" xlink:href="#DejaVuSans-65"/>
      <use x="243.75" xlink:href="#DejaVuSans-76"/>
      <use x="302.9296875" xlink:href="#DejaVuSans-65"/>
      <use x="364.453125" xlink:href="#DejaVuSans-6c"/>
     </g>
    </g>
    <g id="line2d_21">
     <path d="
M387.753 57.0083
L407.913 57.0083" style="fill:none;stroke:#008000;"/>
    </g>
    <g id="line2d_22"/>
    <g id="text_19">
     <!-- by bit plane -->
     <defs>
      <path d="
M54.8906 33.0156
L54.8906 0
L45.9062 0
L45.9062 32.7188
Q45.9062 40.4844 42.875 44.3281
Q39.8438 48.1875 33.7969 48.1875
Q26.5156 48.1875 22.3125 43.5469
Q18.1094 38.9219 18.1094 30.9062
L18.1094 0
L9.07812 0
L9.07812 54.6875
L18.1094 54.6875
L18.1094 46.1875
Q21.3438 51.125 25.7031 53.5625
Q30.0781 56 35.7969 56
Q45.2188 56 50.0469 50.1719
Q54.8906 44.3438 54.8906 33.0156" id="DejaVuSans-6e"/>
     </defs>
     <g transform="translate(423.752625 62.04825)scale(0.144 -0.144)">
      <use xlink:href="#DejaVuSans-62"/>
      <use x="63.4765625" xlink:href="#DejaVuSans-79"/>
      <use x="122.65625" xlink:href="#DejaVuSans-20"/>
      <use x="154.443359375" xlink:href="#DejaVuSans-62"/>
      <use x="217.919921875" xlink:href="#DejaVuSans-69"/>
      <use x="245.703125" xlink:href="#DejaVuSans-74"/>
      <use x="284.912109375" xlink:href="#DejaVuSans-20"/>
      <use x="316.69921875" xlink:href="#DejaVuSans-70"/>
      <use x="380.17578125" xlink:href="#DejaVuSans-6c"/>
      <use x="407.958984375" xlink:href="#DejaVuSans-61"/>
      <use x="469.23828125" xlink:href="#DejaVuSans-6e"/>
      <use x="532.6171875" xlink:href="#DejaVuSans-65"/>
     </g>
    </g>
    <g id="line2d_23">
     <path d="
M387.753 78.1448
L407.913 78.1448" style="fill:none;stroke:#ff0000;"/>
    </g>
    <g id="line2d_24"/>
    <g id="text_20">
     <!-- by wavelet norm -->
     <defs>
      <path d="
M30.6094 48.3906
Q23.3906 48.3906 19.1875 42.75
Q14.9844 37.1094 14.9844 27.2969
Q14.9844 17.4844 19.1562 11.8438
Q23.3438 6.20312 30.6094 6.20312
Q37.7969 6.20312 41.9844 11.8594
Q46.1875 17.5312 46.1875 27.2969
Q46.1875 37.0156 41.9844 42.7031
Q37.7969 48.3906 30.6094 48.3906
M30.6094 56
Q42.3281 56 49.0156 48.375
Q55.7188 40.7656 55.7188 27.2969
Q55.7188 13.875 49.0156 6.21875
Q42.3281 -1.42188 30.6094 -1.42188
Q18.8438 -1.42188 12.1719 6.21875
Q5.51562 13.875 5.51562 27.2969
Q5.51562 40.7656 12.1719 48.375
Q18.8438 56 30.6094 56" id="DejaVuSans-6f"/>
      <path d="
M4.20312 54.6875
L13.1875 54.6875
L24.4219 12.0156
L35.5938 54.6875
L46.1875 54.6875
L57.4219 12.0156
L68.6094 54.6875
L77.5938 54.6875
L63.2812 0
L52.6875 0
L40.9219 44.8281
L29.1094 0
L18.5 0
z
" id="DejaVuSans-77"/>
     </defs>
     <g transform="translate(423.752625 83.18475)scale(0.144 -0.144)">
      <use xlink:href="#DejaVuSans-62"/>
      <use x="63.4765625" xlink:href="#DejaVuSans-79"/>
      <use x="122.65625" xlink:href="#DejaVuSans-20"/>
      <use x="154.443359375" xlink:href="#DejaVuSans-77"/>
      <use x="236.23046875" xlink:href="#DejaVuSans-61"/>
      <use x="297.509765625" xlink:href="#DejaVuSans-76"/>
      <use x="356.689453125" xlink:href="#DejaVuSans-65"/>
      <use x="418.212890625" xlink:href="#DejaVuSans-6c"/>
      <use x="445.99609375" xlink:href="#DejaVuSans-65"/>
      <use x="507.51953125" xlink:href="#DejaVuSans-74"/>
      <use x="546.728515625" xlink:href="#DejaVuSans-20"/>
      <use x="578.515625" xlink:href="#DejaVuSans-6e"/>
      <use x="641.89453125" xlink:href="#DejaVuSans-6f"/>
      <use x="703.076171875" xlink:href="#DejaVuSans-72"/>
      <use x="742.439453125" xlink:href="#DejaVuSans-6d"/>
     </g>
    </g>
   </g>
  </g>
 </g>
 <defs>
  <clipPath id="p75f1045f34">
   <rect height="371.43" width="509.720625" x="46.71" y="17.01"/>
  </clipPath>
 </defs>
</svg>
