<?xml version="1.0" encoding="utf-8" standalone="no"?>
<!DOCTYPE svg PUBLIC "-//W3C//DTD SVG 1.1//EN"
  "http://www.w3.org/Graphics/SVG/1.1/DTD/svg11.dtd">
<!-- Created with matplotlib (http://matplotlib.org/) -->
<svg height="345pt" version="1.1" viewBox="0 0 460 345" width="460pt" xmlns="http://www.w3.org/2000/svg" xmlns:xlink="http://www.w3.org/1999/xlink">
 <defs>
  <style type="text/css">
*{stroke-linecap:butt;stroke-linejoin:round;}
  </style>
 </defs>
 <g id="figure_1">
  <g id="patch_1">
   <path d="M 0 345.6 
L 460.8 345.6 
L 460.8 0 
L 0 0 
z
" style="fill:#ffffff;"/>
  </g>
  <g id="axes_1">
   <g id="patch_2">
    <path d="M 48.17 300.04 
L 445.565162 300.04 
L 445.565162 13.32 
L 48.17 13.32 
z
" style="fill:#ffffff;"/>
   </g>
   <g id="matplotlib.axis_1">
    <g id="xtick_1">
     <g id="line2d_1">
      <defs>
       <path d="M 0 0 
L 0 3.5 
" id="m0527373b06" style="stroke:#000000;stroke-width:0.8;"/>
      </defs>
      <g>
       <use style="stroke:#000000;stroke-width:0.8;" x="66.085779" xlink:href="#m0527373b06" y="300.04"/>
      </g>
     </g>
     <g id="text_1">
      <!-- 0.0 -->
      <defs>
       <path d="M 31.78125 66.40625 
Q 24.171875 66.40625 20.328125 58.90625 
Q 16.5 51.421875 16.5 36.375 
Q 16.5 21.390625 20.328125 13.890625 
Q 24.171875 6.390625 31.78125 6.390625 
Q 39.453125 6.390625 43.28125 13.890625 
Q 47.125 21.390625 47.125 36.375 
Q 47.125 51.421875 43.28125 58.90625 
Q 39.453125 66.40625 31.78125 66.40625 
z
M 31.78125 74.21875 
Q 44.046875 74.21875 50.515625 64.515625 
Q 56.984375 54.828125 56.984375 36.375 
Q 56.984375 17.96875 50.515625 8.265625 
Q 44.046875 -1.421875 31.78125 -1.421875 
Q 19.53125 -1.421875 13.0625 8.265625 
Q 6.59375 17.96875 6.59375 36.375 
Q 6.59375 54.828125 13.0625 64.515625 
Q 19.53125 74.21875 31.78125 74.21875 
z
" id="DejaVuSans-30"/>
       <path d="M 10.6875 12.40625 
L 21 12.40625 
L 21 0 
L 10.6875 0 
z
" id="DejaVuSans-2e"/>
      </defs>
      <g transform="translate(58.134217 314.638437)scale(0.1 -0.1)">
       <use xlink:href="#DejaVuSans-30"/>
       <use x="63.623047" xlink:href="#DejaVuSans-2e"/>
       <use x="95.410156" xlink:href="#DejaVuSans-30"/>
      </g>
     </g>
    </g>
    <g id="xtick_2">
     <g id="line2d_2">
      <g>
       <use style="stroke:#000000;stroke-width:0.8;" x="119.235186" xlink:href="#m0527373b06" y="300.04"/>
      </g>
     </g>
     <g id="text_2">
      <!-- 2.5 -->
      <defs>
       <path d="M 19.1875 8.296875 
L 53.609375 8.296875 
L 53.609375 0 
L 7.328125 0 
L 7.328125 8.296875 
Q 12.9375 14.109375 22.625 23.890625 
Q 32.328125 33.6875 34.8125 36.53125 
Q 39.546875 41.84375 41.421875 45.53125 
Q 43.3125 49.21875 43.3125 52.78125 
Q 43.3125 58.59375 39.234375 62.25 
Q 35.15625 65.921875 28.609375 65.921875 
Q 23.96875 65.921875 18.8125 64.3125 
Q 13.671875 62.703125 7.8125 59.421875 
L 7.8125 69.390625 
Q 13.765625 71.78125 18.9375 73 
Q 24.125 74.21875 28.421875 74.21875 
Q 39.75 74.21875 46.484375 68.546875 
Q 53.21875 62.890625 53.21875 53.421875 
Q 53.21875 48.921875 51.53125 44.890625 
Q 49.859375 40.875 45.40625 35.40625 
Q 44.1875 33.984375 37.640625 27.21875 
Q 31.109375 20.453125 19.1875 8.296875 
z
" id="DejaVuSans-32"/>
       <path d="M 10.796875 72.90625 
L 49.515625 72.90625 
L 49.515625 64.59375 
L 19.828125 64.59375 
L 19.828125 46.734375 
Q 21.96875 47.46875 24.109375 47.828125 
Q 26.265625 48.1875 28.421875 48.1875 
Q 40.625 48.1875 47.75 41.5 
Q 54.890625 34.8125 54.890625 23.390625 
Q 54.890625 11.625 47.5625 5.09375 
Q 40.234375 -1.421875 26.90625 -1.421875 
Q 22.3125 -1.421875 17.546875 -0.640625 
Q 12.796875 0.140625 7.71875 1.703125 
L 7.71875 11.625 
Q 12.109375 9.234375 16.796875 8.0625 
Q 21.484375 6.890625 26.703125 6.890625 
Q 35.15625 6.890625 40.078125 11.328125 
Q 45.015625 15.765625 45.015625 23.390625 
Q 45.015625 31 40.078125 35.4375 
Q 35.15625 39.890625 26.703125 39.890625 
Q 22.75 39.890625 18.8125 39.015625 
Q 14.890625 38.140625 10.796875 36.28125 
z
" id="DejaVuSans-35"/>
      </defs>
      <g transform="translate(111.283624 314.638437)scale(0.1 -0.1)">
       <use xlink:href="#DejaVuSans-32"/>
       <use x="63.623047" xlink:href="#DejaVuSans-2e"/>
       <use x="95.410156" xlink:href="#DejaVuSans-35"/>
      </g>
     </g>
    </g>
    <g id="xtick_3">
     <g id="line2d_3">
      <g>
       <use style="stroke:#000000;stroke-width:0.8;" x="172.384593" xlink:href="#m0527373b06" y="300.04"/>
      </g>
     </g>
     <g id="text_3">
      <!-- 5.0 -->
      <g transform="translate(164.43303 314.638437)scale(0.1 -0.1)">
       <use xlink:href="#DejaVuSans-35"/>
       <use x="63.623047" xlink:href="#DejaVuSans-2e"/>
       <use x="95.410156" xlink:href="#DejaVuSans-30"/>
      </g>
     </g>
    </g>
    <g id="xtick_4">
     <g id="line2d_4">
      <g>
       <use style="stroke:#000000;stroke-width:0.8;" x="225.534" xlink:href="#m0527373b06" y="300.04"/>
      </g>
     </g>
     <g id="text_4">
      <!-- 7.5 -->
      <defs>
       <path d="M 8.203125 72.90625 
L 55.078125 72.90625 
L 55.078125 68.703125 
L 28.609375 0 
L 18.3125 0 
L 43.21875 64.59375 
L 8.203125 64.59375 
z
" id="DejaVuSans-37"/>
      </defs>
      <g transform="translate(217.582437 314.638437)scale(0.1 -0.1)">
       <use xlink:href="#DejaVuSans-37"/>
       <use x="63.623047" xlink:href="#DejaVuSans-2e"/>
       <use x="95.410156" xlink:href="#DejaVuSans-35"/>
      </g>
     </g>
    </g>
    <g id="xtick_5">
     <g id="line2d_5">
      <g>
       <use style="stroke:#000000;stroke-width:0.8;" x="278.683406" xlink:href="#m0527373b06" y="300.04"/>
      </g>
     </g>
     <g id="text_5">
      <!-- 10.0 -->
      <defs>
       <path d="M 12.40625 8.296875 
L 28.515625 8.296875 
L 28.515625 63.921875 
L 10.984375 60.40625 
L 10.984375 69.390625 
L 28.421875 72.90625 
L 38.28125 72.90625 
L 38.28125 8.296875 
L 54.390625 8.296875 
L 54.390625 0 
L 12.40625 0 
z
" id="DejaVuSans-31"/>
      </defs>
      <g transform="translate(267.550594 314.638437)scale(0.1 -0.1)">
       <use xlink:href="#DejaVuSans-31"/>
       <use x="63.623047" xlink:href="#DejaVuSans-30"/>
       <use x="127.246094" xlink:href="#DejaVuSans-2e"/>
       <use x="159.033203" xlink:href="#DejaVuSans-30"/>
      </g>
     </g>
    </g>
    <g id="xtick_6">
     <g id="line2d_6">
      <g>
       <use style="stroke:#000000;stroke-width:0.8;" x="331.832813" xlink:href="#m0527373b06" y="300.04"/>
      </g>
     </g>
     <g id="text_6">
      <!-- 12.5 -->
      <g transform="translate(320.700001 314.638437)scale(0.1 -0.1)">
       <use xlink:href="#DejaVuSans-31"/>
       <use x="63.623047" xlink:href="#DejaVuSans-32"/>
       <use x="127.246094" xlink:href="#DejaVuSans-2e"/>
       <use x="159.033203" xlink:href="#DejaVuSans-35"/>
      </g>
     </g>
    </g>
    <g id="xtick_7">
     <g id="line2d_7">
      <g>
       <use style="stroke:#000000;stroke-width:0.8;" x="384.98222" xlink:href="#m0527373b06" y="300.04"/>
      </g>
     </g>
     <g id="text_7">
      <!-- 15.0 -->
      <g transform="translate(373.849408 314.638437)scale(0.1 -0.1)">
       <use xlink:href="#DejaVuSans-31"/>
       <use x="63.623047" xlink:href="#DejaVuSans-35"/>
       <use x="127.246094" xlink:href="#DejaVuSans-2e"/>
       <use x="159.033203" xlink:href="#DejaVuSans-30"/>
      </g>
     </g>
    </g>
    <g id="xtick_8">
     <g id="line2d_8">
      <g>
       <use style="stroke:#000000;stroke-width:0.8;" x="438.131627" xlink:href="#m0527373b06" y="300.04"/>
      </g>
     </g>
     <g id="text_8">
      <!-- 17.5 -->
      <g transform="translate(426.998814 314.638437)scale(0.1 -0.1)">
       <use xlink:href="#DejaVuSans-31"/>
       <use x="63.623047" xlink:href="#DejaVuSans-37"/>
       <use x="127.246094" xlink:href="#DejaVuSans-2e"/>
       <use x="159.033203" xlink:href="#DejaVuSans-35"/>
      </g>
     </g>
    </g>
    <g id="text_9">
     <!-- Bits per sample -->
     <defs>
      <path d="M 19.671875 34.8125 
L 19.671875 8.109375 
L 35.5 8.109375 
Q 43.453125 8.109375 47.28125 11.40625 
Q 51.125 14.703125 51.125 21.484375 
Q 51.125 28.328125 47.28125 31.5625 
Q 43.453125 34.8125 35.5 34.8125 
z
M 19.671875 64.796875 
L 19.671875 42.828125 
L 34.28125 42.828125 
Q 41.5 42.828125 45.03125 45.53125 
Q 48.578125 48.25 48.578125 53.8125 
Q 48.578125 59.328125 45.03125 62.0625 
Q 41.5 64.796875 34.28125 64.796875 
z
M 9.8125 72.90625 
L 35.015625 72.90625 
Q 46.296875 72.90625 52.390625 68.21875 
Q 58.5 63.53125 58.5 54.890625 
Q 58.5 48.1875 55.375 44.234375 
Q 52.25 40.28125 46.1875 39.3125 
Q 53.46875 37.75 57.5 32.78125 
Q 61.53125 27.828125 61.53125 20.40625 
Q 61.53125 10.640625 54.890625 5.3125 
Q 48.25 0 35.984375 0 
L 9.8125 0 
z
" id="DejaVuSans-42"/>
      <path d="M 9.421875 54.6875 
L 18.40625 54.6875 
L 18.40625 0 
L 9.421875 0 
z
M 9.421875 75.984375 
L 18.40625 75.984375 
L 18.40625 64.59375 
L 9.421875 64.59375 
z
" id="DejaVuSans-69"/>
      <path d="M 18.3125 70.21875 
L 18.3125 54.6875 
L 36.8125 54.6875 
L 36.8125 47.703125 
L 18.3125 47.703125 
L 18.3125 18.015625 
Q 18.3125 11.328125 20.140625 9.421875 
Q 21.96875 7.515625 27.59375 7.515625 
L 36.8125 7.515625 
L 36.8125 0 
L 27.59375 0 
Q 17.1875 0 13.234375 3.875 
Q 9.28125 7.765625 9.28125 18.015625 
L 9.28125 47.703125 
L 2.6875 47.703125 
L 2.6875 54.6875 
L 9.28125 54.6875 
L 9.28125 70.21875 
z
" id="DejaVuSans-74"/>
      <path d="M 44.28125 53.078125 
L 44.28125 44.578125 
Q 40.484375 46.53125 36.375 47.5 
Q 32.28125 48.484375 27.875 48.484375 
Q 21.1875 48.484375 17.84375 46.4375 
Q 14.5 44.390625 14.5 40.28125 
Q 14.5 37.15625 16.890625 35.375 
Q 19.28125 33.59375 26.515625 31.984375 
L 29.59375 31.296875 
Q 39.15625 29.25 43.1875 25.515625 
Q 47.21875 21.78125 47.21875 15.09375 
Q 47.21875 7.46875 41.1875 3.015625 
Q 35.15625 -1.421875 24.609375 -1.421875 
Q 20.21875 -1.421875 15.453125 -0.5625 
Q 10.6875 0.296875 5.421875 2 
L 5.421875 11.28125 
Q 10.40625 8.6875 15.234375 7.390625 
Q 20.0625 6.109375 24.8125 6.109375 
Q 31.15625 6.109375 34.5625 8.28125 
Q 37.984375 10.453125 37.984375 14.40625 
Q 37.984375 18.0625 35.515625 20.015625 
Q 33.0625 21.96875 24.703125 23.78125 
L 21.578125 24.515625 
Q 13.234375 26.265625 9.515625 29.90625 
Q 5.8125 33.546875 5.8125 39.890625 
Q 5.8125 47.609375 11.28125 51.796875 
Q 16.75 56 26.8125 56 
Q 31.78125 56 36.171875 55.265625 
Q 40.578125 54.546875 44.28125 53.078125 
z
" id="DejaVuSans-73"/>
      <path id="DejaVuSans-20"/>
      <path d="M 18.109375 8.203125 
L 18.109375 -20.796875 
L 9.078125 -20.796875 
L 9.078125 54.6875 
L 18.109375 54.6875 
L 18.109375 46.390625 
Q 20.953125 51.265625 25.265625 53.625 
Q 29.59375 56 35.59375 56 
Q 45.5625 56 51.78125 48.09375 
Q 58.015625 40.1875 58.015625 27.296875 
Q 58.015625 14.40625 51.78125 6.484375 
Q 45.5625 -1.421875 35.59375 -1.421875 
Q 29.59375 -1.421875 25.265625 0.953125 
Q 20.953125 3.328125 18.109375 8.203125 
z
M 48.6875 27.296875 
Q 48.6875 37.203125 44.609375 42.84375 
Q 40.53125 48.484375 33.40625 48.484375 
Q 26.265625 48.484375 22.1875 42.84375 
Q 18.109375 37.203125 18.109375 27.296875 
Q 18.109375 17.390625 22.1875 11.75 
Q 26.265625 6.109375 33.40625 6.109375 
Q 40.53125 6.109375 44.609375 11.75 
Q 48.6875 17.390625 48.6875 27.296875 
z
" id="DejaVuSans-70"/>
      <path d="M 56.203125 29.59375 
L 56.203125 25.203125 
L 14.890625 25.203125 
Q 15.484375 15.921875 20.484375 11.0625 
Q 25.484375 6.203125 34.421875 6.203125 
Q 39.59375 6.203125 44.453125 7.46875 
Q 49.3125 8.734375 54.109375 11.28125 
L 54.109375 2.78125 
Q 49.265625 0.734375 44.1875 -0.34375 
Q 39.109375 -1.421875 33.890625 -1.421875 
Q 20.796875 -1.421875 13.15625 6.1875 
Q 5.515625 13.8125 5.515625 26.8125 
Q 5.515625 40.234375 12.765625 48.109375 
Q 20.015625 56 32.328125 56 
Q 43.359375 56 49.78125 48.890625 
Q 56.203125 41.796875 56.203125 29.59375 
z
M 47.21875 32.234375 
Q 47.125 39.59375 43.09375 43.984375 
Q 39.0625 48.390625 32.421875 48.390625 
Q 24.90625 48.390625 20.390625 44.140625 
Q 15.875 39.890625 15.1875 32.171875 
z
" id="DejaVuSans-65"/>
      <path d="M 41.109375 46.296875 
Q 39.59375 47.171875 37.8125 47.578125 
Q 36.03125 48 33.890625 48 
Q 26.265625 48 22.1875 43.046875 
Q 18.109375 38.09375 18.109375 28.8125 
L 18.109375 0 
L 9.078125 0 
L 9.078125 54.6875 
L 18.109375 54.6875 
L 18.109375 46.1875 
Q 20.953125 51.171875 25.484375 53.578125 
Q 30.03125 56 36.53125 56 
Q 37.453125 56 38.578125 55.875 
Q 39.703125 55.765625 41.0625 55.515625 
z
" id="DejaVuSans-72"/>
      <path d="M 34.28125 27.484375 
Q 23.390625 27.484375 19.1875 25 
Q 14.984375 22.515625 14.984375 16.5 
Q 14.984375 11.71875 18.140625 8.90625 
Q 21.296875 6.109375 26.703125 6.109375 
Q 34.1875 6.109375 38.703125 11.40625 
Q 43.21875 16.703125 43.21875 25.484375 
L 43.21875 27.484375 
z
M 52.203125 31.203125 
L 52.203125 0 
L 43.21875 0 
L 43.21875 8.296875 
Q 40.140625 3.328125 35.546875 0.953125 
Q 30.953125 -1.421875 24.3125 -1.421875 
Q 15.921875 -1.421875 10.953125 3.296875 
Q 6 8.015625 6 15.921875 
Q 6 25.140625 12.171875 29.828125 
Q 18.359375 34.515625 30.609375 34.515625 
L 43.21875 34.515625 
L 43.21875 35.40625 
Q 43.21875 41.609375 39.140625 45 
Q 35.0625 48.390625 27.6875 48.390625 
Q 23 48.390625 18.546875 47.265625 
Q 14.109375 46.140625 10.015625 43.890625 
L 10.015625 52.203125 
Q 14.9375 54.109375 19.578125 55.046875 
Q 24.21875 56 28.609375 56 
Q 40.484375 56 46.34375 49.84375 
Q 52.203125 43.703125 52.203125 31.203125 
z
" id="DejaVuSans-61"/>
      <path d="M 52 44.1875 
Q 55.375 50.25 60.0625 53.125 
Q 64.75 56 71.09375 56 
Q 79.640625 56 84.28125 50.015625 
Q 88.921875 44.046875 88.921875 33.015625 
L 88.921875 0 
L 79.890625 0 
L 79.890625 32.71875 
Q 79.890625 40.578125 77.09375 44.375 
Q 74.3125 48.1875 68.609375 48.1875 
Q 61.625 48.1875 57.5625 43.546875 
Q 53.515625 38.921875 53.515625 30.90625 
L 53.515625 0 
L 44.484375 0 
L 44.484375 32.71875 
Q 44.484375 40.625 41.703125 44.40625 
Q 38.921875 48.1875 33.109375 48.1875 
Q 26.21875 48.1875 22.15625 43.53125 
Q 18.109375 38.875 18.109375 30.90625 
L 18.109375 0 
L 9.078125 0 
L 9.078125 54.6875 
L 18.109375 54.6875 
L 18.109375 46.1875 
Q 21.1875 51.21875 25.484375 53.609375 
Q 29.78125 56 35.6875 56 
Q 41.65625 56 45.828125 52.96875 
Q 50 49.953125 52 44.1875 
z
" id="DejaVuSans-6d"/>
      <path d="M 9.421875 75.984375 
L 18.40625 75.984375 
L 18.40625 0 
L 9.421875 0 
z
" id="DejaVuSans-6c"/>
     </defs>
     <g transform="translate(192.200862 331.355937)scale(0.14 -0.14)">
      <use xlink:href="#DejaVuSans-42"/>
      <use x="68.603516" xlink:href="#DejaVuSans-69"/>
      <use x="96.386719" xlink:href="#DejaVuSans-74"/>
      <use x="135.595703" xlink:href="#DejaVuSans-73"/>
      <use x="187.695312" xlink:href="#DejaVuSans-20"/>
      <use x="219.482422" xlink:href="#DejaVuSans-70"/>
      <use x="282.958984" xlink:href="#DejaVuSans-65"/>
      <use x="344.482422" xlink:href="#DejaVuSans-72"/>
      <use x="385.595703" xlink:href="#DejaVuSans-20"/>
      <use x="417.382812" xlink:href="#DejaVuSans-73"/>
      <use x="469.482422" xlink:href="#DejaVuSans-61"/>
      <use x="530.761719" xlink:href="#DejaVuSans-6d"/>
      <use x="628.173828" xlink:href="#DejaVuSans-70"/>
      <use x="691.650391" xlink:href="#DejaVuSans-6c"/>
      <use x="719.433594" xlink:href="#DejaVuSans-65"/>
     </g>
    </g>
   </g>
   <g id="matplotlib.axis_2">
    <g id="ytick_1">
     <g id="line2d_9">
      <defs>
       <path d="M 0 0 
L -3.5 0 
" id="m41ee6ac573" style="stroke:#000000;stroke-width:0.8;"/>
      </defs>
      <g>
       <use style="stroke:#000000;stroke-width:0.8;" x="48.17" xlink:href="#m41ee6ac573" y="295.585962"/>
      </g>
     </g>
     <g id="text_10">
      <!-- 10 -->
      <g transform="translate(28.445 299.385181)scale(0.1 -0.1)">
       <use xlink:href="#DejaVuSans-31"/>
       <use x="63.623047" xlink:href="#DejaVuSans-30"/>
      </g>
     </g>
    </g>
    <g id="ytick_2">
     <g id="line2d_10">
      <g>
       <use style="stroke:#000000;stroke-width:0.8;" x="48.17" xlink:href="#m41ee6ac573" y="262.391837"/>
      </g>
     </g>
     <g id="text_11">
      <!-- 20 -->
      <g transform="translate(28.445 266.191056)scale(0.1 -0.1)">
       <use xlink:href="#DejaVuSans-32"/>
       <use x="63.623047" xlink:href="#DejaVuSans-30"/>
      </g>
     </g>
    </g>
    <g id="ytick_3">
     <g id="line2d_11">
      <g>
       <use style="stroke:#000000;stroke-width:0.8;" x="48.17" xlink:href="#m41ee6ac573" y="229.197712"/>
      </g>
     </g>
     <g id="text_12">
      <!-- 30 -->
      <defs>
       <path d="M 40.578125 39.3125 
Q 47.65625 37.796875 51.625 33 
Q 55.609375 28.21875 55.609375 21.1875 
Q 55.609375 10.40625 48.1875 4.484375 
Q 40.765625 -1.421875 27.09375 -1.421875 
Q 22.515625 -1.421875 17.65625 -0.515625 
Q 12.796875 0.390625 7.625 2.203125 
L 7.625 11.71875 
Q 11.71875 9.328125 16.59375 8.109375 
Q 21.484375 6.890625 26.8125 6.890625 
Q 36.078125 6.890625 40.9375 10.546875 
Q 45.796875 14.203125 45.796875 21.1875 
Q 45.796875 27.640625 41.28125 31.265625 
Q 36.765625 34.90625 28.71875 34.90625 
L 20.21875 34.90625 
L 20.21875 43.015625 
L 29.109375 43.015625 
Q 36.375 43.015625 40.234375 45.921875 
Q 44.09375 48.828125 44.09375 54.296875 
Q 44.09375 59.90625 40.109375 62.90625 
Q 36.140625 65.921875 28.71875 65.921875 
Q 24.65625 65.921875 20.015625 65.03125 
Q 15.375 64.15625 9.8125 62.3125 
L 9.8125 71.09375 
Q 15.4375 72.65625 20.34375 73.4375 
Q 25.25 74.21875 29.59375 74.21875 
Q 40.828125 74.21875 47.359375 69.109375 
Q 53.90625 64.015625 53.90625 55.328125 
Q 53.90625 49.265625 50.4375 45.09375 
Q 46.96875 40.921875 40.578125 39.3125 
z
" id="DejaVuSans-33"/>
      </defs>
      <g transform="translate(28.445 232.996931)scale(0.1 -0.1)">
       <use xlink:href="#DejaVuSans-33"/>
       <use x="63.623047" xlink:href="#DejaVuSans-30"/>
      </g>
     </g>
    </g>
    <g id="ytick_4">
     <g id="line2d_12">
      <g>
       <use style="stroke:#000000;stroke-width:0.8;" x="48.17" xlink:href="#m41ee6ac573" y="196.003587"/>
      </g>
     </g>
     <g id="text_13">
      <!-- 40 -->
      <defs>
       <path d="M 37.796875 64.3125 
L 12.890625 25.390625 
L 37.796875 25.390625 
z
M 35.203125 72.90625 
L 47.609375 72.90625 
L 47.609375 25.390625 
L 58.015625 25.390625 
L 58.015625 17.1875 
L 47.609375 17.1875 
L 47.609375 0 
L 37.796875 0 
L 37.796875 17.1875 
L 4.890625 17.1875 
L 4.890625 26.703125 
z
" id="DejaVuSans-34"/>
      </defs>
      <g transform="translate(28.445 199.802805)scale(0.1 -0.1)">
       <use xlink:href="#DejaVuSans-34"/>
       <use x="63.623047" xlink:href="#DejaVuSans-30"/>
      </g>
     </g>
    </g>
    <g id="ytick_5">
     <g id="line2d_13">
      <g>
       <use style="stroke:#000000;stroke-width:0.8;" x="48.17" xlink:href="#m41ee6ac573" y="162.809461"/>
      </g>
     </g>
     <g id="text_14">
      <!-- 50 -->
      <g transform="translate(28.445 166.60868)scale(0.1 -0.1)">
       <use xlink:href="#DejaVuSans-35"/>
       <use x="63.623047" xlink:href="#DejaVuSans-30"/>
      </g>
     </g>
    </g>
    <g id="ytick_6">
     <g id="line2d_14">
      <g>
       <use style="stroke:#000000;stroke-width:0.8;" x="48.17" xlink:href="#m41ee6ac573" y="129.615336"/>
      </g>
     </g>
     <g id="text_15">
      <!-- 60 -->
      <defs>
       <path d="M 33.015625 40.375 
Q 26.375 40.375 22.484375 35.828125 
Q 18.609375 31.296875 18.609375 23.390625 
Q 18.609375 15.53125 22.484375 10.953125 
Q 26.375 6.390625 33.015625 6.390625 
Q 39.65625 6.390625 43.53125 10.953125 
Q 47.40625 15.53125 47.40625 23.390625 
Q 47.40625 31.296875 43.53125 35.828125 
Q 39.65625 40.375 33.015625 40.375 
z
M 52.59375 71.296875 
L 52.59375 62.3125 
Q 48.875 64.0625 45.09375 64.984375 
Q 41.3125 65.921875 37.59375 65.921875 
Q 27.828125 65.921875 22.671875 59.328125 
Q 17.53125 52.734375 16.796875 39.40625 
Q 19.671875 43.65625 24.015625 45.921875 
Q 28.375 48.1875 33.59375 48.1875 
Q 44.578125 48.1875 50.953125 41.515625 
Q 57.328125 34.859375 57.328125 23.390625 
Q 57.328125 12.15625 50.6875 5.359375 
Q 44.046875 -1.421875 33.015625 -1.421875 
Q 20.359375 -1.421875 13.671875 8.265625 
Q 6.984375 17.96875 6.984375 36.375 
Q 6.984375 53.65625 15.1875 63.9375 
Q 23.390625 74.21875 37.203125 74.21875 
Q 40.921875 74.21875 44.703125 73.484375 
Q 48.484375 72.75 52.59375 71.296875 
z
" id="DejaVuSans-36"/>
      </defs>
      <g transform="translate(28.445 133.414555)scale(0.1 -0.1)">
       <use xlink:href="#DejaVuSans-36"/>
       <use x="63.623047" xlink:href="#DejaVuSans-30"/>
      </g>
     </g>
    </g>
    <g id="ytick_7">
     <g id="line2d_15">
      <g>
       <use style="stroke:#000000;stroke-width:0.8;" x="48.17" xlink:href="#m41ee6ac573" y="96.421211"/>
      </g>
     </g>
     <g id="text_16">
      <!-- 70 -->
      <g transform="translate(28.445 100.220429)scale(0.1 -0.1)">
       <use xlink:href="#DejaVuSans-37"/>
       <use x="63.623047" xlink:href="#DejaVuSans-30"/>
      </g>
     </g>
    </g>
    <g id="ytick_8">
     <g id="line2d_16">
      <g>
       <use style="stroke:#000000;stroke-width:0.8;" x="48.17" xlink:href="#m41ee6ac573" y="63.227085"/>
      </g>
     </g>
     <g id="text_17">
      <!-- 80 -->
      <defs>
       <path d="M 31.78125 34.625 
Q 24.75 34.625 20.71875 30.859375 
Q 16.703125 27.09375 16.703125 20.515625 
Q 16.703125 13.921875 20.71875 10.15625 
Q 24.75 6.390625 31.78125 6.390625 
Q 38.8125 6.390625 42.859375 10.171875 
Q 46.921875 13.96875 46.921875 20.515625 
Q 46.921875 27.09375 42.890625 30.859375 
Q 38.875 34.625 31.78125 34.625 
z
M 21.921875 38.8125 
Q 15.578125 40.375 12.03125 44.71875 
Q 8.5 49.078125 8.5 55.328125 
Q 8.5 64.0625 14.71875 69.140625 
Q 20.953125 74.21875 31.78125 74.21875 
Q 42.671875 74.21875 48.875 69.140625 
Q 55.078125 64.0625 55.078125 55.328125 
Q 55.078125 49.078125 51.53125 44.71875 
Q 48 40.375 41.703125 38.8125 
Q 48.828125 37.15625 52.796875 32.3125 
Q 56.78125 27.484375 56.78125 20.515625 
Q 56.78125 9.90625 50.3125 4.234375 
Q 43.84375 -1.421875 31.78125 -1.421875 
Q 19.734375 -1.421875 13.25 4.234375 
Q 6.78125 9.90625 6.78125 20.515625 
Q 6.78125 27.484375 10.78125 32.3125 
Q 14.796875 37.15625 21.921875 38.8125 
z
M 18.3125 54.390625 
Q 18.3125 48.734375 21.84375 45.5625 
Q 25.390625 42.390625 31.78125 42.390625 
Q 38.140625 42.390625 41.71875 45.5625 
Q 45.3125 48.734375 45.3125 54.390625 
Q 45.3125 60.0625 41.71875 63.234375 
Q 38.140625 66.40625 31.78125 66.40625 
Q 25.390625 66.40625 21.84375 63.234375 
Q 18.3125 60.0625 18.3125 54.390625 
z
" id="DejaVuSans-38"/>
      </defs>
      <g transform="translate(28.445 67.026304)scale(0.1 -0.1)">
       <use xlink:href="#DejaVuSans-38"/>
       <use x="63.623047" xlink:href="#DejaVuSans-30"/>
      </g>
     </g>
    </g>
    <g id="ytick_9">
     <g id="line2d_17">
      <g>
       <use style="stroke:#000000;stroke-width:0.8;" x="48.17" xlink:href="#m41ee6ac573" y="30.03296"/>
      </g>
     </g>
     <g id="text_18">
      <!-- 90 -->
      <defs>
       <path d="M 10.984375 1.515625 
L 10.984375 10.5 
Q 14.703125 8.734375 18.5 7.8125 
Q 22.3125 6.890625 25.984375 6.890625 
Q 35.75 6.890625 40.890625 13.453125 
Q 46.046875 20.015625 46.78125 33.40625 
Q 43.953125 29.203125 39.59375 26.953125 
Q 35.25 24.703125 29.984375 24.703125 
Q 19.046875 24.703125 12.671875 31.3125 
Q 6.296875 37.9375 6.296875 49.421875 
Q 6.296875 60.640625 12.9375 67.421875 
Q 19.578125 74.21875 30.609375 74.21875 
Q 43.265625 74.21875 49.921875 64.515625 
Q 56.59375 54.828125 56.59375 36.375 
Q 56.59375 19.140625 48.40625 8.859375 
Q 40.234375 -1.421875 26.421875 -1.421875 
Q 22.703125 -1.421875 18.890625 -0.6875 
Q 15.09375 0.046875 10.984375 1.515625 
z
M 30.609375 32.421875 
Q 37.25 32.421875 41.125 36.953125 
Q 45.015625 41.5 45.015625 49.421875 
Q 45.015625 57.28125 41.125 61.84375 
Q 37.25 66.40625 30.609375 66.40625 
Q 23.96875 66.40625 20.09375 61.84375 
Q 16.21875 57.28125 16.21875 49.421875 
Q 16.21875 41.5 20.09375 36.953125 
Q 23.96875 32.421875 30.609375 32.421875 
z
" id="DejaVuSans-39"/>
      </defs>
      <g transform="translate(28.445 33.832179)scale(0.1 -0.1)">
       <use xlink:href="#DejaVuSans-39"/>
       <use x="63.623047" xlink:href="#DejaVuSans-30"/>
      </g>
     </g>
    </g>
    <g id="text_19">
     <!-- PSNR -->
     <defs>
      <path d="M 19.671875 64.796875 
L 19.671875 37.40625 
L 32.078125 37.40625 
Q 38.96875 37.40625 42.71875 40.96875 
Q 46.484375 44.53125 46.484375 51.125 
Q 46.484375 57.671875 42.71875 61.234375 
Q 38.96875 64.796875 32.078125 64.796875 
z
M 9.8125 72.90625 
L 32.078125 72.90625 
Q 44.34375 72.90625 50.609375 67.359375 
Q 56.890625 61.8125 56.890625 51.125 
Q 56.890625 40.328125 50.609375 34.8125 
Q 44.34375 29.296875 32.078125 29.296875 
L 19.671875 29.296875 
L 19.671875 0 
L 9.8125 0 
z
" id="DejaVuSans-50"/>
      <path d="M 53.515625 70.515625 
L 53.515625 60.890625 
Q 47.90625 63.578125 42.921875 64.890625 
Q 37.9375 66.21875 33.296875 66.21875 
Q 25.25 66.21875 20.875 63.09375 
Q 16.5 59.96875 16.5 54.203125 
Q 16.5 49.359375 19.40625 46.890625 
Q 22.3125 44.4375 30.421875 42.921875 
L 36.375 41.703125 
Q 47.40625 39.59375 52.65625 34.296875 
Q 57.90625 29 57.90625 20.125 
Q 57.90625 9.515625 50.796875 4.046875 
Q 43.703125 -1.421875 29.984375 -1.421875 
Q 24.8125 -1.421875 18.96875 -0.25 
Q 13.140625 0.921875 6.890625 3.21875 
L 6.890625 13.375 
Q 12.890625 10.015625 18.65625 8.296875 
Q 24.421875 6.59375 29.984375 6.59375 
Q 38.421875 6.59375 43.015625 9.90625 
Q 47.609375 13.234375 47.609375 19.390625 
Q 47.609375 24.75 44.3125 27.78125 
Q 41.015625 30.8125 33.5 32.328125 
L 27.484375 33.5 
Q 16.453125 35.6875 11.515625 40.375 
Q 6.59375 45.0625 6.59375 53.421875 
Q 6.59375 63.09375 13.40625 68.65625 
Q 20.21875 74.21875 32.171875 74.21875 
Q 37.3125 74.21875 42.625 73.28125 
Q 47.953125 72.359375 53.515625 70.515625 
z
" id="DejaVuSans-53"/>
      <path d="M 9.8125 72.90625 
L 23.09375 72.90625 
L 55.421875 11.921875 
L 55.421875 72.90625 
L 64.984375 72.90625 
L 64.984375 0 
L 51.703125 0 
L 19.390625 60.984375 
L 19.390625 0 
L 9.8125 0 
z
" id="DejaVuSans-4e"/>
      <path d="M 44.390625 34.1875 
Q 47.5625 33.109375 50.5625 29.59375 
Q 53.5625 26.078125 56.59375 19.921875 
L 66.609375 0 
L 56 0 
L 46.6875 18.703125 
Q 43.0625 26.03125 39.671875 28.421875 
Q 36.28125 30.8125 30.421875 30.8125 
L 19.671875 30.8125 
L 19.671875 0 
L 9.8125 0 
L 9.8125 72.90625 
L 32.078125 72.90625 
Q 44.578125 72.90625 50.734375 67.671875 
Q 56.890625 62.453125 56.890625 51.90625 
Q 56.890625 45.015625 53.6875 40.46875 
Q 50.484375 35.9375 44.390625 34.1875 
z
M 19.671875 64.796875 
L 19.671875 38.921875 
L 32.078125 38.921875 
Q 39.203125 38.921875 42.84375 42.21875 
Q 46.484375 45.515625 46.484375 51.90625 
Q 46.484375 58.296875 42.84375 61.546875 
Q 39.203125 64.796875 32.078125 64.796875 
z
" id="DejaVuSans-52"/>
     </defs>
     <g transform="translate(21.533437 175.445469)rotate(-90)scale(0.14 -0.14)">
      <use xlink:href="#DejaVuSans-50"/>
      <use x="60.302734" xlink:href="#DejaVuSans-53"/>
      <use x="123.779297" xlink:href="#DejaVuSans-4e"/>
      <use x="198.583984" xlink:href="#DejaVuSans-52"/>
     </g>
    </g>
   </g>
   <g id="line2d_18">
    <path clip-path="url(#p4aca11f086)" d="M 66.233416 285.818591 
L 67.11924 268.027536 
L 67.709789 252.006723 
L 67.857425 251.327903 
L 68.447973 246.915408 
L 70.071985 239.191135 
L 70.367262 237.23401 
L 71.253092 233.225819 
L 71.695997 229.365342 
L 72.434178 223.698441 
L 73.320009 221.837246 
L 73.615286 221.063491 
L 73.910563 220.311644 
L 74.501095 218.694427 
L 74.796372 218.051457 
L 75.534553 215.419494 
L 75.682202 215.241906 
L 75.977479 214.423671 
L 76.272756 213.960281 
L 77.306214 213.030181 
L 77.453842 212.759981 
L 77.601491 212.758653 
L 78.044396 212.19037 
L 78.782577 211.605821 
L 79.077854 211.241018 
L 79.225503 210.791237 
L 79.373131 210.791237 
L 80.258962 209.949434 
L 80.554238 209.841222 
L 80.701866 209.521894 
L 80.849494 209.491024 
L 81.440048 208.918425 
L 81.735325 208.804569 
L 83.506964 206.791345 
L 83.654613 206.473346 
L 83.802241 206.425878 
L 84.097518 205.889793 
L 84.245167 205.843985 
L 84.688072 205.03438 
L 85.426253 204.48203 
L 86.164435 203.138332 
L 86.312084 203.083562 
L 86.607361 202.407397 
L 87.050265 201.788991 
L 87.345542 200.942208 
L 87.493085 200.942208 
L 88.083681 199.839168 
L 88.231436 199.737262 
L 88.526734 199.175949 
L 88.82182 198.857949 
L 89.117118 198.192407 
L 89.264873 197.968679 
L 89.412416 197.968679 
L 89.560172 197.743955 
L 89.707714 197.734328 
L 89.85547 197.381143 
L 90.003012 197.403383 
L 91.47929 195.263026 
L 91.627046 195.261698 
L 91.774588 194.930752 
L 91.922344 194.944694 
L 92.069886 194.61906 
L 92.217642 194.631341 
L 92.365185 194.256248 
L 92.51294 194.256248 
L 92.808025 193.848956 
L 92.955781 193.679666 
L 93.103324 193.302249 
L 93.251079 193.302249 
L 93.398622 193.075865 
L 93.546377 193.083499 
L 93.69392 192.67322 
L 93.841675 192.67322 
L 93.989218 192.43555 
L 94.284516 192.323354 
L 94.579814 191.760713 
L 94.727357 191.760713 
L 94.875112 191.551258 
L 95.022655 191.551258 
L 95.17041 191.407196 
L 95.317953 191.436739 
L 96.35139 189.424843 
L 96.499145 189.255553 
L 97.384827 187.373778 
L 97.532583 187.377761 
L 97.827881 186.870887 
L 97.975423 186.777279 
L 99.746999 182.289766 
L 100.190053 182.04944 
L 100.337596 181.699242 
L 100.632894 181.618912 
L 101.075735 181.298921 
L 101.666331 181.233529 
L 102.40447 181.027061 
L 102.552225 181.027061 
L 102.699768 180.911877 
L 102.995066 180.880343 
L 105.504994 180.141774 
L 105.800292 179.990409 
L 106.243133 179.723196 
L 106.538431 179.496148 
L 107.129027 179.275739 
L 107.27657 179.230263 
L 107.71941 178.729364 
L 107.867166 178.757247 
L 108.014709 178.574679 
L 108.162464 178.574679 
L 108.605305 178.08573 
L 108.900603 177.848392 
L 109.638742 177.351476 
L 109.786497 177.168908 
L 110.081583 177.064678 
L 110.376881 176.902027 
L 110.819934 176.816386 
L 111.558073 176.742031 
L 111.853371 176.520295 
L 112.000914 176.523282 
L 112.443968 176.27333 
L 113.034351 175.977239 
L 113.477405 175.892926 
L 113.772703 175.755502 
L 114.067788 175.49692 
L 114.215544 175.500571 
L 114.658384 175.099254 
L 114.80614 175.053778 
L 115.101438 174.685987 
L 115.396523 174.639847 
L 115.691821 174.502756 
L 115.98712 174.233883 
L 116.282418 173.94775 
L 116.577716 173.875055 
L 116.873014 173.745598 
L 117.906451 173.487347 
L 118.497047 173.371168 
L 118.792345 173.231421 
L 119.235186 173.201214 
L 119.973325 173.070761 
L 120.416379 172.968191 
L 127.945736 171.498355 
L 128.38879 171.168738 
L 129.274471 171.089072 
L 130.455664 170.840116 
L 132.079697 170.72958 
L 134.146571 170.180217 
L 134.441869 170.083622 
L 134.88471 169.971426 
L 135.327551 169.838649 
L 135.918147 169.748361 
L 137.689936 169.465879 
L 137.837478 169.463888 
L 138.132777 169.298913 
L 138.575617 169.293602 
L 138.870916 169.194351 
L 145.071751 167.783269 
L 145.367049 167.684019 
L 145.957432 167.533317 
L 146.548028 167.351745 
L 148.319817 166.908272 
L 148.614903 166.780806 
L 148.762658 166.782798 
L 149.057956 166.657988 
L 151.12483 166.349283 
L 151.567671 166.321068 
L 151.862969 166.223145 
L 152.010724 166.230448 
L 152.306023 166.064809 
L 152.453565 166.074103 
L 152.896406 165.703325 
L 153.33946 165.609054 
L 156.735069 165.034131 
L 157.030367 164.924923 
L 157.473208 164.861522 
L 158.506645 164.614226 
L 158.801943 164.52095 
L 159.097241 164.528585 
L 159.392539 164.395808 
L 159.983136 164.128928 
L 160.573519 163.949347 
L 161.016573 163.860055 
L 161.311871 163.782381 
L 161.607169 163.618402 
L 162.05001 163.556661 
L 162.345308 163.352849 
L 162.640606 163.218745 
L 163.083447 163.140075 
L 163.674043 163.031862 
L 165.593374 162.596355 
L 166.036215 162.31686 
L 170.317719 161.370164 
L 170.76056 161.237387 
L 171.055858 161.188924 
L 171.941752 160.854991 
L 172.384593 160.802544 
L 172.975189 160.400895 
L 173.122732 160.402555 
L 173.713328 159.972359 
L 175.927958 159.048567 
L 176.223256 158.972552 
L 177.404235 158.556298 
L 177.699534 158.483935 
L 177.994832 158.294396 
L 178.585428 158.099879 
L 178.880726 157.949841 
L 179.323567 157.933908 
L 179.618865 157.849927 
L 180.9476 157.455913 
L 181.242898 157.307867 
L 181.390441 157.307867 
L 181.685739 157.134594 
L 181.981037 157.030032 
L 182.423878 156.897587 
L 182.719176 156.790702 
L 183.162017 156.675519 
L 183.752613 156.58855 
L 184.638508 156.425899 
L 185.081348 156.414613 
L 186.114785 156.246319 
L 186.557839 156.209805 
L 187.295978 155.830396 
L 188.034117 155.75571 
L 188.329415 155.693305 
L 188.772256 155.65148 
L 189.067554 155.558536 
L 189.362852 155.356052 
L 189.805693 155.184439 
L 190.396289 155.092491 
L 192.906217 154.603873 
L 193.201515 154.554414 
L 193.496813 154.485038 
L 193.791898 154.36056 
L 194.53025 154.250356 
L 195.415932 154.041565 
L 195.71123 154.007707 
L 196.154283 153.662488 
L 196.449369 153.575851 
L 196.892422 153.449714 
L 197.483018 153.372371 
L 197.778104 153.168891 
L 198.221157 153.095532 
L 200.878628 152.327088 
L 201.173926 152.160786 
L 201.469224 152.05722 
L 201.764309 151.815235 
L 202.059607 151.782373 
L 202.354906 151.680135 
L 202.945502 151.462713 
L 203.536098 151.021231 
L 204.126694 150.927624 
L 204.569535 150.659416 
L 204.717078 150.649457 
L 205.455429 150.110385 
L 205.89827 150.088145 
L 206.488866 149.678529 
L 206.784165 149.510567 
L 207.522304 148.951246 
L 208.407985 148.706605 
L 209.29388 147.935174 
L 209.441635 147.935174 
L 209.884476 147.679579 
L 210.032019 147.687214 
L 211.065456 146.67778 
L 211.360754 146.582845 
L 211.95135 146.085929 
L 212.099105 146.112816 
L 212.837244 145.421383 
L 213.280085 145.398479 
L 215.937555 143.491808 
L 216.232854 143.412806 
L 217.709131 141.844384 
L 218.595026 141.779323 
L 219.48092 141.228965 
L 220.071516 141.133033 
L 220.366602 140.871796 
L 220.6619 140.76989 
L 221.400251 140.013396 
L 221.695337 139.957298 
L 222.285933 139.39167 
L 222.876529 139.315987 
L 223.171827 139.05143 
L 223.31937 139.05143 
L 224.352807 138.326802 
L 224.648105 138.255435 
L 224.795861 138.06988 
L 225.091159 138.06656 
L 225.976841 137.13978 
L 226.124596 137.123847 
L 226.567437 136.599048 
L 226.862735 136.612989 
L 228.634311 134.338196 
L 228.782066 134.338196 
L 229.077364 134.038785 
L 229.815503 133.1847 
L 230.110801 133.12661 
L 231.144238 132.036847 
L 234.392305 128.756936 
L 236.90202 125.923817 
L 239.264192 122.967548 
L 240.592927 121.190003 
L 240.888226 121.196974 
L 243.398153 117.915403 
L 247.531901 112.624259 
L 251.075266 109.275636 
L 253.584981 106.606828 
L 255.947366 103.773045 
L 261.557392 96.682448 
L 261.705147 96.682448 
L 262.147988 96.156653 
L 262.738584 95.517335 
L 263.033883 95.539907 
L 263.329181 95.194024 
L 263.772022 95.122988 
L 265.100757 93.967833 
L 268.496366 91.131727 
L 268.644121 91.145336 
L 272.630327 87.247682 
L 272.77787 87.261624 
L 274.106605 85.803074 
L 274.401903 85.824318 
L 275.730638 84.419211 
L 276.025936 84.370747 
L 276.321234 84.287098 
L 276.468777 84.310998 
L 277.059373 83.780888 
L 277.354671 83.701886 
L 277.649969 83.62222 
L 277.797512 83.649107 
L 278.09281 83.518654 
L 278.683406 83.515999 
L 279.42112 82.854772 
L 279.716631 82.841826 
L 280.012142 82.728966 
L 280.307652 82.649632 
L 280.898674 82.200847 
L 281.194184 82.178939 
L 281.636388 81.842683 
L 281.931898 81.822102 
L 282.965123 81.211662 
L 283.407326 81.175813 
L 283.998347 80.675909 
L 285.327082 79.425818 
L 285.918104 79.243915 
L 286.655818 78.631483 
L 286.951328 78.630487 
L 287.393531 78.296886 
L 288.131245 78.215893 
L 288.426756 78.132575 
L 289.45998 78.044611 
L 290.19982 77.996147 
L 290.346512 78.036312 
L 290.642023 77.868018 
L 291.528555 77.771755 
L 291.970758 77.713333 
L 293.003983 77.65624 
L 294.332718 77.551014 
L 294.774921 77.49724 
L 295.514761 77.409275 
L 295.810271 77.363467 
L 296.990188 76.848627 
L 297.432391 76.744729 
L 299.796477 76.030391 
L 300.680883 75.948734 
L 301.125212 75.751229 
L 301.862926 75.701769 
L 303.191661 74.90511 
L 303.487172 74.87424 
L 304.076067 74.585119 
L 304.371578 74.514748 
L 304.667088 74.382635 
L 305.111418 74.308944 
L 306.144642 73.662986 
L 306.440153 73.657011 
L 307.177866 73.189306 
L 308.062273 73.085077 
L 308.653294 72.691062 
L 309.097623 72.589488 
L 309.539826 72.305679 
L 309.982029 72.256551 
L 310.719743 71.762623 
L 311.164072 71.657729 
L 312.197296 70.968619 
L 312.492807 70.808623 
L 312.93501 70.564979 
L 313.230521 70.518175 
L 313.526032 70.393697 
L 313.821542 70.371789 
L 315.001459 69.455631 
L 315.445788 69.346754 
L 315.887991 69.028091 
L 316.183502 69.026431 
L 317.070034 68.461135 
L 317.363419 68.409684 
L 317.658929 68.348275 
L 317.95444 68.244045 
L 318.545462 67.818829 
L 319.283175 67.748125 
L 319.578686 67.558255 
L 319.874197 67.393944 
L 320.3164 67.284403 
L 320.907421 66.964412 
L 321.202932 66.864829 
L 321.940646 66.287584 
L 322.678359 66.270987 
L 323.269381 65.973567 
L 323.418199 65.999791 
L 324.155913 65.445781 
L 324.893627 65.403624 
L 325.33583 65.133424 
L 325.780159 65.032182 
L 326.222362 64.771608 
L 326.960076 64.747708 
L 327.404405 64.479168 
L 328.142118 64.392199 
L 328.584322 64.251788 
L 329.175343 64.178429 
L 330.208567 63.729312 
L 330.799589 63.242023 
L 331.241792 63.137129 
L 331.686121 62.790914 
L 333.014856 62.722535 
L 333.308241 62.646852 
L 333.603752 62.586771 
L 333.899262 62.479222 
L 334.636976 62.385946 
L 335.376816 62.293003 
L 335.672326 62.265451 
L 335.965711 62.032761 
L 336.852243 62.005873 
L 337.147754 61.909278 
L 338.329797 61.821646 
L 339.509714 61.672604 
L 340.838449 61.59493 
L 341.133959 61.429291 
L 341.576163 61.344646 
L 344.677962 60.835117 
L 345.266857 60.727568 
L 346.006697 60.530726 
L 346.302208 60.423841 
L 347.186614 60.314633 
L 347.924328 59.866512 
L 348.368657 59.830662 
L 348.81086 59.590337 
L 349.253063 59.535235 
L 349.548574 59.41308 
L 349.992903 59.339389 
L 350.288413 59.241135 
L 350.730616 59.149519 
L 351.46833 58.969939 
L 352.354862 58.420244 
L 352.797065 58.374436 
L 353.092576 58.249626 
L 353.534779 58.186557 
L 354.863514 57.34575 
L 355.307843 57.262101 
L 356.341068 56.635728 
L 356.783271 56.534486 
L 357.669803 55.974501 
L 358.112006 55.904793 
L 358.703027 55.520405 
L 359.14523 55.438084 
L 361.951519 53.254242 
L 362.393722 52.982714 
L 362.835925 52.893422 
L 364.017968 51.979588 
L 364.460171 51.927473 
L 365.788906 50.899451 
L 366.084417 50.888497 
L 366.379928 50.65647 
L 366.822131 50.630579 
L 367.26646 50.305608 
L 367.708663 50.251502 
L 368.446377 49.696164 
L 368.741887 49.702471 
L 369.332909 49.284889 
L 369.775112 49.19792 
L 370.957155 48.842411 
L 371.103847 48.856353 
L 371.841561 48.274792 
L 372.28589 48.243921 
L 372.5814 48.067328 
L 373.465807 48.069652 
L 373.910136 47.773228 
L 374.352339 47.704516 
L 374.794542 47.362617 
L 375.238871 47.318469 
L 375.827766 46.850764 
L 376.714298 46.780392 
L 377.009809 46.579899 
L 377.60083 46.212772 
L 378.043034 46.129123 
L 378.338544 46.04481 
L 378.634055 46.043814 
L 380.109482 44.953055 
L 382.178057 44.173657 
L 384.540017 42.659009 
L 384.98222 42.620172 
L 388.081893 40.601306 
L 388.968426 40.369611 
L 389.559447 40.073851 
L 392.807939 38.640529 
L 393.101323 38.561527 
L 394.874388 37.69682 
L 405.208758 32.710398 
L 410.670391 30.83659 
L 420.267048 27.653605 
L 422.482316 27.123495 
L 426.910724 26.429406 
L 427.501746 26.352727 
L 427.501746 26.352727 
" style="fill:none;stroke:#1f77b4;stroke-linecap:square;stroke-width:1.5;"/>
   </g>
   <g id="line2d_19">
    <path clip-path="url(#p4aca11f086)" d="M 66.233416 287.007273 
L 66.381054 286.69558 
L 66.52869 285.820251 
L 66.823965 282.145661 
L 67.414514 282.145661 
L 67.857425 269.135556 
L 68.300345 269.165762 
L 68.447973 268.281471 
L 68.890877 257.860839 
L 71.843625 257.767564 
L 72.138901 257.25903 
L 72.286551 256.885264 
L 72.434178 255.603639 
L 72.729455 249.427208 
L 86.312084 249.427208 
L 86.607361 248.278691 
L 86.902637 246.36339 
L 87.345542 239.69801 
L 91.47929 239.623655 
L 91.774588 239.557266 
L 102.256927 239.557266 
L 102.552225 237.07501 
L 102.995066 231.458232 
L 108.162464 231.458232 
L 108.310007 231.185708 
L 108.605305 229.159207 
L 110.967477 229.049334 
L 112.000914 228.909587 
L 112.443968 228.906931 
L 113.034351 227.814845 
L 123.51669 227.814845 
L 123.811988 225.905187 
L 124.254829 221.660986 
L 129.422227 221.660986 
L 129.569769 221.520243 
L 129.865067 220.333885 
L 131.341345 220.270152 
L 131.784399 219.992317 
L 133.851273 217.717192 
L 134.294114 215.638244 
L 144.776452 215.641563 
L 145.071751 214.293882 
L 145.514591 212.053278 
L 150.829532 211.996184 
L 151.12483 211.464414 
L 152.453565 211.464414 
L 153.782301 209.397416 
L 154.815738 207.155153 
L 155.111036 206.222066 
L 155.553877 203.661471 
L 166.036215 203.661803 
L 166.922109 201.691732 
L 172.089295 201.654222 
L 172.384593 201.392321 
L 173.713328 201.399292 
L 174.599222 199.43951 
L 175.632659 196.083916 
L 176.223256 193.805472 
L 176.813639 190.860489 
L 179.323567 190.779827 
L 181.390441 190.703812 
L 183.309772 190.720741 
L 183.60507 190.658005 
L 187.148223 190.577011 
L 187.591276 189.729233 
L 188.034117 188.859547 
L 193.496813 188.762288 
L 193.791898 188.656067 
L 194.973091 188.587355 
L 196.006528 186.394883 
L 197.18772 183.130241 
L 198.073402 180.57031 
L 199.697435 180.529481 
L 200.288031 180.505581 
L 201.912065 180.324009 
L 204.274237 179.976135 
L 204.569535 179.924352 
L 204.864833 179.803526 
L 205.455429 179.78029 
L 206.045813 179.696972 
L 206.488866 179.624609 
L 207.227005 179.566188 
L 208.407985 179.470589 
L 209.441635 178.519577 
L 215.051661 178.411364 
L 216.085311 178.231452 
L 216.380396 178.01735 
L 217.266291 176.923271 
L 219.333165 174.075215 
L 220.071516 173.869412 
L 220.809655 173.644688 
L 221.843092 173.139805 
L 223.024072 172.70463 
L 223.614668 172.32157 
L 225.681542 171.156788 
L 226.272139 170.575891 
L 227.158033 170.108517 
L 228.339013 169.324804 
L 228.782066 168.958341 
L 229.963046 167.919365 
L 230.701398 167.59705 
L 236.311424 167.493816 
L 237.345073 167.036069 
L 239.264192 165.713947 
L 240.888226 164.546842 
L 242.069418 163.809268 
L 243.250398 162.865891 
L 244.874431 161.407673 
L 246.055623 160.109119 
L 246.941305 158.99778 
L 247.531901 158.029507 
L 248.27004 157.032024 
L 250.041829 154.404045 
L 251.222809 152.172072 
L 252.108703 151.960625 
L 257.423644 151.934402 
L 259.342975 150.365316 
L 261.705147 149.031244 
L 264.657916 146.420526 
L 266.281949 144.619081 
L 268.939419 140.968059 
L 269.825101 139.567267 
L 270.563453 138.330453 
L 271.449134 136.592741 
L 272.482572 134.414211 
L 273.368466 134.206415 
L 278.683406 134.158284 
L 279.274428 133.381541 
L 280.012142 132.219083 
L 283.111815 130.656304 
L 284.736061 129.213355 
L 287.689042 126.027715 
L 289.904309 122.855684 
L 291.970758 119.328476 
L 293.152801 116.790454 
L 293.741696 115.533392 
L 294.628229 115.370077 
L 299.943169 115.36543 
L 301.125212 113.192874 
L 301.418597 112.80915 
L 304.371578 111.316078 
L 306.291334 109.593635 
L 309.686518 105.908424 
L 313.377213 100.448654 
L 315.001459 97.311477 
L 316.034684 97.11198 
L 319.283175 97.039949 
L 320.907421 96.843108 
L 321.202932 96.777384 
L 322.827178 94.365166 
L 325.926851 92.963047 
L 328.437629 90.789827 
L 331.241792 87.887665 
L 332.570527 86.249203 
L 334.048081 84.122455 
L 336.41004 80.591596 
L 338.329797 80.103311 
L 338.918692 79.917755 
L 339.363021 79.807883 
L 342.167184 78.706834 
L 343.79143 76.531955 
L 346.4489 75.489991 
L 349.697392 73.270964 
L 352.206044 71.272013 
L 354.421311 69.283353 
L 356.045557 67.564894 
L 357.225474 66.300861 
L 357.965314 66.044271 
L 358.407517 65.734238 
L 358.998538 65.313004 
L 361.656008 63.012651 
L 364.16466 60.043437 
L 364.460171 59.729088 
L 367.561971 58.927782 
L 372.28589 55.856994 
L 374.499031 54.175379 
L 379.813972 49.4014 
L 382.029239 46.823876 
L 383.800177 44.523855 
L 384.835528 43.609689 
L 390.592671 41.776378 
L 396.940837 39.331298 
L 398.711775 38.368337 
L 401.369245 35.936203 
L 404.026716 33.229222 
L 406.241983 32.469077 
L 413.772191 30.140841 
L 417.905089 28.666026 
L 421.300273 27.381081 
L 423.662232 26.953209 
L 427.501746 26.352727 
L 427.501746 26.352727 
" style="fill:none;stroke:#ff7f0e;stroke-linecap:square;stroke-width:1.5;"/>
   </g>
   <g id="patch_3">
    <path d="M 48.17 300.04 
L 48.17 13.32 
" style="fill:none;stroke:#000000;stroke-linecap:square;stroke-linejoin:miter;stroke-width:0.8;"/>
   </g>
   <g id="patch_4">
    <path d="M 48.17 300.04 
L 445.565162 300.04 
" style="fill:none;stroke:#000000;stroke-linecap:square;stroke-linejoin:miter;stroke-width:0.8;"/>
   </g>
   <g id="legend_1">
    <g id="patch_5">
     <path d="M 299.093287 295.04 
L 438.565162 295.04 
Q 440.565162 295.04 440.565162 293.04 
L 440.565162 264.68375 
Q 440.565162 262.68375 438.565162 262.68375 
L 299.093287 262.68375 
Q 297.093287 262.68375 297.093287 264.68375 
L 297.093287 293.04 
Q 297.093287 295.04 299.093287 295.04 
z
" style="fill:#ffffff;opacity:0.8;stroke:#cccccc;stroke-linejoin:miter;"/>
    </g>
    <g id="line2d_20">
     <path d="M 301.093287 270.782187 
L 321.093287 270.782187 
" style="fill:none;stroke:#1f77b4;stroke-linecap:square;stroke-width:1.5;"/>
    </g>
    <g id="line2d_21"/>
    <g id="text_20">
     <!-- fine-to-coarse greedy -->
     <defs>
      <path d="M 37.109375 75.984375 
L 37.109375 68.5 
L 28.515625 68.5 
Q 23.6875 68.5 21.796875 66.546875 
Q 19.921875 64.59375 19.921875 59.515625 
L 19.921875 54.6875 
L 34.71875 54.6875 
L 34.71875 47.703125 
L 19.921875 47.703125 
L 19.921875 0 
L 10.890625 0 
L 10.890625 47.703125 
L 2.296875 47.703125 
L 2.296875 54.6875 
L 10.890625 54.6875 
L 10.890625 58.5 
Q 10.890625 67.625 15.140625 71.796875 
Q 19.390625 75.984375 28.609375 75.984375 
z
" id="DejaVuSans-66"/>
      <path d="M 54.890625 33.015625 
L 54.890625 0 
L 45.90625 0 
L 45.90625 32.71875 
Q 45.90625 40.484375 42.875 44.328125 
Q 39.84375 48.1875 33.796875 48.1875 
Q 26.515625 48.1875 22.3125 43.546875 
Q 18.109375 38.921875 18.109375 30.90625 
L 18.109375 0 
L 9.078125 0 
L 9.078125 54.6875 
L 18.109375 54.6875 
L 18.109375 46.1875 
Q 21.34375 51.125 25.703125 53.5625 
Q 30.078125 56 35.796875 56 
Q 45.21875 56 50.046875 50.171875 
Q 54.890625 44.34375 54.890625 33.015625 
z
" id="DejaVuSans-6e"/>
      <path d="M 4.890625 31.390625 
L 31.203125 31.390625 
L 31.203125 23.390625 
L 4.890625 23.390625 
z
" id="DejaVuSans-2d"/>
      <path d="M 30.609375 48.390625 
Q 23.390625 48.390625 19.1875 42.75 
Q 14.984375 37.109375 14.984375 27.296875 
Q 14.984375 17.484375 19.15625 11.84375 
Q 23.34375 6.203125 30.609375 6.203125 
Q 37.796875 6.203125 41.984375 11.859375 
Q 46.1875 17.53125 46.1875 27.296875 
Q 46.1875 37.015625 41.984375 42.703125 
Q 37.796875 48.390625 30.609375 48.390625 
z
M 30.609375 56 
Q 42.328125 56 49.015625 48.375 
Q 55.71875 40.765625 55.71875 27.296875 
Q 55.71875 13.875 49.015625 6.21875 
Q 42.328125 -1.421875 30.609375 -1.421875 
Q 18.84375 -1.421875 12.171875 6.21875 
Q 5.515625 13.875 5.515625 27.296875 
Q 5.515625 40.765625 12.171875 48.375 
Q 18.84375 56 30.609375 56 
z
" id="DejaVuSans-6f"/>
      <path d="M 48.78125 52.59375 
L 48.78125 44.1875 
Q 44.96875 46.296875 41.140625 47.34375 
Q 37.3125 48.390625 33.40625 48.390625 
Q 24.65625 48.390625 19.8125 42.84375 
Q 14.984375 37.3125 14.984375 27.296875 
Q 14.984375 17.28125 19.8125 11.734375 
Q 24.65625 6.203125 33.40625 6.203125 
Q 37.3125 6.203125 41.140625 7.25 
Q 44.96875 8.296875 48.78125 10.40625 
L 48.78125 2.09375 
Q 45.015625 0.34375 40.984375 -0.53125 
Q 36.96875 -1.421875 32.421875 -1.421875 
Q 20.0625 -1.421875 12.78125 6.34375 
Q 5.515625 14.109375 5.515625 27.296875 
Q 5.515625 40.671875 12.859375 48.328125 
Q 20.21875 56 33.015625 56 
Q 37.15625 56 41.109375 55.140625 
Q 45.0625 54.296875 48.78125 52.59375 
z
" id="DejaVuSans-63"/>
      <path d="M 45.40625 27.984375 
Q 45.40625 37.75 41.375 43.109375 
Q 37.359375 48.484375 30.078125 48.484375 
Q 22.859375 48.484375 18.828125 43.109375 
Q 14.796875 37.75 14.796875 27.984375 
Q 14.796875 18.265625 18.828125 12.890625 
Q 22.859375 7.515625 30.078125 7.515625 
Q 37.359375 7.515625 41.375 12.890625 
Q 45.40625 18.265625 45.40625 27.984375 
z
M 54.390625 6.78125 
Q 54.390625 -7.171875 48.1875 -13.984375 
Q 42 -20.796875 29.203125 -20.796875 
Q 24.46875 -20.796875 20.265625 -20.09375 
Q 16.0625 -19.390625 12.109375 -17.921875 
L 12.109375 -9.1875 
Q 16.0625 -11.328125 19.921875 -12.34375 
Q 23.78125 -13.375 27.78125 -13.375 
Q 36.625 -13.375 41.015625 -8.765625 
Q 45.40625 -4.15625 45.40625 5.171875 
L 45.40625 9.625 
Q 42.625 4.78125 38.28125 2.390625 
Q 33.9375 0 27.875 0 
Q 17.828125 0 11.671875 7.65625 
Q 5.515625 15.328125 5.515625 27.984375 
Q 5.515625 40.671875 11.671875 48.328125 
Q 17.828125 56 27.875 56 
Q 33.9375 56 38.28125 53.609375 
Q 42.625 51.21875 45.40625 46.390625 
L 45.40625 54.6875 
L 54.390625 54.6875 
z
" id="DejaVuSans-67"/>
      <path d="M 45.40625 46.390625 
L 45.40625 75.984375 
L 54.390625 75.984375 
L 54.390625 0 
L 45.40625 0 
L 45.40625 8.203125 
Q 42.578125 3.328125 38.25 0.953125 
Q 33.9375 -1.421875 27.875 -1.421875 
Q 17.96875 -1.421875 11.734375 6.484375 
Q 5.515625 14.40625 5.515625 27.296875 
Q 5.515625 40.1875 11.734375 48.09375 
Q 17.96875 56 27.875 56 
Q 33.9375 56 38.25 53.625 
Q 42.578125 51.265625 45.40625 46.390625 
z
M 14.796875 27.296875 
Q 14.796875 17.390625 18.875 11.75 
Q 22.953125 6.109375 30.078125 6.109375 
Q 37.203125 6.109375 41.296875 11.75 
Q 45.40625 17.390625 45.40625 27.296875 
Q 45.40625 37.203125 41.296875 42.84375 
Q 37.203125 48.484375 30.078125 48.484375 
Q 22.953125 48.484375 18.875 42.84375 
Q 14.796875 37.203125 14.796875 27.296875 
z
" id="DejaVuSans-64"/>
      <path d="M 32.171875 -5.078125 
Q 28.375 -14.84375 24.75 -17.8125 
Q 21.140625 -20.796875 15.09375 -20.796875 
L 7.90625 -20.796875 
L 7.90625 -13.28125 
L 13.1875 -13.28125 
Q 16.890625 -13.28125 18.9375 -11.515625 
Q 21 -9.765625 23.484375 -3.21875 
L 25.09375 0.875 
L 2.984375 54.6875 
L 12.5 54.6875 
L 29.59375 11.921875 
L 46.6875 54.6875 
L 56.203125 54.6875 
z
" id="DejaVuSans-79"/>
     </defs>
     <g transform="translate(329.093287 274.282187)scale(0.1 -0.1)">
      <use xlink:href="#DejaVuSans-66"/>
      <use x="35.205078" xlink:href="#DejaVuSans-69"/>
      <use x="62.988281" xlink:href="#DejaVuSans-6e"/>
      <use x="126.367188" xlink:href="#DejaVuSans-65"/>
      <use x="187.890625" xlink:href="#DejaVuSans-2d"/>
      <use x="223.974609" xlink:href="#DejaVuSans-74"/>
      <use x="263.183594" xlink:href="#DejaVuSans-6f"/>
      <use x="324.380859" xlink:href="#DejaVuSans-2d"/>
      <use x="360.464844" xlink:href="#DejaVuSans-63"/>
      <use x="415.445312" xlink:href="#DejaVuSans-6f"/>
      <use x="476.626953" xlink:href="#DejaVuSans-61"/>
      <use x="537.90625" xlink:href="#DejaVuSans-72"/>
      <use x="579.019531" xlink:href="#DejaVuSans-73"/>
      <use x="631.119141" xlink:href="#DejaVuSans-65"/>
      <use x="692.642578" xlink:href="#DejaVuSans-20"/>
      <use x="724.429688" xlink:href="#DejaVuSans-67"/>
      <use x="787.90625" xlink:href="#DejaVuSans-72"/>
      <use x="828.988281" xlink:href="#DejaVuSans-65"/>
      <use x="890.511719" xlink:href="#DejaVuSans-65"/>
      <use x="952.035156" xlink:href="#DejaVuSans-64"/>
      <use x="1015.511719" xlink:href="#DejaVuSans-79"/>
     </g>
    </g>
    <g id="line2d_22">
     <path d="M 301.093287 285.460312 
L 321.093287 285.460312 
" style="fill:none;stroke:#ff7f0e;stroke-linecap:square;stroke-width:1.5;"/>
    </g>
    <g id="line2d_23"/>
    <g id="text_21">
     <!-- by wavelet norm -->
     <defs>
      <path d="M 48.6875 27.296875 
Q 48.6875 37.203125 44.609375 42.84375 
Q 40.53125 48.484375 33.40625 48.484375 
Q 26.265625 48.484375 22.1875 42.84375 
Q 18.109375 37.203125 18.109375 27.296875 
Q 18.109375 17.390625 22.1875 11.75 
Q 26.265625 6.109375 33.40625 6.109375 
Q 40.53125 6.109375 44.609375 11.75 
Q 48.6875 17.390625 48.6875 27.296875 
z
M 18.109375 46.390625 
Q 20.953125 51.265625 25.265625 53.625 
Q 29.59375 56 35.59375 56 
Q 45.5625 56 51.78125 48.09375 
Q 58.015625 40.1875 58.015625 27.296875 
Q 58.015625 14.40625 51.78125 6.484375 
Q 45.5625 -1.421875 35.59375 -1.421875 
Q 29.59375 -1.421875 25.265625 0.953125 
Q 20.953125 3.328125 18.109375 8.203125 
L 18.109375 0 
L 9.078125 0 
L 9.078125 75.984375 
L 18.109375 75.984375 
z
" id="DejaVuSans-62"/>
      <path d="M 4.203125 54.6875 
L 13.1875 54.6875 
L 24.421875 12.015625 
L 35.59375 54.6875 
L 46.1875 54.6875 
L 57.421875 12.015625 
L 68.609375 54.6875 
L 77.59375 54.6875 
L 63.28125 0 
L 52.6875 0 
L 40.921875 44.828125 
L 29.109375 0 
L 18.5 0 
z
" id="DejaVuSans-77"/>
      <path d="M 2.984375 54.6875 
L 12.5 54.6875 
L 29.59375 8.796875 
L 46.6875 54.6875 
L 56.203125 54.6875 
L 35.6875 0 
L 23.484375 0 
z
" id="DejaVuSans-76"/>
     </defs>
     <g transform="translate(329.093287 288.960312)scale(0.1 -0.1)">
      <use xlink:href="#DejaVuSans-62"/>
      <use x="63.476562" xlink:href="#DejaVuSans-79"/>
      <use x="122.65625" xlink:href="#DejaVuSans-20"/>
      <use x="154.443359" xlink:href="#DejaVuSans-77"/>
      <use x="236.230469" xlink:href="#DejaVuSans-61"/>
      <use x="297.509766" xlink:href="#DejaVuSans-76"/>
      <use x="356.689453" xlink:href="#DejaVuSans-65"/>
      <use x="418.212891" xlink:href="#DejaVuSans-6c"/>
      <use x="445.996094" xlink:href="#DejaVuSans-65"/>
      <use x="507.519531" xlink:href="#DejaVuSans-74"/>
      <use x="546.728516" xlink:href="#DejaVuSans-20"/>
      <use x="578.515625" xlink:href="#DejaVuSans-6e"/>
      <use x="641.894531" xlink:href="#DejaVuSans-6f"/>
      <use x="703.076172" xlink:href="#DejaVuSans-72"/>
      <use x="744.173828" xlink:href="#DejaVuSans-6d"/>
     </g>
    </g>
   </g>
  </g>
 </g>
 <defs>
  <clipPath id="p4aca11f086">
   <rect height="286.72" width="397.395162" x="48.17" y="13.32"/>
  </clipPath>
 </defs>
</svg>
