<?xml version="1.0" encoding="utf-8" standalone="no"?>
<!DOCTYPE svg PUBLIC "-//W3C//DTD SVG 1.1//EN"
  "http://www.w3.org/Graphics/SVG/1.1/DTD/svg11.dtd">
<!-- Created with matplotlib (http://matplotlib.org/) -->
<svg height="345pt" version="1.1" viewBox="0 0 460 345" width="460pt" xmlns="http://www.w3.org/2000/svg" xmlns:xlink="http://www.w3.org/1999/xlink">
 <defs>
  <style type="text/css">
*{stroke-linecap:butt;stroke-linejoin:round;}
  </style>
 </defs>
 <g id="figure_1">
  <g id="patch_1">
   <path d="M 0 345.6 
L 460.8 345.6 
L 460.8 0 
L 0 0 
z
" style="fill:#ffffff;"/>
  </g>
  <g id="axes_1">
   <g id="patch_2">
    <path d="M 71.93 300.04 
L 445.565162 300.04 
L 445.565162 13.32 
L 71.93 13.32 
z
" style="fill:#ffffff;"/>
   </g>
   <g id="matplotlib.axis_1">
    <g id="xtick_1">
     <g id="line2d_1">
      <defs>
       <path d="M 0 0 
L 0 3.5 
" id="mc41117e5f7" style="stroke:#000000;stroke-width:0.8;"/>
      </defs>
      <g>
       <use style="stroke:#000000;stroke-width:0.8;" x="88.774606" xlink:href="#mc41117e5f7" y="300.04"/>
      </g>
     </g>
     <g id="text_1">
      <!-- 0.0 -->
      <defs>
       <path d="M 31.78125 66.40625 
Q 24.171875 66.40625 20.328125 58.90625 
Q 16.5 51.421875 16.5 36.375 
Q 16.5 21.390625 20.328125 13.890625 
Q 24.171875 6.390625 31.78125 6.390625 
Q 39.453125 6.390625 43.28125 13.890625 
Q 47.125 21.390625 47.125 36.375 
Q 47.125 51.421875 43.28125 58.90625 
Q 39.453125 66.40625 31.78125 66.40625 
z
M 31.78125 74.21875 
Q 44.046875 74.21875 50.515625 64.515625 
Q 56.984375 54.828125 56.984375 36.375 
Q 56.984375 17.96875 50.515625 8.265625 
Q 44.046875 -1.421875 31.78125 -1.421875 
Q 19.53125 -1.421875 13.0625 8.265625 
Q 6.59375 17.96875 6.59375 36.375 
Q 6.59375 54.828125 13.0625 64.515625 
Q 19.53125 74.21875 31.78125 74.21875 
z
" id="DejaVuSans-30"/>
       <path d="M 10.6875 12.40625 
L 21 12.40625 
L 21 0 
L 10.6875 0 
z
" id="DejaVuSans-2e"/>
      </defs>
      <g transform="translate(80.823044 314.638437)scale(0.1 -0.1)">
       <use xlink:href="#DejaVuSans-30"/>
       <use x="63.623047" xlink:href="#DejaVuSans-2e"/>
       <use x="95.410156" xlink:href="#DejaVuSans-30"/>
      </g>
     </g>
    </g>
    <g id="xtick_2">
     <g id="line2d_2">
      <g>
       <use style="stroke:#000000;stroke-width:0.8;" x="138.746245" xlink:href="#mc41117e5f7" y="300.04"/>
      </g>
     </g>
     <g id="text_2">
      <!-- 2.5 -->
      <defs>
       <path d="M 19.1875 8.296875 
L 53.609375 8.296875 
L 53.609375 0 
L 7.328125 0 
L 7.328125 8.296875 
Q 12.9375 14.109375 22.625 23.890625 
Q 32.328125 33.6875 34.8125 36.53125 
Q 39.546875 41.84375 41.421875 45.53125 
Q 43.3125 49.21875 43.3125 52.78125 
Q 43.3125 58.59375 39.234375 62.25 
Q 35.15625 65.921875 28.609375 65.921875 
Q 23.96875 65.921875 18.8125 64.3125 
Q 13.671875 62.703125 7.8125 59.421875 
L 7.8125 69.390625 
Q 13.765625 71.78125 18.9375 73 
Q 24.125 74.21875 28.421875 74.21875 
Q 39.75 74.21875 46.484375 68.546875 
Q 53.21875 62.890625 53.21875 53.421875 
Q 53.21875 48.921875 51.53125 44.890625 
Q 49.859375 40.875 45.40625 35.40625 
Q 44.1875 33.984375 37.640625 27.21875 
Q 31.109375 20.453125 19.1875 8.296875 
z
" id="DejaVuSans-32"/>
       <path d="M 10.796875 72.90625 
L 49.515625 72.90625 
L 49.515625 64.59375 
L 19.828125 64.59375 
L 19.828125 46.734375 
Q 21.96875 47.46875 24.109375 47.828125 
Q 26.265625 48.1875 28.421875 48.1875 
Q 40.625 48.1875 47.75 41.5 
Q 54.890625 34.8125 54.890625 23.390625 
Q 54.890625 11.625 47.5625 5.09375 
Q 40.234375 -1.421875 26.90625 -1.421875 
Q 22.3125 -1.421875 17.546875 -0.640625 
Q 12.796875 0.140625 7.71875 1.703125 
L 7.71875 11.625 
Q 12.109375 9.234375 16.796875 8.0625 
Q 21.484375 6.890625 26.703125 6.890625 
Q 35.15625 6.890625 40.078125 11.328125 
Q 45.015625 15.765625 45.015625 23.390625 
Q 45.015625 31 40.078125 35.4375 
Q 35.15625 39.890625 26.703125 39.890625 
Q 22.75 39.890625 18.8125 39.015625 
Q 14.890625 38.140625 10.796875 36.28125 
z
" id="DejaVuSans-35"/>
      </defs>
      <g transform="translate(130.794682 314.638437)scale(0.1 -0.1)">
       <use xlink:href="#DejaVuSans-32"/>
       <use x="63.623047" xlink:href="#DejaVuSans-2e"/>
       <use x="95.410156" xlink:href="#DejaVuSans-35"/>
      </g>
     </g>
    </g>
    <g id="xtick_3">
     <g id="line2d_3">
      <g>
       <use style="stroke:#000000;stroke-width:0.8;" x="188.717883" xlink:href="#mc41117e5f7" y="300.04"/>
      </g>
     </g>
     <g id="text_3">
      <!-- 5.0 -->
      <g transform="translate(180.76632 314.638437)scale(0.1 -0.1)">
       <use xlink:href="#DejaVuSans-35"/>
       <use x="63.623047" xlink:href="#DejaVuSans-2e"/>
       <use x="95.410156" xlink:href="#DejaVuSans-30"/>
      </g>
     </g>
    </g>
    <g id="xtick_4">
     <g id="line2d_4">
      <g>
       <use style="stroke:#000000;stroke-width:0.8;" x="238.689521" xlink:href="#mc41117e5f7" y="300.04"/>
      </g>
     </g>
     <g id="text_4">
      <!-- 7.5 -->
      <defs>
       <path d="M 8.203125 72.90625 
L 55.078125 72.90625 
L 55.078125 68.703125 
L 28.609375 0 
L 18.3125 0 
L 43.21875 64.59375 
L 8.203125 64.59375 
z
" id="DejaVuSans-37"/>
      </defs>
      <g transform="translate(230.737958 314.638437)scale(0.1 -0.1)">
       <use xlink:href="#DejaVuSans-37"/>
       <use x="63.623047" xlink:href="#DejaVuSans-2e"/>
       <use x="95.410156" xlink:href="#DejaVuSans-35"/>
      </g>
     </g>
    </g>
    <g id="xtick_5">
     <g id="line2d_5">
      <g>
       <use style="stroke:#000000;stroke-width:0.8;" x="288.661159" xlink:href="#mc41117e5f7" y="300.04"/>
      </g>
     </g>
     <g id="text_5">
      <!-- 10.0 -->
      <defs>
       <path d="M 12.40625 8.296875 
L 28.515625 8.296875 
L 28.515625 63.921875 
L 10.984375 60.40625 
L 10.984375 69.390625 
L 28.421875 72.90625 
L 38.28125 72.90625 
L 38.28125 8.296875 
L 54.390625 8.296875 
L 54.390625 0 
L 12.40625 0 
z
" id="DejaVuSans-31"/>
      </defs>
      <g transform="translate(277.528346 314.638437)scale(0.1 -0.1)">
       <use xlink:href="#DejaVuSans-31"/>
       <use x="63.623047" xlink:href="#DejaVuSans-30"/>
       <use x="127.246094" xlink:href="#DejaVuSans-2e"/>
       <use x="159.033203" xlink:href="#DejaVuSans-30"/>
      </g>
     </g>
    </g>
    <g id="xtick_6">
     <g id="line2d_6">
      <g>
       <use style="stroke:#000000;stroke-width:0.8;" x="338.632797" xlink:href="#mc41117e5f7" y="300.04"/>
      </g>
     </g>
     <g id="text_6">
      <!-- 12.5 -->
      <g transform="translate(327.499984 314.638437)scale(0.1 -0.1)">
       <use xlink:href="#DejaVuSans-31"/>
       <use x="63.623047" xlink:href="#DejaVuSans-32"/>
       <use x="127.246094" xlink:href="#DejaVuSans-2e"/>
       <use x="159.033203" xlink:href="#DejaVuSans-35"/>
      </g>
     </g>
    </g>
    <g id="xtick_7">
     <g id="line2d_7">
      <g>
       <use style="stroke:#000000;stroke-width:0.8;" x="388.604435" xlink:href="#mc41117e5f7" y="300.04"/>
      </g>
     </g>
     <g id="text_7">
      <!-- 15.0 -->
      <g transform="translate(377.471623 314.638437)scale(0.1 -0.1)">
       <use xlink:href="#DejaVuSans-31"/>
       <use x="63.623047" xlink:href="#DejaVuSans-35"/>
       <use x="127.246094" xlink:href="#DejaVuSans-2e"/>
       <use x="159.033203" xlink:href="#DejaVuSans-30"/>
      </g>
     </g>
    </g>
    <g id="xtick_8">
     <g id="line2d_8">
      <g>
       <use style="stroke:#000000;stroke-width:0.8;" x="438.576073" xlink:href="#mc41117e5f7" y="300.04"/>
      </g>
     </g>
     <g id="text_8">
      <!-- 17.5 -->
      <g transform="translate(427.443261 314.638437)scale(0.1 -0.1)">
       <use xlink:href="#DejaVuSans-31"/>
       <use x="63.623047" xlink:href="#DejaVuSans-37"/>
       <use x="127.246094" xlink:href="#DejaVuSans-2e"/>
       <use x="159.033203" xlink:href="#DejaVuSans-35"/>
      </g>
     </g>
    </g>
    <g id="text_9">
     <!-- Number of Streamed Bytes -->
     <defs>
      <path d="M 9.8125 72.90625 
L 23.09375 72.90625 
L 55.421875 11.921875 
L 55.421875 72.90625 
L 64.984375 72.90625 
L 64.984375 0 
L 51.703125 0 
L 19.390625 60.984375 
L 19.390625 0 
L 9.8125 0 
z
" id="DejaVuSans-4e"/>
      <path d="M 8.5 21.578125 
L 8.5 54.6875 
L 17.484375 54.6875 
L 17.484375 21.921875 
Q 17.484375 14.15625 20.5 10.265625 
Q 23.53125 6.390625 29.59375 6.390625 
Q 36.859375 6.390625 41.078125 11.03125 
Q 45.3125 15.671875 45.3125 23.6875 
L 45.3125 54.6875 
L 54.296875 54.6875 
L 54.296875 0 
L 45.3125 0 
L 45.3125 8.40625 
Q 42.046875 3.421875 37.71875 1 
Q 33.40625 -1.421875 27.6875 -1.421875 
Q 18.265625 -1.421875 13.375 4.4375 
Q 8.5 10.296875 8.5 21.578125 
z
M 31.109375 56 
z
" id="DejaVuSans-75"/>
      <path d="M 52 44.1875 
Q 55.375 50.25 60.0625 53.125 
Q 64.75 56 71.09375 56 
Q 79.640625 56 84.28125 50.015625 
Q 88.921875 44.046875 88.921875 33.015625 
L 88.921875 0 
L 79.890625 0 
L 79.890625 32.71875 
Q 79.890625 40.578125 77.09375 44.375 
Q 74.3125 48.1875 68.609375 48.1875 
Q 61.625 48.1875 57.5625 43.546875 
Q 53.515625 38.921875 53.515625 30.90625 
L 53.515625 0 
L 44.484375 0 
L 44.484375 32.71875 
Q 44.484375 40.625 41.703125 44.40625 
Q 38.921875 48.1875 33.109375 48.1875 
Q 26.21875 48.1875 22.15625 43.53125 
Q 18.109375 38.875 18.109375 30.90625 
L 18.109375 0 
L 9.078125 0 
L 9.078125 54.6875 
L 18.109375 54.6875 
L 18.109375 46.1875 
Q 21.1875 51.21875 25.484375 53.609375 
Q 29.78125 56 35.6875 56 
Q 41.65625 56 45.828125 52.96875 
Q 50 49.953125 52 44.1875 
z
" id="DejaVuSans-6d"/>
      <path d="M 48.6875 27.296875 
Q 48.6875 37.203125 44.609375 42.84375 
Q 40.53125 48.484375 33.40625 48.484375 
Q 26.265625 48.484375 22.1875 42.84375 
Q 18.109375 37.203125 18.109375 27.296875 
Q 18.109375 17.390625 22.1875 11.75 
Q 26.265625 6.109375 33.40625 6.109375 
Q 40.53125 6.109375 44.609375 11.75 
Q 48.6875 17.390625 48.6875 27.296875 
z
M 18.109375 46.390625 
Q 20.953125 51.265625 25.265625 53.625 
Q 29.59375 56 35.59375 56 
Q 45.5625 56 51.78125 48.09375 
Q 58.015625 40.1875 58.015625 27.296875 
Q 58.015625 14.40625 51.78125 6.484375 
Q 45.5625 -1.421875 35.59375 -1.421875 
Q 29.59375 -1.421875 25.265625 0.953125 
Q 20.953125 3.328125 18.109375 8.203125 
L 18.109375 0 
L 9.078125 0 
L 9.078125 75.984375 
L 18.109375 75.984375 
z
" id="DejaVuSans-62"/>
      <path d="M 56.203125 29.59375 
L 56.203125 25.203125 
L 14.890625 25.203125 
Q 15.484375 15.921875 20.484375 11.0625 
Q 25.484375 6.203125 34.421875 6.203125 
Q 39.59375 6.203125 44.453125 7.46875 
Q 49.3125 8.734375 54.109375 11.28125 
L 54.109375 2.78125 
Q 49.265625 0.734375 44.1875 -0.34375 
Q 39.109375 -1.421875 33.890625 -1.421875 
Q 20.796875 -1.421875 13.15625 6.1875 
Q 5.515625 13.8125 5.515625 26.8125 
Q 5.515625 40.234375 12.765625 48.109375 
Q 20.015625 56 32.328125 56 
Q 43.359375 56 49.78125 48.890625 
Q 56.203125 41.796875 56.203125 29.59375 
z
M 47.21875 32.234375 
Q 47.125 39.59375 43.09375 43.984375 
Q 39.0625 48.390625 32.421875 48.390625 
Q 24.90625 48.390625 20.390625 44.140625 
Q 15.875 39.890625 15.1875 32.171875 
z
" id="DejaVuSans-65"/>
      <path d="M 41.109375 46.296875 
Q 39.59375 47.171875 37.8125 47.578125 
Q 36.03125 48 33.890625 48 
Q 26.265625 48 22.1875 43.046875 
Q 18.109375 38.09375 18.109375 28.8125 
L 18.109375 0 
L 9.078125 0 
L 9.078125 54.6875 
L 18.109375 54.6875 
L 18.109375 46.1875 
Q 20.953125 51.171875 25.484375 53.578125 
Q 30.03125 56 36.53125 56 
Q 37.453125 56 38.578125 55.875 
Q 39.703125 55.765625 41.0625 55.515625 
z
" id="DejaVuSans-72"/>
      <path id="DejaVuSans-20"/>
      <path d="M 30.609375 48.390625 
Q 23.390625 48.390625 19.1875 42.75 
Q 14.984375 37.109375 14.984375 27.296875 
Q 14.984375 17.484375 19.15625 11.84375 
Q 23.34375 6.203125 30.609375 6.203125 
Q 37.796875 6.203125 41.984375 11.859375 
Q 46.1875 17.53125 46.1875 27.296875 
Q 46.1875 37.015625 41.984375 42.703125 
Q 37.796875 48.390625 30.609375 48.390625 
z
M 30.609375 56 
Q 42.328125 56 49.015625 48.375 
Q 55.71875 40.765625 55.71875 27.296875 
Q 55.71875 13.875 49.015625 6.21875 
Q 42.328125 -1.421875 30.609375 -1.421875 
Q 18.84375 -1.421875 12.171875 6.21875 
Q 5.515625 13.875 5.515625 27.296875 
Q 5.515625 40.765625 12.171875 48.375 
Q 18.84375 56 30.609375 56 
z
" id="DejaVuSans-6f"/>
      <path d="M 37.109375 75.984375 
L 37.109375 68.5 
L 28.515625 68.5 
Q 23.6875 68.5 21.796875 66.546875 
Q 19.921875 64.59375 19.921875 59.515625 
L 19.921875 54.6875 
L 34.71875 54.6875 
L 34.71875 47.703125 
L 19.921875 47.703125 
L 19.921875 0 
L 10.890625 0 
L 10.890625 47.703125 
L 2.296875 47.703125 
L 2.296875 54.6875 
L 10.890625 54.6875 
L 10.890625 58.5 
Q 10.890625 67.625 15.140625 71.796875 
Q 19.390625 75.984375 28.609375 75.984375 
z
" id="DejaVuSans-66"/>
      <path d="M 53.515625 70.515625 
L 53.515625 60.890625 
Q 47.90625 63.578125 42.921875 64.890625 
Q 37.9375 66.21875 33.296875 66.21875 
Q 25.25 66.21875 20.875 63.09375 
Q 16.5 59.96875 16.5 54.203125 
Q 16.5 49.359375 19.40625 46.890625 
Q 22.3125 44.4375 30.421875 42.921875 
L 36.375 41.703125 
Q 47.40625 39.59375 52.65625 34.296875 
Q 57.90625 29 57.90625 20.125 
Q 57.90625 9.515625 50.796875 4.046875 
Q 43.703125 -1.421875 29.984375 -1.421875 
Q 24.8125 -1.421875 18.96875 -0.25 
Q 13.140625 0.921875 6.890625 3.21875 
L 6.890625 13.375 
Q 12.890625 10.015625 18.65625 8.296875 
Q 24.421875 6.59375 29.984375 6.59375 
Q 38.421875 6.59375 43.015625 9.90625 
Q 47.609375 13.234375 47.609375 19.390625 
Q 47.609375 24.75 44.3125 27.78125 
Q 41.015625 30.8125 33.5 32.328125 
L 27.484375 33.5 
Q 16.453125 35.6875 11.515625 40.375 
Q 6.59375 45.0625 6.59375 53.421875 
Q 6.59375 63.09375 13.40625 68.65625 
Q 20.21875 74.21875 32.171875 74.21875 
Q 37.3125 74.21875 42.625 73.28125 
Q 47.953125 72.359375 53.515625 70.515625 
z
" id="DejaVuSans-53"/>
      <path d="M 18.3125 70.21875 
L 18.3125 54.6875 
L 36.8125 54.6875 
L 36.8125 47.703125 
L 18.3125 47.703125 
L 18.3125 18.015625 
Q 18.3125 11.328125 20.140625 9.421875 
Q 21.96875 7.515625 27.59375 7.515625 
L 36.8125 7.515625 
L 36.8125 0 
L 27.59375 0 
Q 17.1875 0 13.234375 3.875 
Q 9.28125 7.765625 9.28125 18.015625 
L 9.28125 47.703125 
L 2.6875 47.703125 
L 2.6875 54.6875 
L 9.28125 54.6875 
L 9.28125 70.21875 
z
" id="DejaVuSans-74"/>
      <path d="M 34.28125 27.484375 
Q 23.390625 27.484375 19.1875 25 
Q 14.984375 22.515625 14.984375 16.5 
Q 14.984375 11.71875 18.140625 8.90625 
Q 21.296875 6.109375 26.703125 6.109375 
Q 34.1875 6.109375 38.703125 11.40625 
Q 43.21875 16.703125 43.21875 25.484375 
L 43.21875 27.484375 
z
M 52.203125 31.203125 
L 52.203125 0 
L 43.21875 0 
L 43.21875 8.296875 
Q 40.140625 3.328125 35.546875 0.953125 
Q 30.953125 -1.421875 24.3125 -1.421875 
Q 15.921875 -1.421875 10.953125 3.296875 
Q 6 8.015625 6 15.921875 
Q 6 25.140625 12.171875 29.828125 
Q 18.359375 34.515625 30.609375 34.515625 
L 43.21875 34.515625 
L 43.21875 35.40625 
Q 43.21875 41.609375 39.140625 45 
Q 35.0625 48.390625 27.6875 48.390625 
Q 23 48.390625 18.546875 47.265625 
Q 14.109375 46.140625 10.015625 43.890625 
L 10.015625 52.203125 
Q 14.9375 54.109375 19.578125 55.046875 
Q 24.21875 56 28.609375 56 
Q 40.484375 56 46.34375 49.84375 
Q 52.203125 43.703125 52.203125 31.203125 
z
" id="DejaVuSans-61"/>
      <path d="M 45.40625 46.390625 
L 45.40625 75.984375 
L 54.390625 75.984375 
L 54.390625 0 
L 45.40625 0 
L 45.40625 8.203125 
Q 42.578125 3.328125 38.25 0.953125 
Q 33.9375 -1.421875 27.875 -1.421875 
Q 17.96875 -1.421875 11.734375 6.484375 
Q 5.515625 14.40625 5.515625 27.296875 
Q 5.515625 40.1875 11.734375 48.09375 
Q 17.96875 56 27.875 56 
Q 33.9375 56 38.25 53.625 
Q 42.578125 51.265625 45.40625 46.390625 
z
M 14.796875 27.296875 
Q 14.796875 17.390625 18.875 11.75 
Q 22.953125 6.109375 30.078125 6.109375 
Q 37.203125 6.109375 41.296875 11.75 
Q 45.40625 17.390625 45.40625 27.296875 
Q 45.40625 37.203125 41.296875 42.84375 
Q 37.203125 48.484375 30.078125 48.484375 
Q 22.953125 48.484375 18.875 42.84375 
Q 14.796875 37.203125 14.796875 27.296875 
z
" id="DejaVuSans-64"/>
      <path d="M 19.671875 34.8125 
L 19.671875 8.109375 
L 35.5 8.109375 
Q 43.453125 8.109375 47.28125 11.40625 
Q 51.125 14.703125 51.125 21.484375 
Q 51.125 28.328125 47.28125 31.5625 
Q 43.453125 34.8125 35.5 34.8125 
z
M 19.671875 64.796875 
L 19.671875 42.828125 
L 34.28125 42.828125 
Q 41.5 42.828125 45.03125 45.53125 
Q 48.578125 48.25 48.578125 53.8125 
Q 48.578125 59.328125 45.03125 62.0625 
Q 41.5 64.796875 34.28125 64.796875 
z
M 9.8125 72.90625 
L 35.015625 72.90625 
Q 46.296875 72.90625 52.390625 68.21875 
Q 58.5 63.53125 58.5 54.890625 
Q 58.5 48.1875 55.375 44.234375 
Q 52.25 40.28125 46.1875 39.3125 
Q 53.46875 37.75 57.5 32.78125 
Q 61.53125 27.828125 61.53125 20.40625 
Q 61.53125 10.640625 54.890625 5.3125 
Q 48.25 0 35.984375 0 
L 9.8125 0 
z
" id="DejaVuSans-42"/>
      <path d="M 32.171875 -5.078125 
Q 28.375 -14.84375 24.75 -17.8125 
Q 21.140625 -20.796875 15.09375 -20.796875 
L 7.90625 -20.796875 
L 7.90625 -13.28125 
L 13.1875 -13.28125 
Q 16.890625 -13.28125 18.9375 -11.515625 
Q 21 -9.765625 23.484375 -3.21875 
L 25.09375 0.875 
L 2.984375 54.6875 
L 12.5 54.6875 
L 29.59375 11.921875 
L 46.6875 54.6875 
L 56.203125 54.6875 
z
" id="DejaVuSans-79"/>
      <path d="M 44.28125 53.078125 
L 44.28125 44.578125 
Q 40.484375 46.53125 36.375 47.5 
Q 32.28125 48.484375 27.875 48.484375 
Q 21.1875 48.484375 17.84375 46.4375 
Q 14.5 44.390625 14.5 40.28125 
Q 14.5 37.15625 16.890625 35.375 
Q 19.28125 33.59375 26.515625 31.984375 
L 29.59375 31.296875 
Q 39.15625 29.25 43.1875 25.515625 
Q 47.21875 21.78125 47.21875 15.09375 
Q 47.21875 7.46875 41.1875 3.015625 
Q 35.15625 -1.421875 24.609375 -1.421875 
Q 20.21875 -1.421875 15.453125 -0.5625 
Q 10.6875 0.296875 5.421875 2 
L 5.421875 11.28125 
Q 10.40625 8.6875 15.234375 7.390625 
Q 20.0625 6.109375 24.8125 6.109375 
Q 31.15625 6.109375 34.5625 8.28125 
Q 37.984375 10.453125 37.984375 14.40625 
Q 37.984375 18.0625 35.515625 20.015625 
Q 33.0625 21.96875 24.703125 23.78125 
L 21.578125 24.515625 
Q 13.234375 26.265625 9.515625 29.90625 
Q 5.8125 33.546875 5.8125 39.890625 
Q 5.8125 47.609375 11.28125 51.796875 
Q 16.75 56 26.8125 56 
Q 31.78125 56 36.171875 55.265625 
Q 40.578125 54.546875 44.28125 53.078125 
z
" id="DejaVuSans-73"/>
     </defs>
     <g transform="translate(163.332112 331.355937)scale(0.14 -0.14)">
      <use xlink:href="#DejaVuSans-4e"/>
      <use x="74.804688" xlink:href="#DejaVuSans-75"/>
      <use x="138.183594" xlink:href="#DejaVuSans-6d"/>
      <use x="235.595703" xlink:href="#DejaVuSans-62"/>
      <use x="299.072266" xlink:href="#DejaVuSans-65"/>
      <use x="360.595703" xlink:href="#DejaVuSans-72"/>
      <use x="401.708984" xlink:href="#DejaVuSans-20"/>
      <use x="433.496094" xlink:href="#DejaVuSans-6f"/>
      <use x="494.677734" xlink:href="#DejaVuSans-66"/>
      <use x="529.882812" xlink:href="#DejaVuSans-20"/>
      <use x="561.669922" xlink:href="#DejaVuSans-53"/>
      <use x="625.146484" xlink:href="#DejaVuSans-74"/>
      <use x="664.355469" xlink:href="#DejaVuSans-72"/>
      <use x="705.4375" xlink:href="#DejaVuSans-65"/>
      <use x="766.960938" xlink:href="#DejaVuSans-61"/>
      <use x="828.240234" xlink:href="#DejaVuSans-6d"/>
      <use x="925.652344" xlink:href="#DejaVuSans-65"/>
      <use x="987.175781" xlink:href="#DejaVuSans-64"/>
      <use x="1050.652344" xlink:href="#DejaVuSans-20"/>
      <use x="1082.439453" xlink:href="#DejaVuSans-42"/>
      <use x="1151.042969" xlink:href="#DejaVuSans-79"/>
      <use x="1210.222656" xlink:href="#DejaVuSans-74"/>
      <use x="1249.431641" xlink:href="#DejaVuSans-65"/>
      <use x="1310.955078" xlink:href="#DejaVuSans-73"/>
     </g>
    </g>
   </g>
   <g id="matplotlib.axis_2">
    <g id="ytick_1">
     <g id="line2d_9">
      <defs>
       <path d="M 0 0 
L -3.5 0 
" id="m473432d3e8" style="stroke:#000000;stroke-width:0.8;"/>
      </defs>
      <g>
       <use style="stroke:#000000;stroke-width:0.8;" x="71.93" xlink:href="#m473432d3e8" y="295.585962"/>
      </g>
     </g>
     <g id="text_10">
      <!-- 10 -->
      <g transform="translate(52.205 299.385181)scale(0.1 -0.1)">
       <use xlink:href="#DejaVuSans-31"/>
       <use x="63.623047" xlink:href="#DejaVuSans-30"/>
      </g>
     </g>
    </g>
    <g id="ytick_2">
     <g id="line2d_10">
      <g>
       <use style="stroke:#000000;stroke-width:0.8;" x="71.93" xlink:href="#m473432d3e8" y="262.391837"/>
      </g>
     </g>
     <g id="text_11">
      <!-- 20 -->
      <g transform="translate(52.205 266.191056)scale(0.1 -0.1)">
       <use xlink:href="#DejaVuSans-32"/>
       <use x="63.623047" xlink:href="#DejaVuSans-30"/>
      </g>
     </g>
    </g>
    <g id="ytick_3">
     <g id="line2d_11">
      <g>
       <use style="stroke:#000000;stroke-width:0.8;" x="71.93" xlink:href="#m473432d3e8" y="229.197712"/>
      </g>
     </g>
     <g id="text_12">
      <!-- 30 -->
      <defs>
       <path d="M 40.578125 39.3125 
Q 47.65625 37.796875 51.625 33 
Q 55.609375 28.21875 55.609375 21.1875 
Q 55.609375 10.40625 48.1875 4.484375 
Q 40.765625 -1.421875 27.09375 -1.421875 
Q 22.515625 -1.421875 17.65625 -0.515625 
Q 12.796875 0.390625 7.625 2.203125 
L 7.625 11.71875 
Q 11.71875 9.328125 16.59375 8.109375 
Q 21.484375 6.890625 26.8125 6.890625 
Q 36.078125 6.890625 40.9375 10.546875 
Q 45.796875 14.203125 45.796875 21.1875 
Q 45.796875 27.640625 41.28125 31.265625 
Q 36.765625 34.90625 28.71875 34.90625 
L 20.21875 34.90625 
L 20.21875 43.015625 
L 29.109375 43.015625 
Q 36.375 43.015625 40.234375 45.921875 
Q 44.09375 48.828125 44.09375 54.296875 
Q 44.09375 59.90625 40.109375 62.90625 
Q 36.140625 65.921875 28.71875 65.921875 
Q 24.65625 65.921875 20.015625 65.03125 
Q 15.375 64.15625 9.8125 62.3125 
L 9.8125 71.09375 
Q 15.4375 72.65625 20.34375 73.4375 
Q 25.25 74.21875 29.59375 74.21875 
Q 40.828125 74.21875 47.359375 69.109375 
Q 53.90625 64.015625 53.90625 55.328125 
Q 53.90625 49.265625 50.4375 45.09375 
Q 46.96875 40.921875 40.578125 39.3125 
z
" id="DejaVuSans-33"/>
      </defs>
      <g transform="translate(52.205 232.996931)scale(0.1 -0.1)">
       <use xlink:href="#DejaVuSans-33"/>
       <use x="63.623047" xlink:href="#DejaVuSans-30"/>
      </g>
     </g>
    </g>
    <g id="ytick_4">
     <g id="line2d_12">
      <g>
       <use style="stroke:#000000;stroke-width:0.8;" x="71.93" xlink:href="#m473432d3e8" y="196.003587"/>
      </g>
     </g>
     <g id="text_13">
      <!-- 40 -->
      <defs>
       <path d="M 37.796875 64.3125 
L 12.890625 25.390625 
L 37.796875 25.390625 
z
M 35.203125 72.90625 
L 47.609375 72.90625 
L 47.609375 25.390625 
L 58.015625 25.390625 
L 58.015625 17.1875 
L 47.609375 17.1875 
L 47.609375 0 
L 37.796875 0 
L 37.796875 17.1875 
L 4.890625 17.1875 
L 4.890625 26.703125 
z
" id="DejaVuSans-34"/>
      </defs>
      <g transform="translate(52.205 199.802805)scale(0.1 -0.1)">
       <use xlink:href="#DejaVuSans-34"/>
       <use x="63.623047" xlink:href="#DejaVuSans-30"/>
      </g>
     </g>
    </g>
    <g id="ytick_5">
     <g id="line2d_13">
      <g>
       <use style="stroke:#000000;stroke-width:0.8;" x="71.93" xlink:href="#m473432d3e8" y="162.809461"/>
      </g>
     </g>
     <g id="text_14">
      <!-- 50 -->
      <g transform="translate(52.205 166.60868)scale(0.1 -0.1)">
       <use xlink:href="#DejaVuSans-35"/>
       <use x="63.623047" xlink:href="#DejaVuSans-30"/>
      </g>
     </g>
    </g>
    <g id="ytick_6">
     <g id="line2d_14">
      <g>
       <use style="stroke:#000000;stroke-width:0.8;" x="71.93" xlink:href="#m473432d3e8" y="129.615336"/>
      </g>
     </g>
     <g id="text_15">
      <!-- 60 -->
      <defs>
       <path d="M 33.015625 40.375 
Q 26.375 40.375 22.484375 35.828125 
Q 18.609375 31.296875 18.609375 23.390625 
Q 18.609375 15.53125 22.484375 10.953125 
Q 26.375 6.390625 33.015625 6.390625 
Q 39.65625 6.390625 43.53125 10.953125 
Q 47.40625 15.53125 47.40625 23.390625 
Q 47.40625 31.296875 43.53125 35.828125 
Q 39.65625 40.375 33.015625 40.375 
z
M 52.59375 71.296875 
L 52.59375 62.3125 
Q 48.875 64.0625 45.09375 64.984375 
Q 41.3125 65.921875 37.59375 65.921875 
Q 27.828125 65.921875 22.671875 59.328125 
Q 17.53125 52.734375 16.796875 39.40625 
Q 19.671875 43.65625 24.015625 45.921875 
Q 28.375 48.1875 33.59375 48.1875 
Q 44.578125 48.1875 50.953125 41.515625 
Q 57.328125 34.859375 57.328125 23.390625 
Q 57.328125 12.15625 50.6875 5.359375 
Q 44.046875 -1.421875 33.015625 -1.421875 
Q 20.359375 -1.421875 13.671875 8.265625 
Q 6.984375 17.96875 6.984375 36.375 
Q 6.984375 53.65625 15.1875 63.9375 
Q 23.390625 74.21875 37.203125 74.21875 
Q 40.921875 74.21875 44.703125 73.484375 
Q 48.484375 72.75 52.59375 71.296875 
z
" id="DejaVuSans-36"/>
      </defs>
      <g transform="translate(52.205 133.414555)scale(0.1 -0.1)">
       <use xlink:href="#DejaVuSans-36"/>
       <use x="63.623047" xlink:href="#DejaVuSans-30"/>
      </g>
     </g>
    </g>
    <g id="ytick_7">
     <g id="line2d_15">
      <g>
       <use style="stroke:#000000;stroke-width:0.8;" x="71.93" xlink:href="#m473432d3e8" y="96.421211"/>
      </g>
     </g>
     <g id="text_16">
      <!-- 70 -->
      <g transform="translate(52.205 100.220429)scale(0.1 -0.1)">
       <use xlink:href="#DejaVuSans-37"/>
       <use x="63.623047" xlink:href="#DejaVuSans-30"/>
      </g>
     </g>
    </g>
    <g id="ytick_8">
     <g id="line2d_16">
      <g>
       <use style="stroke:#000000;stroke-width:0.8;" x="71.93" xlink:href="#m473432d3e8" y="63.227085"/>
      </g>
     </g>
     <g id="text_17">
      <!-- 80 -->
      <defs>
       <path d="M 31.78125 34.625 
Q 24.75 34.625 20.71875 30.859375 
Q 16.703125 27.09375 16.703125 20.515625 
Q 16.703125 13.921875 20.71875 10.15625 
Q 24.75 6.390625 31.78125 6.390625 
Q 38.8125 6.390625 42.859375 10.171875 
Q 46.921875 13.96875 46.921875 20.515625 
Q 46.921875 27.09375 42.890625 30.859375 
Q 38.875 34.625 31.78125 34.625 
z
M 21.921875 38.8125 
Q 15.578125 40.375 12.03125 44.71875 
Q 8.5 49.078125 8.5 55.328125 
Q 8.5 64.0625 14.71875 69.140625 
Q 20.953125 74.21875 31.78125 74.21875 
Q 42.671875 74.21875 48.875 69.140625 
Q 55.078125 64.0625 55.078125 55.328125 
Q 55.078125 49.078125 51.53125 44.71875 
Q 48 40.375 41.703125 38.8125 
Q 48.828125 37.15625 52.796875 32.3125 
Q 56.78125 27.484375 56.78125 20.515625 
Q 56.78125 9.90625 50.3125 4.234375 
Q 43.84375 -1.421875 31.78125 -1.421875 
Q 19.734375 -1.421875 13.25 4.234375 
Q 6.78125 9.90625 6.78125 20.515625 
Q 6.78125 27.484375 10.78125 32.3125 
Q 14.796875 37.15625 21.921875 38.8125 
z
M 18.3125 54.390625 
Q 18.3125 48.734375 21.84375 45.5625 
Q 25.390625 42.390625 31.78125 42.390625 
Q 38.140625 42.390625 41.71875 45.5625 
Q 45.3125 48.734375 45.3125 54.390625 
Q 45.3125 60.0625 41.71875 63.234375 
Q 38.140625 66.40625 31.78125 66.40625 
Q 25.390625 66.40625 21.84375 63.234375 
Q 18.3125 60.0625 18.3125 54.390625 
z
" id="DejaVuSans-38"/>
      </defs>
      <g transform="translate(52.205 67.026304)scale(0.1 -0.1)">
       <use xlink:href="#DejaVuSans-38"/>
       <use x="63.623047" xlink:href="#DejaVuSans-30"/>
      </g>
     </g>
    </g>
    <g id="ytick_9">
     <g id="line2d_17">
      <g>
       <use style="stroke:#000000;stroke-width:0.8;" x="71.93" xlink:href="#m473432d3e8" y="30.03296"/>
      </g>
     </g>
     <g id="text_18">
      <!-- 90 -->
      <defs>
       <path d="M 10.984375 1.515625 
L 10.984375 10.5 
Q 14.703125 8.734375 18.5 7.8125 
Q 22.3125 6.890625 25.984375 6.890625 
Q 35.75 6.890625 40.890625 13.453125 
Q 46.046875 20.015625 46.78125 33.40625 
Q 43.953125 29.203125 39.59375 26.953125 
Q 35.25 24.703125 29.984375 24.703125 
Q 19.046875 24.703125 12.671875 31.3125 
Q 6.296875 37.9375 6.296875 49.421875 
Q 6.296875 60.640625 12.9375 67.421875 
Q 19.578125 74.21875 30.609375 74.21875 
Q 43.265625 74.21875 49.921875 64.515625 
Q 56.59375 54.828125 56.59375 36.375 
Q 56.59375 19.140625 48.40625 8.859375 
Q 40.234375 -1.421875 26.421875 -1.421875 
Q 22.703125 -1.421875 18.890625 -0.6875 
Q 15.09375 0.046875 10.984375 1.515625 
z
M 30.609375 32.421875 
Q 37.25 32.421875 41.125 36.953125 
Q 45.015625 41.5 45.015625 49.421875 
Q 45.015625 57.28125 41.125 61.84375 
Q 37.25 66.40625 30.609375 66.40625 
Q 23.96875 66.40625 20.09375 61.84375 
Q 16.21875 57.28125 16.21875 49.421875 
Q 16.21875 41.5 20.09375 36.953125 
Q 23.96875 32.421875 30.609375 32.421875 
z
" id="DejaVuSans-39"/>
      </defs>
      <g transform="translate(52.205 33.832179)scale(0.1 -0.1)">
       <use xlink:href="#DejaVuSans-39"/>
       <use x="63.623047" xlink:href="#DejaVuSans-30"/>
      </g>
     </g>
    </g>
    <g id="text_19">
     <!-- PSNR -->
     <defs>
      <path d="M 19.671875 64.796875 
L 19.671875 37.40625 
L 32.078125 37.40625 
Q 38.96875 37.40625 42.71875 40.96875 
Q 46.484375 44.53125 46.484375 51.125 
Q 46.484375 57.671875 42.71875 61.234375 
Q 38.96875 64.796875 32.078125 64.796875 
z
M 9.8125 72.90625 
L 32.078125 72.90625 
Q 44.34375 72.90625 50.609375 67.359375 
Q 56.890625 61.8125 56.890625 51.125 
Q 56.890625 40.328125 50.609375 34.8125 
Q 44.34375 29.296875 32.078125 29.296875 
L 19.671875 29.296875 
L 19.671875 0 
L 9.8125 0 
z
" id="DejaVuSans-50"/>
      <path d="M 44.390625 34.1875 
Q 47.5625 33.109375 50.5625 29.59375 
Q 53.5625 26.078125 56.59375 19.921875 
L 66.609375 0 
L 56 0 
L 46.6875 18.703125 
Q 43.0625 26.03125 39.671875 28.421875 
Q 36.28125 30.8125 30.421875 30.8125 
L 19.671875 30.8125 
L 19.671875 0 
L 9.8125 0 
L 9.8125 72.90625 
L 32.078125 72.90625 
Q 44.578125 72.90625 50.734375 67.671875 
Q 56.890625 62.453125 56.890625 51.90625 
Q 56.890625 45.015625 53.6875 40.46875 
Q 50.484375 35.9375 44.390625 34.1875 
z
M 19.671875 64.796875 
L 19.671875 38.921875 
L 32.078125 38.921875 
Q 39.203125 38.921875 42.84375 42.21875 
Q 46.484375 45.515625 46.484375 51.90625 
Q 46.484375 58.296875 42.84375 61.546875 
Q 39.203125 64.796875 32.078125 64.796875 
z
" id="DejaVuSans-52"/>
     </defs>
     <g transform="translate(10.674063 153.768437)scale(0.14 -0.14)">
      <use xlink:href="#DejaVuSans-50"/>
      <use x="60.302734" xlink:href="#DejaVuSans-53"/>
      <use x="123.779297" xlink:href="#DejaVuSans-4e"/>
      <use x="198.583984" xlink:href="#DejaVuSans-52"/>
     </g>
    </g>
   </g>
   <g id="line2d_18">
    <path clip-path="url(#p9df14fd41d)" d="M 88.913416 285.818591 
L 89.746277 268.027536 
L 90.301518 252.006723 
L 90.440327 251.327903 
L 90.995566 246.915408 
L 92.522479 239.191135 
L 92.938903 236.636847 
L 93.216525 235.232736 
L 93.355347 234.778972 
L 93.77177 231.624202 
L 94.88226 223.404009 
L 95.576306 221.837246 
L 95.99273 220.465333 
L 96.131551 220.311644 
L 96.686776 218.694427 
L 96.964398 218.051457 
L 97.658444 215.419494 
L 97.797266 215.241906 
L 98.074888 214.423671 
L 98.35251 213.960281 
L 99.324179 213.030181 
L 99.46298 212.759981 
L 99.601801 212.758653 
L 100.018225 212.19037 
L 100.712271 211.605821 
L 100.989894 211.241018 
L 101.128715 210.791237 
L 101.267516 210.791237 
L 102.100383 209.949434 
L 102.378006 209.841222 
L 102.516807 209.521894 
L 102.655608 209.491024 
L 103.210853 208.918425 
L 103.488475 208.804569 
L 105.15419 206.791345 
L 105.570634 206.072029 
L 105.987057 205.488144 
L 106.26468 205.03438 
L 106.958726 204.48203 
L 107.652772 203.138332 
L 107.791593 203.083562 
L 108.069216 202.407397 
L 108.485639 201.788991 
L 108.763262 200.942208 
L 108.901983 200.942208 
L 109.457268 199.839168 
L 109.596189 199.737262 
L 109.873831 199.175949 
L 110.151274 198.857949 
L 110.428916 198.192407 
L 110.567837 197.968679 
L 110.706559 197.968679 
L 110.84548 197.743955 
L 110.984201 197.734328 
L 111.123122 197.381143 
L 111.261844 197.403383 
L 112.649856 195.263026 
L 112.788777 195.261698 
L 112.927498 194.930752 
L 113.066419 194.944694 
L 113.205141 194.61906 
L 113.344062 194.631341 
L 113.482783 194.256248 
L 113.621704 194.256248 
L 113.899147 193.848956 
L 114.038068 193.679666 
L 114.176789 193.302249 
L 114.31571 193.302249 
L 114.454432 193.075865 
L 114.593353 193.083499 
L 114.732074 192.67322 
L 114.870995 192.67322 
L 115.009716 192.43555 
L 115.287359 192.323354 
L 115.565001 191.760713 
L 115.703723 191.760713 
L 115.842644 191.551258 
L 115.981365 191.551258 
L 116.120286 191.407196 
L 116.259007 191.436739 
L 117.230656 189.424843 
L 117.508298 188.914317 
L 118.202304 187.373778 
L 118.341226 187.377761 
L 118.618868 186.870887 
L 118.757589 186.777279 
L 120.423244 182.289766 
L 120.839808 182.04944 
L 120.978529 181.699242 
L 121.256171 181.618912 
L 121.672535 181.298921 
L 122.22782 181.233529 
L 122.921826 181.027061 
L 123.060747 181.027061 
L 123.338389 180.940756 
L 123.893474 180.769143 
L 124.448759 180.711717 
L 126.530977 179.723196 
L 126.80862 179.496148 
L 127.363905 179.275739 
L 127.502626 179.230263 
L 127.91899 178.729364 
L 128.057911 178.757247 
L 128.335553 178.574679 
L 128.751917 178.08573 
L 129.029559 177.848392 
L 129.723565 177.351476 
L 130.001208 177.168908 
L 130.556493 176.84261 
L 131.528141 176.742031 
L 131.805784 176.520295 
L 131.944505 176.523282 
L 132.361069 176.27333 
L 132.916153 175.977239 
L 133.332717 175.892926 
L 133.610359 175.755502 
L 133.887802 175.49692 
L 134.026723 175.500571 
L 134.443087 175.099254 
L 134.582008 175.053778 
L 134.85965 174.685987 
L 135.137093 174.639847 
L 135.414735 174.502756 
L 135.692378 174.233883 
L 135.97002 173.94775 
L 136.247663 173.875055 
L 136.525305 173.745598 
L 137.496954 173.487347 
L 138.052238 173.371168 
L 138.329881 173.231421 
L 138.746245 173.201214 
L 139.440251 173.070761 
L 139.856814 172.968191 
L 146.935996 171.498355 
L 147.35256 171.168738 
L 148.185287 171.089072 
L 149.295857 170.840116 
L 150.82279 170.72958 
L 152.766087 170.180217 
L 153.04373 170.083622 
L 153.460094 169.971426 
L 153.876457 169.838649 
L 154.431742 169.748361 
L 156.097597 169.465879 
L 156.236318 169.463888 
L 156.51396 169.298913 
L 156.930324 169.293602 
L 157.207966 169.194351 
L 163.038057 167.783269 
L 163.3157 167.684019 
L 163.870785 167.533317 
L 164.42607 167.351745 
L 166.091924 166.908272 
L 166.369367 166.780806 
L 166.508288 166.782798 
L 166.78593 166.657988 
L 168.729227 166.349283 
L 169.145591 166.321068 
L 169.423234 166.223145 
L 169.562155 166.230448 
L 169.839797 166.064809 
L 169.978518 166.074103 
L 170.394882 165.703325 
L 170.811446 165.609054 
L 174.004034 165.034131 
L 174.281676 164.924923 
L 174.69804 164.861522 
L 175.669688 164.614226 
L 175.947331 164.52095 
L 176.224973 164.528585 
L 176.502616 164.395808 
L 177.0579 164.128928 
L 177.612985 163.949347 
L 178.029549 163.860055 
L 178.307191 163.782381 
L 178.584834 163.618402 
L 179.001197 163.556661 
L 179.27884 163.352849 
L 179.556482 163.218745 
L 179.972846 163.140075 
L 180.528131 163.031862 
L 182.332707 162.596355 
L 182.74907 162.31686 
L 186.774586 161.370164 
L 187.190949 161.237387 
L 187.468592 161.188924 
L 188.301519 160.854991 
L 188.717883 160.802544 
L 189.273167 160.400895 
L 189.411889 160.402555 
L 189.967174 159.972359 
L 192.049392 159.048567 
L 192.327034 158.972552 
L 193.437404 158.556298 
L 193.715046 158.483935 
L 193.992689 158.294396 
L 194.547974 158.099879 
L 194.825616 157.949841 
L 195.24198 157.933908 
L 195.519622 157.849927 
L 196.768913 157.455913 
L 197.046556 157.307867 
L 197.185277 157.307867 
L 197.462919 157.134594 
L 197.740562 157.030032 
L 198.156925 156.897587 
L 198.434568 156.790702 
L 198.850932 156.675519 
L 199.406216 156.58855 
L 200.239144 156.425899 
L 200.655507 156.414613 
L 201.627156 156.246319 
L 202.043719 156.209805 
L 202.737726 155.830396 
L 203.431732 155.75571 
L 203.709374 155.693305 
L 204.125738 155.65148 
L 204.40338 155.558536 
L 204.681023 155.356052 
L 205.097386 155.184439 
L 205.652671 155.092491 
L 208.012532 154.603873 
L 208.290174 154.554414 
L 208.567817 154.485038 
L 208.845259 154.36056 
L 209.539465 154.250356 
L 210.372193 154.041565 
L 210.649835 154.007707 
L 211.066399 153.662488 
L 211.343841 153.575851 
L 211.760405 153.449714 
L 212.315689 153.372371 
L 212.593132 153.168891 
L 213.009696 153.095532 
L 215.508277 152.327088 
L 215.78592 152.160786 
L 216.063562 152.05722 
L 216.341005 151.815235 
L 216.618647 151.782373 
L 216.89629 151.680135 
L 217.451575 151.462713 
L 218.006859 151.021231 
L 218.562144 150.927624 
L 218.978508 150.659416 
L 219.117229 150.649457 
L 219.811435 150.110385 
L 220.227799 150.088145 
L 220.783084 149.678529 
L 221.060726 149.510567 
L 221.754732 148.951246 
L 222.58746 148.706605 
L 223.420387 147.935174 
L 223.559308 147.935174 
L 223.975672 147.679579 
L 224.114393 147.687214 
L 225.086042 146.67778 
L 225.363684 146.582845 
L 225.918969 146.085929 
L 226.05789 146.112816 
L 226.751896 145.421383 
L 227.16826 145.398479 
L 229.666842 143.491808 
L 229.944484 143.412806 
L 231.332496 141.844384 
L 232.165424 141.779323 
L 233.137072 141.228965 
L 234.108721 140.76989 
L 234.802927 140.013396 
L 235.080369 139.957298 
L 235.635654 139.39167 
L 236.190939 139.315987 
L 236.468581 139.05143 
L 236.607303 139.05143 
L 237.578951 138.326802 
L 237.856593 138.255435 
L 238.134236 138.06988 
L 238.273157 138.06656 
L 239.105884 137.13978 
L 239.244806 137.123847 
L 239.661169 136.599048 
L 239.938812 136.612989 
L 241.604466 134.338196 
L 241.743387 134.338196 
L 242.02103 134.038785 
L 242.715036 133.1847 
L 242.992678 133.12661 
L 243.964327 132.036847 
L 247.018194 128.756936 
L 249.377854 125.923817 
L 251.737715 122.770707 
L 252.987006 121.190003 
L 253.125727 121.196974 
L 255.485588 117.915403 
L 259.372182 112.624259 
L 262.703691 109.275636 
L 265.063352 106.606828 
L 267.423213 103.585167 
L 272.559098 96.682448 
L 272.698019 96.682448 
L 273.114383 96.156653 
L 273.669667 95.517335 
L 273.94731 95.539907 
L 274.224952 95.194024 
L 274.641316 95.122988 
L 275.890607 93.967833 
L 279.083195 91.131727 
L 279.222116 91.145336 
L 282.969989 87.247682 
L 283.10871 87.261624 
L 284.358001 85.803074 
L 284.635644 85.824318 
L 285.884935 84.419211 
L 286.162577 84.370747 
L 286.440219 84.287098 
L 286.578941 84.310998 
L 287.134225 83.780888 
L 287.411868 83.701886 
L 287.68951 83.62222 
L 287.828232 83.649107 
L 288.105874 83.518654 
L 288.661159 83.515999 
L 289.354765 82.854772 
L 289.632607 82.841826 
L 289.91045 82.728966 
L 290.188292 82.649632 
L 290.743977 82.200847 
L 291.021819 82.178939 
L 291.437583 81.842683 
L 291.715425 81.822102 
L 292.686874 81.211662 
L 293.102638 81.175813 
L 293.658323 80.675909 
L 294.907614 79.425818 
L 295.463298 79.243915 
L 296.156905 78.631483 
L 296.434747 78.630487 
L 296.850511 78.296886 
L 297.544117 78.215893 
L 297.82196 78.132575 
L 298.793408 78.044611 
L 299.489013 77.996147 
L 299.626935 78.036312 
L 299.904777 77.868018 
L 300.738304 77.771755 
L 301.154068 77.713333 
L 302.125517 77.65624 
L 303.374808 77.551014 
L 303.790572 77.49724 
L 304.486177 77.409275 
L 304.76402 77.363467 
L 305.87339 76.848627 
L 306.289154 76.744729 
L 308.511892 76.030391 
L 309.34342 75.948734 
L 309.761183 75.751229 
L 310.45479 75.701769 
L 311.704081 74.90511 
L 311.981923 74.87424 
L 312.535609 74.585119 
L 312.813451 74.514748 
L 313.091293 74.382635 
L 313.509056 74.308944 
L 314.480505 73.662986 
L 314.758347 73.657011 
L 315.451953 73.189306 
L 316.283482 73.085077 
L 316.839166 72.691062 
L 317.256929 72.589488 
L 317.672693 72.305679 
L 318.088457 72.256551 
L 318.782063 71.762623 
L 319.199826 71.657729 
L 320.171275 70.968619 
L 320.449117 70.808623 
L 320.864881 70.564979 
L 321.142724 70.518175 
L 321.420566 70.393697 
L 321.698408 70.371789 
L 322.807779 69.455631 
L 323.225541 69.346754 
L 323.641306 69.028091 
L 323.919148 69.026431 
L 324.752675 68.461135 
L 325.028518 68.409684 
L 325.30636 68.348275 
L 325.584203 68.244045 
L 326.139887 67.818829 
L 326.833494 67.748125 
L 327.111336 67.558255 
L 327.389178 67.393944 
L 327.804942 67.284403 
L 328.360627 66.964412 
L 328.638469 66.864829 
L 329.332076 66.287584 
L 330.025682 66.270987 
L 330.581367 65.973567 
L 330.721287 65.999791 
L 331.414894 65.445781 
L 332.1085 65.403624 
L 332.664184 65.133424 
L 332.802106 65.160311 
L 333.357791 64.771608 
L 334.051397 64.747708 
L 334.46916 64.479168 
L 335.162766 64.392199 
L 335.57853 64.251788 
L 336.134215 64.178429 
L 337.105664 63.729312 
L 337.661348 63.242023 
L 338.077112 63.137129 
L 338.494875 62.790914 
L 339.744166 62.722535 
L 340.02001 62.646852 
L 340.297852 62.586771 
L 340.575694 62.479222 
L 341.269301 62.385946 
L 341.964906 62.293003 
L 342.242748 62.265451 
L 342.518592 62.032761 
L 343.352118 62.005873 
L 343.629961 61.909278 
L 344.74133 61.821646 
L 345.8507 61.672604 
L 347.099991 61.59493 
L 347.377834 61.429291 
L 347.793598 61.344646 
L 350.709942 60.835117 
L 351.263628 60.727568 
L 351.959233 60.530726 
L 352.237076 60.423841 
L 353.068604 60.314633 
L 353.76221 59.866512 
L 354.179973 59.830662 
L 354.595737 59.590337 
L 355.011501 59.535235 
L 355.289343 59.41308 
L 355.707106 59.339389 
L 355.984949 59.241135 
L 356.400713 59.149519 
L 357.094319 58.969939 
L 357.927846 58.420244 
L 358.34361 58.374436 
L 358.621452 58.249626 
L 359.037216 58.186557 
L 360.286507 57.34575 
L 360.70427 57.262101 
L 361.675719 56.635728 
L 362.091483 56.534486 
L 362.92501 55.974501 
L 363.340774 55.904793 
L 363.896458 55.520405 
L 364.312222 55.438084 
L 366.950725 53.254242 
L 367.366489 52.982714 
L 367.782253 52.893422 
L 368.893622 51.979588 
L 369.309386 51.927473 
L 370.558677 50.899451 
L 370.836519 50.888497 
L 371.114362 50.65647 
L 371.530126 50.630579 
L 371.947889 50.305608 
L 372.363653 50.251502 
L 373.057259 49.696164 
L 373.335101 49.702471 
L 373.890786 49.284889 
L 374.30655 49.19792 
L 375.417919 48.842411 
L 375.555841 48.856353 
L 376.249447 48.274792 
L 376.66721 48.243921 
L 376.945052 48.067328 
L 377.776581 48.069652 
L 378.194343 47.773228 
L 378.610107 47.704516 
L 379.025871 47.362617 
L 379.443634 47.318469 
L 379.99732 46.850764 
L 380.830847 46.780392 
L 381.108689 46.579899 
L 381.664374 46.212772 
L 382.080138 46.129123 
L 382.35798 46.04481 
L 382.635823 46.043814 
L 384.023035 44.953055 
L 385.967931 44.173657 
L 388.188671 42.659009 
L 388.604435 42.620172 
L 391.518781 40.601306 
L 392.352308 40.369611 
L 392.907993 40.073851 
L 395.962259 38.640529 
L 396.238102 38.561527 
L 397.905156 37.69682 
L 407.621642 32.710398 
L 412.896648 30.785471 
L 422.197369 27.538421 
L 424.695951 26.971134 
L 428.581746 26.352727 
L 428.581746 26.352727 
" style="fill:none;stroke:#1f77b4;stroke-linecap:square;stroke-width:1.5;"/>
   </g>
   <g id="line2d_19">
    <path clip-path="url(#p9df14fd41d)" d="M 88.913416 287.007273 
L 89.052227 286.69558 
L 89.191036 285.820251 
L 89.607468 282.145661 
L 90.023897 282.145661 
L 90.440327 269.135556 
L 90.856765 269.165762 
L 90.995566 268.281471 
L 91.41199 257.860839 
L 94.188194 257.767564 
L 94.465816 257.25903 
L 94.604638 256.885264 
L 94.743439 255.603639 
L 95.159862 249.427208 
L 107.791593 249.427208 
L 108.069216 248.278691 
L 108.346838 246.36339 
L 108.763262 239.69801 
L 112.649856 239.623655 
L 112.927498 239.557266 
L 122.783105 239.557266 
L 123.060747 237.07501 
L 123.477111 231.458232 
L 128.335553 231.458232 
L 128.474274 231.185708 
L 128.751917 229.159207 
L 130.972856 229.049334 
L 131.944505 228.909587 
L 132.361069 228.906931 
L 132.916153 227.814845 
L 142.77176 227.814845 
L 143.049402 225.905187 
L 143.465766 221.660986 
L 148.324208 221.660986 
L 148.46293 221.520243 
L 148.740572 220.333885 
L 150.128584 220.270152 
L 150.545148 219.992317 
L 152.488445 217.717192 
L 152.904809 215.638244 
L 162.760415 215.641563 
L 163.038057 214.293882 
L 163.454421 212.053278 
L 168.451585 211.996184 
L 168.729227 211.464414 
L 169.978518 211.464414 
L 171.227809 209.397416 
L 172.199458 207.155153 
L 172.4771 206.222066 
L 172.893464 203.661471 
L 182.74907 203.661803 
L 183.581998 201.691732 
L 188.44024 201.654222 
L 188.717883 201.392321 
L 189.967174 201.399292 
L 190.800101 199.43951 
L 191.771749 196.083916 
L 192.327034 193.805472 
L 192.882119 190.860489 
L 195.24198 190.779827 
L 197.185277 190.703812 
L 198.989853 190.720741 
L 199.267495 190.658005 
L 202.598804 190.577011 
L 203.154089 189.407582 
L 203.431732 188.859547 
L 208.567817 188.762288 
L 208.845259 188.656067 
L 209.955829 188.587355 
L 210.927477 186.394883 
L 212.176768 182.668179 
L 212.870774 180.57031 
L 214.397708 180.529481 
L 214.952993 180.505581 
L 216.479926 180.324009 
L 218.700866 179.976135 
L 218.978508 179.924352 
L 219.25615 179.803526 
L 219.811435 179.78029 
L 220.36652 179.696972 
L 220.783084 179.624609 
L 221.47709 179.566188 
L 222.58746 179.470589 
L 223.559308 178.519577 
L 228.833914 178.411364 
L 229.805763 178.231452 
L 230.083205 178.01735 
L 230.916133 176.923271 
L 232.85943 174.075215 
L 233.553636 173.869412 
L 234.247642 173.644688 
L 235.21929 173.139805 
L 236.468581 172.576833 
L 237.023866 172.244891 
L 238.828242 171.156788 
L 239.383527 170.575891 
L 240.216454 170.108517 
L 241.326824 169.324804 
L 241.743387 168.958341 
L 242.853757 167.919365 
L 243.547963 167.59705 
L 248.82257 167.493816 
L 249.794418 167.036069 
L 251.598794 165.713947 
L 253.125727 164.546842 
L 254.236297 163.809268 
L 255.485588 162.745397 
L 257.428885 160.811175 
L 258.816897 158.99778 
L 259.372182 158.029507 
L 260.066188 157.032024 
L 261.732043 154.404045 
L 262.842413 152.172072 
L 263.67534 151.960625 
L 268.672504 151.934402 
L 270.477079 150.365316 
L 272.698019 149.031244 
L 275.474243 146.420526 
L 277.001177 144.619081 
L 279.499758 140.968059 
L 280.332486 139.567267 
L 281.026692 138.330453 
L 281.859419 136.592741 
L 282.831068 134.414211 
L 283.663995 134.206415 
L 288.661159 134.158284 
L 289.216843 133.381541 
L 290.048372 132.150039 
L 292.824796 130.656304 
L 294.351929 129.213355 
L 297.128353 126.027715 
L 299.211171 122.855684 
L 301.29199 119.041347 
L 302.819123 115.533392 
L 303.65265 115.370077 
L 308.649814 115.36543 
L 309.761183 113.192874 
L 310.037027 112.80915 
L 312.813451 111.316078 
L 314.618427 109.593635 
L 317.810615 105.908424 
L 321.280645 100.448654 
L 322.947699 97.267329 
L 323.641306 97.11364 
L 327.5271 96.967918 
L 327.944863 96.898542 
L 328.638469 96.777384 
L 330.165603 94.365166 
L 333.079949 92.963047 
L 335.440609 90.789827 
L 338.077112 87.887665 
L 339.326403 86.249203 
L 340.853537 83.891424 
L 342.936354 80.591596 
L 344.74133 80.103311 
L 345.295016 79.917755 
L 345.712779 79.807883 
L 348.349282 78.706834 
L 349.876416 76.531955 
L 352.374997 75.489991 
L 355.429264 73.270964 
L 357.927846 71.147536 
L 360.286507 68.841872 
L 362.647167 66.267003 
L 363.202852 66.044271 
L 363.896458 65.520467 
L 364.312222 65.192841 
L 365.283671 64.371951 
L 365.561513 64.163823 
L 368.060095 61.278258 
L 369.587228 59.662036 
L 372.225731 58.927782 
L 376.805132 55.754424 
L 379.025871 53.926755 
L 384.994484 47.93422 
L 386.243775 46.228706 
L 387.077302 44.95206 
L 388.604435 43.565873 
L 391.240939 42.757596 
L 394.435126 41.564931 
L 401.375187 38.489827 
L 403.180162 36.771699 
L 405.400902 34.319981 
L 406.23243 33.379924 
L 407.481721 32.786413 
L 412.618805 31.197742 
L 418.171654 29.228002 
L 423.584582 27.177601 
L 428.581746 26.352727 
L 428.581746 26.352727 
" style="fill:none;stroke:#ff7f0e;stroke-linecap:square;stroke-width:1.5;"/>
   </g>
   <g id="patch_3">
    <path d="M 71.93 300.04 
L 71.93 13.32 
" style="fill:none;stroke:#000000;stroke-linecap:square;stroke-linejoin:miter;stroke-width:0.8;"/>
   </g>
   <g id="patch_4">
    <path d="M 71.93 300.04 
L 445.565162 300.04 
" style="fill:none;stroke:#000000;stroke-linecap:square;stroke-linejoin:miter;stroke-width:0.8;"/>
   </g>
   <g id="legend_1">
    <g id="patch_5">
     <path d="M 299.093287 295.04 
L 438.565162 295.04 
Q 440.565162 295.04 440.565162 293.04 
L 440.565162 264.68375 
Q 440.565162 262.68375 438.565162 262.68375 
L 299.093287 262.68375 
Q 297.093287 262.68375 297.093287 264.68375 
L 297.093287 293.04 
Q 297.093287 295.04 299.093287 295.04 
z
" style="fill:#ffffff;opacity:0.8;stroke:#cccccc;stroke-linejoin:miter;"/>
    </g>
    <g id="line2d_20">
     <path d="M 301.093287 270.782187 
L 321.093287 270.782187 
" style="fill:none;stroke:#1f77b4;stroke-linecap:square;stroke-width:1.5;"/>
    </g>
    <g id="line2d_21"/>
    <g id="text_20">
     <!-- fine-to-coarse greedy -->
     <defs>
      <path d="M 9.421875 54.6875 
L 18.40625 54.6875 
L 18.40625 0 
L 9.421875 0 
z
M 9.421875 75.984375 
L 18.40625 75.984375 
L 18.40625 64.59375 
L 9.421875 64.59375 
z
" id="DejaVuSans-69"/>
      <path d="M 54.890625 33.015625 
L 54.890625 0 
L 45.90625 0 
L 45.90625 32.71875 
Q 45.90625 40.484375 42.875 44.328125 
Q 39.84375 48.1875 33.796875 48.1875 
Q 26.515625 48.1875 22.3125 43.546875 
Q 18.109375 38.921875 18.109375 30.90625 
L 18.109375 0 
L 9.078125 0 
L 9.078125 54.6875 
L 18.109375 54.6875 
L 18.109375 46.1875 
Q 21.34375 51.125 25.703125 53.5625 
Q 30.078125 56 35.796875 56 
Q 45.21875 56 50.046875 50.171875 
Q 54.890625 44.34375 54.890625 33.015625 
z
" id="DejaVuSans-6e"/>
      <path d="M 4.890625 31.390625 
L 31.203125 31.390625 
L 31.203125 23.390625 
L 4.890625 23.390625 
z
" id="DejaVuSans-2d"/>
      <path d="M 48.78125 52.59375 
L 48.78125 44.1875 
Q 44.96875 46.296875 41.140625 47.34375 
Q 37.3125 48.390625 33.40625 48.390625 
Q 24.65625 48.390625 19.8125 42.84375 
Q 14.984375 37.3125 14.984375 27.296875 
Q 14.984375 17.28125 19.8125 11.734375 
Q 24.65625 6.203125 33.40625 6.203125 
Q 37.3125 6.203125 41.140625 7.25 
Q 44.96875 8.296875 48.78125 10.40625 
L 48.78125 2.09375 
Q 45.015625 0.34375 40.984375 -0.53125 
Q 36.96875 -1.421875 32.421875 -1.421875 
Q 20.0625 -1.421875 12.78125 6.34375 
Q 5.515625 14.109375 5.515625 27.296875 
Q 5.515625 40.671875 12.859375 48.328125 
Q 20.21875 56 33.015625 56 
Q 37.15625 56 41.109375 55.140625 
Q 45.0625 54.296875 48.78125 52.59375 
z
" id="DejaVuSans-63"/>
      <path d="M 45.40625 27.984375 
Q 45.40625 37.75 41.375 43.109375 
Q 37.359375 48.484375 30.078125 48.484375 
Q 22.859375 48.484375 18.828125 43.109375 
Q 14.796875 37.75 14.796875 27.984375 
Q 14.796875 18.265625 18.828125 12.890625 
Q 22.859375 7.515625 30.078125 7.515625 
Q 37.359375 7.515625 41.375 12.890625 
Q 45.40625 18.265625 45.40625 27.984375 
z
M 54.390625 6.78125 
Q 54.390625 -7.171875 48.1875 -13.984375 
Q 42 -20.796875 29.203125 -20.796875 
Q 24.46875 -20.796875 20.265625 -20.09375 
Q 16.0625 -19.390625 12.109375 -17.921875 
L 12.109375 -9.1875 
Q 16.0625 -11.328125 19.921875 -12.34375 
Q 23.78125 -13.375 27.78125 -13.375 
Q 36.625 -13.375 41.015625 -8.765625 
Q 45.40625 -4.15625 45.40625 5.171875 
L 45.40625 9.625 
Q 42.625 4.78125 38.28125 2.390625 
Q 33.9375 0 27.875 0 
Q 17.828125 0 11.671875 7.65625 
Q 5.515625 15.328125 5.515625 27.984375 
Q 5.515625 40.671875 11.671875 48.328125 
Q 17.828125 56 27.875 56 
Q 33.9375 56 38.28125 53.609375 
Q 42.625 51.21875 45.40625 46.390625 
L 45.40625 54.6875 
L 54.390625 54.6875 
z
" id="DejaVuSans-67"/>
     </defs>
     <g transform="translate(329.093287 274.282187)scale(0.1 -0.1)">
      <use xlink:href="#DejaVuSans-66"/>
      <use x="35.205078" xlink:href="#DejaVuSans-69"/>
      <use x="62.988281" xlink:href="#DejaVuSans-6e"/>
      <use x="126.367188" xlink:href="#DejaVuSans-65"/>
      <use x="187.890625" xlink:href="#DejaVuSans-2d"/>
      <use x="223.974609" xlink:href="#DejaVuSans-74"/>
      <use x="263.183594" xlink:href="#DejaVuSans-6f"/>
      <use x="324.380859" xlink:href="#DejaVuSans-2d"/>
      <use x="360.464844" xlink:href="#DejaVuSans-63"/>
      <use x="415.445312" xlink:href="#DejaVuSans-6f"/>
      <use x="476.626953" xlink:href="#DejaVuSans-61"/>
      <use x="537.90625" xlink:href="#DejaVuSans-72"/>
      <use x="579.019531" xlink:href="#DejaVuSans-73"/>
      <use x="631.119141" xlink:href="#DejaVuSans-65"/>
      <use x="692.642578" xlink:href="#DejaVuSans-20"/>
      <use x="724.429688" xlink:href="#DejaVuSans-67"/>
      <use x="787.90625" xlink:href="#DejaVuSans-72"/>
      <use x="828.988281" xlink:href="#DejaVuSans-65"/>
      <use x="890.511719" xlink:href="#DejaVuSans-65"/>
      <use x="952.035156" xlink:href="#DejaVuSans-64"/>
      <use x="1015.511719" xlink:href="#DejaVuSans-79"/>
     </g>
    </g>
    <g id="line2d_22">
     <path d="M 301.093287 285.460312 
L 321.093287 285.460312 
" style="fill:none;stroke:#ff7f0e;stroke-linecap:square;stroke-width:1.5;"/>
    </g>
    <g id="line2d_23"/>
    <g id="text_21">
     <!-- by wavelet norm -->
     <defs>
      <path d="M 4.203125 54.6875 
L 13.1875 54.6875 
L 24.421875 12.015625 
L 35.59375 54.6875 
L 46.1875 54.6875 
L 57.421875 12.015625 
L 68.609375 54.6875 
L 77.59375 54.6875 
L 63.28125 0 
L 52.6875 0 
L 40.921875 44.828125 
L 29.109375 0 
L 18.5 0 
z
" id="DejaVuSans-77"/>
      <path d="M 2.984375 54.6875 
L 12.5 54.6875 
L 29.59375 8.796875 
L 46.6875 54.6875 
L 56.203125 54.6875 
L 35.6875 0 
L 23.484375 0 
z
" id="DejaVuSans-76"/>
      <path d="M 9.421875 75.984375 
L 18.40625 75.984375 
L 18.40625 0 
L 9.421875 0 
z
" id="DejaVuSans-6c"/>
     </defs>
     <g transform="translate(329.093287 288.960312)scale(0.1 -0.1)">
      <use xlink:href="#DejaVuSans-62"/>
      <use x="63.476562" xlink:href="#DejaVuSans-79"/>
      <use x="122.65625" xlink:href="#DejaVuSans-20"/>
      <use x="154.443359" xlink:href="#DejaVuSans-77"/>
      <use x="236.230469" xlink:href="#DejaVuSans-61"/>
      <use x="297.509766" xlink:href="#DejaVuSans-76"/>
      <use x="356.689453" xlink:href="#DejaVuSans-65"/>
      <use x="418.212891" xlink:href="#DejaVuSans-6c"/>
      <use x="445.996094" xlink:href="#DejaVuSans-65"/>
      <use x="507.519531" xlink:href="#DejaVuSans-74"/>
      <use x="546.728516" xlink:href="#DejaVuSans-20"/>
      <use x="578.515625" xlink:href="#DejaVuSans-6e"/>
      <use x="641.894531" xlink:href="#DejaVuSans-6f"/>
      <use x="703.076172" xlink:href="#DejaVuSans-72"/>
      <use x="744.173828" xlink:href="#DejaVuSans-6d"/>
     </g>
    </g>
   </g>
  </g>
 </g>
 <defs>
  <clipPath id="p9df14fd41d">
   <rect height="286.72" width="373.635162" x="71.93" y="13.32"/>
  </clipPath>
 </defs>
</svg>
