<?xml version="1.0" encoding="utf-8" standalone="no"?>
<!DOCTYPE svg PUBLIC "-//W3C//DTD SVG 1.1//EN"
  "http://www.w3.org/Graphics/SVG/1.1/DTD/svg11.dtd">
<!-- Created with matplotlib (http://matplotlib.org/) -->
<svg height="345pt" version="1.1" viewBox="0 0 460 345" width="460pt" xmlns="http://www.w3.org/2000/svg" xmlns:xlink="http://www.w3.org/1999/xlink">
 <defs>
  <style type="text/css">
*{stroke-linecap:butt;stroke-linejoin:round;}
  </style>
 </defs>
 <g id="figure_1">
  <g id="patch_1">
   <path d="M 0 345.6 
L 460.8 345.6 
L 460.8 0 
L 0 0 
z
" style="fill:#ffffff;"/>
  </g>
  <g id="axes_1">
   <g id="patch_2">
    <path d="M 71.93 300.04 
L 447.48 300.04 
L 447.48 13.32 
L 71.93 13.32 
z
" style="fill:#ffffff;"/>
   </g>
   <g id="matplotlib.axis_1">
    <g id="xtick_1">
     <g id="line2d_1">
      <defs>
       <path d="M 0 0 
L 0 3.5 
" id="m1808c48255" style="stroke:#000000;stroke-width:0.8;"/>
      </defs>
      <g>
       <use style="stroke:#000000;stroke-width:0.8;" x="88.998275" xlink:href="#m1808c48255" y="300.04"/>
      </g>
     </g>
     <g id="text_1">
      <!-- 0 -->
      <defs>
       <path d="M 31.78125 66.40625 
Q 24.171875 66.40625 20.328125 58.90625 
Q 16.5 51.421875 16.5 36.375 
Q 16.5 21.390625 20.328125 13.890625 
Q 24.171875 6.390625 31.78125 6.390625 
Q 39.453125 6.390625 43.28125 13.890625 
Q 47.125 21.390625 47.125 36.375 
Q 47.125 51.421875 43.28125 58.90625 
Q 39.453125 66.40625 31.78125 66.40625 
z
M 31.78125 74.21875 
Q 44.046875 74.21875 50.515625 64.515625 
Q 56.984375 54.828125 56.984375 36.375 
Q 56.984375 17.96875 50.515625 8.265625 
Q 44.046875 -1.421875 31.78125 -1.421875 
Q 19.53125 -1.421875 13.0625 8.265625 
Q 6.59375 17.96875 6.59375 36.375 
Q 6.59375 54.828125 13.0625 64.515625 
Q 19.53125 74.21875 31.78125 74.21875 
z
" id="DejaVuSans-30"/>
      </defs>
      <g transform="translate(85.817025 314.638437)scale(0.1 -0.1)">
       <use xlink:href="#DejaVuSans-30"/>
      </g>
     </g>
    </g>
    <g id="xtick_2">
     <g id="line2d_2">
      <g>
       <use style="stroke:#000000;stroke-width:0.8;" x="143.498857" xlink:href="#m1808c48255" y="300.04"/>
      </g>
     </g>
     <g id="text_2">
      <!-- 50000 -->
      <defs>
       <path d="M 10.796875 72.90625 
L 49.515625 72.90625 
L 49.515625 64.59375 
L 19.828125 64.59375 
L 19.828125 46.734375 
Q 21.96875 47.46875 24.109375 47.828125 
Q 26.265625 48.1875 28.421875 48.1875 
Q 40.625 48.1875 47.75 41.5 
Q 54.890625 34.8125 54.890625 23.390625 
Q 54.890625 11.625 47.5625 5.09375 
Q 40.234375 -1.421875 26.90625 -1.421875 
Q 22.3125 -1.421875 17.546875 -0.640625 
Q 12.796875 0.140625 7.71875 1.703125 
L 7.71875 11.625 
Q 12.109375 9.234375 16.796875 8.0625 
Q 21.484375 6.890625 26.703125 6.890625 
Q 35.15625 6.890625 40.078125 11.328125 
Q 45.015625 15.765625 45.015625 23.390625 
Q 45.015625 31 40.078125 35.4375 
Q 35.15625 39.890625 26.703125 39.890625 
Q 22.75 39.890625 18.8125 39.015625 
Q 14.890625 38.140625 10.796875 36.28125 
z
" id="DejaVuSans-35"/>
      </defs>
      <g transform="translate(127.592607 314.638437)scale(0.1 -0.1)">
       <use xlink:href="#DejaVuSans-35"/>
       <use x="63.623047" xlink:href="#DejaVuSans-30"/>
       <use x="127.246094" xlink:href="#DejaVuSans-30"/>
       <use x="190.869141" xlink:href="#DejaVuSans-30"/>
       <use x="254.492188" xlink:href="#DejaVuSans-30"/>
      </g>
     </g>
    </g>
    <g id="xtick_3">
     <g id="line2d_3">
      <g>
       <use style="stroke:#000000;stroke-width:0.8;" x="197.99944" xlink:href="#m1808c48255" y="300.04"/>
      </g>
     </g>
     <g id="text_3">
      <!-- 100000 -->
      <defs>
       <path d="M 12.40625 8.296875 
L 28.515625 8.296875 
L 28.515625 63.921875 
L 10.984375 60.40625 
L 10.984375 69.390625 
L 28.421875 72.90625 
L 38.28125 72.90625 
L 38.28125 8.296875 
L 54.390625 8.296875 
L 54.390625 0 
L 12.40625 0 
z
" id="DejaVuSans-31"/>
      </defs>
      <g transform="translate(178.91194 314.638437)scale(0.1 -0.1)">
       <use xlink:href="#DejaVuSans-31"/>
       <use x="63.623047" xlink:href="#DejaVuSans-30"/>
       <use x="127.246094" xlink:href="#DejaVuSans-30"/>
       <use x="190.869141" xlink:href="#DejaVuSans-30"/>
       <use x="254.492188" xlink:href="#DejaVuSans-30"/>
       <use x="318.115234" xlink:href="#DejaVuSans-30"/>
      </g>
     </g>
    </g>
    <g id="xtick_4">
     <g id="line2d_4">
      <g>
       <use style="stroke:#000000;stroke-width:0.8;" x="252.500023" xlink:href="#m1808c48255" y="300.04"/>
      </g>
     </g>
     <g id="text_4">
      <!-- 150000 -->
      <g transform="translate(233.412523 314.638437)scale(0.1 -0.1)">
       <use xlink:href="#DejaVuSans-31"/>
       <use x="63.623047" xlink:href="#DejaVuSans-35"/>
       <use x="127.246094" xlink:href="#DejaVuSans-30"/>
       <use x="190.869141" xlink:href="#DejaVuSans-30"/>
       <use x="254.492188" xlink:href="#DejaVuSans-30"/>
       <use x="318.115234" xlink:href="#DejaVuSans-30"/>
      </g>
     </g>
    </g>
    <g id="xtick_5">
     <g id="line2d_5">
      <g>
       <use style="stroke:#000000;stroke-width:0.8;" x="307.000606" xlink:href="#m1808c48255" y="300.04"/>
      </g>
     </g>
     <g id="text_5">
      <!-- 200000 -->
      <defs>
       <path d="M 19.1875 8.296875 
L 53.609375 8.296875 
L 53.609375 0 
L 7.328125 0 
L 7.328125 8.296875 
Q 12.9375 14.109375 22.625 23.890625 
Q 32.328125 33.6875 34.8125 36.53125 
Q 39.546875 41.84375 41.421875 45.53125 
Q 43.3125 49.21875 43.3125 52.78125 
Q 43.3125 58.59375 39.234375 62.25 
Q 35.15625 65.921875 28.609375 65.921875 
Q 23.96875 65.921875 18.8125 64.3125 
Q 13.671875 62.703125 7.8125 59.421875 
L 7.8125 69.390625 
Q 13.765625 71.78125 18.9375 73 
Q 24.125 74.21875 28.421875 74.21875 
Q 39.75 74.21875 46.484375 68.546875 
Q 53.21875 62.890625 53.21875 53.421875 
Q 53.21875 48.921875 51.53125 44.890625 
Q 49.859375 40.875 45.40625 35.40625 
Q 44.1875 33.984375 37.640625 27.21875 
Q 31.109375 20.453125 19.1875 8.296875 
z
" id="DejaVuSans-32"/>
      </defs>
      <g transform="translate(287.913106 314.638437)scale(0.1 -0.1)">
       <use xlink:href="#DejaVuSans-32"/>
       <use x="63.623047" xlink:href="#DejaVuSans-30"/>
       <use x="127.246094" xlink:href="#DejaVuSans-30"/>
       <use x="190.869141" xlink:href="#DejaVuSans-30"/>
       <use x="254.492188" xlink:href="#DejaVuSans-30"/>
       <use x="318.115234" xlink:href="#DejaVuSans-30"/>
      </g>
     </g>
    </g>
    <g id="xtick_6">
     <g id="line2d_6">
      <g>
       <use style="stroke:#000000;stroke-width:0.8;" x="361.501189" xlink:href="#m1808c48255" y="300.04"/>
      </g>
     </g>
     <g id="text_6">
      <!-- 250000 -->
      <g transform="translate(342.413689 314.638437)scale(0.1 -0.1)">
       <use xlink:href="#DejaVuSans-32"/>
       <use x="63.623047" xlink:href="#DejaVuSans-35"/>
       <use x="127.246094" xlink:href="#DejaVuSans-30"/>
       <use x="190.869141" xlink:href="#DejaVuSans-30"/>
       <use x="254.492188" xlink:href="#DejaVuSans-30"/>
       <use x="318.115234" xlink:href="#DejaVuSans-30"/>
      </g>
     </g>
    </g>
    <g id="xtick_7">
     <g id="line2d_7">
      <g>
       <use style="stroke:#000000;stroke-width:0.8;" x="416.001771" xlink:href="#m1808c48255" y="300.04"/>
      </g>
     </g>
     <g id="text_7">
      <!-- 300000 -->
      <defs>
       <path d="M 40.578125 39.3125 
Q 47.65625 37.796875 51.625 33 
Q 55.609375 28.21875 55.609375 21.1875 
Q 55.609375 10.40625 48.1875 4.484375 
Q 40.765625 -1.421875 27.09375 -1.421875 
Q 22.515625 -1.421875 17.65625 -0.515625 
Q 12.796875 0.390625 7.625 2.203125 
L 7.625 11.71875 
Q 11.71875 9.328125 16.59375 8.109375 
Q 21.484375 6.890625 26.8125 6.890625 
Q 36.078125 6.890625 40.9375 10.546875 
Q 45.796875 14.203125 45.796875 21.1875 
Q 45.796875 27.640625 41.28125 31.265625 
Q 36.765625 34.90625 28.71875 34.90625 
L 20.21875 34.90625 
L 20.21875 43.015625 
L 29.109375 43.015625 
Q 36.375 43.015625 40.234375 45.921875 
Q 44.09375 48.828125 44.09375 54.296875 
Q 44.09375 59.90625 40.109375 62.90625 
Q 36.140625 65.921875 28.71875 65.921875 
Q 24.65625 65.921875 20.015625 65.03125 
Q 15.375 64.15625 9.8125 62.3125 
L 9.8125 71.09375 
Q 15.4375 72.65625 20.34375 73.4375 
Q 25.25 74.21875 29.59375 74.21875 
Q 40.828125 74.21875 47.359375 69.109375 
Q 53.90625 64.015625 53.90625 55.328125 
Q 53.90625 49.265625 50.4375 45.09375 
Q 46.96875 40.921875 40.578125 39.3125 
z
" id="DejaVuSans-33"/>
      </defs>
      <g transform="translate(396.914271 314.638437)scale(0.1 -0.1)">
       <use xlink:href="#DejaVuSans-33"/>
       <use x="63.623047" xlink:href="#DejaVuSans-30"/>
       <use x="127.246094" xlink:href="#DejaVuSans-30"/>
       <use x="190.869141" xlink:href="#DejaVuSans-30"/>
       <use x="254.492188" xlink:href="#DejaVuSans-30"/>
       <use x="318.115234" xlink:href="#DejaVuSans-30"/>
      </g>
     </g>
    </g>
    <g id="text_8">
     <!-- Number of Streamed Bytes -->
     <defs>
      <path d="M 9.8125 72.90625 
L 23.09375 72.90625 
L 55.421875 11.921875 
L 55.421875 72.90625 
L 64.984375 72.90625 
L 64.984375 0 
L 51.703125 0 
L 19.390625 60.984375 
L 19.390625 0 
L 9.8125 0 
z
" id="DejaVuSans-4e"/>
      <path d="M 8.5 21.578125 
L 8.5 54.6875 
L 17.484375 54.6875 
L 17.484375 21.921875 
Q 17.484375 14.15625 20.5 10.265625 
Q 23.53125 6.390625 29.59375 6.390625 
Q 36.859375 6.390625 41.078125 11.03125 
Q 45.3125 15.671875 45.3125 23.6875 
L 45.3125 54.6875 
L 54.296875 54.6875 
L 54.296875 0 
L 45.3125 0 
L 45.3125 8.40625 
Q 42.046875 3.421875 37.71875 1 
Q 33.40625 -1.421875 27.6875 -1.421875 
Q 18.265625 -1.421875 13.375 4.4375 
Q 8.5 10.296875 8.5 21.578125 
z
M 31.109375 56 
z
" id="DejaVuSans-75"/>
      <path d="M 52 44.1875 
Q 55.375 50.25 60.0625 53.125 
Q 64.75 56 71.09375 56 
Q 79.640625 56 84.28125 50.015625 
Q 88.921875 44.046875 88.921875 33.015625 
L 88.921875 0 
L 79.890625 0 
L 79.890625 32.71875 
Q 79.890625 40.578125 77.09375 44.375 
Q 74.3125 48.1875 68.609375 48.1875 
Q 61.625 48.1875 57.5625 43.546875 
Q 53.515625 38.921875 53.515625 30.90625 
L 53.515625 0 
L 44.484375 0 
L 44.484375 32.71875 
Q 44.484375 40.625 41.703125 44.40625 
Q 38.921875 48.1875 33.109375 48.1875 
Q 26.21875 48.1875 22.15625 43.53125 
Q 18.109375 38.875 18.109375 30.90625 
L 18.109375 0 
L 9.078125 0 
L 9.078125 54.6875 
L 18.109375 54.6875 
L 18.109375 46.1875 
Q 21.1875 51.21875 25.484375 53.609375 
Q 29.78125 56 35.6875 56 
Q 41.65625 56 45.828125 52.96875 
Q 50 49.953125 52 44.1875 
z
" id="DejaVuSans-6d"/>
      <path d="M 48.6875 27.296875 
Q 48.6875 37.203125 44.609375 42.84375 
Q 40.53125 48.484375 33.40625 48.484375 
Q 26.265625 48.484375 22.1875 42.84375 
Q 18.109375 37.203125 18.109375 27.296875 
Q 18.109375 17.390625 22.1875 11.75 
Q 26.265625 6.109375 33.40625 6.109375 
Q 40.53125 6.109375 44.609375 11.75 
Q 48.6875 17.390625 48.6875 27.296875 
z
M 18.109375 46.390625 
Q 20.953125 51.265625 25.265625 53.625 
Q 29.59375 56 35.59375 56 
Q 45.5625 56 51.78125 48.09375 
Q 58.015625 40.1875 58.015625 27.296875 
Q 58.015625 14.40625 51.78125 6.484375 
Q 45.5625 -1.421875 35.59375 -1.421875 
Q 29.59375 -1.421875 25.265625 0.953125 
Q 20.953125 3.328125 18.109375 8.203125 
L 18.109375 0 
L 9.078125 0 
L 9.078125 75.984375 
L 18.109375 75.984375 
z
" id="DejaVuSans-62"/>
      <path d="M 56.203125 29.59375 
L 56.203125 25.203125 
L 14.890625 25.203125 
Q 15.484375 15.921875 20.484375 11.0625 
Q 25.484375 6.203125 34.421875 6.203125 
Q 39.59375 6.203125 44.453125 7.46875 
Q 49.3125 8.734375 54.109375 11.28125 
L 54.109375 2.78125 
Q 49.265625 0.734375 44.1875 -0.34375 
Q 39.109375 -1.421875 33.890625 -1.421875 
Q 20.796875 -1.421875 13.15625 6.1875 
Q 5.515625 13.8125 5.515625 26.8125 
Q 5.515625 40.234375 12.765625 48.109375 
Q 20.015625 56 32.328125 56 
Q 43.359375 56 49.78125 48.890625 
Q 56.203125 41.796875 56.203125 29.59375 
z
M 47.21875 32.234375 
Q 47.125 39.59375 43.09375 43.984375 
Q 39.0625 48.390625 32.421875 48.390625 
Q 24.90625 48.390625 20.390625 44.140625 
Q 15.875 39.890625 15.1875 32.171875 
z
" id="DejaVuSans-65"/>
      <path d="M 41.109375 46.296875 
Q 39.59375 47.171875 37.8125 47.578125 
Q 36.03125 48 33.890625 48 
Q 26.265625 48 22.1875 43.046875 
Q 18.109375 38.09375 18.109375 28.8125 
L 18.109375 0 
L 9.078125 0 
L 9.078125 54.6875 
L 18.109375 54.6875 
L 18.109375 46.1875 
Q 20.953125 51.171875 25.484375 53.578125 
Q 30.03125 56 36.53125 56 
Q 37.453125 56 38.578125 55.875 
Q 39.703125 55.765625 41.0625 55.515625 
z
" id="DejaVuSans-72"/>
      <path id="DejaVuSans-20"/>
      <path d="M 30.609375 48.390625 
Q 23.390625 48.390625 19.1875 42.75 
Q 14.984375 37.109375 14.984375 27.296875 
Q 14.984375 17.484375 19.15625 11.84375 
Q 23.34375 6.203125 30.609375 6.203125 
Q 37.796875 6.203125 41.984375 11.859375 
Q 46.1875 17.53125 46.1875 27.296875 
Q 46.1875 37.015625 41.984375 42.703125 
Q 37.796875 48.390625 30.609375 48.390625 
z
M 30.609375 56 
Q 42.328125 56 49.015625 48.375 
Q 55.71875 40.765625 55.71875 27.296875 
Q 55.71875 13.875 49.015625 6.21875 
Q 42.328125 -1.421875 30.609375 -1.421875 
Q 18.84375 -1.421875 12.171875 6.21875 
Q 5.515625 13.875 5.515625 27.296875 
Q 5.515625 40.765625 12.171875 48.375 
Q 18.84375 56 30.609375 56 
z
" id="DejaVuSans-6f"/>
      <path d="M 37.109375 75.984375 
L 37.109375 68.5 
L 28.515625 68.5 
Q 23.6875 68.5 21.796875 66.546875 
Q 19.921875 64.59375 19.921875 59.515625 
L 19.921875 54.6875 
L 34.71875 54.6875 
L 34.71875 47.703125 
L 19.921875 47.703125 
L 19.921875 0 
L 10.890625 0 
L 10.890625 47.703125 
L 2.296875 47.703125 
L 2.296875 54.6875 
L 10.890625 54.6875 
L 10.890625 58.5 
Q 10.890625 67.625 15.140625 71.796875 
Q 19.390625 75.984375 28.609375 75.984375 
z
" id="DejaVuSans-66"/>
      <path d="M 53.515625 70.515625 
L 53.515625 60.890625 
Q 47.90625 63.578125 42.921875 64.890625 
Q 37.9375 66.21875 33.296875 66.21875 
Q 25.25 66.21875 20.875 63.09375 
Q 16.5 59.96875 16.5 54.203125 
Q 16.5 49.359375 19.40625 46.890625 
Q 22.3125 44.4375 30.421875 42.921875 
L 36.375 41.703125 
Q 47.40625 39.59375 52.65625 34.296875 
Q 57.90625 29 57.90625 20.125 
Q 57.90625 9.515625 50.796875 4.046875 
Q 43.703125 -1.421875 29.984375 -1.421875 
Q 24.8125 -1.421875 18.96875 -0.25 
Q 13.140625 0.921875 6.890625 3.21875 
L 6.890625 13.375 
Q 12.890625 10.015625 18.65625 8.296875 
Q 24.421875 6.59375 29.984375 6.59375 
Q 38.421875 6.59375 43.015625 9.90625 
Q 47.609375 13.234375 47.609375 19.390625 
Q 47.609375 24.75 44.3125 27.78125 
Q 41.015625 30.8125 33.5 32.328125 
L 27.484375 33.5 
Q 16.453125 35.6875 11.515625 40.375 
Q 6.59375 45.0625 6.59375 53.421875 
Q 6.59375 63.09375 13.40625 68.65625 
Q 20.21875 74.21875 32.171875 74.21875 
Q 37.3125 74.21875 42.625 73.28125 
Q 47.953125 72.359375 53.515625 70.515625 
z
" id="DejaVuSans-53"/>
      <path d="M 18.3125 70.21875 
L 18.3125 54.6875 
L 36.8125 54.6875 
L 36.8125 47.703125 
L 18.3125 47.703125 
L 18.3125 18.015625 
Q 18.3125 11.328125 20.140625 9.421875 
Q 21.96875 7.515625 27.59375 7.515625 
L 36.8125 7.515625 
L 36.8125 0 
L 27.59375 0 
Q 17.1875 0 13.234375 3.875 
Q 9.28125 7.765625 9.28125 18.015625 
L 9.28125 47.703125 
L 2.6875 47.703125 
L 2.6875 54.6875 
L 9.28125 54.6875 
L 9.28125 70.21875 
z
" id="DejaVuSans-74"/>
      <path d="M 34.28125 27.484375 
Q 23.390625 27.484375 19.1875 25 
Q 14.984375 22.515625 14.984375 16.5 
Q 14.984375 11.71875 18.140625 8.90625 
Q 21.296875 6.109375 26.703125 6.109375 
Q 34.1875 6.109375 38.703125 11.40625 
Q 43.21875 16.703125 43.21875 25.484375 
L 43.21875 27.484375 
z
M 52.203125 31.203125 
L 52.203125 0 
L 43.21875 0 
L 43.21875 8.296875 
Q 40.140625 3.328125 35.546875 0.953125 
Q 30.953125 -1.421875 24.3125 -1.421875 
Q 15.921875 -1.421875 10.953125 3.296875 
Q 6 8.015625 6 15.921875 
Q 6 25.140625 12.171875 29.828125 
Q 18.359375 34.515625 30.609375 34.515625 
L 43.21875 34.515625 
L 43.21875 35.40625 
Q 43.21875 41.609375 39.140625 45 
Q 35.0625 48.390625 27.6875 48.390625 
Q 23 48.390625 18.546875 47.265625 
Q 14.109375 46.140625 10.015625 43.890625 
L 10.015625 52.203125 
Q 14.9375 54.109375 19.578125 55.046875 
Q 24.21875 56 28.609375 56 
Q 40.484375 56 46.34375 49.84375 
Q 52.203125 43.703125 52.203125 31.203125 
z
" id="DejaVuSans-61"/>
      <path d="M 45.40625 46.390625 
L 45.40625 75.984375 
L 54.390625 75.984375 
L 54.390625 0 
L 45.40625 0 
L 45.40625 8.203125 
Q 42.578125 3.328125 38.25 0.953125 
Q 33.9375 -1.421875 27.875 -1.421875 
Q 17.96875 -1.421875 11.734375 6.484375 
Q 5.515625 14.40625 5.515625 27.296875 
Q 5.515625 40.1875 11.734375 48.09375 
Q 17.96875 56 27.875 56 
Q 33.9375 56 38.25 53.625 
Q 42.578125 51.265625 45.40625 46.390625 
z
M 14.796875 27.296875 
Q 14.796875 17.390625 18.875 11.75 
Q 22.953125 6.109375 30.078125 6.109375 
Q 37.203125 6.109375 41.296875 11.75 
Q 45.40625 17.390625 45.40625 27.296875 
Q 45.40625 37.203125 41.296875 42.84375 
Q 37.203125 48.484375 30.078125 48.484375 
Q 22.953125 48.484375 18.875 42.84375 
Q 14.796875 37.203125 14.796875 27.296875 
z
" id="DejaVuSans-64"/>
      <path d="M 19.671875 34.8125 
L 19.671875 8.109375 
L 35.5 8.109375 
Q 43.453125 8.109375 47.28125 11.40625 
Q 51.125 14.703125 51.125 21.484375 
Q 51.125 28.328125 47.28125 31.5625 
Q 43.453125 34.8125 35.5 34.8125 
z
M 19.671875 64.796875 
L 19.671875 42.828125 
L 34.28125 42.828125 
Q 41.5 42.828125 45.03125 45.53125 
Q 48.578125 48.25 48.578125 53.8125 
Q 48.578125 59.328125 45.03125 62.0625 
Q 41.5 64.796875 34.28125 64.796875 
z
M 9.8125 72.90625 
L 35.015625 72.90625 
Q 46.296875 72.90625 52.390625 68.21875 
Q 58.5 63.53125 58.5 54.890625 
Q 58.5 48.1875 55.375 44.234375 
Q 52.25 40.28125 46.1875 39.3125 
Q 53.46875 37.75 57.5 32.78125 
Q 61.53125 27.828125 61.53125 20.40625 
Q 61.53125 10.640625 54.890625 5.3125 
Q 48.25 0 35.984375 0 
L 9.8125 0 
z
" id="DejaVuSans-42"/>
      <path d="M 32.171875 -5.078125 
Q 28.375 -14.84375 24.75 -17.8125 
Q 21.140625 -20.796875 15.09375 -20.796875 
L 7.90625 -20.796875 
L 7.90625 -13.28125 
L 13.1875 -13.28125 
Q 16.890625 -13.28125 18.9375 -11.515625 
Q 21 -9.765625 23.484375 -3.21875 
L 25.09375 0.875 
L 2.984375 54.6875 
L 12.5 54.6875 
L 29.59375 11.921875 
L 46.6875 54.6875 
L 56.203125 54.6875 
z
" id="DejaVuSans-79"/>
      <path d="M 44.28125 53.078125 
L 44.28125 44.578125 
Q 40.484375 46.53125 36.375 47.5 
Q 32.28125 48.484375 27.875 48.484375 
Q 21.1875 48.484375 17.84375 46.4375 
Q 14.5 44.390625 14.5 40.28125 
Q 14.5 37.15625 16.890625 35.375 
Q 19.28125 33.59375 26.515625 31.984375 
L 29.59375 31.296875 
Q 39.15625 29.25 43.1875 25.515625 
Q 47.21875 21.78125 47.21875 15.09375 
Q 47.21875 7.46875 41.1875 3.015625 
Q 35.15625 -1.421875 24.609375 -1.421875 
Q 20.21875 -1.421875 15.453125 -0.5625 
Q 10.6875 0.296875 5.421875 2 
L 5.421875 11.28125 
Q 10.40625 8.6875 15.234375 7.390625 
Q 20.0625 6.109375 24.8125 6.109375 
Q 31.15625 6.109375 34.5625 8.28125 
Q 37.984375 10.453125 37.984375 14.40625 
Q 37.984375 18.0625 35.515625 20.015625 
Q 33.0625 21.96875 24.703125 23.78125 
L 21.578125 24.515625 
Q 13.234375 26.265625 9.515625 29.90625 
Q 5.8125 33.546875 5.8125 39.890625 
Q 5.8125 47.609375 11.28125 51.796875 
Q 16.75 56 26.8125 56 
Q 31.78125 56 36.171875 55.265625 
Q 40.578125 54.546875 44.28125 53.078125 
z
" id="DejaVuSans-73"/>
     </defs>
     <g transform="translate(164.289531 331.355937)scale(0.14 -0.14)">
      <use xlink:href="#DejaVuSans-4e"/>
      <use x="74.804688" xlink:href="#DejaVuSans-75"/>
      <use x="138.183594" xlink:href="#DejaVuSans-6d"/>
      <use x="235.595703" xlink:href="#DejaVuSans-62"/>
      <use x="299.072266" xlink:href="#DejaVuSans-65"/>
      <use x="360.595703" xlink:href="#DejaVuSans-72"/>
      <use x="401.708984" xlink:href="#DejaVuSans-20"/>
      <use x="433.496094" xlink:href="#DejaVuSans-6f"/>
      <use x="494.677734" xlink:href="#DejaVuSans-66"/>
      <use x="529.882812" xlink:href="#DejaVuSans-20"/>
      <use x="561.669922" xlink:href="#DejaVuSans-53"/>
      <use x="625.146484" xlink:href="#DejaVuSans-74"/>
      <use x="664.355469" xlink:href="#DejaVuSans-72"/>
      <use x="705.4375" xlink:href="#DejaVuSans-65"/>
      <use x="766.960938" xlink:href="#DejaVuSans-61"/>
      <use x="828.240234" xlink:href="#DejaVuSans-6d"/>
      <use x="925.652344" xlink:href="#DejaVuSans-65"/>
      <use x="987.175781" xlink:href="#DejaVuSans-64"/>
      <use x="1050.652344" xlink:href="#DejaVuSans-20"/>
      <use x="1082.439453" xlink:href="#DejaVuSans-42"/>
      <use x="1151.042969" xlink:href="#DejaVuSans-79"/>
      <use x="1210.222656" xlink:href="#DejaVuSans-74"/>
      <use x="1249.431641" xlink:href="#DejaVuSans-65"/>
      <use x="1310.955078" xlink:href="#DejaVuSans-73"/>
     </g>
    </g>
   </g>
   <g id="matplotlib.axis_2">
    <g id="ytick_1">
     <g id="line2d_8">
      <defs>
       <path d="M 0 0 
L -3.5 0 
" id="md2ab78e444" style="stroke:#000000;stroke-width:0.8;"/>
      </defs>
      <g>
       <use style="stroke:#000000;stroke-width:0.8;" x="71.93" xlink:href="#md2ab78e444" y="294.9923"/>
      </g>
     </g>
     <g id="text_9">
      <!-- 10 -->
      <g transform="translate(52.205 298.791518)scale(0.1 -0.1)">
       <use xlink:href="#DejaVuSans-31"/>
       <use x="63.623047" xlink:href="#DejaVuSans-30"/>
      </g>
     </g>
    </g>
    <g id="ytick_2">
     <g id="line2d_9">
      <g>
       <use style="stroke:#000000;stroke-width:0.8;" x="71.93" xlink:href="#md2ab78e444" y="261.871776"/>
      </g>
     </g>
     <g id="text_10">
      <!-- 20 -->
      <g transform="translate(52.205 265.670995)scale(0.1 -0.1)">
       <use xlink:href="#DejaVuSans-32"/>
       <use x="63.623047" xlink:href="#DejaVuSans-30"/>
      </g>
     </g>
    </g>
    <g id="ytick_3">
     <g id="line2d_10">
      <g>
       <use style="stroke:#000000;stroke-width:0.8;" x="71.93" xlink:href="#md2ab78e444" y="228.751253"/>
      </g>
     </g>
     <g id="text_11">
      <!-- 30 -->
      <g transform="translate(52.205 232.550471)scale(0.1 -0.1)">
       <use xlink:href="#DejaVuSans-33"/>
       <use x="63.623047" xlink:href="#DejaVuSans-30"/>
      </g>
     </g>
    </g>
    <g id="ytick_4">
     <g id="line2d_11">
      <g>
       <use style="stroke:#000000;stroke-width:0.8;" x="71.93" xlink:href="#md2ab78e444" y="195.630729"/>
      </g>
     </g>
     <g id="text_12">
      <!-- 40 -->
      <defs>
       <path d="M 37.796875 64.3125 
L 12.890625 25.390625 
L 37.796875 25.390625 
z
M 35.203125 72.90625 
L 47.609375 72.90625 
L 47.609375 25.390625 
L 58.015625 25.390625 
L 58.015625 17.1875 
L 47.609375 17.1875 
L 47.609375 0 
L 37.796875 0 
L 37.796875 17.1875 
L 4.890625 17.1875 
L 4.890625 26.703125 
z
" id="DejaVuSans-34"/>
      </defs>
      <g transform="translate(52.205 199.429948)scale(0.1 -0.1)">
       <use xlink:href="#DejaVuSans-34"/>
       <use x="63.623047" xlink:href="#DejaVuSans-30"/>
      </g>
     </g>
    </g>
    <g id="ytick_5">
     <g id="line2d_12">
      <g>
       <use style="stroke:#000000;stroke-width:0.8;" x="71.93" xlink:href="#md2ab78e444" y="162.510206"/>
      </g>
     </g>
     <g id="text_13">
      <!-- 50 -->
      <g transform="translate(52.205 166.309425)scale(0.1 -0.1)">
       <use xlink:href="#DejaVuSans-35"/>
       <use x="63.623047" xlink:href="#DejaVuSans-30"/>
      </g>
     </g>
    </g>
    <g id="ytick_6">
     <g id="line2d_13">
      <g>
       <use style="stroke:#000000;stroke-width:0.8;" x="71.93" xlink:href="#md2ab78e444" y="129.389682"/>
      </g>
     </g>
     <g id="text_14">
      <!-- 60 -->
      <defs>
       <path d="M 33.015625 40.375 
Q 26.375 40.375 22.484375 35.828125 
Q 18.609375 31.296875 18.609375 23.390625 
Q 18.609375 15.53125 22.484375 10.953125 
Q 26.375 6.390625 33.015625 6.390625 
Q 39.65625 6.390625 43.53125 10.953125 
Q 47.40625 15.53125 47.40625 23.390625 
Q 47.40625 31.296875 43.53125 35.828125 
Q 39.65625 40.375 33.015625 40.375 
z
M 52.59375 71.296875 
L 52.59375 62.3125 
Q 48.875 64.0625 45.09375 64.984375 
Q 41.3125 65.921875 37.59375 65.921875 
Q 27.828125 65.921875 22.671875 59.328125 
Q 17.53125 52.734375 16.796875 39.40625 
Q 19.671875 43.65625 24.015625 45.921875 
Q 28.375 48.1875 33.59375 48.1875 
Q 44.578125 48.1875 50.953125 41.515625 
Q 57.328125 34.859375 57.328125 23.390625 
Q 57.328125 12.15625 50.6875 5.359375 
Q 44.046875 -1.421875 33.015625 -1.421875 
Q 20.359375 -1.421875 13.671875 8.265625 
Q 6.984375 17.96875 6.984375 36.375 
Q 6.984375 53.65625 15.1875 63.9375 
Q 23.390625 74.21875 37.203125 74.21875 
Q 40.921875 74.21875 44.703125 73.484375 
Q 48.484375 72.75 52.59375 71.296875 
z
" id="DejaVuSans-36"/>
      </defs>
      <g transform="translate(52.205 133.188901)scale(0.1 -0.1)">
       <use xlink:href="#DejaVuSans-36"/>
       <use x="63.623047" xlink:href="#DejaVuSans-30"/>
      </g>
     </g>
    </g>
    <g id="ytick_7">
     <g id="line2d_14">
      <g>
       <use style="stroke:#000000;stroke-width:0.8;" x="71.93" xlink:href="#md2ab78e444" y="96.269159"/>
      </g>
     </g>
     <g id="text_15">
      <!-- 70 -->
      <defs>
       <path d="M 8.203125 72.90625 
L 55.078125 72.90625 
L 55.078125 68.703125 
L 28.609375 0 
L 18.3125 0 
L 43.21875 64.59375 
L 8.203125 64.59375 
z
" id="DejaVuSans-37"/>
      </defs>
      <g transform="translate(52.205 100.068378)scale(0.1 -0.1)">
       <use xlink:href="#DejaVuSans-37"/>
       <use x="63.623047" xlink:href="#DejaVuSans-30"/>
      </g>
     </g>
    </g>
    <g id="ytick_8">
     <g id="line2d_15">
      <g>
       <use style="stroke:#000000;stroke-width:0.8;" x="71.93" xlink:href="#md2ab78e444" y="63.148635"/>
      </g>
     </g>
     <g id="text_16">
      <!-- 80 -->
      <defs>
       <path d="M 31.78125 34.625 
Q 24.75 34.625 20.71875 30.859375 
Q 16.703125 27.09375 16.703125 20.515625 
Q 16.703125 13.921875 20.71875 10.15625 
Q 24.75 6.390625 31.78125 6.390625 
Q 38.8125 6.390625 42.859375 10.171875 
Q 46.921875 13.96875 46.921875 20.515625 
Q 46.921875 27.09375 42.890625 30.859375 
Q 38.875 34.625 31.78125 34.625 
z
M 21.921875 38.8125 
Q 15.578125 40.375 12.03125 44.71875 
Q 8.5 49.078125 8.5 55.328125 
Q 8.5 64.0625 14.71875 69.140625 
Q 20.953125 74.21875 31.78125 74.21875 
Q 42.671875 74.21875 48.875 69.140625 
Q 55.078125 64.0625 55.078125 55.328125 
Q 55.078125 49.078125 51.53125 44.71875 
Q 48 40.375 41.703125 38.8125 
Q 48.828125 37.15625 52.796875 32.3125 
Q 56.78125 27.484375 56.78125 20.515625 
Q 56.78125 9.90625 50.3125 4.234375 
Q 43.84375 -1.421875 31.78125 -1.421875 
Q 19.734375 -1.421875 13.25 4.234375 
Q 6.78125 9.90625 6.78125 20.515625 
Q 6.78125 27.484375 10.78125 32.3125 
Q 14.796875 37.15625 21.921875 38.8125 
z
M 18.3125 54.390625 
Q 18.3125 48.734375 21.84375 45.5625 
Q 25.390625 42.390625 31.78125 42.390625 
Q 38.140625 42.390625 41.71875 45.5625 
Q 45.3125 48.734375 45.3125 54.390625 
Q 45.3125 60.0625 41.71875 63.234375 
Q 38.140625 66.40625 31.78125 66.40625 
Q 25.390625 66.40625 21.84375 63.234375 
Q 18.3125 60.0625 18.3125 54.390625 
z
" id="DejaVuSans-38"/>
      </defs>
      <g transform="translate(52.205 66.947854)scale(0.1 -0.1)">
       <use xlink:href="#DejaVuSans-38"/>
       <use x="63.623047" xlink:href="#DejaVuSans-30"/>
      </g>
     </g>
    </g>
    <g id="ytick_9">
     <g id="line2d_16">
      <g>
       <use style="stroke:#000000;stroke-width:0.8;" x="71.93" xlink:href="#md2ab78e444" y="30.028112"/>
      </g>
     </g>
     <g id="text_17">
      <!-- 90 -->
      <defs>
       <path d="M 10.984375 1.515625 
L 10.984375 10.5 
Q 14.703125 8.734375 18.5 7.8125 
Q 22.3125 6.890625 25.984375 6.890625 
Q 35.75 6.890625 40.890625 13.453125 
Q 46.046875 20.015625 46.78125 33.40625 
Q 43.953125 29.203125 39.59375 26.953125 
Q 35.25 24.703125 29.984375 24.703125 
Q 19.046875 24.703125 12.671875 31.3125 
Q 6.296875 37.9375 6.296875 49.421875 
Q 6.296875 60.640625 12.9375 67.421875 
Q 19.578125 74.21875 30.609375 74.21875 
Q 43.265625 74.21875 49.921875 64.515625 
Q 56.59375 54.828125 56.59375 36.375 
Q 56.59375 19.140625 48.40625 8.859375 
Q 40.234375 -1.421875 26.421875 -1.421875 
Q 22.703125 -1.421875 18.890625 -0.6875 
Q 15.09375 0.046875 10.984375 1.515625 
z
M 30.609375 32.421875 
Q 37.25 32.421875 41.125 36.953125 
Q 45.015625 41.5 45.015625 49.421875 
Q 45.015625 57.28125 41.125 61.84375 
Q 37.25 66.40625 30.609375 66.40625 
Q 23.96875 66.40625 20.09375 61.84375 
Q 16.21875 57.28125 16.21875 49.421875 
Q 16.21875 41.5 20.09375 36.953125 
Q 23.96875 32.421875 30.609375 32.421875 
z
" id="DejaVuSans-39"/>
      </defs>
      <g transform="translate(52.205 33.827331)scale(0.1 -0.1)">
       <use xlink:href="#DejaVuSans-39"/>
       <use x="63.623047" xlink:href="#DejaVuSans-30"/>
      </g>
     </g>
    </g>
    <g id="text_18">
     <!-- PSNR -->
     <defs>
      <path d="M 19.671875 64.796875 
L 19.671875 37.40625 
L 32.078125 37.40625 
Q 38.96875 37.40625 42.71875 40.96875 
Q 46.484375 44.53125 46.484375 51.125 
Q 46.484375 57.671875 42.71875 61.234375 
Q 38.96875 64.796875 32.078125 64.796875 
z
M 9.8125 72.90625 
L 32.078125 72.90625 
Q 44.34375 72.90625 50.609375 67.359375 
Q 56.890625 61.8125 56.890625 51.125 
Q 56.890625 40.328125 50.609375 34.8125 
Q 44.34375 29.296875 32.078125 29.296875 
L 19.671875 29.296875 
L 19.671875 0 
L 9.8125 0 
z
" id="DejaVuSans-50"/>
      <path d="M 44.390625 34.1875 
Q 47.5625 33.109375 50.5625 29.59375 
Q 53.5625 26.078125 56.59375 19.921875 
L 66.609375 0 
L 56 0 
L 46.6875 18.703125 
Q 43.0625 26.03125 39.671875 28.421875 
Q 36.28125 30.8125 30.421875 30.8125 
L 19.671875 30.8125 
L 19.671875 0 
L 9.8125 0 
L 9.8125 72.90625 
L 32.078125 72.90625 
Q 44.578125 72.90625 50.734375 67.671875 
Q 56.890625 62.453125 56.890625 51.90625 
Q 56.890625 45.015625 53.6875 40.46875 
Q 50.484375 35.9375 44.390625 34.1875 
z
M 19.671875 64.796875 
L 19.671875 38.921875 
L 32.078125 38.921875 
Q 39.203125 38.921875 42.84375 42.21875 
Q 46.484375 45.515625 46.484375 51.90625 
Q 46.484375 58.296875 42.84375 61.546875 
Q 39.203125 64.796875 32.078125 64.796875 
z
" id="DejaVuSans-52"/>
     </defs>
     <g transform="translate(10.674063 153.768437)scale(0.14 -0.14)">
      <use xlink:href="#DejaVuSans-50"/>
      <use x="60.302734" xlink:href="#DejaVuSans-53"/>
      <use x="123.779297" xlink:href="#DejaVuSans-4e"/>
      <use x="198.583984" xlink:href="#DejaVuSans-52"/>
     </g>
    </g>
   </g>
   <g id="line2d_17">
    <path clip-path="url(#pb84b665a18)" d="M 89.000455 287.007273 
L 89.139976 286.854256 
L 89.419019 286.218673 
L 89.558541 286.047109 
L 90.395669 283.68131 
L 90.814234 281.862331 
L 92.34897 276.253039 
L 92.488492 275.980788 
L 92.628013 275.425026 
L 92.907056 273.056908 
L 93.744185 266.487452 
L 94.023228 259.163842 
L 94.441793 246.551216 
L 95.418443 245.831507 
L 95.697486 245.628147 
L 97.790309 243.472994 
L 98.069352 243.193457 
L 99.185523 241.341026 
L 99.464566 240.645826 
L 99.604088 240.504733 
L 100.162174 239.387246 
L 100.580738 238.863611 
L 100.72026 238.605602 
L 100.999303 237.809385 
L 101.69691 236.101359 
L 101.975953 235.443917 
L 102.534039 234.446989 
L 102.813082 233.451055 
L 103.231647 232.107355 
L 103.650211 230.100252 
L 103.789733 229.760104 
L 104.068776 228.825443 
L 104.208297 228.408787 
L 104.626862 225.64786 
L 105.045426 217.991719 
L 105.882555 217.4396 
L 106.30112 217.089848 
L 106.719684 216.516531 
L 107.417291 215.97766 
L 107.556813 215.82365 
L 107.835856 215.373211 
L 108.533463 214.553147 
L 109.091549 213.876494 
L 109.510114 213.121678 
L 109.928678 212.736486 
L 110.347243 211.845875 
L 111.184372 211.666693 
L 111.881979 211.498441 
L 112.440065 211.350061 
L 116.765231 210.609817 
L 119.41614 209.599972 
L 120.39279 209.344282 
L 121.090398 209.106477 
L 121.788005 208.87099 
L 122.067048 208.647095 
L 125.415564 207.601149 
L 125.97365 207.280542 
L 126.392214 207.080494 
L 126.810779 206.858256 
L 128.624558 205.917633 
L 129.182644 205.568211 
L 130.856902 204.788885 
L 131.275467 204.560685 
L 132.112596 204.264919 
L 132.391639 204.024132 
L 132.53116 203.981738 
L 132.810203 203.703526 
L 133.368289 203.473007 
L 135.182068 202.821857 
L 135.600633 202.637707 
L 136.158719 202.323393 
L 136.29824 202.290935 
L 136.995848 201.625875 
L 137.414412 201.375815 
L 137.553934 201.170799 
L 137.693455 200.540184 
L 138.11202 200.347092 
L 138.391063 200.145057 
L 138.670106 200.024167 
L 139.228192 199.799941 
L 139.507235 199.495894 
L 140.204842 199.264713 
L 140.344364 198.896413 
L 140.483885 198.849713 
L 140.762928 198.588061 
L 141.321014 198.32409 
L 141.460536 197.877294 
L 142.018622 197.61498 
L 142.297664 197.377506 
L 142.576707 197.295367 
L 142.995272 196.809489 
L 143.413836 196.65879 
L 143.553358 196.611759 
L 143.832401 196.107334 
L 143.971922 196.055997 
L 144.250965 195.793351 
L 144.530008 195.539317 
L 144.809051 195.316747 
L 145.227616 195.020649 
L 146.204266 194.088306 
L 146.483309 193.87766 
L 146.622831 193.796183 
L 146.901874 193.236447 
L 147.041395 193.093366 
L 147.320438 192.532304 
L 148.018046 191.748673 
L 148.297089 191.451913 
L 148.715653 191.262795 
L 149.134218 190.2036 
L 149.692304 189.76376 
L 150.110868 188.853608 
L 150.529433 188.517766 
L 150.808475 187.934844 
L 151.366561 187.142933 
L 151.924647 186.670303 
L 152.20369 185.055346 
L 152.482733 183.784512 
L 152.761776 179.249981 
L 153.180341 175.840554 
L 164.481582 175.338778 
L 165.458232 175.259289 
L 167.969619 175.131444 
L 168.388183 175.050298 
L 172.155264 174.759169 
L 173.410957 174.658151 
L 176.48043 174.403123 
L 177.317559 174.351455 
L 181.363682 174.14114 
L 182.06129 174.068937 
L 185.688848 173.945729 
L 193.502052 173.643339 
L 196.432003 173.505888 
L 197.687697 173.432361 
L 199.780519 173.263777 
L 201.175734 173.117385 
L 204.52425 172.786179 
L 204.803293 172.60766 
L 205.640422 172.523202 
L 207.454201 172.405625 
L 214.709319 171.844563 
L 216.941663 171.707775 
L 217.499749 171.649152 
L 218.755442 171.548134 
L 218.894964 171.335832 
L 220.4297 171.220903 
L 220.569221 171.177847 
L 220.848264 170.995684 
L 222.103958 170.850285 
L 222.383001 170.818158 
L 222.662044 170.698262 
L 233.54472 170.030883 
L 235.777064 169.797383 
L 238.567494 169.298588 
L 239.823187 169.122387 
L 240.10223 169.091585 
L 240.381273 168.913065 
L 241.497445 168.802774 
L 243.729789 168.639159 
L 250.705864 167.704829 
L 251.26395 167.591556 
L 252.380122 167.493189 
L 253.077729 167.371636 
L 255.868159 167.013935 
L 258.100503 166.717837 
L 258.519067 166.599597 
L 259.495718 166.478376 
L 260.472368 166.347218 
L 267.308921 165.265171 
L 268.704136 165.15223 
L 269.122701 165.063798 
L 270.517916 164.928335 
L 270.93648 164.853814 
L 274.424517 164.558379 
L 276.935904 164.086411 
L 278.052076 163.97877 
L 278.470641 163.7976 
L 278.889205 163.649883 
L 280.144899 163.472357 
L 281.540113 163.133865 
L 282.098199 163.030529 
L 282.237721 162.337979 
L 282.516764 162.22007 
L 286.423366 161.32151 
L 289.213796 160.985999 
L 289.492839 160.887631 
L 290.190446 160.799862 
L 290.60901 160.689239 
L 291.725182 160.492503 
L 292.283268 160.415995 
L 292.841354 160.376913 
L 293.120397 160.078497 
L 293.957526 159.925811 
L 295.21322 159.778425 
L 295.352741 159.536645 
L 296.887478 159.378991 
L 297.445564 159.154766 
L 298.701257 159.029901 
L 298.9803 158.699027 
L 302.049773 158.204869 
L 302.607859 158.096565 
L 303.584509 157.878301 
L 303.863552 157.784569 
L 305.119246 157.631884 
L 306.933025 157.143025 
L 307.212068 156.931385 
L 307.630632 156.875411 
L 307.909675 156.716433 
L 309.444412 156.521353 
L 309.723455 156.443851 
L 310.281541 156.362705 
L 310.421062 156.115626 
L 313.211492 155.652601 
L 313.490535 155.536017 
L 315.583358 155.111081 
L 318.234266 154.312214 
L 318.373787 153.998231 
L 319.210916 153.723993 
L 319.629481 153.630593 
L 320.048045 153.576276 
L 320.327088 153.432201 
L 322.280389 152.867828 
L 322.838475 152.417389 
L 323.117518 152.325645 
L 323.815126 152.160373 
L 324.094169 152.081215 
L 324.512733 151.821882 
L 326.047469 151.519822 
L 326.745077 151.059778 
L 327.582206 150.956774 
L 327.861249 150.710357 
L 328.977421 150.374846 
L 329.535507 150.266873 
L 330.512157 149.702499 
L 331.070243 149.596514 
L 331.349286 149.558756 
L 332.186415 148.844015 
L 332.744501 148.747966 
L 333.023544 148.610184 
L 333.163066 148.592631 
L 333.442109 148.325348 
L 333.721152 148.28461 
L 334.279237 147.968971 
L 336.232538 147.225415 
L 336.511581 147.064118 
L 336.651103 147.013113 
L 336.930146 146.444765 
L 337.34871 146.387797 
L 337.767275 145.933715 
L 338.464882 145.741285 
L 338.743925 145.148759 
L 339.302011 145.027537 
L 339.441533 144.922877 
L 339.581054 143.602361 
L 340.13914 143.341703 
L 340.976269 143.188355 
L 341.255312 142.910805 
L 341.534355 142.308674 
L 341.813398 142.165924 
L 342.790048 141.7443 
L 343.487656 141.139519 
L 344.185263 133.95071 
L 344.603828 125.722909 
L 345.022392 104.231995 
L 345.161914 65.55186 
L 346.417607 65.420041 
L 347.394258 65.309087 
L 348.649951 65.129243 
L 349.068516 64.965627 
L 350.742774 64.772535 
L 351.161338 64.69172 
L 352.137988 64.603289 
L 352.696074 64.461202 
L 354.928418 64.293612 
L 356.742198 64.133308 
L 359.811671 63.895834 
L 360.509278 63.765339 
L 363.439229 63.462618 
L 364.136837 63.330136 
L 365.532052 63.188049 
L 365.950616 63.085044 
L 367.20631 62.955874 
L 367.485353 62.858168 
L 367.764396 62.648515 
L 368.880567 62.523651 
L 370.554825 62.20735 
L 370.833868 62.076855 
L 377.949464 60.996795 
L 378.50755 60.876236 
L 378.926115 60.796416 
L 379.065636 60.575502 
L 380.460851 60.462561 
L 381.437502 60.295302 
L 382.135109 60.233367 
L 382.414152 60.151559 
L 382.553674 59.545454 
L 383.251281 59.504384 
L 383.530324 59.353354 
L 384.08841 59.31096 
L 384.367453 58.987373 
L 385.762668 58.834687 
L 386.320754 58.757516 
L 387.576447 58.562105 
L 389.111184 58.1842 
L 389.529748 58.142799 
L 389.66927 57.827161 
L 390.64592 57.713226 
L 390.924963 57.617839 
L 391.204006 57.593661 
L 391.483049 57.382352 
L 392.041135 57.324391 
L 392.4597 56.960397 
L 392.878264 56.947811 
L 393.157307 56.355616 
L 394.692044 56.176103 
L 395.808215 55.997914 
L 396.22678 55.853509 
L 397.482473 55.694861 
L 397.761516 55.568672 
L 398.319602 55.493489 
L 398.598645 55.210639 
L 399.575296 55.003636 
L 400.412425 54.849957 
L 401.80764 54.52372 
L 402.086683 54.276309 
L 403.621419 53.906684 
L 403.76094 53.171409 
L 404.458548 52.996201 
L 405.295677 52.860738 
L 405.57472 52.588819 
L 407.109456 52.307294 
L 407.528021 52.153284 
L 407.667542 52.100291 
L 407.807064 51.855862 
L 408.225628 51.749545 
L 409.481322 51.388862 
L 409.760365 51.173248 
L 410.039408 50.99241 
L 410.457972 50.892386 
L 410.876537 50.781763 
L 411.574144 50.337948 
L 411.853187 49.975941 
L 412.550794 49.855713 
L 413.10888 49.734823 
L 413.527445 49.32446 
L 414.643617 48.934631 
L 414.783138 48.932975 
L 415.201703 48.583885 
L 415.341224 48.566331 
L 415.759789 47.997652 
L 416.596918 47.888685 
L 416.875961 47.752229 
L 417.015482 47.186199 
L 417.155004 47.160696 
L 417.434047 46.572144 
L 417.573568 46.267767 
L 418.131654 46.18066 
L 418.550219 46.073681 
L 418.829262 45.240368 
L 419.108305 45.19135 
L 419.247826 44.505424 
L 419.666391 44.274905 
L 420.50352 43.919853 
L 420.782563 43.728085 
L 420.922084 43.65787 
L 421.201127 43.276321 
L 421.898734 43.167355 
L 422.45682 42.44599 
L 422.735863 42.425786 
L 422.875385 41.742179 
L 423.712514 41.448068 
L 424.131078 40.778702 
L 424.549643 40.752206 
L 425.107729 39.289604 
L 425.665815 39.016691 
L 426.363422 38.82426 
L 427.06103 37.667029 
L 427.619116 37.113917 
L 428.177202 36.892009 
L 428.456245 36.483633 
L 428.874809 36.264706 
L 429.293374 33.665739 
L 429.432895 33.628975 
L 429.572417 31.703348 
L 429.711938 31.477797 
L 429.990981 29.315358 
L 430.409545 28.222381 
L 430.409545 28.222381 
" style="fill:none;stroke:#1f77b4;stroke-linecap:square;stroke-width:1.5;"/>
   </g>
   <g id="line2d_18">
    <path clip-path="url(#pb84b665a18)" d="M 89.000455 287.007273 
L 89.279498 286.097783 
L 89.558541 285.989479 
L 109.091549 285.993785 
L 109.510114 281.894458 
L 116.067624 281.910687 
L 129.182644 281.868955 
L 129.601209 268.260394 
L 130.019773 267.914947 
L 130.159295 267.67383 
L 135.32159 267.659919 
L 149.273739 267.622824 
L 149.692304 255.297352 
L 149.971347 254.390181 
L 150.389911 252.994151 
L 150.668954 252.927579 
L 169.364834 252.821593 
L 169.92292 241.520208 
L 170.481006 237.636164 
L 170.760049 237.405646 
L 171.597178 237.230438 
L 172.015742 237.116503 
L 172.573828 236.982696 
L 173.69 236.779336 
L 189.455929 236.760458 
L 189.874493 227.152194 
L 190.153536 224.865222 
L 190.572101 221.766797 
L 190.851144 221.27297 
L 191.130187 221.114654 
L 193.083488 219.343699 
L 193.362531 219.166173 
L 209.407502 219.064162 
L 209.547024 219.036341 
L 210.10511 210.823113 
L 210.663196 207.567697 
L 211.08176 206.912242 
L 211.918889 205.553307 
L 213.174582 202.903003 
L 213.314104 202.468793 
L 224.475823 202.202504 
L 224.894388 202.147523 
L 229.638118 202.132288 
L 230.056683 195.363778 
L 230.75429 192.070935 
L 232.289027 189.27755 
L 233.405199 186.720315 
L 235.079457 186.474229 
L 239.265101 185.737629 
L 245.543569 184.332325 
L 249.729213 184.282644 
L 250.287299 178.325587 
L 250.705864 176.495016 
L 252.101079 174.467377 
L 253.635815 171.995261 
L 254.891509 171.666374 
L 258.519067 170.019622 
L 259.216675 169.577463 
L 259.914282 169.142922 
L 265.076577 165.472505 
L 269.820308 165.456276 
L 270.238873 160.743888 
L 270.93648 158.54866 
L 272.331695 156.748559 
L 273.72691 154.780538 
L 275.122125 154.237361 
L 278.610162 151.993115 
L 281.958678 149.21894 
L 285.028151 146.335798 
L 289.911403 146.31162 
L 290.469489 141.166347 
L 291.027575 139.465939 
L 292.283268 137.892383 
L 293.818005 135.792873 
L 295.631784 134.855231 
L 298.143171 133.063411 
L 299.817429 131.644196 
L 301.491687 130.080576 
L 304.142595 127.289179 
L 304.979724 126.24257 
L 310.002498 126.172686 
L 310.421062 121.93624 
L 311.11867 120.044064 
L 312.234842 118.737791 
L 313.630057 116.884366 
L 313.9091 116.600523 
L 315.722879 115.680104 
L 320.187567 112.393886 
L 324.512733 108.311781 
L 325.070819 107.65732 
L 328.837899 107.490392 
L 330.093593 107.390699 
L 330.512157 102.546823 
L 331.209765 100.4493 
L 331.907372 99.619631 
L 334.139716 96.842475 
L 335.395409 96.22014 
L 339.581054 93.084289 
L 341.534355 91.35043 
L 344.882871 87.716115 
L 345.301435 87.356426 
L 350.184688 86.380033 
L 350.603252 83.138858 
L 351.161338 81.489125 
L 351.858945 80.821084 
L 354.230811 78.348968 
L 355.905069 77.583222 
L 358.83502 75.787096 
L 360.648799 74.551038 
L 363.020665 72.785052 
L 365.671573 70.690178 
L 369.717696 69.638271 
L 370.275782 69.449815 
L 370.694347 64.006457 
L 371.391954 62.118587 
L 372.089562 61.350853 
L 374.042863 58.876419 
L 375.577599 58.203741 
L 379.484201 55.449107 
L 383.948889 51.452454 
L 385.483625 49.9564 
L 390.366877 47.841985 
L 391.343528 46.030955 
L 394.413001 44.036106 
L 396.784866 43.342562 
L 399.99386 42.196923 
L 402.78429 41.143359 
L 405.993284 39.965594 
L 410.457972 39.074652 
L 410.876537 34.077096 
L 411.434623 32.974182 
L 412.271751 32.499234 
L 414.364574 31.133675 
L 416.038832 30.739872 
L 418.550219 29.894636 
L 421.340648 28.847365 
L 422.596342 28.372748 
L 423.991557 27.775254 
L 426.363422 27.023087 
L 430.409545 26.352727 
L 430.409545 26.352727 
" style="fill:none;stroke:#ff7f0e;stroke-linecap:square;stroke-width:1.5;"/>
   </g>
   <g id="line2d_19">
    <path clip-path="url(#pb84b665a18)" d="M 89.000455 287.007273 
L 89.419019 284.905444 
L 89.698062 281.894458 
L 90.256148 281.852726 
L 90.674712 268.235222 
L 91.093277 268.266025 
L 91.232798 267.332357 
L 91.651363 257.227285 
L 94.441793 257.127592 
L 94.720836 256.60197 
L 94.860357 256.225058 
L 94.999879 255.065509 
L 95.418443 248.269177 
L 108.114899 248.269177 
L 108.393942 247.113602 
L 108.672985 245.063773 
L 109.231071 238.971584 
L 123.18322 238.911305 
L 123.462263 236.437864 
L 123.880828 230.893488 
L 128.76408 230.893488 
L 128.903601 230.623887 
L 129.182644 228.382621 
L 131.694031 228.286572 
L 132.53116 228.169325 
L 132.810203 228.165682 
L 133.089246 227.768236 
L 133.368289 227.239632 
L 143.274315 227.239632 
L 143.553358 225.341495 
L 143.971922 221.000719 
L 148.855175 221.000719 
L 148.994696 220.861944 
L 149.273739 219.522219 
L 150.808475 219.422526 
L 151.506083 218.798535 
L 151.785126 218.449114 
L 152.622255 217.707877 
L 153.040819 216.9832 
L 153.459384 215.058897 
L 163.36541 215.059891 
L 163.644453 213.72414 
L 164.063017 211.485855 
L 169.085791 211.42955 
L 169.504355 210.801254 
L 170.620527 210.801254 
L 171.318135 209.847714 
L 171.457656 209.714238 
L 172.434307 207.558423 
L 172.992393 206.187896 
L 173.131914 205.738451 
L 173.550479 203.177903 
L 183.456505 203.160018 
L 183.875069 201.940189 
L 184.154112 201.177755 
L 189.176886 201.142316 
L 189.455929 200.855161 
L 190.711622 200.849199 
L 191.548751 198.915623 
L 192.525402 195.502553 
L 193.083488 193.194715 
L 193.641574 190.328796 
L 196.990089 190.221817 
L 198.94339 190.191677 
L 203.129035 190.10192 
L 203.408078 190.057208 
L 203.826642 189.257347 
L 204.245207 188.409793 
L 209.407502 188.315399 
L 209.686545 188.208751 
L 210.802717 188.149797 
L 211.779368 185.933702 
L 212.895539 182.649802 
L 213.732668 180.110783 
L 214.988362 180.121713 
L 217.081184 179.930607 
L 217.918313 179.790176 
L 219.174007 179.518257 
L 221.545872 179.217854 
L 222.383001 179.126772 
L 223.22013 179.055232 
L 223.638694 178.880356 
L 224.19678 178.245766 
L 224.475823 178.132494 
L 229.77764 178.021872 
L 230.75429 177.839709 
L 230.893812 177.804932 
L 231.870462 176.555626 
L 233.823763 173.691694 
L 234.660892 173.471443 
L 235.079457 173.354196 
L 236.195629 172.763326 
L 237.451322 172.201602 
L 238.009408 171.864435 
L 239.683666 170.891354 
L 240.10223 170.48629 
L 240.381273 170.20311 
L 242.055531 169.214793 
L 242.613617 168.698113 
L 244.287875 167.288504 
L 244.566918 167.223919 
L 249.868735 167.114621 
L 250.984907 166.589329 
L 256.426245 162.526104 
L 257.960981 161.068469 
L 259.356196 159.450532 
L 260.751411 157.305647 
L 262.844234 154.054867 
L 263.960406 151.844735 
L 264.797534 151.643693 
L 269.820308 151.611897 
L 271.773609 149.991641 
L 273.866431 148.730081 
L 276.51734 146.282143 
L 278.610162 143.805059 
L 279.865856 142.042716 
L 282.795807 136.94083 
L 283.493414 135.323555 
L 284.0515 134.136847 
L 284.749108 133.934812 
L 289.911403 133.885793 
L 290.60901 132.882904 
L 291.306618 131.904855 
L 294.236569 130.292217 
L 296.887478 127.619721 
L 298.282693 125.969988 
L 299.259343 124.590187 
L 301.491687 120.921427 
L 302.74738 118.478126 
L 303.724031 116.160352 
L 304.142595 115.307829 
L 304.979724 115.148188 
L 310.002498 115.147526 
L 311.537234 112.54061 
L 314.048621 111.223406 
L 315.304315 110.086379 
L 317.955223 107.276102 
L 320.048045 104.534385 
L 322.140868 101.300829 
L 322.838475 99.948187 
L 324.23369 97.098165 
L 325.21034 96.906398 
L 328.558856 96.829227 
L 330.093593 96.598377 
L 331.628329 94.213037 
L 334.55828 92.796141 
L 336.790624 90.762209 
L 338.464882 89.022057 
L 341.394834 85.248967 
L 343.487656 81.785223 
L 344.324785 80.428937 
L 345.999043 80.031491 
L 348.51043 79.251503 
L 349.208037 78.936526 
L 349.905645 78.551997 
L 351.440381 76.408768 
L 353.951768 75.371433 
L 356.742198 73.379896 
L 359.114063 71.415518 
L 362.183536 68.413142 
L 364.276358 66.137431 
L 364.834444 65.9089 
L 365.253009 65.605847 
L 365.811095 65.184223 
L 368.18296 63.032051 
L 368.880567 62.185822 
L 370.97339 59.652433 
L 374.042863 58.75023 
L 379.623722 54.785372 
L 381.29798 53.333037 
L 385.483625 49.318829 
L 387.436926 46.955018 
L 388.971662 44.753828 
L 390.366877 43.518101 
L 392.4597 42.868276 
L 394.273479 42.257534 
L 397.342952 41.07215 
L 399.156731 40.333563 
L 401.110032 39.511842 
L 402.78429 38.762656 
L 403.202855 38.430126 
L 404.737591 36.986734 
L 406.969935 34.606693 
L 408.225628 33.251732 
L 409.620843 32.662849 
L 414.504095 31.158515 
L 420.084955 29.200099 
L 425.526293 27.1559 
L 430.409545 26.352727 
L 430.409545 26.352727 
" style="fill:none;stroke:#2ca02c;stroke-linecap:square;stroke-width:1.5;"/>
   </g>
   <g id="patch_3">
    <path d="M 71.93 300.04 
L 71.93 13.32 
" style="fill:none;stroke:#000000;stroke-linecap:square;stroke-linejoin:miter;stroke-width:0.8;"/>
   </g>
   <g id="patch_4">
    <path d="M 71.93 300.04 
L 447.48 300.04 
" style="fill:none;stroke:#000000;stroke-linecap:square;stroke-linejoin:miter;stroke-width:0.8;"/>
   </g>
   <g id="legend_1">
    <g id="patch_5">
     <path d="M 324.320625 295.04 
L 440.48 295.04 
Q 442.48 295.04 442.48 293.04 
L 442.48 250.005625 
Q 442.48 248.005625 440.48 248.005625 
L 324.320625 248.005625 
Q 322.320625 248.005625 322.320625 250.005625 
L 322.320625 293.04 
Q 322.320625 295.04 324.320625 295.04 
z
" style="fill:#ffffff;opacity:0.8;stroke:#cccccc;stroke-linejoin:miter;"/>
    </g>
    <g id="line2d_20">
     <path d="M 326.320625 256.104062 
L 346.320625 256.104062 
" style="fill:none;stroke:#1f77b4;stroke-linecap:square;stroke-width:1.5;"/>
    </g>
    <g id="line2d_21"/>
    <g id="text_19">
     <!-- by resolution -->
     <defs>
      <path d="M 9.421875 75.984375 
L 18.40625 75.984375 
L 18.40625 0 
L 9.421875 0 
z
" id="DejaVuSans-6c"/>
      <path d="M 9.421875 54.6875 
L 18.40625 54.6875 
L 18.40625 0 
L 9.421875 0 
z
M 9.421875 75.984375 
L 18.40625 75.984375 
L 18.40625 64.59375 
L 9.421875 64.59375 
z
" id="DejaVuSans-69"/>
      <path d="M 54.890625 33.015625 
L 54.890625 0 
L 45.90625 0 
L 45.90625 32.71875 
Q 45.90625 40.484375 42.875 44.328125 
Q 39.84375 48.1875 33.796875 48.1875 
Q 26.515625 48.1875 22.3125 43.546875 
Q 18.109375 38.921875 18.109375 30.90625 
L 18.109375 0 
L 9.078125 0 
L 9.078125 54.6875 
L 18.109375 54.6875 
L 18.109375 46.1875 
Q 21.34375 51.125 25.703125 53.5625 
Q 30.078125 56 35.796875 56 
Q 45.21875 56 50.046875 50.171875 
Q 54.890625 44.34375 54.890625 33.015625 
z
" id="DejaVuSans-6e"/>
     </defs>
     <g transform="translate(354.320625 259.604062)scale(0.1 -0.1)">
      <use xlink:href="#DejaVuSans-62"/>
      <use x="63.476562" xlink:href="#DejaVuSans-79"/>
      <use x="122.65625" xlink:href="#DejaVuSans-20"/>
      <use x="154.443359" xlink:href="#DejaVuSans-72"/>
      <use x="195.525391" xlink:href="#DejaVuSans-65"/>
      <use x="257.048828" xlink:href="#DejaVuSans-73"/>
      <use x="309.148438" xlink:href="#DejaVuSans-6f"/>
      <use x="370.330078" xlink:href="#DejaVuSans-6c"/>
      <use x="398.113281" xlink:href="#DejaVuSans-75"/>
      <use x="461.492188" xlink:href="#DejaVuSans-74"/>
      <use x="500.701172" xlink:href="#DejaVuSans-69"/>
      <use x="528.484375" xlink:href="#DejaVuSans-6f"/>
      <use x="589.666016" xlink:href="#DejaVuSans-6e"/>
     </g>
    </g>
    <g id="line2d_22">
     <path d="M 326.320625 270.782187 
L 346.320625 270.782187 
" style="fill:none;stroke:#ff7f0e;stroke-linecap:square;stroke-width:1.5;"/>
    </g>
    <g id="line2d_23"/>
    <g id="text_20">
     <!-- by precision -->
     <defs>
      <path d="M 18.109375 8.203125 
L 18.109375 -20.796875 
L 9.078125 -20.796875 
L 9.078125 54.6875 
L 18.109375 54.6875 
L 18.109375 46.390625 
Q 20.953125 51.265625 25.265625 53.625 
Q 29.59375 56 35.59375 56 
Q 45.5625 56 51.78125 48.09375 
Q 58.015625 40.1875 58.015625 27.296875 
Q 58.015625 14.40625 51.78125 6.484375 
Q 45.5625 -1.421875 35.59375 -1.421875 
Q 29.59375 -1.421875 25.265625 0.953125 
Q 20.953125 3.328125 18.109375 8.203125 
z
M 48.6875 27.296875 
Q 48.6875 37.203125 44.609375 42.84375 
Q 40.53125 48.484375 33.40625 48.484375 
Q 26.265625 48.484375 22.1875 42.84375 
Q 18.109375 37.203125 18.109375 27.296875 
Q 18.109375 17.390625 22.1875 11.75 
Q 26.265625 6.109375 33.40625 6.109375 
Q 40.53125 6.109375 44.609375 11.75 
Q 48.6875 17.390625 48.6875 27.296875 
z
" id="DejaVuSans-70"/>
      <path d="M 48.78125 52.59375 
L 48.78125 44.1875 
Q 44.96875 46.296875 41.140625 47.34375 
Q 37.3125 48.390625 33.40625 48.390625 
Q 24.65625 48.390625 19.8125 42.84375 
Q 14.984375 37.3125 14.984375 27.296875 
Q 14.984375 17.28125 19.8125 11.734375 
Q 24.65625 6.203125 33.40625 6.203125 
Q 37.3125 6.203125 41.140625 7.25 
Q 44.96875 8.296875 48.78125 10.40625 
L 48.78125 2.09375 
Q 45.015625 0.34375 40.984375 -0.53125 
Q 36.96875 -1.421875 32.421875 -1.421875 
Q 20.0625 -1.421875 12.78125 6.34375 
Q 5.515625 14.109375 5.515625 27.296875 
Q 5.515625 40.671875 12.859375 48.328125 
Q 20.21875 56 33.015625 56 
Q 37.15625 56 41.109375 55.140625 
Q 45.0625 54.296875 48.78125 52.59375 
z
" id="DejaVuSans-63"/>
     </defs>
     <g transform="translate(354.320625 274.282187)scale(0.1 -0.1)">
      <use xlink:href="#DejaVuSans-62"/>
      <use x="63.476562" xlink:href="#DejaVuSans-79"/>
      <use x="122.65625" xlink:href="#DejaVuSans-20"/>
      <use x="154.443359" xlink:href="#DejaVuSans-70"/>
      <use x="217.919922" xlink:href="#DejaVuSans-72"/>
      <use x="259.001953" xlink:href="#DejaVuSans-65"/>
      <use x="320.525391" xlink:href="#DejaVuSans-63"/>
      <use x="375.505859" xlink:href="#DejaVuSans-69"/>
      <use x="403.289062" xlink:href="#DejaVuSans-73"/>
      <use x="455.388672" xlink:href="#DejaVuSans-69"/>
      <use x="483.171875" xlink:href="#DejaVuSans-6f"/>
      <use x="544.353516" xlink:href="#DejaVuSans-6e"/>
     </g>
    </g>
    <g id="line2d_24">
     <path d="M 326.320625 285.460312 
L 346.320625 285.460312 
" style="fill:none;stroke:#2ca02c;stroke-linecap:square;stroke-width:1.5;"/>
    </g>
    <g id="line2d_25"/>
    <g id="text_21">
     <!-- by wavelet norm -->
     <defs>
      <path d="M 4.203125 54.6875 
L 13.1875 54.6875 
L 24.421875 12.015625 
L 35.59375 54.6875 
L 46.1875 54.6875 
L 57.421875 12.015625 
L 68.609375 54.6875 
L 77.59375 54.6875 
L 63.28125 0 
L 52.6875 0 
L 40.921875 44.828125 
L 29.109375 0 
L 18.5 0 
z
" id="DejaVuSans-77"/>
      <path d="M 2.984375 54.6875 
L 12.5 54.6875 
L 29.59375 8.796875 
L 46.6875 54.6875 
L 56.203125 54.6875 
L 35.6875 0 
L 23.484375 0 
z
" id="DejaVuSans-76"/>
     </defs>
     <g transform="translate(354.320625 288.960312)scale(0.1 -0.1)">
      <use xlink:href="#DejaVuSans-62"/>
      <use x="63.476562" xlink:href="#DejaVuSans-79"/>
      <use x="122.65625" xlink:href="#DejaVuSans-20"/>
      <use x="154.443359" xlink:href="#DejaVuSans-77"/>
      <use x="236.230469" xlink:href="#DejaVuSans-61"/>
      <use x="297.509766" xlink:href="#DejaVuSans-76"/>
      <use x="356.689453" xlink:href="#DejaVuSans-65"/>
      <use x="418.212891" xlink:href="#DejaVuSans-6c"/>
      <use x="445.996094" xlink:href="#DejaVuSans-65"/>
      <use x="507.519531" xlink:href="#DejaVuSans-74"/>
      <use x="546.728516" xlink:href="#DejaVuSans-20"/>
      <use x="578.515625" xlink:href="#DejaVuSans-6e"/>
      <use x="641.894531" xlink:href="#DejaVuSans-6f"/>
      <use x="703.076172" xlink:href="#DejaVuSans-72"/>
      <use x="744.173828" xlink:href="#DejaVuSans-6d"/>
     </g>
    </g>
   </g>
  </g>
 </g>
 <defs>
  <clipPath id="pb84b665a18">
   <rect height="286.72" width="375.55" x="71.93" y="13.32"/>
  </clipPath>
 </defs>
</svg>
