<?xml version="1.0" encoding="utf-8" standalone="no"?>
<!DOCTYPE svg PUBLIC "-//W3C//DTD SVG 1.1//EN"
  "http://www.w3.org/Graphics/SVG/1.1/DTD/svg11.dtd">
<!-- Created with matplotlib (http://matplotlib.org/) -->
<svg height="345pt" version="1.1" viewBox="0 0 460 345" width="460pt" xmlns="http://www.w3.org/2000/svg" xmlns:xlink="http://www.w3.org/1999/xlink">
 <defs>
  <style type="text/css">
*{stroke-linecap:butt;stroke-linejoin:round;}
  </style>
 </defs>
 <g id="figure_1">
  <g id="patch_1">
   <path d="M 0 345.6 
L 460.8 345.6 
L 460.8 0 
L 0 0 
z
" style="fill:#ffffff;"/>
  </g>
  <g id="axes_1">
   <g id="patch_2">
    <path d="M 71.93 300.04 
L 445.565162 300.04 
L 445.565162 13.32 
L 71.93 13.32 
z
" style="fill:#ffffff;"/>
   </g>
   <g id="matplotlib.axis_1">
    <g id="xtick_1">
     <g id="line2d_1">
      <defs>
       <path d="M 0 0 
L 0 3.5 
" id="ma79759a119" style="stroke:#000000;stroke-width:0.8;"/>
      </defs>
      <g>
       <use style="stroke:#000000;stroke-width:0.8;" x="88.774606" xlink:href="#ma79759a119" y="300.04"/>
      </g>
     </g>
     <g id="text_1">
      <!-- 0.0 -->
      <defs>
       <path d="M 31.78125 66.40625 
Q 24.171875 66.40625 20.328125 58.90625 
Q 16.5 51.421875 16.5 36.375 
Q 16.5 21.390625 20.328125 13.890625 
Q 24.171875 6.390625 31.78125 6.390625 
Q 39.453125 6.390625 43.28125 13.890625 
Q 47.125 21.390625 47.125 36.375 
Q 47.125 51.421875 43.28125 58.90625 
Q 39.453125 66.40625 31.78125 66.40625 
z
M 31.78125 74.21875 
Q 44.046875 74.21875 50.515625 64.515625 
Q 56.984375 54.828125 56.984375 36.375 
Q 56.984375 17.96875 50.515625 8.265625 
Q 44.046875 -1.421875 31.78125 -1.421875 
Q 19.53125 -1.421875 13.0625 8.265625 
Q 6.59375 17.96875 6.59375 36.375 
Q 6.59375 54.828125 13.0625 64.515625 
Q 19.53125 74.21875 31.78125 74.21875 
z
" id="DejaVuSans-30"/>
       <path d="M 10.6875 12.40625 
L 21 12.40625 
L 21 0 
L 10.6875 0 
z
" id="DejaVuSans-2e"/>
      </defs>
      <g transform="translate(80.823044 314.638437)scale(0.1 -0.1)">
       <use xlink:href="#DejaVuSans-30"/>
       <use x="63.623047" xlink:href="#DejaVuSans-2e"/>
       <use x="95.410156" xlink:href="#DejaVuSans-30"/>
      </g>
     </g>
    </g>
    <g id="xtick_2">
     <g id="line2d_2">
      <g>
       <use style="stroke:#000000;stroke-width:0.8;" x="138.746245" xlink:href="#ma79759a119" y="300.04"/>
      </g>
     </g>
     <g id="text_2">
      <!-- 2.5 -->
      <defs>
       <path d="M 19.1875 8.296875 
L 53.609375 8.296875 
L 53.609375 0 
L 7.328125 0 
L 7.328125 8.296875 
Q 12.9375 14.109375 22.625 23.890625 
Q 32.328125 33.6875 34.8125 36.53125 
Q 39.546875 41.84375 41.421875 45.53125 
Q 43.3125 49.21875 43.3125 52.78125 
Q 43.3125 58.59375 39.234375 62.25 
Q 35.15625 65.921875 28.609375 65.921875 
Q 23.96875 65.921875 18.8125 64.3125 
Q 13.671875 62.703125 7.8125 59.421875 
L 7.8125 69.390625 
Q 13.765625 71.78125 18.9375 73 
Q 24.125 74.21875 28.421875 74.21875 
Q 39.75 74.21875 46.484375 68.546875 
Q 53.21875 62.890625 53.21875 53.421875 
Q 53.21875 48.921875 51.53125 44.890625 
Q 49.859375 40.875 45.40625 35.40625 
Q 44.1875 33.984375 37.640625 27.21875 
Q 31.109375 20.453125 19.1875 8.296875 
z
" id="DejaVuSans-32"/>
       <path d="M 10.796875 72.90625 
L 49.515625 72.90625 
L 49.515625 64.59375 
L 19.828125 64.59375 
L 19.828125 46.734375 
Q 21.96875 47.46875 24.109375 47.828125 
Q 26.265625 48.1875 28.421875 48.1875 
Q 40.625 48.1875 47.75 41.5 
Q 54.890625 34.8125 54.890625 23.390625 
Q 54.890625 11.625 47.5625 5.09375 
Q 40.234375 -1.421875 26.90625 -1.421875 
Q 22.3125 -1.421875 17.546875 -0.640625 
Q 12.796875 0.140625 7.71875 1.703125 
L 7.71875 11.625 
Q 12.109375 9.234375 16.796875 8.0625 
Q 21.484375 6.890625 26.703125 6.890625 
Q 35.15625 6.890625 40.078125 11.328125 
Q 45.015625 15.765625 45.015625 23.390625 
Q 45.015625 31 40.078125 35.4375 
Q 35.15625 39.890625 26.703125 39.890625 
Q 22.75 39.890625 18.8125 39.015625 
Q 14.890625 38.140625 10.796875 36.28125 
z
" id="DejaVuSans-35"/>
      </defs>
      <g transform="translate(130.794682 314.638437)scale(0.1 -0.1)">
       <use xlink:href="#DejaVuSans-32"/>
       <use x="63.623047" xlink:href="#DejaVuSans-2e"/>
       <use x="95.410156" xlink:href="#DejaVuSans-35"/>
      </g>
     </g>
    </g>
    <g id="xtick_3">
     <g id="line2d_3">
      <g>
       <use style="stroke:#000000;stroke-width:0.8;" x="188.717883" xlink:href="#ma79759a119" y="300.04"/>
      </g>
     </g>
     <g id="text_3">
      <!-- 5.0 -->
      <g transform="translate(180.76632 314.638437)scale(0.1 -0.1)">
       <use xlink:href="#DejaVuSans-35"/>
       <use x="63.623047" xlink:href="#DejaVuSans-2e"/>
       <use x="95.410156" xlink:href="#DejaVuSans-30"/>
      </g>
     </g>
    </g>
    <g id="xtick_4">
     <g id="line2d_4">
      <g>
       <use style="stroke:#000000;stroke-width:0.8;" x="238.689521" xlink:href="#ma79759a119" y="300.04"/>
      </g>
     </g>
     <g id="text_4">
      <!-- 7.5 -->
      <defs>
       <path d="M 8.203125 72.90625 
L 55.078125 72.90625 
L 55.078125 68.703125 
L 28.609375 0 
L 18.3125 0 
L 43.21875 64.59375 
L 8.203125 64.59375 
z
" id="DejaVuSans-37"/>
      </defs>
      <g transform="translate(230.737958 314.638437)scale(0.1 -0.1)">
       <use xlink:href="#DejaVuSans-37"/>
       <use x="63.623047" xlink:href="#DejaVuSans-2e"/>
       <use x="95.410156" xlink:href="#DejaVuSans-35"/>
      </g>
     </g>
    </g>
    <g id="xtick_5">
     <g id="line2d_5">
      <g>
       <use style="stroke:#000000;stroke-width:0.8;" x="288.661159" xlink:href="#ma79759a119" y="300.04"/>
      </g>
     </g>
     <g id="text_5">
      <!-- 10.0 -->
      <defs>
       <path d="M 12.40625 8.296875 
L 28.515625 8.296875 
L 28.515625 63.921875 
L 10.984375 60.40625 
L 10.984375 69.390625 
L 28.421875 72.90625 
L 38.28125 72.90625 
L 38.28125 8.296875 
L 54.390625 8.296875 
L 54.390625 0 
L 12.40625 0 
z
" id="DejaVuSans-31"/>
      </defs>
      <g transform="translate(277.528346 314.638437)scale(0.1 -0.1)">
       <use xlink:href="#DejaVuSans-31"/>
       <use x="63.623047" xlink:href="#DejaVuSans-30"/>
       <use x="127.246094" xlink:href="#DejaVuSans-2e"/>
       <use x="159.033203" xlink:href="#DejaVuSans-30"/>
      </g>
     </g>
    </g>
    <g id="xtick_6">
     <g id="line2d_6">
      <g>
       <use style="stroke:#000000;stroke-width:0.8;" x="338.632797" xlink:href="#ma79759a119" y="300.04"/>
      </g>
     </g>
     <g id="text_6">
      <!-- 12.5 -->
      <g transform="translate(327.499984 314.638437)scale(0.1 -0.1)">
       <use xlink:href="#DejaVuSans-31"/>
       <use x="63.623047" xlink:href="#DejaVuSans-32"/>
       <use x="127.246094" xlink:href="#DejaVuSans-2e"/>
       <use x="159.033203" xlink:href="#DejaVuSans-35"/>
      </g>
     </g>
    </g>
    <g id="xtick_7">
     <g id="line2d_7">
      <g>
       <use style="stroke:#000000;stroke-width:0.8;" x="388.604435" xlink:href="#ma79759a119" y="300.04"/>
      </g>
     </g>
     <g id="text_7">
      <!-- 15.0 -->
      <g transform="translate(377.471623 314.638437)scale(0.1 -0.1)">
       <use xlink:href="#DejaVuSans-31"/>
       <use x="63.623047" xlink:href="#DejaVuSans-35"/>
       <use x="127.246094" xlink:href="#DejaVuSans-2e"/>
       <use x="159.033203" xlink:href="#DejaVuSans-30"/>
      </g>
     </g>
    </g>
    <g id="xtick_8">
     <g id="line2d_8">
      <g>
       <use style="stroke:#000000;stroke-width:0.8;" x="438.576073" xlink:href="#ma79759a119" y="300.04"/>
      </g>
     </g>
     <g id="text_8">
      <!-- 17.5 -->
      <g transform="translate(427.443261 314.638437)scale(0.1 -0.1)">
       <use xlink:href="#DejaVuSans-31"/>
       <use x="63.623047" xlink:href="#DejaVuSans-37"/>
       <use x="127.246094" xlink:href="#DejaVuSans-2e"/>
       <use x="159.033203" xlink:href="#DejaVuSans-35"/>
      </g>
     </g>
    </g>
    <g id="text_9">
     <!-- Number of Streamed Bytes -->
     <defs>
      <path d="M 9.8125 72.90625 
L 23.09375 72.90625 
L 55.421875 11.921875 
L 55.421875 72.90625 
L 64.984375 72.90625 
L 64.984375 0 
L 51.703125 0 
L 19.390625 60.984375 
L 19.390625 0 
L 9.8125 0 
z
" id="DejaVuSans-4e"/>
      <path d="M 8.5 21.578125 
L 8.5 54.6875 
L 17.484375 54.6875 
L 17.484375 21.921875 
Q 17.484375 14.15625 20.5 10.265625 
Q 23.53125 6.390625 29.59375 6.390625 
Q 36.859375 6.390625 41.078125 11.03125 
Q 45.3125 15.671875 45.3125 23.6875 
L 45.3125 54.6875 
L 54.296875 54.6875 
L 54.296875 0 
L 45.3125 0 
L 45.3125 8.40625 
Q 42.046875 3.421875 37.71875 1 
Q 33.40625 -1.421875 27.6875 -1.421875 
Q 18.265625 -1.421875 13.375 4.4375 
Q 8.5 10.296875 8.5 21.578125 
z
M 31.109375 56 
z
" id="DejaVuSans-75"/>
      <path d="M 52 44.1875 
Q 55.375 50.25 60.0625 53.125 
Q 64.75 56 71.09375 56 
Q 79.640625 56 84.28125 50.015625 
Q 88.921875 44.046875 88.921875 33.015625 
L 88.921875 0 
L 79.890625 0 
L 79.890625 32.71875 
Q 79.890625 40.578125 77.09375 44.375 
Q 74.3125 48.1875 68.609375 48.1875 
Q 61.625 48.1875 57.5625 43.546875 
Q 53.515625 38.921875 53.515625 30.90625 
L 53.515625 0 
L 44.484375 0 
L 44.484375 32.71875 
Q 44.484375 40.625 41.703125 44.40625 
Q 38.921875 48.1875 33.109375 48.1875 
Q 26.21875 48.1875 22.15625 43.53125 
Q 18.109375 38.875 18.109375 30.90625 
L 18.109375 0 
L 9.078125 0 
L 9.078125 54.6875 
L 18.109375 54.6875 
L 18.109375 46.1875 
Q 21.1875 51.21875 25.484375 53.609375 
Q 29.78125 56 35.6875 56 
Q 41.65625 56 45.828125 52.96875 
Q 50 49.953125 52 44.1875 
z
" id="DejaVuSans-6d"/>
      <path d="M 48.6875 27.296875 
Q 48.6875 37.203125 44.609375 42.84375 
Q 40.53125 48.484375 33.40625 48.484375 
Q 26.265625 48.484375 22.1875 42.84375 
Q 18.109375 37.203125 18.109375 27.296875 
Q 18.109375 17.390625 22.1875 11.75 
Q 26.265625 6.109375 33.40625 6.109375 
Q 40.53125 6.109375 44.609375 11.75 
Q 48.6875 17.390625 48.6875 27.296875 
z
M 18.109375 46.390625 
Q 20.953125 51.265625 25.265625 53.625 
Q 29.59375 56 35.59375 56 
Q 45.5625 56 51.78125 48.09375 
Q 58.015625 40.1875 58.015625 27.296875 
Q 58.015625 14.40625 51.78125 6.484375 
Q 45.5625 -1.421875 35.59375 -1.421875 
Q 29.59375 -1.421875 25.265625 0.953125 
Q 20.953125 3.328125 18.109375 8.203125 
L 18.109375 0 
L 9.078125 0 
L 9.078125 75.984375 
L 18.109375 75.984375 
z
" id="DejaVuSans-62"/>
      <path d="M 56.203125 29.59375 
L 56.203125 25.203125 
L 14.890625 25.203125 
Q 15.484375 15.921875 20.484375 11.0625 
Q 25.484375 6.203125 34.421875 6.203125 
Q 39.59375 6.203125 44.453125 7.46875 
Q 49.3125 8.734375 54.109375 11.28125 
L 54.109375 2.78125 
Q 49.265625 0.734375 44.1875 -0.34375 
Q 39.109375 -1.421875 33.890625 -1.421875 
Q 20.796875 -1.421875 13.15625 6.1875 
Q 5.515625 13.8125 5.515625 26.8125 
Q 5.515625 40.234375 12.765625 48.109375 
Q 20.015625 56 32.328125 56 
Q 43.359375 56 49.78125 48.890625 
Q 56.203125 41.796875 56.203125 29.59375 
z
M 47.21875 32.234375 
Q 47.125 39.59375 43.09375 43.984375 
Q 39.0625 48.390625 32.421875 48.390625 
Q 24.90625 48.390625 20.390625 44.140625 
Q 15.875 39.890625 15.1875 32.171875 
z
" id="DejaVuSans-65"/>
      <path d="M 41.109375 46.296875 
Q 39.59375 47.171875 37.8125 47.578125 
Q 36.03125 48 33.890625 48 
Q 26.265625 48 22.1875 43.046875 
Q 18.109375 38.09375 18.109375 28.8125 
L 18.109375 0 
L 9.078125 0 
L 9.078125 54.6875 
L 18.109375 54.6875 
L 18.109375 46.1875 
Q 20.953125 51.171875 25.484375 53.578125 
Q 30.03125 56 36.53125 56 
Q 37.453125 56 38.578125 55.875 
Q 39.703125 55.765625 41.0625 55.515625 
z
" id="DejaVuSans-72"/>
      <path id="DejaVuSans-20"/>
      <path d="M 30.609375 48.390625 
Q 23.390625 48.390625 19.1875 42.75 
Q 14.984375 37.109375 14.984375 27.296875 
Q 14.984375 17.484375 19.15625 11.84375 
Q 23.34375 6.203125 30.609375 6.203125 
Q 37.796875 6.203125 41.984375 11.859375 
Q 46.1875 17.53125 46.1875 27.296875 
Q 46.1875 37.015625 41.984375 42.703125 
Q 37.796875 48.390625 30.609375 48.390625 
z
M 30.609375 56 
Q 42.328125 56 49.015625 48.375 
Q 55.71875 40.765625 55.71875 27.296875 
Q 55.71875 13.875 49.015625 6.21875 
Q 42.328125 -1.421875 30.609375 -1.421875 
Q 18.84375 -1.421875 12.171875 6.21875 
Q 5.515625 13.875 5.515625 27.296875 
Q 5.515625 40.765625 12.171875 48.375 
Q 18.84375 56 30.609375 56 
z
" id="DejaVuSans-6f"/>
      <path d="M 37.109375 75.984375 
L 37.109375 68.5 
L 28.515625 68.5 
Q 23.6875 68.5 21.796875 66.546875 
Q 19.921875 64.59375 19.921875 59.515625 
L 19.921875 54.6875 
L 34.71875 54.6875 
L 34.71875 47.703125 
L 19.921875 47.703125 
L 19.921875 0 
L 10.890625 0 
L 10.890625 47.703125 
L 2.296875 47.703125 
L 2.296875 54.6875 
L 10.890625 54.6875 
L 10.890625 58.5 
Q 10.890625 67.625 15.140625 71.796875 
Q 19.390625 75.984375 28.609375 75.984375 
z
" id="DejaVuSans-66"/>
      <path d="M 53.515625 70.515625 
L 53.515625 60.890625 
Q 47.90625 63.578125 42.921875 64.890625 
Q 37.9375 66.21875 33.296875 66.21875 
Q 25.25 66.21875 20.875 63.09375 
Q 16.5 59.96875 16.5 54.203125 
Q 16.5 49.359375 19.40625 46.890625 
Q 22.3125 44.4375 30.421875 42.921875 
L 36.375 41.703125 
Q 47.40625 39.59375 52.65625 34.296875 
Q 57.90625 29 57.90625 20.125 
Q 57.90625 9.515625 50.796875 4.046875 
Q 43.703125 -1.421875 29.984375 -1.421875 
Q 24.8125 -1.421875 18.96875 -0.25 
Q 13.140625 0.921875 6.890625 3.21875 
L 6.890625 13.375 
Q 12.890625 10.015625 18.65625 8.296875 
Q 24.421875 6.59375 29.984375 6.59375 
Q 38.421875 6.59375 43.015625 9.90625 
Q 47.609375 13.234375 47.609375 19.390625 
Q 47.609375 24.75 44.3125 27.78125 
Q 41.015625 30.8125 33.5 32.328125 
L 27.484375 33.5 
Q 16.453125 35.6875 11.515625 40.375 
Q 6.59375 45.0625 6.59375 53.421875 
Q 6.59375 63.09375 13.40625 68.65625 
Q 20.21875 74.21875 32.171875 74.21875 
Q 37.3125 74.21875 42.625 73.28125 
Q 47.953125 72.359375 53.515625 70.515625 
z
" id="DejaVuSans-53"/>
      <path d="M 18.3125 70.21875 
L 18.3125 54.6875 
L 36.8125 54.6875 
L 36.8125 47.703125 
L 18.3125 47.703125 
L 18.3125 18.015625 
Q 18.3125 11.328125 20.140625 9.421875 
Q 21.96875 7.515625 27.59375 7.515625 
L 36.8125 7.515625 
L 36.8125 0 
L 27.59375 0 
Q 17.1875 0 13.234375 3.875 
Q 9.28125 7.765625 9.28125 18.015625 
L 9.28125 47.703125 
L 2.6875 47.703125 
L 2.6875 54.6875 
L 9.28125 54.6875 
L 9.28125 70.21875 
z
" id="DejaVuSans-74"/>
      <path d="M 34.28125 27.484375 
Q 23.390625 27.484375 19.1875 25 
Q 14.984375 22.515625 14.984375 16.5 
Q 14.984375 11.71875 18.140625 8.90625 
Q 21.296875 6.109375 26.703125 6.109375 
Q 34.1875 6.109375 38.703125 11.40625 
Q 43.21875 16.703125 43.21875 25.484375 
L 43.21875 27.484375 
z
M 52.203125 31.203125 
L 52.203125 0 
L 43.21875 0 
L 43.21875 8.296875 
Q 40.140625 3.328125 35.546875 0.953125 
Q 30.953125 -1.421875 24.3125 -1.421875 
Q 15.921875 -1.421875 10.953125 3.296875 
Q 6 8.015625 6 15.921875 
Q 6 25.140625 12.171875 29.828125 
Q 18.359375 34.515625 30.609375 34.515625 
L 43.21875 34.515625 
L 43.21875 35.40625 
Q 43.21875 41.609375 39.140625 45 
Q 35.0625 48.390625 27.6875 48.390625 
Q 23 48.390625 18.546875 47.265625 
Q 14.109375 46.140625 10.015625 43.890625 
L 10.015625 52.203125 
Q 14.9375 54.109375 19.578125 55.046875 
Q 24.21875 56 28.609375 56 
Q 40.484375 56 46.34375 49.84375 
Q 52.203125 43.703125 52.203125 31.203125 
z
" id="DejaVuSans-61"/>
      <path d="M 45.40625 46.390625 
L 45.40625 75.984375 
L 54.390625 75.984375 
L 54.390625 0 
L 45.40625 0 
L 45.40625 8.203125 
Q 42.578125 3.328125 38.25 0.953125 
Q 33.9375 -1.421875 27.875 -1.421875 
Q 17.96875 -1.421875 11.734375 6.484375 
Q 5.515625 14.40625 5.515625 27.296875 
Q 5.515625 40.1875 11.734375 48.09375 
Q 17.96875 56 27.875 56 
Q 33.9375 56 38.25 53.625 
Q 42.578125 51.265625 45.40625 46.390625 
z
M 14.796875 27.296875 
Q 14.796875 17.390625 18.875 11.75 
Q 22.953125 6.109375 30.078125 6.109375 
Q 37.203125 6.109375 41.296875 11.75 
Q 45.40625 17.390625 45.40625 27.296875 
Q 45.40625 37.203125 41.296875 42.84375 
Q 37.203125 48.484375 30.078125 48.484375 
Q 22.953125 48.484375 18.875 42.84375 
Q 14.796875 37.203125 14.796875 27.296875 
z
" id="DejaVuSans-64"/>
      <path d="M 19.671875 34.8125 
L 19.671875 8.109375 
L 35.5 8.109375 
Q 43.453125 8.109375 47.28125 11.40625 
Q 51.125 14.703125 51.125 21.484375 
Q 51.125 28.328125 47.28125 31.5625 
Q 43.453125 34.8125 35.5 34.8125 
z
M 19.671875 64.796875 
L 19.671875 42.828125 
L 34.28125 42.828125 
Q 41.5 42.828125 45.03125 45.53125 
Q 48.578125 48.25 48.578125 53.8125 
Q 48.578125 59.328125 45.03125 62.0625 
Q 41.5 64.796875 34.28125 64.796875 
z
M 9.8125 72.90625 
L 35.015625 72.90625 
Q 46.296875 72.90625 52.390625 68.21875 
Q 58.5 63.53125 58.5 54.890625 
Q 58.5 48.1875 55.375 44.234375 
Q 52.25 40.28125 46.1875 39.3125 
Q 53.46875 37.75 57.5 32.78125 
Q 61.53125 27.828125 61.53125 20.40625 
Q 61.53125 10.640625 54.890625 5.3125 
Q 48.25 0 35.984375 0 
L 9.8125 0 
z
" id="DejaVuSans-42"/>
      <path d="M 32.171875 -5.078125 
Q 28.375 -14.84375 24.75 -17.8125 
Q 21.140625 -20.796875 15.09375 -20.796875 
L 7.90625 -20.796875 
L 7.90625 -13.28125 
L 13.1875 -13.28125 
Q 16.890625 -13.28125 18.9375 -11.515625 
Q 21 -9.765625 23.484375 -3.21875 
L 25.09375 0.875 
L 2.984375 54.6875 
L 12.5 54.6875 
L 29.59375 11.921875 
L 46.6875 54.6875 
L 56.203125 54.6875 
z
" id="DejaVuSans-79"/>
      <path d="M 44.28125 53.078125 
L 44.28125 44.578125 
Q 40.484375 46.53125 36.375 47.5 
Q 32.28125 48.484375 27.875 48.484375 
Q 21.1875 48.484375 17.84375 46.4375 
Q 14.5 44.390625 14.5 40.28125 
Q 14.5 37.15625 16.890625 35.375 
Q 19.28125 33.59375 26.515625 31.984375 
L 29.59375 31.296875 
Q 39.15625 29.25 43.1875 25.515625 
Q 47.21875 21.78125 47.21875 15.09375 
Q 47.21875 7.46875 41.1875 3.015625 
Q 35.15625 -1.421875 24.609375 -1.421875 
Q 20.21875 -1.421875 15.453125 -0.5625 
Q 10.6875 0.296875 5.421875 2 
L 5.421875 11.28125 
Q 10.40625 8.6875 15.234375 7.390625 
Q 20.0625 6.109375 24.8125 6.109375 
Q 31.15625 6.109375 34.5625 8.28125 
Q 37.984375 10.453125 37.984375 14.40625 
Q 37.984375 18.0625 35.515625 20.015625 
Q 33.0625 21.96875 24.703125 23.78125 
L 21.578125 24.515625 
Q 13.234375 26.265625 9.515625 29.90625 
Q 5.8125 33.546875 5.8125 39.890625 
Q 5.8125 47.609375 11.28125 51.796875 
Q 16.75 56 26.8125 56 
Q 31.78125 56 36.171875 55.265625 
Q 40.578125 54.546875 44.28125 53.078125 
z
" id="DejaVuSans-73"/>
     </defs>
     <g transform="translate(163.332112 331.355937)scale(0.14 -0.14)">
      <use xlink:href="#DejaVuSans-4e"/>
      <use x="74.804688" xlink:href="#DejaVuSans-75"/>
      <use x="138.183594" xlink:href="#DejaVuSans-6d"/>
      <use x="235.595703" xlink:href="#DejaVuSans-62"/>
      <use x="299.072266" xlink:href="#DejaVuSans-65"/>
      <use x="360.595703" xlink:href="#DejaVuSans-72"/>
      <use x="401.708984" xlink:href="#DejaVuSans-20"/>
      <use x="433.496094" xlink:href="#DejaVuSans-6f"/>
      <use x="494.677734" xlink:href="#DejaVuSans-66"/>
      <use x="529.882812" xlink:href="#DejaVuSans-20"/>
      <use x="561.669922" xlink:href="#DejaVuSans-53"/>
      <use x="625.146484" xlink:href="#DejaVuSans-74"/>
      <use x="664.355469" xlink:href="#DejaVuSans-72"/>
      <use x="705.4375" xlink:href="#DejaVuSans-65"/>
      <use x="766.960938" xlink:href="#DejaVuSans-61"/>
      <use x="828.240234" xlink:href="#DejaVuSans-6d"/>
      <use x="925.652344" xlink:href="#DejaVuSans-65"/>
      <use x="987.175781" xlink:href="#DejaVuSans-64"/>
      <use x="1050.652344" xlink:href="#DejaVuSans-20"/>
      <use x="1082.439453" xlink:href="#DejaVuSans-42"/>
      <use x="1151.042969" xlink:href="#DejaVuSans-79"/>
      <use x="1210.222656" xlink:href="#DejaVuSans-74"/>
      <use x="1249.431641" xlink:href="#DejaVuSans-65"/>
      <use x="1310.955078" xlink:href="#DejaVuSans-73"/>
     </g>
    </g>
   </g>
   <g id="matplotlib.axis_2">
    <g id="ytick_1">
     <g id="line2d_9">
      <defs>
       <path d="M 0 0 
L -3.5 0 
" id="m598a03ecd9" style="stroke:#000000;stroke-width:0.8;"/>
      </defs>
      <g>
       <use style="stroke:#000000;stroke-width:0.8;" x="71.93" xlink:href="#m598a03ecd9" y="296.819391"/>
      </g>
     </g>
     <g id="text_10">
      <!-- 10 -->
      <g transform="translate(52.205 300.61861)scale(0.1 -0.1)">
       <use xlink:href="#DejaVuSans-31"/>
       <use x="63.623047" xlink:href="#DejaVuSans-30"/>
      </g>
     </g>
    </g>
    <g id="ytick_2">
     <g id="line2d_10">
      <g>
       <use style="stroke:#000000;stroke-width:0.8;" x="71.93" xlink:href="#m598a03ecd9" y="263.473195"/>
      </g>
     </g>
     <g id="text_11">
      <!-- 20 -->
      <g transform="translate(52.205 267.272413)scale(0.1 -0.1)">
       <use xlink:href="#DejaVuSans-32"/>
       <use x="63.623047" xlink:href="#DejaVuSans-30"/>
      </g>
     </g>
    </g>
    <g id="ytick_3">
     <g id="line2d_11">
      <g>
       <use style="stroke:#000000;stroke-width:0.8;" x="71.93" xlink:href="#m598a03ecd9" y="230.126998"/>
      </g>
     </g>
     <g id="text_12">
      <!-- 30 -->
      <defs>
       <path d="M 40.578125 39.3125 
Q 47.65625 37.796875 51.625 33 
Q 55.609375 28.21875 55.609375 21.1875 
Q 55.609375 10.40625 48.1875 4.484375 
Q 40.765625 -1.421875 27.09375 -1.421875 
Q 22.515625 -1.421875 17.65625 -0.515625 
Q 12.796875 0.390625 7.625 2.203125 
L 7.625 11.71875 
Q 11.71875 9.328125 16.59375 8.109375 
Q 21.484375 6.890625 26.8125 6.890625 
Q 36.078125 6.890625 40.9375 10.546875 
Q 45.796875 14.203125 45.796875 21.1875 
Q 45.796875 27.640625 41.28125 31.265625 
Q 36.765625 34.90625 28.71875 34.90625 
L 20.21875 34.90625 
L 20.21875 43.015625 
L 29.109375 43.015625 
Q 36.375 43.015625 40.234375 45.921875 
Q 44.09375 48.828125 44.09375 54.296875 
Q 44.09375 59.90625 40.109375 62.90625 
Q 36.140625 65.921875 28.71875 65.921875 
Q 24.65625 65.921875 20.015625 65.03125 
Q 15.375 64.15625 9.8125 62.3125 
L 9.8125 71.09375 
Q 15.4375 72.65625 20.34375 73.4375 
Q 25.25 74.21875 29.59375 74.21875 
Q 40.828125 74.21875 47.359375 69.109375 
Q 53.90625 64.015625 53.90625 55.328125 
Q 53.90625 49.265625 50.4375 45.09375 
Q 46.96875 40.921875 40.578125 39.3125 
z
" id="DejaVuSans-33"/>
      </defs>
      <g transform="translate(52.205 233.926217)scale(0.1 -0.1)">
       <use xlink:href="#DejaVuSans-33"/>
       <use x="63.623047" xlink:href="#DejaVuSans-30"/>
      </g>
     </g>
    </g>
    <g id="ytick_4">
     <g id="line2d_12">
      <g>
       <use style="stroke:#000000;stroke-width:0.8;" x="71.93" xlink:href="#m598a03ecd9" y="196.780802"/>
      </g>
     </g>
     <g id="text_13">
      <!-- 40 -->
      <defs>
       <path d="M 37.796875 64.3125 
L 12.890625 25.390625 
L 37.796875 25.390625 
z
M 35.203125 72.90625 
L 47.609375 72.90625 
L 47.609375 25.390625 
L 58.015625 25.390625 
L 58.015625 17.1875 
L 47.609375 17.1875 
L 47.609375 0 
L 37.796875 0 
L 37.796875 17.1875 
L 4.890625 17.1875 
L 4.890625 26.703125 
z
" id="DejaVuSans-34"/>
      </defs>
      <g transform="translate(52.205 200.580021)scale(0.1 -0.1)">
       <use xlink:href="#DejaVuSans-34"/>
       <use x="63.623047" xlink:href="#DejaVuSans-30"/>
      </g>
     </g>
    </g>
    <g id="ytick_5">
     <g id="line2d_13">
      <g>
       <use style="stroke:#000000;stroke-width:0.8;" x="71.93" xlink:href="#m598a03ecd9" y="163.434606"/>
      </g>
     </g>
     <g id="text_14">
      <!-- 50 -->
      <g transform="translate(52.205 167.233824)scale(0.1 -0.1)">
       <use xlink:href="#DejaVuSans-35"/>
       <use x="63.623047" xlink:href="#DejaVuSans-30"/>
      </g>
     </g>
    </g>
    <g id="ytick_6">
     <g id="line2d_14">
      <g>
       <use style="stroke:#000000;stroke-width:0.8;" x="71.93" xlink:href="#m598a03ecd9" y="130.088409"/>
      </g>
     </g>
     <g id="text_15">
      <!-- 60 -->
      <defs>
       <path d="M 33.015625 40.375 
Q 26.375 40.375 22.484375 35.828125 
Q 18.609375 31.296875 18.609375 23.390625 
Q 18.609375 15.53125 22.484375 10.953125 
Q 26.375 6.390625 33.015625 6.390625 
Q 39.65625 6.390625 43.53125 10.953125 
Q 47.40625 15.53125 47.40625 23.390625 
Q 47.40625 31.296875 43.53125 35.828125 
Q 39.65625 40.375 33.015625 40.375 
z
M 52.59375 71.296875 
L 52.59375 62.3125 
Q 48.875 64.0625 45.09375 64.984375 
Q 41.3125 65.921875 37.59375 65.921875 
Q 27.828125 65.921875 22.671875 59.328125 
Q 17.53125 52.734375 16.796875 39.40625 
Q 19.671875 43.65625 24.015625 45.921875 
Q 28.375 48.1875 33.59375 48.1875 
Q 44.578125 48.1875 50.953125 41.515625 
Q 57.328125 34.859375 57.328125 23.390625 
Q 57.328125 12.15625 50.6875 5.359375 
Q 44.046875 -1.421875 33.015625 -1.421875 
Q 20.359375 -1.421875 13.671875 8.265625 
Q 6.984375 17.96875 6.984375 36.375 
Q 6.984375 53.65625 15.1875 63.9375 
Q 23.390625 74.21875 37.203125 74.21875 
Q 40.921875 74.21875 44.703125 73.484375 
Q 48.484375 72.75 52.59375 71.296875 
z
" id="DejaVuSans-36"/>
      </defs>
      <g transform="translate(52.205 133.887628)scale(0.1 -0.1)">
       <use xlink:href="#DejaVuSans-36"/>
       <use x="63.623047" xlink:href="#DejaVuSans-30"/>
      </g>
     </g>
    </g>
    <g id="ytick_7">
     <g id="line2d_15">
      <g>
       <use style="stroke:#000000;stroke-width:0.8;" x="71.93" xlink:href="#m598a03ecd9" y="96.742213"/>
      </g>
     </g>
     <g id="text_16">
      <!-- 70 -->
      <g transform="translate(52.205 100.541432)scale(0.1 -0.1)">
       <use xlink:href="#DejaVuSans-37"/>
       <use x="63.623047" xlink:href="#DejaVuSans-30"/>
      </g>
     </g>
    </g>
    <g id="ytick_8">
     <g id="line2d_16">
      <g>
       <use style="stroke:#000000;stroke-width:0.8;" x="71.93" xlink:href="#m598a03ecd9" y="63.396016"/>
      </g>
     </g>
     <g id="text_17">
      <!-- 80 -->
      <defs>
       <path d="M 31.78125 34.625 
Q 24.75 34.625 20.71875 30.859375 
Q 16.703125 27.09375 16.703125 20.515625 
Q 16.703125 13.921875 20.71875 10.15625 
Q 24.75 6.390625 31.78125 6.390625 
Q 38.8125 6.390625 42.859375 10.171875 
Q 46.921875 13.96875 46.921875 20.515625 
Q 46.921875 27.09375 42.890625 30.859375 
Q 38.875 34.625 31.78125 34.625 
z
M 21.921875 38.8125 
Q 15.578125 40.375 12.03125 44.71875 
Q 8.5 49.078125 8.5 55.328125 
Q 8.5 64.0625 14.71875 69.140625 
Q 20.953125 74.21875 31.78125 74.21875 
Q 42.671875 74.21875 48.875 69.140625 
Q 55.078125 64.0625 55.078125 55.328125 
Q 55.078125 49.078125 51.53125 44.71875 
Q 48 40.375 41.703125 38.8125 
Q 48.828125 37.15625 52.796875 32.3125 
Q 56.78125 27.484375 56.78125 20.515625 
Q 56.78125 9.90625 50.3125 4.234375 
Q 43.84375 -1.421875 31.78125 -1.421875 
Q 19.734375 -1.421875 13.25 4.234375 
Q 6.78125 9.90625 6.78125 20.515625 
Q 6.78125 27.484375 10.78125 32.3125 
Q 14.796875 37.15625 21.921875 38.8125 
z
M 18.3125 54.390625 
Q 18.3125 48.734375 21.84375 45.5625 
Q 25.390625 42.390625 31.78125 42.390625 
Q 38.140625 42.390625 41.71875 45.5625 
Q 45.3125 48.734375 45.3125 54.390625 
Q 45.3125 60.0625 41.71875 63.234375 
Q 38.140625 66.40625 31.78125 66.40625 
Q 25.390625 66.40625 21.84375 63.234375 
Q 18.3125 60.0625 18.3125 54.390625 
z
" id="DejaVuSans-38"/>
      </defs>
      <g transform="translate(52.205 67.195235)scale(0.1 -0.1)">
       <use xlink:href="#DejaVuSans-38"/>
       <use x="63.623047" xlink:href="#DejaVuSans-30"/>
      </g>
     </g>
    </g>
    <g id="ytick_9">
     <g id="line2d_17">
      <g>
       <use style="stroke:#000000;stroke-width:0.8;" x="71.93" xlink:href="#m598a03ecd9" y="30.04982"/>
      </g>
     </g>
     <g id="text_18">
      <!-- 90 -->
      <defs>
       <path d="M 10.984375 1.515625 
L 10.984375 10.5 
Q 14.703125 8.734375 18.5 7.8125 
Q 22.3125 6.890625 25.984375 6.890625 
Q 35.75 6.890625 40.890625 13.453125 
Q 46.046875 20.015625 46.78125 33.40625 
Q 43.953125 29.203125 39.59375 26.953125 
Q 35.25 24.703125 29.984375 24.703125 
Q 19.046875 24.703125 12.671875 31.3125 
Q 6.296875 37.9375 6.296875 49.421875 
Q 6.296875 60.640625 12.9375 67.421875 
Q 19.578125 74.21875 30.609375 74.21875 
Q 43.265625 74.21875 49.921875 64.515625 
Q 56.59375 54.828125 56.59375 36.375 
Q 56.59375 19.140625 48.40625 8.859375 
Q 40.234375 -1.421875 26.421875 -1.421875 
Q 22.703125 -1.421875 18.890625 -0.6875 
Q 15.09375 0.046875 10.984375 1.515625 
z
M 30.609375 32.421875 
Q 37.25 32.421875 41.125 36.953125 
Q 45.015625 41.5 45.015625 49.421875 
Q 45.015625 57.28125 41.125 61.84375 
Q 37.25 66.40625 30.609375 66.40625 
Q 23.96875 66.40625 20.09375 61.84375 
Q 16.21875 57.28125 16.21875 49.421875 
Q 16.21875 41.5 20.09375 36.953125 
Q 23.96875 32.421875 30.609375 32.421875 
z
" id="DejaVuSans-39"/>
      </defs>
      <g transform="translate(52.205 33.849039)scale(0.1 -0.1)">
       <use xlink:href="#DejaVuSans-39"/>
       <use x="63.623047" xlink:href="#DejaVuSans-30"/>
      </g>
     </g>
    </g>
    <g id="text_19">
     <!-- PSNR -->
     <defs>
      <path d="M 19.671875 64.796875 
L 19.671875 37.40625 
L 32.078125 37.40625 
Q 38.96875 37.40625 42.71875 40.96875 
Q 46.484375 44.53125 46.484375 51.125 
Q 46.484375 57.671875 42.71875 61.234375 
Q 38.96875 64.796875 32.078125 64.796875 
z
M 9.8125 72.90625 
L 32.078125 72.90625 
Q 44.34375 72.90625 50.609375 67.359375 
Q 56.890625 61.8125 56.890625 51.125 
Q 56.890625 40.328125 50.609375 34.8125 
Q 44.34375 29.296875 32.078125 29.296875 
L 19.671875 29.296875 
L 19.671875 0 
L 9.8125 0 
z
" id="DejaVuSans-50"/>
      <path d="M 44.390625 34.1875 
Q 47.5625 33.109375 50.5625 29.59375 
Q 53.5625 26.078125 56.59375 19.921875 
L 66.609375 0 
L 56 0 
L 46.6875 18.703125 
Q 43.0625 26.03125 39.671875 28.421875 
Q 36.28125 30.8125 30.421875 30.8125 
L 19.671875 30.8125 
L 19.671875 0 
L 9.8125 0 
L 9.8125 72.90625 
L 32.078125 72.90625 
Q 44.578125 72.90625 50.734375 67.671875 
Q 56.890625 62.453125 56.890625 51.90625 
Q 56.890625 45.015625 53.6875 40.46875 
Q 50.484375 35.9375 44.390625 34.1875 
z
M 19.671875 64.796875 
L 19.671875 38.921875 
L 32.078125 38.921875 
Q 39.203125 38.921875 42.84375 42.21875 
Q 46.484375 45.515625 46.484375 51.90625 
Q 46.484375 58.296875 42.84375 61.546875 
Q 39.203125 64.796875 32.078125 64.796875 
z
" id="DejaVuSans-52"/>
     </defs>
     <g transform="translate(10.674063 153.768437)scale(0.14 -0.14)">
      <use xlink:href="#DejaVuSans-50"/>
      <use x="60.302734" xlink:href="#DejaVuSans-53"/>
      <use x="123.779297" xlink:href="#DejaVuSans-4e"/>
      <use x="198.583984" xlink:href="#DejaVuSans-52"/>
     </g>
    </g>
   </g>
   <g id="line2d_18">
    <path clip-path="url(#pe3d4f21100)" d="M 88.913416 287.007273 
L 89.746277 269.134712 
L 90.301518 253.040504 
L 90.440327 252.358574 
L 90.995566 247.925864 
L 92.522479 240.166204 
L 92.938903 237.600214 
L 93.216525 236.18967 
L 93.355347 235.733828 
L 93.77177 232.564605 
L 94.88226 224.306753 
L 95.576306 222.732813 
L 95.99273 221.354614 
L 96.131551 221.200222 
L 96.686776 219.575595 
L 96.964398 218.929679 
L 97.658444 216.285659 
L 97.797266 216.107257 
L 98.074888 215.285273 
L 98.35251 214.81976 
L 99.324179 213.8854 
L 99.46298 213.613962 
L 99.601801 213.612628 
L 100.018225 213.041741 
L 100.712271 212.454515 
L 100.989894 212.08804 
L 101.128715 211.636199 
L 101.267516 211.636199 
L 102.100383 210.790539 
L 102.378006 210.681831 
L 102.516807 210.36104 
L 102.655608 210.330028 
L 103.210853 209.754807 
L 103.488475 209.640429 
L 105.15419 207.617982 
L 105.570634 206.89537 
L 105.987057 206.308811 
L 106.26468 205.852968 
L 106.958726 205.298087 
L 107.652772 203.948233 
L 107.791593 203.893212 
L 108.069216 203.21395 
L 108.485639 202.59271 
L 108.763262 201.742049 
L 108.901983 201.742049 
L 109.457268 200.633955 
L 109.596189 200.531582 
L 109.873831 199.967698 
L 110.151274 199.648241 
L 110.428916 198.97965 
L 110.567837 198.754897 
L 110.706559 198.754897 
L 110.84548 198.529143 
L 110.984201 198.519473 
L 111.123122 198.164669 
L 111.261844 198.187011 
L 112.649856 196.036848 
L 112.788777 196.035514 
L 112.927498 195.703053 
L 113.066419 195.717058 
L 113.205141 195.389932 
L 113.344062 195.40227 
L 113.482783 195.025458 
L 113.621704 195.025458 
L 113.899147 194.6163 
L 114.038068 194.446235 
L 114.176789 194.067088 
L 114.31571 194.067088 
L 114.454432 193.839667 
L 114.593353 193.847337 
L 114.732074 193.435178 
L 114.870995 193.435178 
L 115.009716 193.196419 
L 115.287359 193.083709 
L 115.565001 192.518491 
L 115.703723 192.518491 
L 115.842644 192.308077 
L 115.981365 192.308077 
L 116.120286 192.163354 
L 116.259007 192.193032 
L 117.230656 190.171919 
L 117.508298 189.659055 
L 118.202304 188.111458 
L 118.341226 188.115459 
L 118.618868 187.606263 
L 118.757589 187.512227 
L 120.423244 183.004154 
L 120.839808 182.762728 
L 120.978529 182.410926 
L 121.256171 182.330228 
L 121.672535 182.00877 
L 122.22782 181.943078 
L 122.921826 181.735665 
L 123.060747 181.735665 
L 123.199468 181.619954 
L 123.477111 181.588275 
L 125.836971 180.846322 
L 126.114614 180.694263 
L 126.530977 180.425826 
L 126.80862 180.197738 
L 127.363905 179.97632 
L 127.502626 179.930635 
L 127.91899 179.427441 
L 128.057911 179.455452 
L 128.335553 179.272048 
L 128.751917 178.780859 
L 129.029559 178.542433 
L 129.723565 178.043241 
L 130.001208 177.859837 
L 130.556493 177.532044 
L 131.528141 177.431005 
L 131.805784 177.208252 
L 131.944505 177.211253 
L 132.361069 176.960156 
L 132.916153 176.662708 
L 133.332717 176.578009 
L 133.610359 176.439956 
L 133.887802 176.180189 
L 134.026723 176.183857 
L 134.443087 175.780701 
L 134.582008 175.735017 
L 134.85965 175.365541 
L 135.137093 175.31919 
L 135.414735 175.18147 
L 135.692378 174.911366 
L 135.97002 174.623922 
L 136.247663 174.550894 
L 136.525305 174.420843 
L 137.496954 174.16141 
L 138.052238 174.044698 
L 138.329881 173.904311 
L 138.746245 173.873966 
L 139.440251 173.742915 
L 139.856814 173.639875 
L 146.935996 172.163306 
L 147.35256 171.832178 
L 148.185287 171.752147 
L 149.295857 171.502051 
L 150.82279 171.391008 
L 152.766087 170.839128 
L 153.04373 170.742091 
L 153.460094 170.629381 
L 153.876457 170.495996 
L 154.431742 170.405294 
L 156.097597 170.121518 
L 156.236318 170.119518 
L 156.51396 169.953787 
L 156.930324 169.948452 
L 157.207966 169.848746 
L 163.038057 168.4312 
L 163.3157 168.331494 
L 163.870785 168.180103 
L 164.42607 167.997699 
L 166.091924 167.552194 
L 166.369367 167.424144 
L 166.508288 167.426145 
L 166.78593 167.300764 
L 168.729227 166.990644 
L 169.145591 166.9623 
L 169.423234 166.863928 
L 169.562155 166.871265 
L 169.839797 166.704867 
L 169.978518 166.714204 
L 170.394882 166.341727 
L 170.811446 166.247024 
L 174.004034 165.669468 
L 174.281676 165.559759 
L 174.69804 165.496067 
L 175.669688 165.247638 
L 175.947331 165.153935 
L 176.224973 165.161605 
L 176.502616 165.02822 
L 177.0579 164.760117 
L 177.474264 164.691757 
L 177.751906 164.512688 
L 178.307191 164.411983 
L 178.584834 164.247252 
L 179.001197 164.185228 
L 179.27884 163.980483 
L 179.556482 163.845764 
L 179.972846 163.766734 
L 180.528131 163.658025 
L 182.332707 163.220523 
L 182.74907 162.939748 
L 186.774586 161.988714 
L 187.190949 161.85533 
L 187.468592 161.806644 
L 188.301519 161.471181 
L 188.717883 161.418495 
L 189.273167 161.015006 
L 189.411889 161.016673 
L 189.967174 160.584506 
L 192.049392 159.656481 
L 192.327034 159.580119 
L 193.437404 159.161957 
L 193.715046 159.089263 
L 193.992689 158.898856 
L 194.547974 158.703447 
L 194.825616 158.552722 
L 195.24198 158.536716 
L 195.519622 158.45235 
L 196.768913 158.056531 
L 197.046556 157.907807 
L 197.185277 157.907807 
L 197.462919 157.73374 
L 197.740562 157.628699 
L 198.156925 157.495648 
L 198.434568 157.388273 
L 198.850932 157.272562 
L 199.406216 157.185195 
L 200.239144 157.021799 
L 200.655507 157.010461 
L 201.627156 156.841396 
L 202.043719 156.804715 
L 202.737726 156.423568 
L 203.431732 156.348539 
L 203.709374 156.285848 
L 204.125738 156.243832 
L 204.40338 156.150462 
L 204.681023 155.947051 
L 205.097386 155.774651 
L 205.652671 155.682282 
L 208.012532 155.191426 
L 208.290174 155.14174 
L 208.567817 155.072046 
L 208.845259 154.946998 
L 209.539465 154.836289 
L 210.372193 154.626541 
L 210.649835 154.592528 
L 211.066399 154.245728 
L 211.343841 154.158694 
L 211.760405 154.031979 
L 212.315689 153.954282 
L 212.593132 153.74987 
L 213.009696 153.676175 
L 215.508277 152.90421 
L 215.78592 152.737146 
L 216.063562 152.633106 
L 216.341005 152.390012 
L 216.618647 152.356999 
L 216.89629 152.254293 
L 217.451575 152.035875 
L 218.006859 151.592371 
L 218.562144 151.498335 
L 218.978508 151.228897 
L 219.117229 151.218893 
L 219.811435 150.677351 
L 220.227799 150.655009 
L 220.783084 150.243517 
L 221.060726 150.074785 
L 221.754732 149.512902 
L 222.58746 149.267141 
L 223.420387 148.492175 
L 223.559308 148.492175 
L 223.975672 148.235409 
L 224.114393 148.243079 
L 225.086042 147.229021 
L 225.363684 147.133651 
L 225.918969 146.634458 
L 226.05789 146.661469 
L 226.751896 145.966867 
L 227.16826 145.943859 
L 229.666842 144.028453 
L 229.944484 143.949089 
L 231.332496 142.373481 
L 232.165424 142.308123 
L 233.137072 141.755243 
L 234.108721 141.294065 
L 234.802927 140.534105 
L 235.080369 140.47775 
L 235.635654 139.909531 
L 236.190939 139.833502 
L 236.468581 139.567732 
L 236.607303 139.567732 
L 237.578951 138.839785 
L 237.856593 138.768091 
L 237.995515 138.581685 
L 238.273157 138.578351 
L 239.105884 137.647325 
L 239.244806 137.631319 
L 239.661169 137.104115 
L 239.938812 137.118121 
L 241.604466 134.832906 
L 241.743387 134.832906 
L 242.02103 134.532123 
L 242.715036 133.674126 
L 242.992678 133.61577 
L 243.964327 132.521014 
L 247.018194 129.226077 
L 249.377854 126.379979 
L 251.737715 123.212423 
L 252.987006 121.624478 
L 253.125727 121.63148 
L 255.485588 118.334875 
L 259.372182 113.019492 
L 262.703691 109.655527 
L 265.063352 106.974493 
L 267.284491 104.127728 
L 272.559098 97.004647 
L 272.698019 97.004647 
L 273.114383 96.476444 
L 273.669667 95.834196 
L 273.94731 95.856871 
L 274.224952 95.509404 
L 274.641316 95.438043 
L 275.890607 94.277595 
L 279.083195 91.428496 
L 279.222116 91.442168 
L 282.969989 87.526658 
L 283.10871 87.540663 
L 284.358001 86.075432 
L 284.635644 86.096773 
L 285.884935 84.685229 
L 286.162577 84.636543 
L 286.440219 84.552511 
L 286.578941 84.57652 
L 287.134225 84.043981 
L 287.411868 83.964617 
L 287.68951 83.884586 
L 287.828232 83.911597 
L 288.105874 83.780546 
L 288.661159 83.777879 
L 289.354765 83.113622 
L 289.632607 83.100617 
L 289.91045 82.98724 
L 290.188292 82.907543 
L 290.743977 82.456702 
L 291.021819 82.434694 
L 291.437583 82.096897 
L 291.715425 82.076222 
L 292.686874 81.462986 
L 293.102638 81.426972 
L 293.658323 80.924778 
L 294.907614 79.66896 
L 295.463298 79.486223 
L 296.156905 78.870986 
L 296.434747 78.869985 
L 296.850511 78.534856 
L 297.544117 78.453491 
L 297.82196 78.369792 
L 298.793408 78.281425 
L 299.489013 78.23274 
L 299.626935 78.273088 
L 299.904777 78.104023 
L 300.738304 78.007319 
L 301.154068 77.94863 
L 302.125517 77.891275 
L 303.374808 77.785567 
L 303.790572 77.731546 
L 304.486177 77.643179 
L 304.76402 77.597161 
L 305.87339 77.079962 
L 306.289154 76.975588 
L 308.511892 76.257978 
L 309.34342 76.175946 
L 309.761183 75.977536 
L 310.45479 75.92785 
L 311.704081 75.127542 
L 311.981923 75.09653 
L 312.535609 74.806084 
L 312.813451 74.735391 
L 313.091293 74.602673 
L 313.509056 74.528644 
L 314.480505 73.879727 
L 314.758347 73.873725 
L 315.451953 73.403877 
L 316.283482 73.29917 
L 316.839166 72.90335 
L 317.256929 72.801311 
L 317.672693 72.516201 
L 318.088457 72.466849 
L 318.782063 71.970657 
L 319.199826 71.865283 
L 320.171275 71.173016 
L 320.449117 71.012288 
L 320.864881 70.767527 
L 321.142724 70.720508 
L 321.420566 70.59546 
L 321.698408 70.573452 
L 322.807779 69.653097 
L 323.225541 69.543721 
L 323.641306 69.223598 
L 323.919148 69.22193 
L 324.752675 68.654045 
L 325.028518 68.602358 
L 325.30636 68.540668 
L 325.584203 68.435961 
L 326.139887 68.008796 
L 326.833494 67.937768 
L 327.111336 67.747028 
L 327.389178 67.581964 
L 327.804942 67.471922 
L 328.360627 67.150465 
L 328.638469 67.050426 
L 329.332076 66.470536 
L 330.025682 66.453863 
L 330.581367 66.155081 
L 330.721287 66.181424 
L 331.414894 65.624876 
L 332.1085 65.582527 
L 332.664184 65.311088 
L 332.802106 65.338099 
L 333.357791 64.947615 
L 334.051397 64.923606 
L 334.46916 64.653835 
L 335.162766 64.566468 
L 335.57853 64.425414 
L 336.134215 64.351718 
L 337.105664 63.900544 
L 337.661348 63.411022 
L 338.077112 63.305648 
L 338.494875 62.957847 
L 339.744166 62.889154 
L 340.02001 62.813125 
L 340.297852 62.752768 
L 340.575694 62.644727 
L 341.269301 62.551024 
L 341.964906 62.457654 
L 342.242748 62.429977 
L 342.518592 62.19622 
L 343.352118 62.16921 
L 343.629961 62.072172 
L 344.74133 61.984138 
L 345.8507 61.834414 
L 347.099991 61.756384 
L 347.377834 61.589986 
L 347.793598 61.504954 
L 350.709942 60.99309 
L 351.263628 60.885048 
L 351.959233 60.687305 
L 352.237076 60.57993 
L 353.068604 60.470221 
L 353.76221 60.020048 
L 354.179973 59.984034 
L 354.595737 59.742607 
L 355.011501 59.687252 
L 355.289343 59.564538 
L 355.707106 59.49051 
L 355.984949 59.391805 
L 356.400713 59.29977 
L 357.094319 59.119367 
L 357.927846 58.567154 
L 358.34361 58.521136 
L 358.621452 58.395754 
L 359.037216 58.332397 
L 360.286507 57.487737 
L 360.70427 57.403705 
L 361.675719 56.774462 
L 362.091483 56.672756 
L 362.92501 56.110206 
L 363.340774 56.040179 
L 363.896458 55.65403 
L 364.312222 55.571331 
L 366.950725 53.377485 
L 367.366489 53.104713 
L 367.782253 53.015012 
L 368.893622 52.096991 
L 369.309386 52.044638 
L 370.558677 51.011906 
L 370.836519 51.000902 
L 371.114362 50.767812 
L 371.530126 50.741802 
L 371.947889 50.415343 
L 372.363653 50.360988 
L 373.057259 49.803106 
L 373.335101 49.809442 
L 373.890786 49.389947 
L 374.30655 49.30258 
L 375.417919 48.945442 
L 375.555841 48.959448 
L 376.249447 48.375222 
L 376.66721 48.34421 
L 376.945052 48.166809 
L 377.776581 48.169143 
L 378.194343 47.871361 
L 378.610107 47.802335 
L 379.025871 47.458869 
L 379.443634 47.414518 
L 379.99732 46.94467 
L 380.830847 46.873977 
L 381.108689 46.672565 
L 381.664374 46.303757 
L 382.080138 46.219724 
L 382.35798 46.135025 
L 382.635823 46.134024 
L 384.023035 45.038268 
L 385.967931 44.2553 
L 388.188671 42.733713 
L 388.604435 42.694698 
L 391.518781 40.666582 
L 392.352308 40.433826 
L 392.907993 40.136711 
L 395.962259 38.696822 
L 396.238102 38.617458 
L 397.905156 37.74879 
L 407.621642 32.739524 
L 412.756727 30.857131 
L 421.779606 27.659565 
L 423.862424 27.127026 
L 428.026061 26.429757 
L 428.581746 26.352727 
L 428.581746 26.352727 
" style="fill:none;stroke:#1f77b4;stroke-linecap:square;stroke-width:1.5;"/>
   </g>
   <g id="line2d_19">
    <path clip-path="url(#pe3d4f21100)" d="M 88.913416 286.913903 
L 89.329847 282.013013 
L 89.746277 272.382298 
L 90.023897 258.861749 
L 90.440327 252.353905 
L 90.717947 250.579221 
L 90.856765 250.291443 
L 92.244857 243.703235 
L 92.661281 240.260574 
L 93.216525 235.782513 
L 93.910571 231.611904 
L 94.188194 229.584122 
L 94.327015 229.504425 
L 95.021061 224.513833 
L 95.298684 223.574471 
L 95.853928 222.525399 
L 96.131551 221.913497 
L 96.409153 221.727758 
L 96.825597 220.931451 
L 96.964398 220.879431 
L 97.380842 219.83903 
L 97.519643 219.733656 
L 97.797266 219.207786 
L 98.491312 216.040231 
L 99.46298 214.16284 
L 100.157026 213.538599 
L 100.712271 213.058414 
L 100.851092 213.045743 
L 101.128715 212.588566 
L 101.406317 212.49553 
L 101.545138 211.952988 
L 101.68394 211.952988 
L 103.904899 210.176302 
L 104.460144 209.890859 
L 104.598965 209.572736 
L 104.737766 209.572736 
L 105.015389 209.34098 
L 105.709435 208.893808 
L 105.848256 208.672722 
L 106.125879 208.602362 
L 106.681103 208.25256 
L 106.819925 208.25256 
L 107.097547 208.040479 
L 107.37517 208.025806 
L 108.485639 206.551904 
L 108.763262 206.351827 
L 109.179625 205.314094 
L 109.318547 205.248402 
L 109.457268 205.00164 
L 109.596189 205.01231 
L 109.873831 204.368062 
L 110.012553 204.359392 
L 110.290195 203.800843 
L 111.123122 201.203841 
L 111.261844 201.212511 
L 111.539486 200.587604 
L 111.678207 200.471559 
L 111.817128 199.949691 
L 111.95585 199.949691 
L 112.233492 199.438827 
L 112.927498 198.619511 
L 113.205141 198.014611 
L 113.760425 196.989216 
L 113.899147 196.994884 
L 114.31571 196.28261 
L 114.593353 195.438284 
L 114.732074 195.438284 
L 114.870995 195.097819 
L 115.148438 195.057804 
L 115.42608 193.776643 
L 115.565001 193.714619 
L 115.842644 193.080374 
L 116.259007 192.898304 
L 116.53665 192.863291 
L 116.953014 192.350426 
L 117.230656 192.236382 
L 117.64702 191.969613 
L 117.785941 191.980283 
L 117.924662 191.782874 
L 118.063583 191.806883 
L 118.202304 191.621478 
L 118.341226 191.623146 
L 118.896311 190.413346 
L 119.312874 189.510664 
L 119.451595 189.510664 
L 119.729238 189.01514 
L 119.868159 188.989797 
L 120.562165 187.301479 
L 120.839808 186.643225 
L 120.978529 186.643225 
L 121.256171 186.077006 
L 121.950177 184.43504 
L 122.089098 184.41103 
L 122.22782 184.199949 
L 122.366741 184.219957 
L 122.505462 183.904168 
L 122.644183 183.904168 
L 122.783105 183.765448 
L 122.921826 183.325612 
L 123.060747 183.325612 
L 123.338389 182.881774 
L 123.477111 182.891444 
L 123.616032 182.661355 
L 123.754753 182.661355 
L 123.893474 182.471616 
L 124.171117 181.775014 
L 124.310038 181.788352 
L 124.448759 181.569268 
L 124.58768 181.561598 
L 124.726402 181.339179 
L 126.114614 181.252479 
L 126.669699 181.171447 
L 127.641347 181.036729 
L 128.751917 180.873999 
L 129.029559 180.716939 
L 130.417572 180.584554 
L 130.695214 180.420158 
L 136.802947 179.543486 
L 137.08059 179.430442 
L 137.635675 179.377089 
L 138.468602 179.282385 
L 139.301529 179.028287 
L 139.856814 179.01028 
L 140.134257 178.79353 
L 140.55082 178.747512 
L 140.828463 178.616128 
L 141.244826 178.443062 
L 142.216475 178.138611 
L 142.494117 177.874175 
L 144.021051 177.745793 
L 144.298693 177.42867 
L 144.715057 177.345972 
L 144.992699 177.070866 
L 145.547984 176.477637 
L 146.519633 176.342585 
L 146.797275 176.106494 
L 147.074918 176.009123 
L 147.491281 175.941096 
L 147.630002 175.934761 
L 147.907645 175.722345 
L 148.324208 175.70067 
L 148.740572 175.556615 
L 149.851142 175.085767 
L 150.267506 174.496206 
L 150.82279 174.403837 
L 151.100433 174.298796 
L 151.655518 174.111391 
L 151.794439 174.116059 
L 152.210803 173.739914 
L 152.627166 173.716905 
L 152.904809 173.597859 
L 154.1541 173.283405 
L 154.293021 173.05565 
L 155.403391 172.966949 
L 155.681033 172.696178 
L 156.236318 172.608478 
L 156.51396 172.20799 
L 157.207966 172.114954 
L 157.763251 171.940887 
L 158.040894 171.843849 
L 159.012542 171.540732 
L 159.290185 171.514389 
L 159.706548 171.126239 
L 160.122912 171.065216 
L 161.372203 170.847798 
L 162.20513 170.825456 
L 162.482773 170.720749 
L 163.3157 170.518005 
L 164.287348 170.444309 
L 164.564991 170.296586 
L 165.397718 170.141859 
L 167.341215 169.902434 
L 167.618658 169.830406 
L 168.590506 169.676347 
L 168.867949 169.581977 
L 171.921815 169.079783 
L 172.199458 168.962405 
L 173.032385 168.76833 
L 173.310028 168.528904 
L 173.58767 168.46788 
L 173.865112 168.272472 
L 174.420397 168.102406 
L 175.253325 167.976357 
L 180.38921 166.896274 
L 180.805773 166.495453 
L 181.360858 166.443099 
L 181.638501 166.300711 
L 182.74907 166.205674 
L 183.165434 166.05495 
L 183.443076 165.868544 
L 183.85944 165.781844 
L 184.137083 165.674136 
L 184.97001 165.437045 
L 185.247652 165.290655 
L 186.358022 165.131593 
L 186.774586 165.012214 
L 187.468592 164.966863 
L 188.023877 164.770121 
L 188.856604 164.704762 
L 189.411889 164.558039 
L 189.828452 164.534697 
L 190.383537 164.419652 
L 190.800101 164.412316 
L 191.077743 164.224243 
L 192.604477 163.879444 
L 192.882119 163.619677 
L 193.715046 163.522639 
L 193.992689 163.410596 
L 195.519622 163.077468 
L 195.797265 162.935413 
L 196.213628 162.811032 
L 196.491271 162.602951 
L 196.768913 162.485573 
L 197.601641 162.291498 
L 198.018204 161.884007 
L 198.295847 161.844325 
L 198.573489 161.687598 
L 198.850932 161.604233 
L 199.545138 161.563884 
L 199.82278 161.422496 
L 199.961501 161.44117 
L 200.239144 161.181737 
L 200.516786 161.162729 
L 200.794428 161.050352 
L 201.349513 160.713222 
L 202.182441 159.812875 
L 202.598804 159.770859 
L 203.154089 159.491751 
L 203.709374 159.219646 
L 204.40338 159.035909 
L 204.958665 158.503037 
L 205.236307 158.405666 
L 205.51395 158.272614 
L 205.652671 158.230598 
L 206.207956 157.693391 
L 206.62432 157.696392 
L 207.457247 157.077487 
L 208.012532 157.005125 
L 208.290174 156.933098 
L 208.428895 156.938433 
L 208.706538 156.796045 
L 209.122902 156.604638 
L 209.539465 156.58563 
L 209.817108 156.326864 
L 209.955829 156.336868 
L 210.233471 156.216821 
L 210.649835 156.126453 
L 212.593132 155.525221 
L 213.148417 155.309138 
L 213.426059 155.212434 
L 214.120065 154.583525 
L 214.397708 154.482152 
L 214.814271 154.306084 
L 215.091714 154.167031 
L 215.646999 154.096337 
L 216.89629 153.741533 
L 217.312853 153.470762 
L 217.451575 153.494104 
L 217.729217 153.273353 
L 218.423223 153.169979 
L 218.978508 153.086614 
L 219.394872 152.799503 
L 220.36652 152.176263 
L 220.783084 151.890819 
L 220.921805 151.897822 
L 221.338169 151.487997 
L 222.310017 151.17421 
L 222.726381 150.678685 
L 223.281666 150.587983 
L 223.559308 150.443928 
L 223.698029 150.450597 
L 224.808599 149.3345 
L 225.086042 149.277811 
L 225.363684 149.076067 
L 225.502605 149.066063 
L 226.612975 148.072346 
L 226.751896 148.093688 
L 227.307181 147.534139 
L 227.584623 147.431099 
L 228.417551 146.579104 
L 228.556472 146.579104 
L 229.52812 145.707101 
L 230.083205 145.437663 
L 230.777411 144.782744 
L 231.193775 144.412268 
L 231.610139 144.362915 
L 232.165424 144.046794 
L 232.443066 143.812036 
L 232.998351 143.30284 
L 233.137072 143.307842 
L 235.635654 140.38138 
L 235.774575 140.38138 
L 236.468581 139.513378 
L 237.578951 138.189534 
L 237.717872 138.189534 
L 238.134236 137.923765 
L 238.550799 137.834397 
L 239.522448 136.611926 
L 239.80009 136.599587 
L 240.771739 135.58653 
L 241.188103 135.368112 
L 241.465745 135.132688 
L 241.604466 135.149028 
L 242.02103 134.589812 
L 242.298672 134.486439 
L 242.992678 133.547744 
L 243.686685 133.349334 
L 244.103048 132.767443 
L 248.267485 128.179006 
L 250.766067 125.03546 
L 253.264648 121.484757 
L 259.09454 113.354954 
L 263.120055 109.244369 
L 264.646988 107.579727 
L 264.924631 107.522705 
L 267.14557 104.741965 
L 269.088867 102.292687 
L 269.227788 102.304692 
L 269.921795 101.39234 
L 273.392025 96.825245 
L 273.669667 96.725206 
L 274.363674 95.850536 
L 275.05768 95.704146 
L 275.612964 95.679136 
L 275.890607 95.37802 
L 277.278819 95.319664 
L 277.556262 95.211622 
L 278.250468 95.10925 
L 278.52811 94.881495 
L 278.805552 94.890165 
L 279.083195 94.70376 
L 279.360837 94.693422 
L 280.749049 93.543979 
L 281.026692 93.519636 
L 281.304134 93.324895 
L 281.581777 93.322227 
L 282.137062 92.828036 
L 282.553425 92.72433 
L 284.358001 91.035678 
L 284.635644 90.99633 
L 286.440219 89.255992 
L 286.717862 89.178295 
L 289.076923 86.378548 
L 289.354765 86.204148 
L 289.632607 86.098107 
L 289.91045 85.789655 
L 290.188292 85.789655 
L 291.297662 84.562181 
L 291.575505 84.51683 
L 291.853347 84.262732 
L 292.546953 84.266067 
L 292.964716 83.950945 
L 294.074087 83.855909 
L 294.351929 83.771876 
L 294.629771 83.674505 
L 295.045535 83.618817 
L 295.323378 83.538119 
L 295.463298 83.547123 
L 296.018983 82.960563 
L 296.294826 82.807504 
L 296.572669 82.793499 
L 296.990431 82.493383 
L 297.268274 82.461704 
L 297.544117 82.343992 
L 298.239722 82.260627 
L 298.793408 82.077556 
L 299.349093 81.608709 
L 299.626935 81.563691 
L 300.18262 81.031152 
L 300.598384 80.607656 
L 301.016147 80.538629 
L 301.29199 80.302538 
L 301.709753 80.215838 
L 301.987595 80.137141 
L 302.265438 80.044438 
L 302.541281 79.929394 
L 302.681202 79.929394 
L 302.959044 79.813683 
L 303.236886 79.792341 
L 303.65265 79.479554 
L 304.346257 79.399856 
L 304.901941 79.161431 
L 305.457626 79.122083 
L 306.01331 78.627892 
L 306.844839 78.554197 
L 307.538445 77.954299 
L 310.732632 77.852259 
L 311.286318 77.762558 
L 312.953372 77.705203 
L 313.509056 77.572151 
L 314.758347 77.549809 
L 315.174111 77.3524 
L 316.283482 77.335727 
L 316.561324 77.234688 
L 318.228378 77.132982 
L 318.782063 76.819528 
L 319.893433 76.764173 
L 320.171275 76.68681 
L 320.449117 76.638791 
L 322.114172 75.494683 
L 322.529936 75.418654 
L 325.724123 73.207134 
L 326.973414 73.05841 
L 327.251257 72.967375 
L 328.638469 71.901964 
L 329.054233 71.820599 
L 329.609918 71.426781 
L 330.025682 71.34675 
L 330.303524 71.254381 
L 330.581367 71.241043 
L 330.859209 71.117662 
L 331.137051 71.113327 
L 331.830658 70.619803 
L 332.1085 70.601129 
L 332.386342 70.448737 
L 332.802106 70.367039 
L 334.191318 69.209592 
L 334.46916 69.222264 
L 334.747002 69.026522 
L 335.57853 68.96183 
L 337.245584 67.519941 
L 337.521428 67.472255 
L 337.79927 67.264175 
L 338.217033 67.207153 
L 338.494875 67.13746 
L 338.770719 67.059096 
L 339.048561 66.989069 
L 339.744166 66.893032 
L 340.02001 66.764649 
L 340.853537 66.707627 
L 341.269301 66.38717 
L 341.547143 66.390838 
L 341.964906 66.022029 
L 342.38067 65.974344 
L 342.658512 65.871638 
L 342.936354 65.840293 
L 343.352118 65.574857 
L 343.629961 65.580859 
L 343.907803 65.426133 
L 344.74133 65.343768 
L 345.434936 64.80556 
L 345.8507 64.697518 
L 346.128543 64.553796 
L 346.406385 64.565468 
L 347.099991 63.998916 
L 347.933518 63.932223 
L 348.349282 63.611099 
L 348.765046 63.513062 
L 349.738494 62.62005 
L 350.014337 62.614382 
L 350.29218 62.402633 
L 351.125706 62.330272 
L 351.403549 62.169543 
L 351.819313 62.064503 
L 352.097155 61.846752 
L 352.512919 61.793398 
L 352.790761 61.689692 
L 353.486367 61.605326 
L 353.76221 61.44493 
L 354.040052 61.313546 
L 354.873579 61.231181 
L 355.151422 61.102799 
L 355.429264 61.098797 
L 355.707106 60.96041 
L 356.538634 60.858037 
L 356.956397 60.797014 
L 357.372161 60.755998 
L 357.510083 60.757999 
L 357.787925 60.644955 
L 358.621452 60.541249 
L 359.454979 60.451547 
L 360.008665 60.42287 
L 360.286507 60.296821 
L 360.70427 60.233797 
L 361.120034 60.127756 
L 361.81364 60.039722 
L 362.507247 59.845647 
L 363.756538 59.32578 
L 367.782253 56.419325 
L 368.200016 56.311617 
L 368.893622 55.822095 
L 369.309386 55.79175 
L 370.280835 55.147168 
L 370.698598 55.041127 
L 372.08581 53.956709 
L 372.501574 53.880012 
L 375.140077 51.495092 
L 377.776581 49.045481 
L 378.194343 48.956446 
L 378.610107 48.651662 
L 379.025871 48.587971 
L 379.859398 47.921714 
L 380.275162 47.82601 
L 380.553005 47.668283 
L 380.970768 47.592587 
L 381.942216 46.804283 
L 382.35798 46.725586 
L 382.773744 46.394125 
L 383.329429 46.292419 
L 383.885114 45.94195 
L 384.300878 45.874591 
L 385.412247 45.082619 
L 385.828011 45.033933 
L 391.936544 40.811305 
L 392.352308 40.744279 
L 394.017363 39.734556 
L 407.343799 32.839563 
L 410.675908 31.603753 
L 421.641684 27.684908 
L 423.722503 27.152703 
L 428.443824 26.369734 
L 428.581746 26.352727 
L 428.581746 26.352727 
" style="fill:none;stroke:#ff7f0e;stroke-linecap:square;stroke-width:1.5;"/>
   </g>
   <g id="patch_3">
    <path d="M 71.93 300.04 
L 71.93 13.32 
" style="fill:none;stroke:#000000;stroke-linecap:square;stroke-linejoin:miter;stroke-width:0.8;"/>
   </g>
   <g id="patch_4">
    <path d="M 71.93 300.04 
L 445.565162 300.04 
" style="fill:none;stroke:#000000;stroke-linecap:square;stroke-linejoin:miter;stroke-width:0.8;"/>
   </g>
   <g id="legend_1">
    <g id="patch_5">
     <path d="M 299.093287 295.04 
L 438.565162 295.04 
Q 440.565162 295.04 440.565162 293.04 
L 440.565162 264.68375 
Q 440.565162 262.68375 438.565162 262.68375 
L 299.093287 262.68375 
Q 297.093287 262.68375 297.093287 264.68375 
L 297.093287 293.04 
Q 297.093287 295.04 299.093287 295.04 
z
" style="fill:#ffffff;opacity:0.8;stroke:#cccccc;stroke-linejoin:miter;"/>
    </g>
    <g id="line2d_20">
     <path d="M 301.093287 270.782187 
L 321.093287 270.782187 
" style="fill:none;stroke:#1f77b4;stroke-linecap:square;stroke-width:1.5;"/>
    </g>
    <g id="line2d_21"/>
    <g id="text_20">
     <!-- fine-to-coarse greedy -->
     <defs>
      <path d="M 9.421875 54.6875 
L 18.40625 54.6875 
L 18.40625 0 
L 9.421875 0 
z
M 9.421875 75.984375 
L 18.40625 75.984375 
L 18.40625 64.59375 
L 9.421875 64.59375 
z
" id="DejaVuSans-69"/>
      <path d="M 54.890625 33.015625 
L 54.890625 0 
L 45.90625 0 
L 45.90625 32.71875 
Q 45.90625 40.484375 42.875 44.328125 
Q 39.84375 48.1875 33.796875 48.1875 
Q 26.515625 48.1875 22.3125 43.546875 
Q 18.109375 38.921875 18.109375 30.90625 
L 18.109375 0 
L 9.078125 0 
L 9.078125 54.6875 
L 18.109375 54.6875 
L 18.109375 46.1875 
Q 21.34375 51.125 25.703125 53.5625 
Q 30.078125 56 35.796875 56 
Q 45.21875 56 50.046875 50.171875 
Q 54.890625 44.34375 54.890625 33.015625 
z
" id="DejaVuSans-6e"/>
      <path d="M 4.890625 31.390625 
L 31.203125 31.390625 
L 31.203125 23.390625 
L 4.890625 23.390625 
z
" id="DejaVuSans-2d"/>
      <path d="M 48.78125 52.59375 
L 48.78125 44.1875 
Q 44.96875 46.296875 41.140625 47.34375 
Q 37.3125 48.390625 33.40625 48.390625 
Q 24.65625 48.390625 19.8125 42.84375 
Q 14.984375 37.3125 14.984375 27.296875 
Q 14.984375 17.28125 19.8125 11.734375 
Q 24.65625 6.203125 33.40625 6.203125 
Q 37.3125 6.203125 41.140625 7.25 
Q 44.96875 8.296875 48.78125 10.40625 
L 48.78125 2.09375 
Q 45.015625 0.34375 40.984375 -0.53125 
Q 36.96875 -1.421875 32.421875 -1.421875 
Q 20.0625 -1.421875 12.78125 6.34375 
Q 5.515625 14.109375 5.515625 27.296875 
Q 5.515625 40.671875 12.859375 48.328125 
Q 20.21875 56 33.015625 56 
Q 37.15625 56 41.109375 55.140625 
Q 45.0625 54.296875 48.78125 52.59375 
z
" id="DejaVuSans-63"/>
      <path d="M 45.40625 27.984375 
Q 45.40625 37.75 41.375 43.109375 
Q 37.359375 48.484375 30.078125 48.484375 
Q 22.859375 48.484375 18.828125 43.109375 
Q 14.796875 37.75 14.796875 27.984375 
Q 14.796875 18.265625 18.828125 12.890625 
Q 22.859375 7.515625 30.078125 7.515625 
Q 37.359375 7.515625 41.375 12.890625 
Q 45.40625 18.265625 45.40625 27.984375 
z
M 54.390625 6.78125 
Q 54.390625 -7.171875 48.1875 -13.984375 
Q 42 -20.796875 29.203125 -20.796875 
Q 24.46875 -20.796875 20.265625 -20.09375 
Q 16.0625 -19.390625 12.109375 -17.921875 
L 12.109375 -9.1875 
Q 16.0625 -11.328125 19.921875 -12.34375 
Q 23.78125 -13.375 27.78125 -13.375 
Q 36.625 -13.375 41.015625 -8.765625 
Q 45.40625 -4.15625 45.40625 5.171875 
L 45.40625 9.625 
Q 42.625 4.78125 38.28125 2.390625 
Q 33.9375 0 27.875 0 
Q 17.828125 0 11.671875 7.65625 
Q 5.515625 15.328125 5.515625 27.984375 
Q 5.515625 40.671875 11.671875 48.328125 
Q 17.828125 56 27.875 56 
Q 33.9375 56 38.28125 53.609375 
Q 42.625 51.21875 45.40625 46.390625 
L 45.40625 54.6875 
L 54.390625 54.6875 
z
" id="DejaVuSans-67"/>
     </defs>
     <g transform="translate(329.093287 274.282187)scale(0.1 -0.1)">
      <use xlink:href="#DejaVuSans-66"/>
      <use x="35.205078" xlink:href="#DejaVuSans-69"/>
      <use x="62.988281" xlink:href="#DejaVuSans-6e"/>
      <use x="126.367188" xlink:href="#DejaVuSans-65"/>
      <use x="187.890625" xlink:href="#DejaVuSans-2d"/>
      <use x="223.974609" xlink:href="#DejaVuSans-74"/>
      <use x="263.183594" xlink:href="#DejaVuSans-6f"/>
      <use x="324.380859" xlink:href="#DejaVuSans-2d"/>
      <use x="360.464844" xlink:href="#DejaVuSans-63"/>
      <use x="415.445312" xlink:href="#DejaVuSans-6f"/>
      <use x="476.626953" xlink:href="#DejaVuSans-61"/>
      <use x="537.90625" xlink:href="#DejaVuSans-72"/>
      <use x="579.019531" xlink:href="#DejaVuSans-73"/>
      <use x="631.119141" xlink:href="#DejaVuSans-65"/>
      <use x="692.642578" xlink:href="#DejaVuSans-20"/>
      <use x="724.429688" xlink:href="#DejaVuSans-67"/>
      <use x="787.90625" xlink:href="#DejaVuSans-72"/>
      <use x="828.988281" xlink:href="#DejaVuSans-65"/>
      <use x="890.511719" xlink:href="#DejaVuSans-65"/>
      <use x="952.035156" xlink:href="#DejaVuSans-64"/>
      <use x="1015.511719" xlink:href="#DejaVuSans-79"/>
     </g>
    </g>
    <g id="line2d_22">
     <path d="M 301.093287 285.460312 
L 321.093287 285.460312 
" style="fill:none;stroke:#ff7f0e;stroke-linecap:square;stroke-width:1.5;"/>
    </g>
    <g id="line2d_23"/>
    <g id="text_21">
     <!-- coarse-to-fine greedy -->
     <g transform="translate(329.093287 288.960312)scale(0.1 -0.1)">
      <use xlink:href="#DejaVuSans-63"/>
      <use x="54.980469" xlink:href="#DejaVuSans-6f"/>
      <use x="116.162109" xlink:href="#DejaVuSans-61"/>
      <use x="177.441406" xlink:href="#DejaVuSans-72"/>
      <use x="218.554688" xlink:href="#DejaVuSans-73"/>
      <use x="270.654297" xlink:href="#DejaVuSans-65"/>
      <use x="332.177734" xlink:href="#DejaVuSans-2d"/>
      <use x="368.261719" xlink:href="#DejaVuSans-74"/>
      <use x="407.470703" xlink:href="#DejaVuSans-6f"/>
      <use x="468.667969" xlink:href="#DejaVuSans-2d"/>
      <use x="504.751953" xlink:href="#DejaVuSans-66"/>
      <use x="539.957031" xlink:href="#DejaVuSans-69"/>
      <use x="567.740234" xlink:href="#DejaVuSans-6e"/>
      <use x="631.119141" xlink:href="#DejaVuSans-65"/>
      <use x="692.642578" xlink:href="#DejaVuSans-20"/>
      <use x="724.429688" xlink:href="#DejaVuSans-67"/>
      <use x="787.90625" xlink:href="#DejaVuSans-72"/>
      <use x="828.988281" xlink:href="#DejaVuSans-65"/>
      <use x="890.511719" xlink:href="#DejaVuSans-65"/>
      <use x="952.035156" xlink:href="#DejaVuSans-64"/>
      <use x="1015.511719" xlink:href="#DejaVuSans-79"/>
     </g>
    </g>
   </g>
  </g>
 </g>
 <defs>
  <clipPath id="pe3d4f21100">
   <rect height="286.72" width="373.635162" x="71.93" y="13.32"/>
  </clipPath>
 </defs>
</svg>
