<?xml version="1.0" encoding="utf-8" standalone="no"?>
<!DOCTYPE svg PUBLIC "-//W3C//DTD SVG 1.1//EN"
  "http://www.w3.org/Graphics/SVG/1.1/DTD/svg11.dtd">
<!-- Created with matplotlib (http://matplotlib.org/) -->
<svg height="345pt" version="1.1" viewBox="0 0 460 345" width="460pt" xmlns="http://www.w3.org/2000/svg" xmlns:xlink="http://www.w3.org/1999/xlink">
 <defs>
  <style type="text/css">
*{stroke-linecap:butt;stroke-linejoin:round;}
  </style>
 </defs>
 <g id="figure_1">
  <g id="patch_1">
   <path d="M 0 345.6 
L 460.8 345.6 
L 460.8 0 
L 0 0 
z
" style="fill:#ffffff;"/>
  </g>
  <g id="axes_1">
   <g id="patch_2">
    <path d="M 71.93 300.04 
L 447.48 300.04 
L 447.48 13.32 
L 71.93 13.32 
z
" style="fill:#ffffff;"/>
   </g>
   <g id="matplotlib.axis_1">
    <g id="xtick_1">
     <g id="line2d_1">
      <defs>
       <path d="M 0 0 
L 0 3.5 
" id="m6f411a1f8e" style="stroke:#000000;stroke-width:0.8;"/>
      </defs>
      <g>
       <use style="stroke:#000000;stroke-width:0.8;" x="88.999228" xlink:href="#m6f411a1f8e" y="300.04"/>
      </g>
     </g>
     <g id="text_1">
      <!-- 0 -->
      <defs>
       <path d="M 31.78125 66.40625 
Q 24.171875 66.40625 20.328125 58.90625 
Q 16.5 51.421875 16.5 36.375 
Q 16.5 21.390625 20.328125 13.890625 
Q 24.171875 6.390625 31.78125 6.390625 
Q 39.453125 6.390625 43.28125 13.890625 
Q 47.125 21.390625 47.125 36.375 
Q 47.125 51.421875 43.28125 58.90625 
Q 39.453125 66.40625 31.78125 66.40625 
z
M 31.78125 74.21875 
Q 44.046875 74.21875 50.515625 64.515625 
Q 56.984375 54.828125 56.984375 36.375 
Q 56.984375 17.96875 50.515625 8.265625 
Q 44.046875 -1.421875 31.78125 -1.421875 
Q 19.53125 -1.421875 13.0625 8.265625 
Q 6.59375 17.96875 6.59375 36.375 
Q 6.59375 54.828125 13.0625 64.515625 
Q 19.53125 74.21875 31.78125 74.21875 
z
" id="DejaVuSans-30"/>
      </defs>
      <g transform="translate(85.817978 314.638437)scale(0.1 -0.1)">
       <use xlink:href="#DejaVuSans-30"/>
      </g>
     </g>
    </g>
    <g id="xtick_2">
     <g id="line2d_2">
      <g>
       <use style="stroke:#000000;stroke-width:0.8;" x="150.315516" xlink:href="#m6f411a1f8e" y="300.04"/>
      </g>
     </g>
     <g id="text_2">
      <!-- 100000 -->
      <defs>
       <path d="M 12.40625 8.296875 
L 28.515625 8.296875 
L 28.515625 63.921875 
L 10.984375 60.40625 
L 10.984375 69.390625 
L 28.421875 72.90625 
L 38.28125 72.90625 
L 38.28125 8.296875 
L 54.390625 8.296875 
L 54.390625 0 
L 12.40625 0 
z
" id="DejaVuSans-31"/>
      </defs>
      <g transform="translate(131.228016 314.638437)scale(0.1 -0.1)">
       <use xlink:href="#DejaVuSans-31"/>
       <use x="63.623047" xlink:href="#DejaVuSans-30"/>
       <use x="127.246094" xlink:href="#DejaVuSans-30"/>
       <use x="190.869141" xlink:href="#DejaVuSans-30"/>
       <use x="254.492188" xlink:href="#DejaVuSans-30"/>
       <use x="318.115234" xlink:href="#DejaVuSans-30"/>
      </g>
     </g>
    </g>
    <g id="xtick_3">
     <g id="line2d_3">
      <g>
       <use style="stroke:#000000;stroke-width:0.8;" x="211.631804" xlink:href="#m6f411a1f8e" y="300.04"/>
      </g>
     </g>
     <g id="text_3">
      <!-- 200000 -->
      <defs>
       <path d="M 19.1875 8.296875 
L 53.609375 8.296875 
L 53.609375 0 
L 7.328125 0 
L 7.328125 8.296875 
Q 12.9375 14.109375 22.625 23.890625 
Q 32.328125 33.6875 34.8125 36.53125 
Q 39.546875 41.84375 41.421875 45.53125 
Q 43.3125 49.21875 43.3125 52.78125 
Q 43.3125 58.59375 39.234375 62.25 
Q 35.15625 65.921875 28.609375 65.921875 
Q 23.96875 65.921875 18.8125 64.3125 
Q 13.671875 62.703125 7.8125 59.421875 
L 7.8125 69.390625 
Q 13.765625 71.78125 18.9375 73 
Q 24.125 74.21875 28.421875 74.21875 
Q 39.75 74.21875 46.484375 68.546875 
Q 53.21875 62.890625 53.21875 53.421875 
Q 53.21875 48.921875 51.53125 44.890625 
Q 49.859375 40.875 45.40625 35.40625 
Q 44.1875 33.984375 37.640625 27.21875 
Q 31.109375 20.453125 19.1875 8.296875 
z
" id="DejaVuSans-32"/>
      </defs>
      <g transform="translate(192.544304 314.638437)scale(0.1 -0.1)">
       <use xlink:href="#DejaVuSans-32"/>
       <use x="63.623047" xlink:href="#DejaVuSans-30"/>
       <use x="127.246094" xlink:href="#DejaVuSans-30"/>
       <use x="190.869141" xlink:href="#DejaVuSans-30"/>
       <use x="254.492188" xlink:href="#DejaVuSans-30"/>
       <use x="318.115234" xlink:href="#DejaVuSans-30"/>
      </g>
     </g>
    </g>
    <g id="xtick_4">
     <g id="line2d_4">
      <g>
       <use style="stroke:#000000;stroke-width:0.8;" x="272.948092" xlink:href="#m6f411a1f8e" y="300.04"/>
      </g>
     </g>
     <g id="text_4">
      <!-- 300000 -->
      <defs>
       <path d="M 40.578125 39.3125 
Q 47.65625 37.796875 51.625 33 
Q 55.609375 28.21875 55.609375 21.1875 
Q 55.609375 10.40625 48.1875 4.484375 
Q 40.765625 -1.421875 27.09375 -1.421875 
Q 22.515625 -1.421875 17.65625 -0.515625 
Q 12.796875 0.390625 7.625 2.203125 
L 7.625 11.71875 
Q 11.71875 9.328125 16.59375 8.109375 
Q 21.484375 6.890625 26.8125 6.890625 
Q 36.078125 6.890625 40.9375 10.546875 
Q 45.796875 14.203125 45.796875 21.1875 
Q 45.796875 27.640625 41.28125 31.265625 
Q 36.765625 34.90625 28.71875 34.90625 
L 20.21875 34.90625 
L 20.21875 43.015625 
L 29.109375 43.015625 
Q 36.375 43.015625 40.234375 45.921875 
Q 44.09375 48.828125 44.09375 54.296875 
Q 44.09375 59.90625 40.109375 62.90625 
Q 36.140625 65.921875 28.71875 65.921875 
Q 24.65625 65.921875 20.015625 65.03125 
Q 15.375 64.15625 9.8125 62.3125 
L 9.8125 71.09375 
Q 15.4375 72.65625 20.34375 73.4375 
Q 25.25 74.21875 29.59375 74.21875 
Q 40.828125 74.21875 47.359375 69.109375 
Q 53.90625 64.015625 53.90625 55.328125 
Q 53.90625 49.265625 50.4375 45.09375 
Q 46.96875 40.921875 40.578125 39.3125 
z
" id="DejaVuSans-33"/>
      </defs>
      <g transform="translate(253.860592 314.638437)scale(0.1 -0.1)">
       <use xlink:href="#DejaVuSans-33"/>
       <use x="63.623047" xlink:href="#DejaVuSans-30"/>
       <use x="127.246094" xlink:href="#DejaVuSans-30"/>
       <use x="190.869141" xlink:href="#DejaVuSans-30"/>
       <use x="254.492188" xlink:href="#DejaVuSans-30"/>
       <use x="318.115234" xlink:href="#DejaVuSans-30"/>
      </g>
     </g>
    </g>
    <g id="xtick_5">
     <g id="line2d_5">
      <g>
       <use style="stroke:#000000;stroke-width:0.8;" x="334.26438" xlink:href="#m6f411a1f8e" y="300.04"/>
      </g>
     </g>
     <g id="text_5">
      <!-- 400000 -->
      <defs>
       <path d="M 37.796875 64.3125 
L 12.890625 25.390625 
L 37.796875 25.390625 
z
M 35.203125 72.90625 
L 47.609375 72.90625 
L 47.609375 25.390625 
L 58.015625 25.390625 
L 58.015625 17.1875 
L 47.609375 17.1875 
L 47.609375 0 
L 37.796875 0 
L 37.796875 17.1875 
L 4.890625 17.1875 
L 4.890625 26.703125 
z
" id="DejaVuSans-34"/>
      </defs>
      <g transform="translate(315.17688 314.638437)scale(0.1 -0.1)">
       <use xlink:href="#DejaVuSans-34"/>
       <use x="63.623047" xlink:href="#DejaVuSans-30"/>
       <use x="127.246094" xlink:href="#DejaVuSans-30"/>
       <use x="190.869141" xlink:href="#DejaVuSans-30"/>
       <use x="254.492188" xlink:href="#DejaVuSans-30"/>
       <use x="318.115234" xlink:href="#DejaVuSans-30"/>
      </g>
     </g>
    </g>
    <g id="xtick_6">
     <g id="line2d_6">
      <g>
       <use style="stroke:#000000;stroke-width:0.8;" x="395.580668" xlink:href="#m6f411a1f8e" y="300.04"/>
      </g>
     </g>
     <g id="text_6">
      <!-- 500000 -->
      <defs>
       <path d="M 10.796875 72.90625 
L 49.515625 72.90625 
L 49.515625 64.59375 
L 19.828125 64.59375 
L 19.828125 46.734375 
Q 21.96875 47.46875 24.109375 47.828125 
Q 26.265625 48.1875 28.421875 48.1875 
Q 40.625 48.1875 47.75 41.5 
Q 54.890625 34.8125 54.890625 23.390625 
Q 54.890625 11.625 47.5625 5.09375 
Q 40.234375 -1.421875 26.90625 -1.421875 
Q 22.3125 -1.421875 17.546875 -0.640625 
Q 12.796875 0.140625 7.71875 1.703125 
L 7.71875 11.625 
Q 12.109375 9.234375 16.796875 8.0625 
Q 21.484375 6.890625 26.703125 6.890625 
Q 35.15625 6.890625 40.078125 11.328125 
Q 45.015625 15.765625 45.015625 23.390625 
Q 45.015625 31 40.078125 35.4375 
Q 35.15625 39.890625 26.703125 39.890625 
Q 22.75 39.890625 18.8125 39.015625 
Q 14.890625 38.140625 10.796875 36.28125 
z
" id="DejaVuSans-35"/>
      </defs>
      <g transform="translate(376.493168 314.638437)scale(0.1 -0.1)">
       <use xlink:href="#DejaVuSans-35"/>
       <use x="63.623047" xlink:href="#DejaVuSans-30"/>
       <use x="127.246094" xlink:href="#DejaVuSans-30"/>
       <use x="190.869141" xlink:href="#DejaVuSans-30"/>
       <use x="254.492188" xlink:href="#DejaVuSans-30"/>
       <use x="318.115234" xlink:href="#DejaVuSans-30"/>
      </g>
     </g>
    </g>
    <g id="text_7">
     <!-- Number of Streamed Bytes -->
     <defs>
      <path d="M 9.8125 72.90625 
L 23.09375 72.90625 
L 55.421875 11.921875 
L 55.421875 72.90625 
L 64.984375 72.90625 
L 64.984375 0 
L 51.703125 0 
L 19.390625 60.984375 
L 19.390625 0 
L 9.8125 0 
z
" id="DejaVuSans-4e"/>
      <path d="M 8.5 21.578125 
L 8.5 54.6875 
L 17.484375 54.6875 
L 17.484375 21.921875 
Q 17.484375 14.15625 20.5 10.265625 
Q 23.53125 6.390625 29.59375 6.390625 
Q 36.859375 6.390625 41.078125 11.03125 
Q 45.3125 15.671875 45.3125 23.6875 
L 45.3125 54.6875 
L 54.296875 54.6875 
L 54.296875 0 
L 45.3125 0 
L 45.3125 8.40625 
Q 42.046875 3.421875 37.71875 1 
Q 33.40625 -1.421875 27.6875 -1.421875 
Q 18.265625 -1.421875 13.375 4.4375 
Q 8.5 10.296875 8.5 21.578125 
z
M 31.109375 56 
z
" id="DejaVuSans-75"/>
      <path d="M 52 44.1875 
Q 55.375 50.25 60.0625 53.125 
Q 64.75 56 71.09375 56 
Q 79.640625 56 84.28125 50.015625 
Q 88.921875 44.046875 88.921875 33.015625 
L 88.921875 0 
L 79.890625 0 
L 79.890625 32.71875 
Q 79.890625 40.578125 77.09375 44.375 
Q 74.3125 48.1875 68.609375 48.1875 
Q 61.625 48.1875 57.5625 43.546875 
Q 53.515625 38.921875 53.515625 30.90625 
L 53.515625 0 
L 44.484375 0 
L 44.484375 32.71875 
Q 44.484375 40.625 41.703125 44.40625 
Q 38.921875 48.1875 33.109375 48.1875 
Q 26.21875 48.1875 22.15625 43.53125 
Q 18.109375 38.875 18.109375 30.90625 
L 18.109375 0 
L 9.078125 0 
L 9.078125 54.6875 
L 18.109375 54.6875 
L 18.109375 46.1875 
Q 21.1875 51.21875 25.484375 53.609375 
Q 29.78125 56 35.6875 56 
Q 41.65625 56 45.828125 52.96875 
Q 50 49.953125 52 44.1875 
z
" id="DejaVuSans-6d"/>
      <path d="M 48.6875 27.296875 
Q 48.6875 37.203125 44.609375 42.84375 
Q 40.53125 48.484375 33.40625 48.484375 
Q 26.265625 48.484375 22.1875 42.84375 
Q 18.109375 37.203125 18.109375 27.296875 
Q 18.109375 17.390625 22.1875 11.75 
Q 26.265625 6.109375 33.40625 6.109375 
Q 40.53125 6.109375 44.609375 11.75 
Q 48.6875 17.390625 48.6875 27.296875 
z
M 18.109375 46.390625 
Q 20.953125 51.265625 25.265625 53.625 
Q 29.59375 56 35.59375 56 
Q 45.5625 56 51.78125 48.09375 
Q 58.015625 40.1875 58.015625 27.296875 
Q 58.015625 14.40625 51.78125 6.484375 
Q 45.5625 -1.421875 35.59375 -1.421875 
Q 29.59375 -1.421875 25.265625 0.953125 
Q 20.953125 3.328125 18.109375 8.203125 
L 18.109375 0 
L 9.078125 0 
L 9.078125 75.984375 
L 18.109375 75.984375 
z
" id="DejaVuSans-62"/>
      <path d="M 56.203125 29.59375 
L 56.203125 25.203125 
L 14.890625 25.203125 
Q 15.484375 15.921875 20.484375 11.0625 
Q 25.484375 6.203125 34.421875 6.203125 
Q 39.59375 6.203125 44.453125 7.46875 
Q 49.3125 8.734375 54.109375 11.28125 
L 54.109375 2.78125 
Q 49.265625 0.734375 44.1875 -0.34375 
Q 39.109375 -1.421875 33.890625 -1.421875 
Q 20.796875 -1.421875 13.15625 6.1875 
Q 5.515625 13.8125 5.515625 26.8125 
Q 5.515625 40.234375 12.765625 48.109375 
Q 20.015625 56 32.328125 56 
Q 43.359375 56 49.78125 48.890625 
Q 56.203125 41.796875 56.203125 29.59375 
z
M 47.21875 32.234375 
Q 47.125 39.59375 43.09375 43.984375 
Q 39.0625 48.390625 32.421875 48.390625 
Q 24.90625 48.390625 20.390625 44.140625 
Q 15.875 39.890625 15.1875 32.171875 
z
" id="DejaVuSans-65"/>
      <path d="M 41.109375 46.296875 
Q 39.59375 47.171875 37.8125 47.578125 
Q 36.03125 48 33.890625 48 
Q 26.265625 48 22.1875 43.046875 
Q 18.109375 38.09375 18.109375 28.8125 
L 18.109375 0 
L 9.078125 0 
L 9.078125 54.6875 
L 18.109375 54.6875 
L 18.109375 46.1875 
Q 20.953125 51.171875 25.484375 53.578125 
Q 30.03125 56 36.53125 56 
Q 37.453125 56 38.578125 55.875 
Q 39.703125 55.765625 41.0625 55.515625 
z
" id="DejaVuSans-72"/>
      <path id="DejaVuSans-20"/>
      <path d="M 30.609375 48.390625 
Q 23.390625 48.390625 19.1875 42.75 
Q 14.984375 37.109375 14.984375 27.296875 
Q 14.984375 17.484375 19.15625 11.84375 
Q 23.34375 6.203125 30.609375 6.203125 
Q 37.796875 6.203125 41.984375 11.859375 
Q 46.1875 17.53125 46.1875 27.296875 
Q 46.1875 37.015625 41.984375 42.703125 
Q 37.796875 48.390625 30.609375 48.390625 
z
M 30.609375 56 
Q 42.328125 56 49.015625 48.375 
Q 55.71875 40.765625 55.71875 27.296875 
Q 55.71875 13.875 49.015625 6.21875 
Q 42.328125 -1.421875 30.609375 -1.421875 
Q 18.84375 -1.421875 12.171875 6.21875 
Q 5.515625 13.875 5.515625 27.296875 
Q 5.515625 40.765625 12.171875 48.375 
Q 18.84375 56 30.609375 56 
z
" id="DejaVuSans-6f"/>
      <path d="M 37.109375 75.984375 
L 37.109375 68.5 
L 28.515625 68.5 
Q 23.6875 68.5 21.796875 66.546875 
Q 19.921875 64.59375 19.921875 59.515625 
L 19.921875 54.6875 
L 34.71875 54.6875 
L 34.71875 47.703125 
L 19.921875 47.703125 
L 19.921875 0 
L 10.890625 0 
L 10.890625 47.703125 
L 2.296875 47.703125 
L 2.296875 54.6875 
L 10.890625 54.6875 
L 10.890625 58.5 
Q 10.890625 67.625 15.140625 71.796875 
Q 19.390625 75.984375 28.609375 75.984375 
z
" id="DejaVuSans-66"/>
      <path d="M 53.515625 70.515625 
L 53.515625 60.890625 
Q 47.90625 63.578125 42.921875 64.890625 
Q 37.9375 66.21875 33.296875 66.21875 
Q 25.25 66.21875 20.875 63.09375 
Q 16.5 59.96875 16.5 54.203125 
Q 16.5 49.359375 19.40625 46.890625 
Q 22.3125 44.4375 30.421875 42.921875 
L 36.375 41.703125 
Q 47.40625 39.59375 52.65625 34.296875 
Q 57.90625 29 57.90625 20.125 
Q 57.90625 9.515625 50.796875 4.046875 
Q 43.703125 -1.421875 29.984375 -1.421875 
Q 24.8125 -1.421875 18.96875 -0.25 
Q 13.140625 0.921875 6.890625 3.21875 
L 6.890625 13.375 
Q 12.890625 10.015625 18.65625 8.296875 
Q 24.421875 6.59375 29.984375 6.59375 
Q 38.421875 6.59375 43.015625 9.90625 
Q 47.609375 13.234375 47.609375 19.390625 
Q 47.609375 24.75 44.3125 27.78125 
Q 41.015625 30.8125 33.5 32.328125 
L 27.484375 33.5 
Q 16.453125 35.6875 11.515625 40.375 
Q 6.59375 45.0625 6.59375 53.421875 
Q 6.59375 63.09375 13.40625 68.65625 
Q 20.21875 74.21875 32.171875 74.21875 
Q 37.3125 74.21875 42.625 73.28125 
Q 47.953125 72.359375 53.515625 70.515625 
z
" id="DejaVuSans-53"/>
      <path d="M 18.3125 70.21875 
L 18.3125 54.6875 
L 36.8125 54.6875 
L 36.8125 47.703125 
L 18.3125 47.703125 
L 18.3125 18.015625 
Q 18.3125 11.328125 20.140625 9.421875 
Q 21.96875 7.515625 27.59375 7.515625 
L 36.8125 7.515625 
L 36.8125 0 
L 27.59375 0 
Q 17.1875 0 13.234375 3.875 
Q 9.28125 7.765625 9.28125 18.015625 
L 9.28125 47.703125 
L 2.6875 47.703125 
L 2.6875 54.6875 
L 9.28125 54.6875 
L 9.28125 70.21875 
z
" id="DejaVuSans-74"/>
      <path d="M 34.28125 27.484375 
Q 23.390625 27.484375 19.1875 25 
Q 14.984375 22.515625 14.984375 16.5 
Q 14.984375 11.71875 18.140625 8.90625 
Q 21.296875 6.109375 26.703125 6.109375 
Q 34.1875 6.109375 38.703125 11.40625 
Q 43.21875 16.703125 43.21875 25.484375 
L 43.21875 27.484375 
z
M 52.203125 31.203125 
L 52.203125 0 
L 43.21875 0 
L 43.21875 8.296875 
Q 40.140625 3.328125 35.546875 0.953125 
Q 30.953125 -1.421875 24.3125 -1.421875 
Q 15.921875 -1.421875 10.953125 3.296875 
Q 6 8.015625 6 15.921875 
Q 6 25.140625 12.171875 29.828125 
Q 18.359375 34.515625 30.609375 34.515625 
L 43.21875 34.515625 
L 43.21875 35.40625 
Q 43.21875 41.609375 39.140625 45 
Q 35.0625 48.390625 27.6875 48.390625 
Q 23 48.390625 18.546875 47.265625 
Q 14.109375 46.140625 10.015625 43.890625 
L 10.015625 52.203125 
Q 14.9375 54.109375 19.578125 55.046875 
Q 24.21875 56 28.609375 56 
Q 40.484375 56 46.34375 49.84375 
Q 52.203125 43.703125 52.203125 31.203125 
z
" id="DejaVuSans-61"/>
      <path d="M 45.40625 46.390625 
L 45.40625 75.984375 
L 54.390625 75.984375 
L 54.390625 0 
L 45.40625 0 
L 45.40625 8.203125 
Q 42.578125 3.328125 38.25 0.953125 
Q 33.9375 -1.421875 27.875 -1.421875 
Q 17.96875 -1.421875 11.734375 6.484375 
Q 5.515625 14.40625 5.515625 27.296875 
Q 5.515625 40.1875 11.734375 48.09375 
Q 17.96875 56 27.875 56 
Q 33.9375 56 38.25 53.625 
Q 42.578125 51.265625 45.40625 46.390625 
z
M 14.796875 27.296875 
Q 14.796875 17.390625 18.875 11.75 
Q 22.953125 6.109375 30.078125 6.109375 
Q 37.203125 6.109375 41.296875 11.75 
Q 45.40625 17.390625 45.40625 27.296875 
Q 45.40625 37.203125 41.296875 42.84375 
Q 37.203125 48.484375 30.078125 48.484375 
Q 22.953125 48.484375 18.875 42.84375 
Q 14.796875 37.203125 14.796875 27.296875 
z
" id="DejaVuSans-64"/>
      <path d="M 19.671875 34.8125 
L 19.671875 8.109375 
L 35.5 8.109375 
Q 43.453125 8.109375 47.28125 11.40625 
Q 51.125 14.703125 51.125 21.484375 
Q 51.125 28.328125 47.28125 31.5625 
Q 43.453125 34.8125 35.5 34.8125 
z
M 19.671875 64.796875 
L 19.671875 42.828125 
L 34.28125 42.828125 
Q 41.5 42.828125 45.03125 45.53125 
Q 48.578125 48.25 48.578125 53.8125 
Q 48.578125 59.328125 45.03125 62.0625 
Q 41.5 64.796875 34.28125 64.796875 
z
M 9.8125 72.90625 
L 35.015625 72.90625 
Q 46.296875 72.90625 52.390625 68.21875 
Q 58.5 63.53125 58.5 54.890625 
Q 58.5 48.1875 55.375 44.234375 
Q 52.25 40.28125 46.1875 39.3125 
Q 53.46875 37.75 57.5 32.78125 
Q 61.53125 27.828125 61.53125 20.40625 
Q 61.53125 10.640625 54.890625 5.3125 
Q 48.25 0 35.984375 0 
L 9.8125 0 
z
" id="DejaVuSans-42"/>
      <path d="M 32.171875 -5.078125 
Q 28.375 -14.84375 24.75 -17.8125 
Q 21.140625 -20.796875 15.09375 -20.796875 
L 7.90625 -20.796875 
L 7.90625 -13.28125 
L 13.1875 -13.28125 
Q 16.890625 -13.28125 18.9375 -11.515625 
Q 21 -9.765625 23.484375 -3.21875 
L 25.09375 0.875 
L 2.984375 54.6875 
L 12.5 54.6875 
L 29.59375 11.921875 
L 46.6875 54.6875 
L 56.203125 54.6875 
z
" id="DejaVuSans-79"/>
      <path d="M 44.28125 53.078125 
L 44.28125 44.578125 
Q 40.484375 46.53125 36.375 47.5 
Q 32.28125 48.484375 27.875 48.484375 
Q 21.1875 48.484375 17.84375 46.4375 
Q 14.5 44.390625 14.5 40.28125 
Q 14.5 37.15625 16.890625 35.375 
Q 19.28125 33.59375 26.515625 31.984375 
L 29.59375 31.296875 
Q 39.15625 29.25 43.1875 25.515625 
Q 47.21875 21.78125 47.21875 15.09375 
Q 47.21875 7.46875 41.1875 3.015625 
Q 35.15625 -1.421875 24.609375 -1.421875 
Q 20.21875 -1.421875 15.453125 -0.5625 
Q 10.6875 0.296875 5.421875 2 
L 5.421875 11.28125 
Q 10.40625 8.6875 15.234375 7.390625 
Q 20.0625 6.109375 24.8125 6.109375 
Q 31.15625 6.109375 34.5625 8.28125 
Q 37.984375 10.453125 37.984375 14.40625 
Q 37.984375 18.0625 35.515625 20.015625 
Q 33.0625 21.96875 24.703125 23.78125 
L 21.578125 24.515625 
Q 13.234375 26.265625 9.515625 29.90625 
Q 5.8125 33.546875 5.8125 39.890625 
Q 5.8125 47.609375 11.28125 51.796875 
Q 16.75 56 26.8125 56 
Q 31.78125 56 36.171875 55.265625 
Q 40.578125 54.546875 44.28125 53.078125 
z
" id="DejaVuSans-73"/>
     </defs>
     <g transform="translate(164.289531 331.355937)scale(0.14 -0.14)">
      <use xlink:href="#DejaVuSans-4e"/>
      <use x="74.804688" xlink:href="#DejaVuSans-75"/>
      <use x="138.183594" xlink:href="#DejaVuSans-6d"/>
      <use x="235.595703" xlink:href="#DejaVuSans-62"/>
      <use x="299.072266" xlink:href="#DejaVuSans-65"/>
      <use x="360.595703" xlink:href="#DejaVuSans-72"/>
      <use x="401.708984" xlink:href="#DejaVuSans-20"/>
      <use x="433.496094" xlink:href="#DejaVuSans-6f"/>
      <use x="494.677734" xlink:href="#DejaVuSans-66"/>
      <use x="529.882812" xlink:href="#DejaVuSans-20"/>
      <use x="561.669922" xlink:href="#DejaVuSans-53"/>
      <use x="625.146484" xlink:href="#DejaVuSans-74"/>
      <use x="664.355469" xlink:href="#DejaVuSans-72"/>
      <use x="705.4375" xlink:href="#DejaVuSans-65"/>
      <use x="766.960938" xlink:href="#DejaVuSans-61"/>
      <use x="828.240234" xlink:href="#DejaVuSans-6d"/>
      <use x="925.652344" xlink:href="#DejaVuSans-65"/>
      <use x="987.175781" xlink:href="#DejaVuSans-64"/>
      <use x="1050.652344" xlink:href="#DejaVuSans-20"/>
      <use x="1082.439453" xlink:href="#DejaVuSans-42"/>
      <use x="1151.042969" xlink:href="#DejaVuSans-79"/>
      <use x="1210.222656" xlink:href="#DejaVuSans-74"/>
      <use x="1249.431641" xlink:href="#DejaVuSans-65"/>
      <use x="1310.955078" xlink:href="#DejaVuSans-73"/>
     </g>
    </g>
   </g>
   <g id="matplotlib.axis_2">
    <g id="ytick_1">
     <g id="line2d_7">
      <defs>
       <path d="M 0 0 
L -3.5 0 
" id="mc95af6c9d3" style="stroke:#000000;stroke-width:0.8;"/>
      </defs>
      <g>
       <use style="stroke:#000000;stroke-width:0.8;" x="71.93" xlink:href="#mc95af6c9d3" y="268.573273"/>
      </g>
     </g>
     <g id="text_8">
      <!-- 20 -->
      <g transform="translate(52.205 272.372491)scale(0.1 -0.1)">
       <use xlink:href="#DejaVuSans-32"/>
       <use x="63.623047" xlink:href="#DejaVuSans-30"/>
      </g>
     </g>
    </g>
    <g id="ytick_2">
     <g id="line2d_8">
      <g>
       <use style="stroke:#000000;stroke-width:0.8;" x="71.93" xlink:href="#mc95af6c9d3" y="235.904515"/>
      </g>
     </g>
     <g id="text_9">
      <!-- 30 -->
      <g transform="translate(52.205 239.703734)scale(0.1 -0.1)">
       <use xlink:href="#DejaVuSans-33"/>
       <use x="63.623047" xlink:href="#DejaVuSans-30"/>
      </g>
     </g>
    </g>
    <g id="ytick_3">
     <g id="line2d_9">
      <g>
       <use style="stroke:#000000;stroke-width:0.8;" x="71.93" xlink:href="#mc95af6c9d3" y="203.235757"/>
      </g>
     </g>
     <g id="text_10">
      <!-- 40 -->
      <g transform="translate(52.205 207.034976)scale(0.1 -0.1)">
       <use xlink:href="#DejaVuSans-34"/>
       <use x="63.623047" xlink:href="#DejaVuSans-30"/>
      </g>
     </g>
    </g>
    <g id="ytick_4">
     <g id="line2d_10">
      <g>
       <use style="stroke:#000000;stroke-width:0.8;" x="71.93" xlink:href="#mc95af6c9d3" y="170.566999"/>
      </g>
     </g>
     <g id="text_11">
      <!-- 50 -->
      <g transform="translate(52.205 174.366218)scale(0.1 -0.1)">
       <use xlink:href="#DejaVuSans-35"/>
       <use x="63.623047" xlink:href="#DejaVuSans-30"/>
      </g>
     </g>
    </g>
    <g id="ytick_5">
     <g id="line2d_11">
      <g>
       <use style="stroke:#000000;stroke-width:0.8;" x="71.93" xlink:href="#mc95af6c9d3" y="137.898241"/>
      </g>
     </g>
     <g id="text_12">
      <!-- 60 -->
      <defs>
       <path d="M 33.015625 40.375 
Q 26.375 40.375 22.484375 35.828125 
Q 18.609375 31.296875 18.609375 23.390625 
Q 18.609375 15.53125 22.484375 10.953125 
Q 26.375 6.390625 33.015625 6.390625 
Q 39.65625 6.390625 43.53125 10.953125 
Q 47.40625 15.53125 47.40625 23.390625 
Q 47.40625 31.296875 43.53125 35.828125 
Q 39.65625 40.375 33.015625 40.375 
z
M 52.59375 71.296875 
L 52.59375 62.3125 
Q 48.875 64.0625 45.09375 64.984375 
Q 41.3125 65.921875 37.59375 65.921875 
Q 27.828125 65.921875 22.671875 59.328125 
Q 17.53125 52.734375 16.796875 39.40625 
Q 19.671875 43.65625 24.015625 45.921875 
Q 28.375 48.1875 33.59375 48.1875 
Q 44.578125 48.1875 50.953125 41.515625 
Q 57.328125 34.859375 57.328125 23.390625 
Q 57.328125 12.15625 50.6875 5.359375 
Q 44.046875 -1.421875 33.015625 -1.421875 
Q 20.359375 -1.421875 13.671875 8.265625 
Q 6.984375 17.96875 6.984375 36.375 
Q 6.984375 53.65625 15.1875 63.9375 
Q 23.390625 74.21875 37.203125 74.21875 
Q 40.921875 74.21875 44.703125 73.484375 
Q 48.484375 72.75 52.59375 71.296875 
z
" id="DejaVuSans-36"/>
      </defs>
      <g transform="translate(52.205 141.69746)scale(0.1 -0.1)">
       <use xlink:href="#DejaVuSans-36"/>
       <use x="63.623047" xlink:href="#DejaVuSans-30"/>
      </g>
     </g>
    </g>
    <g id="ytick_6">
     <g id="line2d_12">
      <g>
       <use style="stroke:#000000;stroke-width:0.8;" x="71.93" xlink:href="#mc95af6c9d3" y="105.229483"/>
      </g>
     </g>
     <g id="text_13">
      <!-- 70 -->
      <defs>
       <path d="M 8.203125 72.90625 
L 55.078125 72.90625 
L 55.078125 68.703125 
L 28.609375 0 
L 18.3125 0 
L 43.21875 64.59375 
L 8.203125 64.59375 
z
" id="DejaVuSans-37"/>
      </defs>
      <g transform="translate(52.205 109.028702)scale(0.1 -0.1)">
       <use xlink:href="#DejaVuSans-37"/>
       <use x="63.623047" xlink:href="#DejaVuSans-30"/>
      </g>
     </g>
    </g>
    <g id="ytick_7">
     <g id="line2d_13">
      <g>
       <use style="stroke:#000000;stroke-width:0.8;" x="71.93" xlink:href="#mc95af6c9d3" y="72.560725"/>
      </g>
     </g>
     <g id="text_14">
      <!-- 80 -->
      <defs>
       <path d="M 31.78125 34.625 
Q 24.75 34.625 20.71875 30.859375 
Q 16.703125 27.09375 16.703125 20.515625 
Q 16.703125 13.921875 20.71875 10.15625 
Q 24.75 6.390625 31.78125 6.390625 
Q 38.8125 6.390625 42.859375 10.171875 
Q 46.921875 13.96875 46.921875 20.515625 
Q 46.921875 27.09375 42.890625 30.859375 
Q 38.875 34.625 31.78125 34.625 
z
M 21.921875 38.8125 
Q 15.578125 40.375 12.03125 44.71875 
Q 8.5 49.078125 8.5 55.328125 
Q 8.5 64.0625 14.71875 69.140625 
Q 20.953125 74.21875 31.78125 74.21875 
Q 42.671875 74.21875 48.875 69.140625 
Q 55.078125 64.0625 55.078125 55.328125 
Q 55.078125 49.078125 51.53125 44.71875 
Q 48 40.375 41.703125 38.8125 
Q 48.828125 37.15625 52.796875 32.3125 
Q 56.78125 27.484375 56.78125 20.515625 
Q 56.78125 9.90625 50.3125 4.234375 
Q 43.84375 -1.421875 31.78125 -1.421875 
Q 19.734375 -1.421875 13.25 4.234375 
Q 6.78125 9.90625 6.78125 20.515625 
Q 6.78125 27.484375 10.78125 32.3125 
Q 14.796875 37.15625 21.921875 38.8125 
z
M 18.3125 54.390625 
Q 18.3125 48.734375 21.84375 45.5625 
Q 25.390625 42.390625 31.78125 42.390625 
Q 38.140625 42.390625 41.71875 45.5625 
Q 45.3125 48.734375 45.3125 54.390625 
Q 45.3125 60.0625 41.71875 63.234375 
Q 38.140625 66.40625 31.78125 66.40625 
Q 25.390625 66.40625 21.84375 63.234375 
Q 18.3125 60.0625 18.3125 54.390625 
z
" id="DejaVuSans-38"/>
      </defs>
      <g transform="translate(52.205 76.359944)scale(0.1 -0.1)">
       <use xlink:href="#DejaVuSans-38"/>
       <use x="63.623047" xlink:href="#DejaVuSans-30"/>
      </g>
     </g>
    </g>
    <g id="ytick_8">
     <g id="line2d_14">
      <g>
       <use style="stroke:#000000;stroke-width:0.8;" x="71.93" xlink:href="#mc95af6c9d3" y="39.891967"/>
      </g>
     </g>
     <g id="text_15">
      <!-- 90 -->
      <defs>
       <path d="M 10.984375 1.515625 
L 10.984375 10.5 
Q 14.703125 8.734375 18.5 7.8125 
Q 22.3125 6.890625 25.984375 6.890625 
Q 35.75 6.890625 40.890625 13.453125 
Q 46.046875 20.015625 46.78125 33.40625 
Q 43.953125 29.203125 39.59375 26.953125 
Q 35.25 24.703125 29.984375 24.703125 
Q 19.046875 24.703125 12.671875 31.3125 
Q 6.296875 37.9375 6.296875 49.421875 
Q 6.296875 60.640625 12.9375 67.421875 
Q 19.578125 74.21875 30.609375 74.21875 
Q 43.265625 74.21875 49.921875 64.515625 
Q 56.59375 54.828125 56.59375 36.375 
Q 56.59375 19.140625 48.40625 8.859375 
Q 40.234375 -1.421875 26.421875 -1.421875 
Q 22.703125 -1.421875 18.890625 -0.6875 
Q 15.09375 0.046875 10.984375 1.515625 
z
M 30.609375 32.421875 
Q 37.25 32.421875 41.125 36.953125 
Q 45.015625 41.5 45.015625 49.421875 
Q 45.015625 57.28125 41.125 61.84375 
Q 37.25 66.40625 30.609375 66.40625 
Q 23.96875 66.40625 20.09375 61.84375 
Q 16.21875 57.28125 16.21875 49.421875 
Q 16.21875 41.5 20.09375 36.953125 
Q 23.96875 32.421875 30.609375 32.421875 
z
" id="DejaVuSans-39"/>
      </defs>
      <g transform="translate(52.205 43.691186)scale(0.1 -0.1)">
       <use xlink:href="#DejaVuSans-39"/>
       <use x="63.623047" xlink:href="#DejaVuSans-30"/>
      </g>
     </g>
    </g>
    <g id="text_16">
     <!-- PSNR -->
     <defs>
      <path d="M 19.671875 64.796875 
L 19.671875 37.40625 
L 32.078125 37.40625 
Q 38.96875 37.40625 42.71875 40.96875 
Q 46.484375 44.53125 46.484375 51.125 
Q 46.484375 57.671875 42.71875 61.234375 
Q 38.96875 64.796875 32.078125 64.796875 
z
M 9.8125 72.90625 
L 32.078125 72.90625 
Q 44.34375 72.90625 50.609375 67.359375 
Q 56.890625 61.8125 56.890625 51.125 
Q 56.890625 40.328125 50.609375 34.8125 
Q 44.34375 29.296875 32.078125 29.296875 
L 19.671875 29.296875 
L 19.671875 0 
L 9.8125 0 
z
" id="DejaVuSans-50"/>
      <path d="M 44.390625 34.1875 
Q 47.5625 33.109375 50.5625 29.59375 
Q 53.5625 26.078125 56.59375 19.921875 
L 66.609375 0 
L 56 0 
L 46.6875 18.703125 
Q 43.0625 26.03125 39.671875 28.421875 
Q 36.28125 30.8125 30.421875 30.8125 
L 19.671875 30.8125 
L 19.671875 0 
L 9.8125 0 
L 9.8125 72.90625 
L 32.078125 72.90625 
Q 44.578125 72.90625 50.734375 67.671875 
Q 56.890625 62.453125 56.890625 51.90625 
Q 56.890625 45.015625 53.6875 40.46875 
Q 50.484375 35.9375 44.390625 34.1875 
z
M 19.671875 64.796875 
L 19.671875 38.921875 
L 32.078125 38.921875 
Q 39.203125 38.921875 42.84375 42.21875 
Q 46.484375 45.515625 46.484375 51.90625 
Q 46.484375 58.296875 42.84375 61.546875 
Q 39.203125 64.796875 32.078125 64.796875 
z
" id="DejaVuSans-52"/>
     </defs>
     <g transform="translate(10.674063 153.768437)scale(0.14 -0.14)">
      <use xlink:href="#DejaVuSans-50"/>
      <use x="60.302734" xlink:href="#DejaVuSans-53"/>
      <use x="123.779297" xlink:href="#DejaVuSans-4e"/>
      <use x="198.583984" xlink:href="#DejaVuSans-52"/>
     </g>
    </g>
   </g>
   <g id="line2d_15">
    <path clip-path="url(#pabb08b3822)" d="M 89.000455 287.007273 
L 89.314394 286.345077 
L 90.099242 284.715559 
L 90.570152 283.291528 
L 90.727121 282.935439 
L 91.19803 280.990668 
L 91.355 280.702856 
L 91.668939 279.330441 
L 93.081667 271.459231 
L 93.395606 269.438995 
L 93.552576 266.399167 
L 93.709545 265.649419 
L 94.180455 258.307442 
L 94.337424 256.857276 
L 96.37803 255.065068 
L 96.69197 254.558376 
L 97.476818 253.602814 
L 97.947727 253.198702 
L 98.418636 252.631572 
L 98.732576 252.375776 
L 99.203485 251.365004 
L 99.674394 250.792975 
L 101.401061 250.349986 
L 101.715 250.178802 
L 103.755606 249.580964 
L 104.069545 249.47479 
L 104.226515 248.917461 
L 104.697424 248.75085 
L 105.168333 248.492114 
L 106.424091 248.182741 
L 107.365909 247.781895 
L 108.150758 247.516298 
L 108.464697 247.3376 
L 109.092576 247.130153 
L 110.505303 246.645676 
L 110.976212 246.523821 
L 111.447121 246.305921 
L 116.313182 244.887443 
L 116.627121 244.745661 
L 117.41197 244.554222 
L 117.725909 244.425507 
L 119.295606 243.749264 
L 119.609545 243.458838 
L 120.394394 243.234731 
L 121.179242 242.794683 
L 121.964091 242.614024 
L 122.748939 242.240294 
L 123.062879 242.160255 
L 124.475606 241.56405 
L 124.789545 241.40136 
L 125.731364 241.113222 
L 126.045303 240.965885 
L 126.359242 240.840437 
L 126.673182 240.652265 
L 127.928939 240.015551 
L 128.085909 239.813985 
L 128.399848 239.706505 
L 128.870758 239.474883 
L 129.027727 239.422287 
L 129.341667 239.045943 
L 129.812576 238.74637 
L 130.754394 238.17532 
L 130.911364 238.161926 
L 131.225303 237.896982 
L 131.696212 237.643799 
L 133.265909 237.532399 
L 133.736818 237.456281 
L 134.678636 237.367095 
L 134.992576 237.267455 
L 136.562273 237.092351 
L 137.033182 237.029627 
L 137.975 236.92966 
L 138.916818 236.614407 
L 139.387727 236.567364 
L 139.701667 236.44845 
L 141.114394 236.297847 
L 142.684091 236.202454 
L 142.99803 236.04303 
L 143.468939 236.004808 
L 143.782879 235.871846 
L 146.451364 235.488641 
L 146.608333 235.474921 
L 146.765303 235.30831 
L 148.021061 235.213244 
L 148.335 235.138759 
L 148.648939 235.131899 
L 148.962879 234.990116 
L 149.276818 234.979009 
L 149.590758 234.855194 
L 149.904697 234.842453 
L 150.061667 234.229261 
L 151.317424 234.10904 
L 151.788333 234.00646 
L 156.026515 233.501401 
L 157.910152 233.286441 
L 158.85197 233.153805 
L 160.735606 232.900296 
L 161.206515 232.829405 
L 161.991364 232.752306 
L 162.462273 232.673901 
L 164.659848 232.467108 
L 176.432576 230.897374 
L 177.531364 230.795121 
L 178.159242 230.737297 
L 179.25803 230.565786 
L 179.885909 230.474967 
L 180.513788 230.342659 
L 181.141667 230.26164 
L 181.769545 230.124105 
L 182.868333 229.997677 
L 184.124091 229.802644 
L 185.065909 229.689937 
L 187.577424 229.360636 
L 189.93197 229.1117 
L 190.559848 229.00814 
L 190.873788 228.923201 
L 192.443485 228.680472 
L 193.071364 228.569399 
L 199.821061 227.901976 
L 200.135 227.820304 
L 201.233788 227.71413 
L 202.175606 227.469115 
L 205.47197 227.045728 
L 206.570758 226.939228 
L 207.041667 226.881731 
L 209.553182 226.260044 
L 209.710152 226.259717 
L 210.024091 226.130349 
L 210.181061 226.130022 
L 210.495 226.001308 
L 212.692576 225.526304 
L 213.163485 225.466193 
L 213.477424 225.382235 
L 213.791364 225.304156 
L 215.204091 225.051953 
L 216.302879 224.94284 
L 216.930758 224.812491 
L 218.186515 224.672342 
L 218.657424 224.550488 
L 219.913182 224.356762 
L 220.384091 224.215307 
L 221.482879 224.023541 
L 222.581667 223.867058 
L 224.465303 223.563891 
L 225.250152 223.506394 
L 225.564091 223.378006 
L 226.035 223.320836 
L 226.505909 223.23263 
L 227.133788 222.952986 
L 228.232576 222.853019 
L 228.389545 222.631198 
L 229.174394 222.537439 
L 229.802273 222.213365 
L 230.587121 222.133653 
L 230.901061 222.092491 
L 231.05803 221.66747 
L 232.313788 221.525034 
L 232.470758 221.273485 
L 233.255606 221.19116 
L 233.883485 221.069959 
L 234.511364 220.961498 
L 234.825303 220.865452 
L 239.063485 220.090876 
L 239.377424 220.011491 
L 239.534394 220.007244 
L 239.848333 219.79261 
L 240.162273 219.69493 
L 240.947121 219.569809 
L 242.045909 219.229074 
L 242.359848 219.131394 
L 242.516818 219.098726 
L 242.673788 218.897813 
L 242.987727 218.882785 
L 243.301667 218.720095 
L 243.772576 218.624049 
L 243.929545 218.595953 
L 244.086515 218.376746 
L 244.400455 218.370539 
L 244.714394 218.224836 
L 245.185303 218.146758 
L 245.342273 217.853066 
L 245.656212 217.843265 
L 245.970152 217.720104 
L 246.59803 217.625691 
L 246.91197 217.469208 
L 247.853788 217.23236 
L 248.010758 217.02426 
L 248.324697 216.957615 
L 248.638636 216.795905 
L 248.952576 216.710966 
L 249.266515 216.621454 
L 249.423485 216.288886 
L 250.208333 216.155597 
L 250.522273 215.917442 
L 250.836212 215.800161 
L 250.993182 215.753445 
L 251.307121 215.584221 
L 251.77803 215.476087 
L 252.248939 215.388535 
L 252.405909 215.062174 
L 253.190758 214.869755 
L 253.975606 214.580636 
L 254.289545 214.48557 
L 254.760455 214.22128 
L 254.917424 214.217687 
L 255.231364 213.996192 
L 255.545303 213.971037 
L 255.859242 213.721775 
L 256.487121 213.572805 
L 256.95803 213.360785 
L 257.27197 213.188294 
L 257.585909 213.071667 
L 258.056818 212.939685 
L 258.213788 212.938051 
L 258.527727 212.709697 
L 258.684697 212.532959 
L 259.469545 212.406531 
L 259.940455 212.221625 
L 269.515606 211.524801 
L 269.829545 211.384979 
L 271.085303 211.302653 
L 271.399242 211.231435 
L 272.341061 211.180799 
L 272.49803 210.99034 
L 274.852576 210.866199 
L 276.736212 210.662672 
L 278.305909 210.449019 
L 279.875606 210.322591 
L 282.85803 210.127885 
L 284.584697 209.859348 
L 285.369545 209.790416 
L 285.997424 209.678689 
L 286.311364 209.53854 
L 286.782273 209.490191 
L 287.096212 209.384344 
L 287.253182 209.346448 
L 287.410152 209.153702 
L 289.764697 208.952463 
L 290.235606 208.772131 
L 291.334394 208.593433 
L 291.648333 208.503267 
L 292.590152 208.432703 
L 292.904091 208.353318 
L 295.101667 208.22591 
L 295.415606 208.135417 
L 296.357424 208.112222 
L 296.671364 208.008009 
L 297.770152 207.944305 
L 298.084091 207.856099 
L 300.281667 207.748619 
L 302.793182 207.583315 
L 304.362879 207.481062 
L 304.676818 207.445453 
L 304.833788 207.215465 
L 306.089545 207.108638 
L 306.403485 206.978616 
L 307.345303 206.905765 
L 307.659242 206.698319 
L 308.444091 206.630368 
L 308.75803 206.555883 
L 309.699848 206.518967 
L 310.013788 206.376858 
L 311.897424 206.272971 
L 312.996212 206.124655 
L 314.565909 206.003781 
L 315.821667 205.912308 
L 316.292576 205.884213 
L 316.606515 205.513423 
L 317.705303 205.480754 
L 317.862273 205.151126 
L 319.11803 204.980922 
L 319.275 204.524866 
L 320.373788 204.455935 
L 320.687727 204.258616 
L 321.786515 204.167797 
L 322.100455 204.094619 
L 323.042273 204.005433 
L 323.356212 203.844049 
L 324.29803 203.813667 
L 324.768939 203.472932 
L 325.710758 203.415762 
L 326.024697 203.323963 
L 326.966515 203.293254 
L 327.280455 202.781988 
L 328.379242 202.703909 
L 328.693182 202.550693 
L 329.635 202.514104 
L 329.948939 202.34292 
L 330.890758 202.281502 
L 331.047727 202.13286 
L 331.204697 201.814339 
L 332.303485 201.727114 
L 332.460455 200.68008 
L 332.617424 200.507589 
L 333.716212 200.393575 
L 333.873182 200.020824 
L 334.97197 199.95026 
L 335.442879 199.554641 
L 336.384697 199.505311 
L 336.698636 199.415146 
L 337.640455 199.371043 
L 337.954394 199.243308 
L 338.268333 199.212599 
L 338.582273 199.058076 
L 340.465909 198.704273 
L 340.779848 198.452397 
L 341.721667 198.359618 
L 342.035606 198.134204 
L 343.134394 198.020843 
L 346.430758 197.357014 
L 348.000455 197.212618 
L 349.727121 196.965642 
L 350.041061 196.807852 
L 350.982879 196.723893 
L 351.139848 196.41746 
L 356.476818 195.703648 
L 356.790758 195.562846 
L 357.261667 195.519723 
L 357.575606 195.41453 
L 359.302273 195.104176 
L 360.087121 194.992122 
L 360.401061 194.974481 
L 360.715 194.831719 
L 361.656818 194.722279 
L 362.284697 194.443614 
L 362.755606 194.356388 
L 363.069545 194.292358 
L 363.226515 194.11562 
L 364.325303 194.013693 
L 364.639242 193.86015 
L 365.581061 193.770311 
L 372.173788 192.600769 
L 372.330758 192.261668 
L 373.900455 191.92812 
L 374.528333 191.828807 
L 375.313182 191.710546 
L 375.627121 191.600125 
L 383.161667 189.937939 
L 383.475606 189.731146 
L 384.417424 189.623012 
L 384.731364 189.495931 
L 385.359242 189.405112 
L 385.987121 189.195705 
L 387.085909 189.121873 
L 387.399848 188.993158 
L 388.341667 188.903319 
L 389.126515 188.649156 
L 389.754394 188.537429 
L 390.382273 188.285553 
L 391.010152 188.231976 
L 391.324091 188.039557 
L 392.422879 187.797809 
L 392.893788 187.572721 
L 393.364697 187.483535 
L 394.463485 187.249627 
L 395.091364 187.133653 
L 395.405303 187.003304 
L 396.347121 186.925553 
L 396.661061 186.748815 
L 397.602879 186.633167 
L 397.916818 186.285572 
L 399.015606 186.193119 
L 399.329545 185.924909 
L 399.957424 185.850424 
L 401.213182 185.605082 
L 401.684091 185.545951 
L 401.841061 184.897803 
L 402.468939 184.817765 
L 403.096818 184.758961 
L 403.253788 182.719777 
L 404.038636 182.594329 
L 404.352576 182.551533 
L 404.666515 181.502866 
L 404.980455 181.488491 
L 405.608333 181.153637 
L 405.765303 181.0981 
L 405.922273 180.68876 
L 406.550152 180.548611 
L 407.021061 180.471186 
L 407.17803 180.343125 
L 407.335 180.025584 
L 407.962879 179.901116 
L 408.590758 179.657734 
L 408.747727 179.334967 
L 408.904697 179.334314 
L 409.061667 179.07623 
L 409.689545 178.983124 
L 409.846515 178.830235 
L 410.003485 178.126876 
L 410.631364 178.011229 
L 410.945303 177.913549 
L 411.102273 177.889701 
L 411.416212 177.475135 
L 412.044091 177.391502 
L 412.515 177.121332 
L 412.67197 176.453582 
L 413.456818 176.288279 
L 413.770758 176.187985 
L 413.927727 174.369642 
L 414.712576 174.23178 
L 415.654394 173.492486 
L 416.282273 173.258578 
L 416.753182 172.71105 
L 417.067121 172.678054 
L 417.695 172.291583 
L 418.008939 171.025015 
L 418.322879 170.956411 
L 418.793788 170.620249 
L 418.950758 170.57582 
L 419.107727 170.045606 
L 419.264697 168.313181 
L 419.578636 168.161598 
L 420.206515 167.71567 
L 420.363485 167.700315 
L 420.677424 166.097913 
L 420.991364 166.066551 
L 421.148333 165.724182 
L 421.619242 165.550711 
L 421.776212 165.104129 
L 421.933182 162.952892 
L 422.247121 162.926757 
L 422.561061 162.51807 
L 423.03197 162.35146 
L 423.188939 160.650724 
L 423.345909 160.416816 
L 423.502879 160.413549 
L 423.659848 160.289081 
L 423.816818 159.08099 
L 423.973788 159.02872 
L 424.130758 158.573645 
L 424.287727 158.510267 
L 424.444697 158.312294 
L 424.601667 157.639971 
L 424.915606 157.536411 
L 425.229545 156.67853 
L 425.386515 156.591958 
L 425.543485 156.287812 
L 425.700455 156.271804 
L 426.014394 151.096746 
L 426.171364 150.154252 
L 426.328333 150.090548 
L 426.485303 149.436193 
L 426.642273 149.296044 
L 426.799242 148.03013 
L 426.956212 147.922649 
L 427.113182 147.516577 
L 427.427121 143.596979 
L 427.584091 143.589792 
L 427.741061 143.370585 
L 428.055 142.699242 
L 428.21197 141.435941 
L 428.368939 141.412746 
L 428.682879 136.760062 
L 428.996818 136.475517 
L 429.153788 134.288997 
L 429.310758 134.018499 
L 429.467727 131.643807 
L 429.624697 131.376904 
L 429.781667 123.858516 
L 429.938636 106.933812 
L 430.095606 103.789118 
L 430.252576 103.628714 
L 430.409545 91.488677 
L 430.409545 91.488677 
" style="fill:none;stroke:#1f77b4;stroke-linecap:square;stroke-width:1.5;"/>
   </g>
   <g id="line2d_16">
    <path clip-path="url(#pabb08b3822)" d="M 89.000455 287.007273 
L 89.157424 286.932788 
L 89.314394 286.578332 
L 109.092576 286.578332 
L 109.249545 286.322862 
L 109.406515 285.221272 
L 129.184697 285.236626 
L 129.498636 275.417377 
L 129.812576 275.50885 
L 133.893788 275.551646 
L 149.276818 275.44972 
L 149.747727 266.598773 
L 149.904697 266.307368 
L 150.061667 266.318148 
L 150.218636 266.151864 
L 150.846515 266.136837 
L 151.317424 266.0764 
L 152.887121 266.059738 
L 169.368939 266.041444 
L 169.839848 258.01865 
L 169.996818 257.157502 
L 170.938636 256.140523 
L 171.252576 255.849118 
L 172.037424 255.25618 
L 172.822273 255.174182 
L 173.136212 255.069642 
L 177.531364 254.998097 
L 181.612576 254.925246 
L 187.734394 254.93472 
L 189.461061 254.883103 
L 189.93197 250.294449 
L 190.245909 249.05369 
L 190.873788 247.768174 
L 191.344697 247.213132 
L 191.815606 246.440189 
L 191.972576 246.150091 
L 192.286515 246.040977 
L 192.757424 245.830264 
L 199.664091 244.596365 
L 202.960455 244.5307 
L 204.059242 244.439228 
L 207.669545 244.443475 
L 209.553182 244.392511 
L 210.024091 241.890411 
L 210.33803 241.03547 
L 212.221667 237.428512 
L 214.105303 236.166518 
L 214.890152 235.737251 
L 215.361061 235.444539 
L 218.814394 233.860104 
L 219.599242 233.402088 
L 223.837424 233.054492 
L 224.622273 232.969227 
L 228.546515 232.849986 
L 229.645303 232.769947 
L 230.116212 231.260651 
L 230.587121 230.441645 
L 231.37197 229.256096 
L 232.313788 227.835005 
L 233.569545 226.800059 
L 235.610152 225.322777 
L 236.23803 224.885669 
L 236.865909 224.413279 
L 239.063485 222.408071 
L 239.848333 221.862829 
L 241.104091 221.541695 
L 242.045909 221.232322 
L 242.830758 221.073879 
L 243.458636 220.862185 
L 245.970152 220.224491 
L 248.167727 219.949747 
L 249.737424 219.69493 
L 250.365303 218.579619 
L 253.033788 215.678633 
L 255.702273 213.577052 
L 257.742879 211.66103 
L 258.841667 210.57022 
L 260.097424 209.315086 
L 260.725303 209.030868 
L 261.667121 208.486933 
L 264.335606 207.263488 
L 266.062273 206.545102 
L 267.31803 206.101134 
L 268.887727 205.475527 
L 269.829545 205.092322 
L 270.457424 204.359562 
L 272.81197 202.328545 
L 276.579242 199.461862 
L 277.835 198.28644 
L 278.776818 197.39589 
L 280.503485 195.827463 
L 282.387121 194.610878 
L 284.113788 193.507981 
L 287.096212 191.605679 
L 288.822879 190.590007 
L 289.921667 189.824905 
L 290.706515 189.107499 
L 292.904091 187.568147 
L 294.630758 186.453489 
L 296.514394 185.093489 
L 300.595606 181.56755 
L 303.735 178.8139 
L 309.699848 172.890074 
L 310.327727 172.253034 
L 314.408939 169.724798 
L 317.705303 167.547752 
L 319.588939 166.073738 
L 321.629545 164.396197 
L 327.908333 157.954898 
L 329.635 155.759231 
L 330.419848 154.771981 
L 335.442879 151.789977 
L 337.483485 150.299302 
L 340.622879 147.701155 
L 342.192576 146.155596 
L 343.605303 144.602197 
L 347.686515 139.669868 
L 348.785303 137.98318 
L 350.355 135.561445 
L 350.982879 135.260566 
L 355.69197 132.596755 
L 358.674394 130.42853 
L 363.226515 126.441961 
L 366.05197 123.376978 
L 367.778636 121.260369 
L 369.819242 118.276405 
L 370.604091 117.080402 
L 373.115606 115.667805 
L 375.941061 113.951388 
L 379.865303 110.841976 
L 382.376818 108.438209 
L 384.731364 105.744343 
L 387.399848 102.358226 
L 388.655606 100.496433 
L 390.539242 97.551998 
L 390.696212 97.627463 
L 395.562273 95.5004 
L 399.957424 93.227962 
L 404.666515 90.364545 
L 409.846515 86.449848 
L 410.631364 85.625615 
L 410.788333 85.341397 
L 412.828939 84.550159 
L 415.026515 83.665163 
L 416.439242 83.040536 
L 421.462273 80.328376 
L 424.601667 78.290499 
L 426.328333 77.1582 
L 429.310758 75.236296 
L 430.409545 74.46074 
L 430.409545 74.46074 
" style="fill:none;stroke:#ff7f0e;stroke-linecap:square;stroke-width:1.5;"/>
   </g>
   <g id="line2d_17">
    <path clip-path="url(#pabb08b3822)" d="M 89.000455 287.007273 
L 89.314394 285.590102 
L 89.785303 280.906382 
L 90.256212 280.865873 
L 90.727121 269.527854 
L 90.884091 269.354709 
L 91.19803 269.375944 
L 91.51197 262.500151 
L 92.924697 262.519098 
L 94.337424 262.517792 
L 94.651364 261.339103 
L 94.808333 261.263965 
L 94.965303 260.998368 
L 95.279242 255.851732 
L 95.750152 255.650165 
L 96.064091 255.57274 
L 97.005909 255.409397 
L 97.790758 255.315637 
L 98.104697 255.187903 
L 108.150758 255.194436 
L 108.621667 253.388181 
L 108.778636 253.035358 
L 109.092576 251.176179 
L 110.348333 251.173892 
L 111.133182 250.074262 
L 111.447121 249.593051 
L 111.604091 249.333008 
L 112.545909 249.165744 
L 113.016818 248.632263 
L 113.173788 248.263759 
L 116.941061 248.159546 
L 118.510758 248.088655 
L 123.219848 248.087348 
L 123.690758 246.358517 
L 123.847727 246.067439 
L 128.870758 246.062538 
L 129.184697 245.215111 
L 130.126515 245.186036 
L 130.440455 245.15794 
L 131.225303 243.762004 
L 131.853182 242.691449 
L 132.95197 242.069436 
L 133.265909 241.172679 
L 134.207727 240.944324 
L 134.521667 240.845011 
L 135.149545 240.755825 
L 135.620455 240.561446 
L 137.347121 240.244886 
L 138.288939 239.951521 
L 142.527121 239.856128 
L 142.99803 239.802551 
L 143.31197 239.794384 
L 143.939848 238.660778 
L 148.962879 238.636276 
L 149.433788 238.246211 
L 150.532576 237.809103 
L 152.259242 235.056107 
L 153.044091 234.500412 
L 153.515 233.837889 
L 154.456818 233.364519 
L 155.241667 233.086834 
L 157.439242 231.931994 
L 158.53803 231.362577 
L 162.619242 230.973819 
L 163.090152 230.884307 
L 163.404091 230.849351 
L 164.03197 230.20251 
L 167.328333 230.183235 
L 167.799242 230.122145 
L 169.055 230.038839 
L 169.525909 229.764095 
L 170.467727 228.866358 
L 170.781667 228.599127 
L 172.037424 227.151574 
L 174.548939 225.122191 
L 177.531364 222.374749 
L 178.630152 221.418861 
L 179.415 221.225135 
L 180.199848 220.920662 
L 180.670758 220.765159 
L 182.083485 220.391428 
L 183.967121 219.553148 
L 184.281061 219.437174 
L 185.850758 219.203266 
L 188.048333 218.958577 
L 189.461061 218.708987 
L 190.402879 217.605763 
L 190.873788 217.08633 
L 192.443485 215.897187 
L 193.699242 215.068708 
L 196.681667 212.406857 
L 198.094394 210.949177 
L 198.722273 210.339905 
L 202.646515 208.661384 
L 203.745303 208.115816 
L 207.512576 206.601619 
L 208.454394 206.223641 
L 208.925303 205.981893 
L 209.710152 205.613389 
L 210.965909 204.106379 
L 214.105303 202.302737 
L 215.51803 201.129602 
L 217.558636 199.330207 
L 219.285303 197.903889 
L 223.837424 195.302476 
L 224.622273 194.99735 
L 228.546515 192.079049 
L 229.174394 191.548182 
L 229.488333 191.420447 
L 229.645303 191.40542 
L 231.215 189.714158 
L 234.040455 188.466538 
L 236.395 186.865769 
L 239.063485 184.830505 
L 240.319242 183.967397 
L 241.41803 183.226469 
L 243.615606 181.531941 
L 243.929545 181.371211 
L 244.400455 181.286272 
L 246.284091 179.325166 
L 248.167727 177.239919 
L 249.580455 175.523176 
L 249.737424 175.506515 
L 251.307121 173.861643 
L 254.446515 172.619577 
L 259.469545 169.533033 
L 262.45197 167.338346 
L 264.021667 166.185792 
L 264.492576 166.119801 
L 265.905303 164.320406 
L 269.201667 158.800366 
L 269.515606 158.156465 
L 269.829545 158.14307 
L 271.399242 156.571376 
L 274.695606 155.38158 
L 278.462879 153.086927 
L 280.817424 151.425067 
L 282.85803 149.816784 
L 284.113788 148.893565 
L 284.584697 148.837701 
L 285.840455 147.062154 
L 287.253182 144.724378 
L 288.979848 141.186678 
L 289.607727 139.730305 
L 289.921667 139.693063 
L 291.334394 138.074979 
L 294.316818 137.121705 
L 298.241061 134.751913 
L 302.008333 132.082222 
L 304.362879 130.369726 
L 304.676818 130.33771 
L 305.775606 128.650696 
L 307.188333 126.127688 
L 308.915 122.318184 
L 309.699848 120.192754 
L 310.013788 120.204842 
L 311.583485 118.513253 
L 314.722879 117.435511 
L 317.862273 115.622068 
L 320.530758 113.893564 
L 324.455 111.073924 
L 324.768939 111.039295 
L 326.652576 107.98542 
L 327.908333 105.487566 
L 329.007121 102.903794 
L 329.948939 100.678398 
L 330.105909 100.631355 
L 331.518636 99.02928 
L 334.501061 98.132522 
L 337.797424 96.17403 
L 340.936818 94.034553 
L 344.076212 91.558588 
L 344.390152 91.402758 
L 344.861061 91.362575 
L 346.273788 89.117905 
L 347.686515 86.507345 
L 349.570152 82.006897 
L 350.041061 80.879498 
L 351.296818 79.427371 
L 354.279242 78.424767 
L 358.360455 76.190551 
L 361.656818 74.04846 
L 364.168333 72.317016 
L 364.639242 72.252332 
L 366.208939 69.800215 
L 367.307727 67.800561 
L 368.406515 65.467358 
L 369.976212 61.95416 
L 371.075 60.826761 
L 373.900455 60.158358 
L 377.196818 58.273371 
L 380.179242 56.306711 
L 383.161667 54.048974 
L 383.946515 53.327974 
L 385.202273 51.632139 
L 386.77197 49.175448 
L 388.027727 46.821011 
L 388.969545 44.999401 
L 390.225303 43.820385 
L 394.463485 42.511675 
L 402.31197 39.591741 
L 403.096818 39.180442 
L 405.608333 36.518918 
L 407.648939 33.909991 
L 408.119848 33.399052 
L 410.003485 32.621209 
L 416.282273 30.624494 
L 422.561061 28.237388 
L 424.915606 27.353045 
L 426.956212 26.954486 
L 430.409545 26.352727 
L 430.409545 26.352727 
" style="fill:none;stroke:#2ca02c;stroke-linecap:square;stroke-width:1.5;"/>
   </g>
   <g id="patch_3">
    <path d="M 71.93 300.04 
L 71.93 13.32 
" style="fill:none;stroke:#000000;stroke-linecap:square;stroke-linejoin:miter;stroke-width:0.8;"/>
   </g>
   <g id="patch_4">
    <path d="M 71.93 300.04 
L 447.48 300.04 
" style="fill:none;stroke:#000000;stroke-linecap:square;stroke-linejoin:miter;stroke-width:0.8;"/>
   </g>
   <g id="legend_1">
    <g id="patch_5">
     <path d="M 324.320625 295.04 
L 440.48 295.04 
Q 442.48 295.04 442.48 293.04 
L 442.48 250.005625 
Q 442.48 248.005625 440.48 248.005625 
L 324.320625 248.005625 
Q 322.320625 248.005625 322.320625 250.005625 
L 322.320625 293.04 
Q 322.320625 295.04 324.320625 295.04 
z
" style="fill:#ffffff;opacity:0.8;stroke:#cccccc;stroke-linejoin:miter;"/>
    </g>
    <g id="line2d_18">
     <path d="M 326.320625 256.104062 
L 346.320625 256.104062 
" style="fill:none;stroke:#1f77b4;stroke-linecap:square;stroke-width:1.5;"/>
    </g>
    <g id="line2d_19"/>
    <g id="text_17">
     <!-- by resolution -->
     <defs>
      <path d="M 9.421875 75.984375 
L 18.40625 75.984375 
L 18.40625 0 
L 9.421875 0 
z
" id="DejaVuSans-6c"/>
      <path d="M 9.421875 54.6875 
L 18.40625 54.6875 
L 18.40625 0 
L 9.421875 0 
z
M 9.421875 75.984375 
L 18.40625 75.984375 
L 18.40625 64.59375 
L 9.421875 64.59375 
z
" id="DejaVuSans-69"/>
      <path d="M 54.890625 33.015625 
L 54.890625 0 
L 45.90625 0 
L 45.90625 32.71875 
Q 45.90625 40.484375 42.875 44.328125 
Q 39.84375 48.1875 33.796875 48.1875 
Q 26.515625 48.1875 22.3125 43.546875 
Q 18.109375 38.921875 18.109375 30.90625 
L 18.109375 0 
L 9.078125 0 
L 9.078125 54.6875 
L 18.109375 54.6875 
L 18.109375 46.1875 
Q 21.34375 51.125 25.703125 53.5625 
Q 30.078125 56 35.796875 56 
Q 45.21875 56 50.046875 50.171875 
Q 54.890625 44.34375 54.890625 33.015625 
z
" id="DejaVuSans-6e"/>
     </defs>
     <g transform="translate(354.320625 259.604062)scale(0.1 -0.1)">
      <use xlink:href="#DejaVuSans-62"/>
      <use x="63.476562" xlink:href="#DejaVuSans-79"/>
      <use x="122.65625" xlink:href="#DejaVuSans-20"/>
      <use x="154.443359" xlink:href="#DejaVuSans-72"/>
      <use x="195.525391" xlink:href="#DejaVuSans-65"/>
      <use x="257.048828" xlink:href="#DejaVuSans-73"/>
      <use x="309.148438" xlink:href="#DejaVuSans-6f"/>
      <use x="370.330078" xlink:href="#DejaVuSans-6c"/>
      <use x="398.113281" xlink:href="#DejaVuSans-75"/>
      <use x="461.492188" xlink:href="#DejaVuSans-74"/>
      <use x="500.701172" xlink:href="#DejaVuSans-69"/>
      <use x="528.484375" xlink:href="#DejaVuSans-6f"/>
      <use x="589.666016" xlink:href="#DejaVuSans-6e"/>
     </g>
    </g>
    <g id="line2d_20">
     <path d="M 326.320625 270.782187 
L 346.320625 270.782187 
" style="fill:none;stroke:#ff7f0e;stroke-linecap:square;stroke-width:1.5;"/>
    </g>
    <g id="line2d_21"/>
    <g id="text_18">
     <!-- by precision -->
     <defs>
      <path d="M 18.109375 8.203125 
L 18.109375 -20.796875 
L 9.078125 -20.796875 
L 9.078125 54.6875 
L 18.109375 54.6875 
L 18.109375 46.390625 
Q 20.953125 51.265625 25.265625 53.625 
Q 29.59375 56 35.59375 56 
Q 45.5625 56 51.78125 48.09375 
Q 58.015625 40.1875 58.015625 27.296875 
Q 58.015625 14.40625 51.78125 6.484375 
Q 45.5625 -1.421875 35.59375 -1.421875 
Q 29.59375 -1.421875 25.265625 0.953125 
Q 20.953125 3.328125 18.109375 8.203125 
z
M 48.6875 27.296875 
Q 48.6875 37.203125 44.609375 42.84375 
Q 40.53125 48.484375 33.40625 48.484375 
Q 26.265625 48.484375 22.1875 42.84375 
Q 18.109375 37.203125 18.109375 27.296875 
Q 18.109375 17.390625 22.1875 11.75 
Q 26.265625 6.109375 33.40625 6.109375 
Q 40.53125 6.109375 44.609375 11.75 
Q 48.6875 17.390625 48.6875 27.296875 
z
" id="DejaVuSans-70"/>
      <path d="M 48.78125 52.59375 
L 48.78125 44.1875 
Q 44.96875 46.296875 41.140625 47.34375 
Q 37.3125 48.390625 33.40625 48.390625 
Q 24.65625 48.390625 19.8125 42.84375 
Q 14.984375 37.3125 14.984375 27.296875 
Q 14.984375 17.28125 19.8125 11.734375 
Q 24.65625 6.203125 33.40625 6.203125 
Q 37.3125 6.203125 41.140625 7.25 
Q 44.96875 8.296875 48.78125 10.40625 
L 48.78125 2.09375 
Q 45.015625 0.34375 40.984375 -0.53125 
Q 36.96875 -1.421875 32.421875 -1.421875 
Q 20.0625 -1.421875 12.78125 6.34375 
Q 5.515625 14.109375 5.515625 27.296875 
Q 5.515625 40.671875 12.859375 48.328125 
Q 20.21875 56 33.015625 56 
Q 37.15625 56 41.109375 55.140625 
Q 45.0625 54.296875 48.78125 52.59375 
z
" id="DejaVuSans-63"/>
     </defs>
     <g transform="translate(354.320625 274.282187)scale(0.1 -0.1)">
      <use xlink:href="#DejaVuSans-62"/>
      <use x="63.476562" xlink:href="#DejaVuSans-79"/>
      <use x="122.65625" xlink:href="#DejaVuSans-20"/>
      <use x="154.443359" xlink:href="#DejaVuSans-70"/>
      <use x="217.919922" xlink:href="#DejaVuSans-72"/>
      <use x="259.001953" xlink:href="#DejaVuSans-65"/>
      <use x="320.525391" xlink:href="#DejaVuSans-63"/>
      <use x="375.505859" xlink:href="#DejaVuSans-69"/>
      <use x="403.289062" xlink:href="#DejaVuSans-73"/>
      <use x="455.388672" xlink:href="#DejaVuSans-69"/>
      <use x="483.171875" xlink:href="#DejaVuSans-6f"/>
      <use x="544.353516" xlink:href="#DejaVuSans-6e"/>
     </g>
    </g>
    <g id="line2d_22">
     <path d="M 326.320625 285.460312 
L 346.320625 285.460312 
" style="fill:none;stroke:#2ca02c;stroke-linecap:square;stroke-width:1.5;"/>
    </g>
    <g id="line2d_23"/>
    <g id="text_19">
     <!-- by wavelet norm -->
     <defs>
      <path d="M 4.203125 54.6875 
L 13.1875 54.6875 
L 24.421875 12.015625 
L 35.59375 54.6875 
L 46.1875 54.6875 
L 57.421875 12.015625 
L 68.609375 54.6875 
L 77.59375 54.6875 
L 63.28125 0 
L 52.6875 0 
L 40.921875 44.828125 
L 29.109375 0 
L 18.5 0 
z
" id="DejaVuSans-77"/>
      <path d="M 2.984375 54.6875 
L 12.5 54.6875 
L 29.59375 8.796875 
L 46.6875 54.6875 
L 56.203125 54.6875 
L 35.6875 0 
L 23.484375 0 
z
" id="DejaVuSans-76"/>
     </defs>
     <g transform="translate(354.320625 288.960312)scale(0.1 -0.1)">
      <use xlink:href="#DejaVuSans-62"/>
      <use x="63.476562" xlink:href="#DejaVuSans-79"/>
      <use x="122.65625" xlink:href="#DejaVuSans-20"/>
      <use x="154.443359" xlink:href="#DejaVuSans-77"/>
      <use x="236.230469" xlink:href="#DejaVuSans-61"/>
      <use x="297.509766" xlink:href="#DejaVuSans-76"/>
      <use x="356.689453" xlink:href="#DejaVuSans-65"/>
      <use x="418.212891" xlink:href="#DejaVuSans-6c"/>
      <use x="445.996094" xlink:href="#DejaVuSans-65"/>
      <use x="507.519531" xlink:href="#DejaVuSans-74"/>
      <use x="546.728516" xlink:href="#DejaVuSans-20"/>
      <use x="578.515625" xlink:href="#DejaVuSans-6e"/>
      <use x="641.894531" xlink:href="#DejaVuSans-6f"/>
      <use x="703.076172" xlink:href="#DejaVuSans-72"/>
      <use x="744.173828" xlink:href="#DejaVuSans-6d"/>
     </g>
    </g>
   </g>
  </g>
 </g>
 <defs>
  <clipPath id="pabb08b3822">
   <rect height="286.72" width="375.55" x="71.93" y="13.32"/>
  </clipPath>
 </defs>
</svg>
