<?xml version="1.0" encoding="utf-8" standalone="no"?>
<!DOCTYPE svg PUBLIC "-//W3C//DTD SVG 1.1//EN"
  "http://www.w3.org/Graphics/SVG/1.1/DTD/svg11.dtd">
<!-- Created with matplotlib (http://matplotlib.org/) -->
<svg height="345pt" version="1.1" viewBox="0 0 460 345" width="460pt" xmlns="http://www.w3.org/2000/svg" xmlns:xlink="http://www.w3.org/1999/xlink">
 <defs>
  <style type="text/css">
*{stroke-linecap:butt;stroke-linejoin:round;}
  </style>
 </defs>
 <g id="figure_1">
  <g id="patch_1">
   <path d="M 0 345.6 
L 460.8 345.6 
L 460.8 0 
L 0 0 
z
" style="fill:#ffffff;"/>
  </g>
  <g id="axes_1">
   <g id="patch_2">
    <path d="M 71.93 300.04 
L 445.426561 300.04 
L 445.426561 13.32 
L 71.93 13.32 
z
" style="fill:#ffffff;"/>
   </g>
   <g id="matplotlib.axis_1">
    <g id="xtick_1">
     <g id="line2d_1">
      <defs>
       <path d="M 0 0 
L 0 3.5 
" id="mb9c81427da" style="stroke:#000000;stroke-width:0.8;"/>
      </defs>
      <g>
       <use style="stroke:#000000;stroke-width:0.8;" x="88.902238" xlink:href="#mb9c81427da" y="300.04"/>
      </g>
     </g>
     <g id="text_1">
      <!-- 0 -->
      <defs>
       <path d="M 31.78125 66.40625 
Q 24.171875 66.40625 20.328125 58.90625 
Q 16.5 51.421875 16.5 36.375 
Q 16.5 21.390625 20.328125 13.890625 
Q 24.171875 6.390625 31.78125 6.390625 
Q 39.453125 6.390625 43.28125 13.890625 
Q 47.125 21.390625 47.125 36.375 
Q 47.125 51.421875 43.28125 58.90625 
Q 39.453125 66.40625 31.78125 66.40625 
z
M 31.78125 74.21875 
Q 44.046875 74.21875 50.515625 64.515625 
Q 56.984375 54.828125 56.984375 36.375 
Q 56.984375 17.96875 50.515625 8.265625 
Q 44.046875 -1.421875 31.78125 -1.421875 
Q 19.53125 -1.421875 13.0625 8.265625 
Q 6.59375 17.96875 6.59375 36.375 
Q 6.59375 54.828125 13.0625 64.515625 
Q 19.53125 74.21875 31.78125 74.21875 
z
" id="DejaVuSans-30"/>
      </defs>
      <g transform="translate(85.720988 314.638437)scale(0.1 -0.1)">
       <use xlink:href="#DejaVuSans-30"/>
      </g>
     </g>
    </g>
    <g id="xtick_2">
     <g id="line2d_2">
      <g>
       <use style="stroke:#000000;stroke-width:0.8;" x="137.687055" xlink:href="#mb9c81427da" y="300.04"/>
      </g>
     </g>
     <g id="text_2">
      <!-- 20000 -->
      <defs>
       <path d="M 19.1875 8.296875 
L 53.609375 8.296875 
L 53.609375 0 
L 7.328125 0 
L 7.328125 8.296875 
Q 12.9375 14.109375 22.625 23.890625 
Q 32.328125 33.6875 34.8125 36.53125 
Q 39.546875 41.84375 41.421875 45.53125 
Q 43.3125 49.21875 43.3125 52.78125 
Q 43.3125 58.59375 39.234375 62.25 
Q 35.15625 65.921875 28.609375 65.921875 
Q 23.96875 65.921875 18.8125 64.3125 
Q 13.671875 62.703125 7.8125 59.421875 
L 7.8125 69.390625 
Q 13.765625 71.78125 18.9375 73 
Q 24.125 74.21875 28.421875 74.21875 
Q 39.75 74.21875 46.484375 68.546875 
Q 53.21875 62.890625 53.21875 53.421875 
Q 53.21875 48.921875 51.53125 44.890625 
Q 49.859375 40.875 45.40625 35.40625 
Q 44.1875 33.984375 37.640625 27.21875 
Q 31.109375 20.453125 19.1875 8.296875 
z
" id="DejaVuSans-32"/>
      </defs>
      <g transform="translate(121.780805 314.638437)scale(0.1 -0.1)">
       <use xlink:href="#DejaVuSans-32"/>
       <use x="63.623047" xlink:href="#DejaVuSans-30"/>
       <use x="127.246094" xlink:href="#DejaVuSans-30"/>
       <use x="190.869141" xlink:href="#DejaVuSans-30"/>
       <use x="254.492188" xlink:href="#DejaVuSans-30"/>
      </g>
     </g>
    </g>
    <g id="xtick_3">
     <g id="line2d_3">
      <g>
       <use style="stroke:#000000;stroke-width:0.8;" x="186.471873" xlink:href="#mb9c81427da" y="300.04"/>
      </g>
     </g>
     <g id="text_3">
      <!-- 40000 -->
      <defs>
       <path d="M 37.796875 64.3125 
L 12.890625 25.390625 
L 37.796875 25.390625 
z
M 35.203125 72.90625 
L 47.609375 72.90625 
L 47.609375 25.390625 
L 58.015625 25.390625 
L 58.015625 17.1875 
L 47.609375 17.1875 
L 47.609375 0 
L 37.796875 0 
L 37.796875 17.1875 
L 4.890625 17.1875 
L 4.890625 26.703125 
z
" id="DejaVuSans-34"/>
      </defs>
      <g transform="translate(170.565623 314.638437)scale(0.1 -0.1)">
       <use xlink:href="#DejaVuSans-34"/>
       <use x="63.623047" xlink:href="#DejaVuSans-30"/>
       <use x="127.246094" xlink:href="#DejaVuSans-30"/>
       <use x="190.869141" xlink:href="#DejaVuSans-30"/>
       <use x="254.492188" xlink:href="#DejaVuSans-30"/>
      </g>
     </g>
    </g>
    <g id="xtick_4">
     <g id="line2d_4">
      <g>
       <use style="stroke:#000000;stroke-width:0.8;" x="235.25669" xlink:href="#mb9c81427da" y="300.04"/>
      </g>
     </g>
     <g id="text_4">
      <!-- 60000 -->
      <defs>
       <path d="M 33.015625 40.375 
Q 26.375 40.375 22.484375 35.828125 
Q 18.609375 31.296875 18.609375 23.390625 
Q 18.609375 15.53125 22.484375 10.953125 
Q 26.375 6.390625 33.015625 6.390625 
Q 39.65625 6.390625 43.53125 10.953125 
Q 47.40625 15.53125 47.40625 23.390625 
Q 47.40625 31.296875 43.53125 35.828125 
Q 39.65625 40.375 33.015625 40.375 
z
M 52.59375 71.296875 
L 52.59375 62.3125 
Q 48.875 64.0625 45.09375 64.984375 
Q 41.3125 65.921875 37.59375 65.921875 
Q 27.828125 65.921875 22.671875 59.328125 
Q 17.53125 52.734375 16.796875 39.40625 
Q 19.671875 43.65625 24.015625 45.921875 
Q 28.375 48.1875 33.59375 48.1875 
Q 44.578125 48.1875 50.953125 41.515625 
Q 57.328125 34.859375 57.328125 23.390625 
Q 57.328125 12.15625 50.6875 5.359375 
Q 44.046875 -1.421875 33.015625 -1.421875 
Q 20.359375 -1.421875 13.671875 8.265625 
Q 6.984375 17.96875 6.984375 36.375 
Q 6.984375 53.65625 15.1875 63.9375 
Q 23.390625 74.21875 37.203125 74.21875 
Q 40.921875 74.21875 44.703125 73.484375 
Q 48.484375 72.75 52.59375 71.296875 
z
" id="DejaVuSans-36"/>
      </defs>
      <g transform="translate(219.35044 314.638437)scale(0.1 -0.1)">
       <use xlink:href="#DejaVuSans-36"/>
       <use x="63.623047" xlink:href="#DejaVuSans-30"/>
       <use x="127.246094" xlink:href="#DejaVuSans-30"/>
       <use x="190.869141" xlink:href="#DejaVuSans-30"/>
       <use x="254.492188" xlink:href="#DejaVuSans-30"/>
      </g>
     </g>
    </g>
    <g id="xtick_5">
     <g id="line2d_5">
      <g>
       <use style="stroke:#000000;stroke-width:0.8;" x="284.041507" xlink:href="#mb9c81427da" y="300.04"/>
      </g>
     </g>
     <g id="text_5">
      <!-- 80000 -->
      <defs>
       <path d="M 31.78125 34.625 
Q 24.75 34.625 20.71875 30.859375 
Q 16.703125 27.09375 16.703125 20.515625 
Q 16.703125 13.921875 20.71875 10.15625 
Q 24.75 6.390625 31.78125 6.390625 
Q 38.8125 6.390625 42.859375 10.171875 
Q 46.921875 13.96875 46.921875 20.515625 
Q 46.921875 27.09375 42.890625 30.859375 
Q 38.875 34.625 31.78125 34.625 
z
M 21.921875 38.8125 
Q 15.578125 40.375 12.03125 44.71875 
Q 8.5 49.078125 8.5 55.328125 
Q 8.5 64.0625 14.71875 69.140625 
Q 20.953125 74.21875 31.78125 74.21875 
Q 42.671875 74.21875 48.875 69.140625 
Q 55.078125 64.0625 55.078125 55.328125 
Q 55.078125 49.078125 51.53125 44.71875 
Q 48 40.375 41.703125 38.8125 
Q 48.828125 37.15625 52.796875 32.3125 
Q 56.78125 27.484375 56.78125 20.515625 
Q 56.78125 9.90625 50.3125 4.234375 
Q 43.84375 -1.421875 31.78125 -1.421875 
Q 19.734375 -1.421875 13.25 4.234375 
Q 6.78125 9.90625 6.78125 20.515625 
Q 6.78125 27.484375 10.78125 32.3125 
Q 14.796875 37.15625 21.921875 38.8125 
z
M 18.3125 54.390625 
Q 18.3125 48.734375 21.84375 45.5625 
Q 25.390625 42.390625 31.78125 42.390625 
Q 38.140625 42.390625 41.71875 45.5625 
Q 45.3125 48.734375 45.3125 54.390625 
Q 45.3125 60.0625 41.71875 63.234375 
Q 38.140625 66.40625 31.78125 66.40625 
Q 25.390625 66.40625 21.84375 63.234375 
Q 18.3125 60.0625 18.3125 54.390625 
z
" id="DejaVuSans-38"/>
      </defs>
      <g transform="translate(268.135257 314.638437)scale(0.1 -0.1)">
       <use xlink:href="#DejaVuSans-38"/>
       <use x="63.623047" xlink:href="#DejaVuSans-30"/>
       <use x="127.246094" xlink:href="#DejaVuSans-30"/>
       <use x="190.869141" xlink:href="#DejaVuSans-30"/>
       <use x="254.492188" xlink:href="#DejaVuSans-30"/>
      </g>
     </g>
    </g>
    <g id="xtick_6">
     <g id="line2d_6">
      <g>
       <use style="stroke:#000000;stroke-width:0.8;" x="332.826324" xlink:href="#mb9c81427da" y="300.04"/>
      </g>
     </g>
     <g id="text_6">
      <!-- 100000 -->
      <defs>
       <path d="M 12.40625 8.296875 
L 28.515625 8.296875 
L 28.515625 63.921875 
L 10.984375 60.40625 
L 10.984375 69.390625 
L 28.421875 72.90625 
L 38.28125 72.90625 
L 38.28125 8.296875 
L 54.390625 8.296875 
L 54.390625 0 
L 12.40625 0 
z
" id="DejaVuSans-31"/>
      </defs>
      <g transform="translate(313.738824 314.638437)scale(0.1 -0.1)">
       <use xlink:href="#DejaVuSans-31"/>
       <use x="63.623047" xlink:href="#DejaVuSans-30"/>
       <use x="127.246094" xlink:href="#DejaVuSans-30"/>
       <use x="190.869141" xlink:href="#DejaVuSans-30"/>
       <use x="254.492188" xlink:href="#DejaVuSans-30"/>
       <use x="318.115234" xlink:href="#DejaVuSans-30"/>
      </g>
     </g>
    </g>
    <g id="xtick_7">
     <g id="line2d_7">
      <g>
       <use style="stroke:#000000;stroke-width:0.8;" x="381.611142" xlink:href="#mb9c81427da" y="300.04"/>
      </g>
     </g>
     <g id="text_7">
      <!-- 120000 -->
      <g transform="translate(362.523642 314.638437)scale(0.1 -0.1)">
       <use xlink:href="#DejaVuSans-31"/>
       <use x="63.623047" xlink:href="#DejaVuSans-32"/>
       <use x="127.246094" xlink:href="#DejaVuSans-30"/>
       <use x="190.869141" xlink:href="#DejaVuSans-30"/>
       <use x="254.492188" xlink:href="#DejaVuSans-30"/>
       <use x="318.115234" xlink:href="#DejaVuSans-30"/>
      </g>
     </g>
    </g>
    <g id="xtick_8">
     <g id="line2d_8">
      <g>
       <use style="stroke:#000000;stroke-width:0.8;" x="430.395959" xlink:href="#mb9c81427da" y="300.04"/>
      </g>
     </g>
     <g id="text_8">
      <!-- 140000 -->
      <g transform="translate(411.308459 314.638437)scale(0.1 -0.1)">
       <use xlink:href="#DejaVuSans-31"/>
       <use x="63.623047" xlink:href="#DejaVuSans-34"/>
       <use x="127.246094" xlink:href="#DejaVuSans-30"/>
       <use x="190.869141" xlink:href="#DejaVuSans-30"/>
       <use x="254.492188" xlink:href="#DejaVuSans-30"/>
       <use x="318.115234" xlink:href="#DejaVuSans-30"/>
      </g>
     </g>
    </g>
    <g id="text_9">
     <!-- Number of Streamed Bytes -->
     <defs>
      <path d="M 9.8125 72.90625 
L 23.09375 72.90625 
L 55.421875 11.921875 
L 55.421875 72.90625 
L 64.984375 72.90625 
L 64.984375 0 
L 51.703125 0 
L 19.390625 60.984375 
L 19.390625 0 
L 9.8125 0 
z
" id="DejaVuSans-4e"/>
      <path d="M 8.5 21.578125 
L 8.5 54.6875 
L 17.484375 54.6875 
L 17.484375 21.921875 
Q 17.484375 14.15625 20.5 10.265625 
Q 23.53125 6.390625 29.59375 6.390625 
Q 36.859375 6.390625 41.078125 11.03125 
Q 45.3125 15.671875 45.3125 23.6875 
L 45.3125 54.6875 
L 54.296875 54.6875 
L 54.296875 0 
L 45.3125 0 
L 45.3125 8.40625 
Q 42.046875 3.421875 37.71875 1 
Q 33.40625 -1.421875 27.6875 -1.421875 
Q 18.265625 -1.421875 13.375 4.4375 
Q 8.5 10.296875 8.5 21.578125 
z
M 31.109375 56 
z
" id="DejaVuSans-75"/>
      <path d="M 52 44.1875 
Q 55.375 50.25 60.0625 53.125 
Q 64.75 56 71.09375 56 
Q 79.640625 56 84.28125 50.015625 
Q 88.921875 44.046875 88.921875 33.015625 
L 88.921875 0 
L 79.890625 0 
L 79.890625 32.71875 
Q 79.890625 40.578125 77.09375 44.375 
Q 74.3125 48.1875 68.609375 48.1875 
Q 61.625 48.1875 57.5625 43.546875 
Q 53.515625 38.921875 53.515625 30.90625 
L 53.515625 0 
L 44.484375 0 
L 44.484375 32.71875 
Q 44.484375 40.625 41.703125 44.40625 
Q 38.921875 48.1875 33.109375 48.1875 
Q 26.21875 48.1875 22.15625 43.53125 
Q 18.109375 38.875 18.109375 30.90625 
L 18.109375 0 
L 9.078125 0 
L 9.078125 54.6875 
L 18.109375 54.6875 
L 18.109375 46.1875 
Q 21.1875 51.21875 25.484375 53.609375 
Q 29.78125 56 35.6875 56 
Q 41.65625 56 45.828125 52.96875 
Q 50 49.953125 52 44.1875 
z
" id="DejaVuSans-6d"/>
      <path d="M 48.6875 27.296875 
Q 48.6875 37.203125 44.609375 42.84375 
Q 40.53125 48.484375 33.40625 48.484375 
Q 26.265625 48.484375 22.1875 42.84375 
Q 18.109375 37.203125 18.109375 27.296875 
Q 18.109375 17.390625 22.1875 11.75 
Q 26.265625 6.109375 33.40625 6.109375 
Q 40.53125 6.109375 44.609375 11.75 
Q 48.6875 17.390625 48.6875 27.296875 
z
M 18.109375 46.390625 
Q 20.953125 51.265625 25.265625 53.625 
Q 29.59375 56 35.59375 56 
Q 45.5625 56 51.78125 48.09375 
Q 58.015625 40.1875 58.015625 27.296875 
Q 58.015625 14.40625 51.78125 6.484375 
Q 45.5625 -1.421875 35.59375 -1.421875 
Q 29.59375 -1.421875 25.265625 0.953125 
Q 20.953125 3.328125 18.109375 8.203125 
L 18.109375 0 
L 9.078125 0 
L 9.078125 75.984375 
L 18.109375 75.984375 
z
" id="DejaVuSans-62"/>
      <path d="M 56.203125 29.59375 
L 56.203125 25.203125 
L 14.890625 25.203125 
Q 15.484375 15.921875 20.484375 11.0625 
Q 25.484375 6.203125 34.421875 6.203125 
Q 39.59375 6.203125 44.453125 7.46875 
Q 49.3125 8.734375 54.109375 11.28125 
L 54.109375 2.78125 
Q 49.265625 0.734375 44.1875 -0.34375 
Q 39.109375 -1.421875 33.890625 -1.421875 
Q 20.796875 -1.421875 13.15625 6.1875 
Q 5.515625 13.8125 5.515625 26.8125 
Q 5.515625 40.234375 12.765625 48.109375 
Q 20.015625 56 32.328125 56 
Q 43.359375 56 49.78125 48.890625 
Q 56.203125 41.796875 56.203125 29.59375 
z
M 47.21875 32.234375 
Q 47.125 39.59375 43.09375 43.984375 
Q 39.0625 48.390625 32.421875 48.390625 
Q 24.90625 48.390625 20.390625 44.140625 
Q 15.875 39.890625 15.1875 32.171875 
z
" id="DejaVuSans-65"/>
      <path d="M 41.109375 46.296875 
Q 39.59375 47.171875 37.8125 47.578125 
Q 36.03125 48 33.890625 48 
Q 26.265625 48 22.1875 43.046875 
Q 18.109375 38.09375 18.109375 28.8125 
L 18.109375 0 
L 9.078125 0 
L 9.078125 54.6875 
L 18.109375 54.6875 
L 18.109375 46.1875 
Q 20.953125 51.171875 25.484375 53.578125 
Q 30.03125 56 36.53125 56 
Q 37.453125 56 38.578125 55.875 
Q 39.703125 55.765625 41.0625 55.515625 
z
" id="DejaVuSans-72"/>
      <path id="DejaVuSans-20"/>
      <path d="M 30.609375 48.390625 
Q 23.390625 48.390625 19.1875 42.75 
Q 14.984375 37.109375 14.984375 27.296875 
Q 14.984375 17.484375 19.15625 11.84375 
Q 23.34375 6.203125 30.609375 6.203125 
Q 37.796875 6.203125 41.984375 11.859375 
Q 46.1875 17.53125 46.1875 27.296875 
Q 46.1875 37.015625 41.984375 42.703125 
Q 37.796875 48.390625 30.609375 48.390625 
z
M 30.609375 56 
Q 42.328125 56 49.015625 48.375 
Q 55.71875 40.765625 55.71875 27.296875 
Q 55.71875 13.875 49.015625 6.21875 
Q 42.328125 -1.421875 30.609375 -1.421875 
Q 18.84375 -1.421875 12.171875 6.21875 
Q 5.515625 13.875 5.515625 27.296875 
Q 5.515625 40.765625 12.171875 48.375 
Q 18.84375 56 30.609375 56 
z
" id="DejaVuSans-6f"/>
      <path d="M 37.109375 75.984375 
L 37.109375 68.5 
L 28.515625 68.5 
Q 23.6875 68.5 21.796875 66.546875 
Q 19.921875 64.59375 19.921875 59.515625 
L 19.921875 54.6875 
L 34.71875 54.6875 
L 34.71875 47.703125 
L 19.921875 47.703125 
L 19.921875 0 
L 10.890625 0 
L 10.890625 47.703125 
L 2.296875 47.703125 
L 2.296875 54.6875 
L 10.890625 54.6875 
L 10.890625 58.5 
Q 10.890625 67.625 15.140625 71.796875 
Q 19.390625 75.984375 28.609375 75.984375 
z
" id="DejaVuSans-66"/>
      <path d="M 53.515625 70.515625 
L 53.515625 60.890625 
Q 47.90625 63.578125 42.921875 64.890625 
Q 37.9375 66.21875 33.296875 66.21875 
Q 25.25 66.21875 20.875 63.09375 
Q 16.5 59.96875 16.5 54.203125 
Q 16.5 49.359375 19.40625 46.890625 
Q 22.3125 44.4375 30.421875 42.921875 
L 36.375 41.703125 
Q 47.40625 39.59375 52.65625 34.296875 
Q 57.90625 29 57.90625 20.125 
Q 57.90625 9.515625 50.796875 4.046875 
Q 43.703125 -1.421875 29.984375 -1.421875 
Q 24.8125 -1.421875 18.96875 -0.25 
Q 13.140625 0.921875 6.890625 3.21875 
L 6.890625 13.375 
Q 12.890625 10.015625 18.65625 8.296875 
Q 24.421875 6.59375 29.984375 6.59375 
Q 38.421875 6.59375 43.015625 9.90625 
Q 47.609375 13.234375 47.609375 19.390625 
Q 47.609375 24.75 44.3125 27.78125 
Q 41.015625 30.8125 33.5 32.328125 
L 27.484375 33.5 
Q 16.453125 35.6875 11.515625 40.375 
Q 6.59375 45.0625 6.59375 53.421875 
Q 6.59375 63.09375 13.40625 68.65625 
Q 20.21875 74.21875 32.171875 74.21875 
Q 37.3125 74.21875 42.625 73.28125 
Q 47.953125 72.359375 53.515625 70.515625 
z
" id="DejaVuSans-53"/>
      <path d="M 18.3125 70.21875 
L 18.3125 54.6875 
L 36.8125 54.6875 
L 36.8125 47.703125 
L 18.3125 47.703125 
L 18.3125 18.015625 
Q 18.3125 11.328125 20.140625 9.421875 
Q 21.96875 7.515625 27.59375 7.515625 
L 36.8125 7.515625 
L 36.8125 0 
L 27.59375 0 
Q 17.1875 0 13.234375 3.875 
Q 9.28125 7.765625 9.28125 18.015625 
L 9.28125 47.703125 
L 2.6875 47.703125 
L 2.6875 54.6875 
L 9.28125 54.6875 
L 9.28125 70.21875 
z
" id="DejaVuSans-74"/>
      <path d="M 34.28125 27.484375 
Q 23.390625 27.484375 19.1875 25 
Q 14.984375 22.515625 14.984375 16.5 
Q 14.984375 11.71875 18.140625 8.90625 
Q 21.296875 6.109375 26.703125 6.109375 
Q 34.1875 6.109375 38.703125 11.40625 
Q 43.21875 16.703125 43.21875 25.484375 
L 43.21875 27.484375 
z
M 52.203125 31.203125 
L 52.203125 0 
L 43.21875 0 
L 43.21875 8.296875 
Q 40.140625 3.328125 35.546875 0.953125 
Q 30.953125 -1.421875 24.3125 -1.421875 
Q 15.921875 -1.421875 10.953125 3.296875 
Q 6 8.015625 6 15.921875 
Q 6 25.140625 12.171875 29.828125 
Q 18.359375 34.515625 30.609375 34.515625 
L 43.21875 34.515625 
L 43.21875 35.40625 
Q 43.21875 41.609375 39.140625 45 
Q 35.0625 48.390625 27.6875 48.390625 
Q 23 48.390625 18.546875 47.265625 
Q 14.109375 46.140625 10.015625 43.890625 
L 10.015625 52.203125 
Q 14.9375 54.109375 19.578125 55.046875 
Q 24.21875 56 28.609375 56 
Q 40.484375 56 46.34375 49.84375 
Q 52.203125 43.703125 52.203125 31.203125 
z
" id="DejaVuSans-61"/>
      <path d="M 45.40625 46.390625 
L 45.40625 75.984375 
L 54.390625 75.984375 
L 54.390625 0 
L 45.40625 0 
L 45.40625 8.203125 
Q 42.578125 3.328125 38.25 0.953125 
Q 33.9375 -1.421875 27.875 -1.421875 
Q 17.96875 -1.421875 11.734375 6.484375 
Q 5.515625 14.40625 5.515625 27.296875 
Q 5.515625 40.1875 11.734375 48.09375 
Q 17.96875 56 27.875 56 
Q 33.9375 56 38.25 53.625 
Q 42.578125 51.265625 45.40625 46.390625 
z
M 14.796875 27.296875 
Q 14.796875 17.390625 18.875 11.75 
Q 22.953125 6.109375 30.078125 6.109375 
Q 37.203125 6.109375 41.296875 11.75 
Q 45.40625 17.390625 45.40625 27.296875 
Q 45.40625 37.203125 41.296875 42.84375 
Q 37.203125 48.484375 30.078125 48.484375 
Q 22.953125 48.484375 18.875 42.84375 
Q 14.796875 37.203125 14.796875 27.296875 
z
" id="DejaVuSans-64"/>
      <path d="M 19.671875 34.8125 
L 19.671875 8.109375 
L 35.5 8.109375 
Q 43.453125 8.109375 47.28125 11.40625 
Q 51.125 14.703125 51.125 21.484375 
Q 51.125 28.328125 47.28125 31.5625 
Q 43.453125 34.8125 35.5 34.8125 
z
M 19.671875 64.796875 
L 19.671875 42.828125 
L 34.28125 42.828125 
Q 41.5 42.828125 45.03125 45.53125 
Q 48.578125 48.25 48.578125 53.8125 
Q 48.578125 59.328125 45.03125 62.0625 
Q 41.5 64.796875 34.28125 64.796875 
z
M 9.8125 72.90625 
L 35.015625 72.90625 
Q 46.296875 72.90625 52.390625 68.21875 
Q 58.5 63.53125 58.5 54.890625 
Q 58.5 48.1875 55.375 44.234375 
Q 52.25 40.28125 46.1875 39.3125 
Q 53.46875 37.75 57.5 32.78125 
Q 61.53125 27.828125 61.53125 20.40625 
Q 61.53125 10.640625 54.890625 5.3125 
Q 48.25 0 35.984375 0 
L 9.8125 0 
z
" id="DejaVuSans-42"/>
      <path d="M 32.171875 -5.078125 
Q 28.375 -14.84375 24.75 -17.8125 
Q 21.140625 -20.796875 15.09375 -20.796875 
L 7.90625 -20.796875 
L 7.90625 -13.28125 
L 13.1875 -13.28125 
Q 16.890625 -13.28125 18.9375 -11.515625 
Q 21 -9.765625 23.484375 -3.21875 
L 25.09375 0.875 
L 2.984375 54.6875 
L 12.5 54.6875 
L 29.59375 11.921875 
L 46.6875 54.6875 
L 56.203125 54.6875 
z
" id="DejaVuSans-79"/>
      <path d="M 44.28125 53.078125 
L 44.28125 44.578125 
Q 40.484375 46.53125 36.375 47.5 
Q 32.28125 48.484375 27.875 48.484375 
Q 21.1875 48.484375 17.84375 46.4375 
Q 14.5 44.390625 14.5 40.28125 
Q 14.5 37.15625 16.890625 35.375 
Q 19.28125 33.59375 26.515625 31.984375 
L 29.59375 31.296875 
Q 39.15625 29.25 43.1875 25.515625 
Q 47.21875 21.78125 47.21875 15.09375 
Q 47.21875 7.46875 41.1875 3.015625 
Q 35.15625 -1.421875 24.609375 -1.421875 
Q 20.21875 -1.421875 15.453125 -0.5625 
Q 10.6875 0.296875 5.421875 2 
L 5.421875 11.28125 
Q 10.40625 8.6875 15.234375 7.390625 
Q 20.0625 6.109375 24.8125 6.109375 
Q 31.15625 6.109375 34.5625 8.28125 
Q 37.984375 10.453125 37.984375 14.40625 
Q 37.984375 18.0625 35.515625 20.015625 
Q 33.0625 21.96875 24.703125 23.78125 
L 21.578125 24.515625 
Q 13.234375 26.265625 9.515625 29.90625 
Q 5.8125 33.546875 5.8125 39.890625 
Q 5.8125 47.609375 11.28125 51.796875 
Q 16.75 56 26.8125 56 
Q 31.78125 56 36.171875 55.265625 
Q 40.578125 54.546875 44.28125 53.078125 
z
" id="DejaVuSans-73"/>
     </defs>
     <g transform="translate(163.262812 331.355937)scale(0.14 -0.14)">
      <use xlink:href="#DejaVuSans-4e"/>
      <use x="74.804688" xlink:href="#DejaVuSans-75"/>
      <use x="138.183594" xlink:href="#DejaVuSans-6d"/>
      <use x="235.595703" xlink:href="#DejaVuSans-62"/>
      <use x="299.072266" xlink:href="#DejaVuSans-65"/>
      <use x="360.595703" xlink:href="#DejaVuSans-72"/>
      <use x="401.708984" xlink:href="#DejaVuSans-20"/>
      <use x="433.496094" xlink:href="#DejaVuSans-6f"/>
      <use x="494.677734" xlink:href="#DejaVuSans-66"/>
      <use x="529.882812" xlink:href="#DejaVuSans-20"/>
      <use x="561.669922" xlink:href="#DejaVuSans-53"/>
      <use x="625.146484" xlink:href="#DejaVuSans-74"/>
      <use x="664.355469" xlink:href="#DejaVuSans-72"/>
      <use x="705.4375" xlink:href="#DejaVuSans-65"/>
      <use x="766.960938" xlink:href="#DejaVuSans-61"/>
      <use x="828.240234" xlink:href="#DejaVuSans-6d"/>
      <use x="925.652344" xlink:href="#DejaVuSans-65"/>
      <use x="987.175781" xlink:href="#DejaVuSans-64"/>
      <use x="1050.652344" xlink:href="#DejaVuSans-20"/>
      <use x="1082.439453" xlink:href="#DejaVuSans-42"/>
      <use x="1151.042969" xlink:href="#DejaVuSans-79"/>
      <use x="1210.222656" xlink:href="#DejaVuSans-74"/>
      <use x="1249.431641" xlink:href="#DejaVuSans-65"/>
      <use x="1310.955078" xlink:href="#DejaVuSans-73"/>
     </g>
    </g>
   </g>
   <g id="matplotlib.axis_2">
    <g id="ytick_1">
     <g id="line2d_9">
      <defs>
       <path d="M 0 0 
L -3.5 0 
" id="m15b1142823" style="stroke:#000000;stroke-width:0.8;"/>
      </defs>
      <g>
       <use style="stroke:#000000;stroke-width:0.8;" x="71.93" xlink:href="#m15b1142823" y="284.466551"/>
      </g>
     </g>
     <g id="text_10">
      <!-- 10 -->
      <g transform="translate(52.205 288.26577)scale(0.1 -0.1)">
       <use xlink:href="#DejaVuSans-31"/>
       <use x="63.623047" xlink:href="#DejaVuSans-30"/>
      </g>
     </g>
    </g>
    <g id="ytick_2">
     <g id="line2d_10">
      <g>
       <use style="stroke:#000000;stroke-width:0.8;" x="71.93" xlink:href="#m15b1142823" y="250.232405"/>
      </g>
     </g>
     <g id="text_11">
      <!-- 20 -->
      <g transform="translate(52.205 254.031624)scale(0.1 -0.1)">
       <use xlink:href="#DejaVuSans-32"/>
       <use x="63.623047" xlink:href="#DejaVuSans-30"/>
      </g>
     </g>
    </g>
    <g id="ytick_3">
     <g id="line2d_11">
      <g>
       <use style="stroke:#000000;stroke-width:0.8;" x="71.93" xlink:href="#m15b1142823" y="215.998259"/>
      </g>
     </g>
     <g id="text_12">
      <!-- 30 -->
      <defs>
       <path d="M 40.578125 39.3125 
Q 47.65625 37.796875 51.625 33 
Q 55.609375 28.21875 55.609375 21.1875 
Q 55.609375 10.40625 48.1875 4.484375 
Q 40.765625 -1.421875 27.09375 -1.421875 
Q 22.515625 -1.421875 17.65625 -0.515625 
Q 12.796875 0.390625 7.625 2.203125 
L 7.625 11.71875 
Q 11.71875 9.328125 16.59375 8.109375 
Q 21.484375 6.890625 26.8125 6.890625 
Q 36.078125 6.890625 40.9375 10.546875 
Q 45.796875 14.203125 45.796875 21.1875 
Q 45.796875 27.640625 41.28125 31.265625 
Q 36.765625 34.90625 28.71875 34.90625 
L 20.21875 34.90625 
L 20.21875 43.015625 
L 29.109375 43.015625 
Q 36.375 43.015625 40.234375 45.921875 
Q 44.09375 48.828125 44.09375 54.296875 
Q 44.09375 59.90625 40.109375 62.90625 
Q 36.140625 65.921875 28.71875 65.921875 
Q 24.65625 65.921875 20.015625 65.03125 
Q 15.375 64.15625 9.8125 62.3125 
L 9.8125 71.09375 
Q 15.4375 72.65625 20.34375 73.4375 
Q 25.25 74.21875 29.59375 74.21875 
Q 40.828125 74.21875 47.359375 69.109375 
Q 53.90625 64.015625 53.90625 55.328125 
Q 53.90625 49.265625 50.4375 45.09375 
Q 46.96875 40.921875 40.578125 39.3125 
z
" id="DejaVuSans-33"/>
      </defs>
      <g transform="translate(52.205 219.797477)scale(0.1 -0.1)">
       <use xlink:href="#DejaVuSans-33"/>
       <use x="63.623047" xlink:href="#DejaVuSans-30"/>
      </g>
     </g>
    </g>
    <g id="ytick_4">
     <g id="line2d_12">
      <g>
       <use style="stroke:#000000;stroke-width:0.8;" x="71.93" xlink:href="#m15b1142823" y="181.764112"/>
      </g>
     </g>
     <g id="text_13">
      <!-- 40 -->
      <g transform="translate(52.205 185.563331)scale(0.1 -0.1)">
       <use xlink:href="#DejaVuSans-34"/>
       <use x="63.623047" xlink:href="#DejaVuSans-30"/>
      </g>
     </g>
    </g>
    <g id="ytick_5">
     <g id="line2d_13">
      <g>
       <use style="stroke:#000000;stroke-width:0.8;" x="71.93" xlink:href="#m15b1142823" y="147.529966"/>
      </g>
     </g>
     <g id="text_14">
      <!-- 50 -->
      <defs>
       <path d="M 10.796875 72.90625 
L 49.515625 72.90625 
L 49.515625 64.59375 
L 19.828125 64.59375 
L 19.828125 46.734375 
Q 21.96875 47.46875 24.109375 47.828125 
Q 26.265625 48.1875 28.421875 48.1875 
Q 40.625 48.1875 47.75 41.5 
Q 54.890625 34.8125 54.890625 23.390625 
Q 54.890625 11.625 47.5625 5.09375 
Q 40.234375 -1.421875 26.90625 -1.421875 
Q 22.3125 -1.421875 17.546875 -0.640625 
Q 12.796875 0.140625 7.71875 1.703125 
L 7.71875 11.625 
Q 12.109375 9.234375 16.796875 8.0625 
Q 21.484375 6.890625 26.703125 6.890625 
Q 35.15625 6.890625 40.078125 11.328125 
Q 45.015625 15.765625 45.015625 23.390625 
Q 45.015625 31 40.078125 35.4375 
Q 35.15625 39.890625 26.703125 39.890625 
Q 22.75 39.890625 18.8125 39.015625 
Q 14.890625 38.140625 10.796875 36.28125 
z
" id="DejaVuSans-35"/>
      </defs>
      <g transform="translate(52.205 151.329185)scale(0.1 -0.1)">
       <use xlink:href="#DejaVuSans-35"/>
       <use x="63.623047" xlink:href="#DejaVuSans-30"/>
      </g>
     </g>
    </g>
    <g id="ytick_6">
     <g id="line2d_14">
      <g>
       <use style="stroke:#000000;stroke-width:0.8;" x="71.93" xlink:href="#m15b1142823" y="113.295819"/>
      </g>
     </g>
     <g id="text_15">
      <!-- 60 -->
      <g transform="translate(52.205 117.095038)scale(0.1 -0.1)">
       <use xlink:href="#DejaVuSans-36"/>
       <use x="63.623047" xlink:href="#DejaVuSans-30"/>
      </g>
     </g>
    </g>
    <g id="ytick_7">
     <g id="line2d_15">
      <g>
       <use style="stroke:#000000;stroke-width:0.8;" x="71.93" xlink:href="#m15b1142823" y="79.061673"/>
      </g>
     </g>
     <g id="text_16">
      <!-- 70 -->
      <defs>
       <path d="M 8.203125 72.90625 
L 55.078125 72.90625 
L 55.078125 68.703125 
L 28.609375 0 
L 18.3125 0 
L 43.21875 64.59375 
L 8.203125 64.59375 
z
" id="DejaVuSans-37"/>
      </defs>
      <g transform="translate(52.205 82.860892)scale(0.1 -0.1)">
       <use xlink:href="#DejaVuSans-37"/>
       <use x="63.623047" xlink:href="#DejaVuSans-30"/>
      </g>
     </g>
    </g>
    <g id="ytick_8">
     <g id="line2d_16">
      <g>
       <use style="stroke:#000000;stroke-width:0.8;" x="71.93" xlink:href="#m15b1142823" y="44.827527"/>
      </g>
     </g>
     <g id="text_17">
      <!-- 80 -->
      <g transform="translate(52.205 48.626745)scale(0.1 -0.1)">
       <use xlink:href="#DejaVuSans-38"/>
       <use x="63.623047" xlink:href="#DejaVuSans-30"/>
      </g>
     </g>
    </g>
    <g id="text_18">
     <!-- PSNR -->
     <defs>
      <path d="M 19.671875 64.796875 
L 19.671875 37.40625 
L 32.078125 37.40625 
Q 38.96875 37.40625 42.71875 40.96875 
Q 46.484375 44.53125 46.484375 51.125 
Q 46.484375 57.671875 42.71875 61.234375 
Q 38.96875 64.796875 32.078125 64.796875 
z
M 9.8125 72.90625 
L 32.078125 72.90625 
Q 44.34375 72.90625 50.609375 67.359375 
Q 56.890625 61.8125 56.890625 51.125 
Q 56.890625 40.328125 50.609375 34.8125 
Q 44.34375 29.296875 32.078125 29.296875 
L 19.671875 29.296875 
L 19.671875 0 
L 9.8125 0 
z
" id="DejaVuSans-50"/>
      <path d="M 44.390625 34.1875 
Q 47.5625 33.109375 50.5625 29.59375 
Q 53.5625 26.078125 56.59375 19.921875 
L 66.609375 0 
L 56 0 
L 46.6875 18.703125 
Q 43.0625 26.03125 39.671875 28.421875 
Q 36.28125 30.8125 30.421875 30.8125 
L 19.671875 30.8125 
L 19.671875 0 
L 9.8125 0 
L 9.8125 72.90625 
L 32.078125 72.90625 
Q 44.578125 72.90625 50.734375 67.671875 
Q 56.890625 62.453125 56.890625 51.90625 
Q 56.890625 45.015625 53.6875 40.46875 
Q 50.484375 35.9375 44.390625 34.1875 
z
M 19.671875 64.796875 
L 19.671875 38.921875 
L 32.078125 38.921875 
Q 39.203125 38.921875 42.84375 42.21875 
Q 46.484375 45.515625 46.484375 51.90625 
Q 46.484375 58.296875 42.84375 61.546875 
Q 39.203125 64.796875 32.078125 64.796875 
z
" id="DejaVuSans-52"/>
     </defs>
     <g transform="translate(10.674063 153.768437)scale(0.14 -0.14)">
      <use xlink:href="#DejaVuSans-50"/>
      <use x="60.302734" xlink:href="#DejaVuSans-53"/>
      <use x="123.779297" xlink:href="#DejaVuSans-4e"/>
      <use x="198.583984" xlink:href="#DejaVuSans-52"/>
     </g>
    </g>
   </g>
   <g id="line2d_17">
    <path clip-path="url(#p6ec2907fe4)" d="M 88.907116 287.007273 
L 89.063228 286.906145 
L 89.219339 285.309944 
L 89.375451 284.874828 
L 89.843785 282.286179 
L 90.624342 281.778144 
L 90.780453 279.680618 
L 90.936565 279.411537 
L 91.092676 279.401952 
L 91.56101 276.575923 
L 91.717122 276.541004 
L 91.873233 276.142519 
L 92.029345 272.840978 
L 92.341568 272.30624 
L 92.497679 271.545215 
L 92.65379 268.681529 
L 92.966013 268.452502 
L 93.122125 267.815405 
L 93.278236 266.176274 
L 93.590459 265.745951 
L 93.902682 252.733894 
L 94.371016 250.135522 
L 94.995462 246.644324 
L 95.776019 246.452955 
L 95.93213 246.444397 
L 96.088242 246.17737 
L 96.400464 246.163677 
L 96.712687 245.792236 
L 97.02491 245.696381 
L 97.181021 245.662146 
L 97.337133 245.218814 
L 97.805467 245.075715 
L 97.961579 244.672095 
L 98.273801 244.656347 
L 98.898247 244.232186 
L 99.054358 243.425287 
L 99.678804 243.194207 
L 99.991027 241.976156 
L 100.459361 240.886141 
L 101.239918 240.770772 
L 101.39603 240.422268 
L 101.708252 240.405493 
L 101.864364 239.84508 
L 102.176587 239.674937 
L 102.48881 239.638648 
L 102.801032 239.47946 
L 103.581589 239.350054 
L 103.893812 239.182307 
L 104.206035 239.176145 
L 104.362147 237.112853 
L 104.674369 236.770854 
L 104.986592 236.642818 
L 105.767149 235.580533 
L 107.016041 235.346029 
L 107.484375 234.84621 
L 107.796598 234.84176 
L 107.952709 234.576445 
L 109.045489 234.449094 
L 109.513823 234.431635 
L 109.826046 234.157077 
L 110.450492 234.083473 
L 110.606603 233.764069 
L 110.762715 233.740447 
L 110.918826 233.464862 
L 111.231049 233.41625 
L 111.543272 232.914035 
L 111.699383 232.9089 
L 111.855494 232.696306 
L 112.636052 232.591892 
L 112.792163 231.258814 
L 112.948274 231.249228 
L 113.104386 230.448834 
L 114.353277 230.122583 
L 114.509389 229.707322 
L 116.85106 229.55053 
L 117.787728 229.386549 
L 119.973288 229.102063 
L 120.753845 228.617992 
L 121.378291 228.613884 
L 121.534402 228.186299 
L 122.783294 228.080174 
L 122.939405 227.542355 
L 124.032185 227.468409 
L 124.344408 227.305455 
L 125.437188 227.192824 
L 125.905522 227.140789 
L 126.686079 227.125041 
L 126.84219 226.952158 
L 127.93497 226.910393 
L 128.403304 226.788519 
L 128.871639 226.782699 
L 129.183862 226.659456 
L 130.12053 226.574556 
L 130.276641 226.156214 
L 131.369421 225.830648 
L 131.681644 225.771423 
L 131.837756 225.05901 
L 131.993867 225.038812 
L 132.149978 224.594795 
L 133.39887 223.920725 
L 134.179427 223.768383 
L 134.335538 223.084042 
L 134.647761 223.06179 
L 134.803873 222.842007 
L 135.272207 222.783124 
L 135.428318 222.717052 
L 135.740541 221.606496 
L 137.457767 221.538028 
L 137.613878 221.31311 
L 138.550546 221.24875 
L 138.862769 221.192948 
L 139.487215 221.032732 
L 139.955549 221.031363 
L 140.423883 220.544896 
L 141.048329 220.498679 
L 141.360552 220.482932 
L 141.516663 220.139563 
L 143.702223 219.996807 
L 144.795003 219.724303 
L 145.263337 219.675691 
L 145.57556 219.494592 
L 148.697788 219.390862 
L 149.166123 219.342592 
L 150.102791 219.333007 
L 150.258903 218.957458 
L 151.507794 218.857837 
L 151.663905 217.208093 
L 151.820017 217.203985 
L 152.13224 216.869518 
L 152.912797 216.736004 
L 153.068908 216.487465 
L 153.22502 216.459735 
L 153.537242 216.280348 
L 153.849465 216.181069 
L 154.005577 215.960601 
L 154.161688 215.955466 
L 154.473911 215.799358 
L 155.410579 215.665503 
L 155.566691 215.348837 
L 156.659471 215.199918 
L 156.815582 215.081468 
L 156.971693 214.578226 
L 158.84503 214.462857 
L 161.342813 214.20302 
L 161.811147 214.08457 
L 162.591704 214.028426 
L 162.747816 213.620012 
L 163.840596 213.602895 
L 164.152819 213.498139 
L 165.245599 213.452607 
L 165.557821 213.291022 
L 166.650601 213.179419 
L 169.77283 213.086302 
L 171.646167 212.994897 
L 174.456172 212.718285 
L 174.612283 212.331439 
L 175.705063 212.042161 
L 176.017286 212.034287 
L 176.173398 211.838467 
L 176.329509 211.140433 
L 178.046735 210.803569 
L 178.515069 210.73647 
L 178.827292 210.692993 
L 178.983403 210.336273 
L 179.139514 209.612221 
L 179.76396 209.594419 
L 179.920072 209.241465 
L 181.481186 209.174024 
L 181.793409 208.307558 
L 182.417854 208.198693 
L 184.13508 208.110711 
L 184.291191 208.198008 
L 184.447303 207.650604 
L 184.915637 207.624244 
L 185.22786 207.50374 
L 186.945085 207.457524 
L 187.257308 207.308948 
L 187.569531 207.291146 
L 187.725642 206.427761 
L 188.662311 206.381887 
L 190.067314 206.36922 
L 190.223425 206.252824 
L 190.379536 205.501385 
L 196.936216 205.280917 
L 197.716773 205.231277 
L 199.59011 205.191908 
L 199.746221 204.986161 
L 202.244004 204.935837 
L 202.400115 204.745837 
L 204.897898 204.629441 
L 205.210121 204.495243 
L 209.893463 204.341874 
L 210.049575 204.110451 
L 210.67402 203.994055 
L 212.391246 203.981731 
L 212.703469 203.814326 
L 212.85958 203.813984 
L 213.015692 203.494579 
L 215.04514 203.464453 
L 215.201251 203.055697 
L 217.699034 202.920472 
L 218.011257 202.747932 
L 220.352928 202.679464 
L 220.50904 202.457284 
L 223.006822 202.372726 
L 223.162934 202.157736 
L 224.567936 202.137537 
L 225.660716 202.086529 
L 225.972939 201.686331 
L 226.753496 201.66134 
L 228.002387 201.628818 
L 228.626833 201.297431 
L 230.656282 201.279287 
L 230.968504 201.12181 
L 231.59295 201.079702 
L 233.466287 200.983504 
L 233.622398 200.96536 
L 233.934621 200.824316 
L 236.276292 200.768856 
L 236.432404 200.429938 
L 238.930187 200.388515 
L 239.086298 200.10129 
L 239.710744 200.06329 
L 241.584081 200.035218 
L 241.740192 199.814066 
L 245.799089 199.628859 
L 246.111312 199.480283 
L 246.891869 199.466932 
L 247.204092 199.304319 
L 248.609094 199.20504 
L 249.077429 199.158482 
L 249.545763 199.138969 
L 249.857986 199.031131 
L 252.043545 198.921924 
L 252.199657 198.916789 
L 252.51188 198.771978 
L 253.760771 198.762393 
L 253.916882 198.393006 
L 254.385217 198.346106 
L 254.853551 198.291673 
L 255.477997 197.908251 
L 256.414665 197.90517 
L 256.726888 197.62445 
L 257.507445 197.589531 
L 257.819668 197.464919 
L 259.380782 197.359135 
L 259.693005 196.462201 
L 260.161339 196.386201 
L 260.473562 195.614563 
L 261.098008 195.519735 
L 261.41023 195.327339 
L 262.034676 195.223952 
L 262.190787 194.830259 
L 263.127456 194.684079 
L 263.439679 194.598151 
L 263.751902 194.502638 
L 264.064124 193.155524 
L 264.532459 193.139092 
L 264.844681 192.742318 
L 265.156904 192.642697 
L 266.561907 192.612229 
L 266.718018 192.435923 
L 268.279133 192.353761 
L 268.747467 192.300355 
L 269.215801 192.291797 
L 269.371913 192.132608 
L 269.840247 192.121653 
L 269.996358 191.712897 
L 270.620804 191.673186 
L 271.713584 191.574592 
L 272.181918 191.386646 
L 272.338029 191.377403 
L 272.494141 191.234989 
L 272.650252 190.62254 
L 273.430809 190.60645 
L 273.586921 190.381189 
L 274.991923 190.231928 
L 275.460258 188.617788 
L 277.801929 188.563698 
L 278.114152 188.470581 
L 281.860826 188.351447 
L 284.358608 188.330906 
L 284.983054 187.42199 
L 286.075834 187.391864 
L 287.012502 187.385701 
L 287.324725 186.710262 
L 287.636948 186.601055 
L 289.666397 186.490821 
L 289.978619 186.198461 
L 290.446954 186.069741 
L 292.164179 186.032426 
L 292.788625 185.671255 
L 294.037516 185.632228 
L 294.661962 185.62812 
L 295.442519 185.115635 
L 296.535299 185.077978 
L 297.315856 185.069419 
L 297.628079 184.681204 
L 299.96975 184.62951 
L 300.125861 184.276214 
L 300.594196 184.212881 
L 302.623644 184.109836 
L 302.935867 183.883891 
L 305.277538 183.844864 
L 305.433649 183.659315 
L 308.087544 183.545657 
L 308.243655 183.521693 
L 308.399766 183.313207 
L 310.741438 183.070145 
L 311.209772 182.874326 
L 313.23922 182.76683 
L 313.395332 182.643587 
L 313.551443 182.342669 
L 315.893114 182.101319 
L 316.361449 182.042436 
L 318.234786 182.006832 
L 318.547008 181.806563 
L 320.576457 181.77404 
L 323.854796 181.707626 
L 324.323131 181.637104 
L 330.723699 181.572059 
L 330.87981 181.207465 
L 331.192033 181.128726 
L 333.377593 181.096546 
L 333.689816 180.620007 
L 336.031487 180.562494 
L 336.499821 180.392692 
L 336.812044 180.390638 
L 337.280378 179.551559 
L 338.217047 179.526226 
L 338.685381 179.514244 
L 338.841492 179.367722 
L 338.997604 178.92439 
L 339.622049 178.882624 
L 339.934272 178.691255 
L 340.558718 178.616625 
L 341.339275 178.57794 
L 341.495386 177.915509 
L 341.651498 176.620089 
L 342.432055 176.557441 
L 342.588166 176.040848 
L 344.14928 175.81901 
L 344.305392 175.729659 
L 344.617615 173.270278 
L 345.085949 173.128206 
L 345.398172 172.800928 
L 345.866506 172.758478 
L 346.022617 172.545199 
L 346.178729 172.058732 
L 346.959286 171.879002 
L 347.115397 170.607204 
L 348.676511 170.310052 
L 348.832623 170.063566 
L 348.988734 167.487446 
L 349.457069 167.473068 
L 349.769291 166.845556 
L 350.70596 166.782907 
L 351.486517 166.773664 
L 351.642628 166.17217 
L 352.267074 166.12972 
L 352.579297 165.976351 
L 353.203743 165.961973 
L 353.359854 165.792171 
L 354.140411 165.772658 
L 354.296522 164.799381 
L 354.764857 164.715165 
L 354.920968 163.895942 
L 355.389302 163.844591 
L 355.857637 163.765167 
L 356.169859 163.679582 
L 356.638194 163.595024 
L 356.794305 164.739129 
L 356.950417 162.629621 
L 357.418751 162.57108 
L 357.574862 161.777533 
L 358.043196 161.723443 
L 358.355419 161.655317 
L 358.667642 161.504344 
L 359.760422 161.438615 
L 359.916533 161.381444 
L 360.072645 160.977139 
L 360.228756 160.112042 
L 361.321536 160.081916 
L 362.726539 159.998727 
L 363.038762 159.871033 
L 365.224322 159.794006 
L 365.536544 159.615304 
L 369.283218 159.52698 
L 369.43933 159.423251 
L 369.595441 158.832027 
L 369.751553 158.797108 
L 370.063775 158.586226 
L 371.937112 158.547541 
L 372.093224 158.114137 
L 372.249335 156.414754 
L 373.810449 156.279529 
L 374.591006 156.181962 
L 375.215452 155.94198 
L 376.620455 155.861188 
L 377.088789 155.835854 
L 377.401012 155.686594 
L 379.742683 155.491459 
L 379.898795 155.101874 
L 380.054906 155.064559 
L 380.211017 154.530164 
L 380.835463 154.459984 
L 382.240466 154.442525 
L 382.396577 153.800634 
L 382.7088 153.78386 
L 383.021023 153.534293 
L 384.89436 153.497662 
L 385.050471 149.773672 
L 385.362694 149.618249 
L 386.143251 149.486105 
L 387.392142 149.479258 
L 387.548254 149.337186 
L 387.704365 147.956523 
L 387.860477 147.765154 
L 389.733814 147.718938 
L 390.202148 147.667929 
L 390.358259 147.345101 
L 392.856042 147.183516 
L 393.168265 146.876094 
L 393.324376 146.236942 
L 394.88549 146.218798 
L 395.197713 145.823051 
L 395.509936 145.747051 
L 395.666047 145.247575 
L 395.822159 142.418808 
L 395.97827 141.996016 
L 397.851607 141.884755 
L 398.16383 141.743026 
L 398.476053 140.769749 
L 400.505501 140.585912 
L 400.661613 140.092255 
L 400.817724 140.003931 
L 400.973836 139.651662 
L 403.003284 139.57532 
L 403.159395 140.905659 
L 403.315507 136.817074 
L 403.471618 136.799273 
L 403.62773 136.468913 
L 406.125512 136.188878 
L 406.281624 135.494952 
L 406.593847 135.434015 
L 408.623295 135.341925 
L 408.779406 135.204988 
L 408.935518 134.463134 
L 409.403852 134.407333 
L 411.277189 134.278955 
L 411.901635 134.02391 
L 413.150526 133.912649 
L 413.774972 133.873965 
L 415.648309 133.648704 
L 415.80442 133.206741 
L 416.116643 133.121498 
L 416.741089 133.099931 
L 416.8972 132.730887 
L 418.302203 132.69049 
L 418.614426 131.509412 
L 419.394983 131.464566 
L 419.551094 131.16844 
L 420.956097 131.107846 
L 421.112208 130.679919 
L 421.424431 130.580298 
L 421.736654 130.579271 
L 422.204988 129.318427 
L 422.3611 128.912068 
L 423.609991 128.85387 
L 423.922214 125.281536 
L 424.390548 125.275717 
L 424.702771 123.520532 
L 424.858882 123.17374 
L 425.014994 122.449003 
L 425.795551 122.291868 
L 426.263885 122.234697 
L 426.576108 117.697304 
L 426.888331 117.690799 
L 427.200553 117.287521 
L 427.356665 114.928104 
L 427.512776 80.506012 
L 427.824999 75.716997 
L 427.98111 56.353479 
L 428.293333 51.880446 
L 428.449445 36.033459 
L 428.449445 36.033459 
" style="fill:none;stroke:#1f77b4;stroke-linecap:square;stroke-width:1.5;"/>
   </g>
   <g id="line2d_18">
    <path clip-path="url(#p6ec2907fe4)" d="M 88.907116 287.007273 
L 89.219339 280.105806 
L 108.889378 280.105806 
L 109.045489 278.344801 
L 109.2016 275.031963 
L 109.513823 275.165818 
L 128.871639 275.116864 
L 129.183862 265.651122 
L 129.339973 264.744944 
L 129.652196 264.853467 
L 129.808307 264.765827 
L 130.432753 264.874692 
L 148.8539 264.853467 
L 149.166123 258.722473 
L 149.634457 257.126135 
L 150.102791 256.853631 
L 150.415014 256.596533 
L 168.836161 256.552028 
L 169.304495 247.154413 
L 169.77283 245.496795 
L 170.397275 244.376997 
L 170.709498 244.269844 
L 170.865609 244.075051 
L 171.333944 244.046637 
L 171.646167 243.417413 
L 172.114501 243.331143 
L 176.329509 243.003865 
L 188.818422 243.040838 
L 189.286756 236.437413 
L 190.223425 233.349151 
L 190.847871 232.695621 
L 191.160093 232.444685 
L 191.628428 231.522417 
L 191.784539 231.504273 
L 192.096762 231.313246 
L 192.408985 231.289282 
L 192.721208 230.945914 
L 193.03343 230.768239 
L 193.657876 230.675122 
L 193.813988 230.68368 
L 194.12621 230.361879 
L 195.062879 230.036313 
L 196.155659 229.925394 
L 197.248439 229.909304 
L 198.809553 229.880205 
L 199.277887 229.729232 
L 201.151224 229.667269 
L 208.800683 229.455359 
L 209.269018 225.719387 
L 210.361798 222.789971 
L 210.67402 222.444548 
L 211.142355 221.942676 
L 211.298466 221.678046 
L 211.610689 220.904354 
L 212.079023 220.310392 
L 212.391246 220.173455 
L 213.015692 219.367583 
L 213.484026 219.162863 
L 213.796249 219.029008 
L 214.264583 218.646954 
L 215.201251 218.394991 
L 215.825697 218.311802 
L 216.450143 218.057785 
L 217.855145 217.628489 
L 218.791814 217.425822 
L 219.260148 217.031103 
L 219.728482 216.87431 
L 220.040705 216.747644 
L 220.352928 216.696635 
L 220.821262 216.606942 
L 223.631268 216.474113 
L 225.660716 216.219753 
L 228.782945 216.205033 
L 229.40739 213.261239 
L 230.344059 211.172613 
L 231.749061 209.190114 
L 232.217396 208.715629 
L 232.373507 208.672836 
L 232.997953 207.932694 
L 233.934621 207.289776 
L 234.246844 206.915597 
L 235.027401 206.552031 
L 236.120181 206.19086 
L 238.461852 205.008071 
L 239.086298 204.336054 
L 239.398521 204.097442 
L 239.866855 203.706146 
L 240.179078 203.693137 
L 241.271858 203.271715 
L 241.896303 203.164562 
L 242.364638 203.036526 
L 243.301306 202.948202 
L 244.394086 202.456257 
L 246.579646 202.241267 
L 248.765206 202.090637 
L 249.389651 200.371398 
L 250.170208 198.946915 
L 250.950766 197.76926 
L 251.262988 197.342361 
L 251.731323 196.483426 
L 252.199657 195.968544 
L 252.355768 195.9124 
L 252.824102 195.241069 
L 253.448548 194.755286 
L 253.760771 194.528998 
L 254.541328 193.483488 
L 255.634108 192.971687 
L 256.726888 192.412643 
L 258.600225 191.207259 
L 258.912448 190.687585 
L 259.224671 190.28328 
L 259.536893 190.049118 
L 259.849116 189.819749 
L 260.629673 189.426399 
L 261.566342 188.905355 
L 261.878565 188.705085 
L 262.50301 188.491807 
L 263.439679 188.265519 
L 264.68857 187.385359 
L 265.156904 187.288134 
L 265.625239 187.199468 
L 266.249684 187.060135 
L 267.030241 186.896495 
L 268.747467 186.732514 
L 269.215801 185.786282 
L 269.996358 184.57679 
L 270.464692 183.854449 
L 271.245249 182.833929 
L 272.025807 181.88667 
L 273.430809 180.548115 
L 273.899144 180.119846 
L 274.367478 179.681307 
L 274.991923 179.232839 
L 275.460258 178.930552 
L 276.240815 178.338301 
L 277.333595 177.560159 
L 278.738597 176.354775 
L 279.519155 175.422579 
L 280.768046 174.5455 
L 281.23638 174.242528 
L 281.704714 174.009393 
L 282.173049 173.623575 
L 283.578051 173.123071 
L 284.202497 172.38601 
L 286.388057 171.5394 
L 286.856391 171.41958 
L 287.949171 171.181311 
L 288.573617 170.999527 
L 288.729728 170.885528 
L 289.510285 169.74108 
L 290.759176 168.345012 
L 291.539733 167.405627 
L 293.41307 165.557325 
L 293.881405 165.119813 
L 294.661962 164.377616 
L 295.754742 163.413925 
L 296.379187 162.844954 
L 298.720859 160.977139 
L 299.189193 160.353392 
L 300.281973 159.465016 
L 301.374753 158.315776 
L 301.843087 157.923795 
L 302.311421 157.452733 
L 303.24809 157.059383 
L 303.560312 156.695816 
L 304.028647 156.093295 
L 304.809204 155.525693 
L 306.058095 154.927965 
L 307.775321 154.241913 
L 308.555878 153.873895 
L 309.180323 153.272059 
L 313.083109 149.624411 
L 313.863666 149.016412 
L 314.956446 148.00719 
L 316.829783 146.373194 
L 318.390897 145.022657 
L 322.762017 140.83274 
L 323.386462 140.393173 
L 324.167019 139.463374 
L 327.133136 137.375091 
L 328.069805 136.986876 
L 328.538139 136.666102 
L 329.630919 135.573348 
L 332.284813 133.247138 
L 333.221481 132.477896 
L 334.938707 131.018837 
L 336.187598 129.881921 
L 338.373158 127.861079 
L 339.778161 126.314381 
L 340.402606 125.640653 
L 343.056501 122.843381 
L 344.461503 120.997818 
L 348.5204 117.480259 
L 348.832623 117.157774 
L 350.081514 116.396748 
L 354.140411 113.546071 
L 354.764857 113.082198 
L 359.916533 108.449634 
L 361.009313 107.386663 
L 361.78987 106.647548 
L 362.414316 106.040919 
L 363.350985 105.036489 
L 363.97543 104.260059 
L 365.692656 102.559649 
L 368.814884 99.457008 
L 369.127107 99.12391 
L 372.405447 96.874042 
L 375.059341 94.949398 
L 381.459909 88.78109 
L 385.98714 83.032834 
L 388.1727 80.377291 
L 388.641034 79.577239 
L 389.109368 79.644338 
L 392.856042 77.905586 
L 393.948822 77.361948 
L 398.632164 74.689973 
L 406.906069 68.93624 
L 408.623295 67.653144 
L 409.091629 67.062262 
L 415.492197 64.227675 
L 419.08276 62.286599 
L 423.141657 59.734786 
L 424.078325 59.152805 
L 427.200553 57.35654 
L 428.449445 56.612632 
L 428.449445 56.612632 
" style="fill:none;stroke:#ff7f0e;stroke-linecap:square;stroke-width:1.5;"/>
   </g>
   <g id="line2d_19">
    <path clip-path="url(#p6ec2907fe4)" d="M 88.907116 287.007273 
L 89.531562 278.613882 
L 89.687673 278.793611 
L 90.156008 278.793611 
L 90.624342 269.113564 
L 91.092676 268.900627 
L 91.404899 262.427635 
L 94.214905 262.427635 
L 94.83935 261.159944 
L 95.151573 251.93213 
L 95.307684 252.084815 
L 95.619907 252.00813 
L 95.93213 252.109463 
L 107.952709 252.220039 
L 108.264932 250.712025 
L 108.421043 250.29608 
L 108.577155 250.202621 
L 109.045489 245.097625 
L 110.138269 245.097625 
L 110.29438 244.101412 
L 110.606603 244.095592 
L 110.918826 243.931953 
L 111.38716 243.899088 
L 111.699383 243.62008 
L 112.47994 243.575575 
L 112.636052 243.314026 
L 112.792163 242.674532 
L 113.104386 242.607434 
L 122.939405 242.623866 
L 123.407739 240.604394 
L 123.563851 240.146341 
L 128.559416 240.072395 
L 128.871639 236.874241 
L 130.12053 236.814331 
L 130.588864 235.943415 
L 131.21331 235.424767 
L 131.369421 235.309398 
L 131.837756 234.376175 
L 131.993867 234.265599 
L 132.462201 234.243347 
L 132.618313 234.121816 
L 132.774424 233.339908 
L 133.242758 232.935945 
L 133.39887 232.80517 
L 133.711093 232.834954 
L 134.023315 232.720612 
L 142.921666 232.792161 
L 143.546112 230.878473 
L 148.541677 230.864094 
L 149.010011 229.566278 
L 149.478346 229.403323 
L 150.102791 229.455017 
L 150.415014 228.543362 
L 150.571125 228.458803 
L 151.03946 227.792949 
L 151.195571 227.671418 
L 151.820017 226.547853 
L 152.13224 226.282538 
L 152.444462 226.216124 
L 152.600574 226.009692 
L 152.912797 224.865245 
L 153.381131 224.297985 
L 153.693354 224.10422 
L 154.317799 223.870401 
L 156.035025 223.747842 
L 157.908362 223.758113 
L 158.220585 223.522239 
L 158.84503 223.536275 
L 159.157253 223.413032 
L 162.903927 223.362366 
L 163.528373 221.771163 
L 166.338378 221.786568 
L 168.523938 221.783487 
L 169.304495 220.782823 
L 169.77283 220.558247 
L 170.085052 220.493887 
L 170.397275 219.969077 
L 173.519504 215.960601 
L 174.924506 215.611755 
L 175.39284 215.329666 
L 175.861175 215.205396 
L 176.329509 215.028405 
L 176.641732 214.952063 
L 177.422289 214.737073 
L 177.5784 214.729883 
L 178.202846 214.088678 
L 178.827292 213.880534 
L 179.139514 213.714841 
L 179.451737 213.648769 
L 179.920072 213.544697 
L 182.886188 213.345112 
L 183.510634 212.242773 
L 183.822857 211.960341 
L 188.506199 211.866197 
L 188.818422 211.623135 
L 189.130645 210.723119 
L 189.755091 210.216454 
L 189.911202 210.175373 
L 190.223425 209.710815 
L 190.847871 208.968619 
L 191.316205 208.39999 
L 191.628428 207.883397 
L 192.096762 207.431848 
L 192.408985 207.296623 
L 193.657876 205.595529 
L 194.282322 205.395601 
L 195.21899 205.061476 
L 196.780104 204.132361 
L 197.092327 204.070055 
L 198.028996 203.28267 
L 198.341219 202.811608 
L 198.653441 202.622635 
L 198.965664 202.293645 
L 199.433998 202.200186 
L 199.746221 202.013952 
L 201.619558 201.538097 
L 202.400115 201.440188 
L 203.180672 200.802063 
L 204.273452 199.946552 
L 207.239569 199.617562 
L 208.644572 199.526157 
L 208.800683 199.44913 
L 209.112906 198.810321 
L 209.58124 198.226971 
L 210.205686 197.536126 
L 210.986243 196.63166 
L 211.454577 196.127733 
L 212.079023 195.502275 
L 212.703469 194.927141 
L 213.796249 193.537235 
L 214.576806 193.204479 
L 215.513474 192.681724 
L 216.13792 192.305833 
L 217.542923 191.446556 
L 217.855145 191.088124 
L 218.32348 190.352432 
L 218.635703 190.096019 
L 219.104037 189.809479 
L 219.41626 189.640705 
L 219.884594 189.345949 
L 220.040705 189.163138 
L 220.352928 189.118292 
L 220.665151 188.937878 
L 221.133485 188.665374 
L 221.757931 188.487356 
L 222.226265 188.417519 
L 222.694599 188.151862 
L 224.099602 186.954693 
L 224.724048 186.696226 
L 225.504605 186.467542 
L 226.909608 186.070768 
L 228.782945 185.798264 
L 229.095167 185.157401 
L 229.719613 184.251565 
L 230.031836 183.870539 
L 231.905173 182.210525 
L 232.68573 181.538509 
L 233.934621 180.421791 
L 237.681295 177.719348 
L 238.461852 176.735801 
L 239.086298 176.306505 
L 239.398521 176.138073 
L 240.179078 175.59238 
L 241.427969 174.8584 
L 242.67686 174.423969 
L 242.989083 174.128186 
L 243.457418 173.910114 
L 243.925752 173.161414 
L 245.174643 172.273722 
L 246.891869 171.607183 
L 248.765206 171.110788 
L 249.389651 169.979692 
L 250.014097 169.137874 
L 252.51188 167.355645 
L 258.131891 162.744647 
L 258.600225 162.298919 
L 259.380782 161.745695 
L 260.629673 160.654995 
L 260.941896 160.400635 
L 261.41023 160.005916 
L 262.346899 159.680691 
L 263.283567 159.03127 
L 263.439679 158.979576 
L 264.064124 158.006299 
L 264.376347 157.663615 
L 265.313016 157.14086 
L 266.87413 156.117601 
L 268.123021 155.611963 
L 268.591355 155.25764 
L 268.747467 155.242919 
L 269.996358 153.142312 
L 271.089138 152.468584 
L 274.523589 149.9445 
L 275.616369 149.081457 
L 276.86526 148.170829 
L 277.95804 147.158868 
L 278.582486 146.622419 
L 282.016937 143.890876 
L 282.485271 143.603309 
L 282.953606 143.177779 
L 283.42194 143.060356 
L 283.890274 142.303439 
L 287.012502 139.496581 
L 288.105282 138.77561 
L 288.417505 138.308656 
L 288.729728 138.247035 
L 289.978619 136.229616 
L 291.227511 135.618879 
L 293.725293 134.168378 
L 295.286407 132.897949 
L 297.78419 130.893198 
L 298.564747 130.129092 
L 300.438084 128.454015 
L 300.906418 128.102088 
L 301.530864 127.521477 
L 302.311421 126.878902 
L 302.935867 126.288363 
L 303.404201 126.197642 
L 304.028647 125.319194 
L 307.150875 121.7585 
L 308.087544 120.896485 
L 308.399766 120.344288 
L 308.711989 120.350108 
L 309.96088 118.345698 
L 311.990329 117.501827 
L 313.707554 116.606261 
L 321.044791 110.877519 
L 321.981459 110.103828 
L 323.074239 109.283235 
L 323.386462 109.238046 
L 324.010908 108.214103 
L 325.415911 106.128901 
L 326.040356 105.213137 
L 326.820913 104.230617 
L 328.069805 102.521991 
L 328.538139 101.835254 
L 328.69425 101.784588 
L 330.099253 99.943133 
L 333.06537 98.824361 
L 334.15815 98.094489 
L 339.153715 94.303742 
L 342.900389 91.005624 
L 343.368723 90.957012 
L 344.305392 89.586961 
L 345.24206 87.994389 
L 348.052066 83.266653 
L 348.364289 82.422439 
L 349.769291 80.611795 
L 352.735408 79.463582 
L 356.169859 77.37393 
L 359.448199 75.096332 
L 360.69709 74.113127 
L 362.570427 72.662969 
L 363.038762 72.587996 
L 366.473213 66.776407 
L 367.878216 63.786055 
L 368.190438 63.177372 
L 369.127107 62.044221 
L 369.43933 61.818276 
L 372.249335 61.069233 
L 374.747118 59.593399 
L 377.869346 57.424323 
L 381.928243 54.054999 
L 382.396577 53.509649 
L 383.177134 52.375471 
L 386.455474 47.045215 
L 387.392142 45.300985 
L 388.328811 44.289024 
L 390.358259 43.663223 
L 393.012153 42.724865 
L 396.758827 41.28977 
L 401.44217 39.093307 
L 403.471618 36.935529 
L 405.501067 34.388851 
L 406.125512 33.521358 
L 407.374404 32.872278 
L 411.277189 31.664497 
L 414.867752 30.470753 
L 417.365534 29.59025 
L 422.985545 27.341409 
L 426.576108 26.662889 
L 428.449445 26.352727 
L 428.449445 26.352727 
" style="fill:none;stroke:#2ca02c;stroke-linecap:square;stroke-width:1.5;"/>
   </g>
   <g id="patch_3">
    <path d="M 71.93 300.04 
L 71.93 13.32 
" style="fill:none;stroke:#000000;stroke-linecap:square;stroke-linejoin:miter;stroke-width:0.8;"/>
   </g>
   <g id="patch_4">
    <path d="M 71.93 300.04 
L 445.426561 300.04 
" style="fill:none;stroke:#000000;stroke-linecap:square;stroke-linejoin:miter;stroke-width:0.8;"/>
   </g>
   <g id="legend_1">
    <g id="patch_5">
     <path d="M 322.267186 295.04 
L 438.426561 295.04 
Q 440.426561 295.04 440.426561 293.04 
L 440.426561 250.005625 
Q 440.426561 248.005625 438.426561 248.005625 
L 322.267186 248.005625 
Q 320.267186 248.005625 320.267186 250.005625 
L 320.267186 293.04 
Q 320.267186 295.04 322.267186 295.04 
z
" style="fill:#ffffff;opacity:0.8;stroke:#cccccc;stroke-linejoin:miter;"/>
    </g>
    <g id="line2d_20">
     <path d="M 324.267186 256.104062 
L 344.267186 256.104062 
" style="fill:none;stroke:#1f77b4;stroke-linecap:square;stroke-width:1.5;"/>
    </g>
    <g id="line2d_21"/>
    <g id="text_19">
     <!-- by resolution -->
     <defs>
      <path d="M 9.421875 75.984375 
L 18.40625 75.984375 
L 18.40625 0 
L 9.421875 0 
z
" id="DejaVuSans-6c"/>
      <path d="M 9.421875 54.6875 
L 18.40625 54.6875 
L 18.40625 0 
L 9.421875 0 
z
M 9.421875 75.984375 
L 18.40625 75.984375 
L 18.40625 64.59375 
L 9.421875 64.59375 
z
" id="DejaVuSans-69"/>
      <path d="M 54.890625 33.015625 
L 54.890625 0 
L 45.90625 0 
L 45.90625 32.71875 
Q 45.90625 40.484375 42.875 44.328125 
Q 39.84375 48.1875 33.796875 48.1875 
Q 26.515625 48.1875 22.3125 43.546875 
Q 18.109375 38.921875 18.109375 30.90625 
L 18.109375 0 
L 9.078125 0 
L 9.078125 54.6875 
L 18.109375 54.6875 
L 18.109375 46.1875 
Q 21.34375 51.125 25.703125 53.5625 
Q 30.078125 56 35.796875 56 
Q 45.21875 56 50.046875 50.171875 
Q 54.890625 44.34375 54.890625 33.015625 
z
" id="DejaVuSans-6e"/>
     </defs>
     <g transform="translate(352.267186 259.604062)scale(0.1 -0.1)">
      <use xlink:href="#DejaVuSans-62"/>
      <use x="63.476562" xlink:href="#DejaVuSans-79"/>
      <use x="122.65625" xlink:href="#DejaVuSans-20"/>
      <use x="154.443359" xlink:href="#DejaVuSans-72"/>
      <use x="195.525391" xlink:href="#DejaVuSans-65"/>
      <use x="257.048828" xlink:href="#DejaVuSans-73"/>
      <use x="309.148438" xlink:href="#DejaVuSans-6f"/>
      <use x="370.330078" xlink:href="#DejaVuSans-6c"/>
      <use x="398.113281" xlink:href="#DejaVuSans-75"/>
      <use x="461.492188" xlink:href="#DejaVuSans-74"/>
      <use x="500.701172" xlink:href="#DejaVuSans-69"/>
      <use x="528.484375" xlink:href="#DejaVuSans-6f"/>
      <use x="589.666016" xlink:href="#DejaVuSans-6e"/>
     </g>
    </g>
    <g id="line2d_22">
     <path d="M 324.267186 270.782187 
L 344.267186 270.782187 
" style="fill:none;stroke:#ff7f0e;stroke-linecap:square;stroke-width:1.5;"/>
    </g>
    <g id="line2d_23"/>
    <g id="text_20">
     <!-- by precision -->
     <defs>
      <path d="M 18.109375 8.203125 
L 18.109375 -20.796875 
L 9.078125 -20.796875 
L 9.078125 54.6875 
L 18.109375 54.6875 
L 18.109375 46.390625 
Q 20.953125 51.265625 25.265625 53.625 
Q 29.59375 56 35.59375 56 
Q 45.5625 56 51.78125 48.09375 
Q 58.015625 40.1875 58.015625 27.296875 
Q 58.015625 14.40625 51.78125 6.484375 
Q 45.5625 -1.421875 35.59375 -1.421875 
Q 29.59375 -1.421875 25.265625 0.953125 
Q 20.953125 3.328125 18.109375 8.203125 
z
M 48.6875 27.296875 
Q 48.6875 37.203125 44.609375 42.84375 
Q 40.53125 48.484375 33.40625 48.484375 
Q 26.265625 48.484375 22.1875 42.84375 
Q 18.109375 37.203125 18.109375 27.296875 
Q 18.109375 17.390625 22.1875 11.75 
Q 26.265625 6.109375 33.40625 6.109375 
Q 40.53125 6.109375 44.609375 11.75 
Q 48.6875 17.390625 48.6875 27.296875 
z
" id="DejaVuSans-70"/>
      <path d="M 48.78125 52.59375 
L 48.78125 44.1875 
Q 44.96875 46.296875 41.140625 47.34375 
Q 37.3125 48.390625 33.40625 48.390625 
Q 24.65625 48.390625 19.8125 42.84375 
Q 14.984375 37.3125 14.984375 27.296875 
Q 14.984375 17.28125 19.8125 11.734375 
Q 24.65625 6.203125 33.40625 6.203125 
Q 37.3125 6.203125 41.140625 7.25 
Q 44.96875 8.296875 48.78125 10.40625 
L 48.78125 2.09375 
Q 45.015625 0.34375 40.984375 -0.53125 
Q 36.96875 -1.421875 32.421875 -1.421875 
Q 20.0625 -1.421875 12.78125 6.34375 
Q 5.515625 14.109375 5.515625 27.296875 
Q 5.515625 40.671875 12.859375 48.328125 
Q 20.21875 56 33.015625 56 
Q 37.15625 56 41.109375 55.140625 
Q 45.0625 54.296875 48.78125 52.59375 
z
" id="DejaVuSans-63"/>
     </defs>
     <g transform="translate(352.267186 274.282187)scale(0.1 -0.1)">
      <use xlink:href="#DejaVuSans-62"/>
      <use x="63.476562" xlink:href="#DejaVuSans-79"/>
      <use x="122.65625" xlink:href="#DejaVuSans-20"/>
      <use x="154.443359" xlink:href="#DejaVuSans-70"/>
      <use x="217.919922" xlink:href="#DejaVuSans-72"/>
      <use x="259.001953" xlink:href="#DejaVuSans-65"/>
      <use x="320.525391" xlink:href="#DejaVuSans-63"/>
      <use x="375.505859" xlink:href="#DejaVuSans-69"/>
      <use x="403.289062" xlink:href="#DejaVuSans-73"/>
      <use x="455.388672" xlink:href="#DejaVuSans-69"/>
      <use x="483.171875" xlink:href="#DejaVuSans-6f"/>
      <use x="544.353516" xlink:href="#DejaVuSans-6e"/>
     </g>
    </g>
    <g id="line2d_24">
     <path d="M 324.267186 285.460312 
L 344.267186 285.460312 
" style="fill:none;stroke:#2ca02c;stroke-linecap:square;stroke-width:1.5;"/>
    </g>
    <g id="line2d_25"/>
    <g id="text_21">
     <!-- by wavelet norm -->
     <defs>
      <path d="M 4.203125 54.6875 
L 13.1875 54.6875 
L 24.421875 12.015625 
L 35.59375 54.6875 
L 46.1875 54.6875 
L 57.421875 12.015625 
L 68.609375 54.6875 
L 77.59375 54.6875 
L 63.28125 0 
L 52.6875 0 
L 40.921875 44.828125 
L 29.109375 0 
L 18.5 0 
z
" id="DejaVuSans-77"/>
      <path d="M 2.984375 54.6875 
L 12.5 54.6875 
L 29.59375 8.796875 
L 46.6875 54.6875 
L 56.203125 54.6875 
L 35.6875 0 
L 23.484375 0 
z
" id="DejaVuSans-76"/>
     </defs>
     <g transform="translate(352.267186 288.960312)scale(0.1 -0.1)">
      <use xlink:href="#DejaVuSans-62"/>
      <use x="63.476562" xlink:href="#DejaVuSans-79"/>
      <use x="122.65625" xlink:href="#DejaVuSans-20"/>
      <use x="154.443359" xlink:href="#DejaVuSans-77"/>
      <use x="236.230469" xlink:href="#DejaVuSans-61"/>
      <use x="297.509766" xlink:href="#DejaVuSans-76"/>
      <use x="356.689453" xlink:href="#DejaVuSans-65"/>
      <use x="418.212891" xlink:href="#DejaVuSans-6c"/>
      <use x="445.996094" xlink:href="#DejaVuSans-65"/>
      <use x="507.519531" xlink:href="#DejaVuSans-74"/>
      <use x="546.728516" xlink:href="#DejaVuSans-20"/>
      <use x="578.515625" xlink:href="#DejaVuSans-6e"/>
      <use x="641.894531" xlink:href="#DejaVuSans-6f"/>
      <use x="703.076172" xlink:href="#DejaVuSans-72"/>
      <use x="744.173828" xlink:href="#DejaVuSans-6d"/>
     </g>
    </g>
   </g>
  </g>
 </g>
 <defs>
  <clipPath id="p6ec2907fe4">
   <rect height="286.72" width="373.496561" x="71.93" y="13.32"/>
  </clipPath>
 </defs>
</svg>
