<?xml version="1.0" encoding="utf-8" standalone="no"?>
<!DOCTYPE svg PUBLIC "-//W3C//DTD SVG 1.1//EN"
  "http://www.w3.org/Graphics/SVG/1.1/DTD/svg11.dtd">
<!-- Created with matplotlib (http://matplotlib.org/) -->
<svg height="345pt" version="1.1" viewBox="0 0 460 345" width="460pt" xmlns="http://www.w3.org/2000/svg" xmlns:xlink="http://www.w3.org/1999/xlink">
 <defs>
  <style type="text/css">
*{stroke-linecap:butt;stroke-linejoin:round;}
  </style>
 </defs>
 <g id="figure_1">
  <g id="patch_1">
   <path d="M 0 345.6 
L 460.8 345.6 
L 460.8 0 
L 0 0 
z
" style="fill:#ffffff;"/>
  </g>
  <g id="axes_1">
   <g id="patch_2">
    <path d="M 71.93 300.04 
L 445.565162 300.04 
L 445.565162 13.32 
L 71.93 13.32 
z
" style="fill:#ffffff;"/>
   </g>
   <g id="matplotlib.axis_1">
    <g id="xtick_1">
     <g id="line2d_1">
      <defs>
       <path d="M 0 0 
L 0 3.5 
" id="m8ac52b479c" style="stroke:#000000;stroke-width:0.8;"/>
      </defs>
      <g>
       <use style="stroke:#000000;stroke-width:0.8;" x="88.774606" xlink:href="#m8ac52b479c" y="300.04"/>
      </g>
     </g>
     <g id="text_1">
      <!-- 0.0 -->
      <defs>
       <path d="M 31.78125 66.40625 
Q 24.171875 66.40625 20.328125 58.90625 
Q 16.5 51.421875 16.5 36.375 
Q 16.5 21.390625 20.328125 13.890625 
Q 24.171875 6.390625 31.78125 6.390625 
Q 39.453125 6.390625 43.28125 13.890625 
Q 47.125 21.390625 47.125 36.375 
Q 47.125 51.421875 43.28125 58.90625 
Q 39.453125 66.40625 31.78125 66.40625 
z
M 31.78125 74.21875 
Q 44.046875 74.21875 50.515625 64.515625 
Q 56.984375 54.828125 56.984375 36.375 
Q 56.984375 17.96875 50.515625 8.265625 
Q 44.046875 -1.421875 31.78125 -1.421875 
Q 19.53125 -1.421875 13.0625 8.265625 
Q 6.59375 17.96875 6.59375 36.375 
Q 6.59375 54.828125 13.0625 64.515625 
Q 19.53125 74.21875 31.78125 74.21875 
z
" id="DejaVuSans-30"/>
       <path d="M 10.6875 12.40625 
L 21 12.40625 
L 21 0 
L 10.6875 0 
z
" id="DejaVuSans-2e"/>
      </defs>
      <g transform="translate(80.823044 314.638437)scale(0.1 -0.1)">
       <use xlink:href="#DejaVuSans-30"/>
       <use x="63.623047" xlink:href="#DejaVuSans-2e"/>
       <use x="95.410156" xlink:href="#DejaVuSans-30"/>
      </g>
     </g>
    </g>
    <g id="xtick_2">
     <g id="line2d_2">
      <g>
       <use style="stroke:#000000;stroke-width:0.8;" x="138.746245" xlink:href="#m8ac52b479c" y="300.04"/>
      </g>
     </g>
     <g id="text_2">
      <!-- 2.5 -->
      <defs>
       <path d="M 19.1875 8.296875 
L 53.609375 8.296875 
L 53.609375 0 
L 7.328125 0 
L 7.328125 8.296875 
Q 12.9375 14.109375 22.625 23.890625 
Q 32.328125 33.6875 34.8125 36.53125 
Q 39.546875 41.84375 41.421875 45.53125 
Q 43.3125 49.21875 43.3125 52.78125 
Q 43.3125 58.59375 39.234375 62.25 
Q 35.15625 65.921875 28.609375 65.921875 
Q 23.96875 65.921875 18.8125 64.3125 
Q 13.671875 62.703125 7.8125 59.421875 
L 7.8125 69.390625 
Q 13.765625 71.78125 18.9375 73 
Q 24.125 74.21875 28.421875 74.21875 
Q 39.75 74.21875 46.484375 68.546875 
Q 53.21875 62.890625 53.21875 53.421875 
Q 53.21875 48.921875 51.53125 44.890625 
Q 49.859375 40.875 45.40625 35.40625 
Q 44.1875 33.984375 37.640625 27.21875 
Q 31.109375 20.453125 19.1875 8.296875 
z
" id="DejaVuSans-32"/>
       <path d="M 10.796875 72.90625 
L 49.515625 72.90625 
L 49.515625 64.59375 
L 19.828125 64.59375 
L 19.828125 46.734375 
Q 21.96875 47.46875 24.109375 47.828125 
Q 26.265625 48.1875 28.421875 48.1875 
Q 40.625 48.1875 47.75 41.5 
Q 54.890625 34.8125 54.890625 23.390625 
Q 54.890625 11.625 47.5625 5.09375 
Q 40.234375 -1.421875 26.90625 -1.421875 
Q 22.3125 -1.421875 17.546875 -0.640625 
Q 12.796875 0.140625 7.71875 1.703125 
L 7.71875 11.625 
Q 12.109375 9.234375 16.796875 8.0625 
Q 21.484375 6.890625 26.703125 6.890625 
Q 35.15625 6.890625 40.078125 11.328125 
Q 45.015625 15.765625 45.015625 23.390625 
Q 45.015625 31 40.078125 35.4375 
Q 35.15625 39.890625 26.703125 39.890625 
Q 22.75 39.890625 18.8125 39.015625 
Q 14.890625 38.140625 10.796875 36.28125 
z
" id="DejaVuSans-35"/>
      </defs>
      <g transform="translate(130.794682 314.638437)scale(0.1 -0.1)">
       <use xlink:href="#DejaVuSans-32"/>
       <use x="63.623047" xlink:href="#DejaVuSans-2e"/>
       <use x="95.410156" xlink:href="#DejaVuSans-35"/>
      </g>
     </g>
    </g>
    <g id="xtick_3">
     <g id="line2d_3">
      <g>
       <use style="stroke:#000000;stroke-width:0.8;" x="188.717883" xlink:href="#m8ac52b479c" y="300.04"/>
      </g>
     </g>
     <g id="text_3">
      <!-- 5.0 -->
      <g transform="translate(180.76632 314.638437)scale(0.1 -0.1)">
       <use xlink:href="#DejaVuSans-35"/>
       <use x="63.623047" xlink:href="#DejaVuSans-2e"/>
       <use x="95.410156" xlink:href="#DejaVuSans-30"/>
      </g>
     </g>
    </g>
    <g id="xtick_4">
     <g id="line2d_4">
      <g>
       <use style="stroke:#000000;stroke-width:0.8;" x="238.689521" xlink:href="#m8ac52b479c" y="300.04"/>
      </g>
     </g>
     <g id="text_4">
      <!-- 7.5 -->
      <defs>
       <path d="M 8.203125 72.90625 
L 55.078125 72.90625 
L 55.078125 68.703125 
L 28.609375 0 
L 18.3125 0 
L 43.21875 64.59375 
L 8.203125 64.59375 
z
" id="DejaVuSans-37"/>
      </defs>
      <g transform="translate(230.737958 314.638437)scale(0.1 -0.1)">
       <use xlink:href="#DejaVuSans-37"/>
       <use x="63.623047" xlink:href="#DejaVuSans-2e"/>
       <use x="95.410156" xlink:href="#DejaVuSans-35"/>
      </g>
     </g>
    </g>
    <g id="xtick_5">
     <g id="line2d_5">
      <g>
       <use style="stroke:#000000;stroke-width:0.8;" x="288.661159" xlink:href="#m8ac52b479c" y="300.04"/>
      </g>
     </g>
     <g id="text_5">
      <!-- 10.0 -->
      <defs>
       <path d="M 12.40625 8.296875 
L 28.515625 8.296875 
L 28.515625 63.921875 
L 10.984375 60.40625 
L 10.984375 69.390625 
L 28.421875 72.90625 
L 38.28125 72.90625 
L 38.28125 8.296875 
L 54.390625 8.296875 
L 54.390625 0 
L 12.40625 0 
z
" id="DejaVuSans-31"/>
      </defs>
      <g transform="translate(277.528346 314.638437)scale(0.1 -0.1)">
       <use xlink:href="#DejaVuSans-31"/>
       <use x="63.623047" xlink:href="#DejaVuSans-30"/>
       <use x="127.246094" xlink:href="#DejaVuSans-2e"/>
       <use x="159.033203" xlink:href="#DejaVuSans-30"/>
      </g>
     </g>
    </g>
    <g id="xtick_6">
     <g id="line2d_6">
      <g>
       <use style="stroke:#000000;stroke-width:0.8;" x="338.632797" xlink:href="#m8ac52b479c" y="300.04"/>
      </g>
     </g>
     <g id="text_6">
      <!-- 12.5 -->
      <g transform="translate(327.499984 314.638437)scale(0.1 -0.1)">
       <use xlink:href="#DejaVuSans-31"/>
       <use x="63.623047" xlink:href="#DejaVuSans-32"/>
       <use x="127.246094" xlink:href="#DejaVuSans-2e"/>
       <use x="159.033203" xlink:href="#DejaVuSans-35"/>
      </g>
     </g>
    </g>
    <g id="xtick_7">
     <g id="line2d_7">
      <g>
       <use style="stroke:#000000;stroke-width:0.8;" x="388.604435" xlink:href="#m8ac52b479c" y="300.04"/>
      </g>
     </g>
     <g id="text_7">
      <!-- 15.0 -->
      <g transform="translate(377.471623 314.638437)scale(0.1 -0.1)">
       <use xlink:href="#DejaVuSans-31"/>
       <use x="63.623047" xlink:href="#DejaVuSans-35"/>
       <use x="127.246094" xlink:href="#DejaVuSans-2e"/>
       <use x="159.033203" xlink:href="#DejaVuSans-30"/>
      </g>
     </g>
    </g>
    <g id="xtick_8">
     <g id="line2d_8">
      <g>
       <use style="stroke:#000000;stroke-width:0.8;" x="438.576073" xlink:href="#m8ac52b479c" y="300.04"/>
      </g>
     </g>
     <g id="text_8">
      <!-- 17.5 -->
      <g transform="translate(427.443261 314.638437)scale(0.1 -0.1)">
       <use xlink:href="#DejaVuSans-31"/>
       <use x="63.623047" xlink:href="#DejaVuSans-37"/>
       <use x="127.246094" xlink:href="#DejaVuSans-2e"/>
       <use x="159.033203" xlink:href="#DejaVuSans-35"/>
      </g>
     </g>
    </g>
    <g id="text_9">
     <!-- Number of Streamed Bytes -->
     <defs>
      <path d="M 9.8125 72.90625 
L 23.09375 72.90625 
L 55.421875 11.921875 
L 55.421875 72.90625 
L 64.984375 72.90625 
L 64.984375 0 
L 51.703125 0 
L 19.390625 60.984375 
L 19.390625 0 
L 9.8125 0 
z
" id="DejaVuSans-4e"/>
      <path d="M 8.5 21.578125 
L 8.5 54.6875 
L 17.484375 54.6875 
L 17.484375 21.921875 
Q 17.484375 14.15625 20.5 10.265625 
Q 23.53125 6.390625 29.59375 6.390625 
Q 36.859375 6.390625 41.078125 11.03125 
Q 45.3125 15.671875 45.3125 23.6875 
L 45.3125 54.6875 
L 54.296875 54.6875 
L 54.296875 0 
L 45.3125 0 
L 45.3125 8.40625 
Q 42.046875 3.421875 37.71875 1 
Q 33.40625 -1.421875 27.6875 -1.421875 
Q 18.265625 -1.421875 13.375 4.4375 
Q 8.5 10.296875 8.5 21.578125 
z
M 31.109375 56 
z
" id="DejaVuSans-75"/>
      <path d="M 52 44.1875 
Q 55.375 50.25 60.0625 53.125 
Q 64.75 56 71.09375 56 
Q 79.640625 56 84.28125 50.015625 
Q 88.921875 44.046875 88.921875 33.015625 
L 88.921875 0 
L 79.890625 0 
L 79.890625 32.71875 
Q 79.890625 40.578125 77.09375 44.375 
Q 74.3125 48.1875 68.609375 48.1875 
Q 61.625 48.1875 57.5625 43.546875 
Q 53.515625 38.921875 53.515625 30.90625 
L 53.515625 0 
L 44.484375 0 
L 44.484375 32.71875 
Q 44.484375 40.625 41.703125 44.40625 
Q 38.921875 48.1875 33.109375 48.1875 
Q 26.21875 48.1875 22.15625 43.53125 
Q 18.109375 38.875 18.109375 30.90625 
L 18.109375 0 
L 9.078125 0 
L 9.078125 54.6875 
L 18.109375 54.6875 
L 18.109375 46.1875 
Q 21.1875 51.21875 25.484375 53.609375 
Q 29.78125 56 35.6875 56 
Q 41.65625 56 45.828125 52.96875 
Q 50 49.953125 52 44.1875 
z
" id="DejaVuSans-6d"/>
      <path d="M 48.6875 27.296875 
Q 48.6875 37.203125 44.609375 42.84375 
Q 40.53125 48.484375 33.40625 48.484375 
Q 26.265625 48.484375 22.1875 42.84375 
Q 18.109375 37.203125 18.109375 27.296875 
Q 18.109375 17.390625 22.1875 11.75 
Q 26.265625 6.109375 33.40625 6.109375 
Q 40.53125 6.109375 44.609375 11.75 
Q 48.6875 17.390625 48.6875 27.296875 
z
M 18.109375 46.390625 
Q 20.953125 51.265625 25.265625 53.625 
Q 29.59375 56 35.59375 56 
Q 45.5625 56 51.78125 48.09375 
Q 58.015625 40.1875 58.015625 27.296875 
Q 58.015625 14.40625 51.78125 6.484375 
Q 45.5625 -1.421875 35.59375 -1.421875 
Q 29.59375 -1.421875 25.265625 0.953125 
Q 20.953125 3.328125 18.109375 8.203125 
L 18.109375 0 
L 9.078125 0 
L 9.078125 75.984375 
L 18.109375 75.984375 
z
" id="DejaVuSans-62"/>
      <path d="M 56.203125 29.59375 
L 56.203125 25.203125 
L 14.890625 25.203125 
Q 15.484375 15.921875 20.484375 11.0625 
Q 25.484375 6.203125 34.421875 6.203125 
Q 39.59375 6.203125 44.453125 7.46875 
Q 49.3125 8.734375 54.109375 11.28125 
L 54.109375 2.78125 
Q 49.265625 0.734375 44.1875 -0.34375 
Q 39.109375 -1.421875 33.890625 -1.421875 
Q 20.796875 -1.421875 13.15625 6.1875 
Q 5.515625 13.8125 5.515625 26.8125 
Q 5.515625 40.234375 12.765625 48.109375 
Q 20.015625 56 32.328125 56 
Q 43.359375 56 49.78125 48.890625 
Q 56.203125 41.796875 56.203125 29.59375 
z
M 47.21875 32.234375 
Q 47.125 39.59375 43.09375 43.984375 
Q 39.0625 48.390625 32.421875 48.390625 
Q 24.90625 48.390625 20.390625 44.140625 
Q 15.875 39.890625 15.1875 32.171875 
z
" id="DejaVuSans-65"/>
      <path d="M 41.109375 46.296875 
Q 39.59375 47.171875 37.8125 47.578125 
Q 36.03125 48 33.890625 48 
Q 26.265625 48 22.1875 43.046875 
Q 18.109375 38.09375 18.109375 28.8125 
L 18.109375 0 
L 9.078125 0 
L 9.078125 54.6875 
L 18.109375 54.6875 
L 18.109375 46.1875 
Q 20.953125 51.171875 25.484375 53.578125 
Q 30.03125 56 36.53125 56 
Q 37.453125 56 38.578125 55.875 
Q 39.703125 55.765625 41.0625 55.515625 
z
" id="DejaVuSans-72"/>
      <path id="DejaVuSans-20"/>
      <path d="M 30.609375 48.390625 
Q 23.390625 48.390625 19.1875 42.75 
Q 14.984375 37.109375 14.984375 27.296875 
Q 14.984375 17.484375 19.15625 11.84375 
Q 23.34375 6.203125 30.609375 6.203125 
Q 37.796875 6.203125 41.984375 11.859375 
Q 46.1875 17.53125 46.1875 27.296875 
Q 46.1875 37.015625 41.984375 42.703125 
Q 37.796875 48.390625 30.609375 48.390625 
z
M 30.609375 56 
Q 42.328125 56 49.015625 48.375 
Q 55.71875 40.765625 55.71875 27.296875 
Q 55.71875 13.875 49.015625 6.21875 
Q 42.328125 -1.421875 30.609375 -1.421875 
Q 18.84375 -1.421875 12.171875 6.21875 
Q 5.515625 13.875 5.515625 27.296875 
Q 5.515625 40.765625 12.171875 48.375 
Q 18.84375 56 30.609375 56 
z
" id="DejaVuSans-6f"/>
      <path d="M 37.109375 75.984375 
L 37.109375 68.5 
L 28.515625 68.5 
Q 23.6875 68.5 21.796875 66.546875 
Q 19.921875 64.59375 19.921875 59.515625 
L 19.921875 54.6875 
L 34.71875 54.6875 
L 34.71875 47.703125 
L 19.921875 47.703125 
L 19.921875 0 
L 10.890625 0 
L 10.890625 47.703125 
L 2.296875 47.703125 
L 2.296875 54.6875 
L 10.890625 54.6875 
L 10.890625 58.5 
Q 10.890625 67.625 15.140625 71.796875 
Q 19.390625 75.984375 28.609375 75.984375 
z
" id="DejaVuSans-66"/>
      <path d="M 53.515625 70.515625 
L 53.515625 60.890625 
Q 47.90625 63.578125 42.921875 64.890625 
Q 37.9375 66.21875 33.296875 66.21875 
Q 25.25 66.21875 20.875 63.09375 
Q 16.5 59.96875 16.5 54.203125 
Q 16.5 49.359375 19.40625 46.890625 
Q 22.3125 44.4375 30.421875 42.921875 
L 36.375 41.703125 
Q 47.40625 39.59375 52.65625 34.296875 
Q 57.90625 29 57.90625 20.125 
Q 57.90625 9.515625 50.796875 4.046875 
Q 43.703125 -1.421875 29.984375 -1.421875 
Q 24.8125 -1.421875 18.96875 -0.25 
Q 13.140625 0.921875 6.890625 3.21875 
L 6.890625 13.375 
Q 12.890625 10.015625 18.65625 8.296875 
Q 24.421875 6.59375 29.984375 6.59375 
Q 38.421875 6.59375 43.015625 9.90625 
Q 47.609375 13.234375 47.609375 19.390625 
Q 47.609375 24.75 44.3125 27.78125 
Q 41.015625 30.8125 33.5 32.328125 
L 27.484375 33.5 
Q 16.453125 35.6875 11.515625 40.375 
Q 6.59375 45.0625 6.59375 53.421875 
Q 6.59375 63.09375 13.40625 68.65625 
Q 20.21875 74.21875 32.171875 74.21875 
Q 37.3125 74.21875 42.625 73.28125 
Q 47.953125 72.359375 53.515625 70.515625 
z
" id="DejaVuSans-53"/>
      <path d="M 18.3125 70.21875 
L 18.3125 54.6875 
L 36.8125 54.6875 
L 36.8125 47.703125 
L 18.3125 47.703125 
L 18.3125 18.015625 
Q 18.3125 11.328125 20.140625 9.421875 
Q 21.96875 7.515625 27.59375 7.515625 
L 36.8125 7.515625 
L 36.8125 0 
L 27.59375 0 
Q 17.1875 0 13.234375 3.875 
Q 9.28125 7.765625 9.28125 18.015625 
L 9.28125 47.703125 
L 2.6875 47.703125 
L 2.6875 54.6875 
L 9.28125 54.6875 
L 9.28125 70.21875 
z
" id="DejaVuSans-74"/>
      <path d="M 34.28125 27.484375 
Q 23.390625 27.484375 19.1875 25 
Q 14.984375 22.515625 14.984375 16.5 
Q 14.984375 11.71875 18.140625 8.90625 
Q 21.296875 6.109375 26.703125 6.109375 
Q 34.1875 6.109375 38.703125 11.40625 
Q 43.21875 16.703125 43.21875 25.484375 
L 43.21875 27.484375 
z
M 52.203125 31.203125 
L 52.203125 0 
L 43.21875 0 
L 43.21875 8.296875 
Q 40.140625 3.328125 35.546875 0.953125 
Q 30.953125 -1.421875 24.3125 -1.421875 
Q 15.921875 -1.421875 10.953125 3.296875 
Q 6 8.015625 6 15.921875 
Q 6 25.140625 12.171875 29.828125 
Q 18.359375 34.515625 30.609375 34.515625 
L 43.21875 34.515625 
L 43.21875 35.40625 
Q 43.21875 41.609375 39.140625 45 
Q 35.0625 48.390625 27.6875 48.390625 
Q 23 48.390625 18.546875 47.265625 
Q 14.109375 46.140625 10.015625 43.890625 
L 10.015625 52.203125 
Q 14.9375 54.109375 19.578125 55.046875 
Q 24.21875 56 28.609375 56 
Q 40.484375 56 46.34375 49.84375 
Q 52.203125 43.703125 52.203125 31.203125 
z
" id="DejaVuSans-61"/>
      <path d="M 45.40625 46.390625 
L 45.40625 75.984375 
L 54.390625 75.984375 
L 54.390625 0 
L 45.40625 0 
L 45.40625 8.203125 
Q 42.578125 3.328125 38.25 0.953125 
Q 33.9375 -1.421875 27.875 -1.421875 
Q 17.96875 -1.421875 11.734375 6.484375 
Q 5.515625 14.40625 5.515625 27.296875 
Q 5.515625 40.1875 11.734375 48.09375 
Q 17.96875 56 27.875 56 
Q 33.9375 56 38.25 53.625 
Q 42.578125 51.265625 45.40625 46.390625 
z
M 14.796875 27.296875 
Q 14.796875 17.390625 18.875 11.75 
Q 22.953125 6.109375 30.078125 6.109375 
Q 37.203125 6.109375 41.296875 11.75 
Q 45.40625 17.390625 45.40625 27.296875 
Q 45.40625 37.203125 41.296875 42.84375 
Q 37.203125 48.484375 30.078125 48.484375 
Q 22.953125 48.484375 18.875 42.84375 
Q 14.796875 37.203125 14.796875 27.296875 
z
" id="DejaVuSans-64"/>
      <path d="M 19.671875 34.8125 
L 19.671875 8.109375 
L 35.5 8.109375 
Q 43.453125 8.109375 47.28125 11.40625 
Q 51.125 14.703125 51.125 21.484375 
Q 51.125 28.328125 47.28125 31.5625 
Q 43.453125 34.8125 35.5 34.8125 
z
M 19.671875 64.796875 
L 19.671875 42.828125 
L 34.28125 42.828125 
Q 41.5 42.828125 45.03125 45.53125 
Q 48.578125 48.25 48.578125 53.8125 
Q 48.578125 59.328125 45.03125 62.0625 
Q 41.5 64.796875 34.28125 64.796875 
z
M 9.8125 72.90625 
L 35.015625 72.90625 
Q 46.296875 72.90625 52.390625 68.21875 
Q 58.5 63.53125 58.5 54.890625 
Q 58.5 48.1875 55.375 44.234375 
Q 52.25 40.28125 46.1875 39.3125 
Q 53.46875 37.75 57.5 32.78125 
Q 61.53125 27.828125 61.53125 20.40625 
Q 61.53125 10.640625 54.890625 5.3125 
Q 48.25 0 35.984375 0 
L 9.8125 0 
z
" id="DejaVuSans-42"/>
      <path d="M 32.171875 -5.078125 
Q 28.375 -14.84375 24.75 -17.8125 
Q 21.140625 -20.796875 15.09375 -20.796875 
L 7.90625 -20.796875 
L 7.90625 -13.28125 
L 13.1875 -13.28125 
Q 16.890625 -13.28125 18.9375 -11.515625 
Q 21 -9.765625 23.484375 -3.21875 
L 25.09375 0.875 
L 2.984375 54.6875 
L 12.5 54.6875 
L 29.59375 11.921875 
L 46.6875 54.6875 
L 56.203125 54.6875 
z
" id="DejaVuSans-79"/>
      <path d="M 44.28125 53.078125 
L 44.28125 44.578125 
Q 40.484375 46.53125 36.375 47.5 
Q 32.28125 48.484375 27.875 48.484375 
Q 21.1875 48.484375 17.84375 46.4375 
Q 14.5 44.390625 14.5 40.28125 
Q 14.5 37.15625 16.890625 35.375 
Q 19.28125 33.59375 26.515625 31.984375 
L 29.59375 31.296875 
Q 39.15625 29.25 43.1875 25.515625 
Q 47.21875 21.78125 47.21875 15.09375 
Q 47.21875 7.46875 41.1875 3.015625 
Q 35.15625 -1.421875 24.609375 -1.421875 
Q 20.21875 -1.421875 15.453125 -0.5625 
Q 10.6875 0.296875 5.421875 2 
L 5.421875 11.28125 
Q 10.40625 8.6875 15.234375 7.390625 
Q 20.0625 6.109375 24.8125 6.109375 
Q 31.15625 6.109375 34.5625 8.28125 
Q 37.984375 10.453125 37.984375 14.40625 
Q 37.984375 18.0625 35.515625 20.015625 
Q 33.0625 21.96875 24.703125 23.78125 
L 21.578125 24.515625 
Q 13.234375 26.265625 9.515625 29.90625 
Q 5.8125 33.546875 5.8125 39.890625 
Q 5.8125 47.609375 11.28125 51.796875 
Q 16.75 56 26.8125 56 
Q 31.78125 56 36.171875 55.265625 
Q 40.578125 54.546875 44.28125 53.078125 
z
" id="DejaVuSans-73"/>
     </defs>
     <g transform="translate(163.332112 331.355937)scale(0.14 -0.14)">
      <use xlink:href="#DejaVuSans-4e"/>
      <use x="74.804688" xlink:href="#DejaVuSans-75"/>
      <use x="138.183594" xlink:href="#DejaVuSans-6d"/>
      <use x="235.595703" xlink:href="#DejaVuSans-62"/>
      <use x="299.072266" xlink:href="#DejaVuSans-65"/>
      <use x="360.595703" xlink:href="#DejaVuSans-72"/>
      <use x="401.708984" xlink:href="#DejaVuSans-20"/>
      <use x="433.496094" xlink:href="#DejaVuSans-6f"/>
      <use x="494.677734" xlink:href="#DejaVuSans-66"/>
      <use x="529.882812" xlink:href="#DejaVuSans-20"/>
      <use x="561.669922" xlink:href="#DejaVuSans-53"/>
      <use x="625.146484" xlink:href="#DejaVuSans-74"/>
      <use x="664.355469" xlink:href="#DejaVuSans-72"/>
      <use x="705.4375" xlink:href="#DejaVuSans-65"/>
      <use x="766.960938" xlink:href="#DejaVuSans-61"/>
      <use x="828.240234" xlink:href="#DejaVuSans-6d"/>
      <use x="925.652344" xlink:href="#DejaVuSans-65"/>
      <use x="987.175781" xlink:href="#DejaVuSans-64"/>
      <use x="1050.652344" xlink:href="#DejaVuSans-20"/>
      <use x="1082.439453" xlink:href="#DejaVuSans-42"/>
      <use x="1151.042969" xlink:href="#DejaVuSans-79"/>
      <use x="1210.222656" xlink:href="#DejaVuSans-74"/>
      <use x="1249.431641" xlink:href="#DejaVuSans-65"/>
      <use x="1310.955078" xlink:href="#DejaVuSans-73"/>
     </g>
    </g>
   </g>
   <g id="matplotlib.axis_2">
    <g id="ytick_1">
     <g id="line2d_9">
      <defs>
       <path d="M 0 0 
L -3.5 0 
" id="m73d1f986e1" style="stroke:#000000;stroke-width:0.8;"/>
      </defs>
      <g>
       <use style="stroke:#000000;stroke-width:0.8;" x="71.93" xlink:href="#m73d1f986e1" y="295.585962"/>
      </g>
     </g>
     <g id="text_10">
      <!-- 10 -->
      <g transform="translate(52.205 299.385181)scale(0.1 -0.1)">
       <use xlink:href="#DejaVuSans-31"/>
       <use x="63.623047" xlink:href="#DejaVuSans-30"/>
      </g>
     </g>
    </g>
    <g id="ytick_2">
     <g id="line2d_10">
      <g>
       <use style="stroke:#000000;stroke-width:0.8;" x="71.93" xlink:href="#m73d1f986e1" y="262.391837"/>
      </g>
     </g>
     <g id="text_11">
      <!-- 20 -->
      <g transform="translate(52.205 266.191056)scale(0.1 -0.1)">
       <use xlink:href="#DejaVuSans-32"/>
       <use x="63.623047" xlink:href="#DejaVuSans-30"/>
      </g>
     </g>
    </g>
    <g id="ytick_3">
     <g id="line2d_11">
      <g>
       <use style="stroke:#000000;stroke-width:0.8;" x="71.93" xlink:href="#m73d1f986e1" y="229.197712"/>
      </g>
     </g>
     <g id="text_12">
      <!-- 30 -->
      <defs>
       <path d="M 40.578125 39.3125 
Q 47.65625 37.796875 51.625 33 
Q 55.609375 28.21875 55.609375 21.1875 
Q 55.609375 10.40625 48.1875 4.484375 
Q 40.765625 -1.421875 27.09375 -1.421875 
Q 22.515625 -1.421875 17.65625 -0.515625 
Q 12.796875 0.390625 7.625 2.203125 
L 7.625 11.71875 
Q 11.71875 9.328125 16.59375 8.109375 
Q 21.484375 6.890625 26.8125 6.890625 
Q 36.078125 6.890625 40.9375 10.546875 
Q 45.796875 14.203125 45.796875 21.1875 
Q 45.796875 27.640625 41.28125 31.265625 
Q 36.765625 34.90625 28.71875 34.90625 
L 20.21875 34.90625 
L 20.21875 43.015625 
L 29.109375 43.015625 
Q 36.375 43.015625 40.234375 45.921875 
Q 44.09375 48.828125 44.09375 54.296875 
Q 44.09375 59.90625 40.109375 62.90625 
Q 36.140625 65.921875 28.71875 65.921875 
Q 24.65625 65.921875 20.015625 65.03125 
Q 15.375 64.15625 9.8125 62.3125 
L 9.8125 71.09375 
Q 15.4375 72.65625 20.34375 73.4375 
Q 25.25 74.21875 29.59375 74.21875 
Q 40.828125 74.21875 47.359375 69.109375 
Q 53.90625 64.015625 53.90625 55.328125 
Q 53.90625 49.265625 50.4375 45.09375 
Q 46.96875 40.921875 40.578125 39.3125 
z
" id="DejaVuSans-33"/>
      </defs>
      <g transform="translate(52.205 232.996931)scale(0.1 -0.1)">
       <use xlink:href="#DejaVuSans-33"/>
       <use x="63.623047" xlink:href="#DejaVuSans-30"/>
      </g>
     </g>
    </g>
    <g id="ytick_4">
     <g id="line2d_12">
      <g>
       <use style="stroke:#000000;stroke-width:0.8;" x="71.93" xlink:href="#m73d1f986e1" y="196.003587"/>
      </g>
     </g>
     <g id="text_13">
      <!-- 40 -->
      <defs>
       <path d="M 37.796875 64.3125 
L 12.890625 25.390625 
L 37.796875 25.390625 
z
M 35.203125 72.90625 
L 47.609375 72.90625 
L 47.609375 25.390625 
L 58.015625 25.390625 
L 58.015625 17.1875 
L 47.609375 17.1875 
L 47.609375 0 
L 37.796875 0 
L 37.796875 17.1875 
L 4.890625 17.1875 
L 4.890625 26.703125 
z
" id="DejaVuSans-34"/>
      </defs>
      <g transform="translate(52.205 199.802805)scale(0.1 -0.1)">
       <use xlink:href="#DejaVuSans-34"/>
       <use x="63.623047" xlink:href="#DejaVuSans-30"/>
      </g>
     </g>
    </g>
    <g id="ytick_5">
     <g id="line2d_13">
      <g>
       <use style="stroke:#000000;stroke-width:0.8;" x="71.93" xlink:href="#m73d1f986e1" y="162.809461"/>
      </g>
     </g>
     <g id="text_14">
      <!-- 50 -->
      <g transform="translate(52.205 166.60868)scale(0.1 -0.1)">
       <use xlink:href="#DejaVuSans-35"/>
       <use x="63.623047" xlink:href="#DejaVuSans-30"/>
      </g>
     </g>
    </g>
    <g id="ytick_6">
     <g id="line2d_14">
      <g>
       <use style="stroke:#000000;stroke-width:0.8;" x="71.93" xlink:href="#m73d1f986e1" y="129.615336"/>
      </g>
     </g>
     <g id="text_15">
      <!-- 60 -->
      <defs>
       <path d="M 33.015625 40.375 
Q 26.375 40.375 22.484375 35.828125 
Q 18.609375 31.296875 18.609375 23.390625 
Q 18.609375 15.53125 22.484375 10.953125 
Q 26.375 6.390625 33.015625 6.390625 
Q 39.65625 6.390625 43.53125 10.953125 
Q 47.40625 15.53125 47.40625 23.390625 
Q 47.40625 31.296875 43.53125 35.828125 
Q 39.65625 40.375 33.015625 40.375 
z
M 52.59375 71.296875 
L 52.59375 62.3125 
Q 48.875 64.0625 45.09375 64.984375 
Q 41.3125 65.921875 37.59375 65.921875 
Q 27.828125 65.921875 22.671875 59.328125 
Q 17.53125 52.734375 16.796875 39.40625 
Q 19.671875 43.65625 24.015625 45.921875 
Q 28.375 48.1875 33.59375 48.1875 
Q 44.578125 48.1875 50.953125 41.515625 
Q 57.328125 34.859375 57.328125 23.390625 
Q 57.328125 12.15625 50.6875 5.359375 
Q 44.046875 -1.421875 33.015625 -1.421875 
Q 20.359375 -1.421875 13.671875 8.265625 
Q 6.984375 17.96875 6.984375 36.375 
Q 6.984375 53.65625 15.1875 63.9375 
Q 23.390625 74.21875 37.203125 74.21875 
Q 40.921875 74.21875 44.703125 73.484375 
Q 48.484375 72.75 52.59375 71.296875 
z
" id="DejaVuSans-36"/>
      </defs>
      <g transform="translate(52.205 133.414555)scale(0.1 -0.1)">
       <use xlink:href="#DejaVuSans-36"/>
       <use x="63.623047" xlink:href="#DejaVuSans-30"/>
      </g>
     </g>
    </g>
    <g id="ytick_7">
     <g id="line2d_15">
      <g>
       <use style="stroke:#000000;stroke-width:0.8;" x="71.93" xlink:href="#m73d1f986e1" y="96.421211"/>
      </g>
     </g>
     <g id="text_16">
      <!-- 70 -->
      <g transform="translate(52.205 100.220429)scale(0.1 -0.1)">
       <use xlink:href="#DejaVuSans-37"/>
       <use x="63.623047" xlink:href="#DejaVuSans-30"/>
      </g>
     </g>
    </g>
    <g id="ytick_8">
     <g id="line2d_16">
      <g>
       <use style="stroke:#000000;stroke-width:0.8;" x="71.93" xlink:href="#m73d1f986e1" y="63.227085"/>
      </g>
     </g>
     <g id="text_17">
      <!-- 80 -->
      <defs>
       <path d="M 31.78125 34.625 
Q 24.75 34.625 20.71875 30.859375 
Q 16.703125 27.09375 16.703125 20.515625 
Q 16.703125 13.921875 20.71875 10.15625 
Q 24.75 6.390625 31.78125 6.390625 
Q 38.8125 6.390625 42.859375 10.171875 
Q 46.921875 13.96875 46.921875 20.515625 
Q 46.921875 27.09375 42.890625 30.859375 
Q 38.875 34.625 31.78125 34.625 
z
M 21.921875 38.8125 
Q 15.578125 40.375 12.03125 44.71875 
Q 8.5 49.078125 8.5 55.328125 
Q 8.5 64.0625 14.71875 69.140625 
Q 20.953125 74.21875 31.78125 74.21875 
Q 42.671875 74.21875 48.875 69.140625 
Q 55.078125 64.0625 55.078125 55.328125 
Q 55.078125 49.078125 51.53125 44.71875 
Q 48 40.375 41.703125 38.8125 
Q 48.828125 37.15625 52.796875 32.3125 
Q 56.78125 27.484375 56.78125 20.515625 
Q 56.78125 9.90625 50.3125 4.234375 
Q 43.84375 -1.421875 31.78125 -1.421875 
Q 19.734375 -1.421875 13.25 4.234375 
Q 6.78125 9.90625 6.78125 20.515625 
Q 6.78125 27.484375 10.78125 32.3125 
Q 14.796875 37.15625 21.921875 38.8125 
z
M 18.3125 54.390625 
Q 18.3125 48.734375 21.84375 45.5625 
Q 25.390625 42.390625 31.78125 42.390625 
Q 38.140625 42.390625 41.71875 45.5625 
Q 45.3125 48.734375 45.3125 54.390625 
Q 45.3125 60.0625 41.71875 63.234375 
Q 38.140625 66.40625 31.78125 66.40625 
Q 25.390625 66.40625 21.84375 63.234375 
Q 18.3125 60.0625 18.3125 54.390625 
z
" id="DejaVuSans-38"/>
      </defs>
      <g transform="translate(52.205 67.026304)scale(0.1 -0.1)">
       <use xlink:href="#DejaVuSans-38"/>
       <use x="63.623047" xlink:href="#DejaVuSans-30"/>
      </g>
     </g>
    </g>
    <g id="ytick_9">
     <g id="line2d_17">
      <g>
       <use style="stroke:#000000;stroke-width:0.8;" x="71.93" xlink:href="#m73d1f986e1" y="30.03296"/>
      </g>
     </g>
     <g id="text_18">
      <!-- 90 -->
      <defs>
       <path d="M 10.984375 1.515625 
L 10.984375 10.5 
Q 14.703125 8.734375 18.5 7.8125 
Q 22.3125 6.890625 25.984375 6.890625 
Q 35.75 6.890625 40.890625 13.453125 
Q 46.046875 20.015625 46.78125 33.40625 
Q 43.953125 29.203125 39.59375 26.953125 
Q 35.25 24.703125 29.984375 24.703125 
Q 19.046875 24.703125 12.671875 31.3125 
Q 6.296875 37.9375 6.296875 49.421875 
Q 6.296875 60.640625 12.9375 67.421875 
Q 19.578125 74.21875 30.609375 74.21875 
Q 43.265625 74.21875 49.921875 64.515625 
Q 56.59375 54.828125 56.59375 36.375 
Q 56.59375 19.140625 48.40625 8.859375 
Q 40.234375 -1.421875 26.421875 -1.421875 
Q 22.703125 -1.421875 18.890625 -0.6875 
Q 15.09375 0.046875 10.984375 1.515625 
z
M 30.609375 32.421875 
Q 37.25 32.421875 41.125 36.953125 
Q 45.015625 41.5 45.015625 49.421875 
Q 45.015625 57.28125 41.125 61.84375 
Q 37.25 66.40625 30.609375 66.40625 
Q 23.96875 66.40625 20.09375 61.84375 
Q 16.21875 57.28125 16.21875 49.421875 
Q 16.21875 41.5 20.09375 36.953125 
Q 23.96875 32.421875 30.609375 32.421875 
z
" id="DejaVuSans-39"/>
      </defs>
      <g transform="translate(52.205 33.832179)scale(0.1 -0.1)">
       <use xlink:href="#DejaVuSans-39"/>
       <use x="63.623047" xlink:href="#DejaVuSans-30"/>
      </g>
     </g>
    </g>
    <g id="text_19">
     <!-- PSNR -->
     <defs>
      <path d="M 19.671875 64.796875 
L 19.671875 37.40625 
L 32.078125 37.40625 
Q 38.96875 37.40625 42.71875 40.96875 
Q 46.484375 44.53125 46.484375 51.125 
Q 46.484375 57.671875 42.71875 61.234375 
Q 38.96875 64.796875 32.078125 64.796875 
z
M 9.8125 72.90625 
L 32.078125 72.90625 
Q 44.34375 72.90625 50.609375 67.359375 
Q 56.890625 61.8125 56.890625 51.125 
Q 56.890625 40.328125 50.609375 34.8125 
Q 44.34375 29.296875 32.078125 29.296875 
L 19.671875 29.296875 
L 19.671875 0 
L 9.8125 0 
z
" id="DejaVuSans-50"/>
      <path d="M 44.390625 34.1875 
Q 47.5625 33.109375 50.5625 29.59375 
Q 53.5625 26.078125 56.59375 19.921875 
L 66.609375 0 
L 56 0 
L 46.6875 18.703125 
Q 43.0625 26.03125 39.671875 28.421875 
Q 36.28125 30.8125 30.421875 30.8125 
L 19.671875 30.8125 
L 19.671875 0 
L 9.8125 0 
L 9.8125 72.90625 
L 32.078125 72.90625 
Q 44.578125 72.90625 50.734375 67.671875 
Q 56.890625 62.453125 56.890625 51.90625 
Q 56.890625 45.015625 53.6875 40.46875 
Q 50.484375 35.9375 44.390625 34.1875 
z
M 19.671875 64.796875 
L 19.671875 38.921875 
L 32.078125 38.921875 
Q 39.203125 38.921875 42.84375 42.21875 
Q 46.484375 45.515625 46.484375 51.90625 
Q 46.484375 58.296875 42.84375 61.546875 
Q 39.203125 64.796875 32.078125 64.796875 
z
" id="DejaVuSans-52"/>
     </defs>
     <g transform="translate(10.674063 153.768437)scale(0.14 -0.14)">
      <use xlink:href="#DejaVuSans-50"/>
      <use x="60.302734" xlink:href="#DejaVuSans-53"/>
      <use x="123.779297" xlink:href="#DejaVuSans-4e"/>
      <use x="198.583984" xlink:href="#DejaVuSans-52"/>
     </g>
    </g>
   </g>
   <g id="line2d_18">
    <path clip-path="url(#p85945ac850)" d="M 88.913416 287.007273 
L 89.052227 286.69558 
L 89.191036 285.820251 
L 89.607468 282.145661 
L 90.023897 282.145661 
L 90.440327 269.135556 
L 90.856765 269.165762 
L 90.995566 268.281471 
L 91.41199 257.860839 
L 94.188194 257.767564 
L 94.465816 257.25903 
L 94.604638 256.885264 
L 94.743439 255.603639 
L 95.159862 249.427208 
L 107.791593 249.427208 
L 108.069216 248.278691 
L 108.346838 246.36339 
L 108.763262 239.69801 
L 112.649856 239.623655 
L 112.927498 239.557266 
L 122.783105 239.557266 
L 123.060747 237.07501 
L 123.477111 231.458232 
L 128.335553 231.458232 
L 128.474274 231.185708 
L 128.751917 229.159207 
L 130.972856 229.049334 
L 131.944505 228.909587 
L 132.361069 228.906931 
L 132.916153 227.814845 
L 142.77176 227.814845 
L 143.049402 225.905187 
L 143.465766 221.660986 
L 148.324208 221.660986 
L 148.46293 221.520243 
L 148.740572 220.333885 
L 150.128584 220.270152 
L 150.545148 219.992317 
L 152.488445 217.717192 
L 152.904809 215.638244 
L 162.760415 215.641563 
L 163.038057 214.293882 
L 163.454421 212.053278 
L 168.451585 211.996184 
L 168.729227 211.464414 
L 169.978518 211.464414 
L 171.227809 209.397416 
L 172.199458 207.155153 
L 172.4771 206.222066 
L 172.893464 203.661471 
L 182.74907 203.661803 
L 183.581998 201.691732 
L 188.44024 201.654222 
L 188.717883 201.392321 
L 189.967174 201.399292 
L 190.800101 199.43951 
L 191.771749 196.083916 
L 192.327034 193.805472 
L 192.882119 190.860489 
L 195.24198 190.779827 
L 197.185277 190.703812 
L 198.989853 190.720741 
L 199.267495 190.658005 
L 202.598804 190.577011 
L 203.154089 189.407582 
L 203.431732 188.859547 
L 208.567817 188.762288 
L 208.845259 188.656067 
L 209.955829 188.587355 
L 210.927477 186.394883 
L 212.176768 182.668179 
L 212.870774 180.57031 
L 214.397708 180.529481 
L 214.952993 180.505581 
L 216.479926 180.324009 
L 218.700866 179.976135 
L 218.978508 179.924352 
L 219.25615 179.803526 
L 219.811435 179.78029 
L 220.36652 179.696972 
L 220.783084 179.624609 
L 221.47709 179.566188 
L 222.58746 179.470589 
L 223.559308 178.519577 
L 228.833914 178.411364 
L 229.805763 178.231452 
L 230.083205 178.01735 
L 230.916133 176.923271 
L 232.85943 174.075215 
L 233.553636 173.869412 
L 234.247642 173.644688 
L 235.21929 173.139805 
L 236.468581 172.576833 
L 237.023866 172.244891 
L 238.828242 171.156788 
L 239.383527 170.575891 
L 240.216454 170.108517 
L 241.326824 169.324804 
L 241.743387 168.958341 
L 242.853757 167.919365 
L 243.547963 167.59705 
L 248.82257 167.493816 
L 249.794418 167.036069 
L 251.598794 165.713947 
L 253.125727 164.546842 
L 254.236297 163.809268 
L 255.485588 162.745397 
L 257.428885 160.811175 
L 258.816897 158.99778 
L 259.372182 158.029507 
L 260.066188 157.032024 
L 261.732043 154.404045 
L 262.842413 152.172072 
L 263.67534 151.960625 
L 268.672504 151.934402 
L 270.477079 150.365316 
L 272.698019 149.031244 
L 275.474243 146.420526 
L 277.001177 144.619081 
L 279.499758 140.968059 
L 280.332486 139.567267 
L 281.026692 138.330453 
L 281.859419 136.592741 
L 282.831068 134.414211 
L 283.663995 134.206415 
L 288.661159 134.158284 
L 289.216843 133.381541 
L 290.048372 132.150039 
L 292.824796 130.656304 
L 294.351929 129.213355 
L 297.128353 126.027715 
L 299.211171 122.855684 
L 301.29199 119.041347 
L 302.819123 115.533392 
L 303.65265 115.370077 
L 308.649814 115.36543 
L 309.761183 113.192874 
L 310.037027 112.80915 
L 312.813451 111.316078 
L 314.618427 109.593635 
L 317.810615 105.908424 
L 321.280645 100.448654 
L 322.947699 97.267329 
L 323.641306 97.11364 
L 327.5271 96.967918 
L 327.944863 96.898542 
L 328.638469 96.777384 
L 330.165603 94.365166 
L 333.079949 92.963047 
L 335.440609 90.789827 
L 338.077112 87.887665 
L 339.326403 86.249203 
L 340.853537 83.891424 
L 342.936354 80.591596 
L 344.74133 80.103311 
L 345.295016 79.917755 
L 345.712779 79.807883 
L 348.349282 78.706834 
L 349.876416 76.531955 
L 352.374997 75.489991 
L 355.429264 73.270964 
L 357.927846 71.147536 
L 360.286507 68.841872 
L 362.647167 66.267003 
L 363.202852 66.044271 
L 363.896458 65.520467 
L 364.312222 65.192841 
L 365.283671 64.371951 
L 365.561513 64.163823 
L 368.060095 61.278258 
L 369.587228 59.662036 
L 372.225731 58.927782 
L 376.805132 55.754424 
L 379.025871 53.926755 
L 384.994484 47.93422 
L 386.243775 46.228706 
L 387.077302 44.95206 
L 388.604435 43.565873 
L 391.240939 42.757596 
L 394.435126 41.564931 
L 401.375187 38.489827 
L 403.180162 36.771699 
L 405.400902 34.319981 
L 406.23243 33.379924 
L 407.481721 32.786413 
L 412.618805 31.197742 
L 418.171654 29.228002 
L 423.584582 27.177601 
L 428.581746 26.352727 
L 428.581746 26.352727 
" style="fill:none;stroke:#1f77b4;stroke-linecap:square;stroke-width:1.5;"/>
   </g>
   <g id="line2d_19">
    <path clip-path="url(#p85945ac850)" d="M 88.913416 285.725648 
L 89.329847 280.847107 
L 89.746277 271.260312 
L 90.023897 257.801422 
L 90.440327 251.323256 
L 90.717947 249.556665 
L 90.856765 249.270199 
L 92.244857 242.712036 
L 92.661281 239.285075 
L 93.216525 234.827435 
L 93.910571 230.675846 
L 94.188194 228.657311 
L 94.327015 228.577978 
L 95.021061 223.610145 
L 95.298684 222.675066 
L 95.853928 221.630779 
L 96.131551 221.021667 
L 96.409153 220.836776 
L 96.825597 220.0441 
L 96.964398 219.992317 
L 97.380842 218.95666 
L 97.519643 218.851767 
L 97.797266 218.328296 
L 98.491312 215.175186 
L 99.46298 213.306356 
L 100.157026 212.684962 
L 100.712271 212.206967 
L 100.851092 212.194353 
L 101.128715 211.739262 
L 101.406317 211.64665 
L 101.545138 211.106582 
L 101.68394 211.106582 
L 103.904899 209.337999 
L 104.460144 209.053857 
L 104.598965 208.737185 
L 104.737766 208.737185 
L 105.015389 208.506486 
L 105.709435 208.061353 
L 105.848256 207.841275 
L 106.125879 207.771236 
L 106.681103 207.42303 
L 106.819925 207.42303 
L 107.097547 207.211915 
L 107.37517 207.197309 
L 108.485639 205.730129 
L 108.763262 205.530964 
L 109.179625 204.497963 
L 109.318547 204.432571 
L 109.457268 204.186934 
L 109.596189 204.197556 
L 109.873831 203.556246 
L 110.012553 203.547615 
L 110.290195 202.991614 
L 111.123122 200.406455 
L 111.261844 200.415086 
L 111.539486 199.793028 
L 111.678207 199.677512 
L 111.817128 199.158024 
L 111.95585 199.158024 
L 112.233492 198.64949 
L 112.927498 197.833911 
L 113.205141 197.231769 
L 113.760425 196.21105 
L 113.899147 196.216693 
L 114.31571 195.507666 
L 114.593353 194.667191 
L 114.732074 194.667191 
L 114.870995 194.328279 
L 115.148438 194.288446 
L 115.42608 193.013128 
L 115.565001 192.951387 
L 115.842644 192.320034 
L 116.259007 192.138795 
L 116.53665 192.103941 
L 116.953014 191.593415 
L 117.230656 191.479891 
L 117.64702 191.214338 
L 117.785941 191.22496 
L 117.924662 191.028451 
L 118.063583 191.052351 
L 118.202304 190.867791 
L 118.341226 190.869451 
L 118.896311 189.665168 
L 119.312874 188.766603 
L 119.451595 188.766603 
L 119.729238 188.273339 
L 119.868159 188.248111 
L 120.562165 186.567493 
L 120.839808 185.91224 
L 120.978529 185.91224 
L 121.256171 185.348604 
L 121.950177 183.714126 
L 122.089098 183.690226 
L 122.22782 183.480107 
L 122.366741 183.500023 
L 122.505462 183.185675 
L 122.644183 183.185675 
L 122.783105 183.047587 
L 122.921826 182.609757 
L 123.060747 182.609757 
L 123.338389 182.167943 
L 123.477111 182.177569 
L 123.616032 181.94853 
L 123.754753 181.94853 
L 123.893474 181.759655 
L 124.171117 181.06623 
L 124.310038 181.079508 
L 124.448759 180.861422 
L 124.58768 180.853788 
L 124.726402 180.632383 
L 126.114614 180.546078 
L 126.669699 180.465416 
L 127.641347 180.331312 
L 128.751917 180.169325 
L 129.029559 180.012981 
L 130.417572 179.8812 
L 130.695214 179.717553 
L 136.802947 178.844879 
L 137.08059 178.732351 
L 137.635675 178.679241 
L 138.468602 178.584969 
L 139.301529 178.33203 
L 139.856814 178.314105 
L 140.134257 178.098343 
L 140.55082 178.052535 
L 140.828463 177.921751 
L 141.244826 177.749473 
L 142.216475 177.446411 
L 142.494117 177.183181 
L 144.021051 177.055384 
L 144.298693 176.739708 
L 144.715057 176.657386 
L 144.992699 176.383535 
L 145.547984 175.793011 
L 146.519633 175.658575 
L 146.797275 175.423561 
L 147.074918 175.326634 
L 147.491281 175.258918 
L 147.630002 175.252611 
L 147.907645 175.041164 
L 148.324208 175.019588 
L 148.740572 174.87619 
L 149.851142 174.407489 
L 150.267506 173.820616 
L 150.82279 173.728669 
L 151.100433 173.624107 
L 151.655518 173.437556 
L 151.794439 173.442203 
L 152.210803 173.067774 
L 152.627166 173.04487 
L 152.904809 172.926367 
L 154.1541 172.613346 
L 154.293021 172.38663 
L 155.403391 172.298334 
L 155.681033 172.028798 
L 156.236318 171.941497 
L 156.51396 171.542836 
L 157.207966 171.450224 
L 157.763251 171.276951 
L 158.040894 171.180356 
L 159.012542 170.878621 
L 159.290185 170.852398 
L 159.706548 170.466018 
L 160.122912 170.405273 
L 161.372203 170.188847 
L 162.20513 170.166607 
L 162.482773 170.062378 
L 163.3157 169.860557 
L 164.287348 169.787198 
L 164.564991 169.640148 
L 165.397718 169.486128 
L 167.341215 169.247794 
L 167.618658 169.176094 
L 168.590506 169.022738 
L 168.867949 168.928798 
L 171.921815 168.428895 
L 172.199458 168.312051 
L 173.032385 168.118862 
L 173.310028 167.880528 
L 173.58767 167.819782 
L 173.865112 167.625265 
L 174.420397 167.455975 
L 175.253325 167.330501 
L 180.38921 166.255343 
L 180.805773 165.85635 
L 181.360858 165.804235 
L 181.638501 165.662496 
L 182.74907 165.567893 
L 183.165434 165.417856 
L 183.443076 165.2323 
L 183.85944 165.145996 
L 184.137083 165.038779 
L 184.97001 164.802768 
L 185.247652 164.657046 
L 186.358022 164.49871 
L 186.774586 164.379875 
L 187.468592 164.334731 
L 188.023877 164.138886 
L 188.856604 164.073825 
L 189.411889 163.927771 
L 189.828452 163.904535 
L 190.383537 163.790016 
L 190.800101 163.782713 
L 191.077743 163.595498 
L 192.604477 163.252271 
L 192.882119 162.993689 
L 193.715046 162.897094 
L 193.992689 162.785561 
L 195.519622 162.453952 
L 195.797265 162.312545 
L 196.213628 162.188731 
L 196.491271 161.9816 
L 196.768913 161.864756 
L 197.601641 161.671567 
L 198.018204 161.265934 
L 198.295847 161.226433 
L 198.573489 161.070421 
L 198.850932 160.987436 
L 199.545138 160.947271 
L 199.82278 160.806528 
L 199.961501 160.825116 
L 200.239144 160.566866 
L 200.516786 160.547945 
L 200.794428 160.436081 
L 201.349513 160.100489 
L 202.182441 159.204247 
L 202.598804 159.162423 
L 203.154089 158.884588 
L 203.709374 158.613724 
L 204.40338 158.430824 
L 204.958665 157.900382 
L 205.236307 157.803455 
L 205.51395 157.671011 
L 205.652671 157.629186 
L 206.207956 157.094429 
L 206.62432 157.097416 
L 207.457247 156.481333 
L 208.012532 156.409302 
L 208.290174 156.337603 
L 208.428895 156.342914 
L 208.706538 156.201175 
L 209.122902 156.01064 
L 209.539465 155.99172 
L 209.817108 155.734133 
L 209.955829 155.744092 
L 210.233471 155.624593 
L 210.649835 155.534637 
L 212.593132 154.936147 
L 213.148417 154.721049 
L 213.426059 154.624786 
L 214.120065 153.998745 
L 214.397708 153.897834 
L 214.814271 153.722569 
L 215.091714 153.58415 
L 215.646999 153.513778 
L 216.89629 153.160593 
L 217.312853 152.891057 
L 217.451575 152.914292 
L 217.729217 152.694547 
L 218.423223 152.591646 
L 218.978508 152.50866 
L 219.394872 152.222859 
L 220.36652 151.602461 
L 220.783084 151.318319 
L 220.921805 151.32529 
L 221.338169 150.917334 
L 222.310017 150.604977 
L 222.726381 150.111712 
L 223.281666 150.021424 
L 223.559308 149.878026 
L 223.698029 149.884665 
L 224.808599 148.773657 
L 225.086042 148.717227 
L 225.363684 148.516403 
L 225.502605 148.506445 
L 226.612975 147.51726 
L 226.751896 147.538504 
L 227.307181 146.981506 
L 227.584623 146.878937 
L 228.417551 146.030827 
L 228.556472 146.030827 
L 229.52812 145.1628 
L 230.083205 144.894592 
L 230.777411 144.242659 
L 231.193775 143.873872 
L 231.610139 143.824745 
L 232.165424 143.510065 
L 232.443066 143.276378 
L 232.998351 142.769504 
L 233.137072 142.774483 
L 235.635654 139.861367 
L 235.774575 139.861367 
L 236.468581 138.997323 
L 237.578951 137.679517 
L 237.717872 137.679517 
L 238.134236 137.41496 
L 238.550799 137.325999 
L 239.522448 136.109103 
L 239.80009 136.096821 
L 240.771739 135.088383 
L 241.188103 134.870962 
L 241.465745 134.636611 
L 241.604466 134.652876 
L 242.02103 134.096211 
L 242.298672 133.993309 
L 242.992678 133.058894 
L 243.686685 132.861389 
L 244.103048 132.282152 
L 248.267485 127.71464 
L 250.904788 124.399211 
L 253.264648 121.05092 
L 259.09454 112.958192 
L 263.120055 108.866352 
L 264.646988 107.209301 
L 264.924631 107.152539 
L 267.14557 104.384481 
L 269.088867 101.946373 
L 269.227788 101.958323 
L 269.921795 101.050131 
L 273.392025 96.503864 
L 273.669667 96.404282 
L 274.363674 95.5336 
L 275.05768 95.387877 
L 275.612964 95.362982 
L 275.890607 95.063239 
L 277.278819 95.005149 
L 277.556262 94.8976 
L 278.250468 94.795694 
L 278.52811 94.568978 
L 278.805552 94.577609 
L 279.083195 94.392054 
L 279.360837 94.381764 
L 280.749049 93.237562 
L 281.026692 93.21333 
L 281.304134 93.019477 
L 281.581777 93.016821 
L 282.137062 92.524884 
L 282.553425 92.42165 
L 284.358001 90.7407 
L 284.635644 90.701531 
L 286.440219 88.969129 
L 286.717862 88.891787 
L 289.076923 86.104808 
L 289.354765 85.931203 
L 289.632607 85.825646 
L 289.91045 85.5186 
L 290.188292 85.5186 
L 291.297662 84.296724 
L 291.575505 84.25158 
L 291.853347 83.998641 
L 292.546953 84.001961 
L 292.964716 83.688276 
L 294.074087 83.593673 
L 294.351929 83.510024 
L 294.629771 83.413097 
L 295.045535 83.357663 
L 295.323378 83.277333 
L 295.463298 83.286295 
L 296.018983 82.702411 
L 296.294826 82.550049 
L 296.572669 82.536108 
L 296.990431 82.237361 
L 297.268274 82.205826 
L 297.544117 82.088651 
L 298.239722 82.005666 
L 298.793408 81.82343 
L 299.349093 81.356721 
L 299.626935 81.311909 
L 300.18262 80.781798 
L 300.598384 80.360233 
L 301.016147 80.291521 
L 301.29199 80.056507 
L 301.709753 79.970202 
L 301.987595 79.891864 
L 302.265438 79.799584 
L 302.541281 79.685065 
L 302.681202 79.685065 
L 302.959044 79.569881 
L 303.236886 79.548637 
L 303.65265 79.237276 
L 304.346257 79.157942 
L 304.901941 78.920604 
L 305.457626 78.881435 
L 306.01331 78.389498 
L 306.844839 78.316139 
L 307.538445 77.718976 
L 310.732632 77.617402 
L 311.286318 77.52811 
L 312.953372 77.471016 
L 313.509056 77.338572 
L 314.758347 77.316332 
L 315.174111 77.119823 
L 316.283482 77.103225 
L 316.561324 77.002647 
L 318.228378 76.901405 
L 318.782063 76.58938 
L 319.893433 76.534278 
L 320.171275 76.457268 
L 320.449117 76.409468 
L 322.114172 75.270578 
L 322.529936 75.194895 
L 325.724123 72.993461 
L 326.973414 72.845415 
L 327.251257 72.754795 
L 328.638469 71.694243 
L 329.054233 71.613249 
L 329.609918 71.221226 
L 330.025682 71.141561 
L 330.303524 71.049613 
L 330.581367 71.036335 
L 330.859209 70.913517 
L 331.137051 70.909202 
L 331.830658 70.417929 
L 332.1085 70.39934 
L 332.386342 70.247643 
L 332.802106 70.166317 
L 334.191318 69.014149 
L 334.46916 69.026763 
L 334.747002 68.831913 
L 335.57853 68.767517 
L 337.245584 67.332203 
L 337.521428 67.284735 
L 337.79927 67.077604 
L 338.217033 67.020842 
L 338.494875 66.951466 
L 338.770719 66.87346 
L 339.048561 66.803752 
L 339.744166 66.708153 
L 340.02001 66.580356 
L 340.853537 66.523594 
L 341.269301 66.204598 
L 341.547143 66.20825 
L 341.964906 65.841123 
L 342.38067 65.793655 
L 342.658512 65.691417 
L 342.936354 65.660215 
L 343.352118 65.395989 
L 343.629961 65.401964 
L 343.907803 65.247944 
L 344.74133 65.165954 
L 345.434936 64.630201 
L 345.8507 64.522652 
L 346.128543 64.379585 
L 346.406385 64.391203 
L 347.099991 63.827235 
L 347.933518 63.760847 
L 348.349282 63.441187 
L 348.765046 63.343597 
L 349.738494 62.454658 
L 350.014337 62.449015 
L 350.29218 62.238232 
L 351.125706 62.166201 
L 351.403549 62.006205 
L 351.819313 61.901644 
L 352.097155 61.684886 
L 352.512919 61.631776 
L 352.790761 61.528542 
L 353.486367 61.444561 
L 353.76221 61.284897 
L 354.040052 61.154112 
L 354.873579 61.072123 
L 355.151422 60.944325 
L 355.429264 60.940342 
L 355.707106 60.802586 
L 356.538634 60.70068 
L 356.956397 60.639935 
L 357.372161 60.599106 
L 357.510083 60.601098 
L 357.787925 60.48857 
L 358.621452 60.385336 
L 359.454979 60.296044 
L 360.008665 60.267497 
L 360.286507 60.142023 
L 360.70427 60.079286 
L 361.120034 59.973729 
L 361.81364 59.886097 
L 362.507247 59.692907 
L 363.756538 59.17541 
L 367.782253 56.28221 
L 368.200016 56.174993 
L 368.893622 55.687704 
L 369.309386 55.657497 
L 370.280835 55.015854 
L 370.698598 54.910297 
L 372.08581 53.830824 
L 372.501574 53.754478 
L 375.140077 51.380434 
L 377.776581 48.941993 
L 378.194343 48.853365 
L 378.610107 48.549971 
L 379.025871 48.48657 
L 379.859398 47.823351 
L 380.275162 47.728084 
L 380.553005 47.571076 
L 380.970768 47.495725 
L 381.942216 46.711016 
L 382.35798 46.632678 
L 382.773744 46.302729 
L 383.329429 46.201486 
L 383.885114 45.852616 
L 384.300878 45.785564 
L 385.412247 44.997204 
L 385.828011 44.94874 
L 391.936544 40.745368 
L 392.352308 40.678648 
L 394.017363 39.67353 
L 407.343799 32.80998 
L 410.675908 31.579806 
L 421.641684 27.678833 
L 423.722503 27.149054 
L 428.443824 26.369656 
L 428.581746 26.352727 
L 428.581746 26.352727 
" style="fill:none;stroke:#ff7f0e;stroke-linecap:square;stroke-width:1.5;"/>
   </g>
   <g id="patch_3">
    <path d="M 71.93 300.04 
L 71.93 13.32 
" style="fill:none;stroke:#000000;stroke-linecap:square;stroke-linejoin:miter;stroke-width:0.8;"/>
   </g>
   <g id="patch_4">
    <path d="M 71.93 300.04 
L 445.565162 300.04 
" style="fill:none;stroke:#000000;stroke-linecap:square;stroke-linejoin:miter;stroke-width:0.8;"/>
   </g>
   <g id="legend_1">
    <g id="patch_5">
     <path d="M 299.093287 295.04 
L 438.565162 295.04 
Q 440.565162 295.04 440.565162 293.04 
L 440.565162 264.68375 
Q 440.565162 262.68375 438.565162 262.68375 
L 299.093287 262.68375 
Q 297.093287 262.68375 297.093287 264.68375 
L 297.093287 293.04 
Q 297.093287 295.04 299.093287 295.04 
z
" style="fill:#ffffff;opacity:0.8;stroke:#cccccc;stroke-linejoin:miter;"/>
    </g>
    <g id="line2d_20">
     <path d="M 301.093287 270.782187 
L 321.093287 270.782187 
" style="fill:none;stroke:#1f77b4;stroke-linecap:square;stroke-width:1.5;"/>
    </g>
    <g id="line2d_21"/>
    <g id="text_20">
     <!-- by wavelet norm -->
     <defs>
      <path d="M 4.203125 54.6875 
L 13.1875 54.6875 
L 24.421875 12.015625 
L 35.59375 54.6875 
L 46.1875 54.6875 
L 57.421875 12.015625 
L 68.609375 54.6875 
L 77.59375 54.6875 
L 63.28125 0 
L 52.6875 0 
L 40.921875 44.828125 
L 29.109375 0 
L 18.5 0 
z
" id="DejaVuSans-77"/>
      <path d="M 2.984375 54.6875 
L 12.5 54.6875 
L 29.59375 8.796875 
L 46.6875 54.6875 
L 56.203125 54.6875 
L 35.6875 0 
L 23.484375 0 
z
" id="DejaVuSans-76"/>
      <path d="M 9.421875 75.984375 
L 18.40625 75.984375 
L 18.40625 0 
L 9.421875 0 
z
" id="DejaVuSans-6c"/>
      <path d="M 54.890625 33.015625 
L 54.890625 0 
L 45.90625 0 
L 45.90625 32.71875 
Q 45.90625 40.484375 42.875 44.328125 
Q 39.84375 48.1875 33.796875 48.1875 
Q 26.515625 48.1875 22.3125 43.546875 
Q 18.109375 38.921875 18.109375 30.90625 
L 18.109375 0 
L 9.078125 0 
L 9.078125 54.6875 
L 18.109375 54.6875 
L 18.109375 46.1875 
Q 21.34375 51.125 25.703125 53.5625 
Q 30.078125 56 35.796875 56 
Q 45.21875 56 50.046875 50.171875 
Q 54.890625 44.34375 54.890625 33.015625 
z
" id="DejaVuSans-6e"/>
     </defs>
     <g transform="translate(329.093287 274.282187)scale(0.1 -0.1)">
      <use xlink:href="#DejaVuSans-62"/>
      <use x="63.476562" xlink:href="#DejaVuSans-79"/>
      <use x="122.65625" xlink:href="#DejaVuSans-20"/>
      <use x="154.443359" xlink:href="#DejaVuSans-77"/>
      <use x="236.230469" xlink:href="#DejaVuSans-61"/>
      <use x="297.509766" xlink:href="#DejaVuSans-76"/>
      <use x="356.689453" xlink:href="#DejaVuSans-65"/>
      <use x="418.212891" xlink:href="#DejaVuSans-6c"/>
      <use x="445.996094" xlink:href="#DejaVuSans-65"/>
      <use x="507.519531" xlink:href="#DejaVuSans-74"/>
      <use x="546.728516" xlink:href="#DejaVuSans-20"/>
      <use x="578.515625" xlink:href="#DejaVuSans-6e"/>
      <use x="641.894531" xlink:href="#DejaVuSans-6f"/>
      <use x="703.076172" xlink:href="#DejaVuSans-72"/>
      <use x="744.173828" xlink:href="#DejaVuSans-6d"/>
     </g>
    </g>
    <g id="line2d_22">
     <path d="M 301.093287 285.460312 
L 321.093287 285.460312 
" style="fill:none;stroke:#ff7f0e;stroke-linecap:square;stroke-width:1.5;"/>
    </g>
    <g id="line2d_23"/>
    <g id="text_21">
     <!-- coarse-to-fine greedy -->
     <defs>
      <path d="M 48.78125 52.59375 
L 48.78125 44.1875 
Q 44.96875 46.296875 41.140625 47.34375 
Q 37.3125 48.390625 33.40625 48.390625 
Q 24.65625 48.390625 19.8125 42.84375 
Q 14.984375 37.3125 14.984375 27.296875 
Q 14.984375 17.28125 19.8125 11.734375 
Q 24.65625 6.203125 33.40625 6.203125 
Q 37.3125 6.203125 41.140625 7.25 
Q 44.96875 8.296875 48.78125 10.40625 
L 48.78125 2.09375 
Q 45.015625 0.34375 40.984375 -0.53125 
Q 36.96875 -1.421875 32.421875 -1.421875 
Q 20.0625 -1.421875 12.78125 6.34375 
Q 5.515625 14.109375 5.515625 27.296875 
Q 5.515625 40.671875 12.859375 48.328125 
Q 20.21875 56 33.015625 56 
Q 37.15625 56 41.109375 55.140625 
Q 45.0625 54.296875 48.78125 52.59375 
z
" id="DejaVuSans-63"/>
      <path d="M 4.890625 31.390625 
L 31.203125 31.390625 
L 31.203125 23.390625 
L 4.890625 23.390625 
z
" id="DejaVuSans-2d"/>
      <path d="M 9.421875 54.6875 
L 18.40625 54.6875 
L 18.40625 0 
L 9.421875 0 
z
M 9.421875 75.984375 
L 18.40625 75.984375 
L 18.40625 64.59375 
L 9.421875 64.59375 
z
" id="DejaVuSans-69"/>
      <path d="M 45.40625 27.984375 
Q 45.40625 37.75 41.375 43.109375 
Q 37.359375 48.484375 30.078125 48.484375 
Q 22.859375 48.484375 18.828125 43.109375 
Q 14.796875 37.75 14.796875 27.984375 
Q 14.796875 18.265625 18.828125 12.890625 
Q 22.859375 7.515625 30.078125 7.515625 
Q 37.359375 7.515625 41.375 12.890625 
Q 45.40625 18.265625 45.40625 27.984375 
z
M 54.390625 6.78125 
Q 54.390625 -7.171875 48.1875 -13.984375 
Q 42 -20.796875 29.203125 -20.796875 
Q 24.46875 -20.796875 20.265625 -20.09375 
Q 16.0625 -19.390625 12.109375 -17.921875 
L 12.109375 -9.1875 
Q 16.0625 -11.328125 19.921875 -12.34375 
Q 23.78125 -13.375 27.78125 -13.375 
Q 36.625 -13.375 41.015625 -8.765625 
Q 45.40625 -4.15625 45.40625 5.171875 
L 45.40625 9.625 
Q 42.625 4.78125 38.28125 2.390625 
Q 33.9375 0 27.875 0 
Q 17.828125 0 11.671875 7.65625 
Q 5.515625 15.328125 5.515625 27.984375 
Q 5.515625 40.671875 11.671875 48.328125 
Q 17.828125 56 27.875 56 
Q 33.9375 56 38.28125 53.609375 
Q 42.625 51.21875 45.40625 46.390625 
L 45.40625 54.6875 
L 54.390625 54.6875 
z
" id="DejaVuSans-67"/>
     </defs>
     <g transform="translate(329.093287 288.960312)scale(0.1 -0.1)">
      <use xlink:href="#DejaVuSans-63"/>
      <use x="54.980469" xlink:href="#DejaVuSans-6f"/>
      <use x="116.162109" xlink:href="#DejaVuSans-61"/>
      <use x="177.441406" xlink:href="#DejaVuSans-72"/>
      <use x="218.554688" xlink:href="#DejaVuSans-73"/>
      <use x="270.654297" xlink:href="#DejaVuSans-65"/>
      <use x="332.177734" xlink:href="#DejaVuSans-2d"/>
      <use x="368.261719" xlink:href="#DejaVuSans-74"/>
      <use x="407.470703" xlink:href="#DejaVuSans-6f"/>
      <use x="468.667969" xlink:href="#DejaVuSans-2d"/>
      <use x="504.751953" xlink:href="#DejaVuSans-66"/>
      <use x="539.957031" xlink:href="#DejaVuSans-69"/>
      <use x="567.740234" xlink:href="#DejaVuSans-6e"/>
      <use x="631.119141" xlink:href="#DejaVuSans-65"/>
      <use x="692.642578" xlink:href="#DejaVuSans-20"/>
      <use x="724.429688" xlink:href="#DejaVuSans-67"/>
      <use x="787.90625" xlink:href="#DejaVuSans-72"/>
      <use x="828.988281" xlink:href="#DejaVuSans-65"/>
      <use x="890.511719" xlink:href="#DejaVuSans-65"/>
      <use x="952.035156" xlink:href="#DejaVuSans-64"/>
      <use x="1015.511719" xlink:href="#DejaVuSans-79"/>
     </g>
    </g>
   </g>
  </g>
 </g>
 <defs>
  <clipPath id="p85945ac850">
   <rect height="286.72" width="373.635162" x="71.93" y="13.32"/>
  </clipPath>
 </defs>
</svg>
