<?xml version="1.0" encoding="utf-8" standalone="no"?>
<!DOCTYPE svg PUBLIC "-//W3C//DTD SVG 1.1//EN"
  "http://www.w3.org/Graphics/SVG/1.1/DTD/svg11.dtd">
<!-- Created with matplotlib (http://matplotlib.org/) -->
<svg height="345pt" version="1.1" viewBox="0 0 460 345" width="460pt" xmlns="http://www.w3.org/2000/svg" xmlns:xlink="http://www.w3.org/1999/xlink">
 <defs>
  <style type="text/css">
*{stroke-linecap:butt;stroke-linejoin:round;}
  </style>
 </defs>
 <g id="figure_1">
  <g id="patch_1">
   <path d="M 0 345.6 
L 460.8 345.6 
L 460.8 0 
L 0 0 
z
" style="fill:#ffffff;"/>
  </g>
  <g id="axes_1">
   <g id="patch_2">
    <path d="M 71.93 300.04 
L 447.48 300.04 
L 447.48 13.32 
L 71.93 13.32 
z
" style="fill:#ffffff;"/>
   </g>
   <g id="matplotlib.axis_1">
    <g id="xtick_1">
     <g id="line2d_1">
      <defs>
       <path d="M 0 0 
L 0 3.5 
" id="m36d7035e69" style="stroke:#000000;stroke-width:0.8;"/>
      </defs>
      <g>
       <use style="stroke:#000000;stroke-width:0.8;" x="88.992027" xlink:href="#m36d7035e69" y="300.04"/>
      </g>
     </g>
     <g id="text_1">
      <!-- 0 -->
      <defs>
       <path d="M 31.78125 66.40625 
Q 24.171875 66.40625 20.328125 58.90625 
Q 16.5 51.421875 16.5 36.375 
Q 16.5 21.390625 20.328125 13.890625 
Q 24.171875 6.390625 31.78125 6.390625 
Q 39.453125 6.390625 43.28125 13.890625 
Q 47.125 21.390625 47.125 36.375 
Q 47.125 51.421875 43.28125 58.90625 
Q 39.453125 66.40625 31.78125 66.40625 
z
M 31.78125 74.21875 
Q 44.046875 74.21875 50.515625 64.515625 
Q 56.984375 54.828125 56.984375 36.375 
Q 56.984375 17.96875 50.515625 8.265625 
Q 44.046875 -1.421875 31.78125 -1.421875 
Q 19.53125 -1.421875 13.0625 8.265625 
Q 6.59375 17.96875 6.59375 36.375 
Q 6.59375 54.828125 13.0625 64.515625 
Q 19.53125 74.21875 31.78125 74.21875 
z
" id="DejaVuSans-30"/>
      </defs>
      <g transform="translate(85.810777 314.638437)scale(0.1 -0.1)">
       <use xlink:href="#DejaVuSans-30"/>
      </g>
     </g>
    </g>
    <g id="xtick_2">
     <g id="line2d_2">
      <g>
       <use style="stroke:#000000;stroke-width:0.8;" x="131.128813" xlink:href="#m36d7035e69" y="300.04"/>
      </g>
     </g>
     <g id="text_2">
      <!-- 10000 -->
      <defs>
       <path d="M 12.40625 8.296875 
L 28.515625 8.296875 
L 28.515625 63.921875 
L 10.984375 60.40625 
L 10.984375 69.390625 
L 28.421875 72.90625 
L 38.28125 72.90625 
L 38.28125 8.296875 
L 54.390625 8.296875 
L 54.390625 0 
L 12.40625 0 
z
" id="DejaVuSans-31"/>
      </defs>
      <g transform="translate(115.222563 314.638437)scale(0.1 -0.1)">
       <use xlink:href="#DejaVuSans-31"/>
       <use x="63.623047" xlink:href="#DejaVuSans-30"/>
       <use x="127.246094" xlink:href="#DejaVuSans-30"/>
       <use x="190.869141" xlink:href="#DejaVuSans-30"/>
       <use x="254.492188" xlink:href="#DejaVuSans-30"/>
      </g>
     </g>
    </g>
    <g id="xtick_3">
     <g id="line2d_3">
      <g>
       <use style="stroke:#000000;stroke-width:0.8;" x="173.265598" xlink:href="#m36d7035e69" y="300.04"/>
      </g>
     </g>
     <g id="text_3">
      <!-- 20000 -->
      <defs>
       <path d="M 19.1875 8.296875 
L 53.609375 8.296875 
L 53.609375 0 
L 7.328125 0 
L 7.328125 8.296875 
Q 12.9375 14.109375 22.625 23.890625 
Q 32.328125 33.6875 34.8125 36.53125 
Q 39.546875 41.84375 41.421875 45.53125 
Q 43.3125 49.21875 43.3125 52.78125 
Q 43.3125 58.59375 39.234375 62.25 
Q 35.15625 65.921875 28.609375 65.921875 
Q 23.96875 65.921875 18.8125 64.3125 
Q 13.671875 62.703125 7.8125 59.421875 
L 7.8125 69.390625 
Q 13.765625 71.78125 18.9375 73 
Q 24.125 74.21875 28.421875 74.21875 
Q 39.75 74.21875 46.484375 68.546875 
Q 53.21875 62.890625 53.21875 53.421875 
Q 53.21875 48.921875 51.53125 44.890625 
Q 49.859375 40.875 45.40625 35.40625 
Q 44.1875 33.984375 37.640625 27.21875 
Q 31.109375 20.453125 19.1875 8.296875 
z
" id="DejaVuSans-32"/>
      </defs>
      <g transform="translate(157.359348 314.638437)scale(0.1 -0.1)">
       <use xlink:href="#DejaVuSans-32"/>
       <use x="63.623047" xlink:href="#DejaVuSans-30"/>
       <use x="127.246094" xlink:href="#DejaVuSans-30"/>
       <use x="190.869141" xlink:href="#DejaVuSans-30"/>
       <use x="254.492188" xlink:href="#DejaVuSans-30"/>
      </g>
     </g>
    </g>
    <g id="xtick_4">
     <g id="line2d_4">
      <g>
       <use style="stroke:#000000;stroke-width:0.8;" x="215.402384" xlink:href="#m36d7035e69" y="300.04"/>
      </g>
     </g>
     <g id="text_4">
      <!-- 30000 -->
      <defs>
       <path d="M 40.578125 39.3125 
Q 47.65625 37.796875 51.625 33 
Q 55.609375 28.21875 55.609375 21.1875 
Q 55.609375 10.40625 48.1875 4.484375 
Q 40.765625 -1.421875 27.09375 -1.421875 
Q 22.515625 -1.421875 17.65625 -0.515625 
Q 12.796875 0.390625 7.625 2.203125 
L 7.625 11.71875 
Q 11.71875 9.328125 16.59375 8.109375 
Q 21.484375 6.890625 26.8125 6.890625 
Q 36.078125 6.890625 40.9375 10.546875 
Q 45.796875 14.203125 45.796875 21.1875 
Q 45.796875 27.640625 41.28125 31.265625 
Q 36.765625 34.90625 28.71875 34.90625 
L 20.21875 34.90625 
L 20.21875 43.015625 
L 29.109375 43.015625 
Q 36.375 43.015625 40.234375 45.921875 
Q 44.09375 48.828125 44.09375 54.296875 
Q 44.09375 59.90625 40.109375 62.90625 
Q 36.140625 65.921875 28.71875 65.921875 
Q 24.65625 65.921875 20.015625 65.03125 
Q 15.375 64.15625 9.8125 62.3125 
L 9.8125 71.09375 
Q 15.4375 72.65625 20.34375 73.4375 
Q 25.25 74.21875 29.59375 74.21875 
Q 40.828125 74.21875 47.359375 69.109375 
Q 53.90625 64.015625 53.90625 55.328125 
Q 53.90625 49.265625 50.4375 45.09375 
Q 46.96875 40.921875 40.578125 39.3125 
z
" id="DejaVuSans-33"/>
      </defs>
      <g transform="translate(199.496134 314.638437)scale(0.1 -0.1)">
       <use xlink:href="#DejaVuSans-33"/>
       <use x="63.623047" xlink:href="#DejaVuSans-30"/>
       <use x="127.246094" xlink:href="#DejaVuSans-30"/>
       <use x="190.869141" xlink:href="#DejaVuSans-30"/>
       <use x="254.492188" xlink:href="#DejaVuSans-30"/>
      </g>
     </g>
    </g>
    <g id="xtick_5">
     <g id="line2d_5">
      <g>
       <use style="stroke:#000000;stroke-width:0.8;" x="257.539169" xlink:href="#m36d7035e69" y="300.04"/>
      </g>
     </g>
     <g id="text_5">
      <!-- 40000 -->
      <defs>
       <path d="M 37.796875 64.3125 
L 12.890625 25.390625 
L 37.796875 25.390625 
z
M 35.203125 72.90625 
L 47.609375 72.90625 
L 47.609375 25.390625 
L 58.015625 25.390625 
L 58.015625 17.1875 
L 47.609375 17.1875 
L 47.609375 0 
L 37.796875 0 
L 37.796875 17.1875 
L 4.890625 17.1875 
L 4.890625 26.703125 
z
" id="DejaVuSans-34"/>
      </defs>
      <g transform="translate(241.632919 314.638437)scale(0.1 -0.1)">
       <use xlink:href="#DejaVuSans-34"/>
       <use x="63.623047" xlink:href="#DejaVuSans-30"/>
       <use x="127.246094" xlink:href="#DejaVuSans-30"/>
       <use x="190.869141" xlink:href="#DejaVuSans-30"/>
       <use x="254.492188" xlink:href="#DejaVuSans-30"/>
      </g>
     </g>
    </g>
    <g id="xtick_6">
     <g id="line2d_6">
      <g>
       <use style="stroke:#000000;stroke-width:0.8;" x="299.675955" xlink:href="#m36d7035e69" y="300.04"/>
      </g>
     </g>
     <g id="text_6">
      <!-- 50000 -->
      <defs>
       <path d="M 10.796875 72.90625 
L 49.515625 72.90625 
L 49.515625 64.59375 
L 19.828125 64.59375 
L 19.828125 46.734375 
Q 21.96875 47.46875 24.109375 47.828125 
Q 26.265625 48.1875 28.421875 48.1875 
Q 40.625 48.1875 47.75 41.5 
Q 54.890625 34.8125 54.890625 23.390625 
Q 54.890625 11.625 47.5625 5.09375 
Q 40.234375 -1.421875 26.90625 -1.421875 
Q 22.3125 -1.421875 17.546875 -0.640625 
Q 12.796875 0.140625 7.71875 1.703125 
L 7.71875 11.625 
Q 12.109375 9.234375 16.796875 8.0625 
Q 21.484375 6.890625 26.703125 6.890625 
Q 35.15625 6.890625 40.078125 11.328125 
Q 45.015625 15.765625 45.015625 23.390625 
Q 45.015625 31 40.078125 35.4375 
Q 35.15625 39.890625 26.703125 39.890625 
Q 22.75 39.890625 18.8125 39.015625 
Q 14.890625 38.140625 10.796875 36.28125 
z
" id="DejaVuSans-35"/>
      </defs>
      <g transform="translate(283.769705 314.638437)scale(0.1 -0.1)">
       <use xlink:href="#DejaVuSans-35"/>
       <use x="63.623047" xlink:href="#DejaVuSans-30"/>
       <use x="127.246094" xlink:href="#DejaVuSans-30"/>
       <use x="190.869141" xlink:href="#DejaVuSans-30"/>
       <use x="254.492188" xlink:href="#DejaVuSans-30"/>
      </g>
     </g>
    </g>
    <g id="xtick_7">
     <g id="line2d_7">
      <g>
       <use style="stroke:#000000;stroke-width:0.8;" x="341.81274" xlink:href="#m36d7035e69" y="300.04"/>
      </g>
     </g>
     <g id="text_7">
      <!-- 60000 -->
      <defs>
       <path d="M 33.015625 40.375 
Q 26.375 40.375 22.484375 35.828125 
Q 18.609375 31.296875 18.609375 23.390625 
Q 18.609375 15.53125 22.484375 10.953125 
Q 26.375 6.390625 33.015625 6.390625 
Q 39.65625 6.390625 43.53125 10.953125 
Q 47.40625 15.53125 47.40625 23.390625 
Q 47.40625 31.296875 43.53125 35.828125 
Q 39.65625 40.375 33.015625 40.375 
z
M 52.59375 71.296875 
L 52.59375 62.3125 
Q 48.875 64.0625 45.09375 64.984375 
Q 41.3125 65.921875 37.59375 65.921875 
Q 27.828125 65.921875 22.671875 59.328125 
Q 17.53125 52.734375 16.796875 39.40625 
Q 19.671875 43.65625 24.015625 45.921875 
Q 28.375 48.1875 33.59375 48.1875 
Q 44.578125 48.1875 50.953125 41.515625 
Q 57.328125 34.859375 57.328125 23.390625 
Q 57.328125 12.15625 50.6875 5.359375 
Q 44.046875 -1.421875 33.015625 -1.421875 
Q 20.359375 -1.421875 13.671875 8.265625 
Q 6.984375 17.96875 6.984375 36.375 
Q 6.984375 53.65625 15.1875 63.9375 
Q 23.390625 74.21875 37.203125 74.21875 
Q 40.921875 74.21875 44.703125 73.484375 
Q 48.484375 72.75 52.59375 71.296875 
z
" id="DejaVuSans-36"/>
      </defs>
      <g transform="translate(325.90649 314.638437)scale(0.1 -0.1)">
       <use xlink:href="#DejaVuSans-36"/>
       <use x="63.623047" xlink:href="#DejaVuSans-30"/>
       <use x="127.246094" xlink:href="#DejaVuSans-30"/>
       <use x="190.869141" xlink:href="#DejaVuSans-30"/>
       <use x="254.492188" xlink:href="#DejaVuSans-30"/>
      </g>
     </g>
    </g>
    <g id="xtick_8">
     <g id="line2d_8">
      <g>
       <use style="stroke:#000000;stroke-width:0.8;" x="383.949526" xlink:href="#m36d7035e69" y="300.04"/>
      </g>
     </g>
     <g id="text_8">
      <!-- 70000 -->
      <defs>
       <path d="M 8.203125 72.90625 
L 55.078125 72.90625 
L 55.078125 68.703125 
L 28.609375 0 
L 18.3125 0 
L 43.21875 64.59375 
L 8.203125 64.59375 
z
" id="DejaVuSans-37"/>
      </defs>
      <g transform="translate(368.043276 314.638437)scale(0.1 -0.1)">
       <use xlink:href="#DejaVuSans-37"/>
       <use x="63.623047" xlink:href="#DejaVuSans-30"/>
       <use x="127.246094" xlink:href="#DejaVuSans-30"/>
       <use x="190.869141" xlink:href="#DejaVuSans-30"/>
       <use x="254.492188" xlink:href="#DejaVuSans-30"/>
      </g>
     </g>
    </g>
    <g id="xtick_9">
     <g id="line2d_9">
      <g>
       <use style="stroke:#000000;stroke-width:0.8;" x="426.086311" xlink:href="#m36d7035e69" y="300.04"/>
      </g>
     </g>
     <g id="text_9">
      <!-- 80000 -->
      <defs>
       <path d="M 31.78125 34.625 
Q 24.75 34.625 20.71875 30.859375 
Q 16.703125 27.09375 16.703125 20.515625 
Q 16.703125 13.921875 20.71875 10.15625 
Q 24.75 6.390625 31.78125 6.390625 
Q 38.8125 6.390625 42.859375 10.171875 
Q 46.921875 13.96875 46.921875 20.515625 
Q 46.921875 27.09375 42.890625 30.859375 
Q 38.875 34.625 31.78125 34.625 
z
M 21.921875 38.8125 
Q 15.578125 40.375 12.03125 44.71875 
Q 8.5 49.078125 8.5 55.328125 
Q 8.5 64.0625 14.71875 69.140625 
Q 20.953125 74.21875 31.78125 74.21875 
Q 42.671875 74.21875 48.875 69.140625 
Q 55.078125 64.0625 55.078125 55.328125 
Q 55.078125 49.078125 51.53125 44.71875 
Q 48 40.375 41.703125 38.8125 
Q 48.828125 37.15625 52.796875 32.3125 
Q 56.78125 27.484375 56.78125 20.515625 
Q 56.78125 9.90625 50.3125 4.234375 
Q 43.84375 -1.421875 31.78125 -1.421875 
Q 19.734375 -1.421875 13.25 4.234375 
Q 6.78125 9.90625 6.78125 20.515625 
Q 6.78125 27.484375 10.78125 32.3125 
Q 14.796875 37.15625 21.921875 38.8125 
z
M 18.3125 54.390625 
Q 18.3125 48.734375 21.84375 45.5625 
Q 25.390625 42.390625 31.78125 42.390625 
Q 38.140625 42.390625 41.71875 45.5625 
Q 45.3125 48.734375 45.3125 54.390625 
Q 45.3125 60.0625 41.71875 63.234375 
Q 38.140625 66.40625 31.78125 66.40625 
Q 25.390625 66.40625 21.84375 63.234375 
Q 18.3125 60.0625 18.3125 54.390625 
z
" id="DejaVuSans-38"/>
      </defs>
      <g transform="translate(410.180061 314.638437)scale(0.1 -0.1)">
       <use xlink:href="#DejaVuSans-38"/>
       <use x="63.623047" xlink:href="#DejaVuSans-30"/>
       <use x="127.246094" xlink:href="#DejaVuSans-30"/>
       <use x="190.869141" xlink:href="#DejaVuSans-30"/>
       <use x="254.492188" xlink:href="#DejaVuSans-30"/>
      </g>
     </g>
    </g>
    <g id="text_10">
     <!-- Number of Streamed Bytes -->
     <defs>
      <path d="M 9.8125 72.90625 
L 23.09375 72.90625 
L 55.421875 11.921875 
L 55.421875 72.90625 
L 64.984375 72.90625 
L 64.984375 0 
L 51.703125 0 
L 19.390625 60.984375 
L 19.390625 0 
L 9.8125 0 
z
" id="DejaVuSans-4e"/>
      <path d="M 8.5 21.578125 
L 8.5 54.6875 
L 17.484375 54.6875 
L 17.484375 21.921875 
Q 17.484375 14.15625 20.5 10.265625 
Q 23.53125 6.390625 29.59375 6.390625 
Q 36.859375 6.390625 41.078125 11.03125 
Q 45.3125 15.671875 45.3125 23.6875 
L 45.3125 54.6875 
L 54.296875 54.6875 
L 54.296875 0 
L 45.3125 0 
L 45.3125 8.40625 
Q 42.046875 3.421875 37.71875 1 
Q 33.40625 -1.421875 27.6875 -1.421875 
Q 18.265625 -1.421875 13.375 4.4375 
Q 8.5 10.296875 8.5 21.578125 
z
M 31.109375 56 
z
" id="DejaVuSans-75"/>
      <path d="M 52 44.1875 
Q 55.375 50.25 60.0625 53.125 
Q 64.75 56 71.09375 56 
Q 79.640625 56 84.28125 50.015625 
Q 88.921875 44.046875 88.921875 33.015625 
L 88.921875 0 
L 79.890625 0 
L 79.890625 32.71875 
Q 79.890625 40.578125 77.09375 44.375 
Q 74.3125 48.1875 68.609375 48.1875 
Q 61.625 48.1875 57.5625 43.546875 
Q 53.515625 38.921875 53.515625 30.90625 
L 53.515625 0 
L 44.484375 0 
L 44.484375 32.71875 
Q 44.484375 40.625 41.703125 44.40625 
Q 38.921875 48.1875 33.109375 48.1875 
Q 26.21875 48.1875 22.15625 43.53125 
Q 18.109375 38.875 18.109375 30.90625 
L 18.109375 0 
L 9.078125 0 
L 9.078125 54.6875 
L 18.109375 54.6875 
L 18.109375 46.1875 
Q 21.1875 51.21875 25.484375 53.609375 
Q 29.78125 56 35.6875 56 
Q 41.65625 56 45.828125 52.96875 
Q 50 49.953125 52 44.1875 
z
" id="DejaVuSans-6d"/>
      <path d="M 48.6875 27.296875 
Q 48.6875 37.203125 44.609375 42.84375 
Q 40.53125 48.484375 33.40625 48.484375 
Q 26.265625 48.484375 22.1875 42.84375 
Q 18.109375 37.203125 18.109375 27.296875 
Q 18.109375 17.390625 22.1875 11.75 
Q 26.265625 6.109375 33.40625 6.109375 
Q 40.53125 6.109375 44.609375 11.75 
Q 48.6875 17.390625 48.6875 27.296875 
z
M 18.109375 46.390625 
Q 20.953125 51.265625 25.265625 53.625 
Q 29.59375 56 35.59375 56 
Q 45.5625 56 51.78125 48.09375 
Q 58.015625 40.1875 58.015625 27.296875 
Q 58.015625 14.40625 51.78125 6.484375 
Q 45.5625 -1.421875 35.59375 -1.421875 
Q 29.59375 -1.421875 25.265625 0.953125 
Q 20.953125 3.328125 18.109375 8.203125 
L 18.109375 0 
L 9.078125 0 
L 9.078125 75.984375 
L 18.109375 75.984375 
z
" id="DejaVuSans-62"/>
      <path d="M 56.203125 29.59375 
L 56.203125 25.203125 
L 14.890625 25.203125 
Q 15.484375 15.921875 20.484375 11.0625 
Q 25.484375 6.203125 34.421875 6.203125 
Q 39.59375 6.203125 44.453125 7.46875 
Q 49.3125 8.734375 54.109375 11.28125 
L 54.109375 2.78125 
Q 49.265625 0.734375 44.1875 -0.34375 
Q 39.109375 -1.421875 33.890625 -1.421875 
Q 20.796875 -1.421875 13.15625 6.1875 
Q 5.515625 13.8125 5.515625 26.8125 
Q 5.515625 40.234375 12.765625 48.109375 
Q 20.015625 56 32.328125 56 
Q 43.359375 56 49.78125 48.890625 
Q 56.203125 41.796875 56.203125 29.59375 
z
M 47.21875 32.234375 
Q 47.125 39.59375 43.09375 43.984375 
Q 39.0625 48.390625 32.421875 48.390625 
Q 24.90625 48.390625 20.390625 44.140625 
Q 15.875 39.890625 15.1875 32.171875 
z
" id="DejaVuSans-65"/>
      <path d="M 41.109375 46.296875 
Q 39.59375 47.171875 37.8125 47.578125 
Q 36.03125 48 33.890625 48 
Q 26.265625 48 22.1875 43.046875 
Q 18.109375 38.09375 18.109375 28.8125 
L 18.109375 0 
L 9.078125 0 
L 9.078125 54.6875 
L 18.109375 54.6875 
L 18.109375 46.1875 
Q 20.953125 51.171875 25.484375 53.578125 
Q 30.03125 56 36.53125 56 
Q 37.453125 56 38.578125 55.875 
Q 39.703125 55.765625 41.0625 55.515625 
z
" id="DejaVuSans-72"/>
      <path id="DejaVuSans-20"/>
      <path d="M 30.609375 48.390625 
Q 23.390625 48.390625 19.1875 42.75 
Q 14.984375 37.109375 14.984375 27.296875 
Q 14.984375 17.484375 19.15625 11.84375 
Q 23.34375 6.203125 30.609375 6.203125 
Q 37.796875 6.203125 41.984375 11.859375 
Q 46.1875 17.53125 46.1875 27.296875 
Q 46.1875 37.015625 41.984375 42.703125 
Q 37.796875 48.390625 30.609375 48.390625 
z
M 30.609375 56 
Q 42.328125 56 49.015625 48.375 
Q 55.71875 40.765625 55.71875 27.296875 
Q 55.71875 13.875 49.015625 6.21875 
Q 42.328125 -1.421875 30.609375 -1.421875 
Q 18.84375 -1.421875 12.171875 6.21875 
Q 5.515625 13.875 5.515625 27.296875 
Q 5.515625 40.765625 12.171875 48.375 
Q 18.84375 56 30.609375 56 
z
" id="DejaVuSans-6f"/>
      <path d="M 37.109375 75.984375 
L 37.109375 68.5 
L 28.515625 68.5 
Q 23.6875 68.5 21.796875 66.546875 
Q 19.921875 64.59375 19.921875 59.515625 
L 19.921875 54.6875 
L 34.71875 54.6875 
L 34.71875 47.703125 
L 19.921875 47.703125 
L 19.921875 0 
L 10.890625 0 
L 10.890625 47.703125 
L 2.296875 47.703125 
L 2.296875 54.6875 
L 10.890625 54.6875 
L 10.890625 58.5 
Q 10.890625 67.625 15.140625 71.796875 
Q 19.390625 75.984375 28.609375 75.984375 
z
" id="DejaVuSans-66"/>
      <path d="M 53.515625 70.515625 
L 53.515625 60.890625 
Q 47.90625 63.578125 42.921875 64.890625 
Q 37.9375 66.21875 33.296875 66.21875 
Q 25.25 66.21875 20.875 63.09375 
Q 16.5 59.96875 16.5 54.203125 
Q 16.5 49.359375 19.40625 46.890625 
Q 22.3125 44.4375 30.421875 42.921875 
L 36.375 41.703125 
Q 47.40625 39.59375 52.65625 34.296875 
Q 57.90625 29 57.90625 20.125 
Q 57.90625 9.515625 50.796875 4.046875 
Q 43.703125 -1.421875 29.984375 -1.421875 
Q 24.8125 -1.421875 18.96875 -0.25 
Q 13.140625 0.921875 6.890625 3.21875 
L 6.890625 13.375 
Q 12.890625 10.015625 18.65625 8.296875 
Q 24.421875 6.59375 29.984375 6.59375 
Q 38.421875 6.59375 43.015625 9.90625 
Q 47.609375 13.234375 47.609375 19.390625 
Q 47.609375 24.75 44.3125 27.78125 
Q 41.015625 30.8125 33.5 32.328125 
L 27.484375 33.5 
Q 16.453125 35.6875 11.515625 40.375 
Q 6.59375 45.0625 6.59375 53.421875 
Q 6.59375 63.09375 13.40625 68.65625 
Q 20.21875 74.21875 32.171875 74.21875 
Q 37.3125 74.21875 42.625 73.28125 
Q 47.953125 72.359375 53.515625 70.515625 
z
" id="DejaVuSans-53"/>
      <path d="M 18.3125 70.21875 
L 18.3125 54.6875 
L 36.8125 54.6875 
L 36.8125 47.703125 
L 18.3125 47.703125 
L 18.3125 18.015625 
Q 18.3125 11.328125 20.140625 9.421875 
Q 21.96875 7.515625 27.59375 7.515625 
L 36.8125 7.515625 
L 36.8125 0 
L 27.59375 0 
Q 17.1875 0 13.234375 3.875 
Q 9.28125 7.765625 9.28125 18.015625 
L 9.28125 47.703125 
L 2.6875 47.703125 
L 2.6875 54.6875 
L 9.28125 54.6875 
L 9.28125 70.21875 
z
" id="DejaVuSans-74"/>
      <path d="M 34.28125 27.484375 
Q 23.390625 27.484375 19.1875 25 
Q 14.984375 22.515625 14.984375 16.5 
Q 14.984375 11.71875 18.140625 8.90625 
Q 21.296875 6.109375 26.703125 6.109375 
Q 34.1875 6.109375 38.703125 11.40625 
Q 43.21875 16.703125 43.21875 25.484375 
L 43.21875 27.484375 
z
M 52.203125 31.203125 
L 52.203125 0 
L 43.21875 0 
L 43.21875 8.296875 
Q 40.140625 3.328125 35.546875 0.953125 
Q 30.953125 -1.421875 24.3125 -1.421875 
Q 15.921875 -1.421875 10.953125 3.296875 
Q 6 8.015625 6 15.921875 
Q 6 25.140625 12.171875 29.828125 
Q 18.359375 34.515625 30.609375 34.515625 
L 43.21875 34.515625 
L 43.21875 35.40625 
Q 43.21875 41.609375 39.140625 45 
Q 35.0625 48.390625 27.6875 48.390625 
Q 23 48.390625 18.546875 47.265625 
Q 14.109375 46.140625 10.015625 43.890625 
L 10.015625 52.203125 
Q 14.9375 54.109375 19.578125 55.046875 
Q 24.21875 56 28.609375 56 
Q 40.484375 56 46.34375 49.84375 
Q 52.203125 43.703125 52.203125 31.203125 
z
" id="DejaVuSans-61"/>
      <path d="M 45.40625 46.390625 
L 45.40625 75.984375 
L 54.390625 75.984375 
L 54.390625 0 
L 45.40625 0 
L 45.40625 8.203125 
Q 42.578125 3.328125 38.25 0.953125 
Q 33.9375 -1.421875 27.875 -1.421875 
Q 17.96875 -1.421875 11.734375 6.484375 
Q 5.515625 14.40625 5.515625 27.296875 
Q 5.515625 40.1875 11.734375 48.09375 
Q 17.96875 56 27.875 56 
Q 33.9375 56 38.25 53.625 
Q 42.578125 51.265625 45.40625 46.390625 
z
M 14.796875 27.296875 
Q 14.796875 17.390625 18.875 11.75 
Q 22.953125 6.109375 30.078125 6.109375 
Q 37.203125 6.109375 41.296875 11.75 
Q 45.40625 17.390625 45.40625 27.296875 
Q 45.40625 37.203125 41.296875 42.84375 
Q 37.203125 48.484375 30.078125 48.484375 
Q 22.953125 48.484375 18.875 42.84375 
Q 14.796875 37.203125 14.796875 27.296875 
z
" id="DejaVuSans-64"/>
      <path d="M 19.671875 34.8125 
L 19.671875 8.109375 
L 35.5 8.109375 
Q 43.453125 8.109375 47.28125 11.40625 
Q 51.125 14.703125 51.125 21.484375 
Q 51.125 28.328125 47.28125 31.5625 
Q 43.453125 34.8125 35.5 34.8125 
z
M 19.671875 64.796875 
L 19.671875 42.828125 
L 34.28125 42.828125 
Q 41.5 42.828125 45.03125 45.53125 
Q 48.578125 48.25 48.578125 53.8125 
Q 48.578125 59.328125 45.03125 62.0625 
Q 41.5 64.796875 34.28125 64.796875 
z
M 9.8125 72.90625 
L 35.015625 72.90625 
Q 46.296875 72.90625 52.390625 68.21875 
Q 58.5 63.53125 58.5 54.890625 
Q 58.5 48.1875 55.375 44.234375 
Q 52.25 40.28125 46.1875 39.3125 
Q 53.46875 37.75 57.5 32.78125 
Q 61.53125 27.828125 61.53125 20.40625 
Q 61.53125 10.640625 54.890625 5.3125 
Q 48.25 0 35.984375 0 
L 9.8125 0 
z
" id="DejaVuSans-42"/>
      <path d="M 32.171875 -5.078125 
Q 28.375 -14.84375 24.75 -17.8125 
Q 21.140625 -20.796875 15.09375 -20.796875 
L 7.90625 -20.796875 
L 7.90625 -13.28125 
L 13.1875 -13.28125 
Q 16.890625 -13.28125 18.9375 -11.515625 
Q 21 -9.765625 23.484375 -3.21875 
L 25.09375 0.875 
L 2.984375 54.6875 
L 12.5 54.6875 
L 29.59375 11.921875 
L 46.6875 54.6875 
L 56.203125 54.6875 
z
" id="DejaVuSans-79"/>
      <path d="M 44.28125 53.078125 
L 44.28125 44.578125 
Q 40.484375 46.53125 36.375 47.5 
Q 32.28125 48.484375 27.875 48.484375 
Q 21.1875 48.484375 17.84375 46.4375 
Q 14.5 44.390625 14.5 40.28125 
Q 14.5 37.15625 16.890625 35.375 
Q 19.28125 33.59375 26.515625 31.984375 
L 29.59375 31.296875 
Q 39.15625 29.25 43.1875 25.515625 
Q 47.21875 21.78125 47.21875 15.09375 
Q 47.21875 7.46875 41.1875 3.015625 
Q 35.15625 -1.421875 24.609375 -1.421875 
Q 20.21875 -1.421875 15.453125 -0.5625 
Q 10.6875 0.296875 5.421875 2 
L 5.421875 11.28125 
Q 10.40625 8.6875 15.234375 7.390625 
Q 20.0625 6.109375 24.8125 6.109375 
Q 31.15625 6.109375 34.5625 8.28125 
Q 37.984375 10.453125 37.984375 14.40625 
Q 37.984375 18.0625 35.515625 20.015625 
Q 33.0625 21.96875 24.703125 23.78125 
L 21.578125 24.515625 
Q 13.234375 26.265625 9.515625 29.90625 
Q 5.8125 33.546875 5.8125 39.890625 
Q 5.8125 47.609375 11.28125 51.796875 
Q 16.75 56 26.8125 56 
Q 31.78125 56 36.171875 55.265625 
Q 40.578125 54.546875 44.28125 53.078125 
z
" id="DejaVuSans-73"/>
     </defs>
     <g transform="translate(164.289531 331.355937)scale(0.14 -0.14)">
      <use xlink:href="#DejaVuSans-4e"/>
      <use x="74.804688" xlink:href="#DejaVuSans-75"/>
      <use x="138.183594" xlink:href="#DejaVuSans-6d"/>
      <use x="235.595703" xlink:href="#DejaVuSans-62"/>
      <use x="299.072266" xlink:href="#DejaVuSans-65"/>
      <use x="360.595703" xlink:href="#DejaVuSans-72"/>
      <use x="401.708984" xlink:href="#DejaVuSans-20"/>
      <use x="433.496094" xlink:href="#DejaVuSans-6f"/>
      <use x="494.677734" xlink:href="#DejaVuSans-66"/>
      <use x="529.882812" xlink:href="#DejaVuSans-20"/>
      <use x="561.669922" xlink:href="#DejaVuSans-53"/>
      <use x="625.146484" xlink:href="#DejaVuSans-74"/>
      <use x="664.355469" xlink:href="#DejaVuSans-72"/>
      <use x="705.4375" xlink:href="#DejaVuSans-65"/>
      <use x="766.960938" xlink:href="#DejaVuSans-61"/>
      <use x="828.240234" xlink:href="#DejaVuSans-6d"/>
      <use x="925.652344" xlink:href="#DejaVuSans-65"/>
      <use x="987.175781" xlink:href="#DejaVuSans-64"/>
      <use x="1050.652344" xlink:href="#DejaVuSans-20"/>
      <use x="1082.439453" xlink:href="#DejaVuSans-42"/>
      <use x="1151.042969" xlink:href="#DejaVuSans-79"/>
      <use x="1210.222656" xlink:href="#DejaVuSans-74"/>
      <use x="1249.431641" xlink:href="#DejaVuSans-65"/>
      <use x="1310.955078" xlink:href="#DejaVuSans-73"/>
     </g>
    </g>
   </g>
   <g id="matplotlib.axis_2">
    <g id="ytick_1">
     <g id="line2d_10">
      <defs>
       <path d="M 0 0 
L -3.5 0 
" id="m62c3cf6fd0" style="stroke:#000000;stroke-width:0.8;"/>
      </defs>
      <g>
       <use style="stroke:#000000;stroke-width:0.8;" x="71.93" xlink:href="#m62c3cf6fd0" y="284.350796"/>
      </g>
     </g>
     <g id="text_11">
      <!-- 10 -->
      <g transform="translate(52.205 288.150015)scale(0.1 -0.1)">
       <use xlink:href="#DejaVuSans-31"/>
       <use x="63.623047" xlink:href="#DejaVuSans-30"/>
      </g>
     </g>
    </g>
    <g id="ytick_2">
     <g id="line2d_11">
      <g>
       <use style="stroke:#000000;stroke-width:0.8;" x="71.93" xlink:href="#m62c3cf6fd0" y="250.135043"/>
      </g>
     </g>
     <g id="text_12">
      <!-- 20 -->
      <g transform="translate(52.205 253.934262)scale(0.1 -0.1)">
       <use xlink:href="#DejaVuSans-32"/>
       <use x="63.623047" xlink:href="#DejaVuSans-30"/>
      </g>
     </g>
    </g>
    <g id="ytick_3">
     <g id="line2d_12">
      <g>
       <use style="stroke:#000000;stroke-width:0.8;" x="71.93" xlink:href="#m62c3cf6fd0" y="215.91929"/>
      </g>
     </g>
     <g id="text_13">
      <!-- 30 -->
      <g transform="translate(52.205 219.718509)scale(0.1 -0.1)">
       <use xlink:href="#DejaVuSans-33"/>
       <use x="63.623047" xlink:href="#DejaVuSans-30"/>
      </g>
     </g>
    </g>
    <g id="ytick_4">
     <g id="line2d_13">
      <g>
       <use style="stroke:#000000;stroke-width:0.8;" x="71.93" xlink:href="#m62c3cf6fd0" y="181.703537"/>
      </g>
     </g>
     <g id="text_14">
      <!-- 40 -->
      <g transform="translate(52.205 185.502756)scale(0.1 -0.1)">
       <use xlink:href="#DejaVuSans-34"/>
       <use x="63.623047" xlink:href="#DejaVuSans-30"/>
      </g>
     </g>
    </g>
    <g id="ytick_5">
     <g id="line2d_14">
      <g>
       <use style="stroke:#000000;stroke-width:0.8;" x="71.93" xlink:href="#m62c3cf6fd0" y="147.487784"/>
      </g>
     </g>
     <g id="text_15">
      <!-- 50 -->
      <g transform="translate(52.205 151.287003)scale(0.1 -0.1)">
       <use xlink:href="#DejaVuSans-35"/>
       <use x="63.623047" xlink:href="#DejaVuSans-30"/>
      </g>
     </g>
    </g>
    <g id="ytick_6">
     <g id="line2d_15">
      <g>
       <use style="stroke:#000000;stroke-width:0.8;" x="71.93" xlink:href="#m62c3cf6fd0" y="113.272031"/>
      </g>
     </g>
     <g id="text_16">
      <!-- 60 -->
      <g transform="translate(52.205 117.07125)scale(0.1 -0.1)">
       <use xlink:href="#DejaVuSans-36"/>
       <use x="63.623047" xlink:href="#DejaVuSans-30"/>
      </g>
     </g>
    </g>
    <g id="ytick_7">
     <g id="line2d_16">
      <g>
       <use style="stroke:#000000;stroke-width:0.8;" x="71.93" xlink:href="#m62c3cf6fd0" y="79.056278"/>
      </g>
     </g>
     <g id="text_17">
      <!-- 70 -->
      <g transform="translate(52.205 82.855497)scale(0.1 -0.1)">
       <use xlink:href="#DejaVuSans-37"/>
       <use x="63.623047" xlink:href="#DejaVuSans-30"/>
      </g>
     </g>
    </g>
    <g id="ytick_8">
     <g id="line2d_17">
      <g>
       <use style="stroke:#000000;stroke-width:0.8;" x="71.93" xlink:href="#m62c3cf6fd0" y="44.840525"/>
      </g>
     </g>
     <g id="text_18">
      <!-- 80 -->
      <g transform="translate(52.205 48.639744)scale(0.1 -0.1)">
       <use xlink:href="#DejaVuSans-38"/>
       <use x="63.623047" xlink:href="#DejaVuSans-30"/>
      </g>
     </g>
    </g>
    <g id="text_19">
     <!-- PSNR -->
     <defs>
      <path d="M 19.671875 64.796875 
L 19.671875 37.40625 
L 32.078125 37.40625 
Q 38.96875 37.40625 42.71875 40.96875 
Q 46.484375 44.53125 46.484375 51.125 
Q 46.484375 57.671875 42.71875 61.234375 
Q 38.96875 64.796875 32.078125 64.796875 
z
M 9.8125 72.90625 
L 32.078125 72.90625 
Q 44.34375 72.90625 50.609375 67.359375 
Q 56.890625 61.8125 56.890625 51.125 
Q 56.890625 40.328125 50.609375 34.8125 
Q 44.34375 29.296875 32.078125 29.296875 
L 19.671875 29.296875 
L 19.671875 0 
L 9.8125 0 
z
" id="DejaVuSans-50"/>
      <path d="M 44.390625 34.1875 
Q 47.5625 33.109375 50.5625 29.59375 
Q 53.5625 26.078125 56.59375 19.921875 
L 66.609375 0 
L 56 0 
L 46.6875 18.703125 
Q 43.0625 26.03125 39.671875 28.421875 
Q 36.28125 30.8125 30.421875 30.8125 
L 19.671875 30.8125 
L 19.671875 0 
L 9.8125 0 
L 9.8125 72.90625 
L 32.078125 72.90625 
Q 44.578125 72.90625 50.734375 67.671875 
Q 56.890625 62.453125 56.890625 51.90625 
Q 56.890625 45.015625 53.6875 40.46875 
Q 50.484375 35.9375 44.390625 34.1875 
z
M 19.671875 64.796875 
L 19.671875 38.921875 
L 32.078125 38.921875 
Q 39.203125 38.921875 42.84375 42.21875 
Q 46.484375 45.515625 46.484375 51.90625 
Q 46.484375 58.296875 42.84375 61.546875 
Q 39.203125 64.796875 32.078125 64.796875 
z
" id="DejaVuSans-52"/>
     </defs>
     <g transform="translate(10.674063 153.768437)scale(0.14 -0.14)">
      <use xlink:href="#DejaVuSans-50"/>
      <use x="60.302734" xlink:href="#DejaVuSans-53"/>
      <use x="123.779297" xlink:href="#DejaVuSans-4e"/>
      <use x="198.583984" xlink:href="#DejaVuSans-52"/>
     </g>
    </g>
   </g>
   <g id="line2d_18">
    <path clip-path="url(#p63ec98c27b)" d="M 89.000455 286.889605 
L 89.27013 285.330427 
L 89.539805 284.805626 
L 89.809481 284.734354 
L 90.348832 282.250975 
L 91.427533 281.693258 
L 91.697209 279.674529 
L 91.966884 279.29884 
L 92.23656 279.288575 
L 92.506235 278.216938 
L 92.775911 276.543103 
L 93.045586 276.429507 
L 93.315261 276.031236 
L 93.584937 272.731468 
L 93.854612 272.510435 
L 94.124288 272.129271 
L 94.393963 268.622841 
L 94.933314 268.345351 
L 95.202989 267.588156 
L 95.472665 266.034419 
L 95.74234 265.719292 
L 96.281691 252.596182 
L 96.551367 250.864181 
L 97.360393 248.745199 
L 97.630068 247.028253 
L 97.899744 246.54889 
L 98.439094 246.408605 
L 98.978445 246.351465 
L 99.248121 246.123588 
L 99.787472 246.065079 
L 100.057147 245.69726 
L 100.596498 245.569293 
L 100.866173 245.124146 
L 101.405524 245.056741 
L 101.6752 244.57772 
L 101.944875 244.565745 
L 102.753901 244.139074 
L 103.023577 243.331583 
L 103.832603 243.100626 
L 104.102278 242.274658 
L 104.641629 241.437399 
L 104.911305 240.7938 
L 105.990006 240.678493 
L 106.259682 240.319228 
L 106.529357 240.313411 
L 106.799033 239.719083 
L 107.338384 239.569561 
L 108.14741 239.371793 
L 109.495787 239.087803 
L 109.765462 237.028014 
L 110.304813 236.633507 
L 110.574489 236.551731 
L 111.922866 235.454432 
L 112.731892 235.373341 
L 113.540918 235.077716 
L 113.810594 234.775591 
L 114.349945 234.752667 
L 114.61962 234.487495 
L 116.507348 234.342762 
L 117.046699 234.04269 
L 117.58605 233.994788 
L 117.855725 233.675555 
L 118.125401 233.627995 
L 118.395076 233.343662 
L 118.664752 233.327923 
L 118.934427 232.84377 
L 119.204102 232.821872 
L 119.473778 232.612814 
L 120.55248 232.503323 
L 121.09183 230.362101 
L 122.440208 230.218395 
L 122.709883 229.627831 
L 126.485339 229.424932 
L 127.02469 229.254538 
L 127.833716 229.243588 
L 128.373067 229.035557 
L 129.182093 229.016054 
L 129.451769 228.749513 
L 130.260795 228.531901 
L 130.800146 228.528137 
L 131.069821 228.099756 
L 132.418198 228.02585 
L 132.687874 227.516035 
L 133.227225 227.449314 
L 134.036251 227.383278 
L 134.305926 227.221437 
L 135.654303 227.107841 
L 136.46333 227.050701 
L 137.002681 226.968241 
L 137.542031 226.860461 
L 138.351058 226.818376 
L 138.890409 226.7017 
L 139.429759 226.620951 
L 140.778137 226.489905 
L 141.047812 226.071788 
L 142.665865 225.739553 
L 142.93554 224.978937 
L 143.205215 224.954986 
L 143.474891 224.511208 
L 144.014242 224.230296 
L 144.823268 223.854607 
L 145.632294 223.692083 
L 145.90197 223.550429 
L 146.171645 222.982448 
L 146.441321 222.979026 
L 146.710996 222.759019 
L 147.250347 222.697773 
L 147.520022 222.632079 
L 147.789698 221.527252 
L 149.677426 221.456083 
L 149.947101 221.226838 
L 150.756127 221.167644 
L 151.295478 221.10982 
L 152.104505 220.951059 
L 152.37418 220.950716 
L 152.913531 220.506938 
L 153.452882 220.417293 
L 153.992233 220.405317 
L 154.261908 220.055632 
L 156.958662 219.851706 
L 157.228338 219.664204 
L 158.307039 219.605353 
L 158.576715 219.429142 
L 163.161197 219.253957 
L 163.430872 218.879295 
L 164.77925 218.774252 
L 165.048925 217.128475 
L 165.857951 216.743205 
L 166.397302 216.697356 
L 167.206328 216.215256 
L 167.745679 216.102002 
L 168.015355 215.878231 
L 169.094056 215.691071 
L 169.363732 215.702362 
L 169.633407 215.586713 
L 169.903083 215.270217 
L 170.981784 215.170649 
L 171.25146 215.11214 
L 171.521135 214.503442 
L 173.948214 214.357683 
L 175.026916 214.327915 
L 175.566267 214.158889 
L 177.72367 214.001839 
L 177.993346 213.544032 
L 179.341723 213.438306 
L 182.308152 213.125574 
L 183.65653 213.066723 
L 190.668091 212.641079 
L 190.937766 212.199695 
L 191.746792 212.14016 
L 192.016468 211.966344 
L 192.555819 211.956421 
L 192.825494 211.064417 
L 194.443547 210.851253 
L 195.252573 210.660329 
L 195.522248 210.658618 
L 195.791924 210.273349 
L 196.061599 209.536341 
L 196.870625 209.498362 
L 197.140301 209.15244 
L 198.488678 209.099064 
L 199.028029 208.232721 
L 200.106731 208.105781 
L 200.915757 208.039402 
L 201.185432 208.03598 
L 201.455108 207.600072 
L 204.960888 207.21754 
L 205.230564 206.353934 
L 206.848616 206.304663 
L 207.657643 206.295425 
L 207.927318 205.512569 
L 208.466669 205.423608 
L 210.354397 205.408553 
L 210.624072 205.279902 
L 217.096282 205.149197 
L 217.905309 204.901475 
L 219.793037 204.885394 
L 220.062712 204.68968 
L 227.613624 204.2329 
L 228.152975 203.928721 
L 230.040703 203.853105 
L 230.310378 203.741903 
L 230.580054 203.497603 
L 231.119405 203.412748 
L 232.467782 203.402483 
L 233.007133 202.979919 
L 234.085834 202.891642 
L 235.164536 202.84853 
L 235.434212 202.681557 
L 237.591615 202.613126 
L 237.86129 202.385591 
L 240.288369 202.27439 
L 240.558045 202.073885 
L 242.715448 202.014692 
L 242.985124 201.695117 
L 243.524474 201.590759 
L 244.872852 201.559965 
L 245.951553 201.226019 
L 247.569606 201.209938 
L 248.108957 201.036806 
L 249.457334 200.996774 
L 250.26636 200.912603 
L 250.805711 200.7535 
L 252.963114 200.700123 
L 253.23279 200.359334 
L 255.390193 200.323408 
L 255.659869 200.030863 
L 256.73857 199.989462 
L 257.817272 199.969275 
L 258.086947 199.743793 
L 260.244351 199.709919 
L 260.783702 199.567582 
L 261.862403 199.484779 
L 262.401754 199.409847 
L 262.941105 199.29454 
L 263.480456 199.232952 
L 264.289482 199.22953 
L 264.828833 199.088561 
L 265.368184 199.009523 
L 266.17721 198.957857 
L 267.795263 198.849051 
L 268.334614 198.701923 
L 269.413315 198.692685 
L 269.682991 198.289623 
L 270.492017 198.228035 
L 271.301043 197.839002 
L 272.11007 197.835922 
L 272.379745 197.570066 
L 273.728122 197.385985 
L 274.267473 197.310711 
L 275.076499 197.294629 
L 275.61585 196.386543 
L 276.155201 196.317769 
L 276.424876 195.700175 
L 276.694552 195.536624 
L 277.233903 195.503092 
L 277.503578 195.270083 
L 278.312604 195.156145 
L 278.58228 194.747608 
L 280.200332 194.528628 
L 280.739683 193.088487 
L 281.279034 193.025187 
L 281.818385 192.576277 
L 283.166762 192.545825 
L 283.436438 192.369614 
L 284.784815 192.28818 
L 286.402867 192.05825 
L 286.672543 191.646635 
L 287.751244 191.570334 
L 288.290595 191.508745 
L 288.829946 191.321927 
L 289.099622 191.311663 
L 289.369297 191.102262 
L 289.638972 190.546256 
L 290.178323 190.541466 
L 290.447999 190.315984 
L 291.796376 190.166803 
L 292.066051 189.554341 
L 292.335727 188.553873 
L 294.49313 188.508708 
L 295.032481 188.406061 
L 298.538262 188.286306 
L 300.42599 188.267145 
L 300.695665 188.021818 
L 300.96534 187.588646 
L 301.504691 187.339556 
L 303.122744 187.322106 
L 303.392419 186.666874 
L 304.471121 186.516667 
L 305.549823 186.449604 
L 306.089173 186.094445 
L 306.8982 185.988376 
L 307.976901 185.962714 
L 308.246577 185.751945 
L 308.516252 185.72902 
L 309.055603 185.578129 
L 310.40398 185.434423 
L 310.943331 185.086106 
L 312.022033 185.015622 
L 312.831059 184.969773 
L 313.100735 184.619061 
L 314.988463 184.56808 
L 315.258138 184.213947 
L 316.067164 184.126697 
L 317.145866 184.083243 
L 317.415541 184.064766 
L 317.954892 183.822176 
L 319.84262 183.804042 
L 320.112296 183.59909 
L 322.539375 183.484125 
L 323.078725 183.241877 
L 324.427103 183.154627 
L 325.236129 182.926408 
L 325.77548 182.813154 
L 327.393532 182.706743 
L 327.663208 182.58254 
L 327.932883 182.272887 
L 329.550936 182.229433 
L 330.090287 182.026876 
L 330.899313 181.981711 
L 331.978015 181.847243 
L 332.517365 181.735358 
L 336.562497 181.649818 
L 337.371523 181.57557 
L 342.225681 181.512271 
L 342.495356 181.182089 
L 343.034707 181.066782 
L 344.65276 181.024696 
L 344.922435 180.559704 
L 346.810163 180.503591 
L 347.619189 180.320194 
L 347.888865 179.558894 
L 348.697891 179.467538 
L 349.506917 179.452483 
L 349.776593 178.877316 
L 350.315944 178.823597 
L 350.855294 178.586482 
L 352.203672 178.50847 
L 352.473347 176.621129 
L 353.282373 176.500347 
L 353.552049 175.983347 
L 354.0914 175.884464 
L 355.170101 175.750338 
L 355.709452 173.198185 
L 356.248803 173.072271 
L 356.518478 172.778358 
L 357.057829 172.7089 
L 357.327505 172.470758 
L 357.59718 171.982499 
L 358.136531 171.930834 
L 358.406206 170.562888 
L 360.024259 170.274107 
L 360.293934 170.009619 
L 360.56361 167.434542 
L 361.102961 167.368163 
L 361.372636 166.789575 
L 362.451338 166.729697 
L 362.721013 166.722512 
L 362.990689 166.161373 
L 364.608741 165.856511 
L 365.148092 165.723412 
L 365.417767 164.760238 
L 365.957118 164.66375 
L 366.226794 163.844283 
L 367.844846 163.540105 
L 368.114522 162.597118 
L 368.653873 162.520817 
L 368.923548 161.727012 
L 371.080951 161.332846 
L 371.350627 160.927732 
L 371.620302 160.048045 
L 373.777706 159.949503 
L 374.047381 159.822221 
L 375.935109 159.749683 
L 376.47446 159.565945 
L 379.710565 159.375363 
L 379.980241 158.771455 
L 380.249916 158.550079 
L 381.867969 158.511073 
L 382.137644 158.070032 
L 382.407319 156.366088 
L 388.87953 155.444657 
L 389.688556 154.426397 
L 390.767258 154.397997 
L 391.576284 153.606929 
L 392.115635 153.471093 
L 393.194336 153.452274 
L 393.464012 149.597869 
L 395.35174 149.422343 
L 395.621415 149.014833 
L 395.891091 147.722846 
L 397.778819 147.515157 
L 398.048494 147.295491 
L 399.936222 147.149048 
L 400.205898 146.991656 
L 400.475573 146.252937 
L 401.014924 146.182795 
L 401.554275 146.178347 
L 402.093626 145.742096 
L 402.363301 145.705828 
L 402.632976 145.192249 
L 402.902652 141.956808 
L 404.251029 141.858608 
L 404.79038 141.632442 
L 405.060055 140.731541 
L 406.678108 140.547119 
L 407.217459 139.615424 
L 408.835511 139.537412 
L 409.105187 136.780648 
L 409.374862 136.456283 
L 411.26259 136.171608 
L 411.532266 135.488662 
L 412.071616 135.395253 
L 413.150318 135.317241 
L 413.419994 135.170113 
L 413.689669 134.375281 
L 415.038046 134.264422 
L 415.307722 134.244577 
L 415.847072 133.988985 
L 416.925774 133.878126 
L 418.813502 133.614665 
L 419.083178 133.129828 
L 419.622528 133.073029 
L 419.892204 132.699051 
L 420.970906 132.660045 
L 421.240581 131.817311 
L 421.510256 131.473101 
L 421.779932 131.451887 
L 422.049607 131.176108 
L 422.858633 131.083726 
L 423.128309 131.07962 
L 423.397984 130.650212 
L 423.937335 130.330295 
L 424.207011 130.114735 
L 424.476686 128.892549 
L 425.555388 128.822406 
L 425.825063 125.590386 
L 426.094739 125.248571 
L 426.634089 123.49125 
L 426.903765 122.447327 
L 427.982467 122.230399 
L 428.521817 117.667387 
L 429.061168 117.261246 
L 429.330844 80.683921 
L 429.600519 77.064237 
L 429.870195 54.574907 
L 430.13987 51.891365 
L 430.409545 26.395155 
L 430.409545 26.395155 
" style="fill:none;stroke:#1f77b4;stroke-linecap:square;stroke-width:1.5;"/>
   </g>
   <g id="line2d_19">
    <path clip-path="url(#p63ec98c27b)" d="M 89.000455 285.992673 
L 89.539805 270.37195 
L 89.809481 265.710738 
L 90.348832 265.710738 
L 91.157858 261.893286 
L 91.427533 261.643169 
L 91.697209 261.563104 
L 92.23656 261.547365 
L 92.775911 261.549076 
L 93.045586 260.667678 
L 93.584937 253.873798 
L 93.854612 252.852458 
L 94.124288 252.320745 
L 94.393963 252.127768 
L 94.663639 251.722654 
L 95.74234 251.004807 
L 96.281691 250.994885 
L 96.821042 250.873077 
L 98.70877 250.89737 
L 98.978445 250.232558 
L 100.866173 248.623391 
L 103.023577 247.809398 
L 103.562928 247.740625 
L 104.371954 247.571941 
L 107.877734 247.451159 
L 108.417085 246.317249 
L 108.686761 245.63704 
L 109.765462 245.082403 
L 111.11384 244.709793 
L 111.922866 244.45557 
L 113.001568 244.208874 
L 117.855725 243.758595 
L 122.170532 243.626865 
L 122.979558 243.887931 
L 124.327936 243.598123 
L 125.406637 243.46605 
L 131.069821 243.061962 
L 135.114953 242.86488 
L 137.542031 242.794737 
L 141.856838 242.552148 
L 142.126514 242.364303 
L 144.283917 242.238047 
L 148.868399 242.064231 
L 176.914644 241.782978 
L 208.196993 241.574604 
L 256.199219 241.563655 
L 430.409545 241.534229 
L 430.409545 241.534229 
" style="fill:none;stroke:#ff7f0e;stroke-linecap:square;stroke-width:1.5;"/>
   </g>
   <g id="line2d_20">
    <path clip-path="url(#p63ec98c27b)" d="M 89.000455 287.007273 
L 89.539805 268.624209 
L 89.809481 262.743548 
L 90.079156 260.701552 
L 90.618507 252.076445 
L 91.427533 246.047287 
L 91.966884 242.04986 
L 92.775911 238.360034 
L 93.315261 235.357944 
L 94.124288 232.421548 
L 95.472665 229.368818 
L 96.281691 226.836852 
L 96.821042 225.709101 
L 97.360393 223.674975 
L 98.439094 221.797214 
L 98.978445 221.359253 
L 103.293252 213.495446 
L 103.562928 213.416408 
L 105.450656 211.361409 
L 105.720331 210.495409 
L 106.529357 209.409059 
L 109.495787 206.108607 
L 110.035138 205.373995 
L 110.304813 205.14954 
L 111.11384 203.623859 
L 113.001568 200.962216 
L 113.810594 200.502698 
L 114.349945 199.546368 
L 114.889296 199.397187 
L 115.698322 197.987498 
L 115.967997 197.561854 
L 118.664752 195.51062 
L 119.743453 194.758558 
L 120.282804 194.080401 
L 120.822155 193.447752 
L 121.631181 192.907143 
L 122.709883 191.734569 
L 124.867286 189.081138 
L 125.676313 188.163471 
L 126.215664 187.801468 
L 127.02469 187.393959 
L 128.103391 185.851171 
L 128.642742 185.742022 
L 129.182093 184.968062 
L 130.260795 183.644597 
L 131.609172 182.861056 
L 134.305926 181.417835 
L 135.923979 180.270923 
L 136.193654 180.176488 
L 138.620733 178.136545 
L 139.699435 177.003319 
L 140.238786 176.534221 
L 143.474891 174.07753 
L 144.283917 173.859918 
L 145.632294 171.901408 
L 146.441321 171.11992 
L 146.980671 171.060727 
L 147.789698 170.033912 
L 148.598724 169.106323 
L 153.183206 167.138233 
L 157.767688 164.328435 
L 163.161197 160.327587 
L 163.700548 159.91255 
L 164.509574 159.491354 
L 165.048925 159.122166 
L 165.857951 158.962037 
L 166.127627 158.786168 
L 166.936653 157.633781 
L 167.206328 157.466466 
L 167.745679 156.909776 
L 168.824381 155.800843 
L 169.363732 155.221913 
L 169.903083 155.119608 
L 171.790811 153.076585 
L 173.678539 152.397402 
L 178.802372 150.16722 
L 180.959775 148.953587 
L 182.577828 148.083822 
L 185.274582 146.440782 
L 186.892635 145.433812 
L 188.780363 144.110005 
L 190.12874 143.372998 
L 190.398415 143.173862 
L 191.477117 142.987386 
L 192.286143 142.063219 
L 194.443547 140.111894 
L 195.252573 139.223995 
L 195.791924 138.648144 
L 196.061599 138.280667 
L 196.60095 138.218737 
L 198.758353 136.177083 
L 201.185432 135.472238 
L 204.421537 134.417709 
L 207.657643 132.851311 
L 214.669204 129.07834 
L 215.747905 128.392999 
L 216.826607 127.758981 
L 218.714335 126.613095 
L 219.253686 126.277781 
L 220.062712 126.188136 
L 220.332388 126.039981 
L 221.141414 125.244123 
L 223.568493 123.142934 
L 224.91687 121.669603 
L 225.725896 120.956547 
L 226.265247 120.31637 
L 226.804598 120.32903 
L 228.962001 118.315775 
L 232.737457 117.403925 
L 235.164536 116.686421 
L 244.333501 112.493965 
L 246.490904 111.406246 
L 249.727009 109.75123 
L 250.536035 109.300609 
L 251.345062 109.232177 
L 251.614737 109.090524 
L 252.423763 108.229998 
L 254.850842 105.836948 
L 255.659869 105.05067 
L 256.199219 104.584309 
L 257.277921 103.384363 
L 258.895974 101.829941 
L 259.165649 101.784092 
L 260.244351 100.934515 
L 261.323053 100.022323 
L 262.401754 99.777338 
L 266.446886 98.927077 
L 269.682991 97.639196 
L 271.301043 96.975068 
L 275.076499 95.307734 
L 280.470008 92.640958 
L 283.706113 90.986627 
L 284.515139 90.831629 
L 286.402867 89.106471 
L 288.02092 87.45693 
L 289.099622 86.320625 
L 291.5267 83.639478 
L 292.605402 82.195916 
L 294.49313 80.657233 
L 299.616963 79.544537 
L 305.280147 77.590817 
L 312.291708 74.734486 
L 316.876191 72.65759 
L 317.685217 72.565892 
L 322.80905 67.561154 
L 324.696778 65.145522 
L 325.505804 64.046854 
L 326.045155 63.303345 
L 328.202559 61.847465 
L 333.326392 61.041684 
L 336.292821 60.042584 
L 344.65276 56.681229 
L 348.967566 54.597147 
L 350.855294 53.432101 
L 351.933996 52.534964 
L 354.63075 50.145678 
L 355.709452 49.105519 
L 359.484908 45.174471 
L 361.102961 44.274254 
L 364.608741 43.634762 
L 377.013811 40.935139 
L 379.44089 40.315834 
L 381.598293 39.794386 
L 383.216346 39.305101 
L 385.643425 37.82219 
L 389.688556 35.08664 
L 391.845959 33.461392 
L 394.273038 32.814714 
L 398.587845 32.052387 
L 403.711678 31.079976 
L 413.150318 29.112228 
L 416.656099 28.289681 
L 419.892204 27.492112 
L 427.443116 26.633639 
L 430.409545 26.352727 
L 430.409545 26.352727 
" style="fill:none;stroke:#2ca02c;stroke-linecap:square;stroke-width:1.5;"/>
   </g>
   <g id="patch_3">
    <path d="M 71.93 300.04 
L 71.93 13.32 
" style="fill:none;stroke:#000000;stroke-linecap:square;stroke-linejoin:miter;stroke-width:0.8;"/>
   </g>
   <g id="patch_4">
    <path d="M 71.93 300.04 
L 447.48 300.04 
" style="fill:none;stroke:#000000;stroke-linecap:square;stroke-linejoin:miter;stroke-width:0.8;"/>
   </g>
   <g id="legend_1">
    <g id="patch_5">
     <path d="M 324.320625 295.04 
L 440.48 295.04 
Q 442.48 295.04 442.48 293.04 
L 442.48 250.005625 
Q 442.48 248.005625 440.48 248.005625 
L 324.320625 248.005625 
Q 322.320625 248.005625 322.320625 250.005625 
L 322.320625 293.04 
Q 322.320625 295.04 324.320625 295.04 
z
" style="fill:#ffffff;opacity:0.8;stroke:#cccccc;stroke-linejoin:miter;"/>
    </g>
    <g id="line2d_21">
     <path d="M 326.320625 256.104062 
L 346.320625 256.104062 
" style="fill:none;stroke:#1f77b4;stroke-linecap:square;stroke-width:1.5;"/>
    </g>
    <g id="line2d_22"/>
    <g id="text_20">
     <!-- by resolution -->
     <defs>
      <path d="M 9.421875 75.984375 
L 18.40625 75.984375 
L 18.40625 0 
L 9.421875 0 
z
" id="DejaVuSans-6c"/>
      <path d="M 9.421875 54.6875 
L 18.40625 54.6875 
L 18.40625 0 
L 9.421875 0 
z
M 9.421875 75.984375 
L 18.40625 75.984375 
L 18.40625 64.59375 
L 9.421875 64.59375 
z
" id="DejaVuSans-69"/>
      <path d="M 54.890625 33.015625 
L 54.890625 0 
L 45.90625 0 
L 45.90625 32.71875 
Q 45.90625 40.484375 42.875 44.328125 
Q 39.84375 48.1875 33.796875 48.1875 
Q 26.515625 48.1875 22.3125 43.546875 
Q 18.109375 38.921875 18.109375 30.90625 
L 18.109375 0 
L 9.078125 0 
L 9.078125 54.6875 
L 18.109375 54.6875 
L 18.109375 46.1875 
Q 21.34375 51.125 25.703125 53.5625 
Q 30.078125 56 35.796875 56 
Q 45.21875 56 50.046875 50.171875 
Q 54.890625 44.34375 54.890625 33.015625 
z
" id="DejaVuSans-6e"/>
     </defs>
     <g transform="translate(354.320625 259.604062)scale(0.1 -0.1)">
      <use xlink:href="#DejaVuSans-62"/>
      <use x="63.476562" xlink:href="#DejaVuSans-79"/>
      <use x="122.65625" xlink:href="#DejaVuSans-20"/>
      <use x="154.443359" xlink:href="#DejaVuSans-72"/>
      <use x="195.525391" xlink:href="#DejaVuSans-65"/>
      <use x="257.048828" xlink:href="#DejaVuSans-73"/>
      <use x="309.148438" xlink:href="#DejaVuSans-6f"/>
      <use x="370.330078" xlink:href="#DejaVuSans-6c"/>
      <use x="398.113281" xlink:href="#DejaVuSans-75"/>
      <use x="461.492188" xlink:href="#DejaVuSans-74"/>
      <use x="500.701172" xlink:href="#DejaVuSans-69"/>
      <use x="528.484375" xlink:href="#DejaVuSans-6f"/>
      <use x="589.666016" xlink:href="#DejaVuSans-6e"/>
     </g>
    </g>
    <g id="line2d_23">
     <path d="M 326.320625 270.782187 
L 346.320625 270.782187 
" style="fill:none;stroke:#ff7f0e;stroke-linecap:square;stroke-width:1.5;"/>
    </g>
    <g id="line2d_24"/>
    <g id="text_21">
     <!-- by precision -->
     <defs>
      <path d="M 18.109375 8.203125 
L 18.109375 -20.796875 
L 9.078125 -20.796875 
L 9.078125 54.6875 
L 18.109375 54.6875 
L 18.109375 46.390625 
Q 20.953125 51.265625 25.265625 53.625 
Q 29.59375 56 35.59375 56 
Q 45.5625 56 51.78125 48.09375 
Q 58.015625 40.1875 58.015625 27.296875 
Q 58.015625 14.40625 51.78125 6.484375 
Q 45.5625 -1.421875 35.59375 -1.421875 
Q 29.59375 -1.421875 25.265625 0.953125 
Q 20.953125 3.328125 18.109375 8.203125 
z
M 48.6875 27.296875 
Q 48.6875 37.203125 44.609375 42.84375 
Q 40.53125 48.484375 33.40625 48.484375 
Q 26.265625 48.484375 22.1875 42.84375 
Q 18.109375 37.203125 18.109375 27.296875 
Q 18.109375 17.390625 22.1875 11.75 
Q 26.265625 6.109375 33.40625 6.109375 
Q 40.53125 6.109375 44.609375 11.75 
Q 48.6875 17.390625 48.6875 27.296875 
z
" id="DejaVuSans-70"/>
      <path d="M 48.78125 52.59375 
L 48.78125 44.1875 
Q 44.96875 46.296875 41.140625 47.34375 
Q 37.3125 48.390625 33.40625 48.390625 
Q 24.65625 48.390625 19.8125 42.84375 
Q 14.984375 37.3125 14.984375 27.296875 
Q 14.984375 17.28125 19.8125 11.734375 
Q 24.65625 6.203125 33.40625 6.203125 
Q 37.3125 6.203125 41.140625 7.25 
Q 44.96875 8.296875 48.78125 10.40625 
L 48.78125 2.09375 
Q 45.015625 0.34375 40.984375 -0.53125 
Q 36.96875 -1.421875 32.421875 -1.421875 
Q 20.0625 -1.421875 12.78125 6.34375 
Q 5.515625 14.109375 5.515625 27.296875 
Q 5.515625 40.671875 12.859375 48.328125 
Q 20.21875 56 33.015625 56 
Q 37.15625 56 41.109375 55.140625 
Q 45.0625 54.296875 48.78125 52.59375 
z
" id="DejaVuSans-63"/>
     </defs>
     <g transform="translate(354.320625 274.282187)scale(0.1 -0.1)">
      <use xlink:href="#DejaVuSans-62"/>
      <use x="63.476562" xlink:href="#DejaVuSans-79"/>
      <use x="122.65625" xlink:href="#DejaVuSans-20"/>
      <use x="154.443359" xlink:href="#DejaVuSans-70"/>
      <use x="217.919922" xlink:href="#DejaVuSans-72"/>
      <use x="259.001953" xlink:href="#DejaVuSans-65"/>
      <use x="320.525391" xlink:href="#DejaVuSans-63"/>
      <use x="375.505859" xlink:href="#DejaVuSans-69"/>
      <use x="403.289062" xlink:href="#DejaVuSans-73"/>
      <use x="455.388672" xlink:href="#DejaVuSans-69"/>
      <use x="483.171875" xlink:href="#DejaVuSans-6f"/>
      <use x="544.353516" xlink:href="#DejaVuSans-6e"/>
     </g>
    </g>
    <g id="line2d_25">
     <path d="M 326.320625 285.460312 
L 346.320625 285.460312 
" style="fill:none;stroke:#2ca02c;stroke-linecap:square;stroke-width:1.5;"/>
    </g>
    <g id="line2d_26"/>
    <g id="text_22">
     <!-- by wavelet norm -->
     <defs>
      <path d="M 4.203125 54.6875 
L 13.1875 54.6875 
L 24.421875 12.015625 
L 35.59375 54.6875 
L 46.1875 54.6875 
L 57.421875 12.015625 
L 68.609375 54.6875 
L 77.59375 54.6875 
L 63.28125 0 
L 52.6875 0 
L 40.921875 44.828125 
L 29.109375 0 
L 18.5 0 
z
" id="DejaVuSans-77"/>
      <path d="M 2.984375 54.6875 
L 12.5 54.6875 
L 29.59375 8.796875 
L 46.6875 54.6875 
L 56.203125 54.6875 
L 35.6875 0 
L 23.484375 0 
z
" id="DejaVuSans-76"/>
     </defs>
     <g transform="translate(354.320625 288.960312)scale(0.1 -0.1)">
      <use xlink:href="#DejaVuSans-62"/>
      <use x="63.476562" xlink:href="#DejaVuSans-79"/>
      <use x="122.65625" xlink:href="#DejaVuSans-20"/>
      <use x="154.443359" xlink:href="#DejaVuSans-77"/>
      <use x="236.230469" xlink:href="#DejaVuSans-61"/>
      <use x="297.509766" xlink:href="#DejaVuSans-76"/>
      <use x="356.689453" xlink:href="#DejaVuSans-65"/>
      <use x="418.212891" xlink:href="#DejaVuSans-6c"/>
      <use x="445.996094" xlink:href="#DejaVuSans-65"/>
      <use x="507.519531" xlink:href="#DejaVuSans-74"/>
      <use x="546.728516" xlink:href="#DejaVuSans-20"/>
      <use x="578.515625" xlink:href="#DejaVuSans-6e"/>
      <use x="641.894531" xlink:href="#DejaVuSans-6f"/>
      <use x="703.076172" xlink:href="#DejaVuSans-72"/>
      <use x="744.173828" xlink:href="#DejaVuSans-6d"/>
     </g>
    </g>
   </g>
  </g>
 </g>
 <defs>
  <clipPath id="p63ec98c27b">
   <rect height="286.72" width="375.55" x="71.93" y="13.32"/>
  </clipPath>
 </defs>
</svg>
