<?xml version="1.0" encoding="utf-8" standalone="no"?>
<!DOCTYPE svg PUBLIC "-//W3C//DTD SVG 1.1//EN"
  "http://www.w3.org/Graphics/SVG/1.1/DTD/svg11.dtd">
<!-- Created with matplotlib (http://matplotlib.org/) -->
<svg height="345pt" version="1.1" viewBox="0 0 460 345" width="460pt" xmlns="http://www.w3.org/2000/svg" xmlns:xlink="http://www.w3.org/1999/xlink">
 <defs>
  <style type="text/css">
*{stroke-linecap:butt;stroke-linejoin:round;}
  </style>
 </defs>
 <g id="figure_1">
  <g id="patch_1">
   <path d="M 0 345.6 
L 460.8 345.6 
L 460.8 0 
L 0 0 
z
" style="fill:#ffffff;"/>
  </g>
  <g id="axes_1">
   <g id="patch_2">
    <path d="M 71.93 300.04 
L 440.004163 300.04 
L 440.004163 13.32 
L 71.93 13.32 
z
" style="fill:#ffffff;"/>
   </g>
   <g id="matplotlib.axis_1">
    <g id="xtick_1">
     <g id="line2d_1">
      <defs>
       <path d="M 0 0 
L 0 3.5 
" id="m64862b136f" style="stroke:#000000;stroke-width:0.8;"/>
      </defs>
      <g>
       <use style="stroke:#000000;stroke-width:0.8;" x="88.658933" xlink:href="#m64862b136f" y="300.04"/>
      </g>
     </g>
     <g id="text_1">
      <!-- 0 -->
      <defs>
       <path d="M 31.78125 66.40625 
Q 24.171875 66.40625 20.328125 58.90625 
Q 16.5 51.421875 16.5 36.375 
Q 16.5 21.390625 20.328125 13.890625 
Q 24.171875 6.390625 31.78125 6.390625 
Q 39.453125 6.390625 43.28125 13.890625 
Q 47.125 21.390625 47.125 36.375 
Q 47.125 51.421875 43.28125 58.90625 
Q 39.453125 66.40625 31.78125 66.40625 
z
M 31.78125 74.21875 
Q 44.046875 74.21875 50.515625 64.515625 
Q 56.984375 54.828125 56.984375 36.375 
Q 56.984375 17.96875 50.515625 8.265625 
Q 44.046875 -1.421875 31.78125 -1.421875 
Q 19.53125 -1.421875 13.0625 8.265625 
Q 6.59375 17.96875 6.59375 36.375 
Q 6.59375 54.828125 13.0625 64.515625 
Q 19.53125 74.21875 31.78125 74.21875 
z
" id="DejaVuSans-30"/>
      </defs>
      <g transform="translate(85.477683 314.638437)scale(0.1 -0.1)">
       <use xlink:href="#DejaVuSans-30"/>
      </g>
     </g>
    </g>
    <g id="xtick_2">
     <g id="line2d_2">
      <g>
       <use style="stroke:#000000;stroke-width:0.8;" x="131.429926" xlink:href="#m64862b136f" y="300.04"/>
      </g>
     </g>
     <g id="text_2">
      <!-- 50000 -->
      <defs>
       <path d="M 10.796875 72.90625 
L 49.515625 72.90625 
L 49.515625 64.59375 
L 19.828125 64.59375 
L 19.828125 46.734375 
Q 21.96875 47.46875 24.109375 47.828125 
Q 26.265625 48.1875 28.421875 48.1875 
Q 40.625 48.1875 47.75 41.5 
Q 54.890625 34.8125 54.890625 23.390625 
Q 54.890625 11.625 47.5625 5.09375 
Q 40.234375 -1.421875 26.90625 -1.421875 
Q 22.3125 -1.421875 17.546875 -0.640625 
Q 12.796875 0.140625 7.71875 1.703125 
L 7.71875 11.625 
Q 12.109375 9.234375 16.796875 8.0625 
Q 21.484375 6.890625 26.703125 6.890625 
Q 35.15625 6.890625 40.078125 11.328125 
Q 45.015625 15.765625 45.015625 23.390625 
Q 45.015625 31 40.078125 35.4375 
Q 35.15625 39.890625 26.703125 39.890625 
Q 22.75 39.890625 18.8125 39.015625 
Q 14.890625 38.140625 10.796875 36.28125 
z
" id="DejaVuSans-35"/>
      </defs>
      <g transform="translate(115.523676 314.638437)scale(0.1 -0.1)">
       <use xlink:href="#DejaVuSans-35"/>
       <use x="63.623047" xlink:href="#DejaVuSans-30"/>
       <use x="127.246094" xlink:href="#DejaVuSans-30"/>
       <use x="190.869141" xlink:href="#DejaVuSans-30"/>
       <use x="254.492188" xlink:href="#DejaVuSans-30"/>
      </g>
     </g>
    </g>
    <g id="xtick_3">
     <g id="line2d_3">
      <g>
       <use style="stroke:#000000;stroke-width:0.8;" x="174.200919" xlink:href="#m64862b136f" y="300.04"/>
      </g>
     </g>
     <g id="text_3">
      <!-- 100000 -->
      <defs>
       <path d="M 12.40625 8.296875 
L 28.515625 8.296875 
L 28.515625 63.921875 
L 10.984375 60.40625 
L 10.984375 69.390625 
L 28.421875 72.90625 
L 38.28125 72.90625 
L 38.28125 8.296875 
L 54.390625 8.296875 
L 54.390625 0 
L 12.40625 0 
z
" id="DejaVuSans-31"/>
      </defs>
      <g transform="translate(155.113419 314.638437)scale(0.1 -0.1)">
       <use xlink:href="#DejaVuSans-31"/>
       <use x="63.623047" xlink:href="#DejaVuSans-30"/>
       <use x="127.246094" xlink:href="#DejaVuSans-30"/>
       <use x="190.869141" xlink:href="#DejaVuSans-30"/>
       <use x="254.492188" xlink:href="#DejaVuSans-30"/>
       <use x="318.115234" xlink:href="#DejaVuSans-30"/>
      </g>
     </g>
    </g>
    <g id="xtick_4">
     <g id="line2d_4">
      <g>
       <use style="stroke:#000000;stroke-width:0.8;" x="216.971912" xlink:href="#m64862b136f" y="300.04"/>
      </g>
     </g>
     <g id="text_4">
      <!-- 150000 -->
      <g transform="translate(197.884412 314.638437)scale(0.1 -0.1)">
       <use xlink:href="#DejaVuSans-31"/>
       <use x="63.623047" xlink:href="#DejaVuSans-35"/>
       <use x="127.246094" xlink:href="#DejaVuSans-30"/>
       <use x="190.869141" xlink:href="#DejaVuSans-30"/>
       <use x="254.492188" xlink:href="#DejaVuSans-30"/>
       <use x="318.115234" xlink:href="#DejaVuSans-30"/>
      </g>
     </g>
    </g>
    <g id="xtick_5">
     <g id="line2d_5">
      <g>
       <use style="stroke:#000000;stroke-width:0.8;" x="259.742905" xlink:href="#m64862b136f" y="300.04"/>
      </g>
     </g>
     <g id="text_5">
      <!-- 200000 -->
      <defs>
       <path d="M 19.1875 8.296875 
L 53.609375 8.296875 
L 53.609375 0 
L 7.328125 0 
L 7.328125 8.296875 
Q 12.9375 14.109375 22.625 23.890625 
Q 32.328125 33.6875 34.8125 36.53125 
Q 39.546875 41.84375 41.421875 45.53125 
Q 43.3125 49.21875 43.3125 52.78125 
Q 43.3125 58.59375 39.234375 62.25 
Q 35.15625 65.921875 28.609375 65.921875 
Q 23.96875 65.921875 18.8125 64.3125 
Q 13.671875 62.703125 7.8125 59.421875 
L 7.8125 69.390625 
Q 13.765625 71.78125 18.9375 73 
Q 24.125 74.21875 28.421875 74.21875 
Q 39.75 74.21875 46.484375 68.546875 
Q 53.21875 62.890625 53.21875 53.421875 
Q 53.21875 48.921875 51.53125 44.890625 
Q 49.859375 40.875 45.40625 35.40625 
Q 44.1875 33.984375 37.640625 27.21875 
Q 31.109375 20.453125 19.1875 8.296875 
z
" id="DejaVuSans-32"/>
      </defs>
      <g transform="translate(240.655405 314.638437)scale(0.1 -0.1)">
       <use xlink:href="#DejaVuSans-32"/>
       <use x="63.623047" xlink:href="#DejaVuSans-30"/>
       <use x="127.246094" xlink:href="#DejaVuSans-30"/>
       <use x="190.869141" xlink:href="#DejaVuSans-30"/>
       <use x="254.492188" xlink:href="#DejaVuSans-30"/>
       <use x="318.115234" xlink:href="#DejaVuSans-30"/>
      </g>
     </g>
    </g>
    <g id="xtick_6">
     <g id="line2d_6">
      <g>
       <use style="stroke:#000000;stroke-width:0.8;" x="302.513898" xlink:href="#m64862b136f" y="300.04"/>
      </g>
     </g>
     <g id="text_6">
      <!-- 250000 -->
      <g transform="translate(283.426398 314.638437)scale(0.1 -0.1)">
       <use xlink:href="#DejaVuSans-32"/>
       <use x="63.623047" xlink:href="#DejaVuSans-35"/>
       <use x="127.246094" xlink:href="#DejaVuSans-30"/>
       <use x="190.869141" xlink:href="#DejaVuSans-30"/>
       <use x="254.492188" xlink:href="#DejaVuSans-30"/>
       <use x="318.115234" xlink:href="#DejaVuSans-30"/>
      </g>
     </g>
    </g>
    <g id="xtick_7">
     <g id="line2d_7">
      <g>
       <use style="stroke:#000000;stroke-width:0.8;" x="345.284891" xlink:href="#m64862b136f" y="300.04"/>
      </g>
     </g>
     <g id="text_7">
      <!-- 300000 -->
      <defs>
       <path d="M 40.578125 39.3125 
Q 47.65625 37.796875 51.625 33 
Q 55.609375 28.21875 55.609375 21.1875 
Q 55.609375 10.40625 48.1875 4.484375 
Q 40.765625 -1.421875 27.09375 -1.421875 
Q 22.515625 -1.421875 17.65625 -0.515625 
Q 12.796875 0.390625 7.625 2.203125 
L 7.625 11.71875 
Q 11.71875 9.328125 16.59375 8.109375 
Q 21.484375 6.890625 26.8125 6.890625 
Q 36.078125 6.890625 40.9375 10.546875 
Q 45.796875 14.203125 45.796875 21.1875 
Q 45.796875 27.640625 41.28125 31.265625 
Q 36.765625 34.90625 28.71875 34.90625 
L 20.21875 34.90625 
L 20.21875 43.015625 
L 29.109375 43.015625 
Q 36.375 43.015625 40.234375 45.921875 
Q 44.09375 48.828125 44.09375 54.296875 
Q 44.09375 59.90625 40.109375 62.90625 
Q 36.140625 65.921875 28.71875 65.921875 
Q 24.65625 65.921875 20.015625 65.03125 
Q 15.375 64.15625 9.8125 62.3125 
L 9.8125 71.09375 
Q 15.4375 72.65625 20.34375 73.4375 
Q 25.25 74.21875 29.59375 74.21875 
Q 40.828125 74.21875 47.359375 69.109375 
Q 53.90625 64.015625 53.90625 55.328125 
Q 53.90625 49.265625 50.4375 45.09375 
Q 46.96875 40.921875 40.578125 39.3125 
z
" id="DejaVuSans-33"/>
      </defs>
      <g transform="translate(326.197391 314.638437)scale(0.1 -0.1)">
       <use xlink:href="#DejaVuSans-33"/>
       <use x="63.623047" xlink:href="#DejaVuSans-30"/>
       <use x="127.246094" xlink:href="#DejaVuSans-30"/>
       <use x="190.869141" xlink:href="#DejaVuSans-30"/>
       <use x="254.492188" xlink:href="#DejaVuSans-30"/>
       <use x="318.115234" xlink:href="#DejaVuSans-30"/>
      </g>
     </g>
    </g>
    <g id="xtick_8">
     <g id="line2d_8">
      <g>
       <use style="stroke:#000000;stroke-width:0.8;" x="388.055884" xlink:href="#m64862b136f" y="300.04"/>
      </g>
     </g>
     <g id="text_8">
      <!-- 350000 -->
      <g transform="translate(368.968384 314.638437)scale(0.1 -0.1)">
       <use xlink:href="#DejaVuSans-33"/>
       <use x="63.623047" xlink:href="#DejaVuSans-35"/>
       <use x="127.246094" xlink:href="#DejaVuSans-30"/>
       <use x="190.869141" xlink:href="#DejaVuSans-30"/>
       <use x="254.492188" xlink:href="#DejaVuSans-30"/>
       <use x="318.115234" xlink:href="#DejaVuSans-30"/>
      </g>
     </g>
    </g>
    <g id="xtick_9">
     <g id="line2d_9">
      <g>
       <use style="stroke:#000000;stroke-width:0.8;" x="430.826877" xlink:href="#m64862b136f" y="300.04"/>
      </g>
     </g>
     <g id="text_9">
      <!-- 400000 -->
      <defs>
       <path d="M 37.796875 64.3125 
L 12.890625 25.390625 
L 37.796875 25.390625 
z
M 35.203125 72.90625 
L 47.609375 72.90625 
L 47.609375 25.390625 
L 58.015625 25.390625 
L 58.015625 17.1875 
L 47.609375 17.1875 
L 47.609375 0 
L 37.796875 0 
L 37.796875 17.1875 
L 4.890625 17.1875 
L 4.890625 26.703125 
z
" id="DejaVuSans-34"/>
      </defs>
      <g transform="translate(411.739377 314.638437)scale(0.1 -0.1)">
       <use xlink:href="#DejaVuSans-34"/>
       <use x="63.623047" xlink:href="#DejaVuSans-30"/>
       <use x="127.246094" xlink:href="#DejaVuSans-30"/>
       <use x="190.869141" xlink:href="#DejaVuSans-30"/>
       <use x="254.492188" xlink:href="#DejaVuSans-30"/>
       <use x="318.115234" xlink:href="#DejaVuSans-30"/>
      </g>
     </g>
    </g>
    <g id="text_10">
     <!-- Number of Streamed Bytes -->
     <defs>
      <path d="M 9.8125 72.90625 
L 23.09375 72.90625 
L 55.421875 11.921875 
L 55.421875 72.90625 
L 64.984375 72.90625 
L 64.984375 0 
L 51.703125 0 
L 19.390625 60.984375 
L 19.390625 0 
L 9.8125 0 
z
" id="DejaVuSans-4e"/>
      <path d="M 8.5 21.578125 
L 8.5 54.6875 
L 17.484375 54.6875 
L 17.484375 21.921875 
Q 17.484375 14.15625 20.5 10.265625 
Q 23.53125 6.390625 29.59375 6.390625 
Q 36.859375 6.390625 41.078125 11.03125 
Q 45.3125 15.671875 45.3125 23.6875 
L 45.3125 54.6875 
L 54.296875 54.6875 
L 54.296875 0 
L 45.3125 0 
L 45.3125 8.40625 
Q 42.046875 3.421875 37.71875 1 
Q 33.40625 -1.421875 27.6875 -1.421875 
Q 18.265625 -1.421875 13.375 4.4375 
Q 8.5 10.296875 8.5 21.578125 
z
M 31.109375 56 
z
" id="DejaVuSans-75"/>
      <path d="M 52 44.1875 
Q 55.375 50.25 60.0625 53.125 
Q 64.75 56 71.09375 56 
Q 79.640625 56 84.28125 50.015625 
Q 88.921875 44.046875 88.921875 33.015625 
L 88.921875 0 
L 79.890625 0 
L 79.890625 32.71875 
Q 79.890625 40.578125 77.09375 44.375 
Q 74.3125 48.1875 68.609375 48.1875 
Q 61.625 48.1875 57.5625 43.546875 
Q 53.515625 38.921875 53.515625 30.90625 
L 53.515625 0 
L 44.484375 0 
L 44.484375 32.71875 
Q 44.484375 40.625 41.703125 44.40625 
Q 38.921875 48.1875 33.109375 48.1875 
Q 26.21875 48.1875 22.15625 43.53125 
Q 18.109375 38.875 18.109375 30.90625 
L 18.109375 0 
L 9.078125 0 
L 9.078125 54.6875 
L 18.109375 54.6875 
L 18.109375 46.1875 
Q 21.1875 51.21875 25.484375 53.609375 
Q 29.78125 56 35.6875 56 
Q 41.65625 56 45.828125 52.96875 
Q 50 49.953125 52 44.1875 
z
" id="DejaVuSans-6d"/>
      <path d="M 48.6875 27.296875 
Q 48.6875 37.203125 44.609375 42.84375 
Q 40.53125 48.484375 33.40625 48.484375 
Q 26.265625 48.484375 22.1875 42.84375 
Q 18.109375 37.203125 18.109375 27.296875 
Q 18.109375 17.390625 22.1875 11.75 
Q 26.265625 6.109375 33.40625 6.109375 
Q 40.53125 6.109375 44.609375 11.75 
Q 48.6875 17.390625 48.6875 27.296875 
z
M 18.109375 46.390625 
Q 20.953125 51.265625 25.265625 53.625 
Q 29.59375 56 35.59375 56 
Q 45.5625 56 51.78125 48.09375 
Q 58.015625 40.1875 58.015625 27.296875 
Q 58.015625 14.40625 51.78125 6.484375 
Q 45.5625 -1.421875 35.59375 -1.421875 
Q 29.59375 -1.421875 25.265625 0.953125 
Q 20.953125 3.328125 18.109375 8.203125 
L 18.109375 0 
L 9.078125 0 
L 9.078125 75.984375 
L 18.109375 75.984375 
z
" id="DejaVuSans-62"/>
      <path d="M 56.203125 29.59375 
L 56.203125 25.203125 
L 14.890625 25.203125 
Q 15.484375 15.921875 20.484375 11.0625 
Q 25.484375 6.203125 34.421875 6.203125 
Q 39.59375 6.203125 44.453125 7.46875 
Q 49.3125 8.734375 54.109375 11.28125 
L 54.109375 2.78125 
Q 49.265625 0.734375 44.1875 -0.34375 
Q 39.109375 -1.421875 33.890625 -1.421875 
Q 20.796875 -1.421875 13.15625 6.1875 
Q 5.515625 13.8125 5.515625 26.8125 
Q 5.515625 40.234375 12.765625 48.109375 
Q 20.015625 56 32.328125 56 
Q 43.359375 56 49.78125 48.890625 
Q 56.203125 41.796875 56.203125 29.59375 
z
M 47.21875 32.234375 
Q 47.125 39.59375 43.09375 43.984375 
Q 39.0625 48.390625 32.421875 48.390625 
Q 24.90625 48.390625 20.390625 44.140625 
Q 15.875 39.890625 15.1875 32.171875 
z
" id="DejaVuSans-65"/>
      <path d="M 41.109375 46.296875 
Q 39.59375 47.171875 37.8125 47.578125 
Q 36.03125 48 33.890625 48 
Q 26.265625 48 22.1875 43.046875 
Q 18.109375 38.09375 18.109375 28.8125 
L 18.109375 0 
L 9.078125 0 
L 9.078125 54.6875 
L 18.109375 54.6875 
L 18.109375 46.1875 
Q 20.953125 51.171875 25.484375 53.578125 
Q 30.03125 56 36.53125 56 
Q 37.453125 56 38.578125 55.875 
Q 39.703125 55.765625 41.0625 55.515625 
z
" id="DejaVuSans-72"/>
      <path id="DejaVuSans-20"/>
      <path d="M 30.609375 48.390625 
Q 23.390625 48.390625 19.1875 42.75 
Q 14.984375 37.109375 14.984375 27.296875 
Q 14.984375 17.484375 19.15625 11.84375 
Q 23.34375 6.203125 30.609375 6.203125 
Q 37.796875 6.203125 41.984375 11.859375 
Q 46.1875 17.53125 46.1875 27.296875 
Q 46.1875 37.015625 41.984375 42.703125 
Q 37.796875 48.390625 30.609375 48.390625 
z
M 30.609375 56 
Q 42.328125 56 49.015625 48.375 
Q 55.71875 40.765625 55.71875 27.296875 
Q 55.71875 13.875 49.015625 6.21875 
Q 42.328125 -1.421875 30.609375 -1.421875 
Q 18.84375 -1.421875 12.171875 6.21875 
Q 5.515625 13.875 5.515625 27.296875 
Q 5.515625 40.765625 12.171875 48.375 
Q 18.84375 56 30.609375 56 
z
" id="DejaVuSans-6f"/>
      <path d="M 37.109375 75.984375 
L 37.109375 68.5 
L 28.515625 68.5 
Q 23.6875 68.5 21.796875 66.546875 
Q 19.921875 64.59375 19.921875 59.515625 
L 19.921875 54.6875 
L 34.71875 54.6875 
L 34.71875 47.703125 
L 19.921875 47.703125 
L 19.921875 0 
L 10.890625 0 
L 10.890625 47.703125 
L 2.296875 47.703125 
L 2.296875 54.6875 
L 10.890625 54.6875 
L 10.890625 58.5 
Q 10.890625 67.625 15.140625 71.796875 
Q 19.390625 75.984375 28.609375 75.984375 
z
" id="DejaVuSans-66"/>
      <path d="M 53.515625 70.515625 
L 53.515625 60.890625 
Q 47.90625 63.578125 42.921875 64.890625 
Q 37.9375 66.21875 33.296875 66.21875 
Q 25.25 66.21875 20.875 63.09375 
Q 16.5 59.96875 16.5 54.203125 
Q 16.5 49.359375 19.40625 46.890625 
Q 22.3125 44.4375 30.421875 42.921875 
L 36.375 41.703125 
Q 47.40625 39.59375 52.65625 34.296875 
Q 57.90625 29 57.90625 20.125 
Q 57.90625 9.515625 50.796875 4.046875 
Q 43.703125 -1.421875 29.984375 -1.421875 
Q 24.8125 -1.421875 18.96875 -0.25 
Q 13.140625 0.921875 6.890625 3.21875 
L 6.890625 13.375 
Q 12.890625 10.015625 18.65625 8.296875 
Q 24.421875 6.59375 29.984375 6.59375 
Q 38.421875 6.59375 43.015625 9.90625 
Q 47.609375 13.234375 47.609375 19.390625 
Q 47.609375 24.75 44.3125 27.78125 
Q 41.015625 30.8125 33.5 32.328125 
L 27.484375 33.5 
Q 16.453125 35.6875 11.515625 40.375 
Q 6.59375 45.0625 6.59375 53.421875 
Q 6.59375 63.09375 13.40625 68.65625 
Q 20.21875 74.21875 32.171875 74.21875 
Q 37.3125 74.21875 42.625 73.28125 
Q 47.953125 72.359375 53.515625 70.515625 
z
" id="DejaVuSans-53"/>
      <path d="M 18.3125 70.21875 
L 18.3125 54.6875 
L 36.8125 54.6875 
L 36.8125 47.703125 
L 18.3125 47.703125 
L 18.3125 18.015625 
Q 18.3125 11.328125 20.140625 9.421875 
Q 21.96875 7.515625 27.59375 7.515625 
L 36.8125 7.515625 
L 36.8125 0 
L 27.59375 0 
Q 17.1875 0 13.234375 3.875 
Q 9.28125 7.765625 9.28125 18.015625 
L 9.28125 47.703125 
L 2.6875 47.703125 
L 2.6875 54.6875 
L 9.28125 54.6875 
L 9.28125 70.21875 
z
" id="DejaVuSans-74"/>
      <path d="M 34.28125 27.484375 
Q 23.390625 27.484375 19.1875 25 
Q 14.984375 22.515625 14.984375 16.5 
Q 14.984375 11.71875 18.140625 8.90625 
Q 21.296875 6.109375 26.703125 6.109375 
Q 34.1875 6.109375 38.703125 11.40625 
Q 43.21875 16.703125 43.21875 25.484375 
L 43.21875 27.484375 
z
M 52.203125 31.203125 
L 52.203125 0 
L 43.21875 0 
L 43.21875 8.296875 
Q 40.140625 3.328125 35.546875 0.953125 
Q 30.953125 -1.421875 24.3125 -1.421875 
Q 15.921875 -1.421875 10.953125 3.296875 
Q 6 8.015625 6 15.921875 
Q 6 25.140625 12.171875 29.828125 
Q 18.359375 34.515625 30.609375 34.515625 
L 43.21875 34.515625 
L 43.21875 35.40625 
Q 43.21875 41.609375 39.140625 45 
Q 35.0625 48.390625 27.6875 48.390625 
Q 23 48.390625 18.546875 47.265625 
Q 14.109375 46.140625 10.015625 43.890625 
L 10.015625 52.203125 
Q 14.9375 54.109375 19.578125 55.046875 
Q 24.21875 56 28.609375 56 
Q 40.484375 56 46.34375 49.84375 
Q 52.203125 43.703125 52.203125 31.203125 
z
" id="DejaVuSans-61"/>
      <path d="M 45.40625 46.390625 
L 45.40625 75.984375 
L 54.390625 75.984375 
L 54.390625 0 
L 45.40625 0 
L 45.40625 8.203125 
Q 42.578125 3.328125 38.25 0.953125 
Q 33.9375 -1.421875 27.875 -1.421875 
Q 17.96875 -1.421875 11.734375 6.484375 
Q 5.515625 14.40625 5.515625 27.296875 
Q 5.515625 40.1875 11.734375 48.09375 
Q 17.96875 56 27.875 56 
Q 33.9375 56 38.25 53.625 
Q 42.578125 51.265625 45.40625 46.390625 
z
M 14.796875 27.296875 
Q 14.796875 17.390625 18.875 11.75 
Q 22.953125 6.109375 30.078125 6.109375 
Q 37.203125 6.109375 41.296875 11.75 
Q 45.40625 17.390625 45.40625 27.296875 
Q 45.40625 37.203125 41.296875 42.84375 
Q 37.203125 48.484375 30.078125 48.484375 
Q 22.953125 48.484375 18.875 42.84375 
Q 14.796875 37.203125 14.796875 27.296875 
z
" id="DejaVuSans-64"/>
      <path d="M 19.671875 34.8125 
L 19.671875 8.109375 
L 35.5 8.109375 
Q 43.453125 8.109375 47.28125 11.40625 
Q 51.125 14.703125 51.125 21.484375 
Q 51.125 28.328125 47.28125 31.5625 
Q 43.453125 34.8125 35.5 34.8125 
z
M 19.671875 64.796875 
L 19.671875 42.828125 
L 34.28125 42.828125 
Q 41.5 42.828125 45.03125 45.53125 
Q 48.578125 48.25 48.578125 53.8125 
Q 48.578125 59.328125 45.03125 62.0625 
Q 41.5 64.796875 34.28125 64.796875 
z
M 9.8125 72.90625 
L 35.015625 72.90625 
Q 46.296875 72.90625 52.390625 68.21875 
Q 58.5 63.53125 58.5 54.890625 
Q 58.5 48.1875 55.375 44.234375 
Q 52.25 40.28125 46.1875 39.3125 
Q 53.46875 37.75 57.5 32.78125 
Q 61.53125 27.828125 61.53125 20.40625 
Q 61.53125 10.640625 54.890625 5.3125 
Q 48.25 0 35.984375 0 
L 9.8125 0 
z
" id="DejaVuSans-42"/>
      <path d="M 32.171875 -5.078125 
Q 28.375 -14.84375 24.75 -17.8125 
Q 21.140625 -20.796875 15.09375 -20.796875 
L 7.90625 -20.796875 
L 7.90625 -13.28125 
L 13.1875 -13.28125 
Q 16.890625 -13.28125 18.9375 -11.515625 
Q 21 -9.765625 23.484375 -3.21875 
L 25.09375 0.875 
L 2.984375 54.6875 
L 12.5 54.6875 
L 29.59375 11.921875 
L 46.6875 54.6875 
L 56.203125 54.6875 
z
" id="DejaVuSans-79"/>
      <path d="M 44.28125 53.078125 
L 44.28125 44.578125 
Q 40.484375 46.53125 36.375 47.5 
Q 32.28125 48.484375 27.875 48.484375 
Q 21.1875 48.484375 17.84375 46.4375 
Q 14.5 44.390625 14.5 40.28125 
Q 14.5 37.15625 16.890625 35.375 
Q 19.28125 33.59375 26.515625 31.984375 
L 29.59375 31.296875 
Q 39.15625 29.25 43.1875 25.515625 
Q 47.21875 21.78125 47.21875 15.09375 
Q 47.21875 7.46875 41.1875 3.015625 
Q 35.15625 -1.421875 24.609375 -1.421875 
Q 20.21875 -1.421875 15.453125 -0.5625 
Q 10.6875 0.296875 5.421875 2 
L 5.421875 11.28125 
Q 10.40625 8.6875 15.234375 7.390625 
Q 20.0625 6.109375 24.8125 6.109375 
Q 31.15625 6.109375 34.5625 8.28125 
Q 37.984375 10.453125 37.984375 14.40625 
Q 37.984375 18.0625 35.515625 20.015625 
Q 33.0625 21.96875 24.703125 23.78125 
L 21.578125 24.515625 
Q 13.234375 26.265625 9.515625 29.90625 
Q 5.8125 33.546875 5.8125 39.890625 
Q 5.8125 47.609375 11.28125 51.796875 
Q 16.75 56 26.8125 56 
Q 31.78125 56 36.171875 55.265625 
Q 40.578125 54.546875 44.28125 53.078125 
z
" id="DejaVuSans-73"/>
     </defs>
     <g transform="translate(160.551613 331.355937)scale(0.14 -0.14)">
      <use xlink:href="#DejaVuSans-4e"/>
      <use x="74.804688" xlink:href="#DejaVuSans-75"/>
      <use x="138.183594" xlink:href="#DejaVuSans-6d"/>
      <use x="235.595703" xlink:href="#DejaVuSans-62"/>
      <use x="299.072266" xlink:href="#DejaVuSans-65"/>
      <use x="360.595703" xlink:href="#DejaVuSans-72"/>
      <use x="401.708984" xlink:href="#DejaVuSans-20"/>
      <use x="433.496094" xlink:href="#DejaVuSans-6f"/>
      <use x="494.677734" xlink:href="#DejaVuSans-66"/>
      <use x="529.882812" xlink:href="#DejaVuSans-20"/>
      <use x="561.669922" xlink:href="#DejaVuSans-53"/>
      <use x="625.146484" xlink:href="#DejaVuSans-74"/>
      <use x="664.355469" xlink:href="#DejaVuSans-72"/>
      <use x="705.4375" xlink:href="#DejaVuSans-65"/>
      <use x="766.960938" xlink:href="#DejaVuSans-61"/>
      <use x="828.240234" xlink:href="#DejaVuSans-6d"/>
      <use x="925.652344" xlink:href="#DejaVuSans-65"/>
      <use x="987.175781" xlink:href="#DejaVuSans-64"/>
      <use x="1050.652344" xlink:href="#DejaVuSans-20"/>
      <use x="1082.439453" xlink:href="#DejaVuSans-42"/>
      <use x="1151.042969" xlink:href="#DejaVuSans-79"/>
      <use x="1210.222656" xlink:href="#DejaVuSans-74"/>
      <use x="1249.431641" xlink:href="#DejaVuSans-65"/>
      <use x="1310.955078" xlink:href="#DejaVuSans-73"/>
     </g>
    </g>
   </g>
   <g id="matplotlib.axis_2">
    <g id="ytick_1">
     <g id="line2d_10">
      <defs>
       <path d="M 0 0 
L -3.5 0 
" id="md4e64bc033" style="stroke:#000000;stroke-width:0.8;"/>
      </defs>
      <g>
       <use style="stroke:#000000;stroke-width:0.8;" x="71.93" xlink:href="#md4e64bc033" y="268.557843"/>
      </g>
     </g>
     <g id="text_11">
      <!-- 20 -->
      <g transform="translate(52.205 272.357061)scale(0.1 -0.1)">
       <use xlink:href="#DejaVuSans-32"/>
       <use x="63.623047" xlink:href="#DejaVuSans-30"/>
      </g>
     </g>
    </g>
    <g id="ytick_2">
     <g id="line2d_11">
      <g>
       <use style="stroke:#000000;stroke-width:0.8;" x="71.93" xlink:href="#md4e64bc033" y="235.894734"/>
      </g>
     </g>
     <g id="text_12">
      <!-- 30 -->
      <g transform="translate(52.205 239.693953)scale(0.1 -0.1)">
       <use xlink:href="#DejaVuSans-33"/>
       <use x="63.623047" xlink:href="#DejaVuSans-30"/>
      </g>
     </g>
    </g>
    <g id="ytick_3">
     <g id="line2d_12">
      <g>
       <use style="stroke:#000000;stroke-width:0.8;" x="71.93" xlink:href="#md4e64bc033" y="203.231626"/>
      </g>
     </g>
     <g id="text_13">
      <!-- 40 -->
      <g transform="translate(52.205 207.030844)scale(0.1 -0.1)">
       <use xlink:href="#DejaVuSans-34"/>
       <use x="63.623047" xlink:href="#DejaVuSans-30"/>
      </g>
     </g>
    </g>
    <g id="ytick_4">
     <g id="line2d_13">
      <g>
       <use style="stroke:#000000;stroke-width:0.8;" x="71.93" xlink:href="#md4e64bc033" y="170.568517"/>
      </g>
     </g>
     <g id="text_14">
      <!-- 50 -->
      <g transform="translate(52.205 174.367736)scale(0.1 -0.1)">
       <use xlink:href="#DejaVuSans-35"/>
       <use x="63.623047" xlink:href="#DejaVuSans-30"/>
      </g>
     </g>
    </g>
    <g id="ytick_5">
     <g id="line2d_14">
      <g>
       <use style="stroke:#000000;stroke-width:0.8;" x="71.93" xlink:href="#md4e64bc033" y="137.905409"/>
      </g>
     </g>
     <g id="text_15">
      <!-- 60 -->
      <defs>
       <path d="M 33.015625 40.375 
Q 26.375 40.375 22.484375 35.828125 
Q 18.609375 31.296875 18.609375 23.390625 
Q 18.609375 15.53125 22.484375 10.953125 
Q 26.375 6.390625 33.015625 6.390625 
Q 39.65625 6.390625 43.53125 10.953125 
Q 47.40625 15.53125 47.40625 23.390625 
Q 47.40625 31.296875 43.53125 35.828125 
Q 39.65625 40.375 33.015625 40.375 
z
M 52.59375 71.296875 
L 52.59375 62.3125 
Q 48.875 64.0625 45.09375 64.984375 
Q 41.3125 65.921875 37.59375 65.921875 
Q 27.828125 65.921875 22.671875 59.328125 
Q 17.53125 52.734375 16.796875 39.40625 
Q 19.671875 43.65625 24.015625 45.921875 
Q 28.375 48.1875 33.59375 48.1875 
Q 44.578125 48.1875 50.953125 41.515625 
Q 57.328125 34.859375 57.328125 23.390625 
Q 57.328125 12.15625 50.6875 5.359375 
Q 44.046875 -1.421875 33.015625 -1.421875 
Q 20.359375 -1.421875 13.671875 8.265625 
Q 6.984375 17.96875 6.984375 36.375 
Q 6.984375 53.65625 15.1875 63.9375 
Q 23.390625 74.21875 37.203125 74.21875 
Q 40.921875 74.21875 44.703125 73.484375 
Q 48.484375 72.75 52.59375 71.296875 
z
" id="DejaVuSans-36"/>
      </defs>
      <g transform="translate(52.205 141.704627)scale(0.1 -0.1)">
       <use xlink:href="#DejaVuSans-36"/>
       <use x="63.623047" xlink:href="#DejaVuSans-30"/>
      </g>
     </g>
    </g>
    <g id="ytick_6">
     <g id="line2d_15">
      <g>
       <use style="stroke:#000000;stroke-width:0.8;" x="71.93" xlink:href="#md4e64bc033" y="105.2423"/>
      </g>
     </g>
     <g id="text_16">
      <!-- 70 -->
      <defs>
       <path d="M 8.203125 72.90625 
L 55.078125 72.90625 
L 55.078125 68.703125 
L 28.609375 0 
L 18.3125 0 
L 43.21875 64.59375 
L 8.203125 64.59375 
z
" id="DejaVuSans-37"/>
      </defs>
      <g transform="translate(52.205 109.041519)scale(0.1 -0.1)">
       <use xlink:href="#DejaVuSans-37"/>
       <use x="63.623047" xlink:href="#DejaVuSans-30"/>
      </g>
     </g>
    </g>
    <g id="ytick_7">
     <g id="line2d_16">
      <g>
       <use style="stroke:#000000;stroke-width:0.8;" x="71.93" xlink:href="#md4e64bc033" y="72.579192"/>
      </g>
     </g>
     <g id="text_17">
      <!-- 80 -->
      <defs>
       <path d="M 31.78125 34.625 
Q 24.75 34.625 20.71875 30.859375 
Q 16.703125 27.09375 16.703125 20.515625 
Q 16.703125 13.921875 20.71875 10.15625 
Q 24.75 6.390625 31.78125 6.390625 
Q 38.8125 6.390625 42.859375 10.171875 
Q 46.921875 13.96875 46.921875 20.515625 
Q 46.921875 27.09375 42.890625 30.859375 
Q 38.875 34.625 31.78125 34.625 
z
M 21.921875 38.8125 
Q 15.578125 40.375 12.03125 44.71875 
Q 8.5 49.078125 8.5 55.328125 
Q 8.5 64.0625 14.71875 69.140625 
Q 20.953125 74.21875 31.78125 74.21875 
Q 42.671875 74.21875 48.875 69.140625 
Q 55.078125 64.0625 55.078125 55.328125 
Q 55.078125 49.078125 51.53125 44.71875 
Q 48 40.375 41.703125 38.8125 
Q 48.828125 37.15625 52.796875 32.3125 
Q 56.78125 27.484375 56.78125 20.515625 
Q 56.78125 9.90625 50.3125 4.234375 
Q 43.84375 -1.421875 31.78125 -1.421875 
Q 19.734375 -1.421875 13.25 4.234375 
Q 6.78125 9.90625 6.78125 20.515625 
Q 6.78125 27.484375 10.78125 32.3125 
Q 14.796875 37.15625 21.921875 38.8125 
z
M 18.3125 54.390625 
Q 18.3125 48.734375 21.84375 45.5625 
Q 25.390625 42.390625 31.78125 42.390625 
Q 38.140625 42.390625 41.71875 45.5625 
Q 45.3125 48.734375 45.3125 54.390625 
Q 45.3125 60.0625 41.71875 63.234375 
Q 38.140625 66.40625 31.78125 66.40625 
Q 25.390625 66.40625 21.84375 63.234375 
Q 18.3125 60.0625 18.3125 54.390625 
z
" id="DejaVuSans-38"/>
      </defs>
      <g transform="translate(52.205 76.37841)scale(0.1 -0.1)">
       <use xlink:href="#DejaVuSans-38"/>
       <use x="63.623047" xlink:href="#DejaVuSans-30"/>
      </g>
     </g>
    </g>
    <g id="ytick_8">
     <g id="line2d_17">
      <g>
       <use style="stroke:#000000;stroke-width:0.8;" x="71.93" xlink:href="#md4e64bc033" y="39.916083"/>
      </g>
     </g>
     <g id="text_18">
      <!-- 90 -->
      <defs>
       <path d="M 10.984375 1.515625 
L 10.984375 10.5 
Q 14.703125 8.734375 18.5 7.8125 
Q 22.3125 6.890625 25.984375 6.890625 
Q 35.75 6.890625 40.890625 13.453125 
Q 46.046875 20.015625 46.78125 33.40625 
Q 43.953125 29.203125 39.59375 26.953125 
Q 35.25 24.703125 29.984375 24.703125 
Q 19.046875 24.703125 12.671875 31.3125 
Q 6.296875 37.9375 6.296875 49.421875 
Q 6.296875 60.640625 12.9375 67.421875 
Q 19.578125 74.21875 30.609375 74.21875 
Q 43.265625 74.21875 49.921875 64.515625 
Q 56.59375 54.828125 56.59375 36.375 
Q 56.59375 19.140625 48.40625 8.859375 
Q 40.234375 -1.421875 26.421875 -1.421875 
Q 22.703125 -1.421875 18.890625 -0.6875 
Q 15.09375 0.046875 10.984375 1.515625 
z
M 30.609375 32.421875 
Q 37.25 32.421875 41.125 36.953125 
Q 45.015625 41.5 45.015625 49.421875 
Q 45.015625 57.28125 41.125 61.84375 
Q 37.25 66.40625 30.609375 66.40625 
Q 23.96875 66.40625 20.09375 61.84375 
Q 16.21875 57.28125 16.21875 49.421875 
Q 16.21875 41.5 20.09375 36.953125 
Q 23.96875 32.421875 30.609375 32.421875 
z
" id="DejaVuSans-39"/>
      </defs>
      <g transform="translate(52.205 43.715302)scale(0.1 -0.1)">
       <use xlink:href="#DejaVuSans-39"/>
       <use x="63.623047" xlink:href="#DejaVuSans-30"/>
      </g>
     </g>
    </g>
    <g id="text_19">
     <!-- PSNR -->
     <defs>
      <path d="M 19.671875 64.796875 
L 19.671875 37.40625 
L 32.078125 37.40625 
Q 38.96875 37.40625 42.71875 40.96875 
Q 46.484375 44.53125 46.484375 51.125 
Q 46.484375 57.671875 42.71875 61.234375 
Q 38.96875 64.796875 32.078125 64.796875 
z
M 9.8125 72.90625 
L 32.078125 72.90625 
Q 44.34375 72.90625 50.609375 67.359375 
Q 56.890625 61.8125 56.890625 51.125 
Q 56.890625 40.328125 50.609375 34.8125 
Q 44.34375 29.296875 32.078125 29.296875 
L 19.671875 29.296875 
L 19.671875 0 
L 9.8125 0 
z
" id="DejaVuSans-50"/>
      <path d="M 44.390625 34.1875 
Q 47.5625 33.109375 50.5625 29.59375 
Q 53.5625 26.078125 56.59375 19.921875 
L 66.609375 0 
L 56 0 
L 46.6875 18.703125 
Q 43.0625 26.03125 39.671875 28.421875 
Q 36.28125 30.8125 30.421875 30.8125 
L 19.671875 30.8125 
L 19.671875 0 
L 9.8125 0 
L 9.8125 72.90625 
L 32.078125 72.90625 
Q 44.578125 72.90625 50.734375 67.671875 
Q 56.890625 62.453125 56.890625 51.90625 
Q 56.890625 45.015625 53.6875 40.46875 
Q 50.484375 35.9375 44.390625 34.1875 
z
M 19.671875 64.796875 
L 19.671875 38.921875 
L 32.078125 38.921875 
Q 39.203125 38.921875 42.84375 42.21875 
Q 46.484375 45.515625 46.484375 51.90625 
Q 46.484375 58.296875 42.84375 61.546875 
Q 39.203125 64.796875 32.078125 64.796875 
z
" id="DejaVuSans-52"/>
     </defs>
     <g transform="translate(10.674063 153.768437)scale(0.14 -0.14)">
      <use xlink:href="#DejaVuSans-50"/>
      <use x="60.302734" xlink:href="#DejaVuSans-53"/>
      <use x="123.779297" xlink:href="#DejaVuSans-4e"/>
      <use x="198.583984" xlink:href="#DejaVuSans-52"/>
     </g>
    </g>
   </g>
   <g id="line2d_18">
    <path clip-path="url(#pd021d26525)" d="M 88.660644 286.966117 
L 88.879631 286.463105 
L 89.098619 286.242629 
L 89.536594 285.407107 
L 90.412544 283.831112 
L 90.631531 283.126569 
L 90.850519 282.875063 
L 91.069506 281.880471 
L 91.288494 281.593689 
L 92.383431 277.563062 
L 92.602419 275.671868 
L 92.821406 275.19074 
L 93.478368 272.199452 
L 93.697356 271.351518 
L 93.916343 270.01723 
L 95.230268 256.778219 
L 95.887231 256.354252 
L 97.639131 254.93406 
L 98.077106 254.202406 
L 98.953056 253.506682 
L 99.610018 252.82631 
L 100.26698 252.356614 
L 100.704955 251.446947 
L 101.14293 250.889714 
L 101.580905 250.728358 
L 105.960655 249.478994 
L 106.179643 248.90739 
L 106.617618 248.789803 
L 107.931542 248.320434 
L 109.02648 248.054229 
L 109.245467 247.859557 
L 110.121417 247.695915 
L 110.559392 247.579961 
L 110.997367 247.250064 
L 111.65433 247.118431 
L 117.129017 245.549622 
L 121.289779 244.348273 
L 123.698641 243.284436 
L 124.355604 243.019538 
L 125.231554 242.727203 
L 128.516366 241.544472 
L 128.954341 241.345227 
L 130.049278 240.958822 
L 130.487253 240.761537 
L 133.115103 239.456319 
L 133.334091 239.374335 
L 133.772066 238.974212 
L 134.867003 238.26085 
L 135.523965 237.922133 
L 136.399915 237.61804 
L 142.96954 236.779904 
L 143.626502 236.596338 
L 143.84549 236.592091 
L 144.064477 236.447394 
L 146.254352 236.246842 
L 147.787265 236.018201 
L 148.006252 235.867624 
L 148.444227 235.815689 
L 148.882202 235.71574 
L 149.539164 235.609912 
L 151.072077 235.459335 
L 151.291064 235.298632 
L 153.042964 235.117025 
L 153.480939 234.974941 
L 154.356889 234.789088 
L 154.575877 234.214544 
L 156.108789 233.998967 
L 166.620188 232.743397 
L 167.496138 232.585635 
L 170.78095 232.324983 
L 171.218925 232.238752 
L 172.094875 232.139783 
L 172.313863 231.994432 
L 174.065763 231.848102 
L 175.1607 231.679233 
L 176.255637 231.584184 
L 176.474625 231.406823 
L 178.226525 231.236321 
L 181.511337 230.886173 
L 182.387287 230.786224 
L 184.139187 230.556929 
L 184.796149 230.466125 
L 186.110074 230.222132 
L 194.650586 229.103094 
L 195.307549 229.005758 
L 195.745524 228.895357 
L 200.782236 228.245361 
L 201.877173 228.15619 
L 203.629073 227.97785 
L 206.037935 227.646973 
L 206.694898 227.462426 
L 211.293635 226.932304 
L 211.950597 226.827128 
L 212.60756 226.72228 
L 213.702497 226.295373 
L 214.35946 226.248338 
L 215.016422 225.996179 
L 215.673385 225.885778 
L 216.11136 225.722462 
L 231.440484 223.122805 
L 231.659471 222.945118 
L 232.535421 222.855948 
L 235.163271 222.090978 
L 235.382258 222.085098 
L 235.601246 221.646106 
L 236.477196 221.542238 
L 236.696183 221.527213 
L 236.915171 221.266234 
L 237.572133 221.201235 
L 238.229096 221.065356 
L 238.886058 220.954302 
L 239.324033 220.848473 
L 243.703783 220.004458 
L 244.360745 219.690239 
L 245.017708 219.578531 
L 245.455683 219.491321 
L 245.67467 219.352829 
L 246.112645 219.271498 
L 246.769607 219.092831 
L 246.988595 218.890646 
L 247.207582 218.88444 
L 247.645557 218.712959 
L 248.083532 218.61301 
L 248.30252 218.373589 
L 248.521507 218.36673 
L 248.959482 218.218113 
L 249.397457 218.140048 
L 249.616445 217.8451 
L 250.273407 217.713141 
L 251.149357 217.453796 
L 251.587332 217.351234 
L 252.463282 216.978548 
L 252.682269 216.808373 
L 253.120244 216.704505 
L 253.339232 216.62546 
L 253.558219 216.283804 
L 254.434169 216.147272 
L 254.872144 215.796797 
L 255.091132 215.792551 
L 255.310119 215.58514 
L 255.967082 215.465593 
L 256.405057 215.358458 
L 256.624044 215.046525 
L 257.062019 214.993938 
L 257.499994 214.7862 
L 257.718982 214.778688 
L 257.937969 214.585975 
L 258.375944 214.520976 
L 258.813919 214.316178 
L 260.565819 213.572766 
L 261.003794 213.510379 
L 261.222781 213.204652 
L 261.660756 213.065834 
L 264.507594 212.12383 
L 267.792406 211.958555 
L 272.829118 211.505518 
L 273.267093 211.377478 
L 275.23798 211.190972 
L 275.675955 210.983561 
L 277.646843 210.860748 
L 283.778492 210.219244 
L 285.092417 210.122562 
L 286.844317 209.853744 
L 287.501279 209.785478 
L 287.939254 209.713293 
L 288.377229 209.537892 
L 288.815204 209.486284 
L 289.691154 209.137116 
L 290.567104 209.039126 
L 291.005079 208.964001 
L 291.881029 208.873524 
L 292.319004 208.75757 
L 292.975967 208.729807 
L 293.413942 208.504431 
L 294.289891 208.48418 
L 294.508879 208.349281 
L 296.260779 208.216996 
L 297.793691 208.106268 
L 298.231666 208.002726 
L 300.202554 207.81426 
L 301.078503 207.753833 
L 305.020278 207.47587 
L 305.239266 207.44092 
L 305.458253 207.210645 
L 306.553191 207.136174 
L 306.772178 206.98331 
L 307.867116 206.900999 
L 308.086103 206.701754 
L 309.838003 206.52668 
L 311.589903 206.279094 
L 313.56079 206.103039 
L 314.43674 205.999824 
L 316.18864 205.853493 
L 316.407627 205.508897 
L 317.283577 205.480154 
L 317.502565 205.152543 
L 318.597502 205.082317 
L 318.81649 204.520512 
L 319.911427 204.422196 
L 320.130415 204.254307 
L 321.006365 204.208252 
L 321.44434 204.090339 
L 322.320289 203.969159 
L 322.758264 203.839486 
L 323.415227 203.809436 
L 323.853202 203.46876 
L 324.729152 203.417479 
L 325.167127 203.319489 
L 325.824089 203.289113 
L 326.481052 202.772709 
L 327.138014 202.739066 
L 327.357002 202.550926 
L 328.232952 202.510424 
L 328.670927 202.338943 
L 329.546876 202.271657 
L 329.765864 201.8147 
L 330.641814 201.726183 
L 330.860801 201.593897 
L 331.079789 200.507522 
L 331.955739 200.439583 
L 332.174726 200.347473 
L 332.393714 200.008103 
L 333.269664 199.947023 
L 333.488651 199.608307 
L 334.145614 199.529915 
L 335.678526 199.368233 
L 336.116501 199.239867 
L 336.335488 199.20851 
L 336.773463 199.03017 
L 337.430426 198.933814 
L 338.087388 198.824066 
L 338.306376 198.821453 
L 338.525363 198.454319 
L 339.401313 198.360576 
L 339.839288 198.130628 
L 340.715238 198.067915 
L 341.372201 197.92681 
L 341.810176 197.87063 
L 342.029163 197.642314 
L 343.343088 197.385582 
L 345.094988 197.220307 
L 346.408913 197.048172 
L 346.846888 197.016163 
L 347.065875 196.806792 
L 347.941825 196.720888 
L 348.3798 196.394257 
L 349.25575 196.318479 
L 350.350687 196.127073 
L 350.788662 196.057827 
L 351.445625 195.946119 
L 353.197525 195.730869 
L 353.416512 195.560695 
L 354.073475 195.515619 
L 354.730437 195.228837 
L 355.825375 195.128235 
L 357.139299 194.857784 
L 358.234237 194.7157 
L 358.453224 194.505023 
L 358.891199 194.391029 
L 359.548162 194.298592 
L 359.767149 194.111432 
L 360.643099 194.015076 
L 361.300062 193.8547 
L 361.738037 193.780228 
L 363.270949 193.58425 
L 364.146899 193.45817 
L 364.584874 193.431713 
L 364.803861 193.258925 
L 365.898799 193.158976 
L 366.336774 193.040736 
L 368.088674 192.723904 
L 368.307661 192.597497 
L 368.526649 192.255515 
L 369.183611 192.066395 
L 369.840574 192.006948 
L 370.278549 191.845919 
L 371.373486 191.700568 
L 371.811461 191.55979 
L 372.249436 191.508509 
L 373.125386 191.236752 
L 374.220323 190.997985 
L 375.534248 190.654696 
L 376.191211 190.560299 
L 376.410198 190.412662 
L 377.286148 190.321859 
L 377.724123 190.09877 
L 378.600073 189.982815 
L 378.81906 189.763973 
L 381.008935 189.324327 
L 381.44691 189.193348 
L 382.760835 188.991163 
L 385.169697 188.424785 
L 385.82666 188.246771 
L 386.045647 188.23044 
L 386.483622 188.015516 
L 387.797547 187.64479 
L 388.235522 187.495846 
L 390.425397 187.00002 
L 391.08236 186.924242 
L 391.301347 186.752434 
L 392.177297 186.6355 
L 392.834259 186.275553 
L 393.491222 186.193568 
L 393.929197 185.923771 
L 394.805147 185.799651 
L 395.243122 185.674878 
L 396.119072 185.540306 
L 396.338059 184.853074 
L 397.214009 184.76619 
L 397.432997 184.483655 
L 397.651984 182.713641 
L 398.308946 182.585928 
L 398.527934 182.552285 
L 398.746921 181.711537 
L 398.965909 181.502166 
L 399.403884 181.362368 
L 399.622871 181.166389 
L 399.841859 181.139279 
L 400.279834 180.628754 
L 401.155784 180.377575 
L 401.374771 180.033306 
L 402.031734 179.895468 
L 402.469709 179.762855 
L 402.688696 179.336275 
L 402.907684 179.334315 
L 403.126671 179.053086 
L 403.564646 178.984494 
L 404.002621 178.124801 
L 404.440596 178.014726 
L 404.878571 177.908571 
L 405.316546 177.475131 
L 405.973508 177.308876 
L 406.192496 177.259228 
L 406.411483 176.460615 
L 407.068446 176.347274 
L 407.506421 176.116019 
L 407.725408 174.348619 
L 408.163383 174.253242 
L 408.601358 174.084374 
L 408.820346 173.585935 
L 409.915283 173.065285 
L 410.134271 172.718729 
L 410.353258 172.710564 
L 411.010221 172.34637 
L 411.229208 171.845971 
L 411.448196 171.030373 
L 411.667183 171.020901 
L 411.886171 170.821983 
L 412.105158 170.78736 
L 412.324145 170.577336 
L 412.543133 169.807793 
L 412.76212 168.190643 
L 413.419083 167.893082 
L 413.63807 167.710822 
L 413.857058 166.373267 
L 414.076045 166.082239 
L 414.295033 166.066234 
L 414.51402 165.70694 
L 414.951995 165.547544 
L 415.170983 162.989369 
L 415.38997 162.930576 
L 415.608958 162.607538 
L 416.046933 162.365177 
L 416.26592 162.121837 
L 416.484908 160.421069 
L 416.703895 160.387753 
L 416.922883 159.084495 
L 417.14187 158.983892 
L 417.798833 157.544429 
L 418.01782 157.477143 
L 418.236808 156.690616 
L 418.455795 156.573028 
L 418.674783 156.27808 
L 418.89377 152.111901 
L 419.112757 150.16028 
L 419.331745 150.06915 
L 419.550732 149.328677 
L 419.76972 147.99047 
L 419.988707 147.903913 
L 420.207695 144.871143 
L 420.426682 143.599242 
L 420.64567 143.375826 
L 420.864657 142.871834 
L 421.302632 139.915496 
L 421.52162 136.848757 
L 421.740607 136.540091 
L 421.959595 134.323245 
L 422.178582 133.532798 
L 422.39757 131.385199 
L 422.835545 103.83256 
L 423.054532 102.880104 
L 423.27352 26.35534 
L 423.27352 26.35534 
" style="fill:none;stroke:#1f77b4;stroke-linecap:square;stroke-width:1.5;"/>
   </g>
   <g id="line2d_19">
    <path clip-path="url(#pd021d26525)" d="M 88.660644 286.988655 
L 88.879631 286.367729 
L 89.098619 285.206229 
L 89.317606 285.206229 
L 89.536594 282.983831 
L 89.755581 275.618627 
L 89.974569 275.4981 
L 91.507481 275.535009 
L 92.164444 275.537949 
L 92.383431 275.166569 
L 92.821406 266.663382 
L 93.040393 266.295922 
L 93.478368 266.129014 
L 98.296093 266.045396 
L 98.515081 265.482284 
L 98.953056 258.646222 
L 99.391031 256.968645 
L 99.829005 256.449302 
L 101.14293 255.246973 
L 101.799893 255.148983 
L 102.237868 255.062753 
L 104.208755 255.02127 
L 105.084705 254.954311 
L 109.683442 254.914135 
L 109.90243 254.035171 
L 110.340405 250.443209 
L 110.77838 249.040982 
L 111.65433 247.638101 
L 112.311292 246.891749 
L 112.749267 246.138538 
L 113.625217 245.769118 
L 114.063192 245.60025 
L 116.034079 245.231157 
L 118.661929 244.795758 
L 119.099904 244.644528 
L 120.413829 244.578875 
L 125.888516 244.228073 
L 126.326491 242.320221 
L 126.764466 241.261936 
L 128.516366 238.5914 
L 129.173328 237.455051 
L 130.925228 236.362796 
L 132.239153 235.711167 
L 132.896116 235.337175 
L 134.429028 234.722782 
L 137.494853 233.381308 
L 145.159415 232.87503 
L 146.911315 232.765608 
L 147.130302 232.624177 
L 147.568277 231.4973 
L 148.444227 230.374669 
L 149.539164 229.103747 
L 150.415114 227.941267 
L 151.729039 227.089413 
L 152.604989 226.584768 
L 154.137902 225.701884 
L 155.232839 224.996361 
L 156.108789 224.527319 
L 157.203726 223.642149 
L 158.736639 222.49698 
L 159.612589 221.864296 
L 160.488539 221.680729 
L 166.839176 220.228201 
L 169.686013 219.945991 
L 171.6569 219.611848 
L 172.313863 218.731904 
L 175.379688 216.148252 
L 176.9126 215.206574 
L 178.445512 214.41776 
L 179.978425 213.445706 
L 181.073362 212.7085 
L 181.949312 212.110112 
L 184.358174 210.315601 
L 185.453112 209.4043 
L 187.423999 208.682445 
L 188.299949 208.364306 
L 189.832862 207.941646 
L 190.927799 207.484689 
L 192.241724 206.979391 
L 195.964511 205.980879 
L 196.621474 205.802212 
L 197.278436 205.623218 
L 198.154386 205.336436 
L 199.030336 205.095709 
L 200.344261 204.066821 
L 202.096161 203.00527 
L 203.629073 202.084171 
L 204.942998 201.400858 
L 206.256923 200.758375 
L 208.22781 199.620392 
L 212.60756 196.55006 
L 213.264522 196.099962 
L 215.016422 195.306902 
L 223.556934 191.441877 
L 227.060734 189.827012 
L 227.936684 189.231891 
L 230.126559 188.120692 
L 236.696183 184.83119 
L 238.229096 183.910744 
L 241.513908 181.813445 
L 243.265808 180.744055 
L 243.92277 180.327601 
L 245.017708 179.683157 
L 253.339232 173.995857 
L 255.529107 172.256546 
L 261.003794 169.814326 
L 262.974681 168.955939 
L 266.259494 167.29992 
L 273.267093 163.117082 
L 276.770893 160.56348 
L 278.303805 159.40786 
L 279.179755 158.701683 
L 280.49368 157.581012 
L 283.778492 154.688694 
L 287.282292 153.204809 
L 293.632929 150.185104 
L 299.107616 146.813292 
L 301.516478 144.996569 
L 304.801291 142.267893 
L 306.334203 140.915967 
L 310.05699 137.020238 
L 311.151928 135.65394 
L 318.81649 132.608432 
L 322.758264 130.567641 
L 327.575989 127.676629 
L 330.203839 125.800787 
L 334.364601 122.498547 
L 336.773463 120.20527 
L 338.963338 117.78526 
L 339.620301 117.094436 
L 343.562075 115.49623 
L 349.036763 112.922703 
L 352.102587 111.141257 
L 356.26335 108.288135 
L 359.986137 105.162929 
L 361.738037 103.616657 
L 364.146899 101.249235 
L 365.898799 99.206158 
L 367.212724 97.505716 
L 367.869686 97.580188 
L 375.753236 95.082114 
L 378.600073 94.01697 
L 388.235522 89.829886 
L 393.491222 86.986562 
L 395.243122 85.912599 
L 395.681097 85.365492 
L 402.907684 83.290078 
L 407.287433 81.710817 
L 411.667183 79.865351 
L 418.236808 76.782934 
L 421.740607 75.149452 
L 423.27352 74.366843 
L 423.27352 74.366843 
" style="fill:none;stroke:#ff7f0e;stroke-linecap:square;stroke-width:1.5;"/>
   </g>
   <g id="line2d_20">
    <path clip-path="url(#pd021d26525)" d="M 88.660644 287.007273 
L 89.536594 264.226388 
L 89.755581 261.859619 
L 89.974569 260.844123 
L 90.412544 255.72712 
L 90.631531 255.192425 
L 91.507481 251.329033 
L 93.259381 245.851756 
L 94.135331 243.990939 
L 94.573306 242.710545 
L 95.011281 241.93251 
L 95.230268 241.169499 
L 96.763181 238.856625 
L 97.858118 237.489347 
L 99.172043 235.153281 
L 99.829005 234.317106 
L 100.485968 233.333946 
L 101.361918 232.147622 
L 101.799893 231.346723 
L 102.237868 231.044916 
L 102.89483 230.431829 
L 103.989768 229.704095 
L 104.64673 228.617067 
L 106.179643 227.030946 
L 107.27458 226.193138 
L 108.15053 225.108069 
L 109.245467 223.594787 
L 110.77838 221.410932 
L 111.873317 220.42124 
L 112.311292 219.934233 
L 113.844204 218.968385 
L 114.063192 218.773059 
L 114.501167 218.67017 
L 115.377117 217.263044 
L 116.691042 216.361542 
L 117.566992 215.839912 
L 118.880917 215.06645 
L 122.165729 211.774662 
L 123.479654 210.249948 
L 126.107504 208.17486 
L 126.983454 207.917475 
L 128.516366 206.269295 
L 128.954341 205.840101 
L 129.392316 205.706183 
L 130.706241 204.110263 
L 134.210041 202.621479 
L 138.58979 199.067732 
L 139.684728 198.102211 
L 141.21764 197.162493 
L 142.312577 196.533075 
L 142.96954 196.176721 
L 144.064477 195.44474 
L 144.502452 195.290244 
L 145.159415 195.127908 
L 147.568277 192.585739 
L 148.444227 191.506876 
L 149.101189 191.250471 
L 150.634102 189.774751 
L 154.575877 188.500237 
L 158.517651 186.206634 
L 161.145501 184.498353 
L 165.525251 181.820958 
L 166.182213 181.382292 
L 166.839176 181.297042 
L 167.277151 180.961918 
L 169.905 178.215277 
L 171.6569 176.067025 
L 172.094875 175.535596 
L 172.53285 175.457204 
L 174.28475 173.925958 
L 178.226525 172.880085 
L 183.263237 170.690024 
L 190.051849 167.166654 
L 191.803749 166.189701 
L 192.460711 166.126661 
L 193.993624 164.582023 
L 195.745524 162.52294 
L 197.935398 159.422231 
L 198.811348 158.157189 
L 199.249323 158.046135 
L 201.220211 156.594259 
L 205.818948 155.421327 
L 209.760723 153.701941 
L 213.702497 151.834918 
L 219.177184 148.887072 
L 219.615159 148.849183 
L 220.053134 148.51014 
L 221.367059 147.123591 
L 223.118959 145.063529 
L 224.432884 143.250073 
L 226.184784 140.485794 
L 226.622759 139.748588 
L 227.060734 139.701553 
L 229.031621 138.083422 
L 232.973396 137.220137 
L 238.229096 134.972915 
L 243.265808 132.451323 
L 246.55062 130.548697 
L 246.988595 130.394527 
L 247.645557 130.347819 
L 248.740495 129.181092 
L 251.149357 126.147669 
L 253.120244 123.072438 
L 254.215182 121.097953 
L 254.653157 120.216049 
L 255.091132 120.217029 
L 257.281007 118.52508 
L 261.660756 117.44981 
L 266.478481 115.445929 
L 269.106331 114.230534 
L 273.705068 111.768389 
L 275.018993 111.103695 
L 275.675955 111.05274 
L 277.86583 108.583083 
L 279.836718 105.835789 
L 281.150642 103.71432 
L 282.24558 101.675815 
L 282.683555 100.74459 
L 283.12153 100.647907 
L 285.092417 99.044149 
L 289.034192 98.238676 
L 294.508879 95.880073 
L 297.793691 94.265536 
L 299.983566 93.113508 
L 302.830403 91.436257 
L 303.706353 91.380403 
L 305.239266 89.680289 
L 307.210153 87.171109 
L 308.962053 84.446352 
L 310.275978 82.044634 
L 310.713953 81.108182 
L 312.465853 79.497238 
L 317.502565 78.207045 
L 323.853202 75.629926 
L 326.481052 74.4031 
L 330.860801 72.315274 
L 331.298776 72.272812 
L 333.269664 70.102021 
L 335.459539 67.219829 
L 337.430426 63.983241 
L 338.525363 62.149534 
L 340.277263 60.848236 
L 344.219038 60.182235 
L 349.036763 58.201218 
L 352.102587 56.77776 
L 357.796262 53.680644 
L 358.453224 53.16522 
L 360.643099 50.969932 
L 361.957024 49.480168 
L 363.927911 46.851114 
L 365.241836 45.029166 
L 366.993736 43.844475 
L 372.468423 42.644433 
L 382.103873 40.131333 
L 384.731722 39.359177 
L 387.57856 37.287029 
L 389.987422 35.206063 
L 391.958309 33.42625 
L 394.586159 32.647562 
L 402.907684 30.760287 
L 411.448196 28.460478 
L 415.608958 27.341113 
L 417.798833 27.035713 
L 423.27352 26.352727 
L 423.27352 26.352727 
" style="fill:none;stroke:#2ca02c;stroke-linecap:square;stroke-width:1.5;"/>
   </g>
   <g id="patch_3">
    <path d="M 71.93 300.04 
L 71.93 13.32 
" style="fill:none;stroke:#000000;stroke-linecap:square;stroke-linejoin:miter;stroke-width:0.8;"/>
   </g>
   <g id="patch_4">
    <path d="M 71.93 300.04 
L 440.004163 300.04 
" style="fill:none;stroke:#000000;stroke-linecap:square;stroke-linejoin:miter;stroke-width:0.8;"/>
   </g>
   <g id="legend_1">
    <g id="patch_5">
     <path d="M 316.844788 295.04 
L 433.004163 295.04 
Q 435.004163 295.04 435.004163 293.04 
L 435.004163 250.005625 
Q 435.004163 248.005625 433.004163 248.005625 
L 316.844788 248.005625 
Q 314.844788 248.005625 314.844788 250.005625 
L 314.844788 293.04 
Q 314.844788 295.04 316.844788 295.04 
z
" style="fill:#ffffff;opacity:0.8;stroke:#cccccc;stroke-linejoin:miter;"/>
    </g>
    <g id="line2d_21">
     <path d="M 318.844788 256.104062 
L 338.844788 256.104062 
" style="fill:none;stroke:#1f77b4;stroke-linecap:square;stroke-width:1.5;"/>
    </g>
    <g id="line2d_22"/>
    <g id="text_20">
     <!-- by resolution -->
     <defs>
      <path d="M 9.421875 75.984375 
L 18.40625 75.984375 
L 18.40625 0 
L 9.421875 0 
z
" id="DejaVuSans-6c"/>
      <path d="M 9.421875 54.6875 
L 18.40625 54.6875 
L 18.40625 0 
L 9.421875 0 
z
M 9.421875 75.984375 
L 18.40625 75.984375 
L 18.40625 64.59375 
L 9.421875 64.59375 
z
" id="DejaVuSans-69"/>
      <path d="M 54.890625 33.015625 
L 54.890625 0 
L 45.90625 0 
L 45.90625 32.71875 
Q 45.90625 40.484375 42.875 44.328125 
Q 39.84375 48.1875 33.796875 48.1875 
Q 26.515625 48.1875 22.3125 43.546875 
Q 18.109375 38.921875 18.109375 30.90625 
L 18.109375 0 
L 9.078125 0 
L 9.078125 54.6875 
L 18.109375 54.6875 
L 18.109375 46.1875 
Q 21.34375 51.125 25.703125 53.5625 
Q 30.078125 56 35.796875 56 
Q 45.21875 56 50.046875 50.171875 
Q 54.890625 44.34375 54.890625 33.015625 
z
" id="DejaVuSans-6e"/>
     </defs>
     <g transform="translate(346.844788 259.604062)scale(0.1 -0.1)">
      <use xlink:href="#DejaVuSans-62"/>
      <use x="63.476562" xlink:href="#DejaVuSans-79"/>
      <use x="122.65625" xlink:href="#DejaVuSans-20"/>
      <use x="154.443359" xlink:href="#DejaVuSans-72"/>
      <use x="195.525391" xlink:href="#DejaVuSans-65"/>
      <use x="257.048828" xlink:href="#DejaVuSans-73"/>
      <use x="309.148438" xlink:href="#DejaVuSans-6f"/>
      <use x="370.330078" xlink:href="#DejaVuSans-6c"/>
      <use x="398.113281" xlink:href="#DejaVuSans-75"/>
      <use x="461.492188" xlink:href="#DejaVuSans-74"/>
      <use x="500.701172" xlink:href="#DejaVuSans-69"/>
      <use x="528.484375" xlink:href="#DejaVuSans-6f"/>
      <use x="589.666016" xlink:href="#DejaVuSans-6e"/>
     </g>
    </g>
    <g id="line2d_23">
     <path d="M 318.844788 270.782187 
L 338.844788 270.782187 
" style="fill:none;stroke:#ff7f0e;stroke-linecap:square;stroke-width:1.5;"/>
    </g>
    <g id="line2d_24"/>
    <g id="text_21">
     <!-- by precision -->
     <defs>
      <path d="M 18.109375 8.203125 
L 18.109375 -20.796875 
L 9.078125 -20.796875 
L 9.078125 54.6875 
L 18.109375 54.6875 
L 18.109375 46.390625 
Q 20.953125 51.265625 25.265625 53.625 
Q 29.59375 56 35.59375 56 
Q 45.5625 56 51.78125 48.09375 
Q 58.015625 40.1875 58.015625 27.296875 
Q 58.015625 14.40625 51.78125 6.484375 
Q 45.5625 -1.421875 35.59375 -1.421875 
Q 29.59375 -1.421875 25.265625 0.953125 
Q 20.953125 3.328125 18.109375 8.203125 
z
M 48.6875 27.296875 
Q 48.6875 37.203125 44.609375 42.84375 
Q 40.53125 48.484375 33.40625 48.484375 
Q 26.265625 48.484375 22.1875 42.84375 
Q 18.109375 37.203125 18.109375 27.296875 
Q 18.109375 17.390625 22.1875 11.75 
Q 26.265625 6.109375 33.40625 6.109375 
Q 40.53125 6.109375 44.609375 11.75 
Q 48.6875 17.390625 48.6875 27.296875 
z
" id="DejaVuSans-70"/>
      <path d="M 48.78125 52.59375 
L 48.78125 44.1875 
Q 44.96875 46.296875 41.140625 47.34375 
Q 37.3125 48.390625 33.40625 48.390625 
Q 24.65625 48.390625 19.8125 42.84375 
Q 14.984375 37.3125 14.984375 27.296875 
Q 14.984375 17.28125 19.8125 11.734375 
Q 24.65625 6.203125 33.40625 6.203125 
Q 37.3125 6.203125 41.140625 7.25 
Q 44.96875 8.296875 48.78125 10.40625 
L 48.78125 2.09375 
Q 45.015625 0.34375 40.984375 -0.53125 
Q 36.96875 -1.421875 32.421875 -1.421875 
Q 20.0625 -1.421875 12.78125 6.34375 
Q 5.515625 14.109375 5.515625 27.296875 
Q 5.515625 40.671875 12.859375 48.328125 
Q 20.21875 56 33.015625 56 
Q 37.15625 56 41.109375 55.140625 
Q 45.0625 54.296875 48.78125 52.59375 
z
" id="DejaVuSans-63"/>
     </defs>
     <g transform="translate(346.844788 274.282187)scale(0.1 -0.1)">
      <use xlink:href="#DejaVuSans-62"/>
      <use x="63.476562" xlink:href="#DejaVuSans-79"/>
      <use x="122.65625" xlink:href="#DejaVuSans-20"/>
      <use x="154.443359" xlink:href="#DejaVuSans-70"/>
      <use x="217.919922" xlink:href="#DejaVuSans-72"/>
      <use x="259.001953" xlink:href="#DejaVuSans-65"/>
      <use x="320.525391" xlink:href="#DejaVuSans-63"/>
      <use x="375.505859" xlink:href="#DejaVuSans-69"/>
      <use x="403.289062" xlink:href="#DejaVuSans-73"/>
      <use x="455.388672" xlink:href="#DejaVuSans-69"/>
      <use x="483.171875" xlink:href="#DejaVuSans-6f"/>
      <use x="544.353516" xlink:href="#DejaVuSans-6e"/>
     </g>
    </g>
    <g id="line2d_25">
     <path d="M 318.844788 285.460312 
L 338.844788 285.460312 
" style="fill:none;stroke:#2ca02c;stroke-linecap:square;stroke-width:1.5;"/>
    </g>
    <g id="line2d_26"/>
    <g id="text_22">
     <!-- by wavelet norm -->
     <defs>
      <path d="M 4.203125 54.6875 
L 13.1875 54.6875 
L 24.421875 12.015625 
L 35.59375 54.6875 
L 46.1875 54.6875 
L 57.421875 12.015625 
L 68.609375 54.6875 
L 77.59375 54.6875 
L 63.28125 0 
L 52.6875 0 
L 40.921875 44.828125 
L 29.109375 0 
L 18.5 0 
z
" id="DejaVuSans-77"/>
      <path d="M 2.984375 54.6875 
L 12.5 54.6875 
L 29.59375 8.796875 
L 46.6875 54.6875 
L 56.203125 54.6875 
L 35.6875 0 
L 23.484375 0 
z
" id="DejaVuSans-76"/>
     </defs>
     <g transform="translate(346.844788 288.960312)scale(0.1 -0.1)">
      <use xlink:href="#DejaVuSans-62"/>
      <use x="63.476562" xlink:href="#DejaVuSans-79"/>
      <use x="122.65625" xlink:href="#DejaVuSans-20"/>
      <use x="154.443359" xlink:href="#DejaVuSans-77"/>
      <use x="236.230469" xlink:href="#DejaVuSans-61"/>
      <use x="297.509766" xlink:href="#DejaVuSans-76"/>
      <use x="356.689453" xlink:href="#DejaVuSans-65"/>
      <use x="418.212891" xlink:href="#DejaVuSans-6c"/>
      <use x="445.996094" xlink:href="#DejaVuSans-65"/>
      <use x="507.519531" xlink:href="#DejaVuSans-74"/>
      <use x="546.728516" xlink:href="#DejaVuSans-20"/>
      <use x="578.515625" xlink:href="#DejaVuSans-6e"/>
      <use x="641.894531" xlink:href="#DejaVuSans-6f"/>
      <use x="703.076172" xlink:href="#DejaVuSans-72"/>
      <use x="744.173828" xlink:href="#DejaVuSans-6d"/>
     </g>
    </g>
   </g>
  </g>
 </g>
 <defs>
  <clipPath id="pd021d26525">
   <rect height="286.72" width="368.074163" x="71.93" y="13.32"/>
  </clipPath>
 </defs>
</svg>
