<?xml version="1.0" encoding="utf-8" standalone="no"?>
<!DOCTYPE svg PUBLIC "-//W3C//DTD SVG 1.1//EN"
  "http://www.w3.org/Graphics/SVG/1.1/DTD/svg11.dtd">
<!-- Created with matplotlib (http://matplotlib.org/) -->
<svg height="345pt" version="1.1" viewBox="0 0 460 345" width="460pt" xmlns="http://www.w3.org/2000/svg" xmlns:xlink="http://www.w3.org/1999/xlink">
 <defs>
  <style type="text/css">
*{stroke-linecap:butt;stroke-linejoin:round;}
  </style>
 </defs>
 <g id="figure_1">
  <g id="patch_1">
   <path d="M 0 345.6 
L 460.8 345.6 
L 460.8 0 
L 0 0 
z
" style="fill:#ffffff;"/>
  </g>
  <g id="axes_1">
   <g id="patch_2">
    <path d="M 48.17 300.04 
L 445.565162 300.04 
L 445.565162 13.32 
L 48.17 13.32 
z
" style="fill:#ffffff;"/>
   </g>
   <g id="matplotlib.axis_1">
    <g id="xtick_1">
     <g id="line2d_1">
      <defs>
       <path d="M 0 0 
L 0 3.5 
" id="m632a618550" style="stroke:#000000;stroke-width:0.8;"/>
      </defs>
      <g>
       <use style="stroke:#000000;stroke-width:0.8;" x="66.085779" xlink:href="#m632a618550" y="300.04"/>
      </g>
     </g>
     <g id="text_1">
      <!-- 0.0 -->
      <defs>
       <path d="M 31.78125 66.40625 
Q 24.171875 66.40625 20.328125 58.90625 
Q 16.5 51.421875 16.5 36.375 
Q 16.5 21.390625 20.328125 13.890625 
Q 24.171875 6.390625 31.78125 6.390625 
Q 39.453125 6.390625 43.28125 13.890625 
Q 47.125 21.390625 47.125 36.375 
Q 47.125 51.421875 43.28125 58.90625 
Q 39.453125 66.40625 31.78125 66.40625 
z
M 31.78125 74.21875 
Q 44.046875 74.21875 50.515625 64.515625 
Q 56.984375 54.828125 56.984375 36.375 
Q 56.984375 17.96875 50.515625 8.265625 
Q 44.046875 -1.421875 31.78125 -1.421875 
Q 19.53125 -1.421875 13.0625 8.265625 
Q 6.59375 17.96875 6.59375 36.375 
Q 6.59375 54.828125 13.0625 64.515625 
Q 19.53125 74.21875 31.78125 74.21875 
z
" id="DejaVuSans-30"/>
       <path d="M 10.6875 12.40625 
L 21 12.40625 
L 21 0 
L 10.6875 0 
z
" id="DejaVuSans-2e"/>
      </defs>
      <g transform="translate(58.134217 314.638437)scale(0.1 -0.1)">
       <use xlink:href="#DejaVuSans-30"/>
       <use x="63.623047" xlink:href="#DejaVuSans-2e"/>
       <use x="95.410156" xlink:href="#DejaVuSans-30"/>
      </g>
     </g>
    </g>
    <g id="xtick_2">
     <g id="line2d_2">
      <g>
       <use style="stroke:#000000;stroke-width:0.8;" x="119.235186" xlink:href="#m632a618550" y="300.04"/>
      </g>
     </g>
     <g id="text_2">
      <!-- 2.5 -->
      <defs>
       <path d="M 19.1875 8.296875 
L 53.609375 8.296875 
L 53.609375 0 
L 7.328125 0 
L 7.328125 8.296875 
Q 12.9375 14.109375 22.625 23.890625 
Q 32.328125 33.6875 34.8125 36.53125 
Q 39.546875 41.84375 41.421875 45.53125 
Q 43.3125 49.21875 43.3125 52.78125 
Q 43.3125 58.59375 39.234375 62.25 
Q 35.15625 65.921875 28.609375 65.921875 
Q 23.96875 65.921875 18.8125 64.3125 
Q 13.671875 62.703125 7.8125 59.421875 
L 7.8125 69.390625 
Q 13.765625 71.78125 18.9375 73 
Q 24.125 74.21875 28.421875 74.21875 
Q 39.75 74.21875 46.484375 68.546875 
Q 53.21875 62.890625 53.21875 53.421875 
Q 53.21875 48.921875 51.53125 44.890625 
Q 49.859375 40.875 45.40625 35.40625 
Q 44.1875 33.984375 37.640625 27.21875 
Q 31.109375 20.453125 19.1875 8.296875 
z
" id="DejaVuSans-32"/>
       <path d="M 10.796875 72.90625 
L 49.515625 72.90625 
L 49.515625 64.59375 
L 19.828125 64.59375 
L 19.828125 46.734375 
Q 21.96875 47.46875 24.109375 47.828125 
Q 26.265625 48.1875 28.421875 48.1875 
Q 40.625 48.1875 47.75 41.5 
Q 54.890625 34.8125 54.890625 23.390625 
Q 54.890625 11.625 47.5625 5.09375 
Q 40.234375 -1.421875 26.90625 -1.421875 
Q 22.3125 -1.421875 17.546875 -0.640625 
Q 12.796875 0.140625 7.71875 1.703125 
L 7.71875 11.625 
Q 12.109375 9.234375 16.796875 8.0625 
Q 21.484375 6.890625 26.703125 6.890625 
Q 35.15625 6.890625 40.078125 11.328125 
Q 45.015625 15.765625 45.015625 23.390625 
Q 45.015625 31 40.078125 35.4375 
Q 35.15625 39.890625 26.703125 39.890625 
Q 22.75 39.890625 18.8125 39.015625 
Q 14.890625 38.140625 10.796875 36.28125 
z
" id="DejaVuSans-35"/>
      </defs>
      <g transform="translate(111.283624 314.638437)scale(0.1 -0.1)">
       <use xlink:href="#DejaVuSans-32"/>
       <use x="63.623047" xlink:href="#DejaVuSans-2e"/>
       <use x="95.410156" xlink:href="#DejaVuSans-35"/>
      </g>
     </g>
    </g>
    <g id="xtick_3">
     <g id="line2d_3">
      <g>
       <use style="stroke:#000000;stroke-width:0.8;" x="172.384593" xlink:href="#m632a618550" y="300.04"/>
      </g>
     </g>
     <g id="text_3">
      <!-- 5.0 -->
      <g transform="translate(164.43303 314.638437)scale(0.1 -0.1)">
       <use xlink:href="#DejaVuSans-35"/>
       <use x="63.623047" xlink:href="#DejaVuSans-2e"/>
       <use x="95.410156" xlink:href="#DejaVuSans-30"/>
      </g>
     </g>
    </g>
    <g id="xtick_4">
     <g id="line2d_4">
      <g>
       <use style="stroke:#000000;stroke-width:0.8;" x="225.534" xlink:href="#m632a618550" y="300.04"/>
      </g>
     </g>
     <g id="text_4">
      <!-- 7.5 -->
      <defs>
       <path d="M 8.203125 72.90625 
L 55.078125 72.90625 
L 55.078125 68.703125 
L 28.609375 0 
L 18.3125 0 
L 43.21875 64.59375 
L 8.203125 64.59375 
z
" id="DejaVuSans-37"/>
      </defs>
      <g transform="translate(217.582437 314.638437)scale(0.1 -0.1)">
       <use xlink:href="#DejaVuSans-37"/>
       <use x="63.623047" xlink:href="#DejaVuSans-2e"/>
       <use x="95.410156" xlink:href="#DejaVuSans-35"/>
      </g>
     </g>
    </g>
    <g id="xtick_5">
     <g id="line2d_5">
      <g>
       <use style="stroke:#000000;stroke-width:0.8;" x="278.683406" xlink:href="#m632a618550" y="300.04"/>
      </g>
     </g>
     <g id="text_5">
      <!-- 10.0 -->
      <defs>
       <path d="M 12.40625 8.296875 
L 28.515625 8.296875 
L 28.515625 63.921875 
L 10.984375 60.40625 
L 10.984375 69.390625 
L 28.421875 72.90625 
L 38.28125 72.90625 
L 38.28125 8.296875 
L 54.390625 8.296875 
L 54.390625 0 
L 12.40625 0 
z
" id="DejaVuSans-31"/>
      </defs>
      <g transform="translate(267.550594 314.638437)scale(0.1 -0.1)">
       <use xlink:href="#DejaVuSans-31"/>
       <use x="63.623047" xlink:href="#DejaVuSans-30"/>
       <use x="127.246094" xlink:href="#DejaVuSans-2e"/>
       <use x="159.033203" xlink:href="#DejaVuSans-30"/>
      </g>
     </g>
    </g>
    <g id="xtick_6">
     <g id="line2d_6">
      <g>
       <use style="stroke:#000000;stroke-width:0.8;" x="331.832813" xlink:href="#m632a618550" y="300.04"/>
      </g>
     </g>
     <g id="text_6">
      <!-- 12.5 -->
      <g transform="translate(320.700001 314.638437)scale(0.1 -0.1)">
       <use xlink:href="#DejaVuSans-31"/>
       <use x="63.623047" xlink:href="#DejaVuSans-32"/>
       <use x="127.246094" xlink:href="#DejaVuSans-2e"/>
       <use x="159.033203" xlink:href="#DejaVuSans-35"/>
      </g>
     </g>
    </g>
    <g id="xtick_7">
     <g id="line2d_7">
      <g>
       <use style="stroke:#000000;stroke-width:0.8;" x="384.98222" xlink:href="#m632a618550" y="300.04"/>
      </g>
     </g>
     <g id="text_7">
      <!-- 15.0 -->
      <g transform="translate(373.849408 314.638437)scale(0.1 -0.1)">
       <use xlink:href="#DejaVuSans-31"/>
       <use x="63.623047" xlink:href="#DejaVuSans-35"/>
       <use x="127.246094" xlink:href="#DejaVuSans-2e"/>
       <use x="159.033203" xlink:href="#DejaVuSans-30"/>
      </g>
     </g>
    </g>
    <g id="xtick_8">
     <g id="line2d_8">
      <g>
       <use style="stroke:#000000;stroke-width:0.8;" x="438.131627" xlink:href="#m632a618550" y="300.04"/>
      </g>
     </g>
     <g id="text_8">
      <!-- 17.5 -->
      <g transform="translate(426.998814 314.638437)scale(0.1 -0.1)">
       <use xlink:href="#DejaVuSans-31"/>
       <use x="63.623047" xlink:href="#DejaVuSans-37"/>
       <use x="127.246094" xlink:href="#DejaVuSans-2e"/>
       <use x="159.033203" xlink:href="#DejaVuSans-35"/>
      </g>
     </g>
    </g>
    <g id="text_9">
     <!-- Bits per sample -->
     <defs>
      <path d="M 19.671875 34.8125 
L 19.671875 8.109375 
L 35.5 8.109375 
Q 43.453125 8.109375 47.28125 11.40625 
Q 51.125 14.703125 51.125 21.484375 
Q 51.125 28.328125 47.28125 31.5625 
Q 43.453125 34.8125 35.5 34.8125 
z
M 19.671875 64.796875 
L 19.671875 42.828125 
L 34.28125 42.828125 
Q 41.5 42.828125 45.03125 45.53125 
Q 48.578125 48.25 48.578125 53.8125 
Q 48.578125 59.328125 45.03125 62.0625 
Q 41.5 64.796875 34.28125 64.796875 
z
M 9.8125 72.90625 
L 35.015625 72.90625 
Q 46.296875 72.90625 52.390625 68.21875 
Q 58.5 63.53125 58.5 54.890625 
Q 58.5 48.1875 55.375 44.234375 
Q 52.25 40.28125 46.1875 39.3125 
Q 53.46875 37.75 57.5 32.78125 
Q 61.53125 27.828125 61.53125 20.40625 
Q 61.53125 10.640625 54.890625 5.3125 
Q 48.25 0 35.984375 0 
L 9.8125 0 
z
" id="DejaVuSans-42"/>
      <path d="M 9.421875 54.6875 
L 18.40625 54.6875 
L 18.40625 0 
L 9.421875 0 
z
M 9.421875 75.984375 
L 18.40625 75.984375 
L 18.40625 64.59375 
L 9.421875 64.59375 
z
" id="DejaVuSans-69"/>
      <path d="M 18.3125 70.21875 
L 18.3125 54.6875 
L 36.8125 54.6875 
L 36.8125 47.703125 
L 18.3125 47.703125 
L 18.3125 18.015625 
Q 18.3125 11.328125 20.140625 9.421875 
Q 21.96875 7.515625 27.59375 7.515625 
L 36.8125 7.515625 
L 36.8125 0 
L 27.59375 0 
Q 17.1875 0 13.234375 3.875 
Q 9.28125 7.765625 9.28125 18.015625 
L 9.28125 47.703125 
L 2.6875 47.703125 
L 2.6875 54.6875 
L 9.28125 54.6875 
L 9.28125 70.21875 
z
" id="DejaVuSans-74"/>
      <path d="M 44.28125 53.078125 
L 44.28125 44.578125 
Q 40.484375 46.53125 36.375 47.5 
Q 32.28125 48.484375 27.875 48.484375 
Q 21.1875 48.484375 17.84375 46.4375 
Q 14.5 44.390625 14.5 40.28125 
Q 14.5 37.15625 16.890625 35.375 
Q 19.28125 33.59375 26.515625 31.984375 
L 29.59375 31.296875 
Q 39.15625 29.25 43.1875 25.515625 
Q 47.21875 21.78125 47.21875 15.09375 
Q 47.21875 7.46875 41.1875 3.015625 
Q 35.15625 -1.421875 24.609375 -1.421875 
Q 20.21875 -1.421875 15.453125 -0.5625 
Q 10.6875 0.296875 5.421875 2 
L 5.421875 11.28125 
Q 10.40625 8.6875 15.234375 7.390625 
Q 20.0625 6.109375 24.8125 6.109375 
Q 31.15625 6.109375 34.5625 8.28125 
Q 37.984375 10.453125 37.984375 14.40625 
Q 37.984375 18.0625 35.515625 20.015625 
Q 33.0625 21.96875 24.703125 23.78125 
L 21.578125 24.515625 
Q 13.234375 26.265625 9.515625 29.90625 
Q 5.8125 33.546875 5.8125 39.890625 
Q 5.8125 47.609375 11.28125 51.796875 
Q 16.75 56 26.8125 56 
Q 31.78125 56 36.171875 55.265625 
Q 40.578125 54.546875 44.28125 53.078125 
z
" id="DejaVuSans-73"/>
      <path id="DejaVuSans-20"/>
      <path d="M 18.109375 8.203125 
L 18.109375 -20.796875 
L 9.078125 -20.796875 
L 9.078125 54.6875 
L 18.109375 54.6875 
L 18.109375 46.390625 
Q 20.953125 51.265625 25.265625 53.625 
Q 29.59375 56 35.59375 56 
Q 45.5625 56 51.78125 48.09375 
Q 58.015625 40.1875 58.015625 27.296875 
Q 58.015625 14.40625 51.78125 6.484375 
Q 45.5625 -1.421875 35.59375 -1.421875 
Q 29.59375 -1.421875 25.265625 0.953125 
Q 20.953125 3.328125 18.109375 8.203125 
z
M 48.6875 27.296875 
Q 48.6875 37.203125 44.609375 42.84375 
Q 40.53125 48.484375 33.40625 48.484375 
Q 26.265625 48.484375 22.1875 42.84375 
Q 18.109375 37.203125 18.109375 27.296875 
Q 18.109375 17.390625 22.1875 11.75 
Q 26.265625 6.109375 33.40625 6.109375 
Q 40.53125 6.109375 44.609375 11.75 
Q 48.6875 17.390625 48.6875 27.296875 
z
" id="DejaVuSans-70"/>
      <path d="M 56.203125 29.59375 
L 56.203125 25.203125 
L 14.890625 25.203125 
Q 15.484375 15.921875 20.484375 11.0625 
Q 25.484375 6.203125 34.421875 6.203125 
Q 39.59375 6.203125 44.453125 7.46875 
Q 49.3125 8.734375 54.109375 11.28125 
L 54.109375 2.78125 
Q 49.265625 0.734375 44.1875 -0.34375 
Q 39.109375 -1.421875 33.890625 -1.421875 
Q 20.796875 -1.421875 13.15625 6.1875 
Q 5.515625 13.8125 5.515625 26.8125 
Q 5.515625 40.234375 12.765625 48.109375 
Q 20.015625 56 32.328125 56 
Q 43.359375 56 49.78125 48.890625 
Q 56.203125 41.796875 56.203125 29.59375 
z
M 47.21875 32.234375 
Q 47.125 39.59375 43.09375 43.984375 
Q 39.0625 48.390625 32.421875 48.390625 
Q 24.90625 48.390625 20.390625 44.140625 
Q 15.875 39.890625 15.1875 32.171875 
z
" id="DejaVuSans-65"/>
      <path d="M 41.109375 46.296875 
Q 39.59375 47.171875 37.8125 47.578125 
Q 36.03125 48 33.890625 48 
Q 26.265625 48 22.1875 43.046875 
Q 18.109375 38.09375 18.109375 28.8125 
L 18.109375 0 
L 9.078125 0 
L 9.078125 54.6875 
L 18.109375 54.6875 
L 18.109375 46.1875 
Q 20.953125 51.171875 25.484375 53.578125 
Q 30.03125 56 36.53125 56 
Q 37.453125 56 38.578125 55.875 
Q 39.703125 55.765625 41.0625 55.515625 
z
" id="DejaVuSans-72"/>
      <path d="M 34.28125 27.484375 
Q 23.390625 27.484375 19.1875 25 
Q 14.984375 22.515625 14.984375 16.5 
Q 14.984375 11.71875 18.140625 8.90625 
Q 21.296875 6.109375 26.703125 6.109375 
Q 34.1875 6.109375 38.703125 11.40625 
Q 43.21875 16.703125 43.21875 25.484375 
L 43.21875 27.484375 
z
M 52.203125 31.203125 
L 52.203125 0 
L 43.21875 0 
L 43.21875 8.296875 
Q 40.140625 3.328125 35.546875 0.953125 
Q 30.953125 -1.421875 24.3125 -1.421875 
Q 15.921875 -1.421875 10.953125 3.296875 
Q 6 8.015625 6 15.921875 
Q 6 25.140625 12.171875 29.828125 
Q 18.359375 34.515625 30.609375 34.515625 
L 43.21875 34.515625 
L 43.21875 35.40625 
Q 43.21875 41.609375 39.140625 45 
Q 35.0625 48.390625 27.6875 48.390625 
Q 23 48.390625 18.546875 47.265625 
Q 14.109375 46.140625 10.015625 43.890625 
L 10.015625 52.203125 
Q 14.9375 54.109375 19.578125 55.046875 
Q 24.21875 56 28.609375 56 
Q 40.484375 56 46.34375 49.84375 
Q 52.203125 43.703125 52.203125 31.203125 
z
" id="DejaVuSans-61"/>
      <path d="M 52 44.1875 
Q 55.375 50.25 60.0625 53.125 
Q 64.75 56 71.09375 56 
Q 79.640625 56 84.28125 50.015625 
Q 88.921875 44.046875 88.921875 33.015625 
L 88.921875 0 
L 79.890625 0 
L 79.890625 32.71875 
Q 79.890625 40.578125 77.09375 44.375 
Q 74.3125 48.1875 68.609375 48.1875 
Q 61.625 48.1875 57.5625 43.546875 
Q 53.515625 38.921875 53.515625 30.90625 
L 53.515625 0 
L 44.484375 0 
L 44.484375 32.71875 
Q 44.484375 40.625 41.703125 44.40625 
Q 38.921875 48.1875 33.109375 48.1875 
Q 26.21875 48.1875 22.15625 43.53125 
Q 18.109375 38.875 18.109375 30.90625 
L 18.109375 0 
L 9.078125 0 
L 9.078125 54.6875 
L 18.109375 54.6875 
L 18.109375 46.1875 
Q 21.1875 51.21875 25.484375 53.609375 
Q 29.78125 56 35.6875 56 
Q 41.65625 56 45.828125 52.96875 
Q 50 49.953125 52 44.1875 
z
" id="DejaVuSans-6d"/>
      <path d="M 9.421875 75.984375 
L 18.40625 75.984375 
L 18.40625 0 
L 9.421875 0 
z
" id="DejaVuSans-6c"/>
     </defs>
     <g transform="translate(192.200862 331.355937)scale(0.14 -0.14)">
      <use xlink:href="#DejaVuSans-42"/>
      <use x="68.603516" xlink:href="#DejaVuSans-69"/>
      <use x="96.386719" xlink:href="#DejaVuSans-74"/>
      <use x="135.595703" xlink:href="#DejaVuSans-73"/>
      <use x="187.695312" xlink:href="#DejaVuSans-20"/>
      <use x="219.482422" xlink:href="#DejaVuSans-70"/>
      <use x="282.958984" xlink:href="#DejaVuSans-65"/>
      <use x="344.482422" xlink:href="#DejaVuSans-72"/>
      <use x="385.595703" xlink:href="#DejaVuSans-20"/>
      <use x="417.382812" xlink:href="#DejaVuSans-73"/>
      <use x="469.482422" xlink:href="#DejaVuSans-61"/>
      <use x="530.761719" xlink:href="#DejaVuSans-6d"/>
      <use x="628.173828" xlink:href="#DejaVuSans-70"/>
      <use x="691.650391" xlink:href="#DejaVuSans-6c"/>
      <use x="719.433594" xlink:href="#DejaVuSans-65"/>
     </g>
    </g>
   </g>
   <g id="matplotlib.axis_2">
    <g id="ytick_1">
     <g id="line2d_9">
      <defs>
       <path d="M 0 0 
L -3.5 0 
" id="m96b9278202" style="stroke:#000000;stroke-width:0.8;"/>
      </defs>
      <g>
       <use style="stroke:#000000;stroke-width:0.8;" x="48.17" xlink:href="#m96b9278202" y="296.778567"/>
      </g>
     </g>
     <g id="text_10">
      <!-- 10 -->
      <g transform="translate(28.445 300.577786)scale(0.1 -0.1)">
       <use xlink:href="#DejaVuSans-31"/>
       <use x="63.623047" xlink:href="#DejaVuSans-30"/>
      </g>
     </g>
    </g>
    <g id="ytick_2">
     <g id="line2d_10">
      <g>
       <use style="stroke:#000000;stroke-width:0.8;" x="48.17" xlink:href="#m96b9278202" y="263.437404"/>
      </g>
     </g>
     <g id="text_11">
      <!-- 20 -->
      <g transform="translate(28.445 267.236623)scale(0.1 -0.1)">
       <use xlink:href="#DejaVuSans-32"/>
       <use x="63.623047" xlink:href="#DejaVuSans-30"/>
      </g>
     </g>
    </g>
    <g id="ytick_3">
     <g id="line2d_11">
      <g>
       <use style="stroke:#000000;stroke-width:0.8;" x="48.17" xlink:href="#m96b9278202" y="230.096241"/>
      </g>
     </g>
     <g id="text_12">
      <!-- 30 -->
      <defs>
       <path d="M 40.578125 39.3125 
Q 47.65625 37.796875 51.625 33 
Q 55.609375 28.21875 55.609375 21.1875 
Q 55.609375 10.40625 48.1875 4.484375 
Q 40.765625 -1.421875 27.09375 -1.421875 
Q 22.515625 -1.421875 17.65625 -0.515625 
Q 12.796875 0.390625 7.625 2.203125 
L 7.625 11.71875 
Q 11.71875 9.328125 16.59375 8.109375 
Q 21.484375 6.890625 26.8125 6.890625 
Q 36.078125 6.890625 40.9375 10.546875 
Q 45.796875 14.203125 45.796875 21.1875 
Q 45.796875 27.640625 41.28125 31.265625 
Q 36.765625 34.90625 28.71875 34.90625 
L 20.21875 34.90625 
L 20.21875 43.015625 
L 29.109375 43.015625 
Q 36.375 43.015625 40.234375 45.921875 
Q 44.09375 48.828125 44.09375 54.296875 
Q 44.09375 59.90625 40.109375 62.90625 
Q 36.140625 65.921875 28.71875 65.921875 
Q 24.65625 65.921875 20.015625 65.03125 
Q 15.375 64.15625 9.8125 62.3125 
L 9.8125 71.09375 
Q 15.4375 72.65625 20.34375 73.4375 
Q 25.25 74.21875 29.59375 74.21875 
Q 40.828125 74.21875 47.359375 69.109375 
Q 53.90625 64.015625 53.90625 55.328125 
Q 53.90625 49.265625 50.4375 45.09375 
Q 46.96875 40.921875 40.578125 39.3125 
z
" id="DejaVuSans-33"/>
      </defs>
      <g transform="translate(28.445 233.89546)scale(0.1 -0.1)">
       <use xlink:href="#DejaVuSans-33"/>
       <use x="63.623047" xlink:href="#DejaVuSans-30"/>
      </g>
     </g>
    </g>
    <g id="ytick_4">
     <g id="line2d_12">
      <g>
       <use style="stroke:#000000;stroke-width:0.8;" x="48.17" xlink:href="#m96b9278202" y="196.755078"/>
      </g>
     </g>
     <g id="text_13">
      <!-- 40 -->
      <defs>
       <path d="M 37.796875 64.3125 
L 12.890625 25.390625 
L 37.796875 25.390625 
z
M 35.203125 72.90625 
L 47.609375 72.90625 
L 47.609375 25.390625 
L 58.015625 25.390625 
L 58.015625 17.1875 
L 47.609375 17.1875 
L 47.609375 0 
L 37.796875 0 
L 37.796875 17.1875 
L 4.890625 17.1875 
L 4.890625 26.703125 
z
" id="DejaVuSans-34"/>
      </defs>
      <g transform="translate(28.445 200.554297)scale(0.1 -0.1)">
       <use xlink:href="#DejaVuSans-34"/>
       <use x="63.623047" xlink:href="#DejaVuSans-30"/>
      </g>
     </g>
    </g>
    <g id="ytick_5">
     <g id="line2d_13">
      <g>
       <use style="stroke:#000000;stroke-width:0.8;" x="48.17" xlink:href="#m96b9278202" y="163.413915"/>
      </g>
     </g>
     <g id="text_14">
      <!-- 50 -->
      <g transform="translate(28.445 167.213133)scale(0.1 -0.1)">
       <use xlink:href="#DejaVuSans-35"/>
       <use x="63.623047" xlink:href="#DejaVuSans-30"/>
      </g>
     </g>
    </g>
    <g id="ytick_6">
     <g id="line2d_14">
      <g>
       <use style="stroke:#000000;stroke-width:0.8;" x="48.17" xlink:href="#m96b9278202" y="130.072752"/>
      </g>
     </g>
     <g id="text_15">
      <!-- 60 -->
      <defs>
       <path d="M 33.015625 40.375 
Q 26.375 40.375 22.484375 35.828125 
Q 18.609375 31.296875 18.609375 23.390625 
Q 18.609375 15.53125 22.484375 10.953125 
Q 26.375 6.390625 33.015625 6.390625 
Q 39.65625 6.390625 43.53125 10.953125 
Q 47.40625 15.53125 47.40625 23.390625 
Q 47.40625 31.296875 43.53125 35.828125 
Q 39.65625 40.375 33.015625 40.375 
z
M 52.59375 71.296875 
L 52.59375 62.3125 
Q 48.875 64.0625 45.09375 64.984375 
Q 41.3125 65.921875 37.59375 65.921875 
Q 27.828125 65.921875 22.671875 59.328125 
Q 17.53125 52.734375 16.796875 39.40625 
Q 19.671875 43.65625 24.015625 45.921875 
Q 28.375 48.1875 33.59375 48.1875 
Q 44.578125 48.1875 50.953125 41.515625 
Q 57.328125 34.859375 57.328125 23.390625 
Q 57.328125 12.15625 50.6875 5.359375 
Q 44.046875 -1.421875 33.015625 -1.421875 
Q 20.359375 -1.421875 13.671875 8.265625 
Q 6.984375 17.96875 6.984375 36.375 
Q 6.984375 53.65625 15.1875 63.9375 
Q 23.390625 74.21875 37.203125 74.21875 
Q 40.921875 74.21875 44.703125 73.484375 
Q 48.484375 72.75 52.59375 71.296875 
z
" id="DejaVuSans-36"/>
      </defs>
      <g transform="translate(28.445 133.87197)scale(0.1 -0.1)">
       <use xlink:href="#DejaVuSans-36"/>
       <use x="63.623047" xlink:href="#DejaVuSans-30"/>
      </g>
     </g>
    </g>
    <g id="ytick_7">
     <g id="line2d_15">
      <g>
       <use style="stroke:#000000;stroke-width:0.8;" x="48.17" xlink:href="#m96b9278202" y="96.731588"/>
      </g>
     </g>
     <g id="text_16">
      <!-- 70 -->
      <g transform="translate(28.445 100.530807)scale(0.1 -0.1)">
       <use xlink:href="#DejaVuSans-37"/>
       <use x="63.623047" xlink:href="#DejaVuSans-30"/>
      </g>
     </g>
    </g>
    <g id="ytick_8">
     <g id="line2d_16">
      <g>
       <use style="stroke:#000000;stroke-width:0.8;" x="48.17" xlink:href="#m96b9278202" y="63.390425"/>
      </g>
     </g>
     <g id="text_17">
      <!-- 80 -->
      <defs>
       <path d="M 31.78125 34.625 
Q 24.75 34.625 20.71875 30.859375 
Q 16.703125 27.09375 16.703125 20.515625 
Q 16.703125 13.921875 20.71875 10.15625 
Q 24.75 6.390625 31.78125 6.390625 
Q 38.8125 6.390625 42.859375 10.171875 
Q 46.921875 13.96875 46.921875 20.515625 
Q 46.921875 27.09375 42.890625 30.859375 
Q 38.875 34.625 31.78125 34.625 
z
M 21.921875 38.8125 
Q 15.578125 40.375 12.03125 44.71875 
Q 8.5 49.078125 8.5 55.328125 
Q 8.5 64.0625 14.71875 69.140625 
Q 20.953125 74.21875 31.78125 74.21875 
Q 42.671875 74.21875 48.875 69.140625 
Q 55.078125 64.0625 55.078125 55.328125 
Q 55.078125 49.078125 51.53125 44.71875 
Q 48 40.375 41.703125 38.8125 
Q 48.828125 37.15625 52.796875 32.3125 
Q 56.78125 27.484375 56.78125 20.515625 
Q 56.78125 9.90625 50.3125 4.234375 
Q 43.84375 -1.421875 31.78125 -1.421875 
Q 19.734375 -1.421875 13.25 4.234375 
Q 6.78125 9.90625 6.78125 20.515625 
Q 6.78125 27.484375 10.78125 32.3125 
Q 14.796875 37.15625 21.921875 38.8125 
z
M 18.3125 54.390625 
Q 18.3125 48.734375 21.84375 45.5625 
Q 25.390625 42.390625 31.78125 42.390625 
Q 38.140625 42.390625 41.71875 45.5625 
Q 45.3125 48.734375 45.3125 54.390625 
Q 45.3125 60.0625 41.71875 63.234375 
Q 38.140625 66.40625 31.78125 66.40625 
Q 25.390625 66.40625 21.84375 63.234375 
Q 18.3125 60.0625 18.3125 54.390625 
z
" id="DejaVuSans-38"/>
      </defs>
      <g transform="translate(28.445 67.189644)scale(0.1 -0.1)">
       <use xlink:href="#DejaVuSans-38"/>
       <use x="63.623047" xlink:href="#DejaVuSans-30"/>
      </g>
     </g>
    </g>
    <g id="ytick_9">
     <g id="line2d_17">
      <g>
       <use style="stroke:#000000;stroke-width:0.8;" x="48.17" xlink:href="#m96b9278202" y="30.049262"/>
      </g>
     </g>
     <g id="text_18">
      <!-- 90 -->
      <defs>
       <path d="M 10.984375 1.515625 
L 10.984375 10.5 
Q 14.703125 8.734375 18.5 7.8125 
Q 22.3125 6.890625 25.984375 6.890625 
Q 35.75 6.890625 40.890625 13.453125 
Q 46.046875 20.015625 46.78125 33.40625 
Q 43.953125 29.203125 39.59375 26.953125 
Q 35.25 24.703125 29.984375 24.703125 
Q 19.046875 24.703125 12.671875 31.3125 
Q 6.296875 37.9375 6.296875 49.421875 
Q 6.296875 60.640625 12.9375 67.421875 
Q 19.578125 74.21875 30.609375 74.21875 
Q 43.265625 74.21875 49.921875 64.515625 
Q 56.59375 54.828125 56.59375 36.375 
Q 56.59375 19.140625 48.40625 8.859375 
Q 40.234375 -1.421875 26.421875 -1.421875 
Q 22.703125 -1.421875 18.890625 -0.6875 
Q 15.09375 0.046875 10.984375 1.515625 
z
M 30.609375 32.421875 
Q 37.25 32.421875 41.125 36.953125 
Q 45.015625 41.5 45.015625 49.421875 
Q 45.015625 57.28125 41.125 61.84375 
Q 37.25 66.40625 30.609375 66.40625 
Q 23.96875 66.40625 20.09375 61.84375 
Q 16.21875 57.28125 16.21875 49.421875 
Q 16.21875 41.5 20.09375 36.953125 
Q 23.96875 32.421875 30.609375 32.421875 
z
" id="DejaVuSans-39"/>
      </defs>
      <g transform="translate(28.445 33.848481)scale(0.1 -0.1)">
       <use xlink:href="#DejaVuSans-39"/>
       <use x="63.623047" xlink:href="#DejaVuSans-30"/>
      </g>
     </g>
    </g>
    <g id="text_19">
     <!-- PSNR -->
     <defs>
      <path d="M 19.671875 64.796875 
L 19.671875 37.40625 
L 32.078125 37.40625 
Q 38.96875 37.40625 42.71875 40.96875 
Q 46.484375 44.53125 46.484375 51.125 
Q 46.484375 57.671875 42.71875 61.234375 
Q 38.96875 64.796875 32.078125 64.796875 
z
M 9.8125 72.90625 
L 32.078125 72.90625 
Q 44.34375 72.90625 50.609375 67.359375 
Q 56.890625 61.8125 56.890625 51.125 
Q 56.890625 40.328125 50.609375 34.8125 
Q 44.34375 29.296875 32.078125 29.296875 
L 19.671875 29.296875 
L 19.671875 0 
L 9.8125 0 
z
" id="DejaVuSans-50"/>
      <path d="M 53.515625 70.515625 
L 53.515625 60.890625 
Q 47.90625 63.578125 42.921875 64.890625 
Q 37.9375 66.21875 33.296875 66.21875 
Q 25.25 66.21875 20.875 63.09375 
Q 16.5 59.96875 16.5 54.203125 
Q 16.5 49.359375 19.40625 46.890625 
Q 22.3125 44.4375 30.421875 42.921875 
L 36.375 41.703125 
Q 47.40625 39.59375 52.65625 34.296875 
Q 57.90625 29 57.90625 20.125 
Q 57.90625 9.515625 50.796875 4.046875 
Q 43.703125 -1.421875 29.984375 -1.421875 
Q 24.8125 -1.421875 18.96875 -0.25 
Q 13.140625 0.921875 6.890625 3.21875 
L 6.890625 13.375 
Q 12.890625 10.015625 18.65625 8.296875 
Q 24.421875 6.59375 29.984375 6.59375 
Q 38.421875 6.59375 43.015625 9.90625 
Q 47.609375 13.234375 47.609375 19.390625 
Q 47.609375 24.75 44.3125 27.78125 
Q 41.015625 30.8125 33.5 32.328125 
L 27.484375 33.5 
Q 16.453125 35.6875 11.515625 40.375 
Q 6.59375 45.0625 6.59375 53.421875 
Q 6.59375 63.09375 13.40625 68.65625 
Q 20.21875 74.21875 32.171875 74.21875 
Q 37.3125 74.21875 42.625 73.28125 
Q 47.953125 72.359375 53.515625 70.515625 
z
" id="DejaVuSans-53"/>
      <path d="M 9.8125 72.90625 
L 23.09375 72.90625 
L 55.421875 11.921875 
L 55.421875 72.90625 
L 64.984375 72.90625 
L 64.984375 0 
L 51.703125 0 
L 19.390625 60.984375 
L 19.390625 0 
L 9.8125 0 
z
" id="DejaVuSans-4e"/>
      <path d="M 44.390625 34.1875 
Q 47.5625 33.109375 50.5625 29.59375 
Q 53.5625 26.078125 56.59375 19.921875 
L 66.609375 0 
L 56 0 
L 46.6875 18.703125 
Q 43.0625 26.03125 39.671875 28.421875 
Q 36.28125 30.8125 30.421875 30.8125 
L 19.671875 30.8125 
L 19.671875 0 
L 9.8125 0 
L 9.8125 72.90625 
L 32.078125 72.90625 
Q 44.578125 72.90625 50.734375 67.671875 
Q 56.890625 62.453125 56.890625 51.90625 
Q 56.890625 45.015625 53.6875 40.46875 
Q 50.484375 35.9375 44.390625 34.1875 
z
M 19.671875 64.796875 
L 19.671875 38.921875 
L 32.078125 38.921875 
Q 39.203125 38.921875 42.84375 42.21875 
Q 46.484375 45.515625 46.484375 51.90625 
Q 46.484375 58.296875 42.84375 61.546875 
Q 39.203125 64.796875 32.078125 64.796875 
z
" id="DejaVuSans-52"/>
     </defs>
     <g transform="translate(21.533437 175.445469)rotate(-90)scale(0.14 -0.14)">
      <use xlink:href="#DejaVuSans-50"/>
      <use x="60.302734" xlink:href="#DejaVuSans-53"/>
      <use x="123.779297" xlink:href="#DejaVuSans-4e"/>
      <use x="198.583984" xlink:href="#DejaVuSans-52"/>
     </g>
    </g>
   </g>
   <g id="line2d_18">
    <path clip-path="url(#p21767e193a)" d="M 66.233416 286.96793 
L 67.11924 269.098067 
L 67.709789 253.006288 
L 67.857425 252.324461 
L 68.447973 247.89242 
L 70.071985 240.133932 
L 70.367262 238.168137 
L 71.253092 234.142191 
L 71.695997 230.264614 
L 72.434178 224.572611 
L 73.320009 222.703172 
L 73.615286 221.925989 
L 73.910563 221.170812 
L 74.501095 219.54643 
L 74.796372 218.900612 
L 75.534553 216.256991 
L 75.682202 216.078616 
L 75.977479 215.256756 
L 76.272756 214.791314 
L 77.306214 213.857094 
L 77.453842 213.585697 
L 77.601491 213.584363 
L 78.044396 213.013563 
L 78.782577 212.426425 
L 79.077854 212.060005 
L 79.225503 211.608233 
L 79.373131 211.608233 
L 80.258962 210.762701 
L 80.554238 210.654009 
L 80.701866 210.333267 
L 80.849494 210.302259 
L 81.440048 209.727124 
L 81.735325 209.612764 
L 83.506964 207.590623 
L 83.654613 207.271214 
L 83.802241 207.223536 
L 84.097518 206.685077 
L 84.245167 206.639066 
L 84.688072 205.825875 
L 85.426253 205.271078 
L 86.164435 203.921428 
L 86.312084 203.866415 
L 86.607361 203.187255 
L 87.050265 202.566109 
L 87.345542 201.715576 
L 87.493085 201.715576 
L 88.083681 200.607649 
L 88.231436 200.505292 
L 88.526734 199.941493 
L 88.82182 199.622085 
L 89.117118 198.953594 
L 89.264873 198.728875 
L 89.412416 198.728875 
L 89.560172 198.503155 
L 89.707714 198.493486 
L 89.85547 198.138736 
L 90.003012 198.161075 
L 91.47929 196.011237 
L 91.627046 196.009903 
L 91.774588 195.677492 
L 91.922344 195.691495 
L 92.069886 195.364418 
L 92.217642 195.376754 
L 92.365185 194.999999 
L 92.51294 194.999999 
L 92.808025 194.590903 
L 92.955781 194.420863 
L 93.103324 194.041774 
L 93.251079 194.041774 
L 93.398622 193.814387 
L 93.546377 193.822056 
L 93.69392 193.409959 
L 93.841675 193.409959 
L 93.989218 193.171236 
L 94.284516 193.058543 
L 94.579814 192.49341 
L 94.727357 192.49341 
L 94.875112 192.283028 
L 95.022655 192.283028 
L 95.17041 192.138327 
L 95.317953 192.168001 
L 96.35139 190.147193 
L 96.499145 189.977153 
L 97.384827 188.087042 
L 97.532583 188.091043 
L 97.827881 187.581924 
L 97.975423 187.487902 
L 99.746999 182.98051 
L 100.190053 182.73912 
L 100.337596 182.38737 
L 100.632894 182.306685 
L 101.075735 181.985276 
L 101.666331 181.919594 
L 102.40447 181.712212 
L 102.552225 181.712212 
L 102.699768 181.596518 
L 102.995066 181.564844 
L 105.504994 180.823003 
L 105.800292 180.670967 
L 106.243133 180.402571 
L 106.538431 180.174517 
L 107.129027 179.953132 
L 107.27657 179.907455 
L 107.71941 179.404337 
L 107.867166 179.432343 
L 108.014709 179.248967 
L 108.162464 179.248967 
L 108.605305 178.757851 
L 108.900603 178.519462 
L 109.638742 178.020345 
L 109.786497 177.836969 
L 110.081583 177.732277 
L 110.376881 177.568906 
L 110.819934 177.482885 
L 111.558073 177.408201 
L 111.853371 177.185482 
L 112.000914 177.188483 
L 112.443968 176.937424 
L 113.034351 176.640021 
L 113.477405 176.555334 
L 113.772703 176.417302 
L 114.067788 176.157574 
L 114.215544 176.161242 
L 114.658384 175.758147 
L 114.80614 175.71247 
L 115.101438 175.343049 
L 115.396523 175.296705 
L 115.691821 175.159006 
L 115.98712 174.888943 
L 116.282418 174.601542 
L 116.577716 174.528525 
L 116.873014 174.398494 
L 117.906451 174.1391 
L 118.497047 174.022406 
L 118.792345 173.88204 
L 119.235186 173.851699 
L 119.973325 173.720668 
L 120.416379 173.617644 
L 127.945736 172.141298 
L 128.38879 171.81022 
L 129.274471 171.730201 
L 130.455664 171.480142 
L 132.079697 171.369116 
L 134.146571 170.81732 
L 134.441869 170.720297 
L 134.88471 170.607604 
L 135.327551 170.474239 
L 135.918147 170.383551 
L 137.689936 170.099818 
L 137.837478 170.097818 
L 138.132777 169.932112 
L 138.575617 169.926778 
L 138.870916 169.827087 
L 145.071751 168.409755 
L 145.367049 168.310065 
L 145.957432 168.158696 
L 146.548028 167.976319 
L 148.319817 167.530882 
L 148.614903 167.402851 
L 148.762658 167.404852 
L 149.057956 167.279489 
L 151.12483 166.969416 
L 151.567671 166.941076 
L 151.862969 166.84272 
L 152.010724 166.850055 
L 152.306023 166.683683 
L 152.453565 166.693018 
L 152.896406 166.320597 
L 153.33946 166.225908 
L 156.735069 165.648439 
L 157.030367 165.538747 
L 157.473208 165.475065 
L 158.506645 165.226674 
L 158.801943 165.132985 
L 159.097241 165.140654 
L 159.392539 165.007289 
L 159.983136 164.739226 
L 160.425976 164.670877 
L 160.721274 164.491835 
L 161.311871 164.391144 
L 161.607169 164.226439 
L 162.05001 164.164424 
L 162.345308 163.95971 
L 162.640606 163.825011 
L 163.083447 163.745993 
L 163.674043 163.637301 
L 165.593374 163.199864 
L 166.036215 162.919132 
L 170.317719 161.968242 
L 170.76056 161.834877 
L 171.055858 161.786199 
L 171.941752 161.450787 
L 172.384593 161.398108 
L 172.975189 160.99468 
L 173.122732 160.996347 
L 173.565785 160.564246 
L 173.860871 160.494229 
L 175.780202 159.695708 
L 177.404235 159.141911 
L 177.699534 159.069228 
L 177.994832 158.87885 
L 178.585428 158.68347 
L 178.880726 158.532768 
L 179.323567 158.516765 
L 179.618865 158.432412 
L 180.9476 158.036652 
L 181.242898 157.88795 
L 181.390441 157.88795 
L 181.685739 157.713909 
L 181.981037 157.608885 
L 182.423878 157.475854 
L 182.719176 157.368495 
L 183.162017 157.252801 
L 183.752613 157.165447 
L 184.638508 157.002076 
L 185.081348 156.99074 
L 186.114785 156.8217 
L 186.557839 156.785025 
L 187.295978 156.403935 
L 188.034117 156.328918 
L 188.329415 156.266236 
L 188.772256 156.224226 
L 189.067554 156.130871 
L 189.362852 155.92749 
L 189.805693 155.755116 
L 190.396289 155.662761 
L 192.906217 155.171979 
L 193.201515 155.122301 
L 193.496813 155.052618 
L 193.791898 154.927588 
L 194.53025 154.816896 
L 195.415932 154.60718 
L 195.71123 154.573172 
L 196.154283 154.226424 
L 196.449369 154.139403 
L 196.892422 154.012707 
L 197.483018 153.935022 
L 197.778104 153.730641 
L 198.221157 153.656957 
L 200.878628 152.885109 
L 201.173926 152.71807 
L 201.469224 152.614045 
L 201.764309 152.370988 
L 202.059607 152.33798 
L 202.354906 152.23529 
L 202.945502 152.016905 
L 203.536098 151.573467 
L 204.126694 151.479445 
L 204.569535 151.210049 
L 204.717078 151.200046 
L 205.455429 150.658586 
L 205.89827 150.636247 
L 206.488866 150.224817 
L 206.784165 150.056111 
L 207.522304 149.494313 
L 208.407985 149.248588 
L 209.29388 148.47374 
L 209.441635 148.47374 
L 209.884476 148.217013 
L 210.032019 148.224681 
L 211.065456 147.210776 
L 211.360754 147.115421 
L 211.95135 146.616303 
L 212.099105 146.64331 
L 212.837244 145.948813 
L 213.280085 145.925808 
L 215.937555 144.010691 
L 216.232854 143.931339 
L 217.709131 142.355969 
L 218.595026 142.290621 
L 219.48092 141.737824 
L 220.071516 141.641468 
L 220.366602 141.379073 
L 220.6619 141.276716 
L 221.400251 140.516871 
L 221.695337 140.460524 
L 222.285933 139.892391 
L 222.876529 139.816373 
L 223.171827 139.550644 
L 223.31937 139.550644 
L 224.352807 138.822806 
L 224.648105 138.751123 
L 224.795861 138.564746 
L 225.091159 138.561412 
L 225.976841 137.630526 
L 226.124596 137.614523 
L 226.567437 137.087399 
L 226.862735 137.101402 
L 228.634311 134.816532 
L 228.782066 134.816532 
L 229.077364 134.515795 
L 229.815503 133.657927 
L 230.110801 133.59958 
L 231.144238 132.504989 
L 234.392305 129.210549 
L 236.90202 126.364881 
L 239.264192 123.395517 
L 240.592927 121.610098 
L 240.888226 121.617099 
L 243.398153 118.320992 
L 247.531901 113.00641 
L 251.075266 109.642954 
L 253.584981 106.962324 
L 255.947366 104.115989 
L 261.557392 96.993983 
L 261.705147 96.993983 
L 262.147988 96.465859 
L 262.738584 95.823709 
L 263.033883 95.84638 
L 263.329181 95.498966 
L 263.772022 95.427615 
L 265.100757 94.267343 
L 268.496366 91.418674 
L 268.644121 91.432344 
L 272.630327 87.517425 
L 272.77787 87.531428 
L 274.106605 86.066417 
L 274.401903 86.087755 
L 275.730638 84.676424 
L 276.025936 84.627746 
L 276.321234 84.543726 
L 276.468777 84.567732 
L 277.059373 84.035273 
L 277.354671 83.955921 
L 277.649969 83.875903 
L 277.797512 83.902909 
L 278.09281 83.771878 
L 278.683406 83.769211 
L 279.42112 83.105055 
L 279.716631 83.092052 
L 280.012142 82.978692 
L 280.307652 82.899007 
L 280.898674 82.448234 
L 281.194184 82.426229 
L 281.636388 82.088483 
L 281.931898 82.067811 
L 282.965123 81.454667 
L 283.407326 81.418659 
L 283.998347 80.916541 
L 285.327082 79.660913 
L 285.918104 79.478203 
L 286.655818 78.863059 
L 286.951328 78.862059 
L 287.393531 78.52698 
L 288.131245 78.445627 
L 288.426756 78.361941 
L 289.45998 78.273587 
L 290.19982 78.224909 
L 290.346512 78.265252 
L 290.642023 78.096212 
L 291.528555 77.999523 
L 291.970758 77.940842 
L 293.003983 77.883495 
L 294.332718 77.777804 
L 294.774921 77.723791 
L 295.514761 77.635437 
L 295.810271 77.589426 
L 296.990188 77.072305 
L 297.432391 76.967947 
L 299.796477 76.250445 
L 300.680883 76.168426 
L 301.125212 75.970046 
L 301.862926 75.920368 
L 303.191661 75.12018 
L 303.487172 75.089173 
L 304.076067 74.798771 
L 304.371578 74.728088 
L 304.667088 74.59539 
L 305.111418 74.521373 
L 306.144642 73.872553 
L 306.440153 73.866552 
L 307.177866 73.396775 
L 308.062273 73.292084 
L 308.653294 72.896324 
L 309.097623 72.7943 
L 309.539826 72.509233 
L 309.982029 72.459888 
L 310.719743 71.963772 
L 311.164072 71.858414 
L 312.197296 71.166251 
L 312.492807 71.005547 
L 312.93501 70.760823 
L 313.230521 70.713812 
L 313.526032 70.588782 
L 313.821542 70.566777 
L 315.001459 69.646561 
L 315.445788 69.537202 
L 315.887991 69.217127 
L 316.183502 69.21546 
L 317.070034 68.64766 
L 317.363419 68.595981 
L 317.658929 68.5343 
L 317.95444 68.429609 
L 318.545462 68.002508 
L 319.283175 67.931492 
L 319.578686 67.74078 
L 319.874197 67.575741 
L 320.3164 67.465716 
L 320.907421 67.144307 
L 321.202932 67.044283 
L 321.940646 66.46448 
L 322.678359 66.44781 
L 323.269381 66.149073 
L 323.418199 66.175413 
L 324.155913 65.618949 
L 324.893627 65.576605 
L 325.33583 65.305208 
L 325.780159 65.203518 
L 326.222362 64.94179 
L 326.960076 64.917784 
L 327.404405 64.648054 
L 328.142118 64.5607 
L 328.584322 64.419667 
L 329.175343 64.345983 
L 330.208567 63.894877 
L 330.799589 63.405429 
L 331.241792 63.300071 
L 331.686121 62.952322 
L 333.014856 62.88364 
L 333.308241 62.807622 
L 333.603752 62.747274 
L 333.899262 62.639249 
L 334.636976 62.54556 
L 335.376816 62.452205 
L 335.672326 62.424532 
L 335.965711 62.19081 
L 336.852243 62.163804 
L 337.147754 62.066781 
L 338.329797 61.97876 
L 339.509714 61.829059 
L 340.838449 61.75104 
L 341.133959 61.584668 
L 341.576163 61.499648 
L 344.677962 60.987861 
L 345.266857 60.879836 
L 346.006697 60.682123 
L 346.302208 60.574764 
L 347.186614 60.465072 
L 347.924328 60.014966 
L 348.368657 59.978957 
L 348.81086 59.737567 
L 349.253063 59.682221 
L 349.548574 59.559526 
L 349.992903 59.485508 
L 350.288413 59.386818 
L 350.730616 59.294797 
L 351.46833 59.114421 
L 352.354862 58.562291 
L 352.797065 58.516281 
L 353.092576 58.390918 
L 353.534779 58.32757 
L 354.863514 57.483038 
L 355.307843 57.399018 
L 356.341068 56.76987 
L 356.783271 56.66818 
L 357.669803 56.105714 
L 358.112006 56.035698 
L 358.703027 55.649607 
L 359.14523 55.566921 
L 361.951519 53.373406 
L 362.393722 53.100675 
L 362.835925 53.010988 
L 364.017968 52.093105 
L 364.460171 52.04076 
L 365.788906 51.008184 
L 366.084417 50.997181 
L 366.379928 50.764127 
L 366.822131 50.738121 
L 367.26646 50.411711 
L 367.708663 50.357365 
L 368.446377 49.799567 
L 368.741887 49.805902 
L 369.332909 49.38647 
L 369.775112 49.299116 
L 370.957155 48.942032 
L 371.103847 48.956035 
L 371.841561 48.371898 
L 372.28589 48.340891 
L 372.5814 48.163516 
L 373.465807 48.16585 
L 373.910136 47.868113 
L 374.352339 47.799097 
L 374.794542 47.455683 
L 375.238871 47.411339 
L 375.827766 46.941562 
L 376.714298 46.870879 
L 377.009809 46.669498 
L 377.60083 46.300745 
L 378.043034 46.216725 
L 378.338544 46.132039 
L 378.634055 46.131039 
L 380.109482 45.035448 
L 381.142707 44.617683 
L 381.438218 44.468982 
L 381.882547 44.443309 
L 384.686709 42.73124 
L 384.98222 42.692231 
L 388.081893 40.664422 
L 388.968426 40.4317 
L 389.559447 40.13463 
L 392.807939 38.694959 
L 393.101323 38.615607 
L 394.874388 37.74707 
L 405.208758 32.73856 
L 410.670391 30.856452 
L 420.267048 27.659367 
L 422.482316 27.126909 
L 426.910724 26.429745 
L 427.501746 26.352727 
L 427.501746 26.352727 
" style="fill:none;stroke:#1f77b4;stroke-linecap:square;stroke-width:1.5;"/>
   </g>
   <g id="line2d_19">
    <path clip-path="url(#p21767e193a)" d="M 66.233416 286.874575 
L 66.676329 281.974424 
L 67.11924 272.345163 
L 67.414514 258.826655 
L 67.857425 252.319793 
L 68.1527 250.545377 
L 68.300345 250.257642 
L 69.776708 243.670429 
L 70.219613 240.228287 
L 70.662539 236.493077 
L 71.548348 231.580923 
L 71.843625 229.553447 
L 71.991274 229.473762 
L 72.729455 224.483923 
L 72.877083 223.712409 
L 73.467637 222.898551 
L 73.910563 221.883979 
L 74.205818 221.698269 
L 74.648744 220.902082 
L 74.796372 220.85007 
L 74.944021 220.39863 
L 75.091649 220.323279 
L 75.239298 219.809825 
L 75.386925 219.704467 
L 75.682202 219.178677 
L 76.420384 216.0116 
L 77.010938 214.968355 
L 77.158565 214.83299 
L 77.306214 214.199508 
L 77.601491 214.036136 
L 77.896768 213.732398 
L 78.044396 213.732398 
L 78.339673 213.354643 
L 78.4873 213.350308 
L 78.782577 213.030233 
L 78.930226 213.017564 
L 79.225503 212.560456 
L 79.520759 212.467434 
L 79.668408 211.924974 
L 79.816036 211.924974 
L 81.440048 210.693018 
L 81.587697 210.355605 
L 81.882974 210.274586 
L 82.178229 210.148557 
L 82.768783 209.863156 
L 82.916432 209.545082 
L 83.06406 209.545082 
L 83.359337 209.31336 
L 84.097518 208.866255 
L 84.245167 208.645204 
L 84.540444 208.574854 
L 85.130976 208.225105 
L 85.278625 208.225105 
L 85.573902 208.013055 
L 85.869179 207.998385 
L 86.902637 206.708415 
L 87.493085 205.921564 
L 87.788383 205.287082 
L 87.936138 205.221399 
L 88.083681 204.974675 
L 88.231436 204.985344 
L 88.526734 204.341193 
L 88.674277 204.332524 
L 88.969575 203.77406 
L 89.707714 201.496858 
L 89.85547 201.17745 
L 90.003012 201.186118 
L 90.29831 200.561305 
L 90.445853 200.445278 
L 90.593609 199.923489 
L 90.741151 199.923489 
L 91.036449 199.412702 
L 91.47929 198.949593 
L 91.627046 198.949593 
L 92.365185 197.2742 
L 92.51294 197.265531 
L 92.660483 196.96346 
L 92.808025 196.969128 
L 93.251079 196.256961 
L 93.546377 195.412763 
L 93.69392 195.412763 
L 93.841675 195.072349 
L 94.136761 195.03234 
L 94.432059 193.751373 
L 94.579814 193.689358 
L 94.875112 193.055209 
L 95.317953 192.873166 
L 95.613251 192.838158 
L 96.056092 192.325371 
L 96.35139 192.211344 
L 96.794231 191.944615 
L 96.941986 191.955284 
L 97.089529 191.757904 
L 97.237284 191.78191 
L 97.384827 191.596533 
L 97.532583 191.5982 
L 98.122966 190.388583 
L 98.56602 189.486038 
L 98.713562 189.486038 
L 99.00886 188.990588 
L 99.156616 188.965249 
L 99.894755 187.277185 
L 100.190053 186.619031 
L 100.337596 186.619031 
L 100.632894 186.052898 
L 101.371033 184.411179 
L 101.518788 184.387173 
L 101.666331 184.176124 
L 101.814086 184.196129 
L 101.961629 183.880388 
L 102.109172 183.880388 
L 102.256927 183.741689 
L 102.40447 183.301919 
L 102.552225 183.301919 
L 102.847523 182.858148 
L 102.995066 182.867817 
L 103.142821 182.637763 
L 103.290364 182.637763 
L 103.437907 182.448051 
L 103.733205 181.751554 
L 103.88096 181.764891 
L 104.028503 181.545839 
L 104.176258 181.538171 
L 104.323801 181.315785 
L 105.800292 181.229098 
L 106.390675 181.148079 
L 107.424112 181.013381 
L 108.605305 180.850676 
L 108.900603 180.693639 
L 110.376881 180.561275 
L 110.672179 180.396903 
L 117.168312 179.520364 
L 117.46361 179.407337 
L 118.053994 179.353991 
L 118.939888 179.259303 
L 119.825782 179.005243 
L 120.416379 178.987239 
L 120.711464 178.770521 
L 121.154517 178.72451 
L 121.449816 178.593146 
L 121.892656 178.420105 
L 122.926094 178.115701 
L 123.221392 177.851305 
L 124.845425 177.722942 
L 125.140723 177.405867 
L 125.583564 177.323181 
L 125.878862 177.048117 
L 126.469458 176.454977 
L 127.502895 176.319946 
L 127.798193 176.08389 
L 128.093491 175.986534 
L 128.536332 175.918518 
L 128.683875 175.912183 
L 128.979173 175.6998 
L 129.422227 175.678128 
L 129.865067 175.534094 
L 131.04626 175.063317 
L 131.489101 174.473845 
L 132.079697 174.38149 
L 132.374995 174.276466 
L 132.965379 174.089088 
L 133.113134 174.093756 
L 133.555975 173.717668 
L 133.998816 173.694662 
L 134.294114 173.575634 
L 135.622849 173.261227 
L 135.770604 173.033507 
L 136.951584 172.94482 
L 137.246882 172.674089 
L 137.837478 172.586402 
L 138.132777 172.185975 
L 138.870916 172.092953 
L 139.461512 171.918912 
L 139.75681 171.821889 
L 140.790247 171.518818 
L 141.085545 171.492479 
L 141.528386 171.104387 
L 141.971227 171.043373 
L 143.299962 170.825989 
L 144.185856 170.80365 
L 144.481154 170.698959 
L 145.367049 170.496245 
L 146.400486 170.422561 
L 146.695784 170.274859 
L 147.581466 170.120156 
L 149.648552 169.880767 
L 149.943638 169.80875 
L 150.977287 169.654714 
L 151.272373 169.560358 
L 154.520439 169.05824 
L 154.815738 168.940879 
L 155.701632 168.746834 
L 155.99693 168.507444 
L 156.292228 168.44643 
L 156.587314 168.251051 
L 157.17791 168.081011 
L 158.063804 167.954981 
L 163.526288 166.875061 
L 163.969341 166.4743 
L 164.559725 166.421954 
L 164.855023 166.279588 
L 166.036215 166.184565 
L 166.479056 166.033863 
L 166.774354 165.847486 
L 167.217195 165.760799 
L 167.512493 165.653107 
L 168.398387 165.416052 
L 168.693685 165.269684 
L 169.874665 165.110647 
L 170.317719 164.991285 
L 171.055858 164.945941 
L 171.646454 164.749228 
L 172.532136 164.68388 
L 173.122732 164.537179 
L 173.565785 164.51384 
L 174.156169 164.398813 
L 174.599222 164.391478 
L 174.89452 164.203433 
L 176.518341 163.858686 
L 176.813639 163.598958 
L 177.699534 163.501935 
L 177.994832 163.389909 
L 179.618865 163.056831 
L 179.914163 162.914798 
L 180.357004 162.790435 
L 180.652302 162.582386 
L 180.9476 162.465025 
L 181.833282 162.27098 
L 182.276335 161.863551 
L 182.571633 161.823875 
L 182.866932 161.667171 
L 183.162017 161.583818 
L 183.900369 161.543475 
L 184.195667 161.402109 
L 184.343209 161.42078 
L 184.638508 161.161386 
L 184.933806 161.142381 
L 185.229104 161.030022 
L 185.819487 160.692942 
L 186.705382 159.792731 
L 187.148223 159.750721 
L 187.738819 159.471656 
L 188.329415 159.199592 
L 189.067554 159.015882 
L 189.65815 158.48309 
L 189.953448 158.385734 
L 190.248746 158.252703 
L 190.396289 158.210693 
L 190.986885 157.673567 
L 191.429726 157.676567 
L 192.31562 157.057755 
L 192.906217 156.985405 
L 193.201515 156.913388 
L 193.349058 156.918723 
L 193.644356 156.776356 
L 194.087196 156.584978 
L 194.53025 156.565973 
L 194.825548 156.307246 
L 194.973091 156.317248 
L 195.268389 156.19722 
L 195.71123 156.106865 
L 197.778104 155.505724 
L 198.221157 155.362357 
L 198.959296 154.892247 
L 199.549893 154.462813 
L 199.992733 154.423803 
L 200.435574 154.147739 
L 201.02617 154.077055 
L 202.354906 153.722305 
L 202.797959 153.451575 
L 202.945502 153.474914 
L 203.2408 153.254195 
L 203.978939 153.150838 
L 204.569535 153.067485 
L 205.012376 152.780418 
L 206.045813 152.157271 
L 206.488866 151.871871 
L 206.636409 151.878873 
L 207.07925 151.46911 
L 208.1129 151.155369 
L 208.555741 150.65992 
L 209.146337 150.569232 
L 209.441635 150.425198 
L 209.589178 150.431866 
L 210.77037 149.315937 
L 211.065456 149.259257 
L 211.360754 149.057543 
L 211.508509 149.047541 
L 212.689489 148.053974 
L 212.837244 148.075313 
L 213.42784 147.515848 
L 213.722926 147.412824 
L 214.60882 146.560957 
L 214.756576 146.560957 
L 215.790013 145.689086 
L 216.380396 145.419689 
L 217.118748 144.764869 
L 217.561589 144.394448 
L 218.00443 144.345103 
L 218.595026 144.029029 
L 218.890324 143.794307 
L 219.48092 143.285188 
L 219.628463 143.290189 
L 222.285933 140.364168 
L 222.433689 140.364168 
L 223.171827 139.496298 
L 224.352807 138.172654 
L 224.500563 138.172654 
L 224.943403 137.906925 
L 225.386457 137.81757 
L 226.419894 136.595283 
L 226.715192 136.582947 
L 227.748629 135.570043 
L 228.19147 135.351658 
L 228.486768 135.116269 
L 228.634311 135.132606 
L 229.077364 134.573475 
L 229.372662 134.470118 
L 230.110801 133.531564 
L 230.84894 133.333184 
L 231.144238 132.899749 
L 235.868583 127.997598 
L 238.526053 124.833521 
L 240.888226 121.670778 
L 246.941305 113.618888 
L 251.370564 109.383893 
L 253.14214 107.567466 
L 253.437438 107.510453 
L 255.799611 104.730133 
L 257.866485 102.281225 
L 258.01424 102.293228 
L 258.604836 101.568724 
L 262.443286 96.814608 
L 262.738584 96.714584 
L 263.476723 95.840046 
L 264.214862 95.693678 
L 264.805459 95.668672 
L 265.100757 95.367601 
L 266.577247 95.309254 
L 266.872333 95.201229 
L 267.610684 95.098872 
L 267.905982 94.871151 
L 268.201068 94.87982 
L 268.496366 94.693443 
L 268.791664 94.683107 
L 270.268155 93.533837 
L 270.563453 93.509498 
L 270.858538 93.314786 
L 271.153836 93.312119 
L 271.744433 92.818003 
L 272.187273 92.714312 
L 274.106605 91.025915 
L 274.401903 90.986573 
L 276.321234 89.246497 
L 276.616532 89.168812 
L 278.978917 86.544196 
L 279.274428 86.195114 
L 279.716631 86.089089 
L 280.012142 85.780683 
L 280.307652 85.780683 
L 281.487569 84.553395 
L 281.78308 84.508051 
L 282.078591 84.253991 
L 282.816304 84.257326 
L 283.260633 83.942252 
L 284.44055 83.847229 
L 284.736061 83.76321 
L 285.031572 83.665853 
L 285.473775 83.610174 
L 285.769285 83.529488 
L 285.918104 83.53849 
L 286.509125 82.952019 
L 286.80251 82.798983 
L 287.098021 82.78498 
L 287.54235 82.484909 
L 287.83786 82.453235 
L 288.131245 82.335541 
L 288.871085 82.252188 
L 289.45998 82.069145 
L 290.051002 81.600368 
L 290.346512 81.555358 
L 290.937534 81.022899 
L 291.379737 80.599467 
L 291.824066 80.53045 
L 292.117451 80.294395 
L 292.56178 80.207708 
L 292.85729 80.129023 
L 293.152801 80.036334 
L 293.446186 79.921307 
L 293.595004 79.921307 
L 293.890515 79.805613 
L 294.186025 79.784275 
L 294.628229 79.471535 
L 295.365942 79.39185 
L 295.956964 79.15346 
L 296.547985 79.114118 
L 297.139007 78.620002 
L 298.023413 78.546318 
L 298.761126 77.94651 
L 302.158436 77.844486 
L 302.747332 77.754799 
L 304.520396 77.697452 
L 305.111418 77.56442 
L 306.440153 77.542082 
L 306.882356 77.344702 
L 308.062273 77.328032 
L 308.357783 77.227008 
L 310.130848 77.125317 
L 310.719743 76.81191 
L 311.901786 76.756564 
L 312.197296 76.679213 
L 312.492807 76.631201 
L 314.263745 75.487266 
L 314.705948 75.411248 
L 318.103259 73.200062 
L 319.431994 73.051361 
L 319.727504 72.960339 
L 321.202932 71.895089 
L 321.645135 71.813737 
L 322.236156 71.419978 
L 322.678359 71.339959 
L 322.97387 71.247604 
L 323.269381 71.234267 
L 323.564892 71.110905 
L 323.860402 71.106571 
L 324.598116 70.613121 
L 324.893627 70.59445 
L 325.189137 70.442081 
L 325.631341 70.360395 
L 327.108894 69.203124 
L 327.404405 69.215793 
L 327.699915 69.020081 
L 328.584322 68.955399 
L 330.357386 67.513727 
L 330.65077 67.466049 
L 330.946281 67.258 
L 331.39061 67.200987 
L 331.686121 67.131304 
L 331.979506 67.052952 
L 332.275016 66.982936 
L 333.014856 66.886913 
L 333.308241 66.75855 
L 334.194773 66.701536 
L 334.636976 66.381128 
L 334.932487 66.384795 
L 335.376816 66.016042 
L 335.819019 65.968364 
L 336.11453 65.865673 
L 336.41004 65.834332 
L 336.852243 65.568937 
L 337.147754 65.574938 
L 337.443265 65.420235 
L 338.329797 65.337883 
L 339.067511 64.799756 
L 339.509714 64.691731 
L 339.805224 64.54803 
L 340.100735 64.5597 
L 340.838449 63.993233 
L 341.724981 63.926551 
L 342.167184 63.605476 
L 342.609387 63.507453 
L 343.644737 62.614576 
L 343.938122 62.608908 
L 344.233633 62.397192 
L 345.120165 62.324842 
L 345.415676 62.164137 
L 345.857879 62.059113 
L 346.153389 61.841395 
L 346.595593 61.788049 
L 346.891103 61.684358 
L 347.630943 61.600005 
L 347.924328 61.439634 
L 348.219838 61.30827 
L 349.106371 61.225917 
L 349.401881 61.097553 
L 349.697392 61.093552 
L 349.992903 60.955187 
L 350.877309 60.852829 
L 351.172819 60.791815 
L 351.910533 60.752806 
L 352.206044 60.639779 
L 353.092576 60.536088 
L 353.979108 60.4464 
L 354.568004 60.417727 
L 354.863514 60.291698 
L 355.307843 60.228683 
L 355.750046 60.122658 
L 356.48776 60.034637 
L 357.225474 59.840592 
L 358.554209 59.320803 
L 362.835925 56.414787 
L 363.280254 56.307095 
L 364.017968 55.817647 
L 364.460171 55.787306 
L 365.493396 55.142822 
L 365.937725 55.036797 
L 367.413152 53.952542 
L 367.855355 53.875857 
L 370.661644 51.491297 
L 373.465807 49.042056 
L 373.910136 48.953035 
L 374.352339 48.648296 
L 374.794542 48.584615 
L 375.681074 47.918458 
L 376.123277 47.822769 
L 376.418788 47.665066 
L 376.863117 47.589381 
L 377.896341 46.801196 
L 378.338544 46.722511 
L 378.780747 46.3911 
L 379.371769 46.289409 
L 379.96279 45.938994 
L 380.404993 45.871644 
L 381.587036 45.079792 
L 382.029239 45.031114 
L 388.526223 40.809122 
L 388.968426 40.742106 
L 390.739364 39.732536 
L 404.913248 32.838584 
L 408.45725 31.60296 
L 420.120356 27.684707 
L 422.333497 27.152582 
L 427.355053 26.369731 
L 427.501746 26.352727 
L 427.501746 26.352727 
" style="fill:none;stroke:#ff7f0e;stroke-linecap:square;stroke-width:1.5;"/>
   </g>
   <g id="line2d_20">
    <path clip-path="url(#p21767e193a)" d="M 66.233416 287.007273 
L 66.52869 284.074917 
L 66.823965 277.975818 
L 66.971603 275.022792 
L 67.414514 258.826655 
L 67.857425 252.116412 
L 68.1527 251.111176 
L 68.300345 250.832444 
L 68.447973 249.824541 
L 68.74325 249.364099 
L 68.890877 247.896421 
L 69.038526 247.798398 
L 69.333803 246.49876 
L 69.62908 243.63242 
L 70.219613 242.150739 
L 70.810166 239.392091 
L 71.548348 231.349869 
L 72.434178 224.833672 
L 72.581827 224.697973 
L 72.877083 223.848441 
L 73.467637 223.143275 
L 73.910563 222.104364 
L 74.05819 222.007675 
L 74.501095 220.716038 
L 74.648744 220.731375 
L 74.796372 220.470314 
L 74.944021 219.757146 
L 75.239298 219.457409 
L 75.534553 218.774916 
L 75.682202 218.413831 
L 75.82983 218.377489 
L 75.977479 218.20945 
L 76.420384 217.292901 
L 76.568033 217.16187 
L 76.863288 216.278996 
L 77.010938 215.984927 
L 77.158565 215.960588 
L 77.306214 215.745538 
L 77.749119 214.071478 
L 78.782577 213.269623 
L 78.930226 212.924542 
L 79.077854 212.919874 
L 79.225503 212.582128 
L 79.373131 212.56279 
L 79.668408 212.277723 
L 79.963685 212.090012 
L 80.111312 211.724927 
L 80.258962 211.707923 
L 80.406589 211.381513 
L 80.701866 211.289825 
L 81.440048 210.942743 
L 81.882974 210.389947 
L 82.030601 210.389947 
L 82.178229 210.153891 
L 82.621155 210.013858 
L 83.359337 209.50874 
L 83.802241 209.227674 
L 84.540444 207.841348 
L 84.983349 207.751327 
L 85.426253 207.523607 
L 85.72153 207.430252 
L 86.016807 207.003485 
L 86.312084 206.848448 
L 86.754988 206.591721 
L 87.050265 206.51737 
L 87.345542 206.340662 
L 87.493085 206.332327 
L 87.64084 206.095605 
L 87.788383 206.076267 
L 88.378979 205.057028 
L 88.674277 204.341193 
L 89.117118 203.091899 
L 89.412416 203.030885 
L 89.560172 202.89652 
L 90.29831 200.839704 
L 90.741151 200.397933 
L 91.036449 199.610749 
L 91.184205 199.548401 
L 91.47929 198.674195 
L 91.627046 198.661859 
L 91.922344 198.013707 
L 92.069886 197.930687 
L 92.217642 197.382892 
L 92.365185 197.382892 
L 92.660483 196.5657 
L 92.808025 196.577369 
L 92.955781 196.180276 
L 93.103324 196.180276 
L 93.546377 195.004333 
L 93.69392 195.020004 
L 94.136761 193.964089 
L 94.284516 193.835059 
L 94.579814 192.90184 
L 95.022655 192.816153 
L 95.17041 192.528752 
L 95.317953 192.528752 
L 95.613251 192.147996 
L 95.760794 192.005629 
L 95.908549 191.699224 
L 96.056092 191.699224 
L 96.499145 190.835354 
L 96.794231 190.34824 
L 96.941986 190.242882 
L 98.418264 186.847084 
L 99.156616 185.003985 
L 99.304159 185.003985 
L 100.190053 183.275579 
L 100.337596 183.275579 
L 100.485351 182.881486 
L 100.632894 182.881486 
L 100.928192 182.588084 
L 101.075735 182.470057 
L 101.371033 182.039622 
L 101.666331 181.879585 
L 105.357238 181.240768 
L 105.800292 181.168418 
L 106.390675 181.030385 
L 106.833729 180.978039 
L 111.262775 180.104501 
L 111.853371 180.026149 
L 112.148669 179.905788 
L 112.739053 179.796762 
L 113.329649 179.187619 
L 113.772703 179.07626 
L 114.363086 178.711841 
L 114.658384 178.652827 
L 114.953682 178.302078 
L 115.396523 178.05802 
L 116.873014 177.414203 
L 117.46361 177.366191 
L 118.053994 176.817062 
L 118.201749 176.838067 
L 118.497047 176.520993 
L 118.792345 176.447642 
L 119.235186 176.148572 
L 119.530484 175.982533 
L 119.678027 175.947525 
L 120.12108 175.379725 
L 120.268623 175.379725 
L 120.563921 175.212352 
L 121.006762 175.189013 
L 121.597358 175.098325 
L 121.745114 175.098325 
L 122.040199 174.97663 
L 122.483253 174.856935 
L 122.926094 174.850934 
L 123.51669 174.461843 
L 123.811988 174.404496 
L 124.107286 174.308807 
L 124.69767 174.253794 
L 124.992968 174.232122 
L 125.436021 173.750342 
L 126.17416 173.652986 
L 126.912299 173.575968 
L 127.060054 173.561631 
L 127.35514 173.299903 
L 127.502895 173.319574 
L 127.650438 173.116193 
L 128.683875 173.030173 
L 128.979173 172.957489 
L 129.274471 172.885472 
L 129.569769 172.735437 
L 130.01261 172.669422 
L 130.898505 172.560396 
L 131.193803 172.436033 
L 131.784399 172.237987 
L 131.931942 172.242988 
L 132.22724 172.112624 
L 132.817836 172.031939 
L 134.441869 171.793216 
L 135.032465 171.687524 
L 136.804041 171.585167 
L 137.09934 171.447135 
L 139.609055 171.108722 
L 140.052108 170.970689 
L 140.790247 170.890337 
L 141.676141 170.839659 
L 141.971227 170.733634 
L 142.709578 170.660617 
L 143.004876 170.483908 
L 144.628697 170.423561 
L 144.923995 170.314869 
L 146.25273 170.176836 
L 147.138625 170.071812 
L 147.433923 169.99246 
L 150.534234 169.506679 
L 151.272373 169.433662 
L 151.567671 169.162265 
L 152.601108 169.068909 
L 153.929843 168.949548 
L 154.963493 168.78851 
L 156.439771 168.48744 
L 156.735069 168.340405 
L 157.473208 168.333403 
L 157.768506 168.172699 
L 160.130678 167.886632 
L 160.425976 167.725594 
L 160.868817 167.649243 
L 161.459413 167.374511 
L 161.754712 167.375512 
L 162.05001 167.238813 
L 163.378745 167.09678 
L 163.674043 166.915737 
L 163.821586 166.929407 
L 164.116884 166.777371 
L 164.412182 166.676348 
L 164.70748 166.488637 
L 165.150321 166.481302 
L 165.445619 166.284922 
L 166.479056 166.199902 
L 167.217195 165.973849 
L 167.512493 165.862823 
L 168.103089 165.775469 
L 168.398387 165.540748 
L 169.284282 165.441391 
L 171.351156 164.838583 
L 171.793997 164.717888 
L 172.089295 164.635868 
L 172.532136 164.523509 
L 173.565785 164.421485 
L 174.156169 164.37414 
L 174.303924 164.388144 
L 174.599222 164.240109 
L 175.189606 164.154755 
L 175.632659 163.818676 
L 176.223256 163.735324 
L 176.518341 163.623964 
L 177.256693 163.586955 
L 177.551991 163.445589 
L 179.028269 162.991816 
L 179.323567 162.846115 
L 179.47111 162.855117 
L 179.766408 162.742757 
L 180.209461 162.715084 
L 180.504547 162.505701 
L 181.390441 162.430684 
L 181.685739 162.281982 
L 181.833282 162.293652 
L 182.12858 162.154619 
L 182.276335 162.15762 
L 182.571633 162.017253 
L 182.719176 162.008251 
L 183.162017 161.737188 
L 183.60507 161.611158 
L 184.638508 161.2204 
L 184.933806 161.104039 
L 185.081348 161.113374 
L 185.524402 160.685607 
L 185.819487 160.636929 
L 186.114785 160.473224 
L 186.705382 160.28518 
L 187.00068 160.068462 
L 187.295978 159.996112 
L 187.738819 159.852412 
L 188.329415 159.785729 
L 189.510607 159.373299 
L 189.65815 159.3763 
L 190.100991 159.092233 
L 190.248746 159.097568 
L 190.691587 158.721813 
L 190.986885 158.640127 
L 191.282183 158.617455 
L 191.725024 158.268373 
L 192.020322 158.179019 
L 192.610919 158.080662 
L 193.053759 157.981972 
L 193.349058 157.771923 
L 193.644356 157.662231 
L 193.939654 157.531533 
L 194.382495 157.457849 
L 194.825548 157.079427 
L 194.973091 157.086762 
L 195.268389 156.904719 
L 195.71123 156.839371 
L 196.006528 156.707673 
L 196.154283 156.707006 
L 196.449369 156.466617 
L 196.744667 156.392933 
L 196.892422 156.208556 
L 197.18772 156.200554 
L 197.483018 156.081193 
L 198.073402 155.894149 
L 198.221157 155.722108 
L 198.516455 155.731777 
L 198.811754 155.512392 
L 198.959296 155.507391 
L 199.254594 155.277671 
L 199.697435 155.245663 
L 199.992733 155.128636 
L 200.435574 155.118633 
L 201.764309 154.242761 
L 202.502661 154.161409 
L 203.2408 153.858004 
L 203.978939 153.758314 
L 204.42178 153.691298 
L 204.717078 153.654956 
L 205.012376 153.543263 
L 206.636409 153.335881 
L 206.784165 153.330547 
L 207.07925 153.155839 
L 207.374548 153.070819 
L 207.669846 152.845433 
L 207.965144 152.831763 
L 208.260442 152.625048 
L 209.441635 152.368321 
L 210.032019 152.047245 
L 210.77037 151.718168 
L 211.065456 151.721169 
L 211.656052 151.346748 
L 211.803807 151.339079 
L 212.246648 151.022005 
L 212.541946 150.927316 
L 212.837244 150.759276 
L 213.132542 150.669589 
L 214.018224 150.400525 
L 215.346959 149.190241 
L 215.494715 149.190241 
L 215.937555 148.965188 
L 216.085311 148.953852 
L 220.6619 144.065038 
L 221.990635 142.610029 
L 222.285933 142.609362 
L 224.500563 140.274481 
L 224.648105 140.284816 
L 226.124596 138.441384 
L 226.862735 137.605187 
L 227.158033 137.545506 
L 228.929609 135.176283 
L 230.110801 133.627253 
L 230.996483 132.979101 
L 235.425742 128.449037 
L 237.787914 125.697057 
L 239.854788 123.045435 
L 246.793762 113.692238 
L 253.14214 107.481446 
L 255.652068 104.791148 
L 255.947366 104.538422 
L 259.638273 99.972683 
L 259.933571 99.876327 
L 262.147988 97.157022 
L 262.443286 97.092006 
L 263.624479 95.58932 
L 264.06732 95.482295 
L 264.362618 95.398609 
L 264.657916 95.31759 
L 265.100757 95.233237 
L 266.281949 95.188893 
L 267.315386 94.771461 
L 267.610684 94.740788 
L 268.644121 93.956937 
L 268.939419 93.921262 
L 270.120399 93.013715 
L 270.415697 92.940031 
L 271.006294 92.444248 
L 271.449134 92.335223 
L 271.892188 92.024483 
L 272.187273 92.004145 
L 275.583095 88.833067 
L 275.730638 88.822064 
L 276.468777 88.181247 
L 277.059373 88.187915 
L 277.797512 87.38606 
L 278.388108 86.743243 
L 278.683406 86.768915 
L 278.978917 86.60521 
L 279.274428 86.5602 
L 280.898674 84.641416 
L 281.636388 84.534057 
L 281.78308 84.484045 
L 282.078591 84.264661 
L 282.374101 84.278997 
L 282.669612 84.116626 
L 283.260633 84.073616 
L 283.556144 83.904243 
L 284.293858 83.796217 
L 284.884879 83.647516 
L 285.18039 83.583167 
L 285.327082 83.591503 
L 285.622593 83.375785 
L 285.918104 83.394456 
L 286.213614 83.179072 
L 286.655818 83.081049 
L 286.951328 82.82999 
L 287.83786 82.718964 
L 288.280063 82.253522 
L 289.45998 82.17617 
L 289.755491 81.973123 
L 291.675247 80.205041 
L 291.970758 80.196039 
L 292.412961 79.900969 
L 292.708472 79.896635 
L 293.299493 79.438194 
L 293.741696 79.337837 
L 294.037207 79.144125 
L 294.332718 79.144458 
L 294.628229 78.991756 
L 295.810271 78.916738 
L 296.399167 78.467633 
L 296.694677 78.463298 
L 296.990188 78.311596 
L 297.432391 78.212573 
L 298.023413 77.834484 
L 301.418597 77.723458 
L 304.371578 77.556419 
L 304.667088 77.411718 
L 306.440153 77.315362 
L 306.882356 77.269685 
L 310.868561 76.932939 
L 311.310764 76.776569 
L 312.492807 76.69455 
L 313.083829 76.363138 
L 315.001459 75.016489 
L 316.183502 74.763096 
L 317.363419 74.04026 
L 317.658929 73.95824 
L 318.398769 73.795535 
L 318.840972 73.740522 
L 319.136483 73.621161 
L 319.578686 73.540809 
L 320.169707 73.390774 
L 320.611911 73.356432 
L 321.202932 72.97701 
L 321.498443 72.974009 
L 321.940646 72.706946 
L 322.384975 72.614925 
L 323.71371 71.685707 
L 324.007095 71.654699 
L 325.042445 70.937531 
L 325.33583 70.90519 
L 325.631341 70.77816 
L 325.926851 70.77816 
L 326.222362 70.658132 
L 326.517873 70.657132 
L 328.142118 69.322818 
L 328.437629 69.308815 
L 329.470854 68.479954 
L 330.357386 68.398935 
L 331.832813 67.022945 
L 332.275016 66.983936 
L 333.014856 66.526828 
L 333.308241 66.451811 
L 333.603752 66.39013 
L 335.672326 66.326781 
L 335.965711 66.258432 
L 336.705551 66.16341 
L 337.147754 66.059719 
L 337.443265 65.965363 
L 337.738775 65.868007 
L 338.476489 65.830665 
L 338.918692 65.486584 
L 339.214203 65.253529 
L 339.658532 65.236525 
L 340.247427 64.757079 
L 340.691756 64.7024 
L 341.724981 63.779183 
L 342.609387 63.69283 
L 342.904898 63.511787 
L 343.938122 62.594572 
L 344.382451 62.51522 
L 345.120165 61.920747 
L 346.006697 61.860066 
L 346.595593 61.340944 
L 347.482125 61.264926 
L 347.777635 61.16857 
L 348.073146 61.158901 
L 348.515349 60.909509 
L 349.401881 60.824489 
L 349.992903 60.797816 
L 350.877309 60.71413 
L 351.321638 60.532421 
L 352.206044 60.47374 
L 352.501555 60.369716 
L 353.83029 60.265025 
L 354.568004 60.158666 
L 355.896739 60.04764 
L 357.816495 59.495177 
L 358.112006 59.394487 
L 359.440741 59.320469 
L 359.882944 59.212111 
L 360.178455 59.184104 
L 360.769476 58.918042 
L 361.211679 58.812017 
L 364.755682 56.337436 
L 366.233235 55.323197 
L 366.675438 55.243179 
L 367.855355 54.435989 
L 368.150866 54.433989 
L 368.741887 54.067569 
L 369.18409 53.987884 
L 369.775112 53.592124 
L 370.219441 53.527442 
L 372.432582 51.667339 
L 377.30532 47.347324 
L 378.191852 47.289978 
L 378.780747 46.839538 
L 380.553812 45.386531 
L 382.471442 44.103896 
L 383.357974 43.876176 
L 383.800177 43.818496 
L 384.095688 43.750146 
L 389.115118 40.355349 
L 389.706139 40.284332 
L 394.430059 37.951785 
L 405.650961 32.584191 
L 421.595783 27.306951 
L 424.106561 26.858513 
L 427.501746 26.352727 
L 427.501746 26.352727 
" style="fill:none;stroke:#2ca02c;stroke-linecap:square;stroke-width:1.5;"/>
   </g>
   <g id="patch_3">
    <path d="M 48.17 300.04 
L 48.17 13.32 
" style="fill:none;stroke:#000000;stroke-linecap:square;stroke-linejoin:miter;stroke-width:0.8;"/>
   </g>
   <g id="patch_4">
    <path d="M 48.17 300.04 
L 445.565162 300.04 
" style="fill:none;stroke:#000000;stroke-linecap:square;stroke-linejoin:miter;stroke-width:0.8;"/>
   </g>
   <g id="legend_1">
    <g id="patch_5">
     <path d="M 299.093287 295.04 
L 438.565162 295.04 
Q 440.565162 295.04 440.565162 293.04 
L 440.565162 250.005625 
Q 440.565162 248.005625 438.565162 248.005625 
L 299.093287 248.005625 
Q 297.093287 248.005625 297.093287 250.005625 
L 297.093287 293.04 
Q 297.093287 295.04 299.093287 295.04 
z
" style="fill:#ffffff;opacity:0.8;stroke:#cccccc;stroke-linejoin:miter;"/>
    </g>
    <g id="line2d_21">
     <path d="M 301.093287 256.104062 
L 321.093287 256.104062 
" style="fill:none;stroke:#1f77b4;stroke-linecap:square;stroke-width:1.5;"/>
    </g>
    <g id="line2d_22"/>
    <g id="text_20">
     <!-- fine-to-coarse greedy -->
     <defs>
      <path d="M 37.109375 75.984375 
L 37.109375 68.5 
L 28.515625 68.5 
Q 23.6875 68.5 21.796875 66.546875 
Q 19.921875 64.59375 19.921875 59.515625 
L 19.921875 54.6875 
L 34.71875 54.6875 
L 34.71875 47.703125 
L 19.921875 47.703125 
L 19.921875 0 
L 10.890625 0 
L 10.890625 47.703125 
L 2.296875 47.703125 
L 2.296875 54.6875 
L 10.890625 54.6875 
L 10.890625 58.5 
Q 10.890625 67.625 15.140625 71.796875 
Q 19.390625 75.984375 28.609375 75.984375 
z
" id="DejaVuSans-66"/>
      <path d="M 54.890625 33.015625 
L 54.890625 0 
L 45.90625 0 
L 45.90625 32.71875 
Q 45.90625 40.484375 42.875 44.328125 
Q 39.84375 48.1875 33.796875 48.1875 
Q 26.515625 48.1875 22.3125 43.546875 
Q 18.109375 38.921875 18.109375 30.90625 
L 18.109375 0 
L 9.078125 0 
L 9.078125 54.6875 
L 18.109375 54.6875 
L 18.109375 46.1875 
Q 21.34375 51.125 25.703125 53.5625 
Q 30.078125 56 35.796875 56 
Q 45.21875 56 50.046875 50.171875 
Q 54.890625 44.34375 54.890625 33.015625 
z
" id="DejaVuSans-6e"/>
      <path d="M 4.890625 31.390625 
L 31.203125 31.390625 
L 31.203125 23.390625 
L 4.890625 23.390625 
z
" id="DejaVuSans-2d"/>
      <path d="M 30.609375 48.390625 
Q 23.390625 48.390625 19.1875 42.75 
Q 14.984375 37.109375 14.984375 27.296875 
Q 14.984375 17.484375 19.15625 11.84375 
Q 23.34375 6.203125 30.609375 6.203125 
Q 37.796875 6.203125 41.984375 11.859375 
Q 46.1875 17.53125 46.1875 27.296875 
Q 46.1875 37.015625 41.984375 42.703125 
Q 37.796875 48.390625 30.609375 48.390625 
z
M 30.609375 56 
Q 42.328125 56 49.015625 48.375 
Q 55.71875 40.765625 55.71875 27.296875 
Q 55.71875 13.875 49.015625 6.21875 
Q 42.328125 -1.421875 30.609375 -1.421875 
Q 18.84375 -1.421875 12.171875 6.21875 
Q 5.515625 13.875 5.515625 27.296875 
Q 5.515625 40.765625 12.171875 48.375 
Q 18.84375 56 30.609375 56 
z
" id="DejaVuSans-6f"/>
      <path d="M 48.78125 52.59375 
L 48.78125 44.1875 
Q 44.96875 46.296875 41.140625 47.34375 
Q 37.3125 48.390625 33.40625 48.390625 
Q 24.65625 48.390625 19.8125 42.84375 
Q 14.984375 37.3125 14.984375 27.296875 
Q 14.984375 17.28125 19.8125 11.734375 
Q 24.65625 6.203125 33.40625 6.203125 
Q 37.3125 6.203125 41.140625 7.25 
Q 44.96875 8.296875 48.78125 10.40625 
L 48.78125 2.09375 
Q 45.015625 0.34375 40.984375 -0.53125 
Q 36.96875 -1.421875 32.421875 -1.421875 
Q 20.0625 -1.421875 12.78125 6.34375 
Q 5.515625 14.109375 5.515625 27.296875 
Q 5.515625 40.671875 12.859375 48.328125 
Q 20.21875 56 33.015625 56 
Q 37.15625 56 41.109375 55.140625 
Q 45.0625 54.296875 48.78125 52.59375 
z
" id="DejaVuSans-63"/>
      <path d="M 45.40625 27.984375 
Q 45.40625 37.75 41.375 43.109375 
Q 37.359375 48.484375 30.078125 48.484375 
Q 22.859375 48.484375 18.828125 43.109375 
Q 14.796875 37.75 14.796875 27.984375 
Q 14.796875 18.265625 18.828125 12.890625 
Q 22.859375 7.515625 30.078125 7.515625 
Q 37.359375 7.515625 41.375 12.890625 
Q 45.40625 18.265625 45.40625 27.984375 
z
M 54.390625 6.78125 
Q 54.390625 -7.171875 48.1875 -13.984375 
Q 42 -20.796875 29.203125 -20.796875 
Q 24.46875 -20.796875 20.265625 -20.09375 
Q 16.0625 -19.390625 12.109375 -17.921875 
L 12.109375 -9.1875 
Q 16.0625 -11.328125 19.921875 -12.34375 
Q 23.78125 -13.375 27.78125 -13.375 
Q 36.625 -13.375 41.015625 -8.765625 
Q 45.40625 -4.15625 45.40625 5.171875 
L 45.40625 9.625 
Q 42.625 4.78125 38.28125 2.390625 
Q 33.9375 0 27.875 0 
Q 17.828125 0 11.671875 7.65625 
Q 5.515625 15.328125 5.515625 27.984375 
Q 5.515625 40.671875 11.671875 48.328125 
Q 17.828125 56 27.875 56 
Q 33.9375 56 38.28125 53.609375 
Q 42.625 51.21875 45.40625 46.390625 
L 45.40625 54.6875 
L 54.390625 54.6875 
z
" id="DejaVuSans-67"/>
      <path d="M 45.40625 46.390625 
L 45.40625 75.984375 
L 54.390625 75.984375 
L 54.390625 0 
L 45.40625 0 
L 45.40625 8.203125 
Q 42.578125 3.328125 38.25 0.953125 
Q 33.9375 -1.421875 27.875 -1.421875 
Q 17.96875 -1.421875 11.734375 6.484375 
Q 5.515625 14.40625 5.515625 27.296875 
Q 5.515625 40.1875 11.734375 48.09375 
Q 17.96875 56 27.875 56 
Q 33.9375 56 38.25 53.625 
Q 42.578125 51.265625 45.40625 46.390625 
z
M 14.796875 27.296875 
Q 14.796875 17.390625 18.875 11.75 
Q 22.953125 6.109375 30.078125 6.109375 
Q 37.203125 6.109375 41.296875 11.75 
Q 45.40625 17.390625 45.40625 27.296875 
Q 45.40625 37.203125 41.296875 42.84375 
Q 37.203125 48.484375 30.078125 48.484375 
Q 22.953125 48.484375 18.875 42.84375 
Q 14.796875 37.203125 14.796875 27.296875 
z
" id="DejaVuSans-64"/>
      <path d="M 32.171875 -5.078125 
Q 28.375 -14.84375 24.75 -17.8125 
Q 21.140625 -20.796875 15.09375 -20.796875 
L 7.90625 -20.796875 
L 7.90625 -13.28125 
L 13.1875 -13.28125 
Q 16.890625 -13.28125 18.9375 -11.515625 
Q 21 -9.765625 23.484375 -3.21875 
L 25.09375 0.875 
L 2.984375 54.6875 
L 12.5 54.6875 
L 29.59375 11.921875 
L 46.6875 54.6875 
L 56.203125 54.6875 
z
" id="DejaVuSans-79"/>
     </defs>
     <g transform="translate(329.093287 259.604062)scale(0.1 -0.1)">
      <use xlink:href="#DejaVuSans-66"/>
      <use x="35.205078" xlink:href="#DejaVuSans-69"/>
      <use x="62.988281" xlink:href="#DejaVuSans-6e"/>
      <use x="126.367188" xlink:href="#DejaVuSans-65"/>
      <use x="187.890625" xlink:href="#DejaVuSans-2d"/>
      <use x="223.974609" xlink:href="#DejaVuSans-74"/>
      <use x="263.183594" xlink:href="#DejaVuSans-6f"/>
      <use x="324.380859" xlink:href="#DejaVuSans-2d"/>
      <use x="360.464844" xlink:href="#DejaVuSans-63"/>
      <use x="415.445312" xlink:href="#DejaVuSans-6f"/>
      <use x="476.626953" xlink:href="#DejaVuSans-61"/>
      <use x="537.90625" xlink:href="#DejaVuSans-72"/>
      <use x="579.019531" xlink:href="#DejaVuSans-73"/>
      <use x="631.119141" xlink:href="#DejaVuSans-65"/>
      <use x="692.642578" xlink:href="#DejaVuSans-20"/>
      <use x="724.429688" xlink:href="#DejaVuSans-67"/>
      <use x="787.90625" xlink:href="#DejaVuSans-72"/>
      <use x="828.988281" xlink:href="#DejaVuSans-65"/>
      <use x="890.511719" xlink:href="#DejaVuSans-65"/>
      <use x="952.035156" xlink:href="#DejaVuSans-64"/>
      <use x="1015.511719" xlink:href="#DejaVuSans-79"/>
     </g>
    </g>
    <g id="line2d_23">
     <path d="M 301.093287 270.782187 
L 321.093287 270.782187 
" style="fill:none;stroke:#ff7f0e;stroke-linecap:square;stroke-width:1.5;"/>
    </g>
    <g id="line2d_24"/>
    <g id="text_21">
     <!-- coarse-to-fine greedy -->
     <g transform="translate(329.093287 274.282187)scale(0.1 -0.1)">
      <use xlink:href="#DejaVuSans-63"/>
      <use x="54.980469" xlink:href="#DejaVuSans-6f"/>
      <use x="116.162109" xlink:href="#DejaVuSans-61"/>
      <use x="177.441406" xlink:href="#DejaVuSans-72"/>
      <use x="218.554688" xlink:href="#DejaVuSans-73"/>
      <use x="270.654297" xlink:href="#DejaVuSans-65"/>
      <use x="332.177734" xlink:href="#DejaVuSans-2d"/>
      <use x="368.261719" xlink:href="#DejaVuSans-74"/>
      <use x="407.470703" xlink:href="#DejaVuSans-6f"/>
      <use x="468.667969" xlink:href="#DejaVuSans-2d"/>
      <use x="504.751953" xlink:href="#DejaVuSans-66"/>
      <use x="539.957031" xlink:href="#DejaVuSans-69"/>
      <use x="567.740234" xlink:href="#DejaVuSans-6e"/>
      <use x="631.119141" xlink:href="#DejaVuSans-65"/>
      <use x="692.642578" xlink:href="#DejaVuSans-20"/>
      <use x="724.429688" xlink:href="#DejaVuSans-67"/>
      <use x="787.90625" xlink:href="#DejaVuSans-72"/>
      <use x="828.988281" xlink:href="#DejaVuSans-65"/>
      <use x="890.511719" xlink:href="#DejaVuSans-65"/>
      <use x="952.035156" xlink:href="#DejaVuSans-64"/>
      <use x="1015.511719" xlink:href="#DejaVuSans-79"/>
     </g>
    </g>
    <g id="line2d_25">
     <path d="M 301.093287 285.460312 
L 321.093287 285.460312 
" style="fill:none;stroke:#2ca02c;stroke-linecap:square;stroke-width:1.5;"/>
    </g>
    <g id="line2d_26"/>
    <g id="text_22">
     <!-- fully adaptive -->
     <defs>
      <path d="M 8.5 21.578125 
L 8.5 54.6875 
L 17.484375 54.6875 
L 17.484375 21.921875 
Q 17.484375 14.15625 20.5 10.265625 
Q 23.53125 6.390625 29.59375 6.390625 
Q 36.859375 6.390625 41.078125 11.03125 
Q 45.3125 15.671875 45.3125 23.6875 
L 45.3125 54.6875 
L 54.296875 54.6875 
L 54.296875 0 
L 45.3125 0 
L 45.3125 8.40625 
Q 42.046875 3.421875 37.71875 1 
Q 33.40625 -1.421875 27.6875 -1.421875 
Q 18.265625 -1.421875 13.375 4.4375 
Q 8.5 10.296875 8.5 21.578125 
z
M 31.109375 56 
z
" id="DejaVuSans-75"/>
      <path d="M 2.984375 54.6875 
L 12.5 54.6875 
L 29.59375 8.796875 
L 46.6875 54.6875 
L 56.203125 54.6875 
L 35.6875 0 
L 23.484375 0 
z
" id="DejaVuSans-76"/>
     </defs>
     <g transform="translate(329.093287 288.960312)scale(0.1 -0.1)">
      <use xlink:href="#DejaVuSans-66"/>
      <use x="35.205078" xlink:href="#DejaVuSans-75"/>
      <use x="98.583984" xlink:href="#DejaVuSans-6c"/>
      <use x="126.367188" xlink:href="#DejaVuSans-6c"/>
      <use x="154.150391" xlink:href="#DejaVuSans-79"/>
      <use x="213.330078" xlink:href="#DejaVuSans-20"/>
      <use x="245.117188" xlink:href="#DejaVuSans-61"/>
      <use x="306.396484" xlink:href="#DejaVuSans-64"/>
      <use x="369.873047" xlink:href="#DejaVuSans-61"/>
      <use x="431.152344" xlink:href="#DejaVuSans-70"/>
      <use x="494.628906" xlink:href="#DejaVuSans-74"/>
      <use x="533.837891" xlink:href="#DejaVuSans-69"/>
      <use x="561.621094" xlink:href="#DejaVuSans-76"/>
      <use x="620.800781" xlink:href="#DejaVuSans-65"/>
     </g>
    </g>
   </g>
  </g>
 </g>
 <defs>
  <clipPath id="p21767e193a">
   <rect height="286.72" width="397.395162" x="48.17" y="13.32"/>
  </clipPath>
 </defs>
</svg>
