<?xml version="1.0" encoding="utf-8" standalone="no"?>
<!DOCTYPE svg PUBLIC "-//W3C//DTD SVG 1.1//EN"
  "http://www.w3.org/Graphics/SVG/1.1/DTD/svg11.dtd">
<!-- Created with matplotlib (http://matplotlib.org/) -->
<svg height="345pt" version="1.1" viewBox="0 0 460 345" width="460pt" xmlns="http://www.w3.org/2000/svg" xmlns:xlink="http://www.w3.org/1999/xlink">
 <defs>
  <style type="text/css">
*{stroke-linecap:butt;stroke-linejoin:round;}
  </style>
 </defs>
 <g id="figure_1">
  <g id="patch_1">
   <path d="M 0 345.6 
L 460.8 345.6 
L 460.8 0 
L 0 0 
z
" style="fill:#ffffff;"/>
  </g>
  <g id="axes_1">
   <g id="patch_2">
    <path d="M 71.93 300.04 
L 445.565162 300.04 
L 445.565162 13.32 
L 71.93 13.32 
z
" style="fill:#ffffff;"/>
   </g>
   <g id="matplotlib.axis_1">
    <g id="xtick_1">
     <g id="line2d_1">
      <defs>
       <path d="M 0 0 
L 0 3.5 
" id="m6bf804029f" style="stroke:#000000;stroke-width:0.8;"/>
      </defs>
      <g>
       <use style="stroke:#000000;stroke-width:0.8;" x="88.774606" xlink:href="#m6bf804029f" y="300.04"/>
      </g>
     </g>
     <g id="text_1">
      <!-- 0.0 -->
      <defs>
       <path d="M 31.78125 66.40625 
Q 24.171875 66.40625 20.328125 58.90625 
Q 16.5 51.421875 16.5 36.375 
Q 16.5 21.390625 20.328125 13.890625 
Q 24.171875 6.390625 31.78125 6.390625 
Q 39.453125 6.390625 43.28125 13.890625 
Q 47.125 21.390625 47.125 36.375 
Q 47.125 51.421875 43.28125 58.90625 
Q 39.453125 66.40625 31.78125 66.40625 
z
M 31.78125 74.21875 
Q 44.046875 74.21875 50.515625 64.515625 
Q 56.984375 54.828125 56.984375 36.375 
Q 56.984375 17.96875 50.515625 8.265625 
Q 44.046875 -1.421875 31.78125 -1.421875 
Q 19.53125 -1.421875 13.0625 8.265625 
Q 6.59375 17.96875 6.59375 36.375 
Q 6.59375 54.828125 13.0625 64.515625 
Q 19.53125 74.21875 31.78125 74.21875 
z
" id="DejaVuSans-30"/>
       <path d="M 10.6875 12.40625 
L 21 12.40625 
L 21 0 
L 10.6875 0 
z
" id="DejaVuSans-2e"/>
      </defs>
      <g transform="translate(80.823044 314.638437)scale(0.1 -0.1)">
       <use xlink:href="#DejaVuSans-30"/>
       <use x="63.623047" xlink:href="#DejaVuSans-2e"/>
       <use x="95.410156" xlink:href="#DejaVuSans-30"/>
      </g>
     </g>
    </g>
    <g id="xtick_2">
     <g id="line2d_2">
      <g>
       <use style="stroke:#000000;stroke-width:0.8;" x="138.746245" xlink:href="#m6bf804029f" y="300.04"/>
      </g>
     </g>
     <g id="text_2">
      <!-- 2.5 -->
      <defs>
       <path d="M 19.1875 8.296875 
L 53.609375 8.296875 
L 53.609375 0 
L 7.328125 0 
L 7.328125 8.296875 
Q 12.9375 14.109375 22.625 23.890625 
Q 32.328125 33.6875 34.8125 36.53125 
Q 39.546875 41.84375 41.421875 45.53125 
Q 43.3125 49.21875 43.3125 52.78125 
Q 43.3125 58.59375 39.234375 62.25 
Q 35.15625 65.921875 28.609375 65.921875 
Q 23.96875 65.921875 18.8125 64.3125 
Q 13.671875 62.703125 7.8125 59.421875 
L 7.8125 69.390625 
Q 13.765625 71.78125 18.9375 73 
Q 24.125 74.21875 28.421875 74.21875 
Q 39.75 74.21875 46.484375 68.546875 
Q 53.21875 62.890625 53.21875 53.421875 
Q 53.21875 48.921875 51.53125 44.890625 
Q 49.859375 40.875 45.40625 35.40625 
Q 44.1875 33.984375 37.640625 27.21875 
Q 31.109375 20.453125 19.1875 8.296875 
z
" id="DejaVuSans-32"/>
       <path d="M 10.796875 72.90625 
L 49.515625 72.90625 
L 49.515625 64.59375 
L 19.828125 64.59375 
L 19.828125 46.734375 
Q 21.96875 47.46875 24.109375 47.828125 
Q 26.265625 48.1875 28.421875 48.1875 
Q 40.625 48.1875 47.75 41.5 
Q 54.890625 34.8125 54.890625 23.390625 
Q 54.890625 11.625 47.5625 5.09375 
Q 40.234375 -1.421875 26.90625 -1.421875 
Q 22.3125 -1.421875 17.546875 -0.640625 
Q 12.796875 0.140625 7.71875 1.703125 
L 7.71875 11.625 
Q 12.109375 9.234375 16.796875 8.0625 
Q 21.484375 6.890625 26.703125 6.890625 
Q 35.15625 6.890625 40.078125 11.328125 
Q 45.015625 15.765625 45.015625 23.390625 
Q 45.015625 31 40.078125 35.4375 
Q 35.15625 39.890625 26.703125 39.890625 
Q 22.75 39.890625 18.8125 39.015625 
Q 14.890625 38.140625 10.796875 36.28125 
z
" id="DejaVuSans-35"/>
      </defs>
      <g transform="translate(130.794682 314.638437)scale(0.1 -0.1)">
       <use xlink:href="#DejaVuSans-32"/>
       <use x="63.623047" xlink:href="#DejaVuSans-2e"/>
       <use x="95.410156" xlink:href="#DejaVuSans-35"/>
      </g>
     </g>
    </g>
    <g id="xtick_3">
     <g id="line2d_3">
      <g>
       <use style="stroke:#000000;stroke-width:0.8;" x="188.717883" xlink:href="#m6bf804029f" y="300.04"/>
      </g>
     </g>
     <g id="text_3">
      <!-- 5.0 -->
      <g transform="translate(180.76632 314.638437)scale(0.1 -0.1)">
       <use xlink:href="#DejaVuSans-35"/>
       <use x="63.623047" xlink:href="#DejaVuSans-2e"/>
       <use x="95.410156" xlink:href="#DejaVuSans-30"/>
      </g>
     </g>
    </g>
    <g id="xtick_4">
     <g id="line2d_4">
      <g>
       <use style="stroke:#000000;stroke-width:0.8;" x="238.689521" xlink:href="#m6bf804029f" y="300.04"/>
      </g>
     </g>
     <g id="text_4">
      <!-- 7.5 -->
      <defs>
       <path d="M 8.203125 72.90625 
L 55.078125 72.90625 
L 55.078125 68.703125 
L 28.609375 0 
L 18.3125 0 
L 43.21875 64.59375 
L 8.203125 64.59375 
z
" id="DejaVuSans-37"/>
      </defs>
      <g transform="translate(230.737958 314.638437)scale(0.1 -0.1)">
       <use xlink:href="#DejaVuSans-37"/>
       <use x="63.623047" xlink:href="#DejaVuSans-2e"/>
       <use x="95.410156" xlink:href="#DejaVuSans-35"/>
      </g>
     </g>
    </g>
    <g id="xtick_5">
     <g id="line2d_5">
      <g>
       <use style="stroke:#000000;stroke-width:0.8;" x="288.661159" xlink:href="#m6bf804029f" y="300.04"/>
      </g>
     </g>
     <g id="text_5">
      <!-- 10.0 -->
      <defs>
       <path d="M 12.40625 8.296875 
L 28.515625 8.296875 
L 28.515625 63.921875 
L 10.984375 60.40625 
L 10.984375 69.390625 
L 28.421875 72.90625 
L 38.28125 72.90625 
L 38.28125 8.296875 
L 54.390625 8.296875 
L 54.390625 0 
L 12.40625 0 
z
" id="DejaVuSans-31"/>
      </defs>
      <g transform="translate(277.528346 314.638437)scale(0.1 -0.1)">
       <use xlink:href="#DejaVuSans-31"/>
       <use x="63.623047" xlink:href="#DejaVuSans-30"/>
       <use x="127.246094" xlink:href="#DejaVuSans-2e"/>
       <use x="159.033203" xlink:href="#DejaVuSans-30"/>
      </g>
     </g>
    </g>
    <g id="xtick_6">
     <g id="line2d_6">
      <g>
       <use style="stroke:#000000;stroke-width:0.8;" x="338.632797" xlink:href="#m6bf804029f" y="300.04"/>
      </g>
     </g>
     <g id="text_6">
      <!-- 12.5 -->
      <g transform="translate(327.499984 314.638437)scale(0.1 -0.1)">
       <use xlink:href="#DejaVuSans-31"/>
       <use x="63.623047" xlink:href="#DejaVuSans-32"/>
       <use x="127.246094" xlink:href="#DejaVuSans-2e"/>
       <use x="159.033203" xlink:href="#DejaVuSans-35"/>
      </g>
     </g>
    </g>
    <g id="xtick_7">
     <g id="line2d_7">
      <g>
       <use style="stroke:#000000;stroke-width:0.8;" x="388.604435" xlink:href="#m6bf804029f" y="300.04"/>
      </g>
     </g>
     <g id="text_7">
      <!-- 15.0 -->
      <g transform="translate(377.471623 314.638437)scale(0.1 -0.1)">
       <use xlink:href="#DejaVuSans-31"/>
       <use x="63.623047" xlink:href="#DejaVuSans-35"/>
       <use x="127.246094" xlink:href="#DejaVuSans-2e"/>
       <use x="159.033203" xlink:href="#DejaVuSans-30"/>
      </g>
     </g>
    </g>
    <g id="xtick_8">
     <g id="line2d_8">
      <g>
       <use style="stroke:#000000;stroke-width:0.8;" x="438.576073" xlink:href="#m6bf804029f" y="300.04"/>
      </g>
     </g>
     <g id="text_8">
      <!-- 17.5 -->
      <g transform="translate(427.443261 314.638437)scale(0.1 -0.1)">
       <use xlink:href="#DejaVuSans-31"/>
       <use x="63.623047" xlink:href="#DejaVuSans-37"/>
       <use x="127.246094" xlink:href="#DejaVuSans-2e"/>
       <use x="159.033203" xlink:href="#DejaVuSans-35"/>
      </g>
     </g>
    </g>
    <g id="text_9">
     <!-- Number of Streamed Bytes -->
     <defs>
      <path d="M 9.8125 72.90625 
L 23.09375 72.90625 
L 55.421875 11.921875 
L 55.421875 72.90625 
L 64.984375 72.90625 
L 64.984375 0 
L 51.703125 0 
L 19.390625 60.984375 
L 19.390625 0 
L 9.8125 0 
z
" id="DejaVuSans-4e"/>
      <path d="M 8.5 21.578125 
L 8.5 54.6875 
L 17.484375 54.6875 
L 17.484375 21.921875 
Q 17.484375 14.15625 20.5 10.265625 
Q 23.53125 6.390625 29.59375 6.390625 
Q 36.859375 6.390625 41.078125 11.03125 
Q 45.3125 15.671875 45.3125 23.6875 
L 45.3125 54.6875 
L 54.296875 54.6875 
L 54.296875 0 
L 45.3125 0 
L 45.3125 8.40625 
Q 42.046875 3.421875 37.71875 1 
Q 33.40625 -1.421875 27.6875 -1.421875 
Q 18.265625 -1.421875 13.375 4.4375 
Q 8.5 10.296875 8.5 21.578125 
z
M 31.109375 56 
z
" id="DejaVuSans-75"/>
      <path d="M 52 44.1875 
Q 55.375 50.25 60.0625 53.125 
Q 64.75 56 71.09375 56 
Q 79.640625 56 84.28125 50.015625 
Q 88.921875 44.046875 88.921875 33.015625 
L 88.921875 0 
L 79.890625 0 
L 79.890625 32.71875 
Q 79.890625 40.578125 77.09375 44.375 
Q 74.3125 48.1875 68.609375 48.1875 
Q 61.625 48.1875 57.5625 43.546875 
Q 53.515625 38.921875 53.515625 30.90625 
L 53.515625 0 
L 44.484375 0 
L 44.484375 32.71875 
Q 44.484375 40.625 41.703125 44.40625 
Q 38.921875 48.1875 33.109375 48.1875 
Q 26.21875 48.1875 22.15625 43.53125 
Q 18.109375 38.875 18.109375 30.90625 
L 18.109375 0 
L 9.078125 0 
L 9.078125 54.6875 
L 18.109375 54.6875 
L 18.109375 46.1875 
Q 21.1875 51.21875 25.484375 53.609375 
Q 29.78125 56 35.6875 56 
Q 41.65625 56 45.828125 52.96875 
Q 50 49.953125 52 44.1875 
z
" id="DejaVuSans-6d"/>
      <path d="M 48.6875 27.296875 
Q 48.6875 37.203125 44.609375 42.84375 
Q 40.53125 48.484375 33.40625 48.484375 
Q 26.265625 48.484375 22.1875 42.84375 
Q 18.109375 37.203125 18.109375 27.296875 
Q 18.109375 17.390625 22.1875 11.75 
Q 26.265625 6.109375 33.40625 6.109375 
Q 40.53125 6.109375 44.609375 11.75 
Q 48.6875 17.390625 48.6875 27.296875 
z
M 18.109375 46.390625 
Q 20.953125 51.265625 25.265625 53.625 
Q 29.59375 56 35.59375 56 
Q 45.5625 56 51.78125 48.09375 
Q 58.015625 40.1875 58.015625 27.296875 
Q 58.015625 14.40625 51.78125 6.484375 
Q 45.5625 -1.421875 35.59375 -1.421875 
Q 29.59375 -1.421875 25.265625 0.953125 
Q 20.953125 3.328125 18.109375 8.203125 
L 18.109375 0 
L 9.078125 0 
L 9.078125 75.984375 
L 18.109375 75.984375 
z
" id="DejaVuSans-62"/>
      <path d="M 56.203125 29.59375 
L 56.203125 25.203125 
L 14.890625 25.203125 
Q 15.484375 15.921875 20.484375 11.0625 
Q 25.484375 6.203125 34.421875 6.203125 
Q 39.59375 6.203125 44.453125 7.46875 
Q 49.3125 8.734375 54.109375 11.28125 
L 54.109375 2.78125 
Q 49.265625 0.734375 44.1875 -0.34375 
Q 39.109375 -1.421875 33.890625 -1.421875 
Q 20.796875 -1.421875 13.15625 6.1875 
Q 5.515625 13.8125 5.515625 26.8125 
Q 5.515625 40.234375 12.765625 48.109375 
Q 20.015625 56 32.328125 56 
Q 43.359375 56 49.78125 48.890625 
Q 56.203125 41.796875 56.203125 29.59375 
z
M 47.21875 32.234375 
Q 47.125 39.59375 43.09375 43.984375 
Q 39.0625 48.390625 32.421875 48.390625 
Q 24.90625 48.390625 20.390625 44.140625 
Q 15.875 39.890625 15.1875 32.171875 
z
" id="DejaVuSans-65"/>
      <path d="M 41.109375 46.296875 
Q 39.59375 47.171875 37.8125 47.578125 
Q 36.03125 48 33.890625 48 
Q 26.265625 48 22.1875 43.046875 
Q 18.109375 38.09375 18.109375 28.8125 
L 18.109375 0 
L 9.078125 0 
L 9.078125 54.6875 
L 18.109375 54.6875 
L 18.109375 46.1875 
Q 20.953125 51.171875 25.484375 53.578125 
Q 30.03125 56 36.53125 56 
Q 37.453125 56 38.578125 55.875 
Q 39.703125 55.765625 41.0625 55.515625 
z
" id="DejaVuSans-72"/>
      <path id="DejaVuSans-20"/>
      <path d="M 30.609375 48.390625 
Q 23.390625 48.390625 19.1875 42.75 
Q 14.984375 37.109375 14.984375 27.296875 
Q 14.984375 17.484375 19.15625 11.84375 
Q 23.34375 6.203125 30.609375 6.203125 
Q 37.796875 6.203125 41.984375 11.859375 
Q 46.1875 17.53125 46.1875 27.296875 
Q 46.1875 37.015625 41.984375 42.703125 
Q 37.796875 48.390625 30.609375 48.390625 
z
M 30.609375 56 
Q 42.328125 56 49.015625 48.375 
Q 55.71875 40.765625 55.71875 27.296875 
Q 55.71875 13.875 49.015625 6.21875 
Q 42.328125 -1.421875 30.609375 -1.421875 
Q 18.84375 -1.421875 12.171875 6.21875 
Q 5.515625 13.875 5.515625 27.296875 
Q 5.515625 40.765625 12.171875 48.375 
Q 18.84375 56 30.609375 56 
z
" id="DejaVuSans-6f"/>
      <path d="M 37.109375 75.984375 
L 37.109375 68.5 
L 28.515625 68.5 
Q 23.6875 68.5 21.796875 66.546875 
Q 19.921875 64.59375 19.921875 59.515625 
L 19.921875 54.6875 
L 34.71875 54.6875 
L 34.71875 47.703125 
L 19.921875 47.703125 
L 19.921875 0 
L 10.890625 0 
L 10.890625 47.703125 
L 2.296875 47.703125 
L 2.296875 54.6875 
L 10.890625 54.6875 
L 10.890625 58.5 
Q 10.890625 67.625 15.140625 71.796875 
Q 19.390625 75.984375 28.609375 75.984375 
z
" id="DejaVuSans-66"/>
      <path d="M 53.515625 70.515625 
L 53.515625 60.890625 
Q 47.90625 63.578125 42.921875 64.890625 
Q 37.9375 66.21875 33.296875 66.21875 
Q 25.25 66.21875 20.875 63.09375 
Q 16.5 59.96875 16.5 54.203125 
Q 16.5 49.359375 19.40625 46.890625 
Q 22.3125 44.4375 30.421875 42.921875 
L 36.375 41.703125 
Q 47.40625 39.59375 52.65625 34.296875 
Q 57.90625 29 57.90625 20.125 
Q 57.90625 9.515625 50.796875 4.046875 
Q 43.703125 -1.421875 29.984375 -1.421875 
Q 24.8125 -1.421875 18.96875 -0.25 
Q 13.140625 0.921875 6.890625 3.21875 
L 6.890625 13.375 
Q 12.890625 10.015625 18.65625 8.296875 
Q 24.421875 6.59375 29.984375 6.59375 
Q 38.421875 6.59375 43.015625 9.90625 
Q 47.609375 13.234375 47.609375 19.390625 
Q 47.609375 24.75 44.3125 27.78125 
Q 41.015625 30.8125 33.5 32.328125 
L 27.484375 33.5 
Q 16.453125 35.6875 11.515625 40.375 
Q 6.59375 45.0625 6.59375 53.421875 
Q 6.59375 63.09375 13.40625 68.65625 
Q 20.21875 74.21875 32.171875 74.21875 
Q 37.3125 74.21875 42.625 73.28125 
Q 47.953125 72.359375 53.515625 70.515625 
z
" id="DejaVuSans-53"/>
      <path d="M 18.3125 70.21875 
L 18.3125 54.6875 
L 36.8125 54.6875 
L 36.8125 47.703125 
L 18.3125 47.703125 
L 18.3125 18.015625 
Q 18.3125 11.328125 20.140625 9.421875 
Q 21.96875 7.515625 27.59375 7.515625 
L 36.8125 7.515625 
L 36.8125 0 
L 27.59375 0 
Q 17.1875 0 13.234375 3.875 
Q 9.28125 7.765625 9.28125 18.015625 
L 9.28125 47.703125 
L 2.6875 47.703125 
L 2.6875 54.6875 
L 9.28125 54.6875 
L 9.28125 70.21875 
z
" id="DejaVuSans-74"/>
      <path d="M 34.28125 27.484375 
Q 23.390625 27.484375 19.1875 25 
Q 14.984375 22.515625 14.984375 16.5 
Q 14.984375 11.71875 18.140625 8.90625 
Q 21.296875 6.109375 26.703125 6.109375 
Q 34.1875 6.109375 38.703125 11.40625 
Q 43.21875 16.703125 43.21875 25.484375 
L 43.21875 27.484375 
z
M 52.203125 31.203125 
L 52.203125 0 
L 43.21875 0 
L 43.21875 8.296875 
Q 40.140625 3.328125 35.546875 0.953125 
Q 30.953125 -1.421875 24.3125 -1.421875 
Q 15.921875 -1.421875 10.953125 3.296875 
Q 6 8.015625 6 15.921875 
Q 6 25.140625 12.171875 29.828125 
Q 18.359375 34.515625 30.609375 34.515625 
L 43.21875 34.515625 
L 43.21875 35.40625 
Q 43.21875 41.609375 39.140625 45 
Q 35.0625 48.390625 27.6875 48.390625 
Q 23 48.390625 18.546875 47.265625 
Q 14.109375 46.140625 10.015625 43.890625 
L 10.015625 52.203125 
Q 14.9375 54.109375 19.578125 55.046875 
Q 24.21875 56 28.609375 56 
Q 40.484375 56 46.34375 49.84375 
Q 52.203125 43.703125 52.203125 31.203125 
z
" id="DejaVuSans-61"/>
      <path d="M 45.40625 46.390625 
L 45.40625 75.984375 
L 54.390625 75.984375 
L 54.390625 0 
L 45.40625 0 
L 45.40625 8.203125 
Q 42.578125 3.328125 38.25 0.953125 
Q 33.9375 -1.421875 27.875 -1.421875 
Q 17.96875 -1.421875 11.734375 6.484375 
Q 5.515625 14.40625 5.515625 27.296875 
Q 5.515625 40.1875 11.734375 48.09375 
Q 17.96875 56 27.875 56 
Q 33.9375 56 38.25 53.625 
Q 42.578125 51.265625 45.40625 46.390625 
z
M 14.796875 27.296875 
Q 14.796875 17.390625 18.875 11.75 
Q 22.953125 6.109375 30.078125 6.109375 
Q 37.203125 6.109375 41.296875 11.75 
Q 45.40625 17.390625 45.40625 27.296875 
Q 45.40625 37.203125 41.296875 42.84375 
Q 37.203125 48.484375 30.078125 48.484375 
Q 22.953125 48.484375 18.875 42.84375 
Q 14.796875 37.203125 14.796875 27.296875 
z
" id="DejaVuSans-64"/>
      <path d="M 19.671875 34.8125 
L 19.671875 8.109375 
L 35.5 8.109375 
Q 43.453125 8.109375 47.28125 11.40625 
Q 51.125 14.703125 51.125 21.484375 
Q 51.125 28.328125 47.28125 31.5625 
Q 43.453125 34.8125 35.5 34.8125 
z
M 19.671875 64.796875 
L 19.671875 42.828125 
L 34.28125 42.828125 
Q 41.5 42.828125 45.03125 45.53125 
Q 48.578125 48.25 48.578125 53.8125 
Q 48.578125 59.328125 45.03125 62.0625 
Q 41.5 64.796875 34.28125 64.796875 
z
M 9.8125 72.90625 
L 35.015625 72.90625 
Q 46.296875 72.90625 52.390625 68.21875 
Q 58.5 63.53125 58.5 54.890625 
Q 58.5 48.1875 55.375 44.234375 
Q 52.25 40.28125 46.1875 39.3125 
Q 53.46875 37.75 57.5 32.78125 
Q 61.53125 27.828125 61.53125 20.40625 
Q 61.53125 10.640625 54.890625 5.3125 
Q 48.25 0 35.984375 0 
L 9.8125 0 
z
" id="DejaVuSans-42"/>
      <path d="M 32.171875 -5.078125 
Q 28.375 -14.84375 24.75 -17.8125 
Q 21.140625 -20.796875 15.09375 -20.796875 
L 7.90625 -20.796875 
L 7.90625 -13.28125 
L 13.1875 -13.28125 
Q 16.890625 -13.28125 18.9375 -11.515625 
Q 21 -9.765625 23.484375 -3.21875 
L 25.09375 0.875 
L 2.984375 54.6875 
L 12.5 54.6875 
L 29.59375 11.921875 
L 46.6875 54.6875 
L 56.203125 54.6875 
z
" id="DejaVuSans-79"/>
      <path d="M 44.28125 53.078125 
L 44.28125 44.578125 
Q 40.484375 46.53125 36.375 47.5 
Q 32.28125 48.484375 27.875 48.484375 
Q 21.1875 48.484375 17.84375 46.4375 
Q 14.5 44.390625 14.5 40.28125 
Q 14.5 37.15625 16.890625 35.375 
Q 19.28125 33.59375 26.515625 31.984375 
L 29.59375 31.296875 
Q 39.15625 29.25 43.1875 25.515625 
Q 47.21875 21.78125 47.21875 15.09375 
Q 47.21875 7.46875 41.1875 3.015625 
Q 35.15625 -1.421875 24.609375 -1.421875 
Q 20.21875 -1.421875 15.453125 -0.5625 
Q 10.6875 0.296875 5.421875 2 
L 5.421875 11.28125 
Q 10.40625 8.6875 15.234375 7.390625 
Q 20.0625 6.109375 24.8125 6.109375 
Q 31.15625 6.109375 34.5625 8.28125 
Q 37.984375 10.453125 37.984375 14.40625 
Q 37.984375 18.0625 35.515625 20.015625 
Q 33.0625 21.96875 24.703125 23.78125 
L 21.578125 24.515625 
Q 13.234375 26.265625 9.515625 29.90625 
Q 5.8125 33.546875 5.8125 39.890625 
Q 5.8125 47.609375 11.28125 51.796875 
Q 16.75 56 26.8125 56 
Q 31.78125 56 36.171875 55.265625 
Q 40.578125 54.546875 44.28125 53.078125 
z
" id="DejaVuSans-73"/>
     </defs>
     <g transform="translate(163.332112 331.355937)scale(0.14 -0.14)">
      <use xlink:href="#DejaVuSans-4e"/>
      <use x="74.804688" xlink:href="#DejaVuSans-75"/>
      <use x="138.183594" xlink:href="#DejaVuSans-6d"/>
      <use x="235.595703" xlink:href="#DejaVuSans-62"/>
      <use x="299.072266" xlink:href="#DejaVuSans-65"/>
      <use x="360.595703" xlink:href="#DejaVuSans-72"/>
      <use x="401.708984" xlink:href="#DejaVuSans-20"/>
      <use x="433.496094" xlink:href="#DejaVuSans-6f"/>
      <use x="494.677734" xlink:href="#DejaVuSans-66"/>
      <use x="529.882812" xlink:href="#DejaVuSans-20"/>
      <use x="561.669922" xlink:href="#DejaVuSans-53"/>
      <use x="625.146484" xlink:href="#DejaVuSans-74"/>
      <use x="664.355469" xlink:href="#DejaVuSans-72"/>
      <use x="705.4375" xlink:href="#DejaVuSans-65"/>
      <use x="766.960938" xlink:href="#DejaVuSans-61"/>
      <use x="828.240234" xlink:href="#DejaVuSans-6d"/>
      <use x="925.652344" xlink:href="#DejaVuSans-65"/>
      <use x="987.175781" xlink:href="#DejaVuSans-64"/>
      <use x="1050.652344" xlink:href="#DejaVuSans-20"/>
      <use x="1082.439453" xlink:href="#DejaVuSans-42"/>
      <use x="1151.042969" xlink:href="#DejaVuSans-79"/>
      <use x="1210.222656" xlink:href="#DejaVuSans-74"/>
      <use x="1249.431641" xlink:href="#DejaVuSans-65"/>
      <use x="1310.955078" xlink:href="#DejaVuSans-73"/>
     </g>
    </g>
   </g>
   <g id="matplotlib.axis_2">
    <g id="ytick_1">
     <g id="line2d_9">
      <defs>
       <path d="M 0 0 
L -3.5 0 
" id="m1067f16566" style="stroke:#000000;stroke-width:0.8;"/>
      </defs>
      <g>
       <use style="stroke:#000000;stroke-width:0.8;" x="71.93" xlink:href="#m1067f16566" y="296.778567"/>
      </g>
     </g>
     <g id="text_10">
      <!-- 10 -->
      <g transform="translate(52.205 300.577786)scale(0.1 -0.1)">
       <use xlink:href="#DejaVuSans-31"/>
       <use x="63.623047" xlink:href="#DejaVuSans-30"/>
      </g>
     </g>
    </g>
    <g id="ytick_2">
     <g id="line2d_10">
      <g>
       <use style="stroke:#000000;stroke-width:0.8;" x="71.93" xlink:href="#m1067f16566" y="263.437404"/>
      </g>
     </g>
     <g id="text_11">
      <!-- 20 -->
      <g transform="translate(52.205 267.236623)scale(0.1 -0.1)">
       <use xlink:href="#DejaVuSans-32"/>
       <use x="63.623047" xlink:href="#DejaVuSans-30"/>
      </g>
     </g>
    </g>
    <g id="ytick_3">
     <g id="line2d_11">
      <g>
       <use style="stroke:#000000;stroke-width:0.8;" x="71.93" xlink:href="#m1067f16566" y="230.096241"/>
      </g>
     </g>
     <g id="text_12">
      <!-- 30 -->
      <defs>
       <path d="M 40.578125 39.3125 
Q 47.65625 37.796875 51.625 33 
Q 55.609375 28.21875 55.609375 21.1875 
Q 55.609375 10.40625 48.1875 4.484375 
Q 40.765625 -1.421875 27.09375 -1.421875 
Q 22.515625 -1.421875 17.65625 -0.515625 
Q 12.796875 0.390625 7.625 2.203125 
L 7.625 11.71875 
Q 11.71875 9.328125 16.59375 8.109375 
Q 21.484375 6.890625 26.8125 6.890625 
Q 36.078125 6.890625 40.9375 10.546875 
Q 45.796875 14.203125 45.796875 21.1875 
Q 45.796875 27.640625 41.28125 31.265625 
Q 36.765625 34.90625 28.71875 34.90625 
L 20.21875 34.90625 
L 20.21875 43.015625 
L 29.109375 43.015625 
Q 36.375 43.015625 40.234375 45.921875 
Q 44.09375 48.828125 44.09375 54.296875 
Q 44.09375 59.90625 40.109375 62.90625 
Q 36.140625 65.921875 28.71875 65.921875 
Q 24.65625 65.921875 20.015625 65.03125 
Q 15.375 64.15625 9.8125 62.3125 
L 9.8125 71.09375 
Q 15.4375 72.65625 20.34375 73.4375 
Q 25.25 74.21875 29.59375 74.21875 
Q 40.828125 74.21875 47.359375 69.109375 
Q 53.90625 64.015625 53.90625 55.328125 
Q 53.90625 49.265625 50.4375 45.09375 
Q 46.96875 40.921875 40.578125 39.3125 
z
" id="DejaVuSans-33"/>
      </defs>
      <g transform="translate(52.205 233.89546)scale(0.1 -0.1)">
       <use xlink:href="#DejaVuSans-33"/>
       <use x="63.623047" xlink:href="#DejaVuSans-30"/>
      </g>
     </g>
    </g>
    <g id="ytick_4">
     <g id="line2d_12">
      <g>
       <use style="stroke:#000000;stroke-width:0.8;" x="71.93" xlink:href="#m1067f16566" y="196.755078"/>
      </g>
     </g>
     <g id="text_13">
      <!-- 40 -->
      <defs>
       <path d="M 37.796875 64.3125 
L 12.890625 25.390625 
L 37.796875 25.390625 
z
M 35.203125 72.90625 
L 47.609375 72.90625 
L 47.609375 25.390625 
L 58.015625 25.390625 
L 58.015625 17.1875 
L 47.609375 17.1875 
L 47.609375 0 
L 37.796875 0 
L 37.796875 17.1875 
L 4.890625 17.1875 
L 4.890625 26.703125 
z
" id="DejaVuSans-34"/>
      </defs>
      <g transform="translate(52.205 200.554297)scale(0.1 -0.1)">
       <use xlink:href="#DejaVuSans-34"/>
       <use x="63.623047" xlink:href="#DejaVuSans-30"/>
      </g>
     </g>
    </g>
    <g id="ytick_5">
     <g id="line2d_13">
      <g>
       <use style="stroke:#000000;stroke-width:0.8;" x="71.93" xlink:href="#m1067f16566" y="163.413915"/>
      </g>
     </g>
     <g id="text_14">
      <!-- 50 -->
      <g transform="translate(52.205 167.213133)scale(0.1 -0.1)">
       <use xlink:href="#DejaVuSans-35"/>
       <use x="63.623047" xlink:href="#DejaVuSans-30"/>
      </g>
     </g>
    </g>
    <g id="ytick_6">
     <g id="line2d_14">
      <g>
       <use style="stroke:#000000;stroke-width:0.8;" x="71.93" xlink:href="#m1067f16566" y="130.072752"/>
      </g>
     </g>
     <g id="text_15">
      <!-- 60 -->
      <defs>
       <path d="M 33.015625 40.375 
Q 26.375 40.375 22.484375 35.828125 
Q 18.609375 31.296875 18.609375 23.390625 
Q 18.609375 15.53125 22.484375 10.953125 
Q 26.375 6.390625 33.015625 6.390625 
Q 39.65625 6.390625 43.53125 10.953125 
Q 47.40625 15.53125 47.40625 23.390625 
Q 47.40625 31.296875 43.53125 35.828125 
Q 39.65625 40.375 33.015625 40.375 
z
M 52.59375 71.296875 
L 52.59375 62.3125 
Q 48.875 64.0625 45.09375 64.984375 
Q 41.3125 65.921875 37.59375 65.921875 
Q 27.828125 65.921875 22.671875 59.328125 
Q 17.53125 52.734375 16.796875 39.40625 
Q 19.671875 43.65625 24.015625 45.921875 
Q 28.375 48.1875 33.59375 48.1875 
Q 44.578125 48.1875 50.953125 41.515625 
Q 57.328125 34.859375 57.328125 23.390625 
Q 57.328125 12.15625 50.6875 5.359375 
Q 44.046875 -1.421875 33.015625 -1.421875 
Q 20.359375 -1.421875 13.671875 8.265625 
Q 6.984375 17.96875 6.984375 36.375 
Q 6.984375 53.65625 15.1875 63.9375 
Q 23.390625 74.21875 37.203125 74.21875 
Q 40.921875 74.21875 44.703125 73.484375 
Q 48.484375 72.75 52.59375 71.296875 
z
" id="DejaVuSans-36"/>
      </defs>
      <g transform="translate(52.205 133.87197)scale(0.1 -0.1)">
       <use xlink:href="#DejaVuSans-36"/>
       <use x="63.623047" xlink:href="#DejaVuSans-30"/>
      </g>
     </g>
    </g>
    <g id="ytick_7">
     <g id="line2d_15">
      <g>
       <use style="stroke:#000000;stroke-width:0.8;" x="71.93" xlink:href="#m1067f16566" y="96.731588"/>
      </g>
     </g>
     <g id="text_16">
      <!-- 70 -->
      <g transform="translate(52.205 100.530807)scale(0.1 -0.1)">
       <use xlink:href="#DejaVuSans-37"/>
       <use x="63.623047" xlink:href="#DejaVuSans-30"/>
      </g>
     </g>
    </g>
    <g id="ytick_8">
     <g id="line2d_16">
      <g>
       <use style="stroke:#000000;stroke-width:0.8;" x="71.93" xlink:href="#m1067f16566" y="63.390425"/>
      </g>
     </g>
     <g id="text_17">
      <!-- 80 -->
      <defs>
       <path d="M 31.78125 34.625 
Q 24.75 34.625 20.71875 30.859375 
Q 16.703125 27.09375 16.703125 20.515625 
Q 16.703125 13.921875 20.71875 10.15625 
Q 24.75 6.390625 31.78125 6.390625 
Q 38.8125 6.390625 42.859375 10.171875 
Q 46.921875 13.96875 46.921875 20.515625 
Q 46.921875 27.09375 42.890625 30.859375 
Q 38.875 34.625 31.78125 34.625 
z
M 21.921875 38.8125 
Q 15.578125 40.375 12.03125 44.71875 
Q 8.5 49.078125 8.5 55.328125 
Q 8.5 64.0625 14.71875 69.140625 
Q 20.953125 74.21875 31.78125 74.21875 
Q 42.671875 74.21875 48.875 69.140625 
Q 55.078125 64.0625 55.078125 55.328125 
Q 55.078125 49.078125 51.53125 44.71875 
Q 48 40.375 41.703125 38.8125 
Q 48.828125 37.15625 52.796875 32.3125 
Q 56.78125 27.484375 56.78125 20.515625 
Q 56.78125 9.90625 50.3125 4.234375 
Q 43.84375 -1.421875 31.78125 -1.421875 
Q 19.734375 -1.421875 13.25 4.234375 
Q 6.78125 9.90625 6.78125 20.515625 
Q 6.78125 27.484375 10.78125 32.3125 
Q 14.796875 37.15625 21.921875 38.8125 
z
M 18.3125 54.390625 
Q 18.3125 48.734375 21.84375 45.5625 
Q 25.390625 42.390625 31.78125 42.390625 
Q 38.140625 42.390625 41.71875 45.5625 
Q 45.3125 48.734375 45.3125 54.390625 
Q 45.3125 60.0625 41.71875 63.234375 
Q 38.140625 66.40625 31.78125 66.40625 
Q 25.390625 66.40625 21.84375 63.234375 
Q 18.3125 60.0625 18.3125 54.390625 
z
" id="DejaVuSans-38"/>
      </defs>
      <g transform="translate(52.205 67.189644)scale(0.1 -0.1)">
       <use xlink:href="#DejaVuSans-38"/>
       <use x="63.623047" xlink:href="#DejaVuSans-30"/>
      </g>
     </g>
    </g>
    <g id="ytick_9">
     <g id="line2d_17">
      <g>
       <use style="stroke:#000000;stroke-width:0.8;" x="71.93" xlink:href="#m1067f16566" y="30.049262"/>
      </g>
     </g>
     <g id="text_18">
      <!-- 90 -->
      <defs>
       <path d="M 10.984375 1.515625 
L 10.984375 10.5 
Q 14.703125 8.734375 18.5 7.8125 
Q 22.3125 6.890625 25.984375 6.890625 
Q 35.75 6.890625 40.890625 13.453125 
Q 46.046875 20.015625 46.78125 33.40625 
Q 43.953125 29.203125 39.59375 26.953125 
Q 35.25 24.703125 29.984375 24.703125 
Q 19.046875 24.703125 12.671875 31.3125 
Q 6.296875 37.9375 6.296875 49.421875 
Q 6.296875 60.640625 12.9375 67.421875 
Q 19.578125 74.21875 30.609375 74.21875 
Q 43.265625 74.21875 49.921875 64.515625 
Q 56.59375 54.828125 56.59375 36.375 
Q 56.59375 19.140625 48.40625 8.859375 
Q 40.234375 -1.421875 26.421875 -1.421875 
Q 22.703125 -1.421875 18.890625 -0.6875 
Q 15.09375 0.046875 10.984375 1.515625 
z
M 30.609375 32.421875 
Q 37.25 32.421875 41.125 36.953125 
Q 45.015625 41.5 45.015625 49.421875 
Q 45.015625 57.28125 41.125 61.84375 
Q 37.25 66.40625 30.609375 66.40625 
Q 23.96875 66.40625 20.09375 61.84375 
Q 16.21875 57.28125 16.21875 49.421875 
Q 16.21875 41.5 20.09375 36.953125 
Q 23.96875 32.421875 30.609375 32.421875 
z
" id="DejaVuSans-39"/>
      </defs>
      <g transform="translate(52.205 33.848481)scale(0.1 -0.1)">
       <use xlink:href="#DejaVuSans-39"/>
       <use x="63.623047" xlink:href="#DejaVuSans-30"/>
      </g>
     </g>
    </g>
    <g id="text_19">
     <!-- PSNR -->
     <defs>
      <path d="M 19.671875 64.796875 
L 19.671875 37.40625 
L 32.078125 37.40625 
Q 38.96875 37.40625 42.71875 40.96875 
Q 46.484375 44.53125 46.484375 51.125 
Q 46.484375 57.671875 42.71875 61.234375 
Q 38.96875 64.796875 32.078125 64.796875 
z
M 9.8125 72.90625 
L 32.078125 72.90625 
Q 44.34375 72.90625 50.609375 67.359375 
Q 56.890625 61.8125 56.890625 51.125 
Q 56.890625 40.328125 50.609375 34.8125 
Q 44.34375 29.296875 32.078125 29.296875 
L 19.671875 29.296875 
L 19.671875 0 
L 9.8125 0 
z
" id="DejaVuSans-50"/>
      <path d="M 44.390625 34.1875 
Q 47.5625 33.109375 50.5625 29.59375 
Q 53.5625 26.078125 56.59375 19.921875 
L 66.609375 0 
L 56 0 
L 46.6875 18.703125 
Q 43.0625 26.03125 39.671875 28.421875 
Q 36.28125 30.8125 30.421875 30.8125 
L 19.671875 30.8125 
L 19.671875 0 
L 9.8125 0 
L 9.8125 72.90625 
L 32.078125 72.90625 
Q 44.578125 72.90625 50.734375 67.671875 
Q 56.890625 62.453125 56.890625 51.90625 
Q 56.890625 45.015625 53.6875 40.46875 
Q 50.484375 35.9375 44.390625 34.1875 
z
M 19.671875 64.796875 
L 19.671875 38.921875 
L 32.078125 38.921875 
Q 39.203125 38.921875 42.84375 42.21875 
Q 46.484375 45.515625 46.484375 51.90625 
Q 46.484375 58.296875 42.84375 61.546875 
Q 39.203125 64.796875 32.078125 64.796875 
z
" id="DejaVuSans-52"/>
     </defs>
     <g transform="translate(10.674063 153.768437)scale(0.14 -0.14)">
      <use xlink:href="#DejaVuSans-50"/>
      <use x="60.302734" xlink:href="#DejaVuSans-53"/>
      <use x="123.779297" xlink:href="#DejaVuSans-4e"/>
      <use x="198.583984" xlink:href="#DejaVuSans-52"/>
     </g>
    </g>
   </g>
   <g id="line2d_18">
    <path clip-path="url(#pcb5412c32f)" d="M 88.913416 286.96793 
L 89.746277 269.098067 
L 90.301518 253.006288 
L 90.440327 252.324461 
L 90.995566 247.89242 
L 92.522479 240.133932 
L 92.938903 237.568329 
L 93.216525 236.157998 
L 93.355347 235.702224 
L 93.77177 232.53348 
L 94.88226 224.276874 
L 95.576306 222.703172 
L 95.99273 221.325181 
L 96.131551 221.170812 
L 96.686776 219.54643 
L 96.964398 218.900612 
L 97.658444 216.256991 
L 97.797266 216.078616 
L 98.074888 215.256756 
L 98.35251 214.791314 
L 99.324179 213.857094 
L 99.46298 213.585697 
L 99.601801 213.584363 
L 100.018225 213.013563 
L 100.712271 212.426425 
L 100.989894 212.060005 
L 101.128715 211.608233 
L 101.267516 211.608233 
L 102.100383 210.762701 
L 102.378006 210.654009 
L 102.516807 210.333267 
L 102.655608 210.302259 
L 103.210853 209.727124 
L 103.488475 209.612764 
L 105.15419 207.590623 
L 105.570634 206.86812 
L 105.987057 206.281648 
L 106.26468 205.825875 
L 106.958726 205.271078 
L 107.652772 203.921428 
L 107.791593 203.866415 
L 108.069216 203.187255 
L 108.485639 202.566109 
L 108.763262 201.715576 
L 108.901983 201.715576 
L 109.457268 200.607649 
L 109.596189 200.505292 
L 109.873831 199.941493 
L 110.151274 199.622085 
L 110.428916 198.953594 
L 110.567837 198.728875 
L 110.706559 198.728875 
L 110.84548 198.503155 
L 110.984201 198.493486 
L 111.123122 198.138736 
L 111.261844 198.161075 
L 112.649856 196.011237 
L 112.788777 196.009903 
L 112.927498 195.677492 
L 113.066419 195.691495 
L 113.205141 195.364418 
L 113.344062 195.376754 
L 113.482783 194.999999 
L 113.621704 194.999999 
L 113.899147 194.590903 
L 114.038068 194.420863 
L 114.176789 194.041774 
L 114.31571 194.041774 
L 114.454432 193.814387 
L 114.593353 193.822056 
L 114.732074 193.409959 
L 114.870995 193.409959 
L 115.009716 193.171236 
L 115.287359 193.058543 
L 115.565001 192.49341 
L 115.703723 192.49341 
L 115.842644 192.283028 
L 115.981365 192.283028 
L 116.120286 192.138327 
L 116.259007 192.168001 
L 117.230656 190.147193 
L 117.508298 189.634406 
L 118.202304 188.087042 
L 118.341226 188.091043 
L 118.618868 187.581924 
L 118.757589 187.487902 
L 120.423244 182.98051 
L 120.839808 182.73912 
L 120.978529 182.38737 
L 121.256171 182.306685 
L 121.672535 181.985276 
L 122.22782 181.919594 
L 122.921826 181.712212 
L 123.060747 181.712212 
L 123.199468 181.596518 
L 123.477111 181.564844 
L 125.836971 180.823003 
L 126.114614 180.670967 
L 126.530977 180.402571 
L 126.80862 180.174517 
L 127.363905 179.953132 
L 127.502626 179.907455 
L 127.91899 179.404337 
L 128.057911 179.432343 
L 128.335553 179.248967 
L 128.751917 178.757851 
L 129.029559 178.519462 
L 129.723565 178.020345 
L 130.001208 177.836969 
L 130.556493 177.509225 
L 131.528141 177.408201 
L 131.805784 177.185482 
L 131.944505 177.188483 
L 132.361069 176.937424 
L 132.916153 176.640021 
L 133.332717 176.555334 
L 133.610359 176.417302 
L 133.887802 176.157574 
L 134.026723 176.161242 
L 134.443087 175.758147 
L 134.582008 175.71247 
L 134.85965 175.343049 
L 135.137093 175.296705 
L 135.414735 175.159006 
L 135.692378 174.888943 
L 135.97002 174.601542 
L 136.247663 174.528525 
L 136.525305 174.398494 
L 137.496954 174.1391 
L 138.052238 174.022406 
L 138.329881 173.88204 
L 138.746245 173.851699 
L 139.440251 173.720668 
L 139.856814 173.617644 
L 146.935996 172.141298 
L 147.35256 171.81022 
L 148.185287 171.730201 
L 149.295857 171.480142 
L 150.82279 171.369116 
L 152.766087 170.81732 
L 153.04373 170.720297 
L 153.460094 170.607604 
L 153.876457 170.474239 
L 154.431742 170.383551 
L 156.097597 170.099818 
L 156.236318 170.097818 
L 156.51396 169.932112 
L 156.930324 169.926778 
L 157.207966 169.827087 
L 163.038057 168.409755 
L 163.3157 168.310065 
L 163.870785 168.158696 
L 164.42607 167.976319 
L 166.091924 167.530882 
L 166.369367 167.402851 
L 166.508288 167.404852 
L 166.78593 167.279489 
L 168.729227 166.969416 
L 169.145591 166.941076 
L 169.423234 166.84272 
L 169.562155 166.850055 
L 169.839797 166.683683 
L 169.978518 166.693018 
L 170.394882 166.320597 
L 170.811446 166.225908 
L 174.004034 165.648439 
L 174.281676 165.538747 
L 174.69804 165.475065 
L 175.669688 165.226674 
L 175.947331 165.132985 
L 176.224973 165.140654 
L 176.502616 165.007289 
L 177.0579 164.739226 
L 177.474264 164.670877 
L 177.751906 164.491835 
L 178.307191 164.391144 
L 178.584834 164.226439 
L 179.001197 164.164424 
L 179.27884 163.95971 
L 179.556482 163.825011 
L 179.972846 163.745993 
L 180.528131 163.637301 
L 182.332707 163.199864 
L 182.74907 162.919132 
L 186.774586 161.968242 
L 187.190949 161.834877 
L 187.468592 161.786199 
L 188.301519 161.450787 
L 188.717883 161.398108 
L 189.273167 160.99468 
L 189.411889 160.996347 
L 189.967174 160.564246 
L 192.049392 159.636361 
L 192.327034 159.56001 
L 193.437404 159.141911 
L 193.715046 159.069228 
L 193.992689 158.87885 
L 194.547974 158.68347 
L 194.825616 158.532768 
L 195.24198 158.516765 
L 195.519622 158.432412 
L 196.768913 158.036652 
L 197.046556 157.88795 
L 197.185277 157.88795 
L 197.462919 157.713909 
L 197.740562 157.608885 
L 198.156925 157.475854 
L 198.434568 157.368495 
L 198.850932 157.252801 
L 199.406216 157.165447 
L 200.239144 157.002076 
L 200.655507 156.99074 
L 201.627156 156.8217 
L 202.043719 156.785025 
L 202.737726 156.403935 
L 203.431732 156.328918 
L 203.709374 156.266236 
L 204.125738 156.224226 
L 204.40338 156.130871 
L 204.681023 155.92749 
L 205.097386 155.755116 
L 205.652671 155.662761 
L 208.012532 155.171979 
L 208.290174 155.122301 
L 208.567817 155.052618 
L 208.845259 154.927588 
L 209.539465 154.816896 
L 210.372193 154.60718 
L 210.649835 154.573172 
L 211.066399 154.226424 
L 211.343841 154.139403 
L 211.760405 154.012707 
L 212.315689 153.935022 
L 212.593132 153.730641 
L 213.009696 153.656957 
L 215.508277 152.885109 
L 215.78592 152.71807 
L 216.063562 152.614045 
L 216.341005 152.370988 
L 216.618647 152.33798 
L 216.89629 152.23529 
L 217.451575 152.016905 
L 218.006859 151.573467 
L 218.562144 151.479445 
L 218.978508 151.210049 
L 219.117229 151.200046 
L 219.811435 150.658586 
L 220.227799 150.636247 
L 220.783084 150.224817 
L 221.060726 150.056111 
L 221.754732 149.494313 
L 222.58746 149.248588 
L 223.420387 148.47374 
L 223.559308 148.47374 
L 223.975672 148.217013 
L 224.114393 148.224681 
L 225.086042 147.210776 
L 225.363684 147.115421 
L 225.918969 146.616303 
L 226.05789 146.64331 
L 226.751896 145.948813 
L 227.16826 145.925808 
L 229.666842 144.010691 
L 229.944484 143.931339 
L 231.332496 142.355969 
L 232.165424 142.290621 
L 233.137072 141.737824 
L 234.108721 141.276716 
L 234.802927 140.516871 
L 235.080369 140.460524 
L 235.635654 139.892391 
L 236.190939 139.816373 
L 236.468581 139.550644 
L 236.607303 139.550644 
L 237.578951 138.822806 
L 237.856593 138.751123 
L 237.995515 138.564746 
L 238.273157 138.561412 
L 239.105884 137.630526 
L 239.244806 137.614523 
L 239.661169 137.087399 
L 239.938812 137.101402 
L 241.604466 134.816532 
L 241.743387 134.816532 
L 242.02103 134.515795 
L 242.715036 133.657927 
L 242.992678 133.59958 
L 243.964327 132.504989 
L 247.018194 129.210549 
L 249.377854 126.364881 
L 251.737715 123.197804 
L 252.987006 121.610098 
L 253.125727 121.617099 
L 255.485588 118.320992 
L 259.372182 113.00641 
L 262.703691 109.642954 
L 265.063352 106.962324 
L 267.284491 104.115989 
L 272.559098 96.993983 
L 272.698019 96.993983 
L 273.114383 96.465859 
L 273.669667 95.823709 
L 273.94731 95.84638 
L 274.224952 95.498966 
L 274.641316 95.427615 
L 275.890607 94.267343 
L 279.083195 91.418674 
L 279.222116 91.432344 
L 282.969989 87.517425 
L 283.10871 87.531428 
L 284.358001 86.066417 
L 284.635644 86.087755 
L 285.884935 84.676424 
L 286.162577 84.627746 
L 286.440219 84.543726 
L 286.578941 84.567732 
L 287.134225 84.035273 
L 287.411868 83.955921 
L 287.68951 83.875903 
L 287.828232 83.902909 
L 288.105874 83.771878 
L 288.661159 83.769211 
L 289.354765 83.105055 
L 289.632607 83.092052 
L 289.91045 82.978692 
L 290.188292 82.899007 
L 290.743977 82.448234 
L 291.021819 82.426229 
L 291.437583 82.088483 
L 291.715425 82.067811 
L 292.686874 81.454667 
L 293.102638 81.418659 
L 293.658323 80.916541 
L 294.907614 79.660913 
L 295.463298 79.478203 
L 296.156905 78.863059 
L 296.434747 78.862059 
L 296.850511 78.52698 
L 297.544117 78.445627 
L 297.82196 78.361941 
L 298.793408 78.273587 
L 299.489013 78.224909 
L 299.626935 78.265252 
L 299.904777 78.096212 
L 300.738304 77.999523 
L 301.154068 77.940842 
L 302.125517 77.883495 
L 303.374808 77.777804 
L 303.790572 77.723791 
L 304.486177 77.635437 
L 304.76402 77.589426 
L 305.87339 77.072305 
L 306.289154 76.967947 
L 308.511892 76.250445 
L 309.34342 76.168426 
L 309.761183 75.970046 
L 310.45479 75.920368 
L 311.704081 75.12018 
L 311.981923 75.089173 
L 312.535609 74.798771 
L 312.813451 74.728088 
L 313.091293 74.59539 
L 313.509056 74.521373 
L 314.480505 73.872553 
L 314.758347 73.866552 
L 315.451953 73.396775 
L 316.283482 73.292084 
L 316.839166 72.896324 
L 317.256929 72.7943 
L 317.672693 72.509233 
L 318.088457 72.459888 
L 318.782063 71.963772 
L 319.199826 71.858414 
L 320.171275 71.166251 
L 320.449117 71.005547 
L 320.864881 70.760823 
L 321.142724 70.713812 
L 321.420566 70.588782 
L 321.698408 70.566777 
L 322.807779 69.646561 
L 323.225541 69.537202 
L 323.641306 69.217127 
L 323.919148 69.21546 
L 324.752675 68.64766 
L 325.028518 68.595981 
L 325.30636 68.5343 
L 325.584203 68.429609 
L 326.139887 68.002508 
L 326.833494 67.931492 
L 327.111336 67.74078 
L 327.389178 67.575741 
L 327.804942 67.465716 
L 328.360627 67.144307 
L 328.638469 67.044283 
L 329.332076 66.46448 
L 330.025682 66.44781 
L 330.581367 66.149073 
L 330.721287 66.175413 
L 331.414894 65.618949 
L 332.1085 65.576605 
L 332.664184 65.305208 
L 332.802106 65.332215 
L 333.357791 64.94179 
L 334.051397 64.917784 
L 334.46916 64.648054 
L 335.162766 64.5607 
L 335.57853 64.419667 
L 336.134215 64.345983 
L 337.105664 63.894877 
L 337.661348 63.405429 
L 338.077112 63.300071 
L 338.494875 62.952322 
L 339.744166 62.88364 
L 340.02001 62.807622 
L 340.297852 62.747274 
L 340.575694 62.639249 
L 341.269301 62.54556 
L 341.964906 62.452205 
L 342.242748 62.424532 
L 342.518592 62.19081 
L 343.352118 62.163804 
L 343.629961 62.066781 
L 344.74133 61.97876 
L 345.8507 61.829059 
L 347.099991 61.75104 
L 347.377834 61.584668 
L 347.793598 61.499648 
L 350.709942 60.987861 
L 351.263628 60.879836 
L 351.959233 60.682123 
L 352.237076 60.574764 
L 353.068604 60.465072 
L 353.76221 60.014966 
L 354.179973 59.978957 
L 354.595737 59.737567 
L 355.011501 59.682221 
L 355.289343 59.559526 
L 355.707106 59.485508 
L 355.984949 59.386818 
L 356.400713 59.294797 
L 357.094319 59.114421 
L 357.927846 58.562291 
L 358.34361 58.516281 
L 358.621452 58.390918 
L 359.037216 58.32757 
L 360.286507 57.483038 
L 360.70427 57.399018 
L 361.675719 56.76987 
L 362.091483 56.66818 
L 362.92501 56.105714 
L 363.340774 56.035698 
L 363.896458 55.649607 
L 364.312222 55.566921 
L 366.950725 53.373406 
L 367.366489 53.100675 
L 367.782253 53.010988 
L 368.893622 52.093105 
L 369.309386 52.04076 
L 370.558677 51.008184 
L 370.836519 50.997181 
L 371.114362 50.764127 
L 371.530126 50.738121 
L 371.947889 50.411711 
L 372.363653 50.357365 
L 373.057259 49.799567 
L 373.335101 49.805902 
L 373.890786 49.38647 
L 374.30655 49.299116 
L 375.417919 48.942032 
L 375.555841 48.956035 
L 376.249447 48.371898 
L 376.66721 48.340891 
L 376.945052 48.163516 
L 377.776581 48.16585 
L 378.194343 47.868113 
L 378.610107 47.799097 
L 379.025871 47.455683 
L 379.443634 47.411339 
L 379.99732 46.941562 
L 380.830847 46.870879 
L 381.108689 46.669498 
L 381.664374 46.300745 
L 382.080138 46.216725 
L 382.35798 46.132039 
L 382.635823 46.131039 
L 384.023035 45.035448 
L 385.967931 44.252598 
L 388.188671 42.73124 
L 388.604435 42.692231 
L 391.518781 40.664422 
L 392.352308 40.4317 
L 392.907993 40.13463 
L 395.962259 38.694959 
L 396.238102 38.615607 
L 397.905156 37.74707 
L 407.621642 32.73856 
L 412.756727 30.856452 
L 421.779606 27.659367 
L 423.862424 27.126909 
L 428.026061 26.429745 
L 428.581746 26.352727 
L 428.581746 26.352727 
" style="fill:none;stroke:#1f77b4;stroke-linecap:square;stroke-width:1.5;"/>
   </g>
   <g id="line2d_19">
    <path clip-path="url(#pcb5412c32f)" d="M 88.913416 286.874575 
L 89.329847 281.974424 
L 89.746277 272.345163 
L 90.023897 258.826655 
L 90.440327 252.319793 
L 90.717947 250.545377 
L 90.856765 250.257642 
L 92.244857 243.670429 
L 92.661281 240.228287 
L 93.216525 235.750902 
L 93.910571 231.580923 
L 94.188194 229.553447 
L 94.327015 229.473762 
L 95.021061 224.483923 
L 95.298684 223.544703 
L 95.853928 222.49579 
L 96.131551 221.883979 
L 96.409153 221.698269 
L 96.825597 220.902082 
L 96.964398 220.85007 
L 97.380842 219.809825 
L 97.519643 219.704467 
L 97.797266 219.178677 
L 98.491312 216.0116 
L 99.46298 214.134493 
L 100.157026 213.510346 
L 100.712271 213.030233 
L 100.851092 213.017564 
L 101.128715 212.560456 
L 101.406317 212.467434 
L 101.545138 211.924974 
L 101.68394 211.924974 
L 103.904899 210.148557 
L 104.460144 209.863156 
L 104.598965 209.545082 
L 104.737766 209.545082 
L 105.015389 209.31336 
L 105.709435 208.866255 
L 105.848256 208.645204 
L 106.125879 208.574854 
L 106.681103 208.225105 
L 106.819925 208.225105 
L 107.097547 208.013055 
L 107.37517 207.998385 
L 108.485639 206.524706 
L 108.763262 206.324659 
L 109.179625 205.287082 
L 109.318547 205.221399 
L 109.457268 204.974675 
L 109.596189 204.985344 
L 109.873831 204.341193 
L 110.012553 204.332524 
L 110.290195 203.77406 
L 111.123122 201.17745 
L 111.261844 201.186118 
L 111.539486 200.561305 
L 111.678207 200.445278 
L 111.817128 199.923489 
L 111.95585 199.923489 
L 112.233492 199.412702 
L 112.927498 198.59351 
L 113.205141 197.988701 
L 113.760425 196.96346 
L 113.899147 196.969128 
L 114.31571 196.256961 
L 114.593353 195.412763 
L 114.732074 195.412763 
L 114.870995 195.072349 
L 115.148438 195.03234 
L 115.42608 193.751373 
L 115.565001 193.689358 
L 115.842644 193.055209 
L 116.259007 192.873166 
L 116.53665 192.838158 
L 116.953014 192.325371 
L 117.230656 192.211344 
L 117.64702 191.944615 
L 117.785941 191.955284 
L 117.924662 191.757904 
L 118.063583 191.78191 
L 118.202304 191.596533 
L 118.341226 191.5982 
L 118.896311 190.388583 
L 119.312874 189.486038 
L 119.451595 189.486038 
L 119.729238 188.990588 
L 119.868159 188.965249 
L 120.562165 187.277185 
L 120.839808 186.619031 
L 120.978529 186.619031 
L 121.256171 186.052898 
L 121.950177 184.411179 
L 122.089098 184.387173 
L 122.22782 184.176124 
L 122.366741 184.196129 
L 122.505462 183.880388 
L 122.644183 183.880388 
L 122.783105 183.741689 
L 122.921826 183.301919 
L 123.060747 183.301919 
L 123.338389 182.858148 
L 123.477111 182.867817 
L 123.616032 182.637763 
L 123.754753 182.637763 
L 123.893474 182.448051 
L 124.171117 181.751554 
L 124.310038 181.764891 
L 124.448759 181.545839 
L 124.58768 181.538171 
L 124.726402 181.315785 
L 126.114614 181.229098 
L 126.669699 181.148079 
L 127.641347 181.013381 
L 128.751917 180.850676 
L 129.029559 180.693639 
L 130.417572 180.561275 
L 130.695214 180.396903 
L 136.802947 179.520364 
L 137.08059 179.407337 
L 137.635675 179.353991 
L 138.468602 179.259303 
L 139.301529 179.005243 
L 139.856814 178.987239 
L 140.134257 178.770521 
L 140.55082 178.72451 
L 140.828463 178.593146 
L 141.244826 178.420105 
L 142.216475 178.115701 
L 142.494117 177.851305 
L 144.021051 177.722942 
L 144.298693 177.405867 
L 144.715057 177.323181 
L 144.992699 177.048117 
L 145.547984 176.454977 
L 146.519633 176.319946 
L 146.797275 176.08389 
L 147.074918 175.986534 
L 147.491281 175.918518 
L 147.630002 175.912183 
L 147.907645 175.6998 
L 148.324208 175.678128 
L 148.740572 175.534094 
L 149.851142 175.063317 
L 150.267506 174.473845 
L 150.82279 174.38149 
L 151.100433 174.276466 
L 151.655518 174.089088 
L 151.794439 174.093756 
L 152.210803 173.717668 
L 152.627166 173.694662 
L 152.904809 173.575634 
L 154.1541 173.261227 
L 154.293021 173.033507 
L 155.403391 172.94482 
L 155.681033 172.674089 
L 156.236318 172.586402 
L 156.51396 172.185975 
L 157.207966 172.092953 
L 157.763251 171.918912 
L 158.040894 171.821889 
L 159.012542 171.518818 
L 159.290185 171.492479 
L 159.706548 171.104387 
L 160.122912 171.043373 
L 161.372203 170.825989 
L 162.20513 170.80365 
L 162.482773 170.698959 
L 163.3157 170.496245 
L 164.287348 170.422561 
L 164.564991 170.274859 
L 165.397718 170.120156 
L 167.341215 169.880767 
L 167.618658 169.80875 
L 168.590506 169.654714 
L 168.867949 169.560358 
L 171.921815 169.05824 
L 172.199458 168.940879 
L 173.032385 168.746834 
L 173.310028 168.507444 
L 173.58767 168.44643 
L 173.865112 168.251051 
L 174.420397 168.081011 
L 175.253325 167.954981 
L 180.38921 166.875061 
L 180.805773 166.4743 
L 181.360858 166.421954 
L 181.638501 166.279588 
L 182.74907 166.184565 
L 183.165434 166.033863 
L 183.443076 165.847486 
L 183.85944 165.760799 
L 184.137083 165.653107 
L 184.97001 165.416052 
L 185.247652 165.269684 
L 186.358022 165.110647 
L 186.774586 164.991285 
L 187.468592 164.945941 
L 188.023877 164.749228 
L 188.856604 164.68388 
L 189.411889 164.537179 
L 189.828452 164.51384 
L 190.383537 164.398813 
L 190.800101 164.391478 
L 191.077743 164.203433 
L 192.604477 163.858686 
L 192.882119 163.598958 
L 193.715046 163.501935 
L 193.992689 163.389909 
L 195.519622 163.056831 
L 195.797265 162.914798 
L 196.213628 162.790435 
L 196.491271 162.582386 
L 196.768913 162.465025 
L 197.601641 162.27098 
L 198.018204 161.863551 
L 198.295847 161.823875 
L 198.573489 161.667171 
L 198.850932 161.583818 
L 199.545138 161.543475 
L 199.82278 161.402109 
L 199.961501 161.42078 
L 200.239144 161.161386 
L 200.516786 161.142381 
L 200.794428 161.030022 
L 201.349513 160.692942 
L 202.182441 159.792731 
L 202.598804 159.750721 
L 203.154089 159.471656 
L 203.709374 159.199592 
L 204.40338 159.015882 
L 204.958665 158.48309 
L 205.236307 158.385734 
L 205.51395 158.252703 
L 205.652671 158.210693 
L 206.207956 157.673567 
L 206.62432 157.676567 
L 207.457247 157.057755 
L 208.012532 156.985405 
L 208.290174 156.913388 
L 208.428895 156.918723 
L 208.706538 156.776356 
L 209.122902 156.584978 
L 209.539465 156.565973 
L 209.817108 156.307246 
L 209.955829 156.317248 
L 210.233471 156.19722 
L 210.649835 156.106865 
L 212.593132 155.505724 
L 213.148417 155.289673 
L 213.426059 155.192984 
L 214.120065 154.56417 
L 214.397708 154.462813 
L 214.814271 154.286771 
L 215.091714 154.147739 
L 215.646999 154.077055 
L 216.89629 153.722305 
L 217.312853 153.451575 
L 217.451575 153.474914 
L 217.729217 153.254195 
L 218.423223 153.150838 
L 218.978508 153.067485 
L 219.394872 152.780418 
L 220.36652 152.157271 
L 220.783084 151.871871 
L 220.921805 151.878873 
L 221.338169 151.46911 
L 222.310017 151.155369 
L 222.726381 150.65992 
L 223.281666 150.569232 
L 223.559308 150.425198 
L 223.698029 150.431866 
L 224.808599 149.315937 
L 225.086042 149.259257 
L 225.363684 149.057543 
L 225.502605 149.047541 
L 226.612975 148.053974 
L 226.751896 148.075313 
L 227.307181 147.515848 
L 227.584623 147.412824 
L 228.417551 146.560957 
L 228.556472 146.560957 
L 229.52812 145.689086 
L 230.083205 145.419689 
L 230.777411 144.764869 
L 231.193775 144.394448 
L 231.610139 144.345103 
L 232.165424 144.029029 
L 232.443066 143.794307 
L 232.998351 143.285188 
L 233.137072 143.290189 
L 235.635654 140.364168 
L 235.774575 140.364168 
L 236.468581 139.496298 
L 237.578951 138.172654 
L 237.717872 138.172654 
L 238.134236 137.906925 
L 238.550799 137.81757 
L 239.522448 136.595283 
L 239.80009 136.582947 
L 240.771739 135.570043 
L 241.188103 135.351658 
L 241.465745 135.116269 
L 241.604466 135.132606 
L 242.02103 134.573475 
L 242.298672 134.470118 
L 242.992678 133.531564 
L 243.686685 133.333184 
L 244.103048 132.751381 
L 248.267485 128.163637 
L 250.766067 125.020565 
L 253.264648 121.470398 
L 259.09454 113.341822 
L 263.120055 109.231857 
L 264.646988 107.567466 
L 264.924631 107.510453 
L 267.14557 104.730133 
L 269.088867 102.281225 
L 269.227788 102.293228 
L 269.921795 101.381014 
L 273.392025 96.814608 
L 273.669667 96.714584 
L 274.363674 95.840046 
L 275.05768 95.693678 
L 275.612964 95.668672 
L 275.890607 95.367601 
L 277.278819 95.309254 
L 277.556262 95.201229 
L 278.250468 95.098872 
L 278.52811 94.871151 
L 278.805552 94.87982 
L 279.083195 94.693443 
L 279.360837 94.683107 
L 280.749049 93.533837 
L 281.026692 93.509498 
L 281.304134 93.314786 
L 281.581777 93.312119 
L 282.137062 92.818003 
L 282.553425 92.714312 
L 284.358001 91.025915 
L 284.635644 90.986573 
L 286.440219 89.246497 
L 286.717862 89.168812 
L 289.076923 86.369488 
L 289.354765 86.195114 
L 289.632607 86.089089 
L 289.91045 85.780683 
L 290.188292 85.780683 
L 291.297662 84.553395 
L 291.575505 84.508051 
L 291.853347 84.253991 
L 292.546953 84.257326 
L 292.964716 83.942252 
L 294.074087 83.847229 
L 294.351929 83.76321 
L 294.629771 83.665853 
L 295.045535 83.610174 
L 295.323378 83.529488 
L 295.463298 83.53849 
L 296.018983 82.952019 
L 296.294826 82.798983 
L 296.572669 82.78498 
L 296.990431 82.484909 
L 297.268274 82.453235 
L 297.544117 82.335541 
L 298.239722 82.252188 
L 298.793408 82.069145 
L 299.349093 81.600368 
L 299.626935 81.555358 
L 300.18262 81.022899 
L 300.598384 80.599467 
L 301.016147 80.53045 
L 301.29199 80.294395 
L 301.709753 80.207708 
L 301.987595 80.129023 
L 302.265438 80.036334 
L 302.541281 79.921307 
L 302.681202 79.921307 
L 302.959044 79.805613 
L 303.236886 79.784275 
L 303.65265 79.471535 
L 304.346257 79.39185 
L 304.901941 79.15346 
L 305.457626 79.114118 
L 306.01331 78.620002 
L 306.844839 78.546318 
L 307.538445 77.94651 
L 310.732632 77.844486 
L 311.286318 77.754799 
L 312.953372 77.697452 
L 313.509056 77.56442 
L 314.758347 77.542082 
L 315.174111 77.344702 
L 316.283482 77.328032 
L 316.561324 77.227008 
L 318.228378 77.125317 
L 318.782063 76.81191 
L 319.893433 76.756564 
L 320.171275 76.679213 
L 320.449117 76.631201 
L 322.114172 75.487266 
L 322.529936 75.411248 
L 325.724123 73.200062 
L 326.973414 73.051361 
L 327.251257 72.960339 
L 328.638469 71.895089 
L 329.054233 71.813737 
L 329.609918 71.419978 
L 330.025682 71.339959 
L 330.303524 71.247604 
L 330.581367 71.234267 
L 330.859209 71.110905 
L 331.137051 71.106571 
L 331.830658 70.613121 
L 332.1085 70.59445 
L 332.386342 70.442081 
L 332.802106 70.360395 
L 334.191318 69.203124 
L 334.46916 69.215793 
L 334.747002 69.020081 
L 335.57853 68.955399 
L 337.245584 67.513727 
L 337.521428 67.466049 
L 337.79927 67.258 
L 338.217033 67.200987 
L 338.494875 67.131304 
L 338.770719 67.052952 
L 339.048561 66.982936 
L 339.744166 66.886913 
L 340.02001 66.75855 
L 340.853537 66.701536 
L 341.269301 66.381128 
L 341.547143 66.384795 
L 341.964906 66.016042 
L 342.38067 65.968364 
L 342.658512 65.865673 
L 342.936354 65.834332 
L 343.352118 65.568937 
L 343.629961 65.574938 
L 343.907803 65.420235 
L 344.74133 65.337883 
L 345.434936 64.799756 
L 345.8507 64.691731 
L 346.128543 64.54803 
L 346.406385 64.5597 
L 347.099991 63.993233 
L 347.933518 63.926551 
L 348.349282 63.605476 
L 348.765046 63.507453 
L 349.738494 62.614576 
L 350.014337 62.608908 
L 350.29218 62.397192 
L 351.125706 62.324842 
L 351.403549 62.164137 
L 351.819313 62.059113 
L 352.097155 61.841395 
L 352.512919 61.788049 
L 352.790761 61.684358 
L 353.486367 61.600005 
L 353.76221 61.439634 
L 354.040052 61.30827 
L 354.873579 61.225917 
L 355.151422 61.097553 
L 355.429264 61.093552 
L 355.707106 60.955187 
L 356.538634 60.852829 
L 356.956397 60.791815 
L 357.372161 60.750805 
L 357.510083 60.752806 
L 357.787925 60.639779 
L 358.621452 60.536088 
L 359.454979 60.4464 
L 360.008665 60.417727 
L 360.286507 60.291698 
L 360.70427 60.228683 
L 361.120034 60.122658 
L 361.81364 60.034637 
L 362.507247 59.840592 
L 363.756538 59.320803 
L 367.782253 56.414787 
L 368.200016 56.307095 
L 368.893622 55.817647 
L 369.309386 55.787306 
L 370.280835 55.142822 
L 370.698598 55.036797 
L 372.08581 53.952542 
L 372.501574 53.875857 
L 375.140077 51.491297 
L 377.776581 49.042056 
L 378.194343 48.953035 
L 378.610107 48.648296 
L 379.025871 48.584615 
L 379.859398 47.918458 
L 380.275162 47.822769 
L 380.553005 47.665066 
L 380.970768 47.589381 
L 381.942216 46.801196 
L 382.35798 46.722511 
L 382.773744 46.3911 
L 383.329429 46.289409 
L 383.885114 45.938994 
L 384.300878 45.871644 
L 385.412247 45.079792 
L 385.828011 45.031114 
L 391.936544 40.809122 
L 392.352308 40.742106 
L 394.017363 39.732536 
L 407.343799 32.838584 
L 410.675908 31.60296 
L 421.641684 27.684707 
L 423.722503 27.152582 
L 428.443824 26.369731 
L 428.581746 26.352727 
L 428.581746 26.352727 
" style="fill:none;stroke:#ff7f0e;stroke-linecap:square;stroke-width:1.5;"/>
   </g>
   <g id="line2d_20">
    <path clip-path="url(#pcb5412c32f)" d="M 88.913416 287.007273 
L 89.191036 284.074917 
L 89.468657 277.975818 
L 89.607468 275.022792 
L 90.023897 258.826655 
L 90.440327 252.116412 
L 90.717947 251.111176 
L 90.856765 250.832444 
L 90.995566 249.824541 
L 91.273188 249.364099 
L 91.41199 247.896421 
L 91.550811 247.798398 
L 91.828433 246.49876 
L 92.106056 243.63242 
L 92.661281 242.150739 
L 93.216525 239.392091 
L 93.910571 231.349869 
L 94.743439 224.833672 
L 94.88226 224.697973 
L 95.159862 223.848441 
L 95.715107 223.143275 
L 96.131551 222.104364 
L 96.270352 222.007675 
L 96.686776 220.716038 
L 96.825597 220.731375 
L 96.964398 220.470314 
L 97.242021 219.612779 
L 97.380842 219.457409 
L 97.658444 218.774916 
L 97.797266 218.413831 
L 97.936067 218.377489 
L 98.35251 217.775348 
L 98.768934 216.45037 
L 99.324179 215.745538 
L 99.740603 214.071478 
L 100.712271 213.269623 
L 100.851092 212.924542 
L 100.989894 212.919874 
L 101.128715 212.582128 
L 101.267516 212.56279 
L 101.545138 212.277723 
L 101.822761 212.090012 
L 101.961562 211.724927 
L 102.100383 211.707923 
L 102.239184 211.381513 
L 102.516807 211.289825 
L 103.210853 210.942743 
L 103.627297 210.389947 
L 103.766098 210.389947 
L 104.04372 210.129886 
L 105.431812 209.227674 
L 106.125879 207.841348 
L 106.542302 207.751327 
L 106.958726 207.523607 
L 107.236348 207.430252 
L 107.513971 207.003485 
L 107.791593 206.848448 
L 108.208017 206.591721 
L 108.485639 206.51737 
L 108.763262 206.340662 
L 108.901983 206.332327 
L 110.012553 204.341193 
L 110.428916 203.091899 
L 110.706559 203.030885 
L 110.84548 202.89652 
L 111.539486 200.839704 
L 111.95585 200.397933 
L 112.233492 199.610749 
L 112.372413 199.548401 
L 112.649856 198.674195 
L 112.788777 198.661859 
L 113.066419 198.013707 
L 113.205141 197.930687 
L 113.344062 197.382892 
L 113.482783 197.382892 
L 113.760425 196.5657 
L 113.899147 196.577369 
L 114.038068 196.180276 
L 114.176789 196.180276 
L 115.009716 194.086785 
L 115.287359 193.835059 
L 115.565001 192.90184 
L 115.981365 192.816153 
L 116.120286 192.528752 
L 116.259007 192.528752 
L 116.53665 192.147996 
L 116.675371 192.005629 
L 116.814292 191.699224 
L 116.953014 191.699224 
L 117.369577 190.835354 
L 117.64702 190.34824 
L 117.785941 190.242882 
L 119.312874 186.488334 
L 119.868159 185.003985 
L 120.00688 185.003985 
L 120.839808 183.275579 
L 120.978529 183.275579 
L 121.11745 182.881486 
L 121.256171 182.881486 
L 121.950177 182.039622 
L 122.22782 181.879585 
L 125.69805 181.240768 
L 126.114614 181.168418 
L 126.669699 181.030385 
L 127.086262 180.978039 
L 131.250499 180.104501 
L 131.805784 180.026149 
L 132.083426 179.905788 
L 132.638511 179.796762 
L 133.193796 179.187619 
L 133.610359 179.07626 
L 134.165444 178.711841 
L 134.443087 178.652827 
L 134.85965 178.2554 
L 134.998372 178.251733 
L 135.276014 177.983003 
L 135.553657 177.954996 
L 135.831299 177.653926 
L 136.247663 177.553235 
L 136.525305 177.414203 
L 137.08059 177.366191 
L 138.052238 176.520993 
L 138.329881 176.447642 
L 138.746245 176.148572 
L 139.023887 175.982533 
L 139.162608 175.947525 
L 139.579172 175.379725 
L 139.717893 175.379725 
L 139.995535 175.212352 
L 140.411899 175.189013 
L 140.967184 175.098325 
L 141.106105 175.098325 
L 141.383548 174.97663 
L 141.800111 174.856935 
L 142.216475 174.850934 
L 142.77176 174.461843 
L 143.049402 174.404496 
L 143.327045 174.308807 
L 143.88213 174.253794 
L 144.159772 174.232122 
L 144.576336 173.750342 
L 145.270342 173.652986 
L 145.964348 173.575968 
L 146.103269 173.561631 
L 146.380712 173.299903 
L 146.519633 173.319574 
L 146.658354 173.116193 
L 147.630002 173.030173 
L 147.907645 172.957489 
L 148.185287 172.885472 
L 148.46293 172.735437 
L 148.879293 172.669422 
L 149.712221 172.560396 
L 149.989863 172.436033 
L 150.545148 172.237987 
L 150.683869 172.242988 
L 150.961512 172.112624 
L 151.516796 172.031939 
L 153.04373 171.793216 
L 153.599015 171.687524 
L 155.264669 171.585167 
L 155.542312 171.447135 
L 157.901973 171.108722 
L 158.318536 170.970689 
L 159.012542 170.890337 
L 159.845469 170.839659 
L 160.122912 170.733634 
L 160.817118 170.660617 
L 161.09476 170.483908 
L 162.621494 170.423561 
L 162.899136 170.314869 
L 164.148427 170.176836 
L 164.981355 170.071812 
L 165.258997 169.99246 
L 168.173943 169.506679 
L 168.867949 169.433662 
L 169.145591 169.162265 
L 170.11724 169.068909 
L 171.366531 168.949548 
L 172.338379 168.78851 
L 173.726391 168.48744 
L 174.004034 168.340405 
L 174.69804 168.333403 
L 174.975682 168.172699 
L 177.196622 167.886632 
L 177.474264 167.725594 
L 177.890628 167.649243 
L 178.445913 167.374511 
L 178.723555 167.375512 
L 179.001197 167.238813 
L 180.250488 167.09678 
L 180.528131 166.915737 
L 180.666852 166.929407 
L 180.944495 166.777371 
L 181.222137 166.676348 
L 181.499779 166.488637 
L 181.916143 166.481302 
L 182.193785 166.284922 
L 183.165434 166.199902 
L 183.85944 165.973849 
L 184.137083 165.862823 
L 184.692367 165.775469 
L 184.97001 165.540748 
L 185.802937 165.441391 
L 187.746234 164.838583 
L 188.162598 164.717888 
L 188.44024 164.635868 
L 188.856604 164.523509 
L 189.828452 164.421485 
L 190.383537 164.37414 
L 190.522458 164.388144 
L 190.800101 164.240109 
L 191.355186 164.154755 
L 191.771749 163.818676 
L 192.327034 163.735324 
L 192.604477 163.623964 
L 193.298683 163.586955 
L 193.576325 163.445589 
L 194.964337 162.991816 
L 195.24198 162.846115 
L 195.380701 162.855117 
L 195.658344 162.742757 
L 196.074907 162.715084 
L 196.35235 162.505701 
L 197.185277 162.430684 
L 197.462919 162.281982 
L 197.601641 162.293652 
L 197.879283 162.154619 
L 198.018204 162.15762 
L 198.295847 162.017253 
L 198.434568 162.008251 
L 198.850932 161.737188 
L 199.267495 161.611158 
L 200.239144 161.2204 
L 200.516786 161.104039 
L 200.655507 161.113374 
L 201.072071 160.685607 
L 201.349513 160.636929 
L 201.627156 160.473224 
L 202.182441 160.28518 
L 202.460083 160.068462 
L 202.737726 159.996112 
L 203.154089 159.852412 
L 203.709374 159.785729 
L 204.819944 159.373299 
L 204.958665 159.3763 
L 205.375029 159.092233 
L 205.51395 159.097568 
L 205.930314 158.721813 
L 206.207956 158.640127 
L 206.485598 158.617455 
L 206.901962 158.268373 
L 207.179605 158.179019 
L 207.734889 158.080662 
L 208.151253 157.981972 
L 208.428895 157.771923 
L 208.706538 157.662231 
L 208.98418 157.531533 
L 209.400544 157.457849 
L 209.817108 157.079427 
L 209.955829 157.086762 
L 210.233471 156.904719 
L 210.649835 156.839371 
L 210.927477 156.707673 
L 211.066399 156.707006 
L 211.343841 156.466617 
L 211.621483 156.392933 
L 211.899126 156.208556 
L 212.038047 156.200554 
L 212.315689 156.081193 
L 212.870774 155.894149 
L 213.148417 155.722108 
L 213.287338 155.731777 
L 213.56498 155.512392 
L 213.703702 155.507391 
L 213.981344 155.277671 
L 214.397708 155.245663 
L 214.67535 155.128636 
L 215.091714 155.118633 
L 216.341005 154.242761 
L 217.035211 154.161409 
L 218.006859 153.766983 
L 218.978508 153.691298 
L 220.644163 153.35822 
L 221.47709 153.157506 
L 222.448738 152.625048 
L 223.559308 152.368321 
L 224.392035 151.823193 
L 224.808599 151.718168 
L 225.086042 151.721169 
L 225.641326 151.346748 
L 225.780248 151.339079 
L 226.196611 151.022005 
L 226.474254 150.927316 
L 226.751896 150.759276 
L 227.029538 150.669589 
L 227.862266 150.400525 
L 229.111557 149.190241 
L 229.250478 149.190241 
L 229.666842 148.965188 
L 229.805763 148.953852 
L 234.108721 144.065038 
L 235.358012 142.610029 
L 235.635654 142.609362 
L 237.717872 140.274481 
L 237.856593 140.284816 
L 239.244806 138.441384 
L 239.938812 137.605187 
L 240.216454 137.545506 
L 242.02103 134.972902 
L 243.1314 133.537232 
L 243.409042 133.475551 
L 243.964327 132.832733 
L 247.573279 128.935151 
L 250.488424 125.340307 
L 252.848085 122.046867 
L 258.955818 113.41684 
L 262.703691 109.662959 
L 265.202273 106.81629 
L 266.867928 104.791148 
L 267.14557 104.722798 
L 270.754722 99.972683 
L 271.032364 99.876327 
L 273.114383 97.157022 
L 273.392025 97.092006 
L 274.502595 95.58932 
L 274.918958 95.482295 
L 275.196601 95.398609 
L 275.474243 95.31759 
L 275.890607 95.233237 
L 277.001177 95.188893 
L 277.972825 94.771461 
L 278.250468 94.740788 
L 279.222116 93.956937 
L 279.499758 93.921262 
L 280.610128 93.013715 
L 280.887771 92.940031 
L 281.443056 92.444248 
L 281.859419 92.335223 
L 282.275983 92.024483 
L 282.553425 92.004145 
L 285.746213 88.833067 
L 285.884935 88.822064 
L 286.578941 88.181247 
L 287.134225 88.187915 
L 287.967153 87.215354 
L 288.383516 86.743243 
L 288.661159 86.768915 
L 288.939001 86.60521 
L 289.216843 86.5602 
L 290.743977 84.641416 
L 291.437583 84.534057 
L 291.575505 84.484045 
L 291.853347 84.264661 
L 292.131189 84.278997 
L 292.409032 84.116626 
L 292.964716 84.073616 
L 293.242559 83.904243 
L 293.936165 83.796217 
L 294.49185 83.647516 
L 294.769692 83.583167 
L 294.907614 83.591503 
L 295.185456 83.375785 
L 295.463298 83.394456 
L 295.741141 83.179072 
L 296.156905 83.081049 
L 296.572669 82.82999 
L 297.268274 82.718964 
L 297.684038 82.253522 
L 298.793408 82.17617 
L 299.07125 81.973123 
L 300.876226 80.205041 
L 301.154068 80.196039 
L 301.569832 79.900969 
L 301.847675 79.896635 
L 302.403359 79.438194 
L 302.819123 79.337837 
L 303.096966 79.144125 
L 303.374808 79.144458 
L 303.65265 78.991756 
L 304.76402 78.916738 
L 305.317705 78.467633 
L 305.595548 78.463298 
L 305.87339 78.311596 
L 306.289154 78.212573 
L 306.844839 77.834484 
L 310.037027 77.723458 
L 312.813451 77.556419 
L 313.091293 77.411718 
L 314.758347 77.315362 
L 315.174111 77.269685 
L 318.921984 76.932939 
L 319.337748 76.776569 
L 320.449117 76.69455 
L 321.004802 76.363138 
L 322.807779 75.016489 
L 323.919148 74.763096 
L 325.028518 74.04026 
L 325.30636 73.95824 
L 326.001966 73.795535 
L 326.41773 73.740522 
L 326.695572 73.621161 
L 327.111336 73.540809 
L 327.667021 73.390774 
L 328.082785 73.356432 
L 328.638469 72.97701 
L 328.916312 72.974009 
L 329.332076 72.706946 
L 329.749839 72.614925 
L 330.99913 71.685707 
L 331.274973 71.654699 
L 332.24842 70.937531 
L 332.524264 70.90519 
L 332.802106 70.77816 
L 333.079949 70.77816 
L 333.357791 70.658132 
L 333.635633 70.657132 
L 335.162766 69.322818 
L 335.440609 69.308815 
L 336.412057 68.479954 
L 337.245584 68.398935 
L 338.632797 67.022945 
L 339.048561 66.983936 
L 339.744166 66.526828 
L 340.02001 66.451811 
L 340.297852 66.39013 
L 342.242748 66.326781 
L 342.518592 66.258432 
L 343.214197 66.16341 
L 343.629961 66.059719 
L 343.907803 65.965363 
L 344.185645 65.868007 
L 344.879252 65.830665 
L 345.434936 65.348885 
L 345.712779 65.253529 
L 345.990621 65.236525 
L 346.544307 64.757079 
L 346.96207 64.7024 
L 347.933518 63.779183 
L 348.765046 63.69283 
L 349.042889 63.511787 
L 350.014337 62.594572 
L 350.4321 62.51522 
L 351.125706 61.920747 
L 351.959233 61.860066 
L 352.512919 61.340944 
L 353.346446 61.264926 
L 353.624288 61.16857 
L 353.902131 61.158901 
L 354.317895 60.909509 
L 355.151422 60.824489 
L 355.707106 60.797816 
L 356.538634 60.71413 
L 356.956397 60.532421 
L 357.787925 60.47374 
L 358.065768 60.369716 
L 359.315059 60.265025 
L 360.008665 60.158666 
L 361.257956 60.04764 
L 363.062931 59.495177 
L 363.340774 59.394487 
L 364.590065 59.320469 
L 365.005829 59.212111 
L 365.283671 59.184104 
L 365.839356 58.918042 
L 366.25512 58.812017 
L 369.587228 56.337436 
L 370.97644 55.323197 
L 371.392204 55.243179 
L 372.501574 54.435989 
L 372.779417 54.433989 
L 373.335101 54.067569 
L 373.750865 53.987884 
L 374.30655 53.592124 
L 374.724313 53.527442 
L 376.805132 51.667339 
L 381.386532 47.347324 
L 382.220059 47.289978 
L 382.773744 46.839538 
L 384.440798 45.386531 
L 386.243775 44.103896 
L 387.077302 43.876176 
L 387.493066 43.818496 
L 387.770908 43.750146 
L 392.49023 40.355349 
L 393.045914 40.284332 
L 397.487393 37.951785 
L 408.037406 32.584191 
L 423.028897 27.306951 
L 425.389557 26.858513 
L 428.581746 26.352727 
L 428.581746 26.352727 
" style="fill:none;stroke:#2ca02c;stroke-linecap:square;stroke-width:1.5;"/>
   </g>
   <g id="patch_3">
    <path d="M 71.93 300.04 
L 71.93 13.32 
" style="fill:none;stroke:#000000;stroke-linecap:square;stroke-linejoin:miter;stroke-width:0.8;"/>
   </g>
   <g id="patch_4">
    <path d="M 71.93 300.04 
L 445.565162 300.04 
" style="fill:none;stroke:#000000;stroke-linecap:square;stroke-linejoin:miter;stroke-width:0.8;"/>
   </g>
   <g id="legend_1">
    <g id="patch_5">
     <path d="M 299.093287 295.04 
L 438.565162 295.04 
Q 440.565162 295.04 440.565162 293.04 
L 440.565162 250.005625 
Q 440.565162 248.005625 438.565162 248.005625 
L 299.093287 248.005625 
Q 297.093287 248.005625 297.093287 250.005625 
L 297.093287 293.04 
Q 297.093287 295.04 299.093287 295.04 
z
" style="fill:#ffffff;opacity:0.8;stroke:#cccccc;stroke-linejoin:miter;"/>
    </g>
    <g id="line2d_21">
     <path d="M 301.093287 256.104062 
L 321.093287 256.104062 
" style="fill:none;stroke:#1f77b4;stroke-linecap:square;stroke-width:1.5;"/>
    </g>
    <g id="line2d_22"/>
    <g id="text_20">
     <!-- fine-to-coarse greedy -->
     <defs>
      <path d="M 9.421875 54.6875 
L 18.40625 54.6875 
L 18.40625 0 
L 9.421875 0 
z
M 9.421875 75.984375 
L 18.40625 75.984375 
L 18.40625 64.59375 
L 9.421875 64.59375 
z
" id="DejaVuSans-69"/>
      <path d="M 54.890625 33.015625 
L 54.890625 0 
L 45.90625 0 
L 45.90625 32.71875 
Q 45.90625 40.484375 42.875 44.328125 
Q 39.84375 48.1875 33.796875 48.1875 
Q 26.515625 48.1875 22.3125 43.546875 
Q 18.109375 38.921875 18.109375 30.90625 
L 18.109375 0 
L 9.078125 0 
L 9.078125 54.6875 
L 18.109375 54.6875 
L 18.109375 46.1875 
Q 21.34375 51.125 25.703125 53.5625 
Q 30.078125 56 35.796875 56 
Q 45.21875 56 50.046875 50.171875 
Q 54.890625 44.34375 54.890625 33.015625 
z
" id="DejaVuSans-6e"/>
      <path d="M 4.890625 31.390625 
L 31.203125 31.390625 
L 31.203125 23.390625 
L 4.890625 23.390625 
z
" id="DejaVuSans-2d"/>
      <path d="M 48.78125 52.59375 
L 48.78125 44.1875 
Q 44.96875 46.296875 41.140625 47.34375 
Q 37.3125 48.390625 33.40625 48.390625 
Q 24.65625 48.390625 19.8125 42.84375 
Q 14.984375 37.3125 14.984375 27.296875 
Q 14.984375 17.28125 19.8125 11.734375 
Q 24.65625 6.203125 33.40625 6.203125 
Q 37.3125 6.203125 41.140625 7.25 
Q 44.96875 8.296875 48.78125 10.40625 
L 48.78125 2.09375 
Q 45.015625 0.34375 40.984375 -0.53125 
Q 36.96875 -1.421875 32.421875 -1.421875 
Q 20.0625 -1.421875 12.78125 6.34375 
Q 5.515625 14.109375 5.515625 27.296875 
Q 5.515625 40.671875 12.859375 48.328125 
Q 20.21875 56 33.015625 56 
Q 37.15625 56 41.109375 55.140625 
Q 45.0625 54.296875 48.78125 52.59375 
z
" id="DejaVuSans-63"/>
      <path d="M 45.40625 27.984375 
Q 45.40625 37.75 41.375 43.109375 
Q 37.359375 48.484375 30.078125 48.484375 
Q 22.859375 48.484375 18.828125 43.109375 
Q 14.796875 37.75 14.796875 27.984375 
Q 14.796875 18.265625 18.828125 12.890625 
Q 22.859375 7.515625 30.078125 7.515625 
Q 37.359375 7.515625 41.375 12.890625 
Q 45.40625 18.265625 45.40625 27.984375 
z
M 54.390625 6.78125 
Q 54.390625 -7.171875 48.1875 -13.984375 
Q 42 -20.796875 29.203125 -20.796875 
Q 24.46875 -20.796875 20.265625 -20.09375 
Q 16.0625 -19.390625 12.109375 -17.921875 
L 12.109375 -9.1875 
Q 16.0625 -11.328125 19.921875 -12.34375 
Q 23.78125 -13.375 27.78125 -13.375 
Q 36.625 -13.375 41.015625 -8.765625 
Q 45.40625 -4.15625 45.40625 5.171875 
L 45.40625 9.625 
Q 42.625 4.78125 38.28125 2.390625 
Q 33.9375 0 27.875 0 
Q 17.828125 0 11.671875 7.65625 
Q 5.515625 15.328125 5.515625 27.984375 
Q 5.515625 40.671875 11.671875 48.328125 
Q 17.828125 56 27.875 56 
Q 33.9375 56 38.28125 53.609375 
Q 42.625 51.21875 45.40625 46.390625 
L 45.40625 54.6875 
L 54.390625 54.6875 
z
" id="DejaVuSans-67"/>
     </defs>
     <g transform="translate(329.093287 259.604062)scale(0.1 -0.1)">
      <use xlink:href="#DejaVuSans-66"/>
      <use x="35.205078" xlink:href="#DejaVuSans-69"/>
      <use x="62.988281" xlink:href="#DejaVuSans-6e"/>
      <use x="126.367188" xlink:href="#DejaVuSans-65"/>
      <use x="187.890625" xlink:href="#DejaVuSans-2d"/>
      <use x="223.974609" xlink:href="#DejaVuSans-74"/>
      <use x="263.183594" xlink:href="#DejaVuSans-6f"/>
      <use x="324.380859" xlink:href="#DejaVuSans-2d"/>
      <use x="360.464844" xlink:href="#DejaVuSans-63"/>
      <use x="415.445312" xlink:href="#DejaVuSans-6f"/>
      <use x="476.626953" xlink:href="#DejaVuSans-61"/>
      <use x="537.90625" xlink:href="#DejaVuSans-72"/>
      <use x="579.019531" xlink:href="#DejaVuSans-73"/>
      <use x="631.119141" xlink:href="#DejaVuSans-65"/>
      <use x="692.642578" xlink:href="#DejaVuSans-20"/>
      <use x="724.429688" xlink:href="#DejaVuSans-67"/>
      <use x="787.90625" xlink:href="#DejaVuSans-72"/>
      <use x="828.988281" xlink:href="#DejaVuSans-65"/>
      <use x="890.511719" xlink:href="#DejaVuSans-65"/>
      <use x="952.035156" xlink:href="#DejaVuSans-64"/>
      <use x="1015.511719" xlink:href="#DejaVuSans-79"/>
     </g>
    </g>
    <g id="line2d_23">
     <path d="M 301.093287 270.782187 
L 321.093287 270.782187 
" style="fill:none;stroke:#ff7f0e;stroke-linecap:square;stroke-width:1.5;"/>
    </g>
    <g id="line2d_24"/>
    <g id="text_21">
     <!-- coarse-to-fine greedy -->
     <g transform="translate(329.093287 274.282187)scale(0.1 -0.1)">
      <use xlink:href="#DejaVuSans-63"/>
      <use x="54.980469" xlink:href="#DejaVuSans-6f"/>
      <use x="116.162109" xlink:href="#DejaVuSans-61"/>
      <use x="177.441406" xlink:href="#DejaVuSans-72"/>
      <use x="218.554688" xlink:href="#DejaVuSans-73"/>
      <use x="270.654297" xlink:href="#DejaVuSans-65"/>
      <use x="332.177734" xlink:href="#DejaVuSans-2d"/>
      <use x="368.261719" xlink:href="#DejaVuSans-74"/>
      <use x="407.470703" xlink:href="#DejaVuSans-6f"/>
      <use x="468.667969" xlink:href="#DejaVuSans-2d"/>
      <use x="504.751953" xlink:href="#DejaVuSans-66"/>
      <use x="539.957031" xlink:href="#DejaVuSans-69"/>
      <use x="567.740234" xlink:href="#DejaVuSans-6e"/>
      <use x="631.119141" xlink:href="#DejaVuSans-65"/>
      <use x="692.642578" xlink:href="#DejaVuSans-20"/>
      <use x="724.429688" xlink:href="#DejaVuSans-67"/>
      <use x="787.90625" xlink:href="#DejaVuSans-72"/>
      <use x="828.988281" xlink:href="#DejaVuSans-65"/>
      <use x="890.511719" xlink:href="#DejaVuSans-65"/>
      <use x="952.035156" xlink:href="#DejaVuSans-64"/>
      <use x="1015.511719" xlink:href="#DejaVuSans-79"/>
     </g>
    </g>
    <g id="line2d_25">
     <path d="M 301.093287 285.460312 
L 321.093287 285.460312 
" style="fill:none;stroke:#2ca02c;stroke-linecap:square;stroke-width:1.5;"/>
    </g>
    <g id="line2d_26"/>
    <g id="text_22">
     <!-- fully adaptive -->
     <defs>
      <path d="M 9.421875 75.984375 
L 18.40625 75.984375 
L 18.40625 0 
L 9.421875 0 
z
" id="DejaVuSans-6c"/>
      <path d="M 18.109375 8.203125 
L 18.109375 -20.796875 
L 9.078125 -20.796875 
L 9.078125 54.6875 
L 18.109375 54.6875 
L 18.109375 46.390625 
Q 20.953125 51.265625 25.265625 53.625 
Q 29.59375 56 35.59375 56 
Q 45.5625 56 51.78125 48.09375 
Q 58.015625 40.1875 58.015625 27.296875 
Q 58.015625 14.40625 51.78125 6.484375 
Q 45.5625 -1.421875 35.59375 -1.421875 
Q 29.59375 -1.421875 25.265625 0.953125 
Q 20.953125 3.328125 18.109375 8.203125 
z
M 48.6875 27.296875 
Q 48.6875 37.203125 44.609375 42.84375 
Q 40.53125 48.484375 33.40625 48.484375 
Q 26.265625 48.484375 22.1875 42.84375 
Q 18.109375 37.203125 18.109375 27.296875 
Q 18.109375 17.390625 22.1875 11.75 
Q 26.265625 6.109375 33.40625 6.109375 
Q 40.53125 6.109375 44.609375 11.75 
Q 48.6875 17.390625 48.6875 27.296875 
z
" id="DejaVuSans-70"/>
      <path d="M 2.984375 54.6875 
L 12.5 54.6875 
L 29.59375 8.796875 
L 46.6875 54.6875 
L 56.203125 54.6875 
L 35.6875 0 
L 23.484375 0 
z
" id="DejaVuSans-76"/>
     </defs>
     <g transform="translate(329.093287 288.960312)scale(0.1 -0.1)">
      <use xlink:href="#DejaVuSans-66"/>
      <use x="35.205078" xlink:href="#DejaVuSans-75"/>
      <use x="98.583984" xlink:href="#DejaVuSans-6c"/>
      <use x="126.367188" xlink:href="#DejaVuSans-6c"/>
      <use x="154.150391" xlink:href="#DejaVuSans-79"/>
      <use x="213.330078" xlink:href="#DejaVuSans-20"/>
      <use x="245.117188" xlink:href="#DejaVuSans-61"/>
      <use x="306.396484" xlink:href="#DejaVuSans-64"/>
      <use x="369.873047" xlink:href="#DejaVuSans-61"/>
      <use x="431.152344" xlink:href="#DejaVuSans-70"/>
      <use x="494.628906" xlink:href="#DejaVuSans-74"/>
      <use x="533.837891" xlink:href="#DejaVuSans-69"/>
      <use x="561.621094" xlink:href="#DejaVuSans-76"/>
      <use x="620.800781" xlink:href="#DejaVuSans-65"/>
     </g>
    </g>
   </g>
  </g>
 </g>
 <defs>
  <clipPath id="pcb5412c32f">
   <rect height="286.72" width="373.635162" x="71.93" y="13.32"/>
  </clipPath>
 </defs>
</svg>
